<?xml version="1.0" encoding="UTF-8"?>
<svg xmlns="http://www.w3.org/2000/svg" version="1.1" viewBox="0 0 450 900">
  <defs>
    <style>
      .cls-1 {
        fill: #292828;
      }

      .cls-2 {
        stroke: #ff5252;
      }

      .cls-2, .cls-3, .cls-4 {
        fill: none;
        stroke-width: 1.9px;
      }

      .cls-5 {
        fill: #42c684;
      }

      .cls-6 {
        fill: #fff;
      }

      .cls-7 {
        fill: #0080f9;
      }

      .cls-8 {
        fill: #ff5252;
      }

      .cls-3 {
        stroke: #fff;
      }

      .cls-4 {
        stroke: #d7df22;
      }

      .cls-9 {
        fill: #51c387;
      }

      .cls-10 {
        fill: #f9f5f1;
      }

      .cls-11 {
        fill: #52c4d4;
      }

      .cls-12 {
        fill: #d7df22;
      }

      .cls-13 {
        fill: #016dff;
      }
    </style>
  </defs>
  <!-- Generator: Adobe Illustrator 28.7.1, SVG Export Plug-In . SVG Version: 1.2.0 Build 142)  -->
  <g>
    <g id="Layer_1">
      <g>
        <g>
          <rect class="cls-8" x="360.1" width="90.1" height="90.1"/>
          <rect class="cls-12" x="270" width="90.1" height="180.2"/>
          <rect class="cls-5" x="180" width="90.1" height="90.1"/>
          <rect class="cls-11" x="89.9" width="90.1" height="90.1"/>
          <rect class="cls-1" x="-.2" width="90.1" height="90.1"/>
          <rect class="cls-10" x="360.1" y="90.1" width="90.1" height="90.1"/>
          <rect class="cls-11" x="180" y="90.1" width="90.1" height="90.1"/>
          <rect class="cls-8" x="89.9" y="90.1" width="90.1" height="90.1"/>
          <rect class="cls-12" x="-.2" y="90.1" width="90.1" height="90.1"/>
          <rect class="cls-11" x="360.1" y="180.2" width="90.1" height="90.1"/>
          <rect class="cls-8" x="270" y="180.2" width="90.1" height="90.1"/>
          <rect class="cls-12" x="180" y="180.2" width="90.1" height="90.1"/>
          <rect class="cls-1" x="89.9" y="180.2" width="90.1" height="90.1"/>
          <rect class="cls-10" x="-.2" y="180.2" width="90.1" height="90.1"/>
          <rect class="cls-5" x="360.1" y="270" width="90.1" height="90.1"/>
          <rect class="cls-10" x="270" y="270" width="90.1" height="90.1"/>
          <rect class="cls-1" x="180" y="270" width="90.1" height="90.1"/>
          <rect class="cls-11" x="89.9" y="270" width="90.1" height="90.1"/>
          <rect class="cls-5" x="-.2" y="270" width="90.1" height="90.1"/>
          <rect class="cls-1" x="360.1" y="359.9" width="90.1" height="90.1"/>
          <rect class="cls-12" x="270" y="359.9" width="90.1" height="90.1"/>
          <rect class="cls-9" x="180" y="359.9" width="90.1" height="90.1"/>
          <rect class="cls-12" x="89.9" y="359.9" width="90.1" height="90.1"/>
          <rect class="cls-11" x="-.2" y="359.9" width="90.1" height="90.1"/>
          <polygon class="cls-3" points="225.4 157.1 194.3 157.1 225.4 114.9 256.5 157.1 225.4 157.1"/>
          <g>
            <path class="cls-3" d="M425.1,45.5h0c0,17.6-20.2,27.5-34.2,16.8h0c-11-8.5-11-25,0-33.5h0c13.9-10.8,34.2-.9,34.2,16.8h0Z"/>
            <rect class="cls-3" x="382.7" y="24.3" width="42.4" height="42.4" transform="translate(657.3 363.3) rotate(-135)"/>
          </g>
          <g>
            <rect class="cls-2" x="293.4" y="293.8" width="43.7" height="43.7" rx=".7" ry=".7" transform="translate(314.9 761.8) rotate(-135)"/>
            <path class="cls-2" d="M315.7,297.3l29.2,17.6c.6.3.6,1.2,0,1.5l-29.2,18.2c-.3.2-.7.2-.9,0l-29.2-18.2c-.6-.4-.6-1.2,0-1.5l29.2-17.6c.3-.2.6-.2.9,0Z"/>
            <path class="cls-2" d="M315.4,307.2l27.6,7.6c.9.2.9,1.5,0,1.7l-27.6,7.8c-.2,0-.3,0-.5,0l-27.6-7.8c-.9-.2-.9-1.5,0-1.7l27.6-7.6c.2,0,.3,0,.5,0Z"/>
          </g>
          <g>
            <polygon class="cls-3" points="56.5 136 56.5 167.1 17.5 136 56.5 104.9 56.5 136"/>
            <circle class="cls-3" cx="55.1" cy="136" r="14.9"/>
          </g>
          <g>
            <polygon class="cls-3" points="416.7 315.7 416.7 346.8 377.6 315.7 416.7 284.6 416.7 315.7"/>
            <circle class="cls-3" cx="415.2" cy="315.7" r="14.9"/>
          </g>
          <g>
            <g>
              <path class="cls-3" d="M252.1,377.5c-15.7,0-28.4,12.7-28.4,28.4s12.7,28.4,28.4,28.4v-56.8Z"/>
              <path class="cls-3" d="M223.7,377.5c15.7,0,28.4,12.7,28.4,28.4s-12.7,28.4-28.4,28.4v-56.8Z"/>
            </g>
            <circle class="cls-3" cx="237.9" cy="405.9" r="7.3"/>
            <g>
              <line class="cls-3" x1="215.1" y1="406.5" x2="198.7" y2="406.5"/>
              <line class="cls-3" x1="214.7" y1="397.8" x2="202.4" y2="385.5"/>
              <line class="cls-3" x1="214.7" y1="414" x2="202.4" y2="426.3"/>
            </g>
          </g>
          <g>
            <g>
              <path class="cls-3" d="M430.6,197.2c-15.7,0-28.4,12.7-28.4,28.4s12.7,28.4,28.4,28.4v-56.8Z"/>
              <path class="cls-3" d="M402.2,197.2c15.7,0,28.4,12.7,28.4,28.4s-12.7,28.4-28.4,28.4v-56.8Z"/>
            </g>
            <circle class="cls-3" cx="416.4" cy="225.6" r="7.3"/>
            <g>
              <line class="cls-3" x1="393.6" y1="226.1" x2="377.2" y2="226.1"/>
              <line class="cls-3" x1="393.2" y1="217.5" x2="380.9" y2="205.2"/>
              <line class="cls-3" x1="393.2" y1="233.6" x2="380.9" y2="246"/>
            </g>
          </g>
          <g>
            <polygon class="cls-4" points="248.1 45.5 248.1 76.8 202.4 45.5 248.1 14.2 248.1 45.5"/>
            <circle class="cls-4" cx="233.4" cy="45.5" r="15"/>
            <line class="cls-4" x1="248.1" y1="14.2" x2="239.1" y2="31.7"/>
            <line class="cls-4" x1="218.4" y1="45.5" x2="202.4" y2="45.5"/>
            <line class="cls-4" x1="238.6" y1="59.5" x2="248.1" y2="75.6"/>
          </g>
          <g>
            <polygon class="cls-2" points="338 405.9 338 437.2 292.3 405.9 338 374.6 338 405.9"/>
            <circle class="cls-2" cx="323.2" cy="405.9" r="15"/>
            <line class="cls-2" x1="338" y1="374.6" x2="328.9" y2="392.1"/>
            <line class="cls-2" x1="308.2" y1="405.9" x2="292.3" y2="405.9"/>
            <line class="cls-2" x1="328.4" y1="419.9" x2="338" y2="436"/>
          </g>
          <g>
            <rect class="cls-3" x="290.8" y="111.6" width="48.9" height="48.9" transform="translate(179.2 451.2) rotate(-90)"/>
            <rect class="cls-3" x="297.9" y="118.7" width="34.5" height="34.5" transform="translate(441.9 455) rotate(-135)"/>
            <rect class="cls-3" x="303" y="123.8" width="24.4" height="24.4" transform="translate(179.2 451.2) rotate(-90)"/>
          </g>
          <g>
            <rect class="cls-3" x="19.3" y="381.5" width="48.9" height="48.9" transform="translate(-362.2 449.6) rotate(-90)"/>
            <rect class="cls-3" x="26.5" y="388.6" width="34.5" height="34.5" transform="translate(-212.3 723.8) rotate(-135)"/>
            <rect class="cls-3" x="31.5" y="393.7" width="24.4" height="24.4" transform="translate(-362.2 449.6) rotate(-90)"/>
          </g>
          <g>
            <circle class="cls-3" cx="315.2" cy="45.5" r="22.9"/>
            <path class="cls-3" d="M303.9,25.9c-.2-7.1.9-11.8,3.3-12.4,4.4-1.1,11.6,12.3,16,30,4.4,17.7,4.4,32.9,0,34-2.3.6-5.3-2.8-8.3-8.5"/>
          </g>
          <g>
            <circle class="cls-4" cx="403.9" cy="405.9" r="22.9"/>
            <path class="cls-4" d="M392.6,386.3c-.2-7.1.9-11.8,3.3-12.4,4.4-1.1,11.6,12.3,16,30,4.4,17.7,4.4,32.9,0,34-2.3.6-5.3-2.8-8.3-8.5"/>
          </g>
          <g>
            <circle class="cls-2" cx="43.7" cy="225.6" r="22.9"/>
            <path class="cls-2" d="M32.4,206c-.2-7.1.9-11.8,3.3-12.4,4.4-1.1,11.6,12.3,16,30,4.4,17.7,4.4,32.9,0,34-2.3.6-5.3-2.8-8.3-8.5"/>
          </g>
          <g>
            <line class="cls-4" x1="385.4" y1="117.5" x2="396.7" y2="128.8"/>
            <line class="cls-4" x1="403.9" y1="109.9" x2="403.9" y2="125.9"/>
            <line class="cls-4" x1="422.3" y1="117.5" x2="411" y2="128.8"/>
            <line class="cls-4" x1="430" y1="136" x2="414" y2="136"/>
            <line class="cls-4" x1="411" y1="143.2" x2="422.3" y2="154.5"/>
            <line class="cls-4" x1="403.9" y1="146.1" x2="403.9" y2="162.1"/>
            <line class="cls-4" x1="396.7" y1="143.2" x2="385.4" y2="154.5"/>
            <line class="cls-4" x1="393.7" y1="136" x2="377.8" y2="136"/>
          </g>
          <g>
            <line class="cls-4" x1="115.7" y1="297.2" x2="126.9" y2="308.5"/>
            <line class="cls-4" x1="134.1" y1="289.6" x2="134.1" y2="305.5"/>
            <line class="cls-4" x1="152.6" y1="297.2" x2="141.3" y2="308.5"/>
            <line class="cls-4" x1="160.2" y1="315.7" x2="144.3" y2="315.7"/>
            <line class="cls-4" x1="141.3" y1="322.8" x2="152.6" y2="334.1"/>
            <line class="cls-4" x1="134.1" y1="325.8" x2="134.1" y2="341.8"/>
            <line class="cls-4" x1="126.9" y1="322.8" x2="115.7" y2="334.1"/>
            <line class="cls-4" x1="124" y1="315.7" x2="108" y2="315.7"/>
          </g>
          <g>
            <line class="cls-3" x1="206.9" y1="207.1" x2="218.2" y2="218.4"/>
            <line class="cls-3" x1="225.4" y1="199.5" x2="225.4" y2="215.4"/>
            <line class="cls-3" x1="243.8" y1="207.1" x2="232.6" y2="218.4"/>
            <line class="cls-3" x1="251.5" y1="225.6" x2="235.5" y2="225.6"/>
            <line class="cls-3" x1="232.6" y1="232.7" x2="243.8" y2="244"/>
            <line class="cls-3" x1="225.4" y1="235.7" x2="225.4" y2="251.7"/>
            <line class="cls-3" x1="218.2" y1="232.7" x2="206.9" y2="244"/>
            <line class="cls-3" x1="215.2" y1="225.6" x2="199.3" y2="225.6"/>
          </g>
          <g>
            <line class="cls-3" x1="25.3" y1="27" x2="43.7" y2="45.5"/>
            <line class="cls-3" x1="43.7" y1="19.4" x2="43.7" y2="45.5"/>
            <line class="cls-3" x1="62.2" y1="27" x2="43.7" y2="45.5"/>
            <line class="cls-3" x1="69.8" y1="45.5" x2="43.7" y2="45.5"/>
            <line class="cls-3" x1="62.2" y1="64" x2="43.7" y2="45.5"/>
            <line class="cls-3" x1="43.7" y1="71.6" x2="43.7" y2="45.5"/>
            <line class="cls-3" x1="25.3" y1="64" x2="43.7" y2="45.5"/>
            <line class="cls-3" x1="17.6" y1="45.5" x2="43.7" y2="45.5"/>
          </g>
          <path class="cls-3" d="M137.3,74.6c-25.8-11.6-25.8-46.5,0-58.1M150.3,45.5c0,5.4-4.3,9.7-9.7,9.7s-9.7-4.3-9.7-9.7,4.3-9.7,9.7-9.7,9.7,4.3,9.7,9.7Z"/>
          <path class="cls-2" d="M137.3,435c-25.8-11.6-25.8-46.5,0-58.1M150.3,405.9c0,5.4-4.3,9.7-9.7,9.7s-9.7-4.3-9.7-9.7,4.3-9.7,9.7-9.7,9.7,4.3,9.7,9.7Z"/>
          <path class="cls-3" d="M155.2,136h0c0,17.5-20.1,27.4-34,16.7h0c-10.9-8.4-10.9-24.9,0-33.3h0c13.9-10.7,34-.8,34,16.7h0Z"/>
          <g>
            <path class="cls-6" d="M204.5,329c-4.6,0-7.5-2.2-7.5-7.2v-7.8h-3.1v-4.9h3.1v-3.9h6v3.9h6.4v4.9h-6.4v7.1c0,2,.8,2.5,2.9,2.5h3.6v5.4h-4.9Z"/>
            <path class="cls-6" d="M219.1,323.6h13.3v5.4h-21.1v-5.4l12.7-9.1.7-.5h-12.8v-4.9h19.9v5.1c-4.2,3.1-8.5,6.3-12.7,9.4Z"/>
            <path class="cls-6" d="M234.3,329v-26.6h6v14.1h4.5l5.1-7.4h7.1l-7.3,9.6,7.1,10.3h-7l-5-7.2h-4.6v7.2h-6Z"/>
          </g>
          <g>
            <path class="cls-6" d="M73.7,311.3c-.7-.7-1.6-1.1-2.5-1.1h-3c0-.8,0-1.5,0-2.3-.2-2-.6-4.4-1.6-6.9,3.3-1.7,5.3-3.5,5.1-5.5-.3-2.7-4.3-4.1-13.6-5.1-6.6-4.4-13.9-4.3-15-4.2-.5,0-11.1.5-17.9,8.3-11.4,4.2-12.7,6.6-12.4,8.6.3,2.1,3.2,3.4,7.2,4.1v4.1s-2.9,0-2.9,0c-1,0-1.9.4-2.6,1s-1.1,1.6-1.1,2.5v10.5c-.1,1,.2,1.9.9,2.6.7.7,1.6,1.1,2.5,1.1h2.9s0,2,0,2c0,3.7,2.9,6.7,6.6,6.8h2.8s0,4.6,0,4.6c0,1,.5,1.9,1.4,2.4.4.2.9.4,1.4.4s.9-.1,1.4-.4l6.3-3.9c2.9-1.8,6.3-2.7,9.7-2.6,3.8.2,9,.3,12.4,0,.9,0,3-.3,4.6-1.9,1.3-1.3,2-2.9,2-4.7v-3.7s2.9,0,2.9,0h.1c1.9,0,3.5-1.6,3.5-3.5v-10.5c.1-1-.2-1.9-.9-2.6h0ZM68.9,295.8c0,.6-1.4,1.6-3.5,2.7-.5-.9-1-1.7-1.6-2.6-.6-.8-1.2-1.5-1.8-2.2,6.3,1,7,2.1,7,2.1ZM43.2,289c1.2,0,12-.2,18.4,8.5.5.7.9,1.4,1.3,2.1-4.8,2-12.1,4.1-20.3,5.1-7.5.9-14.5.8-19.5.2.4-2.1,1.1-4,2.1-5.8,5.5-9.6,17.4-10.2,17.9-10.2ZM15.5,302.8c0,0,.4-1.4,6.9-4.2-1,1.9-1.6,3.8-2,5.9-2.8-.5-4.6-1.2-4.9-1.8h0ZM17,326.2c-.2,0-.4,0-.6-.2-.2-.2-.2-.4-.2-.6v-10.5c.1-.2.2-.4.4-.6.2-.1.3-.2.5-.2h2.9s-.1,12.1-.1,12.1h-2.9ZM64.1,334.3c-.8.8-1.9,1-3,1.1-3.2.3-8.3.2-12,0-4-.2-7.9.9-11.3,3l-6.2,3.9v-7.3c0,0-5.4,0-5.4,0-2.2,0-3.9-1.8-3.9-4v-2h0l.2-17.6h0v-3.3h0c0-.2,0-.3,0-.5,3.4.4,7.4.5,11.1.4,3.3,0,6.5-.3,9-.6,5.8-.7,14.8-2.7,21.1-5.3,1,2.5,1.3,4.9,1.4,6.7l-.2,22.7c0,1-.4,2-1.2,2.8ZM71.9,324.3c0,.5-.3.8-.8.8h-2.9s.1-12.1.1-12.1h2.9c.2,0,.4.1.6.3.2.2.2.4.2.6v10.5c-.1,0-.1,0-.1,0Z"/>
            <g>
              <path class="cls-6" d="M42.4,327.8c-3.2-.2-6.4-1.2-9.2-2.8l-1.4,2.4c3.2,1.9,6.8,3,10.4,3.2.7,0,1.4,0,2,0,5.3-.1,9.4-2,11.5-3.3l-1.4-2.4c-2.1,1.2-6.4,3.2-11.9,2.9h0Z"/>
              <path class="cls-6" d="M50.8,314.7c1.7,0,3,1.4,3,3s-1.4,3-3,3-3-1.4-3-3,1.4-3,3-3M50.8,311.7c-3.3,0-6,2.7-6,6s2.7,6,6,6,6-2.7,6-6-2.7-6-6-6h0Z"/>
              <path class="cls-6" d="M36.7,314.7c1.7,0,3,1.4,3,3s-1.4,3-3,3-3-1.4-3-3,1.4-3,3-3M36.7,311.7c-3.3,0-6,2.7-6,6s2.7,6,6,6,6-2.7,6-6-2.7-6-6-6h0Z"/>
            </g>
          </g>
          <g>
            <path class="cls-6" d="M345.1,220.5c-.7-.7-1.6-1.1-2.5-1.1h-3c0-.8,0-1.5,0-2.3-.2-2-.6-4.4-1.6-6.9,3.3-1.7,5.3-3.5,5.1-5.5-.3-2.7-4.3-4.1-13.6-5.1-6.6-4.4-13.9-4.3-15-4.2-.5,0-11.1.5-17.9,8.3-11.4,4.2-12.7,6.6-12.4,8.6.3,2.1,3.2,3.4,7.2,4.1v4.1s-2.9,0-2.9,0c-1,0-1.9.4-2.6,1s-1.1,1.6-1.1,2.5v10.5c-.1,1,.2,1.9.9,2.6.7.7,1.6,1.1,2.5,1.1h2.9s0,2,0,2c0,3.7,2.9,6.7,6.6,6.8h2.8s0,4.6,0,4.6c0,1,.5,1.9,1.4,2.4.4.2.9.4,1.4.4s.9-.1,1.4-.4l6.3-3.9c2.9-1.8,6.3-2.7,9.7-2.6,3.8.2,9,.3,12.4,0,.9,0,3-.3,4.6-1.9,1.3-1.3,2-2.9,2-4.7v-3.7s2.9,0,2.9,0h.1c1.9,0,3.5-1.6,3.5-3.5v-10.5c.1-1-.2-1.9-.9-2.6h0ZM340.3,205.1c0,.6-1.4,1.6-3.5,2.7-.5-.9-1-1.7-1.6-2.6-.6-.8-1.2-1.5-1.8-2.2,6.3,1,7,2.1,7,2.1ZM314.5,198.2c1.2,0,12-.2,18.4,8.5.5.7.9,1.4,1.3,2.1-4.8,2-12.1,4.1-20.3,5.1-7.5.9-14.5.8-19.5.2.4-2.1,1.1-4,2.1-5.8,5.5-9.6,17.4-10.2,17.9-10.2ZM286.8,212c0,0,.4-1.4,6.9-4.2-1,1.9-1.6,3.8-2,5.9-2.8-.5-4.6-1.2-4.9-1.8h0ZM288.3,235.5c-.2,0-.4,0-.6-.2-.2-.2-.2-.4-.2-.6v-10.5c.1-.2.2-.4.4-.6.2-.1.3-.2.5-.2h2.9s-.1,12.1-.1,12.1h-2.9ZM335.5,243.5c-.8.8-1.9,1-3,1.1-3.2.3-8.3.2-12,0-4-.2-7.9.9-11.3,3l-6.2,3.9v-7.3c0,0-5.4,0-5.4,0-2.2,0-3.9-1.8-3.9-4v-2h0l.2-17.6h0v-3.3h0c0-.2,0-.3,0-.5,3.4.4,7.4.5,11.1.4,3.3,0,6.5-.3,9-.6,5.8-.7,14.8-2.7,21.1-5.3,1,2.5,1.3,4.9,1.4,6.7l-.2,22.7c0,1-.4,2-1.2,2.8ZM343.2,233.5c0,.5-.3.8-.8.8h-2.9s.1-12.1.1-12.1h2.9c.2,0,.4.1.6.3.2.2.2.4.2.6v10.5c-.1,0-.1,0-.1,0Z"/>
            <g>
              <path class="cls-6" d="M313.7,237c-3.2-.2-6.4-1.2-9.2-2.8l-1.4,2.4c3.2,1.9,6.8,3,10.4,3.2.7,0,1.4,0,2,0,5.3-.1,9.4-2,11.5-3.3l-1.4-2.4c-2.1,1.2-6.4,3.2-11.9,2.9h0Z"/>
              <path class="cls-6" d="M322.1,223.9c1.7,0,3,1.4,3,3s-1.4,3-3,3-3-1.4-3-3,1.4-3,3-3M322.1,220.9c-3.3,0-6,2.7-6,6s2.7,6,6,6,6-2.7,6-6-2.7-6-6-6h0Z"/>
              <path class="cls-6" d="M308,223.9c1.7,0,3,1.4,3,3s-1.4,3-3,3-3-1.4-3-3,1.4-3,3-3M308,220.9c-3.3,0-6,2.7-6,6s2.7,6,6,6,6-2.7,6-6-2.7-6-6-6h0Z"/>
            </g>
          </g>
          <g>
            <rect class="cls-3" x="115.5" y="203.4" width="43.7" height="43.7" rx=".7" ry=".7" transform="translate(75.2 481.6) rotate(-135)"/>
            <path class="cls-3" d="M137.8,206.8l29.2,17.6c.6.3.6,1.2,0,1.5l-29.2,18.2c-.3.2-.7.2-.9,0l-29.2-18.2c-.6-.4-.6-1.2,0-1.5l29.2-17.6c.3-.2.6-.2.9,0Z"/>
            <path class="cls-3" d="M137.6,216.8l27.6,7.6c.9.2.9,1.5,0,1.7l-27.6,7.8c-.2,0-.3,0-.5,0l-27.6-7.8c-.9-.2-.9-1.5,0-1.7l27.6-7.6c.2,0,.3,0,.5,0Z"/>
          </g>
        </g>
        <g>
          <rect class="cls-13" x="-.2" y="450" width="450.4" height="450"/>
          <g>
            <path class="cls-6" d="M46.3,712l.9-1.7c1.5,1.5,4.2,2.5,6.9,2.5,3.9,0,5.6-1.6,5.6-3.7,0-5.8-12.9-2.2-12.9-10s2.4-5.8,7.7-5.8,4.8.7,6.5,1.9l-.8,1.8c-1.8-1.2-3.9-1.7-5.8-1.7-3.8,0-5.6,1.7-5.6,3.8,0,5.8,12.9,2.3,12.9,9.9s-2.5,5.7-7.8,5.7-6.2-1.1-7.8-2.7Z"/>
            <path class="cls-6" d="M74.7,713.6c-.8.8-2.1,1.1-3.3,1.1-3,0-4.6-1.7-4.6-4.6v-9.5h-2.8v-1.8h2.8v-3.5h2.1v3.5h4.8v1.8h-4.8v9.4c0,1.9,1,2.9,2.7,2.9s1.7-.3,2.3-.8l.8,1.5Z"/>
            <path class="cls-6" d="M86.5,698.7v2.1c-.2,0-.4,0-.5,0-3.3,0-5.3,2.1-5.3,5.8v8h-2.1v-15.8h2v3.1c1-2.1,3-3.2,5.9-3.2Z"/>
            <path class="cls-6" d="M103.9,707.3h-13.2c.2,3.3,2.8,5.5,6.2,5.5s3.6-.7,4.8-2.1l1.2,1.4c-1.4,1.7-3.6,2.6-6.1,2.6-4.9,0-8.3-3.4-8.3-8s3.3-8,7.7-8,7.6,3.3,7.6,8,0,.4,0,.7ZM90.7,705.8h11.2c-.3-3.1-2.5-5.2-5.6-5.2s-5.3,2.2-5.6,5.2Z"/>
            <path class="cls-6" d="M119.8,704.8v9.8h-2v-2.5c-1,1.6-2.8,2.6-5.4,2.6s-5.8-1.9-5.8-4.6,1.6-4.5,6.1-4.5h5v-1c0-2.7-1.5-4.2-4.5-4.2s-4,.7-5.2,1.9l-1-1.6c1.6-1.3,3.9-2.1,6.4-2.1,4.1,0,6.4,2,6.4,6.1ZM117.6,709.8v-2.6h-5c-3.1,0-4,1.2-4,2.8s1.5,3,4,3,4.2-1.1,5-3.2Z"/>
            <path class="cls-6" d="M151.6,705.4v9.1h-2.1v-8.9c0-3.3-1.7-5-4.5-5s-5.3,2.1-5.3,5.7v8.3h-2.1v-8.9c0-3.3-1.7-5-4.6-5s-5.3,2.1-5.3,5.7v8.3h-2.1v-15.8h2v2.9c1.1-1.9,3.2-3,5.8-3s4.6,1.1,5.6,3.3c1.1-2,3.4-3.3,6.2-3.3s6.4,2.2,6.4,6.8Z"/>
            <path class="cls-6" d="M157.4,692.3h2.1v22.3h-2.1v-22.3Z"/>
            <path class="cls-6" d="M165,693.8c0-.8.7-1.5,1.6-1.5s1.6.7,1.6,1.5-.7,1.6-1.6,1.6-1.6-.7-1.6-1.5ZM165.4,698.8h2.1v15.8h-2.1v-15.8Z"/>
            <path class="cls-6" d="M188,705.4v9.1h-2.1v-8.9c0-3.3-1.7-5-4.7-5s-5.5,2.1-5.5,5.7v8.3h-2.1v-15.8h2v2.9c1.1-1.9,3.3-3,6-3s6.5,2.2,6.5,6.8Z"/>
            <path class="cls-6" d="M207.6,707.3h-13.2c.2,3.3,2.8,5.5,6.2,5.5s3.6-.7,4.8-2.1l1.2,1.4c-1.4,1.7-3.6,2.6-6.1,2.6-4.9,0-8.3-3.4-8.3-8s3.3-8,7.7-8,7.6,3.3,7.6,8,0,.4,0,.7ZM194.4,705.8h11.2c-.3-3.1-2.5-5.2-5.6-5.2s-5.3,2.2-5.6,5.2Z"/>
            <path class="cls-6" d="M231.8,704.8v9.8h-2v-2.5c-1,1.6-2.8,2.6-5.4,2.6s-5.8-1.9-5.8-4.6,1.6-4.5,6.1-4.5h5v-1c0-2.7-1.5-4.2-4.5-4.2s-4,.7-5.2,1.9l-1-1.6c1.6-1.3,3.9-2.1,6.4-2.1,4.1,0,6.4,2,6.4,6.1ZM229.6,709.8v-2.6h-4.9c-3.1,0-4.1,1.2-4.1,2.8s1.5,3,4,3,4.2-1.1,5-3.2Z"/>
            <path class="cls-6" d="M237.6,692.3h2.1v22.3h-2.1v-22.3Z"/>
            <path class="cls-6" d="M245.6,692.3h2.1v22.3h-2.1v-22.3Z"/>
            <path class="cls-6" d="M50.6,731.5v8.2h10.9v1.9h-10.9v8.9h-2.2v-21h14.4v1.9h-12.2Z"/>
            <path class="cls-6" d="M78.2,740.8v9.8h-2v-2.5c-1,1.6-2.8,2.6-5.4,2.6s-5.8-1.9-5.8-4.6,1.6-4.5,6.1-4.5h5v-1c0-2.7-1.5-4.2-4.5-4.2s-4,.7-5.2,1.9l-1-1.6c1.6-1.3,3.9-2.1,6.4-2.1,4.1,0,6.4,2,6.4,6.1ZM76,745.8v-2.6h-4.9c-3.1,0-4.1,1.2-4.1,2.8s1.5,3,4,3,4.2-1.1,5-3.2Z"/>
            <path class="cls-6" d="M82.4,742.7c0-4.7,3.4-8,8.1-8s4.9,1,6.2,3.1l-1.6,1.1c-1.1-1.6-2.8-2.3-4.6-2.3-3.4,0-6,2.5-6,6.1s2.5,6.1,6,6.1,3.5-.7,4.6-2.3l1.6,1.1c-1.3,2-3.5,3.1-6.2,3.1-4.7,0-8.1-3.3-8.1-8Z"/>
            <path class="cls-6" d="M114.4,743.3h-13.2c.2,3.3,2.8,5.5,6.2,5.5s3.6-.7,4.8-2.1l1.2,1.4c-1.4,1.7-3.6,2.6-6.1,2.6-4.9,0-8.3-3.4-8.3-8s3.3-8,7.7-8,7.6,3.3,7.6,8,0,.4,0,.7ZM101.2,741.8h11.2c-.3-3.1-2.5-5.2-5.6-5.2s-5.3,2.2-5.6,5.2Z"/>
            <path class="cls-6" d="M134.8,742.7c0,4.8-3.4,8-7.9,8s-4.8-1.1-6.1-3.3v3.1h-2v-22.3h2.1v9.5c1.3-2,3.5-3.1,6-3.1,4.5,0,7.9,3.2,7.9,8ZM132.6,742.7c0-3.7-2.5-6.1-5.9-6.1s-5.9,2.5-5.9,6.1,2.5,6.1,5.9,6.1,5.9-2.5,5.9-6.1Z"/>
            <path class="cls-6" d="M137.5,742.7c0-4.7,3.4-8,8-8s8,3.3,8,8-3.4,8-8,8-8-3.4-8-8ZM151.4,742.7c0-3.7-2.5-6.1-5.8-6.1s-5.9,2.5-5.9,6.1,2.5,6.1,5.9,6.1,5.8-2.5,5.8-6.1Z"/>
            <path class="cls-6" d="M156.3,742.7c0-4.7,3.4-8,8-8s8,3.3,8,8-3.4,8-8,8-8-3.4-8-8ZM170.2,742.7c0-3.7-2.5-6.1-5.9-6.1s-5.9,2.5-5.9,6.1,2.5,6.1,5.9,6.1,5.9-2.5,5.9-6.1Z"/>
            <path class="cls-6" d="M182.6,742.7l-3.7,3.4v4.5h-2.1v-22.3h2.1v15.1l9.4-8.6h2.6l-6.8,6.4,7.4,9.3h-2.6l-6.4-7.9Z"/>
            <path class="cls-6" d="M202.1,729.8c0-.8.7-1.5,1.6-1.5s1.6.7,1.6,1.5-.7,1.6-1.6,1.6-1.6-.7-1.6-1.5ZM202.6,734.8h2.1v15.8h-2.1v-15.8Z"/>
            <path class="cls-6" d="M225.2,741.4v9.1h-2.1v-8.9c0-3.3-1.7-5-4.7-5s-5.5,2.1-5.5,5.7v8.3h-2.1v-15.8h2v2.9c1.1-1.9,3.3-3,6-3s6.5,2.2,6.5,6.8Z"/>
            <path class="cls-6" d="M239.3,749.6c-.8.8-2.1,1.1-3.3,1.1-3,0-4.6-1.7-4.6-4.6v-9.5h-2.8v-1.8h2.8v-3.5h2.1v3.5h4.8v1.8h-4.8v9.4c0,1.9,1,2.9,2.7,2.9s1.7-.3,2.3-.8l.8,1.5Z"/>
            <path class="cls-6" d="M256.3,743.3h-13.2c.2,3.3,2.8,5.5,6.2,5.5s3.6-.7,4.8-2.1l1.2,1.4c-1.4,1.7-3.6,2.6-6.1,2.6-4.9,0-8.3-3.4-8.3-8s3.3-8,7.7-8,7.6,3.3,7.6,8,0,.4,0,.7ZM243.1,741.8h11.2c-.3-3.1-2.5-5.2-5.6-5.2s-5.3,2.2-5.6,5.2Z"/>
            <path class="cls-6" d="M268.7,734.7v2.1c-.2,0-.4,0-.5,0-3.3,0-5.3,2.1-5.3,5.8v8h-2.1v-15.8h2v3.1c1-2.1,3-3.2,5.9-3.2Z"/>
            <path class="cls-6" d="M284.4,740.8v9.8h-2v-2.5c-1,1.6-2.8,2.6-5.4,2.6s-5.8-1.9-5.8-4.6,1.6-4.5,6.1-4.5h5v-1c0-2.7-1.5-4.2-4.5-4.2s-4,.7-5.2,1.9l-1-1.6c1.6-1.3,3.9-2.1,6.4-2.1,4.1,0,6.4,2,6.4,6.1ZM282.3,745.8v-2.6h-5c-3.1,0-4,1.2-4,2.8s1.5,3,4,3,4.2-1.1,5-3.2Z"/>
            <path class="cls-6" d="M288.7,742.7c0-4.7,3.4-8,8.1-8s4.9,1,6.2,3.1l-1.6,1.1c-1.1-1.6-2.8-2.3-4.6-2.3-3.5,0-6,2.5-6,6.1s2.5,6.1,6,6.1,3.5-.7,4.6-2.3l1.6,1.1c-1.3,2-3.5,3.1-6.2,3.1-4.7,0-8.1-3.3-8.1-8Z"/>
            <path class="cls-6" d="M315.6,749.6c-.8.8-2.1,1.1-3.3,1.1-3,0-4.6-1.7-4.6-4.6v-9.5h-2.8v-1.8h2.8v-3.5h2.1v3.5h4.8v1.8h-4.8v9.4c0,1.9,1,2.9,2.7,2.9s1.7-.3,2.3-.8l.7,1.5Z"/>
            <path class="cls-6" d="M319,729.8c0-.8.7-1.5,1.6-1.5s1.6.7,1.6,1.5-.7,1.6-1.6,1.6-1.6-.7-1.6-1.5ZM319.5,734.8h2.1v15.8h-2.1v-15.8Z"/>
            <path class="cls-6" d="M326,742.7c0-4.7,3.4-8,8-8s8,3.3,8,8-3.4,8-8,8-8-3.4-8-8ZM339.9,742.7c0-3.7-2.5-6.1-5.9-6.1s-5.9,2.5-5.9,6.1,2.5,6.1,5.9,6.1,5.9-2.5,5.9-6.1Z"/>
            <path class="cls-6" d="M360.9,741.4v9.1h-2.1v-8.9c0-3.3-1.7-5-4.7-5s-5.5,2.1-5.5,5.7v8.3h-2.1v-15.8h2v2.9c1.1-1.9,3.3-3,6-3s6.5,2.2,6.5,6.8Z"/>
            <path class="cls-6" d="M364.5,748.8l1-1.7c1.3,1,3.4,1.8,5.6,1.8s4.2-1,4.2-2.6c0-4.1-10.2-.9-10.2-7.1s2.2-4.5,6.2-4.5,4.3.6,5.6,1.5l-.9,1.7c-1.4-1-3-1.3-4.6-1.3-2.9,0-4.1,1.1-4.1,2.6,0,4.3,10.2,1.1,10.2,7.1s-2.4,4.5-6.5,4.5-5.1-.8-6.4-2Z"/>
          </g>
          <g>
            <path class="cls-6" d="M47.6,772.1c0,.5-.4.9-.9.9s-.9-.4-.9-.9,0-.5.2-1l.7-2.3h.8l-.6,2.4c.4.1.6.4.6.9ZM50.5,772.1c0,.5-.4.9-.9.9s-.9-.4-.9-.9,0-.5.2-1l.7-2.3h.8l-.6,2.4c.4.1.6.4.6.9Z"/>
            <path class="cls-6" d="M68.4,776.2v5.2h-1.2v-5.1c0-1.9-1-2.9-2.6-2.9s-3,1.2-3,3.2v4.7h-1.2v-5.1c0-1.9-1-2.9-2.6-2.9s-3,1.2-3,3.2v4.7h-1.2v-8.9h1.2v1.6c.6-1.1,1.8-1.7,3.3-1.7s2.6.6,3.2,1.9c.6-1.2,1.9-1.9,3.5-1.9s3.6,1.3,3.6,3.8Z"/>
            <path class="cls-6" d="M78.4,775.8v5.5h-1.2v-1.4c-.5.9-1.6,1.5-3.1,1.5s-3.3-1.1-3.3-2.6.9-2.5,3.5-2.5h2.8v-.5c0-1.5-.9-2.4-2.5-2.4s-2.2.4-3,1.1l-.5-.9c.9-.8,2.2-1.2,3.6-1.2,2.3,0,3.6,1.2,3.6,3.5ZM77.2,778.7v-1.5h-2.8c-1.7,0-2.3.7-2.3,1.6s.8,1.7,2.3,1.7,2.4-.6,2.8-1.8Z"/>
            <path class="cls-6" d="M89.9,776.2v5.2h-1.2v-5.1c0-1.9-1-2.9-2.7-2.9s-3.1,1.2-3.1,3.2v4.7h-1.2v-8.9h1.2v1.6c.6-1.1,1.9-1.7,3.4-1.7s3.7,1.3,3.7,3.8Z"/>
            <path class="cls-6" d="M99.9,775.8v5.5h-1.2v-1.4c-.5.9-1.6,1.5-3.1,1.5s-3.3-1.1-3.3-2.6.9-2.5,3.5-2.5h2.8v-.5c0-1.5-.9-2.4-2.5-2.4s-2.2.4-3,1.1l-.5-.9c.9-.8,2.2-1.2,3.6-1.2,2.3,0,3.6,1.2,3.6,3.5ZM98.7,778.7v-1.5h-2.8c-1.7,0-2.3.7-2.3,1.6s.8,1.7,2.3,1.7,2.4-.6,2.8-1.8Z"/>
            <path class="cls-6" d="M111.5,772.4v7.9c0,3.1-1.5,4.5-4.5,4.5s-3.2-.5-4.2-1.4l.6-.9c.8.8,2.1,1.2,3.5,1.2,2.3,0,3.3-1,3.3-3.2v-1.1c-.7,1.1-2,1.7-3.5,1.7-2.5,0-4.5-1.8-4.5-4.4s1.9-4.3,4.5-4.3,2.8.6,3.5,1.8v-1.7h1.2ZM110.4,776.7c0-1.9-1.4-3.3-3.4-3.3s-3.4,1.3-3.4,3.3,1.4,3.3,3.4,3.3,3.4-1.3,3.4-3.3Z"/>
            <path class="cls-6" d="M122.7,777.3h-7.5c.1,1.9,1.6,3.1,3.5,3.1s2.1-.4,2.7-1.2l.7.8c-.8,1-2,1.5-3.5,1.5-2.8,0-4.7-1.9-4.7-4.6s1.9-4.5,4.4-4.5,4.3,1.9,4.3,4.5,0,.2,0,.4ZM115.2,776.4h6.3c-.2-1.8-1.4-3-3.2-3s-3,1.2-3.2,3Z"/>
            <path class="cls-6" d="M136.4,775.8v5.5h-1.2v-1.4c-.5.9-1.6,1.5-3.1,1.5s-3.3-1.1-3.3-2.6.9-2.5,3.5-2.5h2.8v-.5c0-1.5-.9-2.4-2.5-2.4s-2.2.4-3,1.1l-.5-.9c.9-.8,2.2-1.2,3.6-1.2,2.3,0,3.6,1.2,3.6,3.5ZM135.2,778.7v-1.5h-2.8c-1.7,0-2.3.7-2.3,1.6s.8,1.7,2.3,1.7,2.4-.6,2.8-1.8Z"/>
            <path class="cls-6" d="M139.7,768.8h1.2v12.6h-1.2v-12.6Z"/>
            <path class="cls-6" d="M144.2,768.8h1.2v12.6h-1.2v-12.6Z"/>
            <path class="cls-6" d="M152.4,776.9c0-2.7,1.9-4.5,4.6-4.5s2.8.6,3.5,1.8l-.9.6c-.6-.9-1.6-1.3-2.6-1.3-2,0-3.4,1.4-3.4,3.5s1.4,3.5,3.4,3.5,2-.4,2.6-1.3l.9.6c-.7,1.2-2,1.8-3.5,1.8-2.7,0-4.6-1.9-4.6-4.6Z"/>
            <path class="cls-6" d="M170.9,772.4v8.9h-1.2v-1.6c-.6,1.1-1.8,1.7-3.2,1.7-2.3,0-3.8-1.3-3.8-3.8v-5.2h1.2v5.1c0,1.9,1,2.9,2.7,2.9s3-1.2,3-3.2v-4.7h1.2Z"/>
            <path class="cls-6" d="M173,780.3l.5-1c.7.6,1.9,1,3.2,1s2.4-.6,2.4-1.5c0-2.3-5.8-.5-5.8-4s1.3-2.5,3.5-2.5,2.4.3,3.2.8l-.5,1c-.8-.5-1.7-.8-2.6-.8-1.6,0-2.3.6-2.3,1.5,0,2.4,5.8.6,5.8,4s-1.4,2.5-3.7,2.5-2.9-.5-3.6-1.1Z"/>
            <path class="cls-6" d="M187.3,780.8c-.5.4-1.2.6-1.9.6-1.7,0-2.6-1-2.6-2.6v-5.4h-1.6v-1h1.6v-2h1.2v2h2.7v1h-2.7v5.3c0,1.1.5,1.6,1.5,1.6s1-.2,1.3-.5l.4.9Z"/>
            <path class="cls-6" d="M188.3,776.9c0-2.7,1.9-4.5,4.6-4.5s4.5,1.9,4.5,4.5-1.9,4.6-4.5,4.6-4.6-1.9-4.6-4.6ZM196.1,776.9c0-2.1-1.4-3.5-3.3-3.5s-3.3,1.4-3.3,3.5,1.4,3.5,3.3,3.5,3.3-1.4,3.3-3.5Z"/>
            <path class="cls-6" d="M214.6,776.2v5.2h-1.2v-5.1c0-1.9-1-2.9-2.6-2.9s-3,1.2-3,3.2v4.7h-1.2v-5.1c0-1.9-1-2.9-2.6-2.9s-3,1.2-3,3.2v4.7h-1.2v-8.9h1.2v1.6c.6-1.1,1.8-1.7,3.3-1.7s2.6.6,3.2,1.9c.6-1.2,1.9-1.9,3.5-1.9s3.6,1.3,3.6,3.8Z"/>
            <path class="cls-6" d="M225.7,777.3h-7.5c.1,1.9,1.6,3.1,3.5,3.1s2.1-.4,2.7-1.2l.7.8c-.8,1-2,1.5-3.5,1.5-2.8,0-4.7-1.9-4.7-4.6s1.9-4.5,4.4-4.5,4.3,1.9,4.3,4.5,0,.2,0,.4ZM218.2,776.4h6.3c-.2-1.8-1.4-3-3.2-3s-3,1.2-3.2,3Z"/>
            <path class="cls-6" d="M232.7,772.4v1.2c-.1,0-.2,0-.3,0-1.9,0-3,1.2-3,3.3v4.6h-1.2v-8.9h1.2v1.8c.6-1.2,1.7-1.8,3.3-1.8Z"/>
            <path class="cls-6" d="M254.2,776.2v5.2h-1.2v-5.1c0-1.9-1-2.9-2.6-2.9s-3,1.2-3,3.2v4.7h-1.2v-5.1c0-1.9-1-2.9-2.6-2.9s-3,1.2-3,3.2v4.7h-1.2v-8.9h1.2v1.6c.6-1.1,1.8-1.7,3.3-1.7s2.6.6,3.2,1.9c.6-1.2,1.9-1.9,3.5-1.9s3.6,1.3,3.6,3.8Z"/>
            <path class="cls-6" d="M265.3,777.3h-7.5c.1,1.9,1.6,3.1,3.5,3.1s2.1-.4,2.7-1.2l.7.8c-.8,1-2,1.5-3.5,1.5-2.8,0-4.7-1.9-4.7-4.6s1.9-4.5,4.4-4.5,4.3,1.9,4.3,4.5,0,.2,0,.4ZM257.8,776.4h6.3c-.2-1.8-1.4-3-3.2-3s-3,1.2-3.2,3Z"/>
            <path class="cls-6" d="M266.5,780.3l.5-1c.7.6,1.9,1,3.2,1s2.4-.6,2.4-1.5c0-2.3-5.8-.5-5.8-4s1.3-2.5,3.5-2.5,2.4.3,3.2.8l-.5,1c-.8-.5-1.7-.8-2.6-.8-1.6,0-2.3.6-2.3,1.5,0,2.4,5.8.6,5.8,4s-1.4,2.5-3.7,2.5-2.9-.5-3.6-1.1Z"/>
            <path class="cls-6" d="M274.9,780.3l.5-1c.7.6,1.9,1,3.2,1s2.4-.6,2.4-1.5c0-2.3-5.8-.5-5.8-4s1.3-2.5,3.5-2.5,2.4.3,3.2.8l-.5,1c-.8-.5-1.7-.8-2.6-.8-1.6,0-2.3.6-2.3,1.5,0,2.4,5.8.6,5.8,4s-1.4,2.5-3.7,2.5-2.9-.5-3.6-1.1Z"/>
            <path class="cls-6" d="M291.2,775.8v5.5h-1.2v-1.4c-.5.9-1.6,1.5-3.1,1.5s-3.3-1.1-3.3-2.6.9-2.5,3.5-2.5h2.8v-.5c0-1.5-.9-2.4-2.5-2.4s-2.2.4-3,1.1l-.5-.9c.9-.8,2.2-1.2,3.6-1.2,2.3,0,3.6,1.2,3.6,3.5ZM290,778.7v-1.5h-2.8c-1.7,0-2.3.7-2.3,1.6s.8,1.7,2.3,1.7,2.4-.6,2.8-1.8Z"/>
            <path class="cls-6" d="M302.8,772.4v7.9c0,3.1-1.5,4.5-4.5,4.5s-3.2-.5-4.2-1.4l.6-.9c.8.8,2.1,1.2,3.5,1.2,2.3,0,3.3-1,3.3-3.2v-1.1c-.7,1.1-2,1.7-3.5,1.7-2.5,0-4.5-1.8-4.5-4.4s1.9-4.3,4.5-4.3,2.8.6,3.5,1.8v-1.7h1.2ZM301.6,776.7c0-1.9-1.4-3.3-3.4-3.3s-3.4,1.3-3.4,3.3,1.4,3.3,3.4,3.3,3.4-1.3,3.4-3.3Z"/>
            <path class="cls-6" d="M313.9,777.3h-7.5c.1,1.9,1.6,3.1,3.5,3.1s2.1-.4,2.7-1.2l.7.8c-.8,1-2,1.5-3.5,1.5-2.8,0-4.7-1.9-4.7-4.6s1.9-4.5,4.4-4.5,4.3,1.9,4.3,4.5,0,.2,0,.4ZM306.4,776.4h6.3c-.2-1.8-1.4-3-3.2-3s-3,1.2-3.2,3Z"/>
            <path class="cls-6" d="M315.2,780.3l.5-1c.7.6,1.9,1,3.2,1s2.4-.6,2.4-1.5c0-2.3-5.8-.5-5.8-4s1.3-2.5,3.5-2.5,2.4.3,3.2.8l-.5,1c-.8-.5-1.7-.8-2.6-.8-1.6,0-2.3.6-2.3,1.5,0,2.4,5.8.6,5.8,4s-1.4,2.5-3.7,2.5-2.9-.5-3.6-1.1Z"/>
            <path class="cls-6" d="M53.4,796.2v5.5h-1.2v-1.4c-.5.9-1.6,1.5-3.1,1.5s-3.3-1.1-3.3-2.6.9-2.5,3.5-2.5h2.8v-.5c0-1.5-.9-2.4-2.5-2.4s-2.2.4-3,1.1l-.5-.9c.9-.8,2.2-1.2,3.6-1.2,2.3,0,3.6,1.2,3.6,3.5ZM52.2,799.1v-1.5h-2.8c-1.7,0-2.3.7-2.3,1.6s.8,1.7,2.3,1.7,2.4-.6,2.8-1.8Z"/>
            <path class="cls-6" d="M64.9,796.6v5.2h-1.2v-5.1c0-1.9-1-2.9-2.7-2.9s-3.1,1.2-3.1,3.2v4.7h-1.2v-8.9h1.2v1.6c.6-1.1,1.9-1.7,3.4-1.7s3.7,1.3,3.7,3.8Z"/>
            <path class="cls-6" d="M76.4,789.2v12.6h-1.2v-1.8c-.7,1.2-2,1.9-3.5,1.9-2.6,0-4.5-1.9-4.5-4.6s1.9-4.5,4.5-4.5,2.7.6,3.4,1.8v-5.4h1.2ZM75.2,797.3c0-2.1-1.4-3.5-3.3-3.5s-3.3,1.4-3.3,3.5,1.4,3.5,3.3,3.5,3.3-1.4,3.3-3.5Z"/>
            <path class="cls-6" d="M83.3,797.3c0-2.7,1.9-4.5,4.6-4.5s2.8.6,3.5,1.8l-.9.6c-.6-.9-1.6-1.3-2.6-1.3-2,0-3.4,1.4-3.4,3.5s1.4,3.5,3.4,3.5,2-.4,2.6-1.3l.9.6c-.7,1.2-2,1.8-3.5,1.8-2.7,0-4.6-1.9-4.6-4.6Z"/>
            <path class="cls-6" d="M92.7,797.3c0-2.7,1.9-4.5,4.6-4.5s4.5,1.9,4.5,4.5-1.9,4.6-4.5,4.6-4.6-1.9-4.6-4.6ZM100.6,797.3c0-2.1-1.4-3.5-3.3-3.5s-3.3,1.4-3.3,3.5,1.4,3.5,3.3,3.5,3.3-1.4,3.3-3.5Z"/>
            <path class="cls-6" d="M119,796.6v5.2h-1.2v-5.1c0-1.9-1-2.9-2.6-2.9s-3,1.2-3,3.2v4.7h-1.2v-5.1c0-1.9-1-2.9-2.6-2.9s-3,1.2-3,3.2v4.7h-1.2v-8.9h1.2v1.6c.6-1.1,1.8-1.7,3.3-1.7s2.6.6,3.2,1.9c.6-1.2,1.9-1.9,3.5-1.9s3.6,1.3,3.6,3.8Z"/>
            <path class="cls-6" d="M137,796.6v5.2h-1.2v-5.1c0-1.9-1-2.9-2.6-2.9s-3,1.2-3,3.2v4.7h-1.2v-5.1c0-1.9-1-2.9-2.6-2.9s-3,1.2-3,3.2v4.7h-1.2v-8.9h1.2v1.6c.6-1.1,1.8-1.7,3.3-1.7s2.6.6,3.2,1.9c.6-1.2,1.9-1.9,3.5-1.9s3.6,1.3,3.6,3.8Z"/>
            <path class="cls-6" d="M148.1,797.7h-7.5c.1,1.9,1.6,3.1,3.5,3.1s2.1-.4,2.7-1.2l.7.8c-.8,1-2,1.5-3.5,1.5-2.8,0-4.7-1.9-4.7-4.6s1.9-4.5,4.4-4.5,4.3,1.9,4.3,4.5,0,.2,0,.4ZM140.7,796.8h6.3c-.2-1.8-1.4-3-3.2-3s-3,1.2-3.2,3Z"/>
            <path class="cls-6" d="M158.9,796.6v5.2h-1.2v-5.1c0-1.9-1-2.9-2.7-2.9s-3.1,1.2-3.1,3.2v4.7h-1.2v-8.9h1.2v1.6c.6-1.1,1.9-1.7,3.4-1.7s3.7,1.3,3.7,3.8Z"/>
            <path class="cls-6" d="M166.8,801.2c-.5.4-1.2.6-1.9.6-1.7,0-2.6-1-2.6-2.6v-5.4h-1.6v-1h1.6v-2h1.2v2h2.7v1h-2.7v5.3c0,1.1.5,1.6,1.5,1.6s1-.2,1.3-.5l.4.9Z"/>
            <path class="cls-6" d="M167.8,800.7l.5-1c.7.6,1.9,1,3.2,1s2.4-.6,2.4-1.5c0-2.3-5.8-.5-5.8-4s1.3-2.5,3.5-2.5,2.4.3,3.2.8l-.5,1c-.8-.5-1.7-.8-2.6-.8-1.6,0-2.3.6-2.3,1.5,0,2.4,5.8.6,5.8,4s-1.4,2.5-3.7,2.5-2.9-.5-3.6-1.1Z"/>
            <path class="cls-6" d="M181.5,790c0-.5.4-.8.9-.8s.9.4.9.8-.4.9-.9.9-.9-.4-.9-.9ZM181.8,792.8h1.2v8.9h-1.2v-8.9Z"/>
            <path class="cls-6" d="M194.6,796.6v5.2h-1.2v-5.1c0-1.9-1-2.9-2.7-2.9s-3.1,1.2-3.1,3.2v4.7h-1.2v-8.9h1.2v1.6c.6-1.1,1.9-1.7,3.4-1.7s3.7,1.3,3.7,3.8Z"/>
            <path class="cls-6" d="M201.4,797.3c0-2.7,1.9-4.5,4.6-4.5s4.5,1.9,4.5,4.5-1.9,4.6-4.5,4.6-4.6-1.9-4.6-4.6ZM209.3,797.3c0-2.1-1.4-3.5-3.3-3.5s-3.3,1.4-3.3,3.5,1.4,3.5,3.3,3.5,3.3-1.4,3.3-3.5Z"/>
            <path class="cls-6" d="M221.2,796.6v5.2h-1.2v-5.1c0-1.9-1-2.9-2.7-2.9s-3.1,1.2-3.1,3.2v4.7h-1.2v-8.9h1.2v1.6c.6-1.1,1.9-1.7,3.4-1.7s3.7,1.3,3.7,3.8Z"/>
            <path class="cls-6" d="M232.3,797.7h-7.5c.1,1.9,1.6,3.1,3.5,3.1s2.1-.4,2.7-1.2l.7.8c-.8,1-2,1.5-3.5,1.5-2.8,0-4.7-1.9-4.7-4.6s1.9-4.5,4.4-4.5,4.3,1.9,4.3,4.5,0,.2,0,.4ZM224.8,796.8h6.3c-.2-1.8-1.4-3-3.2-3s-3,1.2-3.2,3Z"/>
            <path class="cls-6" d="M248.3,797.3c0,2.7-1.9,4.6-4.5,4.6s-2.7-.6-3.4-1.8v5h-1.2v-12.2h1.2v1.8c.7-1.2,2-1.8,3.5-1.8,2.5,0,4.5,1.8,4.5,4.5ZM247.1,797.3c0-2.1-1.4-3.5-3.3-3.5s-3.3,1.4-3.3,3.5,1.4,3.5,3.3,3.5,3.3-1.4,3.3-3.5Z"/>
            <path class="cls-6" d="M250.8,789.2h1.2v12.6h-1.2v-12.6Z"/>
            <path class="cls-6" d="M262.1,796.2v5.5h-1.2v-1.4c-.5.9-1.6,1.5-3.1,1.5s-3.3-1.1-3.3-2.6.9-2.5,3.5-2.5h2.8v-.5c0-1.5-.9-2.4-2.5-2.4s-2.2.4-3,1.1l-.5-.9c.9-.8,2.2-1.2,3.6-1.2,2.3,0,3.6,1.2,3.6,3.5ZM260.9,799.1v-1.5h-2.8c-1.7,0-2.3.7-2.3,1.6s.8,1.7,2.3,1.7,2.4-.6,2.8-1.8Z"/>
            <path class="cls-6" d="M264.5,797.3c0-2.7,1.9-4.5,4.6-4.5s2.8.6,3.5,1.8l-.9.6c-.6-.9-1.6-1.3-2.6-1.3-2,0-3.4,1.4-3.4,3.5s1.4,3.5,3.4,3.5,2-.4,2.6-1.3l.9.6c-.7,1.2-2,1.8-3.5,1.8-2.7,0-4.6-1.9-4.6-4.6Z"/>
            <path class="cls-6" d="M282.6,797.7h-7.5c.1,1.9,1.6,3.1,3.5,3.1s2.1-.4,2.7-1.2l.7.8c-.8,1-2,1.5-3.5,1.5-2.8,0-4.7-1.9-4.7-4.6s1.9-4.5,4.4-4.5,4.3,1.9,4.3,4.5,0,.2,0,.4ZM275.1,796.8h6.3c-.2-1.8-1.4-3-3.2-3s-3,1.2-3.2,3Z"/>
            <path class="cls-6" d="M284.3,800.9c0-.5.4-.9.9-.9s.9.4.9.9-.4.9-.9.9-.9-.4-.9-.9Z"/>
            <path class="cls-6" d="M287.3,789.9h1.1v4.5h-1v-4.5ZM290.2,789.9h1.1v4.5h-1v-4.5Z"/>
          </g>
          <g>
            <path class="cls-6" d="M63.3,616.6v17.2l16.1-9.1c4.5,1.3,9.3,2,14.2,2,26.5,0,47.9-20,47.9-44.7s-21.4-44.7-47.9-44.7-47.9,20-47.9,44.7,6.9,26.4,17.6,34.6h0Z"/>
            <path class="cls-7" d="M88.4,569.8l-25.8,27.3,23.5-12.9,12.3,12.9,25.7-27.3-23.2,12.7s-12.4-12.7-12.4-12.7Z"/>
            <path class="cls-6" d="M253.1,563.4c-1.5,0-2.6.5-3.7,1v11.5c1.1,0,1.7,0,2.7,0,3.7,0,4.2-1.7,4.2-4v-5.5c0-1.7-.6-3.1-3.1-3.1h0ZM228.9,562.8c-2.5,0-3.1,1.4-3.1,3.1v1h6.2v-1c0-1.7-.6-3.1-3.1-3.1h0ZM181.9,574.7c0,1.4.6,2,2,2s2.4-.5,3.5-1v-2.7h-3.3c-1.6,0-2.3.3-2.3,1.7h0ZM276.8,563.4c-2.5,0-3.4,1.4-3.4,3.1v6.3c0,1.7.9,3.1,3.4,3.1s3.4-1.4,3.4-3.1v-6.3c0-1.7-.9-3.1-3.4-3.1ZM169.4,581.8h-7.5v-18.1h-3.7v-6.2h3.7v-3.7c0-5.1,2.1-8.1,8.1-8.1h5v6.2h-3.1c-2.3,0-2.5.9-2.5,2.5v3.1h5.7l-.7,6.2h-5v18.1ZM194.9,581.8h-6.2l-.3-1.6c-2.1,1.2-4.6,1.8-7.1,1.8-4.6,0-7-3-7-7.3s2.8-6.7,7.9-6.7h5.2v-1.1c0-2.5-.3-3.3-4.2-3.3h-6.4l.6-6.2h7c8.6,0,10.5,2.7,10.5,9.6v14.8ZM216.1,564.2c-3.9-.7-5-.8-6.9-.8-3.3,0-4.4.7-4.4,3.6v5.4c0,2.8,1,3.6,4.4,3.6s3-.1,6.9-.8v6.1c-3.4.8-5.6,1-7.5,1-8,0-11.2-4.2-11.2-10.3v-4.4c0-6.1,3.2-10.3,11.2-10.3s4.1.2,7.5,1v6.1ZM239.5,571.8h-13.7v.5c0,2.8,1,3.6,4.4,3.6s4.8-.1,8.7-.8v6.1c-3.7.8-5.7,1-9.3,1-8,0-11.2-4.2-11.2-10.3v-5c0-5.3,2.4-9.7,10.6-9.7s10.6,4.3,10.6,9.7v5ZM263.7,571.9c0,5.9-1.7,10.2-11.9,10.2s-5.8-.3-9.9-.9v-33.6l7.5-1.3v11.8c1.6-.6,3.7-.9,5.6-.9,7.5,0,8.7,3.3,8.7,8.7v6.1h0ZM287.6,572.1c0,5.1-2.1,10-10.9,10s-10.9-4.9-10.9-10v-4.9c0-5.1,2.1-10,10.9-10s10.9,4.9,10.9,10v4.9ZM311.5,572.1c0,5.1-2.1,10-10.9,10s-10.9-4.9-10.9-10v-4.9c0-5.1,2.1-10,10.9-10s10.9,4.9,10.9,10v4.9ZM336.1,581.8h-8.1l-6.9-11.4v11.4h-7.5v-34.3l7.5-1.3v22l6.9-10.8h8.1l-7.5,11.8,7.5,12.5ZM300.6,563.4c-2.5,0-3.4,1.4-3.4,3.1v6.3c0,1.7.9,3.1,3.4,3.1s3.4-1.4,3.4-3.1v-6.3c0-1.7-.9-3.1-3.4-3.1ZM160.8,590.7h2.2l10.7,25.3h0l10.6-25.3h2.6v27.2h-1.9v-25.3h0l-10.5,25.3h-1.7l-10.6-25.3h.3v25.3h-1.9v-27.2ZM191.8,608.6h0c0,1.1.3,2.2.6,3.2s.8,2,1.4,2.8,1.4,1.4,2.3,1.9c.9.4,2,.7,3.2.7,2,0,3.6-.5,4.7-1.5,1.1-1,2-2.4,2.4-4.2h1.5c-.4,1.9-1.4,4-2.8,5.2s-3.4,1.8-5.7,1.8-2.7-.3-3.8-.8c-1.1-.5-2-1.3-2.7-2.2-.7-.9-1.3-2-1.6-3.2-.4-1.2-.5-2.6-.5-4s.2-2.7.6-4,.9-2.4,1.7-3.3c.8-1,1.7-1.8,2.8-2.3,1.1-.6,2.4-.9,4-.9s2.6.3,3.7.8,2,1.2,2.7,2.1,1.3,1.9,1.6,3.1.6,2.4.6,3.7v.6s0,.6,0,.6h-16.3ZM206.5,606.7c0-1-.2-2-.5-2.9-.3-.9-.8-1.7-1.4-2.5-.6-.7-1.3-1.3-2.2-1.7-.8-.4-1.8-.6-3-.6s-2.2.2-3.1.7c-.9.4-1.7,1-2.3,1.8-.6.8-1.1,1.4-1.4,2.4-.3,1-.5,1.9-.6,2.8h14.5ZM212.1,611.4c0,.9.3,1.7.6,2.4.4.7.8,1.3,1.4,1.8.6.5,1.3.9,2,1.1.8.3,1.6.4,2.5.4s1.3,0,2-.2c.7-.1,1.4-.3,2-.6.6-.3,1.1-.7,1.6-1.3.4-.6.6-1.3.6-2.1s-.3-1.9-1-2.5c-.7-.6-1.5-1-2.5-1.3s-2.1-.6-3.3-.8c-1.2-.2-2.3-.5-3.3-.9-1-.4-1.8-.9-2.5-1.6-.7-.7-1-1.7-1-3.1s.2-1.8.6-2.4,1-1.2,1.7-1.6,1.4-.7,2.3-.8c.8-.2,1.7-.3,2.5-.3s1.9.1,2.9.4c.9.2,1.7.6,2.3,1.1.6.5,1.2,1.1,1.6,1.9s.6,1.9.6,2.8h-1.5c0-.9-.1-1.6-.4-2.2-.3-.6-.7-1.1-1.2-1.5s-1.1-.7-1.9-.9-1.5-.3-2.3-.3-1.3,0-2,.2c-.7.1-1.3.4-1.8.6s-1,.7-1.3,1.2-.5,1.1-.5,1.8.2,1.4.6,1.9c.4.5.9.9,1.5,1.2s1.3.5,2.1.7l2.4.5,2.8.6c.8.2,1.6.6,2.2,1s1.1,1,1.5,1.6c.4.6.5,1.5.5,2.5s-.2,2-.7,2.7c-.5.7-1.1,1.3-1.8,1.7s-1.6.7-2.5.9c-.9.2-1.8.2-2.7.3-1.1,0-2.2-.1-3.1-.4s-1.8-.7-2.5-1.3-1.3-1.3-1.7-2.2c-.4-.9-.6-2.1-.6-3h1.5ZM230.6,611.4c0,.9.3,1.7.6,2.4.4.7.8,1.3,1.4,1.8.6.5,1.3.9,2,1.1.8.3,1.6.4,2.5.4s1.3,0,2-.2c.7-.1,1.4-.3,2-.6.6-.3,1.1-.7,1.6-1.3.4-.6.6-1.3.6-2.1s-.3-1.9-1-2.5-1.5-1-2.5-1.3-2.1-.6-3.3-.8c-1.2-.2-2.3-.5-3.3-.9-1-.4-1.8-.9-2.5-1.6-.7-.7-1-1.7-1-3.1s.2-1.8.6-2.4,1-1.2,1.7-1.6,1.4-.7,2.3-.8c.8-.2,1.7-.3,2.5-.3s1.9.1,2.9.4c.9.2,1.7.6,2.3,1.1.6.5,1.2,1.1,1.6,1.9s.6,1.9.6,2.8h-1.5c0-.9-.1-1.6-.4-2.2-.3-.6-.7-1.1-1.2-1.5s-1.1-.7-1.9-.9-1.5-.3-2.3-.3-1.3,0-2,.2c-.7.1-1.3.4-1.8.6s-1,.7-1.3,1.2-.5,1.1-.5,1.8.2,1.4.6,1.9.9.9,1.5,1.2c.6.3,1.3.5,2.1.7l2.4.5,2.8.6c.8.2,1.6.6,2.2,1s1.1,1,1.5,1.6c.4.6.5,1.5.5,2.5s-.2,2-.7,2.7c-.5.7-1.1,1.3-1.8,1.7s-1.6.7-2.5.9c-.9.2-1.8.2-2.7.3-1.1,0-2.2-.1-3.1-.4s-1.8-.7-2.5-1.3-1.3-1.3-1.7-2.2c-.4-.9-.6-2.1-.6-3h1.5ZM248.9,608.6h0c0,1.1.1,2.2.4,3.2s.8,2,1.4,2.8c.6.8,1.4,1.4,2.3,1.9s2,.7,3.2.7c2,0,3.5-.5,4.7-1.5,1.1-1,1.9-2.4,2.4-4.2h1.5c-.4,1.9-1.4,4-2.8,5.2s-3.4,1.8-5.7,1.8-2.7-.3-3.8-.8c-1.1-.5-2-1.3-2.7-2.2s-1.3-2-1.6-3.2c-.4-1.2-.5-2.6-.5-4s.2-2.7.6-4c.4-1.3.9-2.4,1.7-3.3.8-1,1.7-1.8,2.8-2.3,1.1-.6,2.4-.9,4-.9s2.6.3,3.7.8,2,1.2,2.7,2.1,1.3,1.9,1.6,3.1c.4,1.2.6,2.4.6,3.7v.6s0,.6,0,.6h-16ZM263.4,606.7c0-1-.2-2-.5-2.9-.3-.9-.8-1.7-1.4-2.5-.6-.7-1.3-1.3-2.2-1.7-.8-.4-1.8-.6-3-.6s-2.2.2-3.1.7c-.9.4-1.7,1-2.3,1.8s-1.1,1.4-1.4,2.4c-.3,1-.5,1.9-.6,2.8h14.5ZM268.6,598.3h.9v3.7h.3c.3,0,.6-1.2,1.1-1.8.5-.6,1-1,1.6-1.4s1.3-.6,2-.9,1.5-.3,2.3-.3c1.1,0,2.1.1,2.9.4.8.3,1.5.7,2,1.1s.9,1,1.2,1.6c.3.6.5,1.1.6,1.8.1.6,0,1.2,0,1.7,0,.6-.1,1-.1,1.4v12.2h-.9v-12.5c0-.5-.1-1.1-.2-1.8s-.4-1.5-.7-2.1c-.4-.7-1-1.3-1.7-1.8-.8-.5-1.8-.7-3.1-.7s-2.1.2-3,.6c-.8.4-1.6,1-2.2,1.7-.6.7-1.2,1.6-1.5,2.6-.3,1-.6,2.1-.6,3.3v10.7h-.9v-19.6h0ZM304.2,598.3v18.7c0,1.1,0,2.2-.2,3.2-.3,1-.6,2-1.2,2.8-.6.8-1.4,1.4-2.5,1.9s-2.5.7-4.2.7-2-.1-3-.3c-.9-.2-1.7-.6-2.4-1-.7-.5-1.2-1.3-1.7-2.1-.4-.8-.6-1.3-.7-3.1h1.5c0,.9.3,1.8.6,2.5.4.6.8,1.2,1.4,1.6.6.4,1.2.8,1.9.9.7.2,1.5.3,2.3.3,1.3,0,2.5-.2,3.4-.6.9-.4,1.6-.9,2.2-1.6.5-.6,1-1.4,1.2-2.2.2-.8.4-1.7.4-2.5v-4.9h-.3c-.7,1.9-1.6,2.8-2.8,3.5-1.2.8-2.6,1.3-4.3,1.3s-2.7-.2-3.8-.7c-1.1-.5-1.9-1.2-2.6-2s-1.2-1.9-1.6-3.1-.5-2.5-.5-3.8.2-2.5.6-3.7c.4-1.2.9-2.2,1.6-3.1.7-.9,1.6-1.6,2.7-2.1s2.3-.8,3.7-.8,3,.3,4.3,1.1c1.3.8,2.3,2.3,2.8,3.2h.2v-3.7h1ZM295.9,599c-1.2,0-2.3.2-3.1.7s-1.6,1.1-2.2,1.9c-.6.8-1,1.7-1.3,2.7-.3,1-.4,2-.4,3.1s.1,2.3.4,3.3.7,1.9,1.3,2.7c.6.8,1.3,1.4,2.2,1.8s1.9.7,3,.7,2.3-.2,3.2-.7,1.6-1.1,2.3-1.9c.6-.8,1.1-1.7,1.3-2.7.3-1,.4-2.1.4-3.2s-.1-2.1-.4-3.2c-.3-1-.7-1.9-1.3-2.7s-1.4-1.4-2.3-1.9c-.9-.4-1.9-.6-3.1-.7h0ZM309.9,608.6h0c0,1.1,0,2.2.3,3.2s.7,2,1.3,2.8c.6.8,1.3,1.4,2.2,1.9s1.9.7,3.2.7c2,0,3.5-.5,4.7-1.5,1.2-1,1.9-2.4,2.4-4.2h1.5c-.4,1.9-1.4,4-2.8,5.2-1.4,1.2-3.4,1.8-5.7,1.8s-2.7-.3-3.8-.8c-1.1-.5-2-1.3-2.7-2.2-.7-.9-1.3-2-1.6-3.2-.4-1.2-.5-2.6-.5-4s.2-2.7.6-4c.4-1.2.9-2.3,1.7-3.3.7-1,1.7-1.7,2.8-2.3s2.4-.9,4-.9,2.6.3,3.7.8c1.1.5,2,1.2,2.7,2.1.7.9,1.3,1.9,1.6,3.1.4,1.2.6,2.4.6,3.7v.6c0,.2,0,.6,0,.6h-15.6ZM324,606.7c0-1-.2-2-.5-2.9-.3-1-.8-1.7-1.4-2.5-.6-.7-1.3-1.3-2.2-1.7-.8-.4-1.8-.6-3-.6s-2.2.2-3.1.7c-.9.4-1.7,1-2.3,1.8s-1.1,1.4-1.4,2.4-.5,1.9-.6,2.8h14.5ZM330.5,603h0c.2-.9.5-1.4,1-2,.5-.6,1.1-1.1,1.7-1.6s1.4-.8,2.3-1c.8-.2,1.6-.4,2.6-.3v1.5c-.9,0-1.6,0-2.6.2-1,.3-1.9.8-2.8,1.7-.3.4-.6.7-.9,1.1-.3.4-.5.8-.7,1.2s-.2.9-.4,1.5,0,1.2,0,1.9v10.8h-1.9v-19.7h1.9v4.6h0Z"/>
          </g>
        </g>
      </g>
    </g>
  </g>
</svg>