<svg width="450" height="450" viewBox="0 0 450 450" fill="none" xmlns="http://www.w3.org/2000/svg">
<path d="M450.43 0H0V450H450.43V0Z" fill="#0080F9"/>
<path d="M46.5596 262.021L47.4296 260.311C48.9296 261.781 51.5996 262.861 54.3596 262.861C58.2896 262.861 59.9996 261.211 59.9996 259.141C59.9996 253.381 47.0696 256.921 47.0696 249.151C47.0696 246.061 49.4696 243.391 54.8096 243.391C57.1796 243.391 59.6396 244.081 61.3196 245.251L60.5696 247.021C58.7696 245.851 56.6696 245.281 54.8096 245.281C50.9696 245.281 49.2596 246.991 49.2596 249.091C49.2596 254.851 62.1896 251.371 62.1896 259.021C62.1896 262.111 59.7296 264.751 54.3596 264.751C51.2096 264.751 48.1196 263.641 46.5596 262.021Z" fill="white"/>
<path d="M74.8794 263.61C74.0394 264.36 72.7794 264.72 71.5494 264.72C68.5794 264.72 66.9294 263.04 66.9294 260.13V250.59H64.1094V248.79H66.9294V245.34H69.0594V248.79H73.8594V250.59H69.0594V260.01C69.0594 261.87 70.0194 262.89 71.7894 262.89C72.6594 262.89 73.5294 262.62 74.1294 262.08L74.8794 263.61Z" fill="white"/>
<path d="M86.7 248.681V250.751C86.52 250.751 86.34 250.721 86.19 250.721C82.89 250.721 80.88 252.821 80.88 256.541V264.581H78.75V248.801H80.79V251.891C81.78 249.791 83.79 248.681 86.7 248.681Z" fill="white"/>
<path d="M104.13 257.351H90.9298C91.1698 260.651 93.6898 262.841 97.1398 262.841C99.0598 262.841 100.77 262.151 101.97 260.771L103.17 262.151C101.76 263.831 99.5698 264.731 97.0798 264.731C92.1598 264.731 88.7998 261.371 88.7998 256.691C88.7998 252.011 92.0698 248.681 96.5098 248.681C100.95 248.681 104.16 251.951 104.16 256.691C104.16 256.871 104.13 257.111 104.13 257.351ZM90.9298 255.761H102.12C101.85 252.671 99.5998 250.511 96.5098 250.511C93.4198 250.511 91.1998 252.671 90.9298 255.761Z" fill="white"/>
<path d="M119.969 254.801V264.581H117.929V262.121C116.969 263.741 115.109 264.731 112.499 264.731C108.929 264.731 106.739 262.871 106.739 260.141C106.739 257.711 108.299 255.671 112.829 255.671H117.839V254.711C117.839 252.011 116.309 250.541 113.369 250.541C111.329 250.541 109.409 251.261 108.119 252.401L107.159 250.811C108.749 249.461 111.089 248.681 113.579 248.681C117.659 248.681 119.969 250.721 119.969 254.801ZM117.839 259.831V257.251H112.889C109.829 257.251 108.839 258.451 108.839 260.071C108.839 261.901 110.309 263.041 112.829 263.041C115.349 263.041 116.999 261.901 117.839 259.831Z" fill="white"/>
<path d="M151.8 255.431V264.581H149.67V255.641C149.67 252.311 147.99 250.601 145.14 250.601C141.9 250.601 139.86 252.701 139.86 256.301V264.581H137.73V255.641C137.73 252.311 136.05 250.601 133.17 250.601C129.96 250.601 127.89 252.701 127.89 256.301V264.581H125.76V248.801H127.8V251.681C128.91 249.791 130.95 248.681 133.59 248.681C136.23 248.681 138.24 249.791 139.2 252.011C140.34 249.971 142.59 248.681 145.44 248.681C149.28 248.681 151.8 250.901 151.8 255.431Z" fill="white"/>
<path d="M157.59 242.32H159.72V264.58H157.59V242.32Z" fill="white"/>
<path d="M165.18 243.82C165.18 243.01 165.87 242.32 166.74 242.32C167.61 242.32 168.3 242.98 168.3 243.79C168.3 244.66 167.64 245.35 166.74 245.35C165.84 245.35 165.18 244.66 165.18 243.82ZM165.66 248.8H167.79V264.58H165.66V248.8Z" fill="white"/>
<path d="M188.249 255.431V264.581H186.119V255.641C186.119 252.311 184.38 250.601 181.38 250.601C177.99 250.601 175.859 252.701 175.859 256.301V264.581H173.729V248.801H175.77V251.711C176.91 249.791 179.04 248.681 181.77 248.681C185.61 248.681 188.249 250.901 188.249 255.431Z" fill="white"/>
<path d="M207.84 257.351H194.64C194.88 260.651 197.4 262.841 200.85 262.841C202.77 262.841 204.48 262.151 205.68 260.771L206.88 262.151C205.47 263.831 203.28 264.731 200.79 264.731C195.87 264.731 192.51 261.371 192.51 256.691C192.51 252.011 195.78 248.681 200.22 248.681C204.66 248.681 207.87 251.951 207.87 256.691C207.87 256.871 207.84 257.111 207.84 257.351ZM194.64 255.761H205.83C205.56 252.671 203.31 250.511 200.22 250.511C197.13 250.511 194.91 252.671 194.64 255.761Z" fill="white"/>
<path d="M231.99 254.801V264.581H229.95V262.121C228.99 263.741 227.13 264.731 224.52 264.731C220.95 264.731 218.76 262.871 218.76 260.141C218.76 257.711 220.32 255.671 224.85 255.671H229.86V254.711C229.86 252.011 228.33 250.541 225.39 250.541C223.35 250.541 221.43 251.261 220.14 252.401L219.18 250.811C220.77 249.461 223.11 248.681 225.6 248.681C229.68 248.681 231.99 250.721 231.99 254.801ZM229.86 259.831V257.251H224.91C221.85 257.251 220.86 258.451 220.86 260.071C220.86 261.901 222.33 263.041 224.85 263.041C227.37 263.041 229.02 261.901 229.86 259.831Z" fill="white"/>
<path d="M237.779 242.32H239.909V264.58H237.779V242.32Z" fill="white"/>
<path d="M245.85 242.32H247.98V264.58H245.85V242.32Z" fill="white"/>
<path d="M50.7893 281.5V289.75H61.6493V291.67H50.7893V300.58H48.5693V279.58H62.9693V281.5H50.7893Z" fill="white"/>
<path d="M78.3892 290.801V300.581H76.3492V298.121C75.3892 299.741 73.5292 300.731 70.9192 300.731C67.3492 300.731 65.1592 298.871 65.1592 296.141C65.1592 293.711 66.7192 291.671 71.2492 291.671H76.2592V290.711C76.2592 288.011 74.7292 286.541 71.7892 286.541C69.7492 286.541 67.8292 287.261 66.5392 288.401L65.5792 286.811C67.1692 285.461 69.5092 284.681 71.9992 284.681C76.0792 284.681 78.3892 286.721 78.3892 290.801ZM76.2592 295.831V293.251H71.3092C68.2492 293.251 67.2592 294.451 67.2592 296.071C67.2592 297.901 68.7292 299.041 71.2492 299.041C73.7692 299.041 75.4192 297.901 76.2592 295.831Z" fill="white"/>
<path d="M82.6494 292.691C82.6494 287.981 86.0694 284.681 90.7794 284.681C93.4494 284.681 95.6994 285.731 96.9594 287.801L95.3694 288.881C94.2894 287.291 92.6094 286.541 90.7794 286.541C87.3294 286.541 84.8094 289.001 84.8094 292.691C84.8094 296.381 87.3294 298.841 90.7794 298.841C92.6094 298.841 94.2894 298.121 95.3694 296.531L96.9594 297.611C95.6994 299.651 93.4494 300.731 90.7794 300.731C86.0694 300.731 82.6494 297.401 82.6494 292.691Z" fill="white"/>
<path d="M114.6 293.351H101.4C101.64 296.651 104.16 298.841 107.61 298.841C109.53 298.841 111.24 298.151 112.44 296.771L113.64 298.151C112.23 299.831 110.04 300.731 107.55 300.731C102.63 300.731 99.2695 297.371 99.2695 292.691C99.2695 288.011 102.54 284.681 106.98 284.681C111.42 284.681 114.63 287.951 114.63 292.691C114.63 292.871 114.6 293.111 114.6 293.351ZM101.4 291.761H112.59C112.32 288.671 110.07 286.511 106.98 286.511C103.89 286.511 101.67 288.671 101.4 291.761Z" fill="white"/>
<path d="M134.969 292.69C134.969 297.46 131.609 300.73 127.109 300.73C124.499 300.73 122.309 299.59 121.019 297.46V300.58H118.979V278.32H121.109V287.8C122.429 285.76 124.589 284.68 127.109 284.68C131.609 284.68 134.969 287.92 134.969 292.69ZM132.839 292.69C132.839 289 130.289 286.54 126.959 286.54C123.629 286.54 121.079 289 121.079 292.69C121.079 296.38 123.599 298.84 126.959 298.84C130.319 298.84 132.839 296.38 132.839 292.69Z" fill="white"/>
<path d="M137.729 292.691C137.729 288.011 141.15 284.681 145.77 284.681C150.39 284.681 153.779 288.011 153.779 292.691C153.779 297.371 150.39 300.731 145.77 300.731C141.15 300.731 137.729 297.371 137.729 292.691ZM151.619 292.691C151.619 289.001 149.13 286.541 145.77 286.541C142.41 286.541 139.889 289.001 139.889 292.691C139.889 296.381 142.41 298.841 145.77 298.841C149.13 298.841 151.619 296.381 151.619 292.691Z" fill="white"/>
<path d="M156.54 292.691C156.54 288.011 159.96 284.681 164.58 284.681C169.2 284.681 172.59 288.011 172.59 292.691C172.59 297.371 169.2 300.731 164.58 300.731C159.96 300.731 156.54 297.371 156.54 292.691ZM170.43 292.691C170.43 289.001 167.94 286.541 164.58 286.541C161.22 286.541 158.7 289.001 158.7 292.691C158.7 296.381 161.22 298.841 164.58 298.841C167.94 298.841 170.43 296.381 170.43 292.691Z" fill="white"/>
<path d="M182.789 292.651L179.069 296.071V300.571H176.939V278.311H179.069V293.401L188.489 284.791H191.129L184.379 291.241L191.759 300.571H189.149L182.789 292.651Z" fill="white"/>
<path d="M202.35 279.82C202.35 279.01 203.04 278.32 203.91 278.32C204.78 278.32 205.47 278.98 205.47 279.79C205.47 280.66 204.81 281.35 203.91 281.35C203.01 281.35 202.35 280.66 202.35 279.82ZM202.83 284.8H204.96V300.58H202.83V284.8Z" fill="white"/>
<path d="M225.419 291.431V300.581H223.289V291.641C223.289 288.311 221.549 286.601 218.549 286.601C215.159 286.601 213.029 288.701 213.029 292.301V300.581H210.899V284.801H212.939V287.711C214.079 285.791 216.209 284.681 218.939 284.681C222.779 284.681 225.419 286.901 225.419 291.431Z" fill="white"/>
<path d="M239.52 299.61C238.68 300.36 237.42 300.72 236.19 300.72C233.22 300.72 231.57 299.04 231.57 296.13V286.59H228.75V284.79H231.57V281.34H233.7V284.79H238.5V286.59H233.7V296.01C233.7 297.87 234.66 298.89 236.43 298.89C237.3 298.89 238.17 298.62 238.77 298.08L239.52 299.61Z" fill="white"/>
<path d="M256.559 293.351H243.359C243.599 296.651 246.12 298.841 249.57 298.841C251.49 298.841 253.199 298.151 254.399 296.771L255.6 298.151C254.19 299.831 251.999 300.731 249.509 300.731C244.589 300.731 241.229 297.371 241.229 292.691C241.229 288.011 244.499 284.681 248.939 284.681C253.379 284.681 256.589 287.951 256.589 292.691C256.589 292.871 256.559 293.111 256.559 293.351ZM243.359 291.761H254.549C254.279 288.671 252.029 286.511 248.939 286.511C245.849 286.511 243.629 288.671 243.359 291.761Z" fill="white"/>
<path d="M268.889 284.681V286.751C268.709 286.751 268.529 286.721 268.379 286.721C265.079 286.721 263.069 288.821 263.069 292.541V300.581H260.939V284.801H262.979V287.891C263.969 285.791 265.979 284.681 268.889 284.681Z" fill="white"/>
<path d="M284.61 290.801V300.581H282.57V298.121C281.61 299.741 279.75 300.731 277.14 300.731C273.57 300.731 271.38 298.871 271.38 296.141C271.38 293.711 272.94 291.671 277.47 291.671H282.48V290.711C282.48 288.011 280.95 286.541 278.01 286.541C275.97 286.541 274.05 287.261 272.76 288.401L271.8 286.811C273.39 285.461 275.73 284.681 278.22 284.681C282.3 284.681 284.61 286.721 284.61 290.801ZM282.48 295.831V293.251H277.53C274.47 293.251 273.48 294.451 273.48 296.071C273.48 297.901 274.95 299.041 277.47 299.041C279.99 299.041 281.64 297.901 282.48 295.831Z" fill="white"/>
<path d="M288.869 292.691C288.869 287.981 292.289 284.681 296.999 284.681C299.669 284.681 301.919 285.731 303.179 287.801L301.589 288.881C300.509 287.291 298.829 286.541 296.999 286.541C293.549 286.541 291.029 289.001 291.029 292.691C291.029 296.381 293.549 298.841 296.999 298.841C298.829 298.841 300.509 298.121 301.589 296.531L303.179 297.611C301.919 299.651 299.669 300.731 296.999 300.731C292.289 300.731 288.869 297.401 288.869 292.691Z" fill="white"/>
<path d="M315.839 299.61C314.999 300.36 313.739 300.72 312.509 300.72C309.539 300.72 307.889 299.04 307.889 296.13V286.59H305.069V284.79H307.889V281.34H310.019V284.79H314.819V286.59H310.019V296.01C310.019 297.87 310.979 298.89 312.749 298.89C313.619 298.89 314.489 298.62 315.089 298.08L315.839 299.61Z" fill="white"/>
<path d="M319.22 279.82C319.22 279.01 319.91 278.32 320.78 278.32C321.65 278.32 322.34 278.98 322.34 279.79C322.34 280.66 321.68 281.35 320.78 281.35C319.88 281.35 319.22 280.66 319.22 279.82ZM319.71 284.8H321.84V300.58H319.71V284.8Z" fill="white"/>
<path d="M326.189 292.691C326.189 288.011 329.609 284.681 334.229 284.681C338.849 284.681 342.239 288.011 342.239 292.691C342.239 297.371 338.849 300.731 334.229 300.731C329.609 300.731 326.189 297.371 326.189 292.691ZM340.079 292.691C340.079 289.001 337.589 286.541 334.229 286.541C330.869 286.541 328.349 289.001 328.349 292.691C328.349 296.381 330.869 298.841 334.229 298.841C337.589 298.841 340.079 296.381 340.079 292.691Z" fill="white"/>
<path d="M361.099 291.431V300.581H358.969V291.641C358.969 288.311 357.229 286.601 354.229 286.601C350.839 286.601 348.709 288.701 348.709 292.301V300.581H346.579V284.801H348.619V287.711C349.759 285.791 351.889 284.681 354.619 284.681C358.459 284.681 361.099 286.901 361.099 291.431Z" fill="white"/>
<path d="M364.71 298.77L365.67 297.09C366.93 298.08 369.06 298.86 371.28 298.86C374.28 298.86 375.51 297.84 375.51 296.28C375.51 292.17 365.28 295.41 365.28 289.17C365.28 286.59 367.5 284.67 371.52 284.67C373.56 284.67 375.78 285.24 377.1 286.14L376.17 287.85C374.79 286.89 373.14 286.5 371.52 286.5C368.67 286.5 367.41 287.61 367.41 289.11C367.41 293.37 377.64 290.16 377.64 296.22C377.64 298.95 375.24 300.72 371.13 300.72C368.52 300.72 366 299.88 364.71 298.77Z" fill="white"/>
<path d="M47.8298 322.07C47.8298 322.61 47.4398 322.99 46.9498 322.99C46.4098 322.99 46.0498 322.58 46.0498 322.07C46.0498 321.8 46.0998 321.59 46.2698 321.1L46.9798 318.75H47.7998L47.2198 321.2C47.5898 321.32 47.8298 321.64 47.8298 322.07ZM50.7198 322.07C50.7198 322.61 50.3298 322.99 49.8398 322.99C49.2998 322.99 48.9398 322.58 48.9398 322.07C48.9398 321.8 48.9898 321.59 49.1598 321.1L49.8698 318.75H50.6898L50.1098 321.2C50.4898 321.32 50.7198 321.64 50.7198 322.07Z" fill="white"/>
<path d="M68.5901 326.18V331.36H67.3801V326.29C67.3801 324.4 66.4301 323.43 64.8101 323.43C62.9701 323.43 61.8201 324.62 61.8201 326.66V331.35H60.6101V326.28C60.6101 324.39 59.6601 323.42 58.0301 323.42C56.2101 323.42 55.0401 324.61 55.0401 326.65V331.34H53.8301V322.4H54.9901V324.03C55.6201 322.96 56.7701 322.33 58.2701 322.33C59.7701 322.33 60.9001 322.96 61.4501 324.22C62.1001 323.06 63.3701 322.33 64.9901 322.33C67.1701 322.33 68.5901 323.59 68.5901 326.15V326.18Z" fill="white"/>
<path d="M78.6201 325.82V331.36H77.4601V329.97C76.9201 330.89 75.8601 331.45 74.3801 331.45C72.3601 331.45 71.1201 330.4 71.1201 328.85C71.1201 327.47 72.0001 326.32 74.5701 326.32H77.4101V325.78C77.4101 324.25 76.5401 323.42 74.8801 323.42C73.7201 323.42 72.6401 323.83 71.9101 324.47L71.3701 323.57C72.2701 322.8 73.6001 322.36 75.0101 322.36C77.3201 322.36 78.6301 323.52 78.6301 325.83L78.6201 325.82ZM77.4101 328.68V327.22H74.6101C72.8801 327.22 72.3201 327.9 72.3201 328.82C72.3201 329.86 73.1501 330.5 74.5801 330.5C76.0101 330.5 76.9401 329.85 77.4201 328.68H77.4101Z" fill="white"/>
<path d="M90.1296 326.18V331.36H88.9196V326.29C88.9196 324.4 87.9297 323.43 86.2297 323.43C84.3097 323.43 83.0996 324.62 83.0996 326.66V331.35H81.8896V322.41H83.0497V324.06C83.6997 322.97 84.8996 322.34 86.4496 322.34C88.6296 322.34 90.1197 323.6 90.1197 326.16L90.1296 326.18Z" fill="white"/>
<path d="M100.16 325.82V331.36H99.0002V329.97C98.4602 330.89 97.4002 331.45 95.9202 331.45C93.9002 331.45 92.6602 330.4 92.6602 328.85C92.6602 327.47 93.5402 326.32 96.1102 326.32H98.9501V325.78C98.9501 324.25 98.0802 323.42 96.4202 323.42C95.2602 323.42 94.1801 323.83 93.4501 324.47L92.9102 323.57C93.8102 322.8 95.1402 322.36 96.5502 322.36C98.8602 322.36 100.17 323.52 100.17 325.83L100.16 325.82ZM98.9501 328.68V327.22H96.1502C94.4202 327.22 93.8602 327.9 93.8602 328.82C93.8602 329.86 94.6902 330.5 96.1202 330.5C97.5502 330.5 98.4802 329.85 98.9602 328.68H98.9501Z" fill="white"/>
<path d="M111.75 322.42V330.27C111.75 333.35 110.24 334.74 107.28 334.74C105.65 334.74 104.05 334.25 103.12 333.36L103.73 332.44C104.58 333.2 105.87 333.66 107.25 333.66C109.51 333.66 110.55 332.62 110.55 330.41V329.27C109.8 330.41 108.53 331 107.07 331C104.52 331 102.58 329.21 102.58 326.65C102.58 324.09 104.52 322.33 107.07 322.33C108.57 322.33 109.86 322.94 110.61 324.11V322.39H111.77L111.75 322.42ZM110.58 326.67C110.58 324.73 109.15 323.41 107.18 323.41C105.21 323.41 103.8 324.74 103.8 326.67C103.8 328.6 105.21 329.95 107.18 329.95C109.15 329.95 110.58 328.61 110.58 326.67Z" fill="white"/>
<path d="M122.92 327.27H115.44C115.58 329.14 117 330.38 118.96 330.38C120.05 330.38 121.02 329.99 121.7 329.21L122.38 329.99C121.58 330.94 120.34 331.45 118.93 331.45C116.14 331.45 114.24 329.55 114.24 326.89C114.24 324.23 116.09 322.35 118.61 322.35C121.13 322.35 122.94 324.2 122.94 326.89C122.94 326.99 122.92 327.13 122.92 327.26V327.27ZM115.44 326.37H121.78C121.63 324.62 120.35 323.39 118.6 323.39C116.85 323.39 115.59 324.61 115.44 326.37Z" fill="white"/>
<path d="M136.609 325.82V331.36H135.449V329.97C134.909 330.89 133.849 331.45 132.369 331.45C130.349 331.45 129.109 330.4 129.109 328.85C129.109 327.47 129.989 326.32 132.559 326.32H135.399V325.78C135.399 324.25 134.529 323.42 132.869 323.42C131.709 323.42 130.629 323.83 129.899 324.47L129.359 323.57C130.259 322.8 131.589 322.36 132.999 322.36C135.309 322.36 136.619 323.52 136.619 325.83L136.609 325.82ZM135.399 328.68V327.22H132.599C130.869 327.22 130.309 327.9 130.309 328.82C130.309 329.86 131.139 330.5 132.569 330.5C133.999 330.5 134.929 329.85 135.409 328.68H135.399Z" fill="white"/>
<path d="M139.89 318.75H141.1V331.36H139.89V318.75Z" fill="white"/>
<path d="M144.46 318.75H145.67V331.36H144.46V318.75Z" fill="white"/>
<path d="M152.59 326.89C152.59 324.22 154.53 322.35 157.2 322.35C158.71 322.35 159.99 322.94 160.7 324.12L159.8 324.73C159.19 323.83 158.24 323.4 157.2 323.4C155.24 323.4 153.82 324.79 153.82 326.88C153.82 328.97 155.25 330.36 157.2 330.36C158.24 330.36 159.19 329.95 159.8 329.05L160.7 329.66C159.99 330.82 158.71 331.43 157.2 331.43C154.53 331.43 152.59 329.54 152.59 326.87V326.89Z" fill="white"/>
<path d="M171.119 322.42V331.36H169.96V329.73C169.33 330.82 168.179 331.45 166.749 331.45C164.469 331.45 162.979 330.18 162.979 327.61V322.43H164.189V327.5C164.189 329.4 165.18 330.37 166.88 330.37C168.75 330.37 169.919 329.16 169.919 327.12V322.43H171.13L171.119 322.42Z" fill="white"/>
<path d="M173.26 330.34L173.8 329.39C174.51 329.95 175.72 330.39 176.98 330.39C178.68 330.39 179.38 329.81 179.38 328.93C179.38 326.6 173.58 328.44 173.58 324.9C173.58 323.44 174.84 322.35 177.12 322.35C178.28 322.35 179.53 322.67 180.28 323.18L179.75 324.15C178.97 323.61 178.03 323.38 177.12 323.38C175.5 323.38 174.79 324.01 174.79 324.86C174.79 327.27 180.59 325.45 180.59 328.89C180.59 330.44 179.23 331.44 176.9 331.44C175.42 331.44 173.99 330.96 173.26 330.34Z" fill="white"/>
<path d="M187.52 330.82C187.04 331.24 186.33 331.45 185.63 331.45C183.95 331.45 183.01 330.5 183.01 328.85V323.44H181.41V322.42H183.01V320.47H184.22V322.42H186.94V323.44H184.22V328.78C184.22 329.83 184.76 330.41 185.77 330.41C186.26 330.41 186.76 330.26 187.1 329.95L187.52 330.82Z" fill="white"/>
<path d="M188.49 326.89C188.49 324.24 190.43 322.35 193.05 322.35C195.67 322.35 197.59 324.24 197.59 326.89C197.59 329.54 195.67 331.45 193.05 331.45C190.43 331.45 188.49 329.55 188.49 326.89ZM196.36 326.89C196.36 324.8 194.95 323.41 193.04 323.41C191.13 323.41 189.71 324.8 189.71 326.89C189.71 328.98 191.14 330.37 193.04 330.37C194.94 330.37 196.36 328.98 196.36 326.89Z" fill="white"/>
<path d="M214.8 326.18V331.36H213.59V326.29C213.59 324.4 212.64 323.43 211.02 323.43C209.18 323.43 208.03 324.62 208.03 326.66V331.35H206.82V326.28C206.82 324.39 205.87 323.42 204.24 323.42C202.42 323.42 201.25 324.61 201.25 326.65V331.34H200.04V322.4H201.2V324.03C201.83 322.96 202.98 322.33 204.48 322.33C205.98 322.33 207.11 322.96 207.66 324.22C208.31 323.06 209.58 322.33 211.2 322.33C213.38 322.33 214.8 323.59 214.8 326.15V326.18Z" fill="white"/>
<path d="M225.91 327.27H218.429C218.569 329.14 219.989 330.38 221.949 330.38C223.039 330.38 224.009 329.99 224.689 329.21L225.369 329.99C224.569 330.94 223.329 331.45 221.919 331.45C219.129 331.45 217.229 329.55 217.229 326.89C217.229 324.23 219.08 322.35 221.6 322.35C224.12 322.35 225.929 324.2 225.929 326.89C225.929 326.99 225.91 327.13 225.91 327.26V327.27ZM218.429 326.37H224.77C224.62 324.62 223.339 323.39 221.589 323.39C219.839 323.39 218.579 324.61 218.429 326.37Z" fill="white"/>
<path d="M232.89 322.35V323.52C232.79 323.52 232.69 323.5 232.6 323.5C230.73 323.5 229.59 324.69 229.59 326.8V331.36H228.38V322.42H229.54V324.17C230.1 322.98 231.24 322.35 232.89 322.35Z" fill="white"/>
<path d="M254.409 326.18V331.36H253.199V326.29C253.199 324.4 252.249 323.43 250.629 323.43C248.789 323.43 247.639 324.62 247.639 326.66V331.35H246.429V326.28C246.429 324.39 245.479 323.42 243.849 323.42C242.029 323.42 240.859 324.61 240.859 326.65V331.34H239.649V322.4H240.809V324.03C241.439 322.96 242.589 322.33 244.089 322.33C245.589 322.33 246.719 322.96 247.269 324.22C247.919 323.06 249.189 322.33 250.809 322.33C252.989 322.33 254.409 323.59 254.409 326.15V326.18Z" fill="white"/>
<path d="M265.52 327.27H258.04C258.18 329.14 259.6 330.38 261.56 330.38C262.65 330.38 263.62 329.99 264.3 329.21L264.98 329.99C264.18 330.94 262.94 331.45 261.53 331.45C258.74 331.45 256.84 329.55 256.84 326.89C256.84 324.23 258.69 322.35 261.21 322.35C263.73 322.35 265.54 324.2 265.54 326.89C265.54 326.99 265.52 327.13 265.52 327.26V327.27ZM258.04 326.37H264.38C264.23 324.62 262.95 323.39 261.2 323.39C259.45 323.39 258.19 324.61 258.04 326.37Z" fill="white"/>
<path d="M266.76 330.34L267.3 329.39C268.01 329.95 269.22 330.39 270.48 330.39C272.18 330.39 272.88 329.81 272.88 328.93C272.88 326.6 267.08 328.44 267.08 324.9C267.08 323.44 268.34 322.35 270.62 322.35C271.78 322.35 273.03 322.67 273.78 323.18L273.25 324.15C272.47 323.61 271.53 323.38 270.62 323.38C269 323.38 268.29 324.01 268.29 324.86C268.29 327.27 274.09 325.45 274.09 328.89C274.09 330.44 272.73 331.44 270.4 331.44C268.92 331.44 267.49 330.96 266.76 330.34Z" fill="white"/>
<path d="M275.069 330.34L275.609 329.39C276.319 329.95 277.529 330.39 278.789 330.39C280.489 330.39 281.189 329.81 281.189 328.93C281.189 326.6 275.389 328.44 275.389 324.9C275.389 323.44 276.649 322.35 278.929 322.35C280.089 322.35 281.339 322.67 282.089 323.18L281.559 324.15C280.779 323.61 279.839 323.38 278.929 323.38C277.309 323.38 276.599 324.01 276.599 324.86C276.599 327.27 282.399 325.45 282.399 328.89C282.399 330.44 281.039 331.44 278.709 331.44C277.229 331.44 275.799 330.96 275.069 330.34Z" fill="white"/>
<path d="M291.37 325.82V331.36H290.21V329.97C289.67 330.89 288.61 331.45 287.13 331.45C285.11 331.45 283.87 330.4 283.87 328.85C283.87 327.47 284.75 326.32 287.32 326.32H290.16V325.78C290.16 324.25 289.29 323.42 287.63 323.42C286.47 323.42 285.39 323.83 284.66 324.47L284.12 323.57C285.02 322.8 286.35 322.36 287.76 322.36C290.07 322.36 291.38 323.52 291.38 325.83L291.37 325.82ZM290.17 328.68V327.22H287.37C285.64 327.22 285.08 327.9 285.08 328.82C285.08 329.86 285.91 330.5 287.34 330.5C288.77 330.5 289.7 329.85 290.18 328.68H290.17Z" fill="white"/>
<path d="M302.97 322.42V330.27C302.97 333.35 301.46 334.74 298.5 334.74C296.87 334.74 295.27 334.25 294.33 333.36L294.94 332.44C295.79 333.2 297.08 333.66 298.46 333.66C300.72 333.66 301.76 332.62 301.76 330.41V329.27C301.01 330.41 299.74 331 298.28 331C295.73 331 293.79 329.21 293.79 326.65C293.79 324.09 295.73 322.33 298.28 322.33C299.78 322.33 301.07 322.94 301.82 324.11V322.39H302.98L302.97 322.42ZM301.79 326.67C301.79 324.73 300.36 323.41 298.39 323.41C296.42 323.41 295.01 324.74 295.01 326.67C295.01 328.6 296.42 329.95 298.39 329.95C300.36 329.95 301.79 328.61 301.79 326.67Z" fill="white"/>
<path d="M314.14 327.27H306.66C306.8 329.14 308.22 330.38 310.18 330.38C311.27 330.38 312.24 329.99 312.92 329.21L313.6 329.99C312.8 330.94 311.56 331.45 310.15 331.45C307.36 331.45 305.46 329.55 305.46 326.89C305.46 324.23 307.31 322.35 309.83 322.35C312.35 322.35 314.16 324.2 314.16 326.89C314.16 326.99 314.14 327.13 314.14 327.26V327.27ZM306.66 326.37H313C312.85 324.62 311.57 323.39 309.82 323.39C308.07 323.39 306.81 324.61 306.66 326.37Z" fill="white"/>
<path d="M315.38 330.34L315.92 329.39C316.63 329.95 317.84 330.39 319.1 330.39C320.8 330.39 321.5 329.81 321.5 328.93C321.5 326.6 315.7 328.44 315.7 324.9C315.7 323.44 316.96 322.35 319.24 322.35C320.4 322.35 321.65 322.67 322.4 323.18L321.87 324.15C321.09 323.61 320.15 323.38 319.24 323.38C317.62 323.38 316.91 324.01 316.91 324.86C316.91 327.27 322.71 325.45 322.71 328.89C322.71 330.44 321.35 331.44 319.02 331.44C317.54 331.44 316.11 330.96 315.38 330.34Z" fill="white"/>
<path d="M53.5801 346.22V351.76H52.4201V350.37C51.8801 351.29 50.8201 351.85 49.3401 351.85C47.3201 351.85 46.0801 350.8 46.0801 349.25C46.0801 347.87 46.9601 346.72 49.5301 346.72H52.3701V346.18C52.3701 344.65 51.5001 343.82 49.8401 343.82C48.6801 343.82 47.6001 344.23 46.8701 344.87L46.3301 343.97C47.2301 343.2 48.5601 342.76 49.9701 342.76C52.2801 342.76 53.5901 343.92 53.5901 346.23L53.5801 346.22ZM52.3701 349.08V347.62H49.5701C47.8401 347.62 47.2801 348.3 47.2801 349.22C47.2801 350.26 48.1101 350.9 49.5401 350.9C50.9701 350.9 51.9001 350.25 52.3801 349.08H52.3701Z" fill="white"/>
<path d="M65.0896 346.58V351.76H63.8796V346.69C63.8796 344.8 62.8896 343.83 61.1896 343.83C59.2696 343.83 58.0596 345.02 58.0596 347.06V351.75H56.8496V342.81H58.0096V344.46C58.6596 343.37 59.8596 342.74 61.4096 342.74C63.5896 342.74 65.0796 344 65.0796 346.56L65.0896 346.58Z" fill="white"/>
<path d="M76.56 339.15V351.76H75.4V349.99C74.67 351.2 73.43 351.84 71.95 351.84C69.4 351.84 67.5 349.99 67.5 347.28C67.5 344.57 69.4 342.74 71.95 342.74C73.38 342.74 74.6 343.35 75.35 344.51V339.14H76.56V339.15ZM75.37 347.29C75.37 345.2 73.94 343.81 72.06 343.81C70.18 343.81 68.73 345.2 68.73 347.29C68.73 349.38 70.16 350.77 72.06 350.77C73.96 350.77 75.37 349.38 75.37 347.29Z" fill="white"/>
<path d="M83.4795 347.29C83.4795 344.62 85.4195 342.75 88.0895 342.75C89.5995 342.75 90.8795 343.34 91.5895 344.52L90.6895 345.13C90.0795 344.23 89.1295 343.8 88.0895 343.8C86.1295 343.8 84.7095 345.19 84.7095 347.28C84.7095 349.37 86.1395 350.76 88.0895 350.76C89.1295 350.76 90.0795 350.35 90.6895 349.45L91.5895 350.06C90.8795 351.22 89.5995 351.83 88.0895 351.83C85.4195 351.83 83.4795 349.94 83.4795 347.27V347.29Z" fill="white"/>
<path d="M92.8994 347.29C92.8994 344.64 94.8394 342.75 97.4594 342.75C100.079 342.75 101.999 344.64 101.999 347.29C101.999 349.94 100.079 351.85 97.4594 351.85C94.8394 351.85 92.8994 349.95 92.8994 347.29ZM100.769 347.29C100.769 345.2 99.3594 343.81 97.4594 343.81C95.5594 343.81 94.1294 345.2 94.1294 347.29C94.1294 349.38 95.5594 350.77 97.4594 350.77C99.3594 350.77 100.769 349.38 100.769 347.29Z" fill="white"/>
<path d="M119.22 346.581V351.76H118.01V346.69C118.01 344.8 117.06 343.831 115.44 343.831C113.6 343.831 112.45 345.02 112.45 347.06V351.75H111.24V346.68C111.24 344.79 110.29 343.82 108.66 343.82C106.84 343.82 105.67 345.01 105.67 347.05V351.74H104.46V342.8H105.62V344.43C106.25 343.36 107.4 342.73 108.9 342.73C110.4 342.73 111.53 343.36 112.08 344.62C112.73 343.46 114 342.73 115.62 342.73C117.8 342.73 119.22 343.99 119.22 346.55V346.581Z" fill="white"/>
<path d="M137.25 346.581V351.76H136.04V346.69C136.04 344.8 135.09 343.831 133.47 343.831C131.63 343.831 130.48 345.02 130.48 347.06V351.75H129.27V346.68C129.27 344.79 128.32 343.82 126.69 343.82C124.87 343.82 123.7 345.01 123.7 347.05V351.74H122.49V342.8H123.65V344.43C124.28 343.36 125.43 342.73 126.93 342.73C128.43 342.73 129.56 343.36 130.11 344.62C130.76 343.46 132.03 342.73 133.65 342.73C135.83 342.73 137.25 343.99 137.25 346.55V346.581Z" fill="white"/>
<path d="M148.35 347.67H140.87C141.01 349.54 142.43 350.78 144.39 350.78C145.48 350.78 146.45 350.39 147.13 349.61L147.81 350.39C147.01 351.34 145.77 351.85 144.36 351.85C141.57 351.85 139.67 349.95 139.67 347.29C139.67 344.63 141.52 342.75 144.04 342.75C146.56 342.75 148.37 344.6 148.37 347.29C148.37 347.39 148.35 347.53 148.35 347.66V347.67ZM140.88 346.77H147.22C147.07 345.02 145.79 343.79 144.04 343.79C142.29 343.79 141.03 345.01 140.88 346.77Z" fill="white"/>
<path d="M159.059 346.58V351.76H157.849V346.69C157.849 344.8 156.859 343.83 155.159 343.83C153.239 343.83 152.029 345.02 152.029 347.06V351.75H150.819V342.81H151.979V344.46C152.629 343.37 153.829 342.74 155.379 342.74C157.559 342.74 159.049 344 159.049 346.56L159.059 346.58Z" fill="white"/>
<path d="M167.049 351.22C166.569 351.64 165.859 351.85 165.159 351.85C163.479 351.85 162.539 350.9 162.539 349.25V343.84H160.939V342.82H162.539V340.87H163.749V342.82H166.469V343.84H163.749V349.18C163.749 350.23 164.289 350.81 165.299 350.81C165.789 350.81 166.289 350.66 166.629 350.35L167.049 351.22Z" fill="white"/>
<path d="M168.01 350.74L168.55 349.79C169.26 350.35 170.47 350.79 171.73 350.79C173.43 350.79 174.13 350.21 174.13 349.33C174.13 347 168.33 348.84 168.33 345.3C168.33 343.84 169.59 342.75 171.87 342.75C173.03 342.75 174.28 343.07 175.03 343.58L174.5 344.55C173.72 344.01 172.78 343.78 171.87 343.78C170.25 343.78 169.54 344.41 169.54 345.26C169.54 347.67 175.34 345.85 175.34 349.29C175.34 350.84 173.98 351.84 171.65 351.84C170.17 351.84 168.74 351.36 168.01 350.74Z" fill="white"/>
<path d="M181.74 340C181.74 339.54 182.13 339.15 182.62 339.15C183.11 339.15 183.5 339.52 183.5 339.98C183.5 340.47 183.13 340.86 182.62 340.86C182.11 340.86 181.74 340.47 181.74 339.99V340ZM182.01 342.82H183.22V351.76H182.01V342.82Z" fill="white"/>
<path d="M194.809 346.58V351.76H193.599V346.69C193.599 344.8 192.609 343.83 190.909 343.83C188.989 343.83 187.779 345.02 187.779 347.06V351.75H186.569V342.81H187.729V344.46C188.379 343.37 189.579 342.74 191.129 342.74C193.309 342.74 194.799 344 194.799 346.56L194.809 346.58Z" fill="white"/>
<path d="M201.649 347.29C201.649 344.64 203.589 342.75 206.199 342.75C208.809 342.75 210.739 344.64 210.739 347.29C210.739 349.94 208.819 351.85 206.199 351.85C203.579 351.85 201.649 349.95 201.649 347.29ZM209.519 347.29C209.519 345.2 208.109 343.81 206.199 343.81C204.289 343.81 202.869 345.2 202.869 347.29C202.869 349.38 204.299 350.77 206.199 350.77C208.099 350.77 209.519 349.38 209.519 347.29Z" fill="white"/>
<path d="M221.44 346.58V351.76H220.23V346.69C220.23 344.8 219.24 343.83 217.54 343.83C215.62 343.83 214.41 345.02 214.41 347.06V351.75H213.2V342.81H214.36V344.46C215.01 343.37 216.21 342.74 217.76 342.74C219.94 342.74 221.43 344 221.43 346.56L221.44 346.58Z" fill="white"/>
<path d="M232.539 347.67H225.059C225.199 349.54 226.619 350.78 228.579 350.78C229.669 350.78 230.639 350.39 231.319 349.61L231.999 350.39C231.199 351.34 229.959 351.85 228.549 351.85C225.759 351.85 223.859 349.95 223.859 347.29C223.859 344.63 225.709 342.75 228.229 342.75C230.749 342.75 232.559 344.6 232.559 347.29C232.559 347.39 232.539 347.53 232.539 347.66V347.67ZM225.059 346.77H231.399C231.249 345.02 229.969 343.79 228.219 343.79C226.469 343.79 225.209 345.01 225.059 346.77Z" fill="white"/>
<path d="M248.53 347.29C248.53 350.01 246.63 351.85 244.08 351.85C242.65 351.85 241.43 351.24 240.68 350.08V355.06H239.47V342.82H240.63V344.59C241.36 343.4 242.6 342.75 244.08 342.75C246.63 342.75 248.53 344.59 248.53 347.29ZM247.33 347.29C247.33 345.22 245.88 343.81 244 343.81C242.12 343.81 240.67 345.22 240.67 347.29C240.67 349.36 242.1 350.77 244 350.77C245.9 350.77 247.33 349.38 247.33 347.29Z" fill="white"/>
<path d="M251 339.15H252.21V351.76H251V339.15Z" fill="white"/>
<path d="M262.319 346.22V351.76H261.159V350.37C260.619 351.29 259.559 351.85 258.079 351.85C256.059 351.85 254.819 350.8 254.819 349.25C254.819 347.87 255.699 346.72 258.269 346.72H261.109V346.18C261.109 344.65 260.239 343.82 258.579 343.82C257.419 343.82 256.339 344.23 255.609 344.87L255.069 343.97C255.969 343.2 257.299 342.76 258.709 342.76C261.019 342.76 262.329 343.92 262.329 346.23L262.319 346.22ZM261.109 349.08V347.62H258.309C256.579 347.62 256.019 348.3 256.019 349.22C256.019 350.26 256.849 350.9 258.279 350.9C259.709 350.9 260.639 350.25 261.119 349.08H261.109Z" fill="white"/>
<path d="M264.729 347.29C264.729 344.62 266.669 342.75 269.339 342.75C270.849 342.75 272.129 343.34 272.839 344.52L271.939 345.13C271.329 344.23 270.379 343.8 269.339 343.8C267.379 343.8 265.959 345.19 265.959 347.28C265.959 349.37 267.389 350.76 269.339 350.76C270.379 350.76 271.329 350.35 271.939 349.45L272.839 350.06C272.129 351.22 270.849 351.83 269.339 351.83C266.669 351.83 264.729 349.94 264.729 347.27V347.29Z" fill="white"/>
<path d="M282.84 347.67H275.36C275.5 349.54 276.92 350.78 278.88 350.78C279.97 350.78 280.94 350.39 281.62 349.61L282.3 350.39C281.5 351.34 280.26 351.85 278.85 351.85C276.06 351.85 274.16 349.95 274.16 347.29C274.16 344.63 276.01 342.75 278.53 342.75C281.05 342.75 282.86 344.6 282.86 347.29C282.86 347.39 282.84 347.53 282.84 347.66V347.67ZM275.36 346.77H281.7C281.55 345.02 280.27 343.79 278.52 343.79C276.77 343.79 275.51 345.01 275.36 346.77Z" fill="white"/>
<path d="M284.54 350.91C284.54 350.38 284.95 349.99 285.44 349.99C285.93 349.99 286.36 350.38 286.36 350.91C286.36 351.44 285.94 351.84 285.44 351.84C284.94 351.84 284.54 351.43 284.54 350.91Z" fill="white"/>
<path d="M287.479 339.87H288.549L288.469 344.36H287.569L287.489 339.87H287.479ZM290.389 339.87H291.459L291.379 344.36H290.479L290.389 339.87Z" fill="white"/>
<path d="M63.5096 166.63V183.82L79.5896 174.68C84.0696 175.97 88.8397 176.67 93.7597 176.67C120.23 176.67 141.66 156.67 141.66 131.99C141.66 107.31 120.23 87.3096 93.7597 87.3096C67.2897 87.3096 45.8896 107.31 45.8896 131.99C45.8896 145.96 52.7396 158.43 63.5196 166.63H63.5096Z" fill="white"/>
<path d="M88.6601 119.76L62.8301 147.11L86.3401 134.23L98.6101 147.11L124.29 119.76L101.04 132.44L88.6501 119.76H88.6601Z" fill="#0080F9"/>
<path d="M253.34 113.369C251.82 113.369 250.73 113.869 249.62 114.369V125.879C250.67 125.969 251.32 125.969 252.31 125.969C255.97 125.969 256.47 124.299 256.47 121.959V116.459C256.47 114.759 255.88 113.389 253.34 113.389V113.369ZM229.06 112.759C226.51 112.759 225.96 114.169 225.96 115.859V116.829H232.2V115.859C232.17 114.129 231.61 112.729 229.07 112.759H229.06ZM182.07 124.729C182.07 126.109 182.71 126.779 184.12 126.779C185.64 126.779 186.55 126.279 187.66 125.779V123.059H184.32C182.77 123.029 182.07 123.319 182.07 124.729ZM276.97 113.369C274.45 113.369 273.54 114.749 273.54 116.469V122.769C273.54 124.499 274.42 125.899 276.97 125.899C279.52 125.899 280.4 124.519 280.4 122.769V116.469C280.37 114.769 279.49 113.369 276.97 113.369ZM169.62 131.789H162.15V113.719H158.43V107.479H162.15V103.729C162.15 98.6391 164.26 95.6191 170.23 95.6191H175.21V101.859H172.11C169.77 101.859 169.62 102.739 169.62 104.349V107.449H175.27L174.6 113.689H169.62V131.789ZM195.13 131.819H188.92L188.66 130.239C186.52 131.439 184.09 132.079 181.6 132.059C177.03 132.059 174.6 129.009 174.6 124.799C174.6 119.819 177.44 118.069 182.51 118.069H187.66V116.989C187.66 114.439 187.37 113.709 183.47 113.709H177.09L177.7 107.469H184.67C193.25 107.469 195.12 110.159 195.12 117.039V131.829L195.13 131.819ZM216.3 114.159C212.43 113.489 211.32 113.339 209.45 113.339C206.11 113.339 205.09 114.069 205.09 116.909V122.299C205.09 125.139 206.11 125.869 209.45 125.869C211.32 125.869 212.44 125.719 216.3 125.049V131.109C212.9 131.869 210.71 132.079 208.83 132.079C200.81 132.079 197.62 127.859 197.62 121.769V117.409C197.62 111.319 200.81 107.099 208.83 107.099C210.7 107.099 212.9 107.299 216.3 108.069V114.159ZM239.66 121.799H225.96V122.299C225.96 125.139 226.98 125.869 230.32 125.869C233.31 125.869 235.15 125.719 239.05 125.049V131.109C235.33 131.869 233.37 132.079 229.71 132.079C221.69 132.079 218.5 127.859 218.5 121.769V116.789C218.5 111.459 220.87 107.099 229.07 107.099C237.27 107.099 239.64 111.399 239.64 116.789L239.67 121.799H239.66ZM263.91 121.919C263.91 127.809 262.24 132.109 252.05 132.109C248.36 132.109 246.22 131.789 242.15 131.169V97.5292L249.62 96.2692V108.039C251.23 107.449 253.31 107.129 255.21 107.129C262.68 107.129 263.94 110.469 263.94 115.859L263.91 121.919ZM287.83 122.069C287.83 127.139 285.72 132.079 276.97 132.079C268.22 132.079 266.05 127.159 266.05 122.069V117.179C266.05 112.089 268.19 107.169 276.97 107.169C285.75 107.169 287.83 112.089 287.83 117.179V122.069ZM311.75 122.069C311.75 127.139 309.64 132.079 300.89 132.079C292.14 132.079 289.97 127.159 289.97 122.069V117.179C289.97 112.089 292.11 107.169 300.89 107.169C309.67 107.169 311.75 112.089 311.75 117.179V122.069ZM336.29 131.789H328.21L321.36 120.369V131.789H313.89V97.5292L321.36 96.2692V118.319L328.21 107.489H336.29L328.82 119.319L336.29 131.789ZM300.86 113.369C298.31 113.369 297.43 114.749 297.43 116.469V122.769C297.43 124.499 298.31 125.899 300.86 125.899C303.41 125.899 304.29 124.519 304.29 122.769V116.469C304.29 114.739 303.38 113.369 300.86 113.369ZM161.02 140.749H163.25L173.97 166.049H174.06L184.66 140.749H187.27V167.919H185.4V142.619H185.34L174.89 167.919H173.19L162.62 142.619H162.91V167.919H161.04V140.749H161.02ZM191.97 158.579V158.489C191.97 159.629 192.23 160.739 192.56 161.799C192.89 162.859 193.38 163.759 193.99 164.549C194.6 165.339 195.4 165.979 196.3 166.419C197.21 166.859 198.29 167.119 199.49 167.119C201.45 167.119 203.06 166.649 204.2 165.629C205.34 164.609 206.16 163.259 206.6 161.379H208.06C207.62 163.249 206.68 165.389 205.25 166.619C203.82 167.849 201.88 168.439 199.51 168.439C198.05 168.439 196.79 168.149 195.67 167.649C194.59 167.119 193.68 166.389 192.95 165.479C192.22 164.569 191.66 163.489 191.31 162.259C190.96 161.029 190.78 159.679 190.78 158.249C190.78 156.819 190.96 155.529 191.34 154.269C191.72 153.009 192.28 151.899 193.01 150.929C193.77 149.959 194.71 149.169 195.79 148.619C196.9 148.029 198.22 147.739 199.74 147.739C201.12 147.739 202.35 147.999 203.4 148.499C204.45 148.999 205.36 149.699 206.06 150.609C206.76 151.519 207.32 152.509 207.7 153.679C208.08 154.849 208.26 156.079 208.26 157.429L208.23 158.019L208.2 158.579H191.95H191.97ZM206.72 156.709C206.66 155.709 206.49 154.749 206.19 153.809C205.9 152.899 205.43 152.079 204.81 151.349C204.2 150.619 203.46 150.059 202.61 149.649C201.76 149.209 200.77 149.009 199.65 149.009C198.48 149.009 197.42 149.239 196.52 149.679C195.61 150.119 194.85 150.699 194.24 151.469C193.63 152.229 193.16 152.899 192.81 153.869C192.49 154.839 192.28 155.769 192.2 156.709H206.72ZM212.32 161.389C212.38 162.329 212.58 163.119 212.93 163.819C213.28 164.489 213.75 165.109 214.34 165.639C214.93 166.139 215.63 166.519 216.36 166.779C217.12 167.039 217.97 167.159 218.85 167.159C219.49 167.159 220.17 167.099 220.9 166.979C221.6 166.859 222.31 166.659 222.95 166.339C223.56 166.049 224.09 165.609 224.5 165.049C224.91 164.489 225.11 163.789 225.11 162.939C225.11 161.829 224.79 161.009 224.11 160.449C223.44 159.889 222.62 159.449 221.59 159.129C220.56 158.809 219.48 158.569 218.31 158.369C217.14 158.169 216.06 157.899 215.03 157.489C214.01 157.109 213.19 156.549 212.51 155.849C211.84 155.149 211.51 154.119 211.51 152.749C211.51 151.779 211.71 150.959 212.15 150.319C212.59 149.679 213.15 149.149 213.82 148.769C214.49 148.389 215.25 148.099 216.1 147.949C216.95 147.769 217.8 147.689 218.65 147.689C219.62 147.689 220.58 147.809 221.52 148.039C222.43 148.269 223.19 148.649 223.83 149.149C224.47 149.679 225 150.229 225.38 151.019C225.76 151.809 225.94 152.889 225.94 153.829H224.48C224.48 152.889 224.33 152.249 224.04 151.599C223.75 150.959 223.34 150.489 222.81 150.079C222.28 149.669 221.67 149.409 220.94 149.199C220.21 148.989 219.45 148.909 218.63 148.909C217.96 148.909 217.28 148.969 216.61 149.109C215.94 149.229 215.32 149.459 214.79 149.749C214.26 150.039 213.82 150.449 213.47 150.949C213.12 151.449 212.94 152.029 212.94 152.709C212.94 153.499 213.14 154.139 213.53 154.639C213.91 155.139 214.41 155.519 215.05 155.809C215.69 156.099 216.37 156.339 217.16 156.509L219.53 157.039L222.28 157.679C223.13 157.909 223.89 158.269 224.51 158.679C225.13 159.089 225.65 159.649 226 160.319C226.35 160.959 226.53 161.839 226.53 162.869C226.53 163.949 226.3 164.829 225.8 165.529C225.33 166.199 224.69 166.789 223.96 167.199C223.23 167.609 222.38 167.929 221.47 168.079C220.59 168.259 219.68 168.309 218.81 168.339C217.67 168.339 216.64 168.189 215.68 167.899C214.72 167.609 213.89 167.169 213.16 166.549C212.43 165.929 211.87 165.199 211.46 164.349C211.05 163.469 210.85 162.239 210.82 161.299L212.31 161.359L212.32 161.389ZM230.79 161.389C230.85 162.329 231.05 163.119 231.4 163.819C231.75 164.489 232.22 165.109 232.81 165.639C233.4 166.139 234.1 166.519 234.83 166.779C235.59 167.039 236.44 167.159 237.32 167.159C237.96 167.159 238.64 167.099 239.37 166.979C240.07 166.859 240.78 166.659 241.42 166.339C242.03 166.049 242.56 165.609 242.97 165.049C243.38 164.489 243.58 163.789 243.58 162.939C243.58 161.829 243.26 161.009 242.58 160.449C241.9 159.889 241.09 159.449 240.06 159.129C239.03 158.809 237.95 158.569 236.78 158.369C235.61 158.169 234.53 157.899 233.5 157.489C232.48 157.109 231.66 156.549 230.98 155.849C230.31 155.149 229.98 154.119 229.98 152.749C229.98 151.779 230.18 150.959 230.62 150.319C231.06 149.679 231.62 149.149 232.29 148.769C232.96 148.389 233.72 148.099 234.57 147.949C235.42 147.769 236.27 147.689 237.12 147.689C238.09 147.689 239.05 147.809 239.99 148.039C240.9 148.269 241.66 148.649 242.3 149.149C242.94 149.679 243.47 150.229 243.85 151.019C244.23 151.809 244.41 152.889 244.41 153.829H242.95C242.95 152.889 242.8 152.249 242.51 151.599C242.22 150.959 241.81 150.489 241.28 150.079C240.75 149.669 240.14 149.409 239.41 149.199C238.68 148.989 237.92 148.909 237.1 148.909C236.43 148.909 235.75 148.969 235.08 149.109C234.41 149.229 233.79 149.459 233.26 149.749C232.73 150.039 232.29 150.449 231.94 150.949C231.59 151.449 231.41 152.029 231.41 152.709C231.41 153.499 231.61 154.139 232 154.639C232.39 155.139 232.88 155.519 233.52 155.809C234.13 156.099 234.84 156.339 235.63 156.509L238 157.039L240.75 157.679C241.6 157.909 242.36 158.269 242.98 158.679C243.6 159.089 244.12 159.649 244.47 160.319C244.82 160.959 245 161.839 245 162.869C245 163.949 244.77 164.829 244.27 165.529C243.8 166.199 243.16 166.789 242.43 167.199C241.7 167.609 240.85 167.929 239.94 168.079C239.06 168.259 238.15 168.309 237.28 168.339C236.14 168.339 235.11 168.189 234.15 167.899C233.19 167.609 232.36 167.169 231.63 166.549C230.9 165.929 230.34 165.199 229.93 164.349C229.52 163.469 229.32 162.239 229.29 161.299L230.78 161.359L230.79 161.389ZM249.15 158.579V158.489C249.15 159.629 249.3 160.739 249.59 161.799C249.88 162.859 250.35 163.759 250.97 164.549C251.58 165.339 252.35 165.979 253.25 166.419C254.15 166.859 255.21 167.119 256.44 167.119C258.4 167.119 259.98 166.649 261.15 165.629C262.29 164.609 263.08 163.259 263.52 161.379H264.98C264.54 163.249 263.6 165.389 262.17 166.619C260.74 167.849 258.8 168.439 256.43 168.439C254.97 168.439 253.71 168.149 252.59 167.649C251.51 167.119 250.6 166.389 249.87 165.479C249.14 164.569 248.58 163.489 248.23 162.259C247.88 161.029 247.7 159.679 247.7 158.249C247.7 156.819 247.88 155.529 248.26 154.269C248.64 153.009 249.2 151.899 249.93 150.929C250.69 149.959 251.63 149.169 252.71 148.619C253.82 148.029 255.14 147.739 256.66 147.739C258.04 147.739 259.27 147.999 260.32 148.499C261.37 148.999 262.28 149.699 262.98 150.609C263.68 151.519 264.24 152.509 264.62 153.679C265 154.849 265.18 156.079 265.18 157.429L265.15 158.019L265.12 158.579H249.13H249.15ZM263.64 156.709C263.58 155.709 263.41 154.749 263.11 153.809C262.82 152.899 262.35 152.079 261.73 151.349C261.12 150.619 260.38 150.059 259.53 149.649C258.68 149.209 257.69 149.009 256.57 149.009C255.4 149.009 254.34 149.239 253.44 149.679C252.53 150.119 251.77 150.699 251.16 151.469C250.55 152.239 250.08 152.899 249.73 153.869C249.41 154.839 249.2 155.769 249.12 156.709H263.64ZM268.83 148.269H269.77V152.019H270.06C270.32 152.019 270.67 150.819 271.14 150.229C271.61 149.639 272.16 149.259 272.78 148.849C273.4 148.439 274.1 148.209 274.83 147.969C275.56 147.729 276.32 147.679 277.08 147.679C278.22 147.679 279.22 147.829 280.01 148.119C280.83 148.409 281.47 148.789 281.97 149.229C282.47 149.669 282.88 150.199 283.17 150.779C283.46 151.339 283.67 151.919 283.81 152.539C283.93 153.129 283.84 153.709 283.87 154.239C283.9 154.799 283.72 155.259 283.72 155.669V167.879H282.78V155.409C282.78 154.909 282.66 154.299 282.58 153.569C282.5 152.839 282.23 152.109 281.88 151.429C281.5 150.759 280.91 150.169 280.18 149.669C279.42 149.169 278.36 148.939 277.05 148.939C275.91 148.939 274.91 149.139 274.03 149.549C273.18 149.959 272.42 150.549 271.8 151.249C271.19 151.979 270.6 152.859 270.28 153.859C269.96 154.879 269.69 155.969 269.69 157.199V167.889H268.75V148.269H268.81H268.83ZM304.46 148.269V166.919C304.46 168.029 304.49 169.089 304.23 170.139C303.97 171.159 303.62 172.099 303 172.889C302.39 173.679 301.57 174.319 300.45 174.789C299.33 175.259 297.99 175.489 296.29 175.489C295.24 175.489 294.27 175.369 293.33 175.169C292.42 174.969 291.6 174.609 290.93 174.149C290.23 173.679 289.7 172.829 289.26 172.039C288.85 171.249 288.62 170.779 288.56 168.909H290.02C290.11 169.849 290.31 170.749 290.66 171.369C291.01 171.979 291.48 172.599 292.07 173.009C292.66 173.419 293.3 173.769 294 173.919C294.7 174.099 295.49 174.209 296.31 174.209C297.66 174.209 298.8 174.009 299.71 173.619C300.62 173.209 301.35 172.679 301.88 172.039C302.41 171.399 302.88 170.629 303.08 169.809C303.28 168.989 303.49 168.139 303.49 167.289V162.339H303.23C302.53 164.209 301.59 165.119 300.42 165.879C299.22 166.639 297.78 167.139 296.12 167.139C294.66 167.139 293.4 166.939 292.34 166.439C291.29 165.939 290.41 165.269 289.7 164.389C288.99 163.509 288.47 162.489 288.12 161.319C287.77 160.149 287.59 158.859 287.59 157.479C287.59 156.099 287.77 154.929 288.15 153.759C288.53 152.589 289.06 151.559 289.79 150.659C290.52 149.759 291.4 149.079 292.45 148.549C293.5 148.019 294.73 147.759 296.11 147.759C297.66 147.759 299.13 148.019 300.44 148.809C301.76 149.599 302.69 151.089 303.25 152.029H303.48V148.279L304.45 148.249L304.46 148.269ZM296.12 149.009C294.92 149.009 293.87 149.239 292.99 149.739C292.11 150.239 291.38 150.879 290.79 151.669C290.2 152.489 289.77 153.399 289.47 154.389C289.18 155.409 289.03 156.439 289.03 157.489C289.03 158.629 289.18 159.739 289.47 160.769C289.76 161.799 290.2 162.699 290.82 163.489C291.41 164.249 292.17 164.869 293.05 165.309C293.93 165.749 294.95 165.979 296.1 165.979C297.3 165.979 298.35 165.749 299.26 165.279C300.17 164.809 300.9 164.199 301.51 163.409C302.12 162.589 302.56 161.679 302.86 160.689C303.15 159.669 303.3 158.609 303.3 157.469C303.3 156.329 303.15 155.329 302.86 154.279C302.57 153.259 302.13 152.349 301.51 151.559C300.89 150.769 300.13 150.149 299.26 149.689C298.38 149.249 297.33 149.049 296.13 149.019L296.12 149.009ZM310.08 158.579V158.489C310.08 159.629 310.02 160.739 310.34 161.799C310.66 162.859 311.01 163.759 311.6 164.549C312.21 165.339 312.92 165.979 313.83 166.419C314.74 166.859 315.76 167.119 316.99 167.119C318.95 167.119 320.53 166.649 321.67 165.629C322.84 164.609 323.6 163.259 324.07 161.379H325.53C325.09 163.249 324.15 165.389 322.72 166.619C321.29 167.849 319.35 168.439 316.98 168.439C315.52 168.439 314.26 168.149 313.14 167.649C312.06 167.119 311.15 166.389 310.42 165.479C309.69 164.569 309.13 163.489 308.78 162.259C308.43 161.029 308.25 159.679 308.25 158.249C308.25 156.819 308.43 155.529 308.81 154.269C309.16 153.069 309.72 151.929 310.48 150.929C311.21 149.959 312.15 149.199 313.26 148.619C314.37 148.039 315.69 147.739 317.21 147.739C318.59 147.739 319.82 147.999 320.87 148.499C321.92 148.999 322.83 149.699 323.53 150.609C324.26 151.489 324.79 152.509 325.17 153.679C325.55 154.849 325.73 156.079 325.73 157.429L325.7 158.019C325.67 158.199 325.67 158.579 325.67 158.579H310.06H310.08ZM324.2 156.709C324.14 155.709 323.97 154.749 323.67 153.809C323.35 152.839 322.91 152.079 322.29 151.349C321.68 150.619 320.94 150.059 320.09 149.649C319.24 149.209 318.25 149.009 317.13 149.009C315.96 149.009 314.9 149.239 314 149.679C313.09 150.119 312.33 150.699 311.72 151.469C311.11 152.239 310.64 152.899 310.29 153.869C309.94 154.839 309.76 155.769 309.68 156.709H324.2ZM330.7 152.959H330.64C330.82 152.019 331.14 151.529 331.61 150.969C332.08 150.409 332.66 149.829 333.34 149.419C334.02 149.009 334.77 148.659 335.59 148.419C336.41 148.219 337.23 148.069 338.17 148.099V149.559C337.23 149.469 336.53 149.529 335.53 149.789C334.53 150.049 333.6 150.609 332.72 151.489C332.4 151.839 332.08 152.219 331.78 152.599C331.52 152.979 331.28 153.359 331.11 153.799C330.94 154.239 330.88 154.739 330.76 155.259C330.64 155.779 330.67 156.459 330.67 157.189V167.989H328.8V148.309H330.67V152.939H330.7V152.959Z" fill="white"/>
</svg>
