<?xml version="1.0" encoding="UTF-8"?>
<svg xmlns="http://www.w3.org/2000/svg" version="1.1" viewBox="0 0 450 900">
  <defs>
    <style>
      .cls-1 {
        fill: #292828;
      }

      .cls-2 {
        stroke: #292828;
      }

      .cls-2, .cls-3, .cls-4, .cls-5, .cls-6 {
        fill: none;
        stroke-width: 1.9px;
      }

      .cls-3 {
        stroke: #ff5252;
      }

      .cls-7 {
        fill: #42c684;
      }

      .cls-8 {
        fill: #fff;
      }

      .cls-9 {
        isolation: isolate;
      }

      .cls-10 {
        fill: #ff5252;
      }

      .cls-4 {
        stroke: #fff;
      }

      .cls-5 {
        stroke: #d7df22;
      }

      .cls-11 {
        fill: #51c387;
      }

      .cls-12 {
        fill: #f9f5f1;
      }

      .cls-13 {
        fill: #52c4d4;
      }

      .cls-14 {
        fill: #d7df22;
      }

      .cls-6 {
        stroke: #000;
      }
    </style>
  </defs>
  <!-- Generator: Adobe Illustrator 28.7.1, SVG Export Plug-In . SVG Version: 1.2.0 Build 142)  -->
  <g>
    <g id="Layer_1">
      <g>
        <rect class="cls-14" x="179.9" y="450" width="180.2" height="180"/>
        <rect class="cls-12" x="-.2" y="720" width="180.1" height="180"/>
        <rect class="cls-10" x="360.1" width="90.1" height="90.1"/>
        <rect class="cls-14" x="270" width="90.1" height="93.1"/>
        <rect class="cls-7" x="179.9" width="90.1" height="90.1"/>
        <rect class="cls-13" x="89.8" width="90.1" height="90.1"/>
        <rect class="cls-1" x="-.3" width="90.1" height="90.1"/>
        <rect class="cls-12" x="360.1" y="90.1" width="90.1" height="90.1"/>
        <rect class="cls-10" x="179.9" y="90.1" width="180.2" height="180"/>
        <rect class="cls-12" x="89.8" y="90.1" width="90.1" height="90.1"/>
        <rect class="cls-14" x="-.3" y="90.1" width="90.1" height="90.1"/>
        <rect class="cls-13" x="360.1" y="180.2" width="90.1" height="90.1"/>
        <rect class="cls-1" x="89.8" y="180.2" width="90.1" height="90.1"/>
        <rect class="cls-12" x="-.3" y="180.2" width="90.1" height="90.1"/>
        <rect class="cls-7" x="360.1" y="270" width="90.1" height="90.1"/>
        <rect class="cls-12" x="270" y="270" width="90.1" height="90.1"/>
        <rect class="cls-1" x="179.9" y="270" width="90.1" height="90.1"/>
        <rect class="cls-13" x="89.8" y="270" width="90.1" height="90.1"/>
        <rect class="cls-7" x="-.3" y="270" width="90.1" height="90.1"/>
        <rect class="cls-10" x="360.1" y="809.9" width="90.1" height="90.1"/>
        <rect class="cls-1" x="270" y="809.9" width="90.1" height="90.1"/>
        <rect class="cls-7" x="179.9" y="809.9" width="90.1" height="90.1"/>
        <rect class="cls-1" x="360.1" y="359.9" width="90.1" height="90.1"/>
        <rect class="cls-14" x="270" y="359.9" width="90.1" height="90.1"/>
        <rect class="cls-11" x="179.9" y="359.9" width="90.1" height="90.1"/>
        <rect class="cls-14" x="89.8" y="359.9" width="90.1" height="90.1"/>
        <rect class="cls-13" x="-.3" y="359.9" width="90.1" height="90.1"/>
        <rect class="cls-12" x="360.1" y="450" width="90.1" height="90.1"/>
        <rect class="cls-7" x="89.8" y="450" width="90.1" height="90.1"/>
        <rect class="cls-12" x="-.3" y="450" width="90.1" height="90.1"/>
        <rect class="cls-7" x="360.1" y="540.1" width="90.1" height="90.1"/>
        <rect class="cls-1" x="89.8" y="540.1" width="90.1" height="90.1"/>
        <rect class="cls-10" x="-.3" y="540.1" width="90.1" height="90.1"/>
        <rect class="cls-1" x="360.1" y="630" width="90.1" height="90.1"/>
        <rect class="cls-13" x="270" y="630" width="90.1" height="90.1"/>
        <rect class="cls-7" x="179.9" y="630" width="90.1" height="90.1"/>
        <rect class="cls-14" x="89.8" y="630" width="90.1" height="90.1"/>
        <rect class="cls-7" x="-.3" y="630" width="90.1" height="90.1"/>
        <rect class="cls-7" x="360.2" y="720" width="90.1" height="90.1"/>
        <rect class="cls-14" x="270.1" y="720" width="90.1" height="90.1"/>
        <rect class="cls-13" x="180" y="720" width="90.1" height="90.1"/>
        <polygon class="cls-2" points="403.8 606.4 372.7 606.4 403.8 564.2 434.9 606.4 403.8 606.4"/>
        <g>
          <path class="cls-4" d="M425,45.5h0c0,17.6-20.2,27.5-34.2,16.8h0c-11-8.5-11-25,0-33.5h0c13.9-10.8,34.2-.9,34.2,16.8h0Z"/>
          <rect class="cls-4" x="382.6" y="24.3" width="42.4" height="42.4" transform="translate(657.2 363.2) rotate(-135)"/>
        </g>
        <g>
          <path class="cls-3" d="M336.3,766.6h0c0,17.6-20.2,27.5-34.2,16.8h0c-11-8.5-11-25,0-33.5h0c13.9-10.8,34.2-.9,34.2,16.8h0Z"/>
          <rect class="cls-3" x="293.9" y="745.4" width="42.4" height="42.4" transform="translate(-4.1 1531.5) rotate(-135)"/>
        </g>
        <g>
          <rect class="cls-4" x="112.2" y="203.7" width="43.7" height="43.7" rx=".7" ry=".7" transform="translate(69.4 479.9) rotate(-135)"/>
          <path class="cls-4" d="M134.5,207.2l29.2,17.6c.6.3.6,1.2,0,1.5l-29.2,18.2c-.3.2-.7.2-.9,0l-29.2-18.2c-.6-.4-.6-1.2,0-1.5l29.2-17.6c.3-.2.6-.2.9,0Z"/>
          <path class="cls-4" d="M134.3,217.1l27.6,7.6c.9.2.9,1.5,0,1.7l-27.6,7.8c-.2,0-.3,0-.5,0l-27.6-7.8c-.9-.2-.9-1.5,0-1.7l27.6-7.6c.2,0,.3,0,.5,0Z"/>
        </g>
        <g>
          <rect class="cls-4" x="382" y="833.3" width="43.7" height="43.7" rx=".7" ry=".7" transform="translate(84.7 1745.4) rotate(-135)"/>
          <path class="cls-4" d="M404.3,836.8l29.2,17.6c.6.3.6,1.2,0,1.5l-29.2,18.2c-.3.2-.7.2-.9,0l-29.2-18.2c-.6-.4-.6-1.2,0-1.5l29.2-17.6c.3-.2.6-.2.9,0Z"/>
          <path class="cls-4" d="M404.1,846.7l27.6,7.6c.9.2.9,1.5,0,1.7l-27.6,7.8c-.2,0-.3,0-.5,0l-27.6-7.8c-.9-.2-.9-1.5,0-1.7l27.6-7.6c.2,0,.3,0,.5,0Z"/>
        </g>
        <g>
          <rect class="cls-2" x="21.9" y="654" width="43.7" height="43.7" rx=".7" ry=".7" transform="translate(-403.3 1184.6) rotate(-135)"/>
          <path class="cls-2" d="M44.2,657.4l29.2,17.6c.6.3.6,1.2,0,1.5l-29.2,18.2c-.3.2-.7.2-.9,0l-29.2-18.2c-.6-.4-.6-1.2,0-1.5l29.2-17.6c.3-.2.6-.2.9,0Z"/>
          <path class="cls-2" d="M43.9,667.4l27.6,7.6c.9.2.9,1.5,0,1.7l-27.6,7.8c-.2,0-.3,0-.5,0l-27.6-7.8c-.9-.2-.9-1.5,0-1.7l27.6-7.6c.2,0,.3,0,.5,0Z"/>
        </g>
        <g>
          <rect class="cls-3" x="293.3" y="293.8" width="43.7" height="43.7" rx=".7" ry=".7" transform="translate(314.8 761.7) rotate(-135)"/>
          <path class="cls-3" d="M315.6,297.3l29.2,17.6c.6.3.6,1.2,0,1.5l-29.2,18.2c-.3.2-.7.2-.9,0l-29.2-18.2c-.6-.4-.6-1.2,0-1.5l29.2-17.6c.3-.2.6-.2.9,0Z"/>
          <path class="cls-3" d="M315.4,307.2l27.6,7.6c.9.2.9,1.5,0,1.7l-27.6,7.8c-.2,0-.3,0-.5,0l-27.6-7.8c-.9-.2-.9-1.5,0-1.7l27.6-7.6c.2,0,.3,0,.5,0Z"/>
        </g>
        <g>
          <polygon class="cls-2" points="56.5 136 56.5 167.1 17.5 136 56.5 104.9 56.5 136"/>
          <circle class="cls-2" cx="55.1" cy="136" r="14.9"/>
        </g>
        <g>
          <polygon class="cls-4" points="327.9 675.8 327.9 706.9 288.9 675.8 327.9 644.7 327.9 675.8"/>
          <circle class="cls-4" cx="326.5" cy="675.8" r="14.9"/>
        </g>
        <g>
          <polygon class="cls-2" points="416.6 315.7 416.6 346.8 377.6 315.7 416.6 284.6 416.6 315.7"/>
          <circle class="cls-2" cx="415.2" cy="315.7" r="14.9"/>
        </g>
        <g>
          <g>
            <path class="cls-2" d="M252,377.5c-15.7,0-28.4,12.7-28.4,28.4s12.7,28.4,28.4,28.4v-56.8Z"/>
            <path class="cls-2" d="M223.6,377.5c15.7,0,28.4,12.7,28.4,28.4s-12.7,28.4-28.4,28.4v-56.8Z"/>
          </g>
          <circle class="cls-2" cx="237.8" cy="405.9" r="7.3"/>
          <g>
            <line class="cls-2" x1="215" y1="406.5" x2="198.7" y2="406.5"/>
            <line class="cls-2" x1="214.7" y1="397.8" x2="202.4" y2="385.5"/>
            <line class="cls-2" x1="214.7" y1="414" x2="202.4" y2="426.3"/>
          </g>
        </g>
        <g>
          <g>
            <path class="cls-4" d="M430.5,197.2c-15.7,0-28.4,12.7-28.4,28.4s12.7,28.4,28.4,28.4v-56.8Z"/>
            <path class="cls-4" d="M402.1,197.2c15.7,0,28.4,12.7,28.4,28.4s-12.7,28.4-28.4,28.4v-56.8Z"/>
          </g>
          <circle class="cls-4" cx="416.3" cy="225.6" r="7.3"/>
          <g>
            <line class="cls-4" x1="393.5" y1="226.1" x2="377.2" y2="226.1"/>
            <line class="cls-4" x1="393.2" y1="217.5" x2="380.8" y2="205.2"/>
            <line class="cls-4" x1="393.2" y1="233.6" x2="380.8" y2="246"/>
          </g>
        </g>
        <g>
          <g>
            <path class="cls-2" d="M160.8,647.4c-15.7,0-28.4,12.7-28.4,28.4s12.7,28.4,28.4,28.4v-56.8Z"/>
            <path class="cls-2" d="M132.3,647.4c15.7,0,28.4,12.7,28.4,28.4s-12.7,28.4-28.4,28.4v-56.8Z"/>
          </g>
          <circle class="cls-2" cx="146.5" cy="675.8" r="7.3"/>
          <g>
            <line class="cls-2" x1="123.7" y1="676.4" x2="107.4" y2="676.4"/>
            <line class="cls-2" x1="123.4" y1="667.7" x2="111.1" y2="655.4"/>
            <line class="cls-2" x1="123.4" y1="683.9" x2="111.1" y2="696.2"/>
          </g>
        </g>
        <g>
          <g>
            <path class="cls-3" d="M70.4,466.6c-15.7,0-28.4,12.7-28.4,28.4s12.7,28.4,28.4,28.4v-56.8Z"/>
            <path class="cls-3" d="M42,466.6c15.7,0,28.4,12.7,28.4,28.4s-12.7,28.4-28.4,28.4v-56.8Z"/>
          </g>
          <circle class="cls-3" cx="56.2" cy="495" r="7.3"/>
          <g>
            <line class="cls-3" x1="33.4" y1="495.5" x2="17" y2="495.5"/>
            <line class="cls-3" x1="33" y1="486.9" x2="20.7" y2="474.6"/>
            <line class="cls-3" x1="33" y1="503.1" x2="20.7" y2="515.4"/>
          </g>
        </g>
        <g>
          <polygon class="cls-5" points="248.1 45.5 248.1 76.8 202.4 45.5 248.1 14.2 248.1 45.5"/>
          <circle class="cls-5" cx="233.3" cy="45.5" r="15"/>
          <line class="cls-5" x1="248.1" y1="14.2" x2="239" y2="31.7"/>
          <line class="cls-5" x1="218.3" y1="45.5" x2="202.4" y2="45.5"/>
          <line class="cls-5" x1="238.5" y1="59.5" x2="248.1" y2="75.6"/>
        </g>
        <g>
          <polygon class="cls-3" points="337.9 405.9 337.9 437.2 292.2 405.9 337.9 374.6 337.9 405.9"/>
          <circle class="cls-3" cx="323.1" cy="405.9" r="15"/>
          <line class="cls-3" x1="337.9" y1="374.6" x2="328.8" y2="392.1"/>
          <line class="cls-3" x1="308.2" y1="405.9" x2="292.2" y2="405.9"/>
          <line class="cls-3" x1="328.3" y1="419.9" x2="337.9" y2="436"/>
        </g>
        <g>
          <rect class="cls-2" x="200.9" y="830.7" width="48.9" height="48.9" transform="translate(-629.8 1080.5) rotate(-90)"/>
          <rect class="cls-2" x="208.1" y="837.9" width="34.5" height="34.5" transform="translate(-220 1619.2) rotate(-135)"/>
          <rect class="cls-2" x="213.1" y="843" width="24.4" height="24.4" transform="translate(-629.8 1080.5) rotate(-90)"/>
        </g>
        <g>
          <rect class="cls-3" x="379.4" y="470.6" width="48.9" height="48.9" transform="translate(-91.1 898.8) rotate(-90)"/>
          <rect class="cls-3" x="386.6" y="477.7" width="34.5" height="34.5" transform="translate(339.4 1130.5) rotate(-135)"/>
          <rect class="cls-3" x="391.6" y="482.8" width="24.4" height="24.4" transform="translate(-91.1 898.8) rotate(-90)"/>
        </g>
        <g>
          <rect class="cls-4" x="19.3" y="381.5" width="48.9" height="48.9" transform="translate(-362.2 449.6) rotate(-90)"/>
          <rect class="cls-4" x="26.4" y="388.6" width="34.5" height="34.5" transform="translate(-212.4 723.8) rotate(-135)"/>
          <rect class="cls-4" x="31.5" y="393.7" width="24.4" height="24.4" transform="translate(-362.2 449.6) rotate(-90)"/>
        </g>
        <g>
          <circle class="cls-2" cx="315.1" cy="45.5" r="22.9"/>
          <path class="cls-2" d="M303.9,25.9c-.2-7.1.9-11.8,3.3-12.4,4.4-1.1,11.6,12.3,16,30,4.4,17.7,4.4,32.9,0,34-2.3.6-5.3-2.8-8.3-8.5"/>
        </g>
        <g>
          <circle class="cls-2" cx="134.1" cy="495" r="22.9"/>
          <path class="cls-2" d="M122.8,475.4c-.2-7.1.9-11.8,3.3-12.4,4.4-1.1,11.6,12.3,16,30,4.4,17.7,4.4,32.9,0,34-2.3.6-5.3-2.8-8.3-8.5"/>
        </g>
        <g>
          <circle class="cls-2" cx="225.3" cy="766.6" r="22.9"/>
          <path class="cls-2" d="M214,747c-.2-7.1.9-11.8,3.3-12.4,4.4-1.1,11.6,12.3,16,30,4.4,17.7,4.4,32.9,0,34-2.3.6-5.3-2.8-8.3-8.5"/>
        </g>
        <g>
          <circle class="cls-5" cx="403.8" cy="405.9" r="22.9"/>
          <path class="cls-5" d="M392.5,386.3c-.2-7.1.9-11.8,3.3-12.4,4.4-1.1,11.6,12.3,16,30,4.4,17.7,4.4,32.9,0,34-2.3.6-5.3-2.8-8.3-8.5"/>
        </g>
        <g>
          <circle class="cls-3" cx="134.1" cy="585.3" r="22.9"/>
          <path class="cls-3" d="M122.8,565.7c-.2-7.1.9-11.8,3.3-12.4,4.4-1.1,11.6,12.3,16,30,4.4,17.7,4.4,32.9,0,34-2.3.6-5.3-2.8-8.3-8.5"/>
        </g>
        <g>
          <circle class="cls-3" cx="43.7" cy="225.6" r="22.9"/>
          <path class="cls-3" d="M32.4,206c-.2-7.1.9-11.8,3.3-12.4,4.4-1.1,11.6,12.3,16,30,4.4,17.7,4.4,32.9,0,34-2.3.6-5.3-2.8-8.3-8.5"/>
        </g>
        <g>
          <line class="cls-5" x1="385.4" y1="117.5" x2="396.7" y2="128.8"/>
          <line class="cls-5" x1="403.8" y1="109.9" x2="403.8" y2="125.9"/>
          <line class="cls-5" x1="422.3" y1="117.5" x2="411" y2="128.8"/>
          <line class="cls-5" x1="429.9" y1="136" x2="414" y2="136"/>
          <line class="cls-5" x1="411" y1="143.2" x2="422.3" y2="154.5"/>
          <line class="cls-5" x1="403.8" y1="146.1" x2="403.8" y2="162.1"/>
          <line class="cls-5" x1="396.7" y1="143.2" x2="385.4" y2="154.5"/>
          <line class="cls-5" x1="393.7" y1="136" x2="377.7" y2="136"/>
        </g>
        <g>
          <line class="cls-5" x1="115.6" y1="297.2" x2="126.9" y2="308.5"/>
          <line class="cls-5" x1="134.1" y1="289.6" x2="134.1" y2="305.5"/>
          <line class="cls-5" x1="152.5" y1="297.2" x2="141.2" y2="308.5"/>
          <line class="cls-5" x1="160.2" y1="315.7" x2="144.2" y2="315.7"/>
          <line class="cls-5" x1="141.2" y1="322.8" x2="152.5" y2="334.1"/>
          <line class="cls-5" x1="134.1" y1="325.8" x2="134.1" y2="341.8"/>
          <line class="cls-5" x1="126.9" y1="322.8" x2="115.6" y2="334.1"/>
          <line class="cls-5" x1="123.9" y1="315.7" x2="108" y2="315.7"/>
        </g>
        <g>
          <line class="cls-4" x1="25.2" y1="27" x2="43.7" y2="45.5"/>
          <line class="cls-4" x1="43.7" y1="19.4" x2="43.7" y2="45.5"/>
          <line class="cls-4" x1="62.2" y1="27" x2="43.7" y2="45.5"/>
          <line class="cls-4" x1="69.8" y1="45.5" x2="43.7" y2="45.5"/>
          <line class="cls-4" x1="62.2" y1="64" x2="43.7" y2="45.5"/>
          <line class="cls-4" x1="43.7" y1="71.6" x2="43.7" y2="45.5"/>
          <line class="cls-4" x1="25.2" y1="64" x2="43.7" y2="45.5"/>
          <line class="cls-4" x1="17.6" y1="45.5" x2="43.7" y2="45.5"/>
        </g>
        <g>
          <line class="cls-5" x1="385.4" y1="748.2" x2="403.8" y2="766.6"/>
          <line class="cls-5" x1="403.8" y1="740.5" x2="403.8" y2="766.6"/>
          <line class="cls-5" x1="422.3" y1="748.2" x2="403.8" y2="766.6"/>
          <line class="cls-5" x1="429.9" y1="766.6" x2="403.8" y2="766.6"/>
          <line class="cls-5" x1="422.3" y1="785.1" x2="403.8" y2="766.6"/>
          <line class="cls-5" x1="403.8" y1="792.7" x2="403.8" y2="766.6"/>
          <line class="cls-5" x1="385.4" y1="785.1" x2="403.8" y2="766.6"/>
          <line class="cls-5" x1="377.7" y1="766.6" x2="403.8" y2="766.6"/>
        </g>
        <path class="cls-2" d="M137.3,74.6c-25.8-11.6-25.8-46.5,0-58.1M150.2,45.5c0,5.4-4.3,9.7-9.7,9.7s-9.7-4.3-9.7-9.7,4.3-9.7,9.7-9.7,9.7,4.3,9.7,9.7Z"/>
        <path class="cls-5" d="M46.9,614.4c-25.8-11.6-25.8-46.5,0-58.1M59.8,585.3c0,5.4-4.3,9.7-9.7,9.7s-9.7-4.3-9.7-9.7,4.3-9.7,9.7-9.7,9.7,4.3,9.7,9.7Z"/>
        <path class="cls-3" d="M407.1,704.9c-25.8-11.6-25.8-46.5,0-58.1M420,675.8c0,5.4-4.3,9.7-9.7,9.7s-9.7-4.3-9.7-9.7,4.3-9.7,9.7-9.7,9.7,4.3,9.7,9.7Z"/>
        <path class="cls-3" d="M137.3,435c-25.8-11.6-25.8-46.5,0-58.1M150.2,405.9c0,5.4-4.3,9.7-9.7,9.7s-9.7-4.3-9.7-9.7,4.3-9.7,9.7-9.7,9.7,4.3,9.7,9.7Z"/>
        <path class="cls-6" d="M155.2,136h0c0,17.5-20.1,27.4-34,16.7h0c-10.9-8.4-10.9-24.9,0-33.3h0c13.9-10.7,34-.8,34,16.7h0Z"/>
        <path class="cls-4" d="M246.4,675.8h0c0,17.5-20.1,27.4-34,16.7h0c-10.9-8.4-10.9-24.9,0-33.3h0c13.9-10.7,34-.8,34,16.7h0Z"/>
        <path class="cls-4" d="M336.2,855.2h0c0,17.5-20.1,27.4-34,16.7h0c-10.9-8.4-10.9-24.9,0-33.3h0c13.9-10.7,34-.8,34,16.7h0Z"/>
        <g>
          <path class="cls-8" d="M204.4,329c-4.6,0-7.5-2.2-7.5-7.2v-7.8h-3.1v-4.9h3.1v-3.9h6v3.9h6.4v4.9h-6.4v7.1c0,2,.8,2.5,2.9,2.5h3.6v5.4h-4.9Z"/>
          <path class="cls-8" d="M219,323.6h13.3v5.4h-21.1v-5.4l12.7-9.1.7-.5h-12.8v-4.9h19.9v5.1c-4.2,3.1-8.5,6.3-12.7,9.4Z"/>
          <path class="cls-8" d="M234.2,329v-26.6h6v14.1h4.5l5.1-7.4h7.1l-7.3,9.6,7.1,10.3h-7l-5-7.2h-4.6v7.2h-6Z"/>
        </g>
        <g>
          <g class="cls-9">
            <path class="cls-1" d="M237.6,511.4c0,9.6-7.1,18-22.6,18s-15.5-2.1-20.7-5.8l5-9.6c4.1,3.1,9.8,4.9,15.5,4.9s10.2-2.6,10.2-7.1-2.8-7.1-12.7-7.1h-13.9l2.8-30.6h33.2v10.1h-22.7l-.9,10.3h4.4c16.1,0,22.5,7.2,22.5,16.9Z"/>
            <path class="cls-1" d="M296,513.6c0,9.4-7.5,14.8-21.8,14.8h-28.1v-54.4h26.6c13.6,0,20.6,5.7,20.6,14.1s-2.8,9.6-7.2,12c6.1,1.9,9.9,6.6,9.9,13.4ZM258.6,483.6v12.8h12.5c6.1,0,9.5-2.2,9.5-6.4s-3.3-6.4-9.5-6.4h-12.5ZM283.3,512.3c0-4.6-3.5-6.8-10-6.8h-14.7v13.4h14.7c6.5,0,10-2,10-6.7Z"/>
            <path class="cls-1" d="M340.9,506h-13.5v13.2h-10v-13.2h-13.4v-9.5h13.4v-13.2h10v13.2h13.5v9.5Z"/>
          </g>
          <g class="cls-9">
            <path class="cls-1" d="M194,550.4l1.2-2.7c1.3,1,3.3,1.6,5.2,1.6s3-.7,3-1.7c0-2.9-9.1-.9-9.1-6.7s2.1-4.9,6.6-4.9,4,.5,5.4,1.4l-1.1,2.8c-1.5-.8-3-1.2-4.3-1.2-2.1,0-3,.8-3,1.8,0,2.9,9.1.9,9.1,6.6s-2.2,4.9-6.6,4.9-5-.7-6.4-1.8Z"/>
            <path class="cls-1" d="M208.3,545.9c0-3.6,2.8-6.2,6.6-6.2s6.6,2.6,6.6,6.2-2.8,6.2-6.6,6.2-6.6-2.6-6.6-6.2ZM218,545.9c0-2.1-1.3-3.3-3.1-3.3s-3.1,1.3-3.1,3.3,1.3,3.3,3.1,3.3,3.1-1.3,3.1-3.3Z"/>
            <path class="cls-1" d="M223,545.9c0-3.6,2.8-6.2,6.7-6.2s4.5,1.1,5.4,3.1l-2.7,1.5c-.6-1.1-1.6-1.7-2.7-1.7-1.8,0-3.2,1.2-3.2,3.3s1.4,3.3,3.2,3.3,2.1-.5,2.7-1.7l2.7,1.5c-.9,1.9-2.9,3-5.4,3-3.9,0-6.7-2.6-6.7-6.2Z"/>
            <path class="cls-1" d="M236.7,536.3c0-1.1.9-1.9,2.2-1.9s2.2.8,2.2,1.9-.9,2-2.2,2-2.2-.8-2.2-1.9ZM237.1,539.9h3.5v12h-3.5v-12Z"/>
            <path class="cls-1" d="M254.5,545.1v6.9h-3.3v-1.5c-.6,1.1-1.9,1.7-3.7,1.7-2.8,0-4.5-1.6-4.5-3.6s1.5-3.6,5.2-3.6h2.8c0-1.5-.9-2.4-2.8-2.4s-2.6.4-3.5,1.1l-1.3-2.4c1.3-.9,3.3-1.5,5.2-1.5,3.7,0,5.8,1.7,5.8,5.3ZM251,548.1v-1.2h-2.4c-1.6,0-2.1.6-2.1,1.4s.7,1.5,2,1.5,2.2-.5,2.6-1.6Z"/>
            <path class="cls-1" d="M257.6,535.3h3.5v16.6h-3.5v-16.6Z"/>
            <path class="cls-1" d="M285.2,551.9v-9.4s-4.6,7.7-4.6,7.7h-1.6l-4.6-7.5v9.2h-3.4v-15.7h3l5.9,9.7,5.8-9.7h3v15.7s-3.4,0-3.4,0Z"/>
            <path class="cls-1" d="M303.8,546.9h-9.1c.3,1.5,1.6,2.4,3.4,2.4s2.2-.4,3-1.2l1.9,2c-1.1,1.3-2.8,1.9-5,1.9-4.2,0-6.9-2.6-6.9-6.2s2.8-6.2,6.4-6.2,6.3,2.4,6.3,6.2,0,.6,0,.9ZM294.6,544.9h5.9c-.2-1.5-1.4-2.5-3-2.5s-2.7,1-3,2.5Z"/>
            <path class="cls-1" d="M318.4,535.3v16.6h-3.3v-1.4c-.9,1.1-2.1,1.6-3.8,1.6-3.4,0-6-2.4-6-6.2s2.6-6.2,6-6.2,2.7.5,3.6,1.5v-5.8h3.5ZM315,545.9c0-2.1-1.3-3.3-3.1-3.3s-3.1,1.3-3.1,3.3,1.3,3.3,3.1,3.3,3.1-1.3,3.1-3.3Z"/>
            <path class="cls-1" d="M321.2,536.3c0-1.1.9-1.9,2.2-1.9s2.2.8,2.2,1.9-.9,2-2.2,2-2.2-.8-2.2-1.9ZM321.6,539.9h3.5v12h-3.5v-12Z"/>
            <path class="cls-1" d="M339,545.1v6.9h-3.3v-1.5c-.6,1.1-1.9,1.7-3.7,1.7-2.8,0-4.5-1.6-4.5-3.6s1.5-3.6,5.2-3.6h2.8c0-1.5-.9-2.4-2.8-2.4s-2.6.4-3.5,1.1l-1.3-2.4c1.3-.9,3.3-1.5,5.2-1.5,3.7,0,5.8,1.7,5.8,5.3ZM335.5,548.1v-1.2h-2.4c-1.6,0-2.1.6-2.1,1.4s.7,1.5,2,1.5,2.2-.5,2.6-1.6Z"/>
          </g>
          <g class="cls-9">
            <path class="cls-1" d="M194.5,595.8c0-1.1.9-1.9,2.2-1.9s2.2.8,2.2,1.9-.9,2-2.2,2-2.2-.8-2.2-1.9ZM195,599.4h3.5v12h-3.5v-12Z"/>
            <path class="cls-1" d="M214,604.5v6.9h-3.5v-6.4c0-1.9-.9-2.8-2.4-2.8s-2.9,1-2.9,3.2v6h-3.5v-12h3.3v1.4c.9-1,2.3-1.6,4-1.6,2.8,0,5,1.7,5,5.3Z"/>
            <path class="cls-1" d="M231.2,610.8c-.7.5-1.8.8-2.8.8-2.8,0-4.5-1.5-4.5-4.3v-4.9h-1.9v-2.7h1.9v-2.9h3.5v2.9h3v2.7h-3v4.9c0,1,.6,1.6,1.5,1.6s1-.2,1.4-.4l.9,2.5Z"/>
            <path class="cls-1" d="M245.5,604.5v6.9h-3.5v-6.4c0-1.9-.9-2.8-2.4-2.8s-2.9,1-2.9,3.2v6h-3.5v-16.6h3.5v5.8c.9-.9,2.3-1.4,3.8-1.4,2.8,0,5,1.7,5,5.3Z"/>
            <path class="cls-1" d="M260.5,606.4h-9.1c.3,1.5,1.6,2.4,3.4,2.4s2.2-.4,3-1.2l1.9,2c-1.1,1.3-2.8,1.9-5,1.9-4.2,0-6.9-2.6-6.9-6.2s2.8-6.2,6.4-6.2,6.3,2.4,6.3,6.2,0,.6,0,.9ZM251.4,604.4h5.9c-.2-1.5-1.4-2.5-3-2.5s-2.7,1-3,2.5Z"/>
            <path class="cls-1" d="M293.2,595.8l-5.1,15.7h-3.9l-3.4-10.6-3.6,10.6h-3.9l-5.1-15.7h3.8l3.5,11,3.7-11h3.4l3.6,11.1,3.6-11.1h3.5Z"/>
            <path class="cls-1" d="M293.1,605.4c0-3.6,2.8-6.2,6.6-6.2s6.6,2.6,6.6,6.2-2.8,6.2-6.6,6.2-6.6-2.6-6.6-6.2ZM302.8,605.4c0-2.1-1.3-3.3-3.1-3.3s-3.1,1.3-3.1,3.3,1.3,3.3,3.1,3.3,3.1-1.3,3.1-3.3Z"/>
            <path class="cls-1" d="M316.1,599.2v3.2c-.3,0-.5,0-.8,0-1.9,0-3.2,1.1-3.2,3.4v5.7h-3.5v-12h3.3v1.6c.9-1.2,2.3-1.8,4.1-1.8Z"/>
            <path class="cls-1" d="M318.2,594.8h3.5v16.6h-3.5v-16.6Z"/>
            <path class="cls-1" d="M337.2,594.8v16.6h-3.3v-1.4c-.9,1.1-2.1,1.6-3.8,1.6-3.4,0-6-2.4-6-6.2s2.6-6.2,6-6.2,2.7.5,3.6,1.5v-5.8h3.5ZM333.8,605.4c0-2.1-1.3-3.3-3.1-3.3s-3.1,1.3-3.1,3.3,1.3,3.3,3.1,3.3,3.1-1.3,3.1-3.3Z"/>
          </g>
          <g class="cls-9">
            <path class="cls-1" d="M196.6,576.4v-16.7h6.9v16.4c0,5.7,2.5,8,6.6,8s6.6-2.3,6.6-8v-16.4h6.8v16.7c0,8.8-5,13.6-13.5,13.6s-13.5-4.8-13.5-13.6Z"/>
            <path class="cls-1" d="M228,586.5l2.3-5.2c2.5,1.8,6.2,3.1,9.8,3.1s5.7-1.4,5.7-3.2c0-5.6-17.3-1.7-17.3-12.8s4.1-9.3,12.5-9.3,7.6.9,10.3,2.6l-2.1,5.2c-2.8-1.6-5.6-2.3-8.2-2.3-4.1,0-5.7,1.5-5.7,3.4,0,5.5,17.3,1.7,17.3,12.6s-4.1,9.2-12.6,9.2-9.5-1.4-12.1-3.4Z"/>
            <path class="cls-1" d="M280.5,583.9v5.5h-23v-29.8h22.5v5.5h-15.6v6.5h13.8v5.4h-13.8v6.9h16.2Z"/>
            <path class="cls-1" d="M305,589.5l-5.7-8.3h-6.3v8.3h-6.9v-29.8h12.9c7.9,0,12.9,4.1,12.9,10.8s-2.3,7.7-6.1,9.4l6.7,9.6h-7.4ZM298.5,565.3h-5.6v10.4h5.6c4.2,0,6.3-2,6.3-5.2s-2.1-5.2-6.3-5.2Z"/>
            <path class="cls-1" d="M314.9,586.5l2.3-5.2c2.5,1.8,6.2,3.1,9.8,3.1s5.7-1.4,5.7-3.2c0-5.6-17.3-1.7-17.3-12.8s4.1-9.3,12.5-9.3,7.6.9,10.3,2.6l-2.1,5.2c-2.8-1.6-5.6-2.3-8.2-2.3-4.1,0-5.7,1.5-5.7,3.4,0,5.5,17.3,1.7,17.3,12.6s-4.1,9.2-12.6,9.2-9.5-1.4-12.1-3.4Z"/>
          </g>
        </g>
        <g>
          <g class="cls-9">
            <path class="cls-10" d="M59.3,789.9c0,9.1-7,17.4-22.4,17.4s-15.4-2.1-20.6-5.8l4.9-9.6c4.1,3.1,9.8,4.9,15.4,4.9s10.1-2.5,10.1-6.9-3-6.6-10.1-6.6h-5.7v-8.3l11.1-12.6h-23v-10h37.8v8.1l-12.2,13.9c9.7,1.5,14.7,7.6,14.7,15.5Z"/>
            <path class="cls-10" d="M118,791.6c0,9.3-7.4,14.7-21.6,14.7h-27.9v-54h26.4c13.5,0,20.4,5.6,20.4,14s-2.8,9.6-7.2,11.9c6,1.9,9.9,6.6,9.9,13.3ZM80.9,761.8v12.7h12.4c6.1,0,9.4-2.2,9.4-6.4s-3.3-6.3-9.4-6.3h-12.4ZM105.5,790.3c0-4.6-3.5-6.7-10-6.7h-14.6v13.3h14.6c6.5,0,10-2,10-6.6Z"/>
            <path class="cls-10" d="M162.6,784.1h-13.4v13.1h-10v-13.1h-13.3v-9.4h13.3v-13.1h10v13.1h13.4v9.4Z"/>
          </g>
          <g class="cls-9">
            <path class="cls-10" d="M29.8,823.7c0,3.4-2.4,5.6-5.5,5.6s-2.5-.4-3.3-1.3v5.1h-3.2v-14.9h3v1.3c.8-1,2-1.4,3.4-1.4,3.1,0,5.5,2.2,5.5,5.6ZM26.5,823.7c0-1.9-1.2-3-2.8-3s-2.8,1.1-2.8,3,1.2,3,2.8,3,2.8-1.1,2.8-3Z"/>
            <path class="cls-10" d="M42.6,824.6h-8.3c.3,1.4,1.5,2.2,3.1,2.2s2-.3,2.8-1.1l1.7,1.8c-1,1.2-2.5,1.8-4.5,1.8-3.8,0-6.3-2.4-6.3-5.6s2.5-5.6,5.8-5.6,5.7,2.2,5.7,5.7,0,.6,0,.9ZM34.2,822.7h5.4c-.2-1.4-1.3-2.3-2.7-2.3s-2.5.9-2.7,2.3Z"/>
            <path class="cls-10" d="M43.9,823.7c0-3.3,2.5-5.6,6-5.6s6,2.3,6,5.6-2.5,5.6-6,5.6-6-2.3-6-5.6ZM52.7,823.7c0-1.9-1.2-3-2.8-3s-2.8,1.1-2.8,3,1.2,3,2.8,3,2.8-1.1,2.8-3Z"/>
            <path class="cls-10" d="M70,823.7c0,3.4-2.4,5.6-5.5,5.6s-2.5-.4-3.3-1.3v5.1h-3.2v-14.9h3v1.3c.8-1,2-1.4,3.4-1.4,3.1,0,5.5,2.2,5.5,5.6ZM66.8,823.7c0-1.9-1.2-3-2.8-3s-2.8,1.1-2.8,3,1.2,3,2.8,3,2.8-1.1,2.8-3Z"/>
            <path class="cls-10" d="M72.1,814h3.2v15.1h-3.2v-15.1Z"/>
            <path class="cls-10" d="M88.9,824.6h-8.3c.3,1.4,1.5,2.2,3.1,2.2s2-.3,2.8-1.1l1.7,1.8c-1,1.2-2.5,1.8-4.5,1.8-3.8,0-6.3-2.4-6.3-5.6s2.5-5.6,5.8-5.6,5.7,2.2,5.7,5.7,0,.6,0,.9ZM80.6,822.7h5.4c-.2-1.4-1.3-2.3-2.7-2.3s-2.5.9-2.7,2.3Z"/>
            <path class="cls-10" d="M106.6,822.9v6.3h-3v-1.4c-.6,1-1.7,1.5-3.3,1.5-2.6,0-4.1-1.4-4.1-3.3s1.4-3.3,4.7-3.3h2.5c0-1.4-.8-2.2-2.5-2.2s-2.4.4-3.2,1l-1.1-2.2c1.2-.9,3-1.3,4.7-1.3,3.3,0,5.3,1.5,5.3,4.9ZM103.4,825.7v-1.1h-2.2c-1.5,0-2,.5-2,1.3s.7,1.3,1.8,1.3,2-.5,2.3-1.5Z"/>
            <path class="cls-10" d="M116.3,818v2.9c-.3,0-.5,0-.7,0-1.8,0-2.9,1-2.9,3.1v5.2h-3.2v-11h3v1.4c.8-1.1,2.1-1.6,3.8-1.6Z"/>
            <path class="cls-10" d="M128.7,824.6h-8.3c.3,1.4,1.5,2.2,3.1,2.2s2-.3,2.8-1.1l1.7,1.8c-1,1.2-2.5,1.8-4.5,1.8-3.8,0-6.3-2.4-6.3-5.6s2.5-5.6,5.8-5.6,5.7,2.2,5.7,5.7,0,.6,0,.9ZM120.4,822.7h5.4c-.2-1.4-1.3-2.3-2.7-2.3s-2.5.9-2.7,2.3Z"/>
            <path class="cls-10" d="M135.9,823.7c0-3.3,2.5-5.6,6-5.6s6,2.3,6,5.6-2.5,5.6-6,5.6-6-2.3-6-5.6ZM144.7,823.7c0-1.9-1.2-3-2.8-3s-2.8,1.1-2.8,3,1.2,3,2.8,3,2.8-1.1,2.8-3Z"/>
            <path class="cls-10" d="M161.2,822.9v6.3h-3.2v-5.8c0-1.8-.8-2.6-2.2-2.6s-2.6.9-2.6,3v5.4h-3.2v-11h3v1.3c.9-.9,2.1-1.4,3.6-1.4,2.6,0,4.5,1.5,4.5,4.8Z"/>
          </g>
          <g class="cls-9">
            <path class="cls-10" d="M25.1,867.9v4.9h-2.3v-1.1c-.5.8-1.4,1.2-2.6,1.2-2,0-3.2-1.1-3.2-2.6s1.1-2.6,3.7-2.6h2c0-1.1-.6-1.7-2-1.7s-1.9.3-2.5.8l-.9-1.7c.9-.7,2.3-1,3.7-1,2.6,0,4.1,1.2,4.1,3.8ZM22.6,870v-.9h-1.7c-1.2,0-1.5.4-1.5,1s.5,1,1.4,1,1.5-.4,1.8-1.2Z"/>
            <path class="cls-10" d="M36.7,868.5c0,2.7-1.9,4.4-4.3,4.4s-1.9-.3-2.6-1v4h-2.5v-11.7h2.4v1c.6-.8,1.5-1.1,2.7-1.1,2.4,0,4.3,1.7,4.3,4.4ZM34.2,868.5c0-1.5-.9-2.4-2.2-2.4s-2.2.9-2.2,2.4.9,2.4,2.2,2.4,2.2-.9,2.2-2.4Z"/>
            <path class="cls-10" d="M47.8,868.5c0,2.7-1.9,4.4-4.3,4.4s-1.9-.3-2.6-1v4h-2.5v-11.7h2.4v1c.6-.8,1.5-1.1,2.7-1.1,2.4,0,4.3,1.7,4.3,4.4ZM45.2,868.5c0-1.5-.9-2.4-2.2-2.4s-2.2.9-2.2,2.4.9,2.4,2.2,2.4,2.2-.9,2.2-2.4Z"/>
            <path class="cls-10" d="M48.6,872l.8-1.8c.8.5,1.9.8,3,.8s1.6-.3,1.6-.8c0-1.4-5.2,0-5.2-3.4s1.5-2.8,4-2.8,2.5.3,3.3.8l-.8,1.8c-.8-.5-1.7-.6-2.5-.6-1.1,0-1.6.4-1.6.8,0,1.5,5.2,0,5.2,3.4s-1.5,2.7-4.1,2.7-2.9-.4-3.7-.9Z"/>
            <path class="cls-10" d="M62.1,861.6c0-.8.6-1.4,1.5-1.4s1.5.6,1.5,1.3-.6,1.4-1.5,1.4-1.5-.6-1.5-1.4ZM62.4,864.2h2.5v8.6h-2.5v-8.6Z"/>
            <path class="cls-10" d="M76,867.8v4.9h-2.5v-4.5c0-1.4-.6-2-1.7-2s-2.1.7-2.1,2.3v4.2h-2.5v-8.6h2.4v1c.7-.7,1.7-1.1,2.8-1.1,2,0,3.6,1.2,3.6,3.8Z"/>
            <path class="cls-10" d="M88.4,872.3c-.5.4-1.3.5-2,.5-2,0-3.2-1-3.2-3.1v-3.5h-1.3v-1.9h1.3v-2.1h2.5v2.1h2.1v1.9h-2.1v3.5c0,.7.4,1.1,1.1,1.1s.7-.1,1-.3l.7,1.8Z"/>
            <path class="cls-10" d="M98.5,867.8v4.9h-2.5v-4.5c0-1.4-.6-2-1.7-2s-2.1.7-2.1,2.3v4.2h-2.5v-11.9h2.5v4.2c.7-.7,1.6-1,2.7-1,2,0,3.6,1.2,3.6,3.8Z"/>
            <path class="cls-10" d="M109.3,869.2h-6.5c.2,1.1,1.2,1.7,2.5,1.7s1.6-.3,2.2-.8l1.3,1.4c-.8.9-2,1.4-3.5,1.4-3,0-4.9-1.9-4.9-4.4s2-4.4,4.6-4.4,4.5,1.7,4.5,4.5,0,.5,0,.7ZM102.7,867.7h4.2c-.2-1.1-1-1.8-2.1-1.8s-1.9.7-2.1,1.8Z"/>
            <path class="cls-10" d="M129.3,864.2l-3.1,8.6h-2.4l-1.9-5.3-2,5.3h-2.4l-3.1-8.6h2.3l2,5.8,2.1-5.8h2.1l2,5.8,2.1-5.8h2.2Z"/>
            <path class="cls-10" d="M129.6,868.5c0-2.6,2-4.4,4.7-4.4s4.7,1.8,4.7,4.4-2,4.4-4.7,4.4-4.7-1.8-4.7-4.4ZM136.5,868.5c0-1.5-.9-2.4-2.2-2.4s-2.2.9-2.2,2.4,1,2.4,2.2,2.4,2.2-.9,2.2-2.4Z"/>
            <path class="cls-10" d="M146,864v2.3c-.2,0-.4,0-.6,0-1.4,0-2.3.8-2.3,2.4v4.1h-2.5v-8.6h2.4v1.1c.6-.8,1.6-1.3,3-1.3Z"/>
            <path class="cls-10" d="M147.5,860.9h2.5v11.9h-2.5v-11.9Z"/>
            <path class="cls-10" d="M161.1,860.9v11.9h-2.4v-1c-.6.8-1.5,1.1-2.7,1.1-2.4,0-4.3-1.7-4.3-4.4s1.9-4.4,4.3-4.4,1.9.3,2.6,1v-4.2h2.5ZM158.7,868.5c0-1.5-1-2.4-2.2-2.4s-2.2.9-2.2,2.4,1,2.4,2.2,2.4,2.2-.9,2.2-2.4Z"/>
          </g>
          <g class="cls-9">
            <path class="cls-10" d="M33,855.4v-9.7s-4.8,8-4.8,8h-1.7l-4.7-7.8v9.5h-3.5v-16.2h3.1l6,10,6-10h3.1v16.2s-3.5,0-3.5,0Z"/>
            <path class="cls-10" d="M52.8,852.4v3h-12.5v-16.2h12.2v3h-8.5v3.5h7.5v2.9h-7.5v3.7h8.8Z"/>
            <path class="cls-10" d="M54.5,853.8l1.3-2.8c1.4,1,3.4,1.7,5.3,1.7s3.1-.7,3.1-1.7c0-3-9.4-.9-9.4-6.9s2.2-5,6.8-5,4.1.5,5.6,1.4l-1.2,2.8c-1.5-.9-3-1.3-4.5-1.3-2.2,0-3.1.8-3.1,1.8,0,3,9.4.9,9.4,6.9s-2.2,5-6.9,5-5.1-.8-6.6-1.9Z"/>
            <path class="cls-10" d="M69.3,853.8l1.3-2.8c1.4,1,3.4,1.7,5.3,1.7s3.1-.7,3.1-1.7c0-3-9.4-.9-9.4-6.9s2.2-5,6.8-5,4.1.5,5.6,1.4l-1.2,2.8c-1.5-.9-3-1.3-4.5-1.3-2.2,0-3.1.8-3.1,1.8,0,3,9.4.9,9.4,6.9s-2.2,5-6.9,5-5.1-.8-6.6-1.9Z"/>
            <path class="cls-10" d="M95.9,851.9h-7.5l-1.4,3.5h-3.8l7.2-16.2h3.7l7.2,16.2h-3.9l-1.4-3.5ZM94.7,849.1l-2.6-6.2-2.6,6.2h5.1Z"/>
            <path class="cls-10" d="M113.6,847h3.4v6.6c-1.8,1.3-4.2,2.1-6.5,2.1-5.1,0-8.8-3.5-8.8-8.4s3.7-8.4,8.9-8.4,5.2,1,6.8,2.8l-2.4,2.2c-1.2-1.2-2.5-1.8-4.2-1.8-3.1,0-5.3,2.1-5.3,5.2s2.1,5.2,5.2,5.2,2-.2,2.9-.7v-4.7Z"/>
            <path class="cls-10" d="M120.5,839.2h3.7v16.2h-3.7v-16.2Z"/>
            <path class="cls-10" d="M142.9,839.2v16.2h-3.1l-8.1-9.8v9.8h-3.7v-16.2h3.1l8,9.8v-9.8h3.7Z"/>
            <path class="cls-10" d="M157.6,847h3.4v6.6c-1.8,1.3-4.2,2.1-6.5,2.1-5.1,0-8.8-3.5-8.8-8.4s3.7-8.4,8.9-8.4,5.2,1,6.8,2.8l-2.4,2.2c-1.2-1.2-2.5-1.8-4.2-1.8-3.1,0-5.3,2.1-5.3,5.2s2.1,5.2,5.2,5.2,2-.2,2.9-.7v-4.7Z"/>
          </g>
        </g>
        <g>
          <g class="cls-9">
            <path class="cls-8" d="M239.9,177v10.2h-40.7v-8.1l20.8-19.6c4.8-4.5,5.6-7.3,5.6-9.9,0-4.2-2.9-6.7-8.6-6.7s-8.5,1.8-11.2,5.4l-9.1-5.8c4.2-6.1,11.7-10,21.4-10s20,6.2,20,15.9-1.5,10-9,17l-12.4,11.7h23.2Z"/>
            <path class="cls-8" d="M297.9,172.4c0,9.3-7.4,14.7-21.5,14.7h-27.9v-53.9h26.3c13.5,0,20.4,5.6,20.4,14s-2.8,9.5-7.2,11.9c6,1.9,9.8,6.5,9.8,13.3ZM260.9,142.6v12.7h12.4c6.1,0,9.4-2.2,9.4-6.4s-3.3-6.3-9.4-6.3h-12.4ZM285.3,171.1c0-4.5-3.5-6.7-9.9-6.7h-14.5v13.3h14.5c6.5,0,9.9-2,9.9-6.6Z"/>
            <path class="cls-8" d="M342.4,164.9h-13.4v13.1h-9.9v-13.1h-13.3v-9.4h13.3v-13.1h9.9v13.1h13.4v9.4Z"/>
          </g>
          <g class="cls-9">
            <path class="cls-8" d="M223.6,194.3l-5.4,16.6h-4.1l-3.6-11.2-3.8,11.2h-4.1l-5.4-16.6h4l3.7,11.6,3.9-11.6h3.5l3.8,11.7,3.9-11.7h3.7Z"/>
            <path class="cls-8" d="M240.9,194.3v16.6h-3.8v-6.8h-7.5v6.8h-3.8v-16.6h3.8v6.5h7.5v-6.5h3.8Z"/>
            <path class="cls-8" d="M255.8,207.3h-7.7l-1.5,3.5h-3.9l7.4-16.6h3.8l7.4,16.6h-4l-1.5-3.5ZM254.6,204.4l-2.6-6.3-2.6,6.3h5.3Z"/>
            <path class="cls-8" d="M265.6,197.4h-5.3v-3.1h14.4v3.1h-5.3v13.4h-3.8v-13.4Z"/>
            <path class="cls-8" d="M275.4,209.2l1.3-2.9c1.4,1,3.5,1.7,5.5,1.7s3.2-.8,3.2-1.8c0-3.1-9.6-1-9.6-7.1s2.3-5.2,7-5.2,4.2.5,5.8,1.5l-1.2,2.9c-1.5-.9-3.1-1.3-4.6-1.3-2.3,0-3.1.9-3.1,1.9,0,3.1,9.6.9,9.6,7s-2.3,5.1-7,5.1-5.3-.8-6.7-1.9Z"/>
            <path class="cls-8" d="M302.7,207.3h-7.7l-1.5,3.5h-3.9l7.4-16.6h3.8l7.4,16.6h-4l-1.5-3.5ZM301.5,204.4l-2.6-6.3-2.6,6.3h5.3Z"/>
            <path class="cls-8" d="M324.3,200.3c0,3.7-2.8,6-7.2,6h-3.3v4.6h-3.8v-16.6h7.2c4.4,0,7.2,2.3,7.2,6ZM320.4,200.3c0-1.8-1.2-2.9-3.5-2.9h-3.1v5.8h3.1c2.3,0,3.5-1.1,3.5-2.9Z"/>
            <path class="cls-8" d="M341.4,200.3c0,3.7-2.8,6-7.2,6h-3.3v4.6h-3.8v-16.6h7.2c4.4,0,7.2,2.3,7.2,6ZM337.5,200.3c0-1.8-1.2-2.9-3.5-2.9h-3.1v5.8h3.1c2.3,0,3.5-1.1,3.5-2.9Z"/>
          </g>
          <g class="cls-9">
            <path class="cls-8" d="M206.1,218.7v8.3h-2.3v-1c-.6.7-1.6,1.1-2.6,1.1-2.1,0-3.5-1.2-3.5-3.7v-4.7h2.4v4.3c0,1.4.6,2,1.7,2s1.9-.7,1.9-2.2v-4.1h2.4Z"/>
            <path class="cls-8" d="M207.5,226.2l.8-1.7c.7.5,1.9.8,2.9.8s1.5-.3,1.5-.8c0-1.4-5,0-5-3.3s1.4-2.7,3.8-2.7,2.4.3,3.2.7l-.8,1.7c-.8-.5-1.6-.6-2.4-.6-1.1,0-1.5.3-1.5.8,0,1.4,5,0,5,3.3s-1.4,2.6-3.9,2.6-2.8-.4-3.6-.9Z"/>
            <path class="cls-8" d="M224.5,223.5h-6.3c.2,1,1.1,1.7,2.4,1.7s1.5-.3,2.1-.8l1.3,1.4c-.8.9-1.9,1.3-3.4,1.3-2.9,0-4.7-1.8-4.7-4.3s1.9-4.3,4.4-4.3,4.3,1.6,4.3,4.3,0,.4,0,.6ZM218.2,222.1h4.1c-.2-1-1-1.7-2-1.7s-1.9.7-2,1.7Z"/>
            <path class="cls-8" d="M231.3,218.6v2.2c-.2,0-.4,0-.5,0-1.3,0-2.2.7-2.2,2.3v3.9h-2.4v-8.3h2.3v1.1c.6-.8,1.6-1.2,2.8-1.2Z"/>
            <path class="cls-8" d="M232,226.2l.8-1.7c.7.5,1.9.8,2.9.8s1.5-.3,1.5-.8c0-1.4-5,0-5-3.3s1.4-2.7,3.8-2.7,2.4.3,3.2.7l-.8,1.7c-.8-.5-1.6-.6-2.4-.6-1.1,0-1.5.3-1.5.8,0,1.4,5,0,5,3.3s-1.4,2.6-3.9,2.6-2.8-.4-3.6-.9Z"/>
            <path class="cls-8" d="M245,216.2c0-.8.6-1.3,1.5-1.3s1.5.6,1.5,1.3-.6,1.4-1.5,1.4-1.5-.6-1.5-1.3ZM245.3,218.7h2.4v8.3h-2.4v-8.3Z"/>
            <path class="cls-8" d="M258.4,222.2v4.7h-2.4v-4.4c0-1.3-.6-2-1.7-2s-2,.7-2,2.2v4.1h-2.4v-8.3h2.3v1c.6-.7,1.6-1.1,2.7-1.1,2,0,3.4,1.1,3.4,3.7Z"/>
            <path class="cls-8" d="M270.2,226.6c-.5.4-1.2.5-2,.5-2,0-3.1-1-3.1-3v-3.4h-1.3v-1.8h1.3v-2h2.4v2h2.1v1.8h-2.1v3.4c0,.7.4,1.1,1,1.1s.7-.1,1-.3l.6,1.7Z"/>
            <path class="cls-8" d="M280.1,222.2v4.7h-2.4v-4.4c0-1.3-.6-2-1.7-2s-2,.7-2,2.2v4.1h-2.4v-11.4h2.4v4c.6-.6,1.6-1,2.6-1,2,0,3.4,1.1,3.4,3.7Z"/>
            <path class="cls-8" d="M290.4,223.5h-6.3c.2,1,1.1,1.7,2.4,1.7s1.5-.3,2.1-.8l1.3,1.4c-.8.9-1.9,1.3-3.4,1.3-2.9,0-4.7-1.8-4.7-4.3s1.9-4.3,4.4-4.3,4.3,1.6,4.3,4.3,0,.4,0,.6ZM284.1,222.1h4.1c-.2-1-1-1.7-2-1.7s-1.9.7-2,1.7Z"/>
            <path class="cls-8" d="M309.7,218.7l-3,8.3h-2.3l-1.9-5.1-1.9,5.1h-2.3l-3-8.3h2.3l2,5.6,2-5.6h2l2,5.6,2-5.6h2.1Z"/>
            <path class="cls-8" d="M309.9,222.8c0-2.5,1.9-4.3,4.6-4.3s4.5,1.8,4.5,4.3-1.9,4.3-4.5,4.3-4.6-1.8-4.6-4.3ZM316.6,222.8c0-1.4-.9-2.3-2.1-2.3s-2.1.9-2.1,2.3.9,2.3,2.1,2.3,2.1-.9,2.1-2.3Z"/>
            <path class="cls-8" d="M325.8,218.6v2.2c-.2,0-.4,0-.5,0-1.3,0-2.2.7-2.2,2.3v3.9h-2.4v-8.3h2.3v1.1c.6-.8,1.6-1.2,2.8-1.2Z"/>
            <path class="cls-8" d="M327.2,215.5h2.4v11.4h-2.4v-11.4Z"/>
            <path class="cls-8" d="M340.3,215.5v11.4h-2.3v-1c-.6.7-1.5,1.1-2.6,1.1-2.3,0-4.1-1.7-4.1-4.3s1.8-4.3,4.1-4.3,1.9.3,2.5,1v-4h2.4ZM337.9,222.8c0-1.4-.9-2.3-2.1-2.3s-2.1.9-2.1,2.3.9,2.3,2.1,2.3,2.1-.9,2.1-2.3Z"/>
          </g>
        </g>
        <g>
          <path class="cls-8" d="M73.7,311.3c-.7-.7-1.6-1.1-2.5-1.1h-3c0-.8,0-1.5,0-2.3-.2-2-.6-4.4-1.6-6.9,3.3-1.7,5.3-3.5,5.1-5.5-.3-2.7-4.3-4.1-13.6-5.1-6.6-4.4-13.9-4.3-15-4.2-.5,0-11.1.5-17.9,8.3-11.4,4.2-12.7,6.6-12.4,8.6.3,2.1,3.2,3.4,7.2,4.1v4.1s-2.9,0-2.9,0c-1,0-1.9.4-2.6,1-.7.7-1.1,1.6-1.1,2.5v10.5c-.1,1,.2,1.9.9,2.6.7.7,1.6,1.1,2.5,1.1h2.9s0,2,0,2c0,3.7,2.9,6.7,6.6,6.8h2.8s0,4.6,0,4.6c0,1,.5,1.9,1.4,2.4.4.2.9.4,1.4.4s.9-.1,1.4-.4l6.3-3.9c2.9-1.8,6.3-2.7,9.7-2.6,3.8.2,9,.3,12.4,0,.9,0,3-.3,4.6-1.9,1.3-1.3,2-2.9,2-4.7v-3.7s2.9,0,2.9,0h.1c1.9,0,3.5-1.6,3.5-3.5v-10.5c.1-1-.2-1.9-.9-2.6h0ZM68.9,295.8c0,.6-1.4,1.6-3.5,2.7-.5-.9-1-1.7-1.6-2.6-.6-.8-1.2-1.5-1.8-2.2,6.3,1,7,2.1,7,2.1ZM43.1,289c1.2,0,12-.2,18.4,8.5.5.7.9,1.4,1.3,2.1-4.8,2-12.1,4.1-20.3,5.1-7.5.9-14.5.8-19.5.2.4-2.1,1.1-4,2.1-5.8,5.5-9.6,17.4-10.2,17.9-10.2ZM15.5,302.8c0,0,.4-1.4,6.9-4.2-1,1.9-1.6,3.8-2,5.9-2.8-.5-4.6-1.2-4.9-1.8h0ZM16.9,326.2c-.2,0-.4,0-.6-.2-.2-.2-.2-.4-.2-.6v-10.5c.1-.2.2-.4.4-.6.2-.1.3-.2.5-.2h2.9s-.1,12.1-.1,12.1h-2.9ZM64.1,334.3c-.8.8-1.9,1-3,1.1-3.2.3-8.3.2-12,0-4-.2-7.9.9-11.3,3l-6.2,3.9v-7.3c0,0-5.4,0-5.4,0-2.2,0-3.9-1.8-3.9-4v-2h0l.2-17.6h0v-3.3h0c0-.2,0-.3,0-.5,3.4.4,7.4.5,11.1.4,3.3,0,6.5-.3,9-.6,5.8-.7,14.8-2.7,21.1-5.3,1,2.5,1.3,4.9,1.4,6.7l-.2,22.7c0,1-.4,2-1.2,2.8ZM71.8,324.3c0,.5-.3.8-.8.8h-2.9s.1-12.1.1-12.1h2.9c.2,0,.4.1.6.3.2.2.2.4.2.6v10.5c-.1,0-.1,0-.1,0Z"/>
          <g>
            <path class="cls-8" d="M42.3,327.8c-3.2-.2-6.4-1.2-9.2-2.8l-1.4,2.4c3.2,1.9,6.8,3,10.4,3.2.7,0,1.4,0,2,0,5.3-.1,9.4-2,11.5-3.3l-1.4-2.4c-2.1,1.2-6.4,3.2-11.9,2.9h0Z"/>
            <path class="cls-8" d="M50.8,314.4c1.8,0,3.3,1.5,3.3,3.3s-1.5,3.3-3.3,3.3-3.3-1.5-3.3-3.3,1.5-3.3,3.3-3.3M50.8,311.7c-3.3,0-6,2.7-6,6s2.7,6,6,6,6-2.7,6-6-2.7-6-6-6h0Z"/>
            <path class="cls-8" d="M36.6,314.4c1.8,0,3.3,1.5,3.3,3.3s-1.5,3.3-3.3,3.3-3.3-1.5-3.3-3.3,1.5-3.3,3.3-3.3M36.6,311.7c-3.3,0-6,2.7-6,6s2.7,6,6,6,6-2.7,6-6-2.7-6-6-6h0Z"/>
          </g>
        </g>
      </g>
    </g>
  </g>
</svg>