<svg width="451" height="450" viewBox="0 0 451 450" fill="none" xmlns="http://www.w3.org/2000/svg">
<path d="M450.43 0H360.34V90.09H450.43V0Z" fill="#FF5252"/>
<path d="M360.35 0H270.26V180.17H360.35V0Z" fill="#D7DF22"/>
<path d="M270.26 0H180.17V90.09H270.26V0Z" fill="#42C684"/>
<path d="M180.18 0H90.0898V90.09H180.18V0Z" fill="#52C4D4"/>
<path d="M90.09 0H0V90.09H90.09V0Z" fill="#292828"/>
<path d="M450.43 90.09H360.34V180.18H450.43V90.09Z" fill="#F9F5F1"/>
<path d="M270.26 90.09H180.17V180.18H270.26V90.09Z" fill="#52C4D4"/>
<path d="M180.18 90.09H90.0898V180.18H180.18V90.09Z" fill="#FF5252"/>
<path d="M90.09 90.09H0V180.18H90.09V90.09Z" fill="#D7DF22"/>
<path d="M450.43 180.17H360.34V270.26H450.43V180.17Z" fill="#52C4D4"/>
<path d="M360.35 180.17H270.26V270.26H360.35V180.17Z" fill="#FF5252"/>
<path d="M270.26 180.17H180.17V270.26H270.26V180.17Z" fill="#D7DF22"/>
<path d="M180.18 180.17H90.0898V270.26H180.18V180.17Z" fill="#292828"/>
<path d="M90.09 180.17H0V270.26H90.09V180.17Z" fill="#F9F5F1"/>
<path d="M450.43 270.04H360.34V360.13H450.43V270.04Z" fill="#42C684"/>
<path d="M360.35 270.04H270.26V360.13H360.35V270.04Z" fill="#F9F5F1"/>
<path d="M270.26 270.04H180.17V360.13H270.26V270.04Z" fill="#292828"/>
<path d="M180.18 270.04H90.0898V360.13H180.18V270.04Z" fill="#52C4D4"/>
<path d="M90.09 270.04H0V360.13H90.09V270.04Z" fill="#42C684"/>
<path d="M450.43 359.91H360.34V450H450.43V359.91Z" fill="#292828"/>
<path d="M360.35 359.91H270.26V450H360.35V359.91Z" fill="#D7DF22"/>
<path d="M270.26 359.91H180.17V450H270.26V359.91Z" fill="#51C387"/>
<path d="M180.18 359.91H90.0898V450H180.18V359.91Z" fill="#D7DF22"/>
<path d="M90.09 359.91H0V450H90.09V359.91Z" fill="#52C4D4"/>
<path d="M225.6 157.06H194.49L225.6 114.93L256.7 157.06H225.6Z" stroke="white" stroke-width="1.9"/>
<path d="M425.28 45.4999C425.28 63.1099 405.04 73.0399 391.11 62.2599C380.14 53.7699 380.14 37.2199 391.11 28.7299C405.04 17.9499 425.28 27.8799 425.28 45.4899V45.4999Z" stroke="white" stroke-width="1.9"/>
<path d="M374.089 45.5019L404.099 75.5115L434.108 45.5019L404.099 15.4922L374.089 45.5019Z" stroke="white" stroke-width="1.9"/>
<path d="M284.981 316.139L314.941 346.099C315.195 346.353 315.606 346.353 315.86 346.099L345.82 316.139C346.074 315.885 346.074 315.473 345.82 315.219L315.86 285.259C315.606 285.005 315.195 285.006 314.941 285.259L284.981 315.219C284.727 315.473 284.727 315.885 284.981 316.139Z" stroke="#FF5252" stroke-width="1.9"/>
<path d="M315.87 297.28L345.05 314.93C345.62 315.27 345.62 316.09 345.06 316.44L315.88 334.64C315.59 334.82 315.23 334.82 314.94 334.64L285.76 316.44C285.2 316.09 285.2 315.27 285.77 314.93L314.95 297.28C315.23 297.11 315.59 297.11 315.87 297.28Z" stroke="#FF5252" stroke-width="1.9"/>
<path d="M315.64 307.23L343.22 314.84C344.09 315.08 344.09 316.31 343.22 316.55L315.64 324.39C315.48 324.44 315.31 324.44 315.15 324.39L287.57 316.55C286.71 316.3 286.71 315.08 287.57 314.84L315.15 307.23C315.3 307.19 315.47 307.19 315.62 307.23H315.64Z" stroke="#FF5252" stroke-width="1.9"/>
<path d="M56.74 136V167.11L17.71 136L56.74 104.89V136Z" stroke="#292828" stroke-width="1.9"/>
<path d="M55.3202 150.87C63.5327 150.87 70.1902 144.212 70.1902 136C70.1902 127.788 63.5327 121.13 55.3202 121.13C47.1077 121.13 40.4502 127.788 40.4502 136C40.4502 144.212 47.1077 150.87 55.3202 150.87Z" stroke="#292828" stroke-width="1.9"/>
<path d="M416.88 315.68V346.79L377.85 315.68L416.88 284.57V315.68Z" stroke="#292828" stroke-width="1.9"/>
<path d="M415.46 330.55C423.672 330.55 430.33 323.892 430.33 315.68C430.33 307.468 423.672 300.81 415.46 300.81C407.247 300.81 400.59 307.468 400.59 315.68C400.59 323.892 407.247 330.55 415.46 330.55Z" stroke="#292828" stroke-width="1.9"/>
<path d="M252.28 377.48C236.59 377.48 223.87 390.2 223.87 405.89C223.87 421.58 236.59 434.3 252.28 434.3V377.48Z" stroke="#292828" stroke-width="1.9"/>
<path d="M223.87 377.48C239.56 377.48 252.28 390.2 252.28 405.89C252.28 421.58 239.56 434.3 223.87 434.3V377.48Z" stroke="#292828" stroke-width="1.9"/>
<path d="M238.07 413.18C242.096 413.18 245.36 409.916 245.36 405.89C245.36 401.864 242.096 398.6 238.07 398.6C234.044 398.6 230.78 401.864 230.78 405.89C230.78 409.916 234.044 413.18 238.07 413.18Z" stroke="#292828" stroke-width="1.9"/>
<path d="M215.27 406.45H198.92" stroke="#292828" stroke-width="1.9"/>
<path d="M214.92 397.8L202.61 385.49" stroke="#292828" stroke-width="1.9"/>
<path d="M214.92 413.98L202.61 426.29" stroke="#292828" stroke-width="1.9"/>
<path d="M430.77 197.15C415.08 197.15 402.36 209.87 402.36 225.56C402.36 241.25 415.08 253.97 430.77 253.97V197.15Z" stroke="white" stroke-width="1.9"/>
<path d="M402.36 197.15C418.05 197.15 430.77 209.87 430.77 225.56C430.77 241.25 418.05 253.97 402.36 253.97V197.15Z" stroke="white" stroke-width="1.9"/>
<path d="M416.57 232.85C420.596 232.85 423.86 229.586 423.86 225.56C423.86 221.534 420.596 218.27 416.57 218.27C412.544 218.27 409.28 221.534 409.28 225.56C409.28 229.586 412.544 232.85 416.57 232.85Z" stroke="white" stroke-width="1.9"/>
<path d="M393.77 226.12H377.41" stroke="white" stroke-width="1.9"/>
<path d="M393.42 217.47L381.11 205.16" stroke="white" stroke-width="1.9"/>
<path d="M393.42 233.65L381.11 245.96" stroke="white" stroke-width="1.9"/>
<path d="M248.36 45.5V76.77L202.66 45.5L248.36 14.22V45.5Z" stroke="#D7DF22" stroke-width="1.9"/>
<path d="M233.57 60.4599C241.833 60.4599 248.53 53.7621 248.53 45.4999C248.53 37.2377 241.833 30.5399 233.57 30.5399C225.308 30.5399 218.61 37.2377 218.61 45.4999C218.61 53.7621 225.308 60.4599 233.57 60.4599Z" stroke="#D7DF22" stroke-width="1.9"/>
<path d="M248.36 14.22L239.29 31.67" stroke="#D7DF22" stroke-width="1.9"/>
<path d="M218.6 45.5H202.66" stroke="#D7DF22" stroke-width="1.9"/>
<path d="M238.78 59.53L248.36 75.56" stroke="#D7DF22" stroke-width="1.9"/>
<path d="M338.16 405.89V437.16L292.47 405.89L338.16 374.62V405.89Z" stroke="#FF5252" stroke-width="1.9"/>
<path d="M323.38 420.85C331.642 420.85 338.34 414.152 338.34 405.89C338.34 397.628 331.642 390.93 323.38 390.93C315.118 390.93 308.42 397.628 308.42 405.89C308.42 414.152 315.118 420.85 323.38 420.85Z" stroke="#FF5252" stroke-width="1.9"/>
<path d="M338.16 374.62L329.1 392.06" stroke="#FF5252" stroke-width="1.9"/>
<path d="M308.41 405.89H292.47" stroke="#FF5252" stroke-width="1.9"/>
<path d="M328.59 419.92L338.16 435.95" stroke="#FF5252" stroke-width="1.9"/>
<path d="M290.98 111.56V160.42H339.84V111.56H290.98Z" stroke="white" stroke-width="1.9"/>
<path d="M290.978 136.002L315.408 160.433L339.839 136.002L315.408 111.571L290.978 136.002Z" stroke="white" stroke-width="1.9"/>
<path d="M303.19 123.78V148.21H327.62V123.78H303.19Z" stroke="white" stroke-width="1.9"/>
<path d="M19.5195 381.46L19.5195 430.32H68.3795V381.46H19.5195Z" stroke="white" stroke-width="1.9"/>
<path d="M19.5197 405.888L43.9502 430.319L68.3807 405.888L43.9502 381.457L19.5197 405.888Z" stroke="white" stroke-width="1.9"/>
<path d="M31.7402 393.67V418.1H56.1702V393.67H31.7402Z" stroke="white" stroke-width="1.9"/>
<path d="M315.411 68.35C328.03 68.35 338.261 58.1197 338.261 45.5C338.261 32.8803 328.03 22.65 315.411 22.65C302.791 22.65 292.561 32.8803 292.561 45.5C292.561 58.1197 302.791 68.35 315.411 68.35Z" stroke="#292828" stroke-width="1.9"/>
<path d="M304.11 25.9001C303.9 18.8401 304.99 14.0701 307.38 13.4701C311.79 12.3601 318.96 25.8101 323.39 43.4901C327.82 61.1801 327.84 76.4101 323.43 77.5201C321.15 78.0901 318.13 74.7701 315.13 68.9801" stroke="#292828" stroke-width="1.9"/>
<path d="M404.09 428.74C416.71 428.74 426.94 418.51 426.94 405.89C426.94 393.27 416.71 383.04 404.09 383.04C391.471 383.04 381.24 393.27 381.24 405.89C381.24 418.51 391.471 428.74 404.09 428.74Z" stroke="#D7DF22" stroke-width="1.9"/>
<path d="M392.79 386.3C392.58 379.24 393.67 374.47 396.06 373.87C400.47 372.76 407.64 386.21 412.07 403.89C416.5 421.58 416.52 436.81 412.11 437.92C409.83 438.49 406.81 435.17 403.81 429.38" stroke="#D7DF22" stroke-width="1.9"/>
<path d="M43.9496 248.41C56.5693 248.41 66.7996 238.18 66.7996 225.56C66.7996 212.94 56.5693 202.71 43.9496 202.71C31.3299 202.71 21.0996 212.94 21.0996 225.56C21.0996 238.18 31.3299 248.41 43.9496 248.41Z" stroke="#FF5252" stroke-width="1.9"/>
<path d="M32.6495 205.97C32.4395 198.91 33.5295 194.14 35.9195 193.54C40.3295 192.43 47.4995 205.88 51.9295 223.56C56.3595 241.25 56.3795 256.48 51.9695 257.59C49.6895 258.16 46.6695 254.84 43.6695 249.05" stroke="#FF5252" stroke-width="1.9"/>
<path d="M385.631 117.53L396.921 128.82" stroke="#D7DF22" stroke-width="1.9"/>
<path d="M404.101 109.89V125.85" stroke="#D7DF22" stroke-width="1.9"/>
<path d="M422.561 117.53L411.261 128.82" stroke="#D7DF22" stroke-width="1.9"/>
<path d="M430.21 136H414.23" stroke="#D7DF22" stroke-width="1.9"/>
<path d="M411.261 143.16L422.561 154.46" stroke="#D7DF22" stroke-width="1.9"/>
<path d="M404.101 146.13V162.11" stroke="#D7DF22" stroke-width="1.9"/>
<path d="M396.921 143.16L385.631 154.46" stroke="#D7DF22" stroke-width="1.9"/>
<path d="M393.95 136H377.98" stroke="#D7DF22" stroke-width="1.9"/>
<path d="M115.859 297.21L127.159 308.51" stroke="#D7DF22" stroke-width="1.9"/>
<path d="M134.33 289.57V305.54" stroke="#D7DF22" stroke-width="1.9"/>
<path d="M152.79 297.21L141.5 308.51" stroke="#D7DF22" stroke-width="1.9"/>
<path d="M160.44 315.68H144.47" stroke="#D7DF22" stroke-width="1.9"/>
<path d="M141.5 322.85L152.79 334.14" stroke="#D7DF22" stroke-width="1.9"/>
<path d="M134.33 325.82V341.79" stroke="#D7DF22" stroke-width="1.9"/>
<path d="M127.159 322.85L115.859 334.14" stroke="#D7DF22" stroke-width="1.9"/>
<path d="M124.19 315.68H108.22" stroke="#D7DF22" stroke-width="1.9"/>
<path d="M207.131 207.09L218.431 218.39" stroke="white" stroke-width="1.9"/>
<path d="M225.601 199.45V215.42" stroke="white" stroke-width="1.9"/>
<path d="M244.061 207.09L232.771 218.39" stroke="white" stroke-width="1.9"/>
<path d="M251.71 225.56H235.74" stroke="white" stroke-width="1.9"/>
<path d="M232.771 232.73L244.061 244.02" stroke="white" stroke-width="1.9"/>
<path d="M225.601 235.7V251.67" stroke="white" stroke-width="1.9"/>
<path d="M218.431 232.73L207.131 244.02" stroke="white" stroke-width="1.9"/>
<path d="M215.46 225.56H199.48" stroke="white" stroke-width="1.9"/>
<path d="M25.4902 27.03L43.9502 45.5" stroke="white" stroke-width="1.9"/>
<path d="M43.9502 19.39V45.5" stroke="white" stroke-width="1.9"/>
<path d="M62.4102 27.03L43.9502 45.5" stroke="white" stroke-width="1.9"/>
<path d="M70.0602 45.5H43.9502" stroke="white" stroke-width="1.9"/>
<path d="M62.4102 63.96L43.9502 45.5" stroke="white" stroke-width="1.9"/>
<path d="M43.9502 71.61V45.5" stroke="white" stroke-width="1.9"/>
<path d="M25.4902 63.96L43.9502 45.5" stroke="white" stroke-width="1.9"/>
<path d="M17.8398 45.5H43.9498" stroke="white" stroke-width="1.9"/>
<path d="M137.56 74.5701C111.72 62.9401 111.72 28.0601 137.56 16.4301M150.48 45.5001C150.48 50.8501 146.14 55.1901 140.79 55.1901C135.44 55.1901 131.1 50.8501 131.1 45.5001C131.1 40.1501 135.44 35.8101 140.79 35.8101C146.14 35.8101 150.48 40.1501 150.48 45.5001Z" stroke="#292828" stroke-width="1.9"/>
<path d="M137.56 434.96C111.72 423.33 111.72 388.45 137.56 376.82M150.48 405.89C150.48 411.24 146.14 415.58 140.79 415.58C135.44 415.58 131.1 411.24 131.1 405.89C131.1 400.54 135.44 396.2 140.79 396.2C146.14 396.2 150.48 400.54 150.48 405.89Z" stroke="#FF5252" stroke-width="1.9"/>
<path d="M155.41 136C155.41 153.52 135.28 163.4 121.42 152.68C110.51 144.24 110.51 127.77 121.42 119.33C135.28 108.61 155.41 118.48 155.41 136Z" stroke="white" stroke-width="1.9"/>
<path d="M204.7 328.98C200.05 328.98 197.24 326.8 197.24 321.79V314.01H194.1V309.09H197.24V305.24H203.19V309.09H209.62V314.01H203.19V321.12C203.19 323.11 203.94 323.62 206.05 323.62H209.62V328.98H204.7Z" fill="white"/>
<path d="M219.279 323.62H232.6V328.97H211.479V323.61L224.179 314.48L224.859 314H212.07V309.08H231.999V314.2C227.749 317.34 223.52 320.47 219.27 323.61L219.279 323.62Z" fill="white"/>
<path d="M234.47 328.98V302.38H240.42V316.47H244.95L250.03 309.09H257.1L249.84 318.7L256.98 328.98H249.96L245 321.79H240.44V328.98H234.48H234.47Z" fill="white"/>
<path d="M344.82 221.75C344.15 221.07 343.26 220.68 342.3 220.67L339.33 220.64C339.31 219.9 339.29 219.16 339.28 218.41C339.11 216.44 338.68 214.02 337.68 211.47C340.93 209.81 343.03 207.95 342.79 205.98C342.47 203.33 338.5 201.85 329.14 200.9C322.52 196.55 315.19 196.64 314.15 196.69C313.65 196.71 303.03 197.21 296.28 205.01C284.92 209.21 283.58 211.61 283.85 213.58C284.13 215.66 287.04 216.97 291.09 217.73V221.85L288.22 221.82C287.27 221.81 286.36 222.17 285.67 222.84C284.98 223.51 284.6 224.4 284.59 225.36L284.46 235.82C284.45 236.78 284.81 237.68 285.48 238.37C286.15 239.05 287.04 239.44 288 239.45L290.88 239.48L290.79 241.43C290.75 245.12 293.72 248.16 297.41 248.2L300.17 248.23L300.12 252.8C300.11 253.79 300.64 254.71 301.5 255.19C301.93 255.44 302.41 255.55 302.9 255.54C303.39 255.53 303.85 255.39 304.26 255.14L310.52 251.26C313.44 249.45 316.78 248.56 320.2 248.71C323.96 248.86 329.15 248.98 332.56 248.61C333.45 248.52 335.53 248.29 337.16 246.72C338.44 245.47 339.15 243.8 339.17 242L339.2 238.27L342.1 238.3H342.23C344.15 238.25 345.71 236.69 345.73 234.76L345.86 224.3C345.87 223.34 345.51 222.44 344.84 221.75H344.85H344.82ZM340.03 206.29C339.94 206.91 338.66 207.87 336.49 208.95C336.02 208.09 335.51 207.22 334.88 206.37C334.3 205.58 333.69 204.86 333.06 204.19C339.4 205.17 340.02 206.29 340.04 206.29H340.03ZM314.24 199.46C315.49 199.42 326.27 199.27 332.65 208C333.15 208.7 333.58 209.39 333.97 210.09C329.15 212.07 321.88 214.18 313.68 215.21C306.18 216.14 299.22 216 294.22 215.41C294.62 213.36 295.33 211.43 296.35 209.65C301.86 200.04 313.74 199.49 314.24 199.47V199.46ZM286.58 213.24C286.59 213.17 286.93 211.84 293.52 209.06C292.55 210.92 291.87 212.9 291.47 215C288.63 214.49 286.84 213.84 286.58 213.24ZM288.03 236.69C287.81 236.69 287.61 236.6 287.45 236.44C287.3 236.28 287.21 236.08 287.22 235.86L287.35 225.39C287.35 225.17 287.44 224.97 287.6 224.81C287.75 224.66 287.94 224.58 288.15 224.58H288.18L291.06 224.61L290.91 236.72L288.03 236.69ZM335.21 244.75C334.39 245.55 333.31 245.76 332.25 245.88C329.01 246.22 323.96 246.12 320.3 245.97C316.34 245.81 312.44 246.83 309.05 248.94L302.87 252.87L302.96 245.54L297.43 245.47C295.26 245.44 293.52 243.66 293.55 241.49L293.64 239.54L293.85 221.9L293.82 218.64C293.82 218.48 293.84 218.32 293.85 218.16C297.3 218.57 301.23 218.68 304.96 218.59C308.29 218.51 311.47 218.28 314 217.97C319.82 217.25 328.77 215.28 335.14 212.64C336.11 215.15 336.46 217.52 336.56 219.35L336.39 242C336.38 243.05 335.96 244.03 335.2 244.76L335.21 244.75ZM342.95 234.73C342.95 235.18 342.61 235.56 342.12 235.54L339.24 235.51L339.38 223.4L342.26 223.43C342.48 223.43 342.68 223.52 342.84 223.68C342.99 223.84 343.07 224.04 343.07 224.26L342.94 234.72L342.95 234.73Z" fill="white"/>
<path d="M313.45 238.25C310.26 238.04 307.08 237.06 304.28 235.41L302.88 237.8C306.05 239.67 309.64 240.77 313.27 241.01C313.96 241.06 314.63 241.07 315.29 241.05C320.56 240.93 324.67 239.01 326.77 237.78L325.37 235.39C323.28 236.61 318.97 238.6 313.45 238.25Z" fill="white"/>
<path d="M321.88 232.66C324.377 232.66 326.4 230.636 326.4 228.14C326.4 225.644 324.377 223.62 321.88 223.62C319.384 223.62 317.36 225.644 317.36 228.14C317.36 230.636 319.384 232.66 321.88 232.66Z" fill="white"/>
<path d="M321.88 225.11C323.55 225.11 324.9 226.47 324.9 228.13C324.9 229.79 323.54 231.15 321.88 231.15C320.22 231.15 318.86 229.79 318.86 228.13C318.86 226.47 320.22 225.11 321.88 225.11ZM321.88 222.11C318.55 222.11 315.86 224.81 315.86 228.13C315.86 231.45 318.56 234.15 321.88 234.15C325.2 234.15 327.9 231.45 327.9 228.13C327.9 224.81 325.2 222.11 321.88 222.11Z" fill="#FF5252"/>
<path d="M307.76 232.66C305.26 232.66 303.24 230.63 303.24 228.14C303.24 225.65 305.27 223.62 307.76 223.62C310.25 223.62 312.28 225.65 312.28 228.14C312.28 230.63 310.25 232.66 307.76 232.66Z" fill="white"/>
<path d="M307.76 225.11C309.43 225.11 310.78 226.47 310.78 228.13C310.78 229.79 309.42 231.15 307.76 231.15C306.1 231.15 304.74 229.79 304.74 228.13C304.74 226.47 306.1 225.11 307.76 225.11ZM307.76 222.11C304.43 222.11 301.74 224.81 301.74 228.13C301.74 231.45 304.44 234.15 307.76 234.15C311.08 234.15 313.78 231.45 313.78 228.13C313.78 224.81 311.08 222.11 307.76 222.11Z" fill="#FF5252"/>
<path d="M73.9503 311.31C73.2803 310.63 72.3903 310.24 71.4303 310.23L68.4603 310.2C68.4403 309.46 68.4204 308.72 68.4104 307.97C68.2404 306 67.8103 303.58 66.8103 301.03C70.0603 299.37 72.1603 297.51 71.9203 295.54C71.6003 292.89 67.6303 291.41 58.2703 290.46C51.6503 286.11 44.3203 286.2 43.2803 286.25C42.7803 286.27 32.1603 286.77 25.4103 294.57C14.0503 298.77 12.7103 301.17 12.9803 303.14C13.2603 305.22 16.1703 306.53 20.2203 307.29V311.41L17.3503 311.38C16.4003 311.37 15.4903 311.73 14.8003 312.4C14.1103 313.07 13.7303 313.96 13.7203 314.92L13.5903 325.38C13.5803 326.34 13.9403 327.24 14.6103 327.93C15.2803 328.61 16.1703 329 17.1303 329.01L20.0103 329.04L19.9203 330.99C19.8803 334.68 22.8503 337.72 26.5403 337.76L29.3003 337.79L29.2503 342.36C29.2403 343.35 29.7703 344.27 30.6303 344.75C31.0603 345 31.5403 345.11 32.0303 345.1C32.5203 345.09 32.9803 344.95 33.3903 344.7L39.6503 340.82C42.5703 339.01 45.9103 338.12 49.3303 338.27C53.0903 338.42 58.2803 338.54 61.6903 338.17C62.5803 338.08 64.6603 337.85 66.2903 336.28C67.5703 335.03 68.2804 333.36 68.3004 331.56L68.3303 327.83L71.2304 327.86H71.3603C73.2803 327.81 74.8403 326.25 74.8603 324.32L74.9903 313.86C75.0003 312.9 74.6403 312 73.9703 311.31H73.9804H73.9503ZM69.1604 295.85C69.0704 296.47 67.7903 297.43 65.6203 298.51C65.1503 297.65 64.6403 296.78 64.0103 295.93C63.4303 295.14 62.8203 294.42 62.1903 293.75C68.5303 294.73 69.1503 295.85 69.1703 295.85H69.1604ZM43.3703 289.02C44.6203 288.98 55.4003 288.83 61.7803 297.56C62.2803 298.26 62.7103 298.95 63.1003 299.65C58.2803 301.63 51.0103 303.74 42.8103 304.77C35.3103 305.7 28.3503 305.56 23.3503 304.97C23.7503 302.92 24.4603 300.99 25.4803 299.21C30.9903 289.6 42.8703 289.05 43.3703 289.03V289.02ZM15.7103 302.8C15.7203 302.73 16.0603 301.4 22.6503 298.62C21.6803 300.48 21.0003 302.46 20.6003 304.56C17.7603 304.05 15.9703 303.4 15.7103 302.8ZM17.1603 326.25C16.9403 326.25 16.7403 326.16 16.5803 326C16.4303 325.84 16.3403 325.64 16.3503 325.42L16.4803 314.95C16.4803 314.73 16.5703 314.53 16.7303 314.37C16.8803 314.22 17.0703 314.14 17.2803 314.14H17.3103L20.1903 314.17L20.0403 326.28L17.1603 326.25ZM64.3503 334.3C63.5303 335.1 62.4503 335.31 61.3903 335.43C58.1503 335.77 53.1003 335.67 49.4403 335.52C45.4803 335.36 41.5803 336.38 38.1903 338.49L32.0103 342.42L32.1003 335.09L26.5703 335.02C24.4003 334.99 22.6603 333.21 22.6903 331.04L22.7803 329.09L22.9903 311.45L22.9603 308.19C22.9603 308.03 22.9803 307.87 22.9903 307.71C26.4403 308.12 30.3703 308.23 34.1003 308.14C37.4303 308.06 40.6103 307.83 43.1403 307.52C48.9603 306.8 57.9103 304.83 64.2803 302.19C65.2503 304.7 65.6003 307.07 65.7003 308.9L65.5303 331.55C65.5203 332.6 65.1003 333.58 64.3403 334.31L64.3503 334.3ZM72.0803 324.29C72.0803 324.74 71.7403 325.12 71.2503 325.1L68.3703 325.07L68.5103 312.96L71.3903 312.99C71.6103 312.99 71.8103 313.08 71.9703 313.24C72.1203 313.4 72.2003 313.6 72.2003 313.82L72.0703 324.28L72.0803 324.29Z" fill="white"/>
<path d="M42.5798 327.8C39.3898 327.59 36.2098 326.61 33.4098 324.96L32.0098 327.35C35.1798 329.22 38.7698 330.32 42.3998 330.56C43.0898 330.61 43.7598 330.62 44.4198 330.6C49.6898 330.48 53.7998 328.56 55.8998 327.33L54.4998 324.94C52.4098 326.16 48.0998 328.15 42.5798 327.8Z" fill="white"/>
<path d="M51.0102 314.67C52.6802 314.67 54.0302 316.03 54.0302 317.69C54.0302 319.35 52.6702 320.71 51.0102 320.71C49.3502 320.71 47.9902 319.35 47.9902 317.69C47.9902 316.03 49.3502 314.67 51.0102 314.67ZM51.0102 311.67C47.6802 311.67 44.9902 314.37 44.9902 317.69C44.9902 321.01 47.6902 323.71 51.0102 323.71C54.3302 323.71 57.0302 321.01 57.0302 317.69C57.0302 314.37 54.3302 311.67 51.0102 311.67Z" fill="white"/>
<path d="M36.8901 314.67C38.5601 314.67 39.9101 316.03 39.9101 317.69C39.9101 319.35 38.5501 320.71 36.8901 320.71C35.2301 320.71 33.8701 319.35 33.8701 317.69C33.8701 316.03 35.2301 314.67 36.8901 314.67ZM36.8901 311.67C33.5601 311.67 30.8701 314.37 30.8701 317.69C30.8701 321.01 33.5701 323.71 36.8901 323.71C40.2101 323.71 42.9101 321.01 42.9101 317.69C42.9101 314.37 40.2101 311.67 36.8901 311.67Z" fill="white"/>
</svg>
