<svg width="450" height="450" viewBox="0 0 450 450" fill="none" xmlns="http://www.w3.org/2000/svg">
<path d="M450.43 0H0V450H450.43V0Z" fill="#FD1D1D"/>
<path d="M48.48 248.36L49.35 246.651C50.85 248.121 53.52 249.201 56.28 249.201C60.21 249.201 61.92 247.55 61.92 245.48C61.92 239.72 48.99 243.26 48.99 235.49C48.99 232.4 51.39 229.73 56.73 229.73C59.1 229.73 61.56 230.421 63.24 231.591L62.49 233.36C60.69 232.19 58.59 231.62 56.73 231.62C52.89 231.62 51.18 233.33 51.18 235.43C51.18 241.19 64.11 237.71 64.11 245.36C64.11 248.45 61.65 251.091 56.28 251.091C53.13 251.091 50.04 249.98 48.48 248.36Z" fill="white"/>
<path d="M68.0098 230.15C68.0098 229.34 68.6998 228.65 69.5698 228.65C70.4398 228.65 71.1298 229.31 71.1298 230.12C71.1298 230.99 70.4698 231.68 69.5698 231.68C68.6698 231.68 68.0098 230.99 68.0098 230.15ZM68.4898 235.13H70.6198V250.91H68.4898V235.13Z" fill="white"/>
<path d="M102.6 241.76V250.91H100.47V241.97C100.47 238.64 98.7901 236.93 95.9401 236.93C92.7001 236.93 90.6601 239.03 90.6601 242.63V250.91H88.5301V241.97C88.5301 238.64 86.8501 236.93 83.9701 236.93C80.7601 236.93 78.6901 239.03 78.6901 242.63V250.91H76.5601V235.13H78.6001V238.01C79.7101 236.12 81.7501 235.01 84.3901 235.01C87.0301 235.01 89.0401 236.12 90.0001 238.34C91.1401 236.3 93.3901 235.01 96.2401 235.01C100.08 235.01 102.6 237.23 102.6 241.76Z" fill="white"/>
<path d="M124.38 243.02C124.38 247.82 121.02 251.06 116.52 251.06C114 251.06 111.84 249.98 110.52 247.94V256.73H108.39V235.13H110.43V238.25C111.72 236.15 113.91 235.01 116.52 235.01C121.02 235.01 124.38 238.25 124.38 243.02ZM122.25 243.02C122.25 239.36 119.7 236.87 116.37 236.87C113.04 236.87 110.49 239.36 110.49 243.02C110.49 246.68 113.01 249.17 116.37 249.17C119.73 249.17 122.25 246.71 122.25 243.02Z" fill="white"/>
<path d="M128.73 228.65H130.86V250.91H128.73V228.65Z" fill="white"/>
<path d="M136.32 230.15C136.32 229.34 137.01 228.65 137.88 228.65C138.75 228.65 139.44 229.31 139.44 230.12C139.44 230.99 138.78 231.68 137.88 231.68C136.98 231.68 136.32 230.99 136.32 230.15ZM136.8 235.13H138.93V250.91H136.8V235.13Z" fill="white"/>
<path d="M147.3 233.27V235.13H152.16V236.93H147.36V250.91H145.23V236.93H142.41V235.13H145.23V233.18C145.23 230.36 146.91 228.5 150 228.5C151.17 228.5 152.37 228.83 153.15 229.49L152.43 231.08C151.83 230.57 150.99 230.3 150.09 230.3C148.26 230.3 147.3 231.32 147.3 233.27Z" fill="white"/>
<path d="M168.6 235.13L160.71 252.8C159.39 255.89 157.71 256.88 155.46 256.88C153.99 256.88 152.58 256.4 151.62 255.44L152.61 253.85C153.39 254.63 154.35 255.05 155.49 255.05C156.9 255.05 157.86 254.39 158.76 252.41L159.45 250.88L152.4 235.13H154.62L160.56 248.54L166.5 235.13H168.6Z" fill="white"/>
<path d="M192.72 235.13L184.83 252.8C183.51 255.89 181.83 256.88 179.58 256.88C178.11 256.88 176.7 256.4 175.74 255.44L176.73 253.85C177.51 254.63 178.47 255.05 179.61 255.05C181.02 255.05 181.98 254.39 182.88 252.41L183.57 250.88L176.52 235.13H178.74L184.68 248.54L190.62 235.13H192.72Z" fill="white"/>
<path d="M193.68 243.02C193.68 238.34 197.1 235.01 201.72 235.01C206.34 235.01 209.73 238.34 209.73 243.02C209.73 247.7 206.34 251.06 201.72 251.06C197.1 251.06 193.68 247.7 193.68 243.02ZM207.57 243.02C207.57 239.33 205.08 236.87 201.72 236.87C198.36 236.87 195.84 239.33 195.84 243.02C195.84 246.71 198.36 249.17 201.72 249.17C205.08 249.17 207.57 246.71 207.57 243.02Z" fill="white"/>
<path d="M228.3 235.13V250.91H226.26V248.03C225.15 249.95 223.11 251.06 220.59 251.06C216.57 251.06 213.93 248.81 213.93 244.28V235.13H216.06V244.07C216.06 247.43 217.8 249.14 220.8 249.14C224.1 249.14 226.17 247.01 226.17 243.41V235.13H228.3Z" fill="white"/>
<path d="M242.22 235.01V237.08C242.04 237.08 241.86 237.05 241.71 237.05C238.41 237.05 236.4 239.15 236.4 242.87V250.91H234.27V235.13H236.31V238.22C237.3 236.12 239.31 235.01 242.22 235.01Z" fill="white"/>
<path d="M252.57 243.02C252.57 238.31 255.99 235.01 260.7 235.01C263.37 235.01 265.62 236.06 266.88 238.13L265.29 239.21C264.21 237.62 262.53 236.87 260.7 236.87C257.25 236.87 254.73 239.33 254.73 243.02C254.73 246.71 257.25 249.17 260.7 249.17C262.53 249.17 264.21 248.45 265.29 246.86L266.88 247.94C265.62 249.98 263.37 251.06 260.7 251.06C255.99 251.06 252.57 247.73 252.57 243.02Z" fill="white"/>
<path d="M285.27 235.13V250.91H283.23V248.03C282.12 249.95 280.08 251.06 277.56 251.06C273.54 251.06 270.9 248.81 270.9 244.28V235.13H273.03V244.07C273.03 247.43 274.77 249.14 277.77 249.14C281.07 249.14 283.14 247.01 283.14 243.41V235.13H285.27Z" fill="white"/>
<path d="M289.05 249.11L290.01 247.43C291.27 248.42 293.4 249.2 295.62 249.2C298.62 249.2 299.85 248.18 299.85 246.62C299.85 242.51 289.62 245.75 289.62 239.51C289.62 236.93 291.84 235.01 295.86 235.01C297.9 235.01 300.12 235.58 301.44 236.48L300.51 238.19C299.13 237.23 297.48 236.84 295.86 236.84C293.01 236.84 291.75 237.95 291.75 239.45C291.75 243.71 301.98 240.5 301.98 246.56C301.98 249.29 299.58 251.06 295.47 251.06C292.86 251.06 290.34 250.22 289.05 249.11Z" fill="white"/>
<path d="M314.22 249.95C313.38 250.7 312.12 251.06 310.89 251.06C307.92 251.06 306.27 249.38 306.27 246.47V236.93H303.45V235.13H306.27V231.68H308.4V235.13H313.2V236.93H308.4V246.35C308.4 248.21 309.36 249.23 311.13 249.23C312 249.23 312.87 248.96 313.47 248.42L314.22 249.95Z" fill="white"/>
<path d="M315.93 243.02C315.93 238.34 319.35 235.01 323.97 235.01C328.59 235.01 331.98 238.34 331.98 243.02C331.98 247.7 328.59 251.06 323.97 251.06C319.35 251.06 315.93 247.7 315.93 243.02ZM329.82 243.02C329.82 239.33 327.33 236.87 323.97 236.87C320.61 236.87 318.09 239.33 318.09 243.02C318.09 246.71 320.61 249.17 323.97 249.17C327.33 249.17 329.82 246.71 329.82 243.02Z" fill="white"/>
<path d="M362.37 241.76V250.91H360.24V241.97C360.24 238.64 358.56 236.93 355.71 236.93C352.47 236.93 350.43 239.03 350.43 242.63V250.91H348.3V241.97C348.3 238.64 346.62 236.93 343.74 236.93C340.53 236.93 338.46 239.03 338.46 242.63V250.91H336.33V235.13H338.37V238.01C339.48 236.12 341.52 235.01 344.16 235.01C346.8 235.01 348.81 236.12 349.77 238.34C350.91 236.3 353.16 235.01 356.01 235.01C359.85 235.01 362.37 237.23 362.37 241.76Z" fill="white"/>
<path d="M381.96 243.68H368.76C369 246.98 371.52 249.17 374.97 249.17C376.89 249.17 378.6 248.48 379.8 247.1L381 248.48C379.59 250.16 377.4 251.06 374.91 251.06C369.99 251.06 366.63 247.7 366.63 243.02C366.63 238.34 369.9 235.01 374.34 235.01C378.78 235.01 381.99 238.28 381.99 243.02C381.99 243.2 381.96 243.44 381.96 243.68ZM368.76 242.09H379.95C379.68 239 377.43 236.84 374.34 236.84C371.25 236.84 369.03 239 368.76 242.09Z" fill="white"/>
<path d="M394.29 235.01V237.08C394.11 237.08 393.93 237.05 393.78 237.05C390.48 237.05 388.47 239.15 388.47 242.87V250.91H386.34V235.13H388.38V238.22C389.37 236.12 391.38 235.01 394.29 235.01Z" fill="white"/>
<path d="M49.5601 266.15C49.5601 265.34 50.2501 264.65 51.1201 264.65C51.9901 264.65 52.6801 265.31 52.6801 266.12C52.6801 266.99 52.0201 267.68 51.1201 267.68C50.2201 267.68 49.5601 266.99 49.5601 266.15ZM50.0401 271.13H52.1701V286.91H50.0401V271.13Z" fill="white"/>
<path d="M72.6299 277.76V286.91H70.4999V277.97C70.4999 274.64 68.7599 272.93 65.7599 272.93C62.3699 272.93 60.2399 275.03 60.2399 278.63V286.91H58.1099V271.13H60.1499V274.04C61.2899 272.12 63.4199 271.01 66.1499 271.01C69.9899 271.01 72.6299 273.23 72.6299 277.76Z" fill="white"/>
<path d="M86.73 285.95C85.89 286.7 84.63 287.06 83.4 287.06C80.43 287.06 78.78 285.38 78.78 282.47V272.93H75.96V271.13H78.78V267.68H80.91V271.13H85.71V272.93H80.91V282.35C80.91 284.21 81.87 285.23 83.64 285.23C84.51 285.23 85.38 284.96 85.98 284.42L86.73 285.95Z" fill="white"/>
<path d="M103.77 279.68H92.8401C93.0401 282.98 95.1201 285.17 97.9801 285.17C99.5701 285.17 100.98 284.48 101.98 283.1L102.97 284.48C101.8 286.16 99.9901 287.06 97.9301 287.06C93.8601 287.06 91.0801 283.7 91.0801 279.02C91.0801 274.34 93.7901 271.01 97.4601 271.01C101.13 271.01 103.79 274.28 103.79 279.02C103.79 279.2 103.76 279.44 103.76 279.68H103.77ZM92.8501 278.09H102.11C101.89 275 100.02 272.84 97.4701 272.84C94.9201 272.84 93.0801 275 92.8501 278.09Z" fill="white"/>
<path d="M116.1 271.01V273.08C115.92 273.08 115.74 273.05 115.59 273.05C112.29 273.05 110.28 275.15 110.28 278.87V286.91H108.15V271.13H110.19V274.22C111.18 272.12 113.19 271.01 116.1 271.01Z" fill="white"/>
<path d="M131.82 277.13V286.91H129.78V284.45C128.82 286.07 126.96 287.06 124.35 287.06C120.78 287.06 118.59 285.2 118.59 282.47C118.59 280.04 120.15 278 124.68 278H129.69V277.04C129.69 274.34 128.16 272.87 125.22 272.87C123.18 272.87 121.26 273.59 119.97 274.73L119.01 273.14C120.6 271.79 122.94 271.01 125.43 271.01C129.51 271.01 131.82 273.05 131.82 277.13ZM129.69 282.17V279.59H124.74C121.68 279.59 120.69 280.79 120.69 282.41C120.69 284.24 122.16 285.38 124.68 285.38C127.2 285.38 128.85 284.24 129.69 282.17Z" fill="white"/>
<path d="M136.08 279.02C136.08 274.31 139.5 271.01 144.21 271.01C146.88 271.01 149.13 272.06 150.39 274.13L148.8 275.21C147.72 273.62 146.04 272.87 144.21 272.87C140.76 272.87 138.24 275.33 138.24 279.02C138.24 282.71 140.76 285.17 144.21 285.17C146.04 285.17 147.72 284.45 148.8 282.86L150.39 283.94C149.13 285.98 146.88 287.06 144.21 287.06C139.5 287.06 136.08 283.73 136.08 279.02Z" fill="white"/>
<path d="M163.05 285.95C162.21 286.7 160.95 287.06 159.72 287.06C156.75 287.06 155.1 285.38 155.1 282.47V272.93H152.28V271.13H155.1V267.68H157.23V271.13H162.03V272.93H157.23V282.35C157.23 284.21 158.19 285.23 159.96 285.23C160.83 285.23 161.7 284.96 162.3 284.42L163.05 285.95Z" fill="white"/>
<path d="M166.44 266.15C166.44 265.34 167.13 264.65 168 264.65C168.87 264.65 169.56 265.31 169.56 266.12C169.56 266.99 168.9 267.68 168 267.68C167.1 267.68 166.44 266.99 166.44 266.15ZM166.92 271.13H169.05V286.91H166.92V271.13Z" fill="white"/>
<path d="M173.4 279.02C173.4 274.34 176.82 271.01 181.44 271.01C186.06 271.01 189.45 274.34 189.45 279.02C189.45 283.7 186.06 287.06 181.44 287.06C176.82 287.06 173.4 283.7 173.4 279.02ZM187.29 279.02C187.29 275.33 184.8 272.87 181.44 272.87C178.08 272.87 175.56 275.33 175.56 279.02C175.56 282.71 178.08 285.17 181.44 285.17C184.8 285.17 187.29 282.71 187.29 279.02Z" fill="white"/>
<path d="M208.32 277.76V286.91H206.19V277.97C206.19 274.64 204.45 272.93 201.45 272.93C198.06 272.93 195.93 275.03 195.93 278.63V286.91H193.8V271.13H195.84V274.04C196.98 272.12 199.11 271.01 201.84 271.01C205.68 271.01 208.32 273.23 208.32 277.76Z" fill="white"/>
<path d="M211.92 285.11L212.88 283.43C214.14 284.42 216.27 285.2 218.49 285.2C221.49 285.2 222.72 284.18 222.72 282.62C222.72 278.51 212.49 281.75 212.49 275.51C212.49 272.93 214.71 271.01 218.73 271.01C220.77 271.01 222.99 271.58 224.31 272.48L223.38 274.19C222 273.23 220.35 272.84 218.73 272.84C215.88 272.84 214.62 273.95 214.62 275.45C214.62 279.71 224.85 276.5 224.85 282.56C224.85 285.29 222.45 287.06 218.34 287.06C215.73 287.06 213.21 286.22 211.92 285.11Z" fill="white"/>
<path d="M235.05 279.02C235.05 274.34 238.47 271.01 243.09 271.01C247.71 271.01 251.1 274.34 251.1 279.02C251.1 283.7 247.71 287.06 243.09 287.06C238.47 287.06 235.05 283.7 235.05 279.02ZM248.94 279.02C248.94 275.33 246.45 272.87 243.09 272.87C239.73 272.87 237.21 275.33 237.21 279.02C237.21 282.71 239.73 285.17 243.09 285.17C246.45 285.17 248.94 282.71 248.94 279.02Z" fill="white"/>
<path d="M269.97 277.76V286.91H267.84V277.97C267.84 274.64 266.1 272.93 263.1 272.93C259.71 272.93 257.58 275.03 257.58 278.63V286.91H255.45V271.13H257.49V274.04C258.63 272.12 260.76 271.01 263.49 271.01C267.33 271.01 269.97 273.23 269.97 277.76Z" fill="white"/>
<path d="M50.4897 301.91H52.7097V322.91H50.4897V301.91Z" fill="white"/>
<path d="M73.6201 313.76V322.91H71.4901V313.97C71.4901 310.64 69.7501 308.93 66.7501 308.93C63.3601 308.93 61.2301 311.03 61.2301 314.63V322.91H59.1001V307.13H61.1401V310.04C62.2801 308.12 64.4101 307.01 67.1401 307.01C70.9801 307.01 73.6201 309.23 73.6201 313.76Z" fill="white"/>
<path d="M77.2202 321.11L78.1802 319.43C79.4402 320.42 81.5702 321.2 83.7902 321.2C86.7902 321.2 88.0202 320.18 88.0202 318.62C88.0202 314.51 77.7902 317.75 77.7902 311.51C77.7902 308.93 80.0102 307.01 84.0302 307.01C86.0702 307.01 88.2902 307.58 89.6102 308.48L88.6802 310.19C87.3002 309.23 85.6502 308.84 84.0302 308.84C81.1802 308.84 79.9202 309.95 79.9202 311.45C79.9202 315.71 90.1502 312.5 90.1502 318.56C90.1502 321.29 87.7502 323.06 83.6402 323.06C81.0302 323.06 78.5102 322.22 77.2202 321.11Z" fill="white"/>
<path d="M102.39 321.95C101.55 322.7 100.29 323.06 99.0601 323.06C96.0901 323.06 94.4401 321.38 94.4401 318.47V308.93H91.6201V307.13H94.4401V303.68H96.5701V307.13H101.37V308.93H96.5701V318.35C96.5701 320.21 97.5301 321.23 99.3001 321.23C100.17 321.23 101.04 320.96 101.64 320.42L102.39 321.95Z" fill="white"/>
<path d="M118.17 313.13V322.91H116.13V320.45C115.17 322.07 113.31 323.06 110.7 323.06C107.13 323.06 104.94 321.2 104.94 318.47C104.94 316.04 106.5 314 111.03 314H116.04V313.04C116.04 310.34 114.51 308.87 111.57 308.87C109.53 308.87 107.61 309.59 106.32 310.73L105.36 309.14C106.95 307.79 109.29 307.01 111.78 307.01C115.86 307.01 118.17 309.05 118.17 313.13ZM116.04 318.17V315.59H111.09C108.03 315.59 107.04 316.79 107.04 318.41C107.04 320.24 108.51 321.38 111.03 321.38C113.55 321.38 115.2 320.24 116.04 318.17Z" fill="white"/>
<path d="M138.63 307.13V320.99C138.63 326.42 135.96 328.88 130.74 328.88C127.86 328.88 125.04 328.01 123.39 326.45L124.47 324.83C125.97 326.18 128.25 326.99 130.68 326.99C134.67 326.99 136.5 325.16 136.5 321.26V319.25C135.18 321.26 132.93 322.31 130.35 322.31C125.85 322.31 122.43 319.16 122.43 314.63C122.43 310.1 125.85 307.01 130.35 307.01C132.99 307.01 135.27 308.09 136.59 310.16V307.13H138.63ZM136.56 314.63C136.56 311.21 134.04 308.87 130.56 308.87C127.08 308.87 124.59 311.21 124.59 314.63C124.59 318.05 127.08 320.42 130.56 320.42C134.04 320.42 136.56 318.05 136.56 314.63Z" fill="white"/>
<path d="M152.55 307.01V309.08C152.37 309.08 152.19 309.05 152.04 309.05C148.74 309.05 146.73 311.15 146.73 314.87V322.91H144.6V307.13H146.64V310.22C147.63 308.12 149.64 307.01 152.55 307.01Z" fill="white"/>
<path d="M168.27 313.13V322.91H166.23V320.45C165.27 322.07 163.41 323.06 160.8 323.06C157.23 323.06 155.04 321.2 155.04 318.47C155.04 316.04 156.6 314 161.13 314H166.14V313.04C166.14 310.34 164.61 308.87 161.67 308.87C159.63 308.87 157.71 309.59 156.42 310.73L155.46 309.14C157.05 307.79 159.39 307.01 161.88 307.01C165.96 307.01 168.27 309.05 168.27 313.13ZM166.14 318.17V315.59H161.19C158.13 315.59 157.14 316.79 157.14 318.41C157.14 320.24 158.61 321.38 161.13 321.38C163.65 321.38 165.3 320.24 166.14 318.17Z" fill="white"/>
<path d="M200.1 313.76V322.91H197.97V313.97C197.97 310.64 196.29 308.93 193.44 308.93C190.2 308.93 188.16 311.03 188.16 314.63V322.91H186.03V313.97C186.03 310.64 184.35 308.93 181.47 308.93C178.26 308.93 176.19 311.03 176.19 314.63V322.91H174.06V307.13H176.1V310.01C177.21 308.12 179.25 307.01 181.89 307.01C184.53 307.01 186.54 308.12 187.5 310.34C188.64 308.3 190.89 307.01 193.74 307.01C197.58 307.01 200.1 309.23 200.1 313.76Z" fill="white"/>
<path d="M49.76 342.07C49.76 342.61 49.37 342.99 48.88 342.99C48.34 342.99 47.98 342.58 47.98 342.07C47.98 341.8 48.03 341.59 48.2 341.1L48.91 338.75H49.73L49.15 341.2C49.52 341.32 49.76 341.64 49.76 342.07ZM52.65 342.07C52.65 342.61 52.26 342.99 51.77 342.99C51.23 342.99 50.87 342.58 50.87 342.07C50.87 341.8 50.92 341.59 51.09 341.1L51.8 338.75H52.62L52.04 341.2C52.41 341.32 52.65 341.64 52.65 342.07Z" fill="white"/>
<path d="M60.2101 350.821C59.7301 351.241 59.0201 351.451 58.3201 351.451C56.6401 351.451 55.7001 350.501 55.7001 348.851V343.441H54.1001V342.421H55.7001V340.471H56.9101V342.421H59.6301V343.441H56.9101V348.781C56.9101 349.831 57.4501 350.411 58.4601 350.411C58.9501 350.411 59.4501 350.261 59.7901 349.951L60.2201 350.821H60.2101Z" fill="white"/>
<path d="M66.9099 342.351V343.521C66.8099 343.521 66.6999 343.501 66.6199 343.501C64.7499 343.501 63.6099 344.691 63.6099 346.801V351.361H62.3999V342.421H63.5599V344.171C64.1199 342.981 65.2599 342.351 66.9099 342.351Z" fill="white"/>
<path d="M75.8198 345.82V351.36H74.6598V349.97C74.1198 350.89 73.0598 351.45 71.5798 351.45C69.5598 351.45 68.3198 350.4 68.3198 348.85C68.3198 347.47 69.1998 346.32 71.7698 346.32H74.6098V345.78C74.6098 344.25 73.7398 343.42 72.0798 343.42C70.9198 343.42 69.8398 343.83 69.1098 344.47L68.5698 343.57C69.4698 342.8 70.7998 342.36 72.2098 342.36C74.5198 342.36 75.8298 343.52 75.8298 345.83L75.8198 345.82ZM74.6098 348.68V347.22H71.8098C70.0798 347.22 69.5198 347.9 69.5198 348.82C69.5198 349.86 70.3498 350.5 71.7798 350.5C73.2098 350.5 74.1398 349.85 74.6198 348.68H74.6098Z" fill="white"/>
<path d="M78.23 346.891C78.23 344.221 80.17 342.351 82.84 342.351C84.35 342.351 85.63 342.941 86.34 344.121L85.44 344.731C84.83 343.831 83.88 343.401 82.84 343.401C80.88 343.401 79.46 344.791 79.46 346.881C79.46 348.971 80.89 350.361 82.84 350.361C83.88 350.361 84.83 349.951 85.44 349.051L86.34 349.661C85.63 350.821 84.35 351.431 82.84 351.431C80.17 351.431 78.23 349.541 78.23 346.871V346.891Z" fill="white"/>
<path d="M91.8801 346.88L89.7701 348.82V351.37H88.5601V338.76H89.7701V347.31L95.1101 342.43H96.6101L92.7801 346.09L96.9601 351.38H95.4801L91.8801 346.89V346.88Z" fill="white"/>
<path d="M111.02 347.271H103.54C103.68 349.141 105.1 350.381 107.06 350.381C108.15 350.381 109.12 349.991 109.8 349.211L110.48 349.991C109.68 350.941 108.44 351.451 107.03 351.451C104.24 351.451 102.34 349.551 102.34 346.891C102.34 344.231 104.19 342.351 106.71 342.351C109.23 342.351 111.04 344.201 111.04 346.891C111.04 346.991 111.02 347.131 111.02 347.261V347.271ZM103.54 346.371H109.88C109.73 344.621 108.45 343.391 106.7 343.391C104.95 343.391 103.69 344.611 103.54 346.371Z" fill="white"/>
<path d="M120.85 342.42L116.87 351.36H115.63L111.67 342.42H112.93L116.28 350.04L119.66 342.42H120.85Z" fill="white"/>
<path d="M130.08 347.271H122.6C122.74 349.141 124.16 350.381 126.12 350.381C127.21 350.381 128.18 349.991 128.86 349.211L129.54 349.991C128.74 350.941 127.5 351.451 126.09 351.451C123.3 351.451 121.4 349.551 121.4 346.891C121.4 344.231 123.25 342.351 125.77 342.351C128.29 342.351 130.1 344.201 130.1 346.891C130.1 346.991 130.08 347.131 130.08 347.261V347.271ZM122.6 346.371H128.94C128.79 344.621 127.51 343.391 125.76 343.391C124.01 343.391 122.75 344.611 122.6 346.371Z" fill="white"/>
<path d="M137.07 342.351V343.521C136.97 343.521 136.86 343.501 136.78 343.501C134.91 343.501 133.77 344.691 133.77 346.801V351.361H132.56V342.421H133.72V344.171C134.28 342.981 135.42 342.351 137.07 342.351Z" fill="white"/>
<path d="M147.15 342.42L142.68 352.43C141.93 354.18 140.98 354.74 139.71 354.74C138.88 354.74 138.08 354.47 137.53 353.92L138.09 353.02C138.53 353.46 139.08 353.7 139.72 353.7C140.52 353.7 141.06 353.33 141.57 352.2L141.96 351.33L137.96 342.41H139.22L142.59 350.01L145.96 342.41H147.15V342.42Z" fill="white"/>
<path d="M153.56 339.471H158.4C162.21 339.471 164.78 341.921 164.78 345.421C164.78 348.921 162.21 351.371 158.4 351.371H153.56V339.471ZM158.33 350.281C161.49 350.281 163.53 348.271 163.53 345.421C163.53 342.571 161.49 340.561 158.33 340.561H154.81V350.281H158.33Z" fill="white"/>
<path d="M179.96 339.471V351.371H178.75V341.851L174.08 349.861H173.49L168.82 341.901V351.371H167.61V339.471H168.65L173.82 348.291L178.94 339.471H179.98H179.96Z" fill="white"/>
<path d="M194.78 345.82V351.36H193.62V349.97C193.08 350.89 192.02 351.45 190.54 351.45C188.52 351.45 187.28 350.4 187.28 348.85C187.28 347.47 188.16 346.32 190.73 346.32H193.57V345.78C193.57 344.25 192.7 343.42 191.04 343.42C189.88 343.42 188.8 343.83 188.07 344.47L187.53 343.57C188.43 342.8 189.76 342.36 191.17 342.36C193.48 342.36 194.79 343.52 194.79 345.83L194.78 345.82ZM193.57 348.68V347.22H190.77C189.04 347.22 188.48 347.9 188.48 348.82C188.48 349.86 189.31 350.5 190.74 350.5C192.17 350.5 193.1 349.85 193.58 348.68H193.57Z" fill="white"/>
<path d="M206.29 346.18V351.36H205.08V346.29C205.08 344.4 204.09 343.43 202.39 343.43C200.47 343.43 199.26 344.62 199.26 346.66V351.35H198.05V342.41H199.21V344.06C199.86 342.97 201.06 342.34 202.61 342.34C204.79 342.34 206.28 343.6 206.28 346.16L206.29 346.18Z" fill="white"/>
<path d="M217.76 338.75V351.36H216.6V349.59C215.87 350.8 214.63 351.44 213.15 351.44C210.6 351.44 208.7 349.59 208.7 346.88C208.7 344.17 210.6 342.34 213.15 342.34C214.58 342.34 215.8 342.95 216.55 344.11V338.74H217.76V338.75ZM216.58 346.89C216.58 344.8 215.15 343.41 213.26 343.41C211.37 343.41 209.93 344.8 209.93 346.89C209.93 348.98 211.36 350.37 213.26 350.37C215.16 350.37 216.58 348.98 216.58 346.89Z" fill="white"/>
<path d="M224.68 346.891C224.68 344.221 226.62 342.351 229.29 342.351C230.8 342.351 232.08 342.941 232.79 344.121L231.89 344.731C231.28 343.831 230.33 343.401 229.29 343.401C227.33 343.401 225.91 344.791 225.91 346.881C225.91 348.971 227.34 350.361 229.29 350.361C230.33 350.361 231.28 349.951 231.89 349.051L232.79 349.661C232.08 350.821 230.8 351.431 229.29 351.431C226.62 351.431 224.68 349.541 224.68 346.871V346.891Z" fill="white"/>
<path d="M234.1 346.891C234.1 344.241 236.04 342.351 238.65 342.351C241.26 342.351 243.19 344.241 243.19 346.891C243.19 349.541 241.27 351.451 238.65 351.451C236.03 351.451 234.1 349.551 234.1 346.891ZM241.97 346.891C241.97 344.801 240.56 343.411 238.65 343.411C236.74 343.411 235.32 344.801 235.32 346.891C235.32 348.981 236.75 350.371 238.65 350.371C240.55 350.371 241.97 348.981 241.97 346.891Z" fill="white"/>
<path d="M260.42 346.18V351.36H259.21V346.29C259.21 344.4 258.26 343.43 256.64 343.43C254.81 343.43 253.65 344.62 253.65 346.66V351.35H252.44V346.28C252.44 344.39 251.49 343.42 249.86 343.42C248.04 343.42 246.87 344.61 246.87 346.65V351.34H245.66V342.4H246.82V344.03C247.45 342.96 248.61 342.33 250.1 342.33C251.59 342.33 252.73 342.96 253.28 344.22C253.93 343.06 255.2 342.33 256.82 342.33C259 342.33 260.42 343.59 260.42 346.15V346.18Z" fill="white"/>
<path d="M278.45 346.18V351.36H277.24V346.29C277.24 344.4 276.29 343.43 274.67 343.43C272.84 343.43 271.68 344.62 271.68 346.66V351.35H270.47V346.28C270.47 344.39 269.52 343.42 267.89 343.42C266.07 343.42 264.9 344.61 264.9 346.65V351.34H263.69V342.4H264.85V344.03C265.48 342.96 266.64 342.33 268.13 342.33C269.62 342.33 270.76 342.96 271.31 344.22C271.96 343.06 273.23 342.33 274.85 342.33C277.03 342.33 278.45 343.59 278.45 346.15V346.18Z" fill="white"/>
<path d="M289.56 347.271H282.08C282.22 349.141 283.64 350.381 285.6 350.381C286.69 350.381 287.66 349.991 288.34 349.211L289.02 349.991C288.22 350.941 286.98 351.451 285.57 351.451C282.78 351.451 280.88 349.551 280.88 346.891C280.88 344.231 282.73 342.351 285.25 342.351C287.77 342.351 289.58 344.201 289.58 346.891C289.58 346.991 289.56 347.131 289.56 347.261V347.271ZM282.08 346.371H288.42C288.27 344.621 286.99 343.391 285.24 343.391C283.49 343.391 282.23 344.611 282.08 346.371Z" fill="white"/>
<path d="M300.26 346.18V351.36H299.05V346.29C299.05 344.4 298.06 343.43 296.36 343.43C294.44 343.43 293.23 344.62 293.23 346.66V351.35H292.02V342.41H293.18V344.06C293.83 342.97 295.03 342.34 296.58 342.34C298.76 342.34 300.25 343.6 300.25 346.16L300.26 346.18Z" fill="white"/>
<path d="M308.26 350.821C307.78 351.241 307.07 351.451 306.37 351.451C304.69 351.451 303.75 350.501 303.75 348.851V343.441H302.15V342.421H303.75V340.471H304.96V342.421H307.68V343.441H304.96V348.781C304.96 349.831 305.5 350.411 306.51 350.411C307 350.411 307.5 350.261 307.84 349.951L308.27 350.821H308.26Z" fill="white"/>
<path d="M313.66 350.341L314.2 349.391C314.91 349.951 316.12 350.391 317.38 350.391C319.08 350.391 319.78 349.811 319.78 348.931C319.78 346.601 313.98 348.441 313.98 344.901C313.98 343.441 315.24 342.351 317.52 342.351C318.68 342.351 319.93 342.671 320.68 343.181L320.15 344.151C319.37 343.611 318.43 343.381 317.52 343.381C315.9 343.381 315.19 344.011 315.19 344.861C315.19 347.271 320.99 345.451 320.99 348.891C320.99 350.441 319.63 351.441 317.3 351.441C315.82 351.441 314.39 350.961 313.66 350.341Z" fill="white"/>
<path d="M331 347.271H323.52C323.66 349.141 325.08 350.381 327.04 350.381C328.13 350.381 329.1 349.991 329.78 349.211L330.46 349.991C329.66 350.941 328.42 351.451 327.01 351.451C324.22 351.451 322.32 349.551 322.32 346.891C322.32 344.231 324.17 342.351 326.69 342.351C329.21 342.351 331.02 344.201 331.02 346.891C331.02 346.991 331 347.131 331 347.261V347.271ZM323.52 346.371H329.86C329.71 344.621 328.43 343.391 326.68 343.391C324.93 343.391 323.67 344.611 323.52 346.371Z" fill="white"/>
<path d="M339.98 345.82V351.36H338.82V349.97C338.28 350.89 337.22 351.45 335.74 351.45C333.72 351.45 332.48 350.4 332.48 348.85C332.48 347.47 333.36 346.32 335.93 346.32H338.77V345.78C338.77 344.25 337.9 343.42 336.24 343.42C335.08 343.42 334 343.83 333.27 344.47L332.73 343.57C333.63 342.8 334.96 342.36 336.37 342.36C338.68 342.36 339.99 343.52 339.99 345.83L339.98 345.82ZM338.77 348.68V347.22H335.97C334.24 347.22 333.68 347.9 333.68 348.82C333.68 349.86 334.51 350.5 335.94 350.5C337.37 350.5 338.3 349.85 338.78 348.68H338.77Z" fill="white"/>
<path d="M358.01 346.18V351.36H356.8V346.29C356.8 344.4 355.85 343.43 354.23 343.43C352.4 343.43 351.24 344.62 351.24 346.66V351.35H350.03V346.28C350.03 344.39 349.08 343.42 347.45 343.42C345.63 343.42 344.46 344.61 344.46 346.65V351.34H343.25V342.4H344.41V344.03C345.04 342.96 346.2 342.33 347.69 342.33C349.18 342.33 350.32 342.96 350.87 344.22C351.52 343.06 352.79 342.33 354.41 342.33C356.59 342.33 358.01 343.59 358.01 346.15V346.18Z" fill="white"/>
<path d="M361.29 338.75H362.5V351.36H361.29V338.75Z" fill="white"/>
<path d="M373.65 347.271H366.17C366.31 349.141 367.73 350.381 369.69 350.381C370.78 350.381 371.75 349.991 372.43 349.211L373.11 349.991C372.31 350.941 371.07 351.451 369.66 351.451C366.87 351.451 364.97 349.551 364.97 346.891C364.97 344.231 366.82 342.351 369.34 342.351C371.86 342.351 373.67 344.201 373.67 346.891C373.67 346.991 373.65 347.131 373.65 347.261V347.271ZM366.17 346.371H372.51C372.36 344.621 371.08 343.391 369.33 343.391C367.58 343.391 366.32 344.611 366.17 346.371Z" fill="white"/>
<path d="M374.89 350.341L375.43 349.391C376.14 349.951 377.35 350.391 378.61 350.391C380.31 350.391 381.01 349.811 381.01 348.931C381.01 346.601 375.21 348.441 375.21 344.901C375.21 343.441 376.47 342.351 378.75 342.351C379.91 342.351 381.16 342.671 381.91 343.181L381.38 344.151C380.6 343.611 379.66 343.381 378.75 343.381C377.13 343.381 376.42 344.011 376.42 344.861C376.42 347.271 382.22 345.451 382.22 348.891C382.22 350.441 380.86 351.441 378.53 351.441C377.05 351.441 375.62 350.961 374.89 350.341Z" fill="white"/>
<path d="M383.21 350.341L383.75 349.391C384.46 349.951 385.67 350.391 386.93 350.391C388.63 350.391 389.33 349.811 389.33 348.931C389.33 346.601 383.53 348.441 383.53 344.901C383.53 343.441 384.79 342.351 387.07 342.351C388.23 342.351 389.48 342.671 390.23 343.181L389.7 344.151C388.92 343.611 387.98 343.381 387.07 343.381C385.45 343.381 384.74 344.011 384.74 344.861C384.74 347.271 390.54 345.451 390.54 348.891C390.54 350.441 389.18 351.441 386.85 351.441C385.37 351.441 383.94 350.961 383.21 350.341Z" fill="white"/>
<path d="M392.76 338.75H393.97V351.36H392.76V338.75Z" fill="white"/>
<path d="M404.85 342.42L400.38 352.43C399.63 354.18 398.68 354.74 397.41 354.74C396.58 354.74 395.78 354.47 395.23 353.92L395.79 353.02C396.23 353.46 396.78 353.7 397.42 353.7C398.22 353.7 398.76 353.33 399.27 352.2L399.66 351.33L395.67 342.41H396.93L400.3 350.01L403.67 342.41H404.86L404.85 342.42Z" fill="white"/>
<path d="M405.19 350.51C405.19 349.98 405.6 349.59 406.09 349.59C406.58 349.59 407.01 349.98 407.01 350.51C407.01 351.04 406.59 351.44 406.09 351.44C405.59 351.44 405.19 351.03 405.19 350.51Z" fill="white"/>
<path d="M408.13 339.471H409.2L409.11 343.961H408.21L408.13 339.471ZM411.04 339.471H412.11L412.03 343.961H411.13L411.05 339.471H411.04Z" fill="white"/>
<path d="M221.54 137.24C221.12 138.05 220.75 138.891 220.26 139.651C219.46 140.881 218.69 142.16 217.72 143.25C214.71 146.61 210.86 147.791 206.45 147.211C205.39 147.071 204.33 146.8 203.3 146.49C202.65 146.29 202.04 145.941 201.46 145.581C200.81 145.181 200.58 144.58 200.79 143.8C201.08 142.72 201.6 141.801 202.45 141.081C203.15 140.481 203.63 140.44 204.41 140.94C204.96 141.29 205.47 141.72 206.03 142.04C206.56 142.35 207.12 142.65 207.71 142.81C209.17 143.23 210.49 142.561 211.04 141.141C211.46 140.071 211.43 138.96 211.14 137.86C210.86 136.79 210.33 135.84 209.58 135.06C208.22 133.65 206.79 132.3 205.33 130.87C205.13 131.13 204.97 131.281 204.87 131.461C203.25 134.151 201.65 136.86 200.03 139.55C198.97 141.32 197.84 143.061 196.38 144.531C195.71 145.201 194.98 145.81 194.21 146.37C193.74 146.71 193.18 146.95 192.62 147.12C190.7 147.73 189.04 147.04 188.25 145.19C187.8 144.12 187.5 142.95 187.34 141.8C186.93 138.77 187.05 135.72 187.19 132.68C187.31 129.93 187.43 127.18 187.54 124.44C187.54 124.23 187.5 124.01 187.46 123.56C187.08 123.91 186.81 124.12 186.59 124.36C185.36 125.7 184.39 127.21 183.56 128.82C181.2 133.39 179.6 138.221 178.65 143.271C178.49 144.141 178.36 145.011 178.23 145.891C178.06 147.021 177.81 147.271 176.64 147.331C175.99 147.361 175.33 147.331 174.68 147.271C173.83 147.181 173.24 146.71 172.86 145.94C172.41 145.03 172.28 144.071 172.27 143.081C172.24 140.921 172.22 138.76 172.23 136.6C172.26 131.26 172.31 125.931 172.35 120.591C172.36 118.971 172.67 118.69 174.3 118.98C175.1 119.12 175.87 119.401 176.65 119.641C177.52 119.911 177.87 120.49 177.86 121.41C177.83 124.98 177.85 128.55 177.85 132.12V133.04C177.91 133.04 177.97 133.05 178.03 133.06C178.24 132.49 178.46 131.921 178.66 131.341C179.56 128.811 180.44 126.281 181.81 123.951C182.54 122.701 183.36 121.52 184.43 120.54C185.14 119.89 185.93 119.37 186.87 119.12C187.85 118.87 188.82 118.86 189.74 119.32C190.44 119.67 191.13 120.051 191.8 120.461C193.07 121.231 193.59 122.37 193.53 123.85C193.39 126.99 193.27 130.131 193.18 133.271C193.13 134.871 193.14 136.481 193.18 138.081C193.2 138.931 193.31 139.78 193.42 140.62C193.48 141.08 193.59 141.551 194.12 141.711C194.64 141.871 195.02 141.56 195.32 141.22C195.85 140.64 196.43 140.08 196.82 139.41C198.78 136.08 200.69 132.72 202.62 129.38C202.89 128.91 202.81 128.55 202.49 128.13C199.63 124.32 202.69 119.22 206.44 118.51C207.28 118.35 208.21 118.411 209.06 118.581C210.13 118.791 210.63 119.561 210.68 120.641C210.73 121.551 210.53 122.411 210.1 123.201C209.37 124.551 208.58 125.86 207.75 127.29C207.87 127.39 208.07 127.59 208.29 127.76C209.83 128.93 211.4 130.051 212.9 131.271C213.79 131.991 214.63 132.781 215.36 133.651C216.58 135.111 217.14 136.83 216.98 138.76C216.96 138.99 216.97 139.221 216.96 139.451C216.96 139.471 216.99 139.501 217.07 139.591C217.28 139.411 217.51 139.25 217.7 139.06C219.59 137.06 220.83 134.711 221.41 132.031C221.56 131.341 221.51 130.6 221.52 129.88C221.55 126.25 221.58 122.61 221.6 118.98C221.6 118.6 221.56 118.21 221.54 117.74C221.15 117.71 220.84 117.661 220.53 117.651C218.89 117.591 217.26 117.54 215.62 117.48C214.76 117.45 214.61 117.29 214.55 116.43C214.48 115.53 214.69 114.68 215.07 113.86C215.37 113.21 215.82 112.96 216.54 113.01C217.94 113.11 219.35 113.13 220.76 113.17C221.08 113.17 221.4 113.14 221.81 113.12C221.86 112.68 221.92 112.31 221.93 111.93C222.03 109.9 222.11 107.88 222.21 105.85C222.22 105.59 222.25 105.321 222.32 105.081C222.47 104.601 222.79 104.271 223.31 104.271C225.04 104.301 226.67 104.751 228.2 105.531C228.69 105.781 228.66 106.28 228.65 106.75C228.58 108.65 228.51 110.55 228.43 112.44C228.38 113.47 228.38 113.49 229.4 113.54C231.52 113.66 233.65 113.78 235.77 113.91C236.97 113.98 237.26 114.37 237.05 115.56C237.04 115.62 237.02 115.69 237.01 115.75C236.66 117.54 236.37 117.78 234.52 117.8C232.78 117.82 231.05 117.83 229.31 117.85C229.02 117.85 228.73 117.881 228.31 117.901C228.26 118.461 228.18 119 228.16 119.54C228.04 123.24 227.9 126.94 227.83 130.63C227.79 133.12 227.82 135.611 227.93 138.091C227.98 139.121 228.22 140.17 228.53 141.16C229.23 143.36 230.74 143.71 232.3 141.98C234.26 139.81 235.46 137.261 235.59 134.281C235.7 131.691 235.95 129.12 236.74 126.63C237.36 124.68 238.23 122.85 239.57 121.29C240.71 119.97 242.07 118.96 243.81 118.62C246.26 118.14 248.33 118.91 250.05 120.68C250.27 120.91 250.48 121.161 250.8 121.531C250.84 121.201 250.86 121 250.89 120.8C251.01 119.95 251.43 119.491 252.3 119.451C253.63 119.401 254.9 119.69 256.07 120.35C256.64 120.67 256.84 121.201 256.82 121.841C256.77 123.051 256.72 124.26 256.7 125.47C256.65 129.63 256.58 133.78 256.61 137.94C256.61 139.17 256.91 140.4 257.13 141.62C257.21 142.06 257.4 142.501 257.63 142.891C258.4 144.181 259.84 144.331 260.83 143.211C261.86 142.051 262.5 140.7 262.51 139.12C262.51 138.34 262.45 137.551 262.39 136.771C262.04 132.241 262.63 127.891 264.67 123.781C265.3 122.511 266.08 121.34 267.13 120.38C270.12 117.65 274.21 117.831 276.93 120.831C277.1 121.021 277.28 121.21 277.49 121.44C277.56 121.31 277.62 121.24 277.63 121.16C277.79 119.79 278.25 119.371 279.6 119.451C280.65 119.511 281.67 119.76 282.63 120.19C283.28 120.48 283.57 120.931 283.55 121.651C283.48 123.881 283.43 126.101 283.41 128.331C283.37 132.031 283.36 135.73 283.34 139.43C283.34 139.55 283.37 139.671 283.4 139.901C283.56 139.751 283.67 139.69 283.73 139.6C286.35 135.76 288.43 131.66 289.72 127.19C289.78 126.97 289.82 126.741 289.9 126.531C290.07 126.071 289.96 125.721 289.6 125.391C287.83 123.771 287.97 121.4 289.13 119.56C290.07 118.06 291.88 117.39 293.59 117.86C294.58 118.13 295.25 118.94 295.31 120.01C295.35 120.69 295.31 121.37 295.31 122.12C295.46 122.12 295.68 122.15 295.89 122.12C297.4 121.84 298.91 121.531 300.42 121.281C301.03 121.181 301.66 121.121 302.27 121.151C304.16 121.241 305.27 122.561 305 124.451C304.86 125.421 304.62 126.381 304.4 127.331C303.81 129.951 303.32 132.591 303.25 135.281C303.2 137.061 303.29 138.82 303.76 140.54C303.97 141.32 304.28 142.111 304.72 142.771C305.65 144.191 307.15 144.231 308.25 142.951C309.39 141.631 309.76 140.08 309.52 138.37C309.06 135.07 309.06 131.78 309.8 128.51C310.24 126.58 310.83 124.701 311.88 123.031C312.5 122.041 313.22 121.071 314.06 120.271C316.9 117.551 321.02 117.74 323.7 120.63C323.9 120.84 324.09 121.061 324.38 121.391C324.44 121.031 324.47 120.8 324.52 120.56C324.64 119.85 324.98 119.48 325.66 119.42C327.1 119.3 328.46 119.63 329.71 120.35C330.26 120.66 330.42 121.191 330.41 121.771C330.39 122.621 330.33 123.47 330.32 124.32C330.25 128.41 330.13 132.5 330.15 136.6C330.15 138.19 330.43 139.79 330.63 141.38C330.69 141.85 330.89 142.33 331.12 142.76C331.76 143.96 333.06 144.221 334.09 143.341C334.51 142.991 334.88 142.54 335.15 142.07C336.42 139.88 337.13 137.54 337.12 134.97C337.1 130.35 337.17 125.74 337.2 121.12C337.2 120.7 337.23 120.27 337.3 119.85C337.4 119.25 337.62 119.04 338.2 119.01C339.64 118.93 340.99 119.33 342.3 119.85C342.55 119.95 342.75 120.32 342.84 120.6C342.95 120.93 342.93 121.31 342.93 121.67C342.93 124.09 342.93 126.52 342.93 128.94C342.93 129.25 342.96 129.55 343.16 129.88C343.26 129.62 343.36 129.36 343.46 129.1C344.23 126.91 344.97 124.711 345.77 122.531C346.06 121.731 346.43 120.96 346.84 120.22C347.49 119.06 348.25 118.72 349.54 118.98C350.18 119.11 350.81 119.3 351.41 119.55C352.99 120.21 353.78 121.421 353.81 123.151C353.87 125.801 353.94 128.45 354.05 131.1C354.1 132.17 354.26 133.24 354.37 134.31C354.44 134.31 354.51 134.31 354.57 134.32C354.71 133.68 354.85 133.041 354.98 132.401C355.78 128.401 357.05 124.56 358.61 120.81C359.31 119.13 360.32 118.651 362.06 119.211C362.99 119.511 363.9 119.89 364.78 120.32C365.98 120.91 366.49 121.901 366.45 123.281C366.34 127.471 366.27 131.66 366.25 135.85C366.25 137.65 366.41 139.45 367 141.18C367.21 141.79 367.48 142.41 367.87 142.92C368.68 143.99 369.93 143.96 370.65 142.85C371.1 142.15 371.41 141.331 371.68 140.531C371.96 139.731 372.09 138.88 372.33 138.06C372.58 137.19 372.91 136.88 373.46 136.91C374.02 136.94 374.43 137.41 374.42 138.3C374.41 139.21 374.25 140.121 374.09 141.021C373.85 142.351 373.41 143.621 372.7 144.781C371.12 147.381 368.35 148.16 365.65 146.76C364.04 145.92 362.96 144.6 362.27 142.94C361.54 141.16 361.2 139.281 361.12 137.391C360.98 133.961 360.98 130.521 360.92 127.081C360.92 126.791 360.92 126.491 360.92 126.201C360.92 126.161 360.85 126.11 360.76 126.01C360.62 126.28 360.47 126.521 360.36 126.771C358.3 131.461 357.09 136.361 356.62 141.451C356.55 142.201 356.58 142.961 356.54 143.711C356.49 144.581 356.25 144.841 355.41 145.081C353.17 145.691 351.26 144.671 350.52 142.461C349.93 140.681 349.69 138.821 349.55 136.961C349.29 133.661 349.13 130.36 348.91 127.06C348.89 126.75 348.82 126.451 348.77 126.141C348.7 126.121 348.62 126.09 348.55 126.07C348.35 126.33 348.09 126.57 347.94 126.87C346.27 130.13 345.05 133.55 344.62 137.19C344.31 139.85 344.23 142.54 344.05 145.22C344.03 145.51 344.03 145.81 343.99 146.1C343.91 146.68 343.62 147.06 343.02 147.18C341.44 147.5 339.9 147.451 338.39 146.841C337.74 146.571 337.41 146.12 337.36 145.43C337.31 144.76 337.23 144.091 337.14 143.201C336.94 143.491 336.87 143.58 336.81 143.69C336.65 143.97 336.5 144.27 336.33 144.55C333.99 148.34 328.87 148.29 326.6 144.42C326.17 143.7 325.9 142.881 325.52 142.021C325.36 142.211 325.21 142.401 325.06 142.581C324.31 143.481 323.65 144.5 322.78 145.26C320.78 147.02 318.42 147.75 315.76 147.18C314.04 146.81 312.75 145.8 311.72 144.42C311.45 144.05 311.2 143.67 310.89 143.23C310.58 143.7 310.3 144.13 310.01 144.55C309.14 145.8 308.04 146.731 306.55 147.151C305.2 147.531 303.89 147.401 302.64 146.771C300.58 145.731 299.17 144.11 298.43 141.94C297.52 139.3 297.37 136.56 297.55 133.79C297.71 131.37 298.08 128.98 298.62 126.61C298.83 125.7 298.71 125.58 297.78 125.6C296.93 125.62 296.08 125.66 295.23 125.68C294.25 125.7 294.24 125.69 293.91 126.61C292.36 130.91 290.34 134.981 287.79 138.771C286.62 140.511 285.34 142.17 284.05 143.82C283.62 144.38 283.43 144.93 283.44 145.62C283.47 148.4 283.52 151.19 283.47 153.97C283.42 156.57 283.03 159.12 282.11 161.57C281.17 164.09 279.67 166.15 277.13 167.23C274.08 168.53 271.14 168.401 268.39 166.401C266.45 165.001 265.76 163.04 265.91 160.74C266 159.23 266.49 157.83 267.38 156.63C268.4 155.24 269.48 153.86 270.69 152.63C272.67 150.63 274.7 148.67 276.87 146.88C278.14 145.83 278.07 144.66 277.95 143.11C277.57 143.54 277.32 143.83 277.08 144.11C275.76 145.63 274.21 146.78 272.19 147.19C269.21 147.8 266.76 146.94 264.91 144.49C264.56 144.03 264.25 143.531 263.86 142.961C263.68 143.221 263.54 143.43 263.41 143.63C263.14 144.04 262.9 144.47 262.61 144.86C261.31 146.63 259.58 147.531 257.35 147.271C255 147.001 253.35 145.77 252.45 143.56C252.26 143.08 252.1 142.59 251.87 141.93C251.59 142.32 251.37 142.62 251.16 142.93C249.85 144.86 248.2 146.32 245.91 146.99C242.78 147.9 239.81 146.901 237.98 144.211C237.44 143.411 237.08 142.481 236.66 141.591C236.47 141.191 236.34 140.75 236.1 140.12C235.85 140.65 235.69 140.98 235.54 141.32C234.82 142.92 233.84 144.34 232.62 145.6C229.7 148.6 226.18 147.27 224.49 145.32C223.3 143.95 222.66 142.311 222.23 140.581C222.02 139.721 221.91 138.84 221.76 137.98C221.72 137.76 221.67 137.541 221.63 137.331C221.57 137.331 221.51 137.33 221.46 137.32L221.54 137.24ZM324.63 131.29C324.58 130.49 324.54 129.381 324.43 128.271C324.32 127.131 324.03 126.02 323.5 124.99C322.26 122.58 319.68 122.25 317.87 124.26C317.16 125.06 316.74 126.01 316.41 127.01C315.76 128.95 315.61 130.98 315.48 133C315.33 135.36 315.43 137.71 316 140.01C316.24 141.01 316.65 141.931 317.33 142.711C318.25 143.781 319.48 143.98 320.67 143.23C321.08 142.97 321.45 142.64 321.79 142.29C322.61 141.42 323.1 140.35 323.48 139.22C324.33 136.75 324.57 134.181 324.64 131.281L324.63 131.29ZM250.94 131.56C250.94 130.58 251 129.6 250.93 128.62C250.84 127.34 250.55 126.101 249.92 124.961C248.64 122.651 246.05 122.37 244.32 124.36C243.55 125.24 243.09 126.291 242.78 127.391C241.72 131.201 241.59 135.061 242.19 138.951C242.37 140.121 242.73 141.24 243.4 142.24C244.56 143.98 246.26 144.19 247.79 142.76C248.12 142.45 248.46 142.11 248.67 141.72C249.15 140.84 249.65 139.94 249.98 139C250.81 136.6 251.05 134.09 250.95 131.57L250.94 131.56ZM277.67 131.41C277.67 130.53 277.71 129.64 277.67 128.76C277.59 127.45 277.37 126.161 276.8 124.961C276.27 123.851 275.43 123.111 274.17 123.021C273.13 122.941 272.26 123.38 271.53 124.1C270.61 124.99 270.05 126.09 269.68 127.29C268.42 131.4 268.19 135.581 269.1 139.781C269.29 140.661 269.67 141.53 270.14 142.3C271.17 143.96 272.8 144.16 274.31 142.93C275.25 142.16 275.86 141.17 276.29 140.06C277.36 137.28 277.82 134.39 277.68 131.41H277.67ZM278.45 150.11C278.17 150.33 278.04 150.411 277.93 150.521C276.74 151.781 275.52 153.02 274.37 154.31C273.17 155.66 272.15 157.14 271.32 158.75C270.7 159.97 270.32 161.24 270.42 162.62C270.57 164.63 272.44 165.881 274.36 165.271C275.51 164.901 276.38 164.201 276.87 163.081C277.12 162.511 277.33 161.921 277.49 161.331C278.49 157.721 278.42 154.02 278.45 150.11Z" fill="white"/>
<path d="M160.47 108.07C160.14 108.33 159.83 108.54 159.56 108.8C157.79 110.49 156.71 112.62 155.86 114.86C154.72 117.88 154.31 121 154.85 124.21C155.07 125.52 155.57 126.72 156.29 127.83C156.52 128.18 156.73 128.57 156.82 128.97C156.97 129.6 156.6 130.03 155.96 129.95C155.42 129.88 154.87 129.71 154.38 129.47C151.02 127.87 148.97 124.39 149.31 120.68C149.69 116.59 151.33 112.99 153.91 109.82C155.5 107.87 157.43 106.33 159.57 105.01C161.96 103.54 164.32 104.2 166.27 105.54C166.74 105.86 166.91 106.36 166.93 106.91C166.95 107.63 166.92 108.35 166.92 109.07C166.93 115.75 166.96 122.42 166.95 129.1C166.95 132.96 166.91 136.82 166.85 140.68C166.81 142.82 166.46 144.91 165.65 146.91C164.75 149.13 163.39 150.97 161.24 152.12C160.84 152.33 160.4 152.5 159.96 152.57C159.3 152.68 159.05 152.4 159.12 151.74C159.15 151.45 159.21 151.15 159.3 150.88C160.31 147.97 160.6 144.95 160.59 141.89C160.59 137.64 160.61 133.38 160.63 129.13C160.66 122.68 160.71 116.24 160.74 109.79C160.74 109.26 160.88 108.68 160.47 108.08V108.07Z" fill="white"/>
<path d="M48.4498 135.59C48.4498 129.01 48.4398 122.43 48.4498 115.85C48.4598 111.09 49.8398 106.74 52.6998 102.93C56.6098 97.6997 61.8298 94.7097 68.3498 94.0497C69.1898 93.9697 70.0498 93.9297 70.8998 93.9297C83.7998 93.9297 96.6998 93.9297 109.6 93.9297C120.41 93.9297 129.47 101.45 131.4 112.07C131.63 113.35 131.72 114.67 131.72 115.98C131.74 129.04 131.7 142.11 131.75 155.17C131.79 165.64 124.43 174.58 114.51 176.71C112.99 177.04 111.4 177.21 109.84 177.22C96.6798 177.26 83.5198 177.26 70.3498 177.24C59.7598 177.22 50.7398 169.69 48.8198 159.27C48.5698 157.93 48.4798 156.54 48.4698 155.17C48.4298 148.65 48.4498 142.14 48.4498 135.62V135.59ZM90.0798 170.94C96.6598 170.94 103.24 171.01 109.83 170.92C116.45 170.84 121.2 167.65 124.12 161.75C125.24 159.48 125.55 157.03 125.54 154.5C125.51 141.99 125.54 129.48 125.52 116.97C125.52 115.83 125.5 114.67 125.32 113.54C124.1 105.73 117.58 100.17 109.64 100.16C96.6098 100.15 83.5698 100.15 70.5398 100.16C69.4998 100.16 68.4398 100.25 67.4198 100.45C59.8698 101.98 54.6898 108.34 54.6798 116.09C54.6698 129.06 54.6798 142.03 54.6798 154.99C54.6798 155.9 54.7398 156.83 54.8898 157.73C56.2998 166.1 63.5398 171.02 70.4198 170.93C76.9698 170.85 83.5198 170.91 90.0698 170.91L90.0798 170.94Z" fill="white"/>
<path d="M111.52 135.65C111.49 147.73 101.72 157.44 89.4299 157.11C77.4499 156.79 68.2699 146.81 68.5999 134.98C68.9199 123.61 78.4199 114.01 90.5199 114.19C102.16 114.36 111.7 124.14 111.52 135.65ZM76.3599 135.54C76.3399 143.28 82.3599 149.37 90.0599 149.39C97.6699 149.41 103.85 143.3 103.87 135.72C103.89 128.06 97.8299 121.9 90.2499 121.87C82.4999 121.85 76.3799 127.87 76.3599 135.54Z" fill="white"/>
<path d="M112.34 108.39C115.15 108.39 117.39 110.63 117.4 113.42C117.4 116.22 115.08 118.6 112.33 118.6C109.6 118.6 107.2 116.2 107.19 113.45C107.19 110.65 109.5 108.38 112.34 108.39Z" fill="white"/>
</svg>
