<?xml version="1.0" encoding="UTF-8"?>
<svg xmlns="http://www.w3.org/2000/svg" version="1.1" viewBox="0 0 450 900">
  <defs>
    <style>
      .cls-1 {
        fill: #292828;
      }

      .cls-2 {
        stroke: #ff5252;
      }

      .cls-2, .cls-3, .cls-4 {
        fill: none;
        stroke-width: 1.9px;
      }

      .cls-5 {
        fill: #42c684;
      }

      .cls-6 {
        fill: #fff;
      }

      .cls-7 {
        fill: #f15767;
      }

      .cls-8 {
        fill: #ff5252;
      }

      .cls-3 {
        stroke: #fff;
      }

      .cls-4 {
        stroke: #d7df22;
      }

      .cls-9 {
        fill: #51c387;
      }

      .cls-10 {
        fill: #f9f5f1;
      }

      .cls-11 {
        fill: #52c4d4;
      }

      .cls-12 {
        fill: #d7df22;
      }
    </style>
  </defs>
  <!-- Generator: Adobe Illustrator 28.7.1, SVG Export Plug-In . SVG Version: 1.2.0 Build 142)  -->
  <g>
    <g id="Layer_1">
      <rect class="cls-7" x="-.2" y="450" width="450.4" height="450"/>
      <g>
        <rect class="cls-8" x="360.1" width="90.1" height="90.1"/>
        <rect class="cls-12" x="270" width="90.1" height="180.2"/>
        <rect class="cls-5" x="180" width="90.1" height="90.1"/>
        <rect class="cls-11" x="89.9" width="90.1" height="90.1"/>
        <rect class="cls-1" x="-.2" width="90.1" height="90.1"/>
        <rect class="cls-10" x="360.1" y="90.1" width="90.1" height="90.1"/>
        <rect class="cls-11" x="180" y="90.1" width="90.1" height="90.1"/>
        <rect class="cls-8" x="89.9" y="90.1" width="90.1" height="90.1"/>
        <rect class="cls-12" x="-.2" y="90.1" width="90.1" height="90.1"/>
        <rect class="cls-11" x="360.1" y="180.2" width="90.1" height="90.1"/>
        <rect class="cls-8" x="270" y="180.2" width="90.1" height="90.1"/>
        <rect class="cls-12" x="180" y="180.2" width="90.1" height="90.1"/>
        <rect class="cls-1" x="89.9" y="180.2" width="90.1" height="90.1"/>
        <rect class="cls-10" x="-.2" y="180.2" width="90.1" height="90.1"/>
        <rect class="cls-5" x="360.1" y="270" width="90.1" height="90.1"/>
        <rect class="cls-10" x="270" y="270" width="90.1" height="90.1"/>
        <rect class="cls-1" x="180" y="270" width="90.1" height="90.1"/>
        <rect class="cls-11" x="89.9" y="270" width="90.1" height="90.1"/>
        <rect class="cls-5" x="-.2" y="270" width="90.1" height="90.1"/>
        <rect class="cls-1" x="360.1" y="359.9" width="90.1" height="90.1"/>
        <rect class="cls-12" x="270" y="359.9" width="90.1" height="90.1"/>
        <rect class="cls-9" x="180" y="359.9" width="90.1" height="90.1"/>
        <rect class="cls-12" x="89.9" y="359.9" width="90.1" height="90.1"/>
        <rect class="cls-11" x="-.2" y="359.9" width="90.1" height="90.1"/>
        <polygon class="cls-3" points="225.4 157.1 194.3 157.1 225.4 114.9 256.5 157.1 225.4 157.1"/>
        <g>
          <path class="cls-3" d="M425.1,45.5h0c0,17.6-20.2,27.5-34.2,16.8h0c-11-8.5-11-25,0-33.5h0c13.9-10.8,34.2-.9,34.2,16.8h0Z"/>
          <rect class="cls-3" x="382.7" y="24.3" width="42.4" height="42.4" transform="translate(657.3 363.3) rotate(-135)"/>
        </g>
        <g>
          <rect class="cls-2" x="293.4" y="293.8" width="43.7" height="43.7" rx=".7" ry=".7" transform="translate(314.9 761.8) rotate(-135)"/>
          <path class="cls-2" d="M315.7,297.3l29.2,17.6c.6.3.6,1.2,0,1.5l-29.2,18.2c-.3.2-.7.2-.9,0l-29.2-18.2c-.6-.4-.6-1.2,0-1.5l29.2-17.6c.3-.2.6-.2.9,0Z"/>
          <path class="cls-2" d="M315.4,307.2l27.6,7.6c.9.2.9,1.5,0,1.7l-27.6,7.8c-.2,0-.3,0-.5,0l-27.6-7.8c-.9-.2-.9-1.5,0-1.7l27.6-7.6c.2,0,.3,0,.5,0Z"/>
        </g>
        <g>
          <polygon class="cls-3" points="56.5 136 56.5 167.1 17.5 136 56.5 104.9 56.5 136"/>
          <circle class="cls-3" cx="55.1" cy="136" r="14.9"/>
        </g>
        <g>
          <polygon class="cls-3" points="416.7 315.7 416.7 346.8 377.6 315.7 416.7 284.6 416.7 315.7"/>
          <circle class="cls-3" cx="415.2" cy="315.7" r="14.9"/>
        </g>
        <g>
          <g>
            <path class="cls-3" d="M252.1,377.5c-15.7,0-28.4,12.7-28.4,28.4s12.7,28.4,28.4,28.4v-56.8Z"/>
            <path class="cls-3" d="M223.7,377.5c15.7,0,28.4,12.7,28.4,28.4s-12.7,28.4-28.4,28.4v-56.8Z"/>
          </g>
          <circle class="cls-3" cx="237.9" cy="405.9" r="7.3"/>
          <g>
            <line class="cls-3" x1="215.1" y1="406.5" x2="198.7" y2="406.5"/>
            <line class="cls-3" x1="214.7" y1="397.8" x2="202.4" y2="385.5"/>
            <line class="cls-3" x1="214.7" y1="414" x2="202.4" y2="426.3"/>
          </g>
        </g>
        <g>
          <g>
            <path class="cls-3" d="M430.6,197.2c-15.7,0-28.4,12.7-28.4,28.4s12.7,28.4,28.4,28.4v-56.8Z"/>
            <path class="cls-3" d="M402.2,197.2c15.7,0,28.4,12.7,28.4,28.4s-12.7,28.4-28.4,28.4v-56.8Z"/>
          </g>
          <circle class="cls-3" cx="416.4" cy="225.6" r="7.3"/>
          <g>
            <line class="cls-3" x1="393.6" y1="226.1" x2="377.2" y2="226.1"/>
            <line class="cls-3" x1="393.2" y1="217.5" x2="380.9" y2="205.2"/>
            <line class="cls-3" x1="393.2" y1="233.6" x2="380.9" y2="246"/>
          </g>
        </g>
        <g>
          <polygon class="cls-4" points="248.1 45.5 248.1 76.8 202.4 45.5 248.1 14.2 248.1 45.5"/>
          <circle class="cls-4" cx="233.4" cy="45.5" r="15"/>
          <line class="cls-4" x1="248.1" y1="14.2" x2="239.1" y2="31.7"/>
          <line class="cls-4" x1="218.4" y1="45.5" x2="202.4" y2="45.5"/>
          <line class="cls-4" x1="238.6" y1="59.5" x2="248.1" y2="75.6"/>
        </g>
        <g>
          <polygon class="cls-2" points="338 405.9 338 437.2 292.3 405.9 338 374.6 338 405.9"/>
          <circle class="cls-2" cx="323.2" cy="405.9" r="15"/>
          <line class="cls-2" x1="338" y1="374.6" x2="328.9" y2="392.1"/>
          <line class="cls-2" x1="308.2" y1="405.9" x2="292.3" y2="405.9"/>
          <line class="cls-2" x1="328.4" y1="419.9" x2="338" y2="436"/>
        </g>
        <g>
          <rect class="cls-3" x="290.8" y="111.6" width="48.9" height="48.9" transform="translate(179.2 451.2) rotate(-90)"/>
          <rect class="cls-3" x="297.9" y="118.7" width="34.5" height="34.5" transform="translate(441.9 455) rotate(-135)"/>
          <rect class="cls-3" x="303" y="123.8" width="24.4" height="24.4" transform="translate(179.2 451.2) rotate(-90)"/>
        </g>
        <g>
          <rect class="cls-3" x="19.3" y="381.5" width="48.9" height="48.9" transform="translate(-362.2 449.6) rotate(-90)"/>
          <rect class="cls-3" x="26.5" y="388.6" width="34.5" height="34.5" transform="translate(-212.3 723.8) rotate(-135)"/>
          <rect class="cls-3" x="31.5" y="393.7" width="24.4" height="24.4" transform="translate(-362.2 449.6) rotate(-90)"/>
        </g>
        <g>
          <circle class="cls-3" cx="315.2" cy="45.5" r="22.9"/>
          <path class="cls-3" d="M303.9,25.9c-.2-7.1.9-11.8,3.3-12.4,4.4-1.1,11.6,12.3,16,30,4.4,17.7,4.4,32.9,0,34-2.3.6-5.3-2.8-8.3-8.5"/>
        </g>
        <g>
          <circle class="cls-4" cx="403.9" cy="405.9" r="22.9"/>
          <path class="cls-4" d="M392.6,386.3c-.2-7.1.9-11.8,3.3-12.4,4.4-1.1,11.6,12.3,16,30,4.4,17.7,4.4,32.9,0,34-2.3.6-5.3-2.8-8.3-8.5"/>
        </g>
        <g>
          <circle class="cls-2" cx="43.7" cy="225.6" r="22.9"/>
          <path class="cls-2" d="M32.4,206c-.2-7.1.9-11.8,3.3-12.4,4.4-1.1,11.6,12.3,16,30,4.4,17.7,4.4,32.9,0,34-2.3.6-5.3-2.8-8.3-8.5"/>
        </g>
        <g>
          <line class="cls-4" x1="385.4" y1="117.5" x2="396.7" y2="128.8"/>
          <line class="cls-4" x1="403.9" y1="109.9" x2="403.9" y2="125.9"/>
          <line class="cls-4" x1="422.3" y1="117.5" x2="411" y2="128.8"/>
          <line class="cls-4" x1="430" y1="136" x2="414" y2="136"/>
          <line class="cls-4" x1="411" y1="143.2" x2="422.3" y2="154.5"/>
          <line class="cls-4" x1="403.9" y1="146.1" x2="403.9" y2="162.1"/>
          <line class="cls-4" x1="396.7" y1="143.2" x2="385.4" y2="154.5"/>
          <line class="cls-4" x1="393.7" y1="136" x2="377.8" y2="136"/>
        </g>
        <g>
          <line class="cls-4" x1="115.7" y1="297.2" x2="126.9" y2="308.5"/>
          <line class="cls-4" x1="134.1" y1="289.6" x2="134.1" y2="305.5"/>
          <line class="cls-4" x1="152.6" y1="297.2" x2="141.3" y2="308.5"/>
          <line class="cls-4" x1="160.2" y1="315.7" x2="144.3" y2="315.7"/>
          <line class="cls-4" x1="141.3" y1="322.8" x2="152.6" y2="334.1"/>
          <line class="cls-4" x1="134.1" y1="325.8" x2="134.1" y2="341.8"/>
          <line class="cls-4" x1="126.9" y1="322.8" x2="115.7" y2="334.1"/>
          <line class="cls-4" x1="124" y1="315.7" x2="108" y2="315.7"/>
        </g>
        <g>
          <line class="cls-3" x1="206.9" y1="207.1" x2="218.2" y2="218.4"/>
          <line class="cls-3" x1="225.4" y1="199.5" x2="225.4" y2="215.4"/>
          <line class="cls-3" x1="243.8" y1="207.1" x2="232.6" y2="218.4"/>
          <line class="cls-3" x1="251.5" y1="225.6" x2="235.5" y2="225.6"/>
          <line class="cls-3" x1="232.6" y1="232.7" x2="243.8" y2="244"/>
          <line class="cls-3" x1="225.4" y1="235.7" x2="225.4" y2="251.7"/>
          <line class="cls-3" x1="218.2" y1="232.7" x2="206.9" y2="244"/>
          <line class="cls-3" x1="215.2" y1="225.6" x2="199.3" y2="225.6"/>
        </g>
        <g>
          <line class="cls-3" x1="25.3" y1="27" x2="43.7" y2="45.5"/>
          <line class="cls-3" x1="43.7" y1="19.4" x2="43.7" y2="45.5"/>
          <line class="cls-3" x1="62.2" y1="27" x2="43.7" y2="45.5"/>
          <line class="cls-3" x1="69.8" y1="45.5" x2="43.7" y2="45.5"/>
          <line class="cls-3" x1="62.2" y1="64" x2="43.7" y2="45.5"/>
          <line class="cls-3" x1="43.7" y1="71.6" x2="43.7" y2="45.5"/>
          <line class="cls-3" x1="25.3" y1="64" x2="43.7" y2="45.5"/>
          <line class="cls-3" x1="17.6" y1="45.5" x2="43.7" y2="45.5"/>
        </g>
        <path class="cls-3" d="M137.3,74.6c-25.8-11.6-25.8-46.5,0-58.1M150.3,45.5c0,5.4-4.3,9.7-9.7,9.7s-9.7-4.3-9.7-9.7,4.3-9.7,9.7-9.7,9.7,4.3,9.7,9.7Z"/>
        <path class="cls-2" d="M137.3,435c-25.8-11.6-25.8-46.5,0-58.1M150.3,405.9c0,5.4-4.3,9.7-9.7,9.7s-9.7-4.3-9.7-9.7,4.3-9.7,9.7-9.7,9.7,4.3,9.7,9.7Z"/>
        <path class="cls-3" d="M155.2,136h0c0,17.5-20.1,27.4-34,16.7h0c-10.9-8.4-10.9-24.9,0-33.3h0c13.9-10.7,34-.8,34,16.7h0Z"/>
        <g>
          <path class="cls-6" d="M204.5,329c-4.6,0-7.5-2.2-7.5-7.2v-7.8h-3.1v-4.9h3.1v-3.9h6v3.9h6.4v4.9h-6.4v7.1c0,2,.8,2.5,2.9,2.5h3.6v5.4h-4.9Z"/>
          <path class="cls-6" d="M219.1,323.6h13.3v5.4h-21.1v-5.4l12.7-9.1.7-.5h-12.8v-4.9h19.9v5.1c-4.2,3.1-8.5,6.3-12.7,9.4Z"/>
          <path class="cls-6" d="M234.3,329v-26.6h6v14.1h4.5l5.1-7.4h7.1l-7.3,9.6,7.1,10.3h-7l-5-7.2h-4.6v7.2h-6Z"/>
        </g>
        <g>
          <path class="cls-6" d="M73.7,311.3c-.7-.7-1.6-1.1-2.5-1.1h-3c0-.8,0-1.5,0-2.3-.2-2-.6-4.4-1.6-6.9,3.3-1.7,5.3-3.5,5.1-5.5-.3-2.7-4.3-4.1-13.6-5.1-6.6-4.4-13.9-4.3-15-4.2-.5,0-11.1.5-17.9,8.3-11.4,4.2-12.7,6.6-12.4,8.6.3,2.1,3.2,3.4,7.2,4.1v4.1s-2.9,0-2.9,0c-1,0-1.9.4-2.6,1s-1.1,1.6-1.1,2.5v10.5c-.1,1,.2,1.9.9,2.6.7.7,1.6,1.1,2.5,1.1h2.9s0,2,0,2c0,3.7,2.9,6.7,6.6,6.8h2.8s0,4.6,0,4.6c0,1,.5,1.9,1.4,2.4.4.2.9.4,1.4.4s.9-.1,1.4-.4l6.3-3.9c2.9-1.8,6.3-2.7,9.7-2.6,3.8.2,9,.3,12.4,0,.9,0,3-.3,4.6-1.9,1.3-1.3,2-2.9,2-4.7v-3.7s2.9,0,2.9,0h.1c1.9,0,3.5-1.6,3.5-3.5v-10.5c.1-1-.2-1.9-.9-2.6h0ZM68.9,295.8c0,.6-1.4,1.6-3.5,2.7-.5-.9-1-1.7-1.6-2.6-.6-.8-1.2-1.5-1.8-2.2,6.3,1,7,2.1,7,2.1ZM43.2,289c1.2,0,12-.2,18.4,8.5.5.7.9,1.4,1.3,2.1-4.8,2-12.1,4.1-20.3,5.1-7.5.9-14.5.8-19.5.2.4-2.1,1.1-4,2.1-5.8,5.5-9.6,17.4-10.2,17.9-10.2ZM15.5,302.8c0,0,.4-1.4,6.9-4.2-1,1.9-1.6,3.8-2,5.9-2.8-.5-4.6-1.2-4.9-1.8h0ZM17,326.2c-.2,0-.4,0-.6-.2-.2-.2-.2-.4-.2-.6v-10.5c.1-.2.2-.4.4-.6.2-.1.3-.2.5-.2h2.9s-.1,12.1-.1,12.1h-2.9ZM64.1,334.3c-.8.8-1.9,1-3,1.1-3.2.3-8.3.2-12,0-4-.2-7.9.9-11.3,3l-6.2,3.9v-7.3c0,0-5.4,0-5.4,0-2.2,0-3.9-1.8-3.9-4v-2h0l.2-17.6h0v-3.3h0c0-.2,0-.3,0-.5,3.4.4,7.4.5,11.1.4,3.3,0,6.5-.3,9-.6,5.8-.7,14.8-2.7,21.1-5.3,1,2.5,1.3,4.9,1.4,6.7l-.2,22.7c0,1-.4,2-1.2,2.8ZM71.9,324.3c0,.5-.3.8-.8.8h-2.9s.1-12.1.1-12.1h2.9c.2,0,.4.1.6.3.2.2.2.4.2.6v10.5c-.1,0-.1,0-.1,0Z"/>
          <g>
            <path class="cls-6" d="M42.4,327.8c-3.2-.2-6.4-1.2-9.2-2.8l-1.4,2.4c3.2,1.9,6.8,3,10.4,3.2.7,0,1.4,0,2,0,5.3-.1,9.4-2,11.5-3.3l-1.4-2.4c-2.1,1.2-6.4,3.2-11.9,2.9h0Z"/>
            <path class="cls-6" d="M50.8,314.7c1.7,0,3,1.4,3,3s-1.4,3-3,3-3-1.4-3-3,1.4-3,3-3M50.8,311.7c-3.3,0-6,2.7-6,6s2.7,6,6,6,6-2.7,6-6-2.7-6-6-6h0Z"/>
            <path class="cls-6" d="M36.7,314.7c1.7,0,3,1.4,3,3s-1.4,3-3,3-3-1.4-3-3,1.4-3,3-3M36.7,311.7c-3.3,0-6,2.7-6,6s2.7,6,6,6,6-2.7,6-6-2.7-6-6-6h0Z"/>
          </g>
        </g>
        <g>
          <path class="cls-6" d="M345.1,220.5c-.7-.7-1.6-1.1-2.5-1.1h-3c0-.8,0-1.5,0-2.3-.2-2-.6-4.4-1.6-6.9,3.3-1.7,5.3-3.5,5.1-5.5-.3-2.7-4.3-4.1-13.6-5.1-6.6-4.4-13.9-4.3-15-4.2-.5,0-11.1.5-17.9,8.3-11.4,4.2-12.7,6.6-12.4,8.6.3,2.1,3.2,3.4,7.2,4.1v4.1s-2.9,0-2.9,0c-1,0-1.9.4-2.6,1s-1.1,1.6-1.1,2.5v10.5c-.1,1,.2,1.9.9,2.6.7.7,1.6,1.1,2.5,1.1h2.9s0,2,0,2c0,3.7,2.9,6.7,6.6,6.8h2.8s0,4.6,0,4.6c0,1,.5,1.9,1.4,2.4.4.2.9.4,1.4.4s.9-.1,1.4-.4l6.3-3.9c2.9-1.8,6.3-2.7,9.7-2.6,3.8.2,9,.3,12.4,0,.9,0,3-.3,4.6-1.9,1.3-1.3,2-2.9,2-4.7v-3.7s2.9,0,2.9,0h.1c1.9,0,3.5-1.6,3.5-3.5v-10.5c.1-1-.2-1.9-.9-2.6h0ZM340.3,205.1c0,.6-1.4,1.6-3.5,2.7-.5-.9-1-1.7-1.6-2.6-.6-.8-1.2-1.5-1.8-2.2,6.3,1,7,2.1,7,2.1ZM314.5,198.2c1.2,0,12-.2,18.4,8.5.5.7.9,1.4,1.3,2.1-4.8,2-12.1,4.1-20.3,5.1-7.5.9-14.5.8-19.5.2.4-2.1,1.1-4,2.1-5.8,5.5-9.6,17.4-10.2,17.9-10.2ZM286.8,212c0,0,.4-1.4,6.9-4.2-1,1.9-1.6,3.8-2,5.9-2.8-.5-4.6-1.2-4.9-1.8h0ZM288.3,235.5c-.2,0-.4,0-.6-.2-.2-.2-.2-.4-.2-.6v-10.5c.1-.2.2-.4.4-.6.2-.1.3-.2.5-.2h2.9s-.1,12.1-.1,12.1h-2.9ZM335.5,243.5c-.8.8-1.9,1-3,1.1-3.2.3-8.3.2-12,0-4-.2-7.9.9-11.3,3l-6.2,3.9v-7.3c0,0-5.4,0-5.4,0-2.2,0-3.9-1.8-3.9-4v-2h0l.2-17.6h0v-3.3h0c0-.2,0-.3,0-.5,3.4.4,7.4.5,11.1.4,3.3,0,6.5-.3,9-.6,5.8-.7,14.8-2.7,21.1-5.3,1,2.5,1.3,4.9,1.4,6.7l-.2,22.7c0,1-.4,2-1.2,2.8ZM343.2,233.5c0,.5-.3.8-.8.8h-2.9s.1-12.1.1-12.1h2.9c.2,0,.4.1.6.3.2.2.2.4.2.6v10.5c-.1,0-.1,0-.1,0Z"/>
          <g>
            <path class="cls-6" d="M313.7,237c-3.2-.2-6.4-1.2-9.2-2.8l-1.4,2.4c3.2,1.9,6.8,3,10.4,3.2.7,0,1.4,0,2,0,5.3-.1,9.4-2,11.5-3.3l-1.4-2.4c-2.1,1.2-6.4,3.2-11.9,2.9h0Z"/>
            <path class="cls-6" d="M322.1,223.9c1.7,0,3,1.4,3,3s-1.4,3-3,3-3-1.4-3-3,1.4-3,3-3M322.1,220.9c-3.3,0-6,2.7-6,6s2.7,6,6,6,6-2.7,6-6-2.7-6-6-6h0Z"/>
            <path class="cls-6" d="M308,223.9c1.7,0,3,1.4,3,3s-1.4,3-3,3-3-1.4-3-3,1.4-3,3-3M308,220.9c-3.3,0-6,2.7-6,6s2.7,6,6,6,6-2.7,6-6-2.7-6-6-6h0Z"/>
          </g>
        </g>
        <g>
          <rect class="cls-3" x="115.5" y="203.4" width="43.7" height="43.7" rx=".7" ry=".7" transform="translate(75.2 481.6) rotate(-135)"/>
          <path class="cls-3" d="M137.8,206.8l29.2,17.6c.6.3.6,1.2,0,1.5l-29.2,18.2c-.3.2-.7.2-.9,0l-29.2-18.2c-.6-.4-.6-1.2,0-1.5l29.2-17.6c.3-.2.6-.2.9,0Z"/>
          <path class="cls-3" d="M137.6,216.8l27.6,7.6c.9.2.9,1.5,0,1.7l-27.6,7.8c-.2,0-.3,0-.5,0l-27.6-7.8c-.9-.2-.9-1.5,0-1.7l27.6-7.6c.2,0,.3,0,.5,0Z"/>
        </g>
      </g>
      <g>
        <path class="cls-6" d="M48.3,698.4l.9-1.7c1.5,1.5,4.2,2.5,6.9,2.5,3.9,0,5.6-1.6,5.6-3.7,0-5.8-12.9-2.2-12.9-10s2.4-5.8,7.7-5.8,4.8.7,6.5,1.9l-.8,1.8c-1.8-1.2-3.9-1.7-5.8-1.7-3.8,0-5.5,1.7-5.5,3.8,0,5.8,12.9,2.3,12.9,9.9s-2.5,5.7-7.8,5.7-6.2-1.1-7.8-2.7Z"/>
        <path class="cls-6" d="M67.8,680.1c0-.8.7-1.5,1.6-1.5s1.6.7,1.6,1.5-.7,1.6-1.6,1.6-1.6-.7-1.6-1.5ZM68.3,685.1h2.1v15.8h-2.1v-15.8Z"/>
        <path class="cls-6" d="M102.4,691.8v9.1h-2.1v-8.9c0-3.3-1.7-5-4.5-5s-5.3,2.1-5.3,5.7v8.3h-2.1v-8.9c0-3.3-1.7-5-4.6-5s-5.3,2.1-5.3,5.7v8.3h-2.1v-15.8h2v2.9c1.1-1.9,3.1-3,5.8-3s4.7,1.1,5.6,3.3c1.1-2,3.4-3.3,6.2-3.3s6.4,2.2,6.4,6.8Z"/>
        <path class="cls-6" d="M124.2,693c0,4.8-3.4,8-7.9,8s-4.7-1.1-6-3.1v8.8h-2.1v-21.6h2v3.1c1.3-2.1,3.5-3.2,6.1-3.2,4.5,0,7.9,3.2,7.9,8ZM122,693c0-3.7-2.5-6.1-5.9-6.1s-5.9,2.5-5.9,6.1,2.5,6.1,5.9,6.1,5.9-2.5,5.9-6.1Z"/>
        <path class="cls-6" d="M128.5,678.6h2.1v22.3h-2.1v-22.3Z"/>
        <path class="cls-6" d="M136.1,680.1c0-.8.7-1.5,1.6-1.5s1.6.7,1.6,1.5-.7,1.6-1.6,1.6-1.6-.7-1.6-1.5ZM136.6,685.1h2.1v15.8h-2.1v-15.8Z"/>
        <path class="cls-6" d="M147.1,683.3v1.9h4.9v1.8h-4.8v14h-2.1v-14h-2.8v-1.8h2.8v-2c0-2.8,1.7-4.7,4.8-4.7s2.4.3,3.2,1l-.7,1.6c-.6-.5-1.4-.8-2.3-.8-1.8,0-2.8,1-2.8,3Z"/>
        <path class="cls-6" d="M168.4,685.1l-7.9,17.7c-1.3,3.1-3,4.1-5.2,4.1s-2.9-.5-3.8-1.4l1-1.6c.8.8,1.7,1.2,2.9,1.2s2.4-.7,3.3-2.6l.7-1.5-7-15.7h2.2l5.9,13.4,5.9-13.4h2.1Z"/>
        <path class="cls-6" d="M192.5,685.1l-7.9,17.7c-1.3,3.1-3,4.1-5.2,4.1s-2.9-.5-3.8-1.4l1-1.6c.8.8,1.7,1.2,2.9,1.2s2.4-.7,3.3-2.6l.7-1.5-7-15.7h2.2l5.9,13.4,5.9-13.4h2.1Z"/>
        <path class="cls-6" d="M193.5,693c0-4.7,3.4-8,8-8s8,3.3,8,8-3.4,8-8,8-8-3.4-8-8ZM207.4,693c0-3.7-2.5-6.1-5.9-6.1s-5.9,2.5-5.9,6.1,2.5,6.1,5.9,6.1,5.9-2.5,5.9-6.1Z"/>
        <path class="cls-6" d="M228.1,685.1v15.8h-2v-2.9c-1.1,1.9-3.1,3-5.7,3-4,0-6.7-2.2-6.7-6.8v-9.1h2.1v8.9c0,3.4,1.7,5.1,4.7,5.1s5.4-2.1,5.4-5.7v-8.3h2.1Z"/>
        <path class="cls-6" d="M242,685v2.1c-.2,0-.4,0-.5,0-3.3,0-5.3,2.1-5.3,5.8v8h-2.1v-15.8h2v3.1c1-2.1,3-3.2,5.9-3.2Z"/>
        <path class="cls-6" d="M252.4,693c0-4.7,3.4-8,8.1-8s4.9,1,6.2,3.1l-1.6,1.1c-1.1-1.6-2.8-2.3-4.6-2.3-3.5,0-6,2.5-6,6.1s2.5,6.1,6,6.1,3.5-.7,4.6-2.3l1.6,1.1c-1.3,2-3.5,3.1-6.2,3.1-4.7,0-8.1-3.3-8.1-8Z"/>
        <path class="cls-6" d="M285.1,685.1v15.8h-2v-2.9c-1.1,1.9-3.1,3-5.7,3-4,0-6.7-2.2-6.7-6.8v-9.1h2.1v8.9c0,3.4,1.7,5.1,4.7,5.1s5.4-2.1,5.4-5.7v-8.3h2.1Z"/>
        <path class="cls-6" d="M288.8,699.1l1-1.7c1.3,1,3.4,1.8,5.6,1.8s4.2-1,4.2-2.6c0-4.1-10.2-.9-10.2-7.1s2.2-4.5,6.2-4.5,4.3.6,5.6,1.5l-.9,1.7c-1.4-1-3-1.3-4.7-1.3-2.8,0-4.1,1.1-4.1,2.6,0,4.3,10.2,1.1,10.2,7.1s-2.4,4.5-6.5,4.5-5.1-.8-6.4-2Z"/>
        <path class="cls-6" d="M314,699.9c-.8.8-2.1,1.1-3.3,1.1-3,0-4.6-1.7-4.6-4.6v-9.5h-2.8v-1.8h2.8v-3.5h2.1v3.5h4.8v1.8h-4.8v9.4c0,1.9,1,2.9,2.7,2.9s1.7-.3,2.3-.8l.7,1.5Z"/>
        <path class="cls-6" d="M315.7,693c0-4.7,3.4-8,8-8s8,3.3,8,8-3.4,8-8,8-8-3.4-8-8ZM329.6,693c0-3.7-2.5-6.1-5.9-6.1s-5.9,2.5-5.9,6.1,2.5,6.1,5.9,6.1,5.9-2.5,5.9-6.1Z"/>
        <path class="cls-6" d="M362.2,691.8v9.1h-2.1v-8.9c0-3.3-1.7-5-4.5-5s-5.3,2.1-5.3,5.7v8.3h-2.1v-8.9c0-3.3-1.7-5-4.6-5s-5.3,2.1-5.3,5.7v8.3h-2.1v-15.8h2v2.9c1.1-1.9,3.2-3,5.8-3s4.7,1.1,5.6,3.3c1.1-2,3.4-3.3,6.2-3.3s6.4,2.2,6.4,6.8Z"/>
        <path class="cls-6" d="M381.7,693.7h-13.2c.2,3.3,2.8,5.5,6.2,5.5s3.6-.7,4.8-2.1l1.2,1.4c-1.4,1.7-3.6,2.6-6.1,2.6-4.9,0-8.3-3.4-8.3-8s3.3-8,7.7-8,7.6,3.3,7.6,8,0,.4,0,.7ZM368.5,692.1h11.2c-.3-3.1-2.5-5.2-5.6-5.2s-5.3,2.2-5.6,5.2Z"/>
        <path class="cls-6" d="M394.1,685v2.1c-.2,0-.4,0-.5,0-3.3,0-5.3,2.1-5.3,5.8v8h-2.1v-15.8h2v3.1c1-2.1,3-3.2,5.9-3.2Z"/>
        <path class="cls-6" d="M49.3,716.1c0-.8.7-1.5,1.6-1.5s1.6.7,1.6,1.5-.7,1.6-1.6,1.6-1.6-.7-1.6-1.5ZM49.8,721.1h2.1v15.8h-2.1v-15.8Z"/>
        <path class="cls-6" d="M72.4,727.8v9.1h-2.1v-8.9c0-3.3-1.7-5-4.7-5s-5.5,2.1-5.5,5.7v8.3h-2.1v-15.8h2v2.9c1.1-1.9,3.3-3,6-3s6.5,2.2,6.5,6.8Z"/>
        <path class="cls-6" d="M86.5,735.9c-.8.8-2.1,1.1-3.3,1.1-3,0-4.6-1.7-4.6-4.6v-9.5h-2.8v-1.8h2.8v-3.5h2.1v3.5h4.8v1.8h-4.8v9.4c0,1.9,1,2.9,2.7,2.9s1.7-.3,2.3-.8l.8,1.5Z"/>
        <path class="cls-6" d="M103.6,729.7h-10.9c.2,3.3,2.3,5.5,5.1,5.5s3-.7,4-2.1l1,1.4c-1.2,1.7-3,2.6-5,2.6-4.1,0-6.9-3.4-6.9-8s2.7-8,6.4-8,6.3,3.3,6.3,8,0,.4,0,.7ZM92.6,728.1h9.3c-.2-3.1-2.1-5.2-4.6-5.2s-4.4,2.2-4.6,5.2Z"/>
        <path class="cls-6" d="M115.9,721v2.1c-.2,0-.4,0-.5,0-3.3,0-5.3,2.1-5.3,5.8v8h-2.1v-15.8h2v3.1c1-2.1,3-3.2,5.9-3.2Z"/>
        <path class="cls-6" d="M131.6,727.1v9.8h-2v-2.5c-1,1.6-2.8,2.6-5.4,2.6s-5.8-1.9-5.8-4.6,1.6-4.5,6.1-4.5h5v-1c0-2.7-1.5-4.2-4.5-4.2s-4,.7-5.2,1.9l-1-1.6c1.6-1.3,3.9-2.1,6.4-2.1,4.1,0,6.4,2,6.4,6.1ZM129.5,732.2v-2.6h-5c-3.1,0-4,1.2-4,2.8s1.5,3,4,3,4.2-1.1,5-3.2Z"/>
        <path class="cls-6" d="M135.9,729c0-4.7,3.4-8,8.1-8s4.9,1,6.2,3.1l-1.6,1.1c-1.1-1.6-2.8-2.3-4.6-2.3-3.5,0-6,2.5-6,6.1s2.5,6.1,6,6.1,3.5-.7,4.6-2.3l1.6,1.1c-1.3,2-3.5,3.1-6.2,3.1-4.7,0-8.1-3.3-8.1-8Z"/>
        <path class="cls-6" d="M162.8,735.9c-.8.8-2.1,1.1-3.3,1.1-3,0-4.6-1.7-4.6-4.6v-9.5h-2.8v-1.8h2.8v-3.5h2.1v3.5h4.8v1.8h-4.8v9.4c0,1.9,1,2.9,2.7,2.9s1.7-.3,2.3-.8l.7,1.5Z"/>
        <path class="cls-6" d="M166.2,716.1c0-.8.7-1.5,1.6-1.5s1.6.7,1.6,1.5-.7,1.6-1.6,1.6-1.6-.7-1.6-1.5ZM166.7,721.1h2.1v15.8h-2.1v-15.8Z"/>
        <path class="cls-6" d="M173.2,729c0-4.7,3.4-8,8-8s8,3.3,8,8-3.4,8-8,8-8-3.4-8-8ZM187.1,729c0-3.7-2.5-6.1-5.8-6.1s-5.9,2.5-5.9,6.1,2.5,6.1,5.9,6.1,5.8-2.5,5.8-6.1Z"/>
        <path class="cls-6" d="M208.1,727.8v9.1h-2.1v-8.9c0-3.3-1.7-5-4.7-5s-5.5,2.1-5.5,5.7v8.3h-2.1v-15.8h2v2.9c1.1-1.9,3.3-3,6-3s6.5,2.2,6.5,6.8Z"/>
        <path class="cls-6" d="M211.7,735.1l1-1.7c1.3,1,3.4,1.8,5.6,1.8s4.2-1,4.2-2.6c0-4.1-10.2-.9-10.2-7.1s2.2-4.5,6.2-4.5,4.3.6,5.6,1.5l-.9,1.7c-1.4-1-3-1.3-4.7-1.3-2.8,0-4.1,1.1-4.1,2.6,0,4.3,10.2,1.1,10.2,7.1s-2.4,4.5-6.5,4.5-5.1-.8-6.4-2Z"/>
        <path class="cls-6" d="M234.8,729c0-4.7,3.4-8,8-8s8,3.3,8,8-3.4,8-8,8-8-3.4-8-8ZM248.7,729c0-3.7-2.5-6.1-5.9-6.1s-5.9,2.5-5.9,6.1,2.5,6.1,5.9,6.1,5.9-2.5,5.9-6.1Z"/>
        <path class="cls-6" d="M269.8,727.8v9.1h-2.1v-8.9c0-3.3-1.7-5-4.7-5s-5.5,2.1-5.5,5.7v8.3h-2.1v-15.8h2v2.9c1.1-1.9,3.3-3,6-3s6.5,2.2,6.5,6.8Z"/>
        <path class="cls-6" d="M50.3,751.9h2.2v21h-2.2v-21Z"/>
        <path class="cls-6" d="M73.4,763.8v9.1h-2.1v-8.9c0-3.3-1.7-5-4.7-5s-5.5,2.1-5.5,5.7v8.3h-2.1v-15.8h2v2.9c1.1-1.9,3.3-3,6-3s6.5,2.2,6.5,6.8Z"/>
        <path class="cls-6" d="M77,771.1l1-1.7c1.3,1,3.4,1.8,5.6,1.8s4.2-1,4.2-2.6c0-4.1-10.2-.9-10.2-7.1s2.2-4.5,6.2-4.5,4.3.6,5.6,1.5l-.9,1.7c-1.4-1-3-1.3-4.6-1.3-2.9,0-4.1,1.1-4.1,2.6,0,4.3,10.2,1.1,10.2,7.1s-2.4,4.5-6.5,4.5-5.1-.8-6.4-2Z"/>
        <path class="cls-6" d="M102.2,771.9c-.8.8-2.1,1.1-3.3,1.1-3,0-4.6-1.7-4.6-4.6v-9.5h-2.8v-1.8h2.8v-3.5h2.1v3.5h4.8v1.8h-4.8v9.4c0,1.9,1,2.9,2.7,2.9s1.7-.3,2.3-.8l.8,1.5Z"/>
        <path class="cls-6" d="M118,763.1v9.8h-2v-2.5c-1,1.6-2.8,2.6-5.4,2.6s-5.8-1.9-5.8-4.6,1.6-4.5,6.1-4.5h5v-1c0-2.7-1.5-4.2-4.5-4.2s-4,.7-5.2,1.9l-1-1.6c1.6-1.3,3.9-2.1,6.4-2.1,4.1,0,6.4,2,6.4,6.1ZM115.8,768.2v-2.6h-5c-3.1,0-4,1.2-4,2.8s1.5,3,4,3,4.2-1.1,5-3.2Z"/>
        <path class="cls-6" d="M138.4,757.1v13.9c0,5.4-2.7,7.9-7.9,7.9s-5.7-.9-7.3-2.4l1.1-1.6c1.5,1.3,3.8,2.2,6.2,2.2,4,0,5.8-1.8,5.8-5.7v-2c-1.3,2-3.6,3.1-6.2,3.1-4.5,0-7.9-3.2-7.9-7.7s3.4-7.6,7.9-7.6,4.9,1.1,6.2,3.2v-3h2ZM136.3,764.6c0-3.4-2.5-5.8-6-5.8s-6,2.3-6,5.8,2.5,5.8,6,5.8,6-2.4,6-5.8Z"/>
        <path class="cls-6" d="M152.3,757v2.1c-.2,0-.4,0-.5,0-3.3,0-5.3,2.1-5.3,5.8v8h-2.1v-15.8h2v3.1c1-2.1,3-3.2,5.9-3.2Z"/>
        <path class="cls-6" d="M168.1,763.1v9.8h-2v-2.5c-1,1.6-2.8,2.6-5.4,2.6s-5.8-1.9-5.8-4.6,1.6-4.5,6.1-4.5h5v-1c0-2.7-1.5-4.2-4.5-4.2s-4,.7-5.2,1.9l-1-1.6c1.6-1.3,3.9-2.1,6.4-2.1,4.1,0,6.4,2,6.4,6.1ZM165.9,768.2v-2.6h-5c-3.1,0-4,1.2-4,2.8s1.5,3,4,3,4.2-1.1,5-3.2Z"/>
        <path class="cls-6" d="M199.9,763.8v9.1h-2.1v-8.9c0-3.3-1.7-5-4.5-5s-5.3,2.1-5.3,5.7v8.3h-2.1v-8.9c0-3.3-1.7-5-4.6-5s-5.3,2.1-5.3,5.7v8.3h-2.1v-15.8h2v2.9c1.1-1.9,3.2-3,5.8-3s4.7,1.1,5.6,3.3c1.1-2,3.4-3.3,6.2-3.3s6.4,2.2,6.4,6.8Z"/>
      </g>
      <g>
        <path class="cls-6" d="M49.5,792.1c0,.5-.4.9-.9.9s-.9-.4-.9-.9,0-.5.2-1l.7-2.3h.8l-.6,2.4c.4.1.6.4.6.9ZM52.4,792.1c0,.5-.4.9-.9.9s-.9-.4-.9-.9,0-.5.2-1l.7-2.3h.8l-.6,2.4c.4.1.6.4.6.9Z"/>
        <path class="cls-6" d="M60,800.8c-.5.4-1.2.6-1.9.6-1.7,0-2.6-1-2.6-2.6v-5.4h-1.6v-1h1.6v-2h1.2v2h2.7v1h-2.7v5.3c0,1.1.5,1.6,1.5,1.6s1-.2,1.3-.5l.4.9Z"/>
        <path class="cls-6" d="M66.7,792.4v1.2c-.1,0-.2,0-.3,0-1.9,0-3,1.2-3,3.3v4.6h-1.2v-8.9h1.2v1.8c.6-1.2,1.7-1.8,3.3-1.8Z"/>
        <path class="cls-6" d="M75.6,795.8v5.5h-1.2v-1.4c-.5.9-1.6,1.5-3.1,1.5s-3.3-1.1-3.3-2.6.9-2.5,3.5-2.5h2.8v-.5c0-1.5-.9-2.4-2.5-2.4s-2.2.4-3,1.1l-.5-.9c.9-.8,2.2-1.2,3.6-1.2,2.3,0,3.6,1.2,3.6,3.5ZM74.4,798.7v-1.5h-2.8c-1.7,0-2.3.7-2.3,1.6s.8,1.7,2.3,1.7,2.4-.6,2.8-1.8Z"/>
        <path class="cls-6" d="M78,796.9c0-2.7,1.9-4.5,4.6-4.5s2.8.6,3.5,1.8l-.9.6c-.6-.9-1.6-1.3-2.6-1.3-2,0-3.4,1.4-3.4,3.5s1.4,3.5,3.4,3.5,2-.4,2.6-1.3l.9.6c-.7,1.2-2,1.8-3.5,1.8-2.7,0-4.6-1.9-4.6-4.6Z"/>
        <path class="cls-6" d="M91.7,796.9l-2.1,1.9v2.5h-1.2v-12.6h1.2v8.5l5.3-4.9h1.5l-3.8,3.7,4.2,5.3h-1.5l-3.6-4.5Z"/>
        <path class="cls-6" d="M110.8,797.3h-7.5c.1,1.9,1.6,3.1,3.5,3.1s2.1-.4,2.7-1.2l.7.8c-.8,1-2,1.5-3.5,1.5-2.8,0-4.7-1.9-4.7-4.6s1.9-4.5,4.4-4.5,4.3,1.9,4.3,4.5,0,.2,0,.4ZM103.3,796.4h6.3c-.2-1.8-1.4-3-3.2-3s-3,1.2-3.2,3Z"/>
        <path class="cls-6" d="M120.6,792.4l-4,8.9h-1.2l-4-8.9h1.3l3.3,7.6,3.4-7.6h1.2Z"/>
        <path class="cls-6" d="M129.9,797.3h-7.5c.1,1.9,1.6,3.1,3.5,3.1s2.1-.4,2.7-1.2l.7.8c-.8,1-2,1.5-3.5,1.5-2.8,0-4.7-1.9-4.7-4.6s1.9-4.5,4.4-4.5,4.3,1.9,4.3,4.5,0,.2,0,.4ZM122.4,796.4h6.3c-.2-1.8-1.4-3-3.2-3s-3,1.2-3.2,3Z"/>
        <path class="cls-6" d="M136.9,792.4v1.2c-.1,0-.2,0-.3,0-1.9,0-3,1.2-3,3.3v4.6h-1.2v-8.9h1.2v1.8c.6-1.2,1.7-1.8,3.3-1.8Z"/>
        <path class="cls-6" d="M146.9,792.4l-4.5,10c-.7,1.8-1.7,2.3-3,2.3s-1.6-.3-2.2-.8l.6-.9c.4.4,1,.7,1.6.7s1.3-.4,1.9-1.5l.4-.9-4-8.9h1.3l3.4,7.6,3.4-7.6h1.2Z"/>
        <path class="cls-6" d="M153.3,789.5h4.8c3.8,0,6.4,2.4,6.4,5.9s-2.6,5.9-6.4,5.9h-4.8v-11.9ZM158.1,800.3c3.2,0,5.2-2,5.2-4.9s-2-4.9-5.2-4.9h-3.5v9.7h3.5Z"/>
        <path class="cls-6" d="M179.7,789.5v11.9h-1.2v-9.5l-4.7,8h-.6l-4.7-8v9.5h-1.2v-11.9h1l5.2,8.8,5.1-8.8h1Z"/>
        <path class="cls-6" d="M194.6,795.8v5.5h-1.2v-1.4c-.5.9-1.6,1.5-3.1,1.5s-3.3-1.1-3.3-2.6.9-2.5,3.5-2.5h2.8v-.5c0-1.5-.9-2.4-2.5-2.4s-2.2.4-3,1.1l-.5-.9c.9-.8,2.2-1.2,3.6-1.2,2.3,0,3.6,1.2,3.6,3.5ZM193.4,798.7v-1.5h-2.8c-1.7,0-2.3.7-2.3,1.6s.8,1.7,2.3,1.7,2.4-.6,2.8-1.8Z"/>
        <path class="cls-6" d="M206.1,796.2v5.2h-1.2v-5.1c0-1.9-1-2.9-2.7-2.9s-3.1,1.2-3.1,3.2v4.7h-1.2v-8.9h1.2v1.6c.6-1.1,1.9-1.7,3.4-1.7s3.7,1.3,3.7,3.8Z"/>
        <path class="cls-6" d="M217.6,788.8v12.6h-1.2v-1.8c-.7,1.2-2,1.9-3.5,1.9-2.5,0-4.5-1.9-4.5-4.6s1.9-4.5,4.5-4.5,2.7.6,3.4,1.8v-5.4h1.2ZM216.4,796.9c0-2.1-1.4-3.5-3.3-3.5s-3.3,1.4-3.3,3.5,1.4,3.5,3.3,3.5,3.3-1.4,3.3-3.5Z"/>
        <path class="cls-6" d="M224.5,796.9c0-2.7,1.9-4.5,4.6-4.5s2.8.6,3.5,1.8l-.9.6c-.6-.9-1.6-1.3-2.6-1.3-2,0-3.4,1.4-3.4,3.5s1.4,3.5,3.4,3.5,2-.4,2.6-1.3l.9.6c-.7,1.2-2,1.8-3.5,1.8-2.7,0-4.6-1.9-4.6-4.6Z"/>
        <path class="cls-6" d="M233.9,796.9c0-2.7,1.9-4.5,4.6-4.5s4.5,1.9,4.5,4.5-1.9,4.6-4.5,4.6-4.6-1.9-4.6-4.6ZM241.8,796.9c0-2.1-1.4-3.5-3.3-3.5s-3.3,1.4-3.3,3.5,1.4,3.5,3.3,3.5,3.3-1.4,3.3-3.5Z"/>
        <path class="cls-6" d="M260.2,796.2v5.2h-1.2v-5.1c0-1.9-1-2.9-2.6-2.9s-3,1.2-3,3.2v4.7h-1.2v-5.1c0-1.9-1-2.9-2.6-2.9s-3,1.2-3,3.2v4.7h-1.2v-8.9h1.2v1.6c.6-1.1,1.8-1.7,3.3-1.7s2.6.6,3.2,1.9c.6-1.2,1.9-1.9,3.5-1.9s3.6,1.3,3.6,3.8Z"/>
        <path class="cls-6" d="M278.2,796.2v5.2h-1.2v-5.1c0-1.9-1-2.9-2.6-2.9s-3,1.2-3,3.2v4.7h-1.2v-5.1c0-1.9-1-2.9-2.6-2.9s-3,1.2-3,3.2v4.7h-1.2v-8.9h1.2v1.6c.6-1.1,1.8-1.7,3.3-1.7s2.6.6,3.2,1.9c.6-1.2,1.9-1.9,3.5-1.9s3.6,1.3,3.6,3.8Z"/>
        <path class="cls-6" d="M289.3,797.3h-7.5c.1,1.9,1.6,3.1,3.5,3.1s2.1-.4,2.7-1.2l.7.8c-.8,1-2,1.5-3.5,1.5-2.8,0-4.7-1.9-4.7-4.6s1.9-4.5,4.4-4.5,4.3,1.9,4.3,4.5,0,.2,0,.4ZM281.9,796.4h6.3c-.2-1.8-1.4-3-3.2-3s-3,1.2-3.2,3Z"/>
        <path class="cls-6" d="M300.1,796.2v5.2h-1.2v-5.1c0-1.9-1-2.9-2.7-2.9s-3.1,1.2-3.1,3.2v4.7h-1.2v-8.9h1.2v1.6c.6-1.1,1.9-1.7,3.4-1.7s3.7,1.3,3.7,3.8Z"/>
        <path class="cls-6" d="M308,800.8c-.5.4-1.2.6-1.9.6-1.7,0-2.6-1-2.6-2.6v-5.4h-1.6v-1h1.6v-2h1.2v2h2.7v1h-2.7v5.3c0,1.1.5,1.6,1.5,1.6s1-.2,1.3-.5l.4.9Z"/>
        <path class="cls-6" d="M313.4,800.3l.5-1c.7.6,1.9,1,3.2,1s2.4-.6,2.4-1.5c0-2.3-5.8-.5-5.8-4s1.3-2.5,3.5-2.5,2.4.3,3.2.8l-.5,1c-.8-.5-1.7-.8-2.6-.8-1.6,0-2.3.6-2.3,1.5,0,2.4,5.8.6,5.8,4s-1.4,2.5-3.7,2.5-2.9-.5-3.6-1.1Z"/>
        <path class="cls-6" d="M330.8,797.3h-7.5c.1,1.9,1.6,3.1,3.5,3.1s2.1-.4,2.7-1.2l.7.8c-.8,1-2,1.5-3.5,1.5-2.8,0-4.7-1.9-4.7-4.6s1.9-4.5,4.4-4.5,4.3,1.9,4.3,4.5,0,.2,0,.4ZM323.3,796.4h6.3c-.2-1.8-1.4-3-3.2-3s-3,1.2-3.2,3Z"/>
        <path class="cls-6" d="M339.8,795.8v5.5h-1.2v-1.4c-.5.9-1.6,1.5-3.1,1.5s-3.3-1.1-3.3-2.6.9-2.5,3.5-2.5h2.8v-.5c0-1.5-.9-2.4-2.5-2.4s-2.2.4-3,1.1l-.5-.9c.9-.8,2.2-1.2,3.6-1.2,2.3,0,3.6,1.2,3.6,3.5ZM338.6,798.7v-1.5h-2.8c-1.7,0-2.3.7-2.3,1.6s.8,1.7,2.3,1.7,2.4-.6,2.8-1.8Z"/>
        <path class="cls-6" d="M357.8,796.2v5.2h-1.2v-5.1c0-1.9-1-2.9-2.6-2.9s-3,1.2-3,3.2v4.7h-1.2v-5.1c0-1.9-1-2.9-2.6-2.9s-3,1.2-3,3.2v4.7h-1.2v-8.9h1.2v1.6c.6-1.1,1.8-1.7,3.3-1.7s2.6.6,3.2,1.9c.6-1.2,1.9-1.9,3.5-1.9s3.6,1.3,3.6,3.8Z"/>
        <path class="cls-6" d="M361.1,788.8h1.2v12.6h-1.2v-12.6Z"/>
        <path class="cls-6" d="M373.4,797.3h-7.5c.1,1.9,1.6,3.1,3.5,3.1s2.1-.4,2.7-1.2l.7.8c-.8,1-2,1.5-3.5,1.5-2.8,0-4.7-1.9-4.7-4.6s1.9-4.5,4.4-4.5,4.3,1.9,4.3,4.5,0,.2,0,.4ZM366,796.4h6.3c-.2-1.8-1.4-3-3.2-3s-3,1.2-3.2,3Z"/>
        <path class="cls-6" d="M374.7,800.3l.5-1c.7.6,1.9,1,3.2,1s2.4-.6,2.4-1.5c0-2.3-5.8-.5-5.8-4s1.3-2.5,3.5-2.5,2.4.3,3.2.8l-.5,1c-.8-.5-1.7-.8-2.6-.8-1.6,0-2.3.6-2.3,1.5,0,2.4,5.8.6,5.8,4s-1.4,2.5-3.7,2.5-2.9-.5-3.6-1.1Z"/>
        <path class="cls-6" d="M383,800.3l.5-1c.7.6,1.9,1,3.2,1s2.4-.6,2.4-1.5c0-2.3-5.8-.5-5.8-4s1.3-2.5,3.5-2.5,2.4.3,3.2.8l-.5,1c-.8-.5-1.7-.8-2.6-.8-1.6,0-2.3.6-2.3,1.5,0,2.4,5.8.6,5.8,4s-1.4,2.5-3.7,2.5-2.9-.5-3.6-1.1Z"/>
        <path class="cls-6" d="M392.5,788.8h1.2v12.6h-1.2v-12.6Z"/>
        <path class="cls-6" d="M404.6,792.4l-4.5,10c-.7,1.8-1.7,2.3-3,2.3s-1.6-.3-2.2-.8l.6-.9c.4.4,1,.7,1.6.7s1.3-.4,1.9-1.5l.4-.9-4-8.9h1.3l3.4,7.6,3.4-7.6h1.2Z"/>
        <path class="cls-6" d="M405,800.5c0-.5.4-.9.9-.9s.9.4.9.9-.4.9-.9.9-.9-.4-.9-.9Z"/>
        <path class="cls-6" d="M407.9,789.5h1.1v4.5h-1v-4.5ZM410.8,789.5h1.1v4.5h-1v-4.5Z"/>
      </g>
      <g>
        <g>
          <path class="cls-6" d="M221.3,587.2c-.4.8-.8,1.7-1.3,2.4-.8,1.2-1.6,2.5-2.5,3.6-3,3.4-6.9,4.5-11.3,4-1.1-.1-2.1-.4-3.1-.7-.6-.2-1.3-.6-1.8-.9-.6-.4-.9-1-.7-1.8.3-1.1.8-2,1.7-2.7.7-.6,1.2-.6,2-.1.6.4,1.1.8,1.6,1.1.5.3,1.1.6,1.7.8,1.5.4,2.8-.3,3.3-1.7.4-1.1.4-2.2.1-3.3-.3-1.1-.8-2-1.6-2.8-1.4-1.4-2.8-2.8-4.2-4.2-.2.3-.4.4-.5.6-1.6,2.7-3.2,5.4-4.8,8.1-1.1,1.8-2.2,3.5-3.7,5-.7.7-1.4,1.3-2.2,1.8-.5.3-1,.6-1.6.8-1.9.6-3.6,0-4.4-1.9-.5-1.1-.8-2.2-.9-3.4-.4-3-.3-6.1-.2-9.1.1-2.7.2-5.5.3-8.2,0-.2,0-.4,0-.9-.4.3-.6.6-.9.8-1.2,1.3-2.2,2.8-3,4.5-2.4,4.6-4,9.4-4.9,14.4-.2.9-.3,1.7-.4,2.6-.2,1.1-.4,1.4-1.6,1.4-.7,0-1.3,0-2,0-.8,0-1.4-.6-1.8-1.3-.4-.9-.6-1.9-.6-2.9,0-2.2,0-4.3,0-6.5,0-5.3,0-10.7.1-16,0-1.6.3-1.9,2-1.6.8.1,1.6.4,2.4.7.9.3,1.2.8,1.2,1.8,0,3.6,0,7.1,0,10.7v.9c0,0,.1,0,.2,0,.2-.6.4-1.1.6-1.7.9-2.5,1.8-5.1,3.2-7.4.7-1.2,1.6-2.4,2.6-3.4.7-.7,1.5-1.2,2.4-1.4,1-.3,2-.3,2.9.2.7.4,1.4.7,2.1,1.1,1.3.8,1.8,1.9,1.7,3.4-.1,3.1-.3,6.3-.3,9.4,0,1.6,0,3.2,0,4.8,0,.8.1,1.7.2,2.5,0,.5.2.9.7,1.1.5.2.9-.1,1.2-.5.5-.6,1.1-1.1,1.5-1.8,2-3.3,3.9-6.7,5.8-10,.3-.5.2-.8-.1-1.2-2.9-3.8.2-8.9,3.9-9.6.8-.2,1.8,0,2.6,0,1.1.2,1.6,1,1.6,2.1,0,.9-.2,1.8-.6,2.6-.7,1.3-1.5,2.7-2.3,4.1.1.1.3.3.5.5,1.5,1.2,3.1,2.3,4.6,3.5.9.7,1.7,1.5,2.5,2.4,1.2,1.5,1.8,3.2,1.6,5.1,0,.2,0,.5,0,.7,0,0,0,0,.1.1.2-.2.4-.3.6-.5,1.9-2,3.1-4.4,3.7-7,.1-.7,0-1.4.1-2.2,0-3.6,0-7.3,0-10.9,0-.4,0-.8,0-1.2-.4,0-.7,0-1,0-1.6,0-3.3-.1-4.9-.2-.9,0-1-.2-1.1-1.1,0-.9.1-1.7.5-2.6.3-.7.7-.9,1.5-.9,1.4,0,2.8.1,4.2.2.3,0,.6,0,1.1,0,0-.4.1-.8.1-1.2,0-2,.2-4.1.3-6.1,0-.3,0-.5.1-.8.1-.5.5-.8,1-.8,1.7,0,3.4.5,4.9,1.3.5.2.5.8.4,1.2,0,1.9-.1,3.8-.2,5.7,0,1,0,1,1,1.1,2.1.1,4.2.2,6.4.4,1.2,0,1.5.5,1.3,1.6,0,0,0,.1,0,.2-.4,1.8-.6,2-2.5,2.1-1.7,0-3.5,0-5.2,0-.3,0-.6,0-1,0,0,.6-.1,1.1-.1,1.6-.1,3.7-.3,7.4-.3,11.1,0,2.5,0,5,0,7.5,0,1,.3,2.1.6,3.1.7,2.2,2.2,2.6,3.8.8,2-2.2,3.2-4.7,3.3-7.7.1-2.6.4-5.2,1.2-7.6.6-1.9,1.5-3.8,2.8-5.3,1.1-1.3,2.5-2.3,4.2-2.7,2.5-.5,4.5.3,6.2,2.1.2.2.4.5.7.8,0-.3,0-.5,0-.7.1-.9.5-1.3,1.4-1.3,1.3,0,2.6.2,3.8.9.6.3.8.8.7,1.5,0,1.2-.1,2.4-.1,3.6,0,4.2-.1,8.3,0,12.5,0,1.2.3,2.5.5,3.7,0,.4.3.9.5,1.3.8,1.3,2.2,1.4,3.2.3,1-1.2,1.7-2.5,1.7-4.1,0-.8,0-1.6-.1-2.4-.4-4.5.2-8.9,2.3-13,.6-1.3,1.4-2.4,2.5-3.4,3-2.7,7.1-2.5,9.8.5.2.2.3.4.6.6,0-.1.1-.2.1-.3.2-1.4.6-1.8,2-1.7,1.1,0,2.1.3,3,.7.6.3.9.7.9,1.5,0,2.2-.1,4.5-.1,6.7,0,3.7,0,7.4,0,11.1,0,.1,0,.2,0,.5.2-.1.3-.2.3-.3,2.6-3.8,4.7-7.9,6-12.4,0-.2.1-.4.2-.7.2-.5,0-.8-.3-1.1-1.8-1.6-1.6-4-.5-5.8.9-1.5,2.8-2.2,4.5-1.7,1,.3,1.7,1.1,1.7,2.1,0,.7,0,1.4,0,2.1.1,0,.4,0,.6,0,1.5-.3,3-.6,4.5-.8.6-.1,1.2-.2,1.9-.1,1.9,0,3,1.4,2.7,3.3-.1,1-.4,1.9-.6,2.9-.6,2.6-1.1,5.3-1.1,8,0,1.8,0,3.5.5,5.3.2.8.5,1.6,1,2.2.9,1.4,2.4,1.5,3.5.2,1.1-1.3,1.5-2.9,1.3-4.6-.5-3.3-.5-6.6.3-9.9.4-1.9,1-3.8,2.1-5.5.6-1,1.3-2,2.2-2.8,2.8-2.7,7-2.5,9.6.4.2.2.4.4.7.8,0-.4,0-.6.1-.8.1-.7.5-1.1,1.1-1.1,1.4-.1,2.8.2,4.1.9.5.3.7.8.7,1.4,0,.9,0,1.7,0,2.6,0,4.1-.2,8.2-.2,12.3,0,1.6.3,3.2.5,4.8,0,.5.3,1,.5,1.4.6,1.2,1.9,1.5,3,.6.4-.4.8-.8,1.1-1.3,1.3-2.2,2-4.5,2-7.1,0-4.6,0-9.2,0-13.9,0-.4,0-.9,0-1.3.1-.6.3-.8.9-.8,1.4,0,2.8.3,4.1.8.2,0,.4.5.5.8.1.3,0,.7,0,1.1,0,2.4,0,4.8,0,7.3,0,.3,0,.6.2.9,0-.3.2-.5.3-.8.8-2.2,1.5-4.4,2.3-6.6.3-.8.7-1.6,1.1-2.3.7-1.2,1.4-1.5,2.7-1.2.6.1,1.3.3,1.9.6,1.6.7,2.4,1.9,2.4,3.6,0,2.7.1,5.3.2,8,0,1.1.2,2.1.3,3.2,0,0,.1,0,.2,0,.1-.6.3-1.3.4-1.9.8-4,2.1-7.8,3.6-11.6.7-1.7,1.7-2.2,3.5-1.6.9.3,1.8.7,2.7,1.1,1.2.6,1.7,1.6,1.7,3-.1,4.2-.2,8.4-.2,12.6,0,1.8.2,3.6.7,5.3.2.6.5,1.2.9,1.7.8,1.1,2.1,1,2.8,0,.5-.7.8-1.5,1-2.3.3-.8.4-1.7.6-2.5.3-.9.6-1.2,1.1-1.2.6,0,1,.5,1,1.4,0,.9-.2,1.8-.3,2.7-.2,1.3-.7,2.6-1.4,3.8-1.6,2.6-4.4,3.4-7.1,2-1.6-.8-2.7-2.2-3.4-3.8-.7-1.8-1.1-3.7-1.1-5.6-.1-3.4-.1-6.9-.2-10.3,0-.3,0-.6,0-.9,0,0,0,0-.2-.2-.1.3-.3.5-.4.8-2.1,4.7-3.3,9.6-3.7,14.7,0,.7,0,1.5,0,2.3,0,.9-.3,1.1-1.1,1.4-2.2.6-4.2-.4-4.9-2.6-.6-1.8-.8-3.6-1-5.5-.3-3.3-.4-6.6-.6-9.9,0-.3,0-.6-.1-.9,0,0-.1,0-.2,0-.2.3-.5.5-.6.8-1.7,3.3-2.9,6.7-3.3,10.3-.3,2.7-.4,5.3-.6,8,0,.3,0,.6,0,.9,0,.6-.4,1-1,1.1-1.6.3-3.1.3-4.6-.3-.7-.3-1-.7-1-1.4,0-.7-.1-1.3-.2-2.2-.2.3-.3.4-.3.5-.2.3-.3.6-.5.9-2.3,3.8-7.5,3.7-9.7-.1-.4-.7-.7-1.5-1.1-2.4-.2.2-.3.4-.5.6-.8.9-1.4,1.9-2.3,2.7-2,1.8-4.4,2.5-7,1.9-1.7-.4-3-1.4-4-2.8-.3-.4-.5-.7-.8-1.2-.3.5-.6.9-.9,1.3-.9,1.2-2,2.2-3.5,2.6-1.4.4-2.7.3-3.9-.4-2.1-1-3.5-2.7-4.2-4.8-.9-2.6-1.1-5.4-.9-8.1.2-2.4.5-4.8,1.1-7.2.2-.9,0-1-.8-1-.9,0-1.7,0-2.6,0-1,0-1,0-1.3.9-1.5,4.3-3.6,8.4-6.1,12.2-1.2,1.7-2.5,3.4-3.7,5-.4.6-.6,1.1-.6,1.8,0,2.8,0,5.6,0,8.3,0,2.6-.4,5.2-1.4,7.6-.9,2.5-2.4,4.6-5,5.7-3,1.3-6,1.2-8.7-.8-1.9-1.4-2.6-3.4-2.5-5.7,0-1.5.6-2.9,1.5-4.1,1-1.4,2.1-2.8,3.3-4,2-2,4-4,6.2-5.8,1.3-1,1.2-2.2,1.1-3.8-.4.4-.6.7-.9,1-1.3,1.5-2.9,2.7-4.9,3.1-3,.6-5.4-.3-7.3-2.7-.4-.5-.7-1-1-1.5-.2.3-.3.5-.4.7-.3.4-.5.8-.8,1.2-1.3,1.8-3,2.7-5.3,2.4-2.3-.3-4-1.5-4.9-3.7-.2-.5-.3-1-.6-1.6-.3.4-.5.7-.7,1-1.3,1.9-3,3.4-5.2,4.1-3.1.9-6.1,0-7.9-2.8-.5-.8-.9-1.7-1.3-2.6-.2-.4-.3-.8-.6-1.5-.2.5-.4.9-.6,1.2-.7,1.6-1.7,3-2.9,4.3-2.9,3-6.4,1.7-8.1-.3-1.2-1.4-1.8-3-2.3-4.7-.2-.9-.3-1.7-.5-2.6,0-.2,0-.4-.1-.7,0,0-.1,0-.2,0ZM324.4,581.3c0-.8,0-1.9-.2-3-.1-1.1-.4-2.3-.9-3.3-1.2-2.4-3.8-2.7-5.6-.7-.7.8-1.1,1.8-1.5,2.7-.7,1.9-.8,4-.9,6-.2,2.4,0,4.7.5,7,.2,1,.7,1.9,1.3,2.7.9,1.1,2.1,1.3,3.3.5.4-.3.8-.6,1.1-.9.8-.9,1.3-1.9,1.7-3.1.9-2.5,1.1-5,1.2-7.9ZM250.7,581.6c0-1,0-2,0-2.9,0-1.3-.4-2.5-1-3.7-1.3-2.3-3.9-2.6-5.6-.6-.8.9-1.2,1.9-1.5,3-1.1,3.8-1.2,7.7-.6,11.6.2,1.2.5,2.3,1.2,3.3,1.2,1.7,2.9,1.9,4.4.5.3-.3.7-.7.9-1,.5-.9,1-1.8,1.3-2.7.8-2.4,1.1-4.9,1-7.4ZM277.5,581.4c0-.9,0-1.8,0-2.6,0-1.3-.3-2.6-.9-3.8-.5-1.1-1.4-1.8-2.6-1.9-1,0-1.9.4-2.6,1.1-.9.9-1.5,2-1.9,3.2-1.3,4.1-1.5,8.3-.6,12.5.2.9.6,1.8,1,2.5,1,1.7,2.7,1.9,4.2.6.9-.8,1.6-1.8,2-2.9,1.1-2.8,1.5-5.7,1.4-8.6ZM278.2,600.1c-.3.2-.4.3-.5.4-1.2,1.3-2.4,2.5-3.6,3.8-1.2,1.3-2.2,2.8-3,4.4-.6,1.2-1,2.5-.9,3.9.1,2,2,3.3,3.9,2.6,1.1-.4,2-1.1,2.5-2.2.2-.6.5-1.2.6-1.8,1-3.6.9-7.3,1-11.2Z"/>
          <path class="cls-6" d="M160.3,558.1c-.3.3-.6.5-.9.7-1.8,1.7-2.9,3.8-3.7,6.1-1.1,3-1.6,6.1-1,9.4.2,1.3.7,2.5,1.4,3.6.2.4.4.7.5,1.1.1.6-.2,1.1-.9,1-.5,0-1.1-.2-1.6-.5-3.4-1.6-5.4-5.1-5.1-8.8.4-4.1,2-7.7,4.6-10.9,1.6-1.9,3.5-3.5,5.7-4.8,2.4-1.5,4.7-.8,6.7.5.5.3.6.8.7,1.4,0,.7,0,1.4,0,2.2,0,6.7,0,13.4,0,20,0,3.9,0,7.7-.1,11.6,0,2.1-.4,4.2-1.2,6.2-.9,2.2-2.3,4.1-4.4,5.2-.4.2-.8.4-1.3.5-.7.1-.9-.2-.8-.8,0-.3,0-.6.2-.9,1-2.9,1.3-5.9,1.3-9,0-4.3,0-8.5,0-12.8,0-6.4,0-12.9.1-19.3,0-.5.1-1.1-.3-1.7Z"/>
        </g>
        <g>
          <path class="cls-6" d="M48.2,585.6c0-6.6,0-13.2,0-19.7,0-4.8,1.4-9.1,4.2-12.9,3.9-5.2,9.1-8.2,15.7-8.9.8,0,1.7-.1,2.5-.1,12.9,0,25.8,0,38.7,0,10.8,0,19.9,7.5,21.8,18.1.2,1.3.3,2.6.3,3.9,0,13.1,0,26.1,0,39.2,0,10.5-7.3,19.4-17.2,21.5-1.5.3-3.1.5-4.7.5-13.2,0-26.3,0-39.5,0-10.6,0-19.6-7.6-21.5-18-.2-1.3-.3-2.7-.3-4.1,0-6.5,0-13,0-19.5ZM89.9,620.9c6.6,0,13.2,0,19.7,0,6.6,0,11.4-3.3,14.3-9.2,1.1-2.3,1.4-4.7,1.4-7.3,0-12.5,0-25,0-37.5,0-1.1,0-2.3-.2-3.4-1.2-7.8-7.7-13.4-15.7-13.4-13,0-26.1,0-39.1,0-1,0-2.1,0-3.1.3-7.6,1.5-12.7,7.9-12.7,15.6,0,13,0,25.9,0,38.9,0,.9,0,1.8.2,2.7,1.4,8.4,8.7,13.3,15.5,13.2,6.5,0,13.1,0,19.6,0Z"/>
          <path class="cls-6" d="M111.3,585.6c0,12.1-9.8,21.8-22.1,21.5-12-.3-21.2-10.3-20.8-22.1.3-11.4,9.8-21,21.9-20.8,11.6.2,21.2,10,21,21.5ZM76.1,585.5c0,7.7,6,13.8,13.7,13.9,7.6,0,13.8-6.1,13.8-13.7,0-7.7-6-13.8-13.6-13.8-7.7,0-13.9,6-13.9,13.7Z"/>
          <path class="cls-6" d="M112.1,558.4c2.8,0,5.1,2.2,5.1,5,0,2.8-2.3,5.2-5.1,5.2-2.7,0-5.1-2.4-5.1-5.2,0-2.8,2.3-5.1,5.2-5.1Z"/>
        </g>
      </g>
    </g>
  </g>
</svg>