<svg width="450" height="450" viewBox="0 0 450 450" fill="none" xmlns="http://www.w3.org/2000/svg">
<path d="M450.43 0H0V450H450.43V0Z" fill="#F9F5F1"/>
<path d="M167.64 235.17C215.446 235.17 254.2 196.416 254.2 148.61C254.2 100.804 215.446 62.0498 167.64 62.0498C119.834 62.0498 81.0801 100.804 81.0801 148.61C81.0801 196.416 119.834 235.17 167.64 235.17Z" stroke="#FF5252" stroke-width="4"/>
<path d="M93.43 191.4C66.68 192.21 48.63 188.08 46.35 179.01C42.16 162.3 93.07 135.14 160.06 118.36C227.05 101.57 284.75 101.51 288.94 118.22C291.11 126.87 276.82 138.84 254.89 150.2" stroke="#FF5252" stroke-width="4"/>
<path d="M58.2499 285.13V294.09H55.5499V285.13L45.1899 268.18H48.1099L56.9899 282.72L65.8699 268.18H68.6099L58.2499 285.13Z" fill="#FF5252"/>
<path d="M68.1299 284.35C68.1299 278.58 72.3499 274.47 78.0499 274.47C83.7499 274.47 87.9299 278.58 87.9299 284.35C87.9299 290.12 83.7499 294.27 78.0499 294.27C72.3499 294.27 68.1299 290.13 68.1299 284.35ZM85.2599 284.35C85.2599 279.8 82.1899 276.76 78.0399 276.76C73.8899 276.76 70.7899 279.79 70.7899 284.35C70.7899 288.91 73.8999 291.93 78.0399 291.93C82.1799 291.93 85.2599 288.9 85.2599 284.35Z" fill="#FF5252"/>
<path d="M110.82 274.62V294.08H108.3V290.53C106.93 292.9 104.41 294.27 101.31 294.27C96.3499 294.27 93.0999 291.5 93.0999 285.91V274.62H95.7299V285.65C95.7299 289.79 97.8799 291.9 101.58 291.9C105.65 291.9 108.2 289.27 108.2 284.83V274.62H110.83H110.82Z" fill="#FF5252"/>
<path d="M127.99 274.47V277.02C127.77 277.02 127.55 276.98 127.36 276.98C123.29 276.98 120.81 279.57 120.81 284.16V294.08H118.18V274.62H120.7V278.43C121.92 275.84 124.4 274.47 127.99 274.47Z" fill="#FF5252"/>
<path d="M135.72 300.19L136.64 298.19C137.42 298.86 138.45 299.19 139.68 299.19C141.75 299.19 142.9 297.93 142.9 295.53V274.62H145.53V295.53C145.53 299.12 143.53 301.45 139.83 301.45C138.28 301.45 136.68 301.04 135.72 300.19ZM142.31 268.48C142.31 267.48 143.16 266.63 144.23 266.63C145.3 266.63 146.15 267.44 146.15 268.44C146.15 269.51 145.34 270.36 144.23 270.36C143.12 270.36 142.31 269.51 142.31 268.47V268.48Z" fill="#FF5252"/>
<path d="M150.89 284.35C150.89 278.58 155.11 274.47 160.81 274.47C166.51 274.47 170.69 278.58 170.69 284.35C170.69 290.12 166.51 294.27 160.81 294.27C155.11 294.27 150.89 290.13 150.89 284.35ZM168.02 284.35C168.02 279.8 164.95 276.76 160.81 276.76C156.67 276.76 153.56 279.79 153.56 284.35C153.56 288.91 156.67 291.93 160.81 291.93C164.95 291.93 168.02 288.9 168.02 284.35Z" fill="#FF5252"/>
<path d="M193.59 274.62V294.08H191.07V290.53C189.7 292.9 187.18 294.27 184.08 294.27C179.12 294.27 175.87 291.5 175.87 285.91V274.62H178.5V285.65C178.5 289.79 180.65 291.9 184.35 291.9C188.42 291.9 190.97 289.27 190.97 284.83V274.62H193.6H193.59Z" fill="#FF5252"/>
<path d="M210.76 274.47V277.02C210.54 277.02 210.32 276.98 210.13 276.98C206.06 276.98 203.58 279.57 203.58 284.16V294.08H200.95V274.62H203.47V278.43C204.69 275.84 207.17 274.47 210.76 274.47Z" fill="#FF5252"/>
<path d="M233.4 282.8V294.09H230.77V283.06C230.77 278.95 228.62 276.84 224.92 276.84C220.74 276.84 218.11 279.43 218.11 283.87V294.08H215.48V274.62H218V278.21C219.41 275.84 222.03 274.47 225.4 274.47C230.14 274.47 233.39 277.21 233.39 282.8H233.4Z" fill="#FF5252"/>
<path d="M257.56 285.17H241.28C241.58 289.24 244.68 291.94 248.94 291.94C251.31 291.94 253.42 291.09 254.9 289.39L256.38 291.09C254.64 293.16 251.94 294.27 248.87 294.27C242.8 294.27 238.66 290.13 238.66 284.35C238.66 278.57 242.69 274.47 248.17 274.47C253.65 274.47 257.61 278.5 257.61 284.35C257.61 284.57 257.57 284.87 257.57 285.16L257.56 285.17ZM241.28 283.21H255.08C254.75 279.4 251.97 276.73 248.16 276.73C244.35 276.73 241.61 279.39 241.28 283.21Z" fill="#FF5252"/>
<path d="M278.95 274.62L269.22 296.41C267.59 300.22 265.52 301.44 262.74 301.44C260.93 301.44 259.19 300.85 258 299.66L259.22 297.7C260.18 298.66 261.37 299.18 262.77 299.18C264.51 299.18 265.69 298.37 266.8 295.92L267.65 294.03L258.95 274.6H261.69L269.02 291.14L276.35 274.6H278.94L278.95 274.62Z" fill="#FF5252"/>
<path d="M302.59 292.9C301.55 293.82 300 294.27 298.48 294.27C294.82 294.27 292.78 292.2 292.78 288.61V276.84H289.3V274.62H292.78V270.36H295.41V274.62H301.33V276.84H295.41V288.46C295.41 290.75 296.59 292.01 298.78 292.01C299.85 292.01 300.93 291.68 301.67 291.01L302.59 292.9Z" fill="#FF5252"/>
<path d="M304.7 284.35C304.7 278.58 308.92 274.47 314.62 274.47C320.32 274.47 324.5 278.58 324.5 284.35C324.5 290.12 320.32 294.27 314.62 294.27C308.92 294.27 304.7 290.13 304.7 284.35ZM321.83 284.35C321.83 279.8 318.76 276.76 314.62 276.76C310.48 276.76 307.37 279.79 307.37 284.35C307.37 288.91 310.48 291.93 314.62 291.93C318.76 291.93 321.83 288.9 321.83 284.35Z" fill="#FF5252"/>
<path d="M46.1099 336.27L47.2899 334.2C48.8399 335.42 51.4699 336.38 54.2099 336.38C57.9099 336.38 59.4299 335.12 59.4299 333.2C59.4299 328.13 46.8099 332.13 46.8099 324.43C46.8099 321.25 49.5499 318.88 54.5099 318.88C57.0299 318.88 59.7599 319.58 61.3899 320.69L60.2399 322.8C58.5399 321.62 56.4999 321.13 54.5099 321.13C50.9899 321.13 49.4399 322.5 49.4399 324.35C49.4399 329.6 62.0599 325.64 62.0599 333.12C62.0599 336.49 59.0999 338.67 54.0299 338.67C50.8099 338.67 47.6999 337.63 46.1099 336.27Z" fill="#FF5252"/>
<path d="M83.85 329.57H67.57C67.87 333.64 70.97 336.34 75.23 336.34C77.6 336.34 79.71 335.49 81.19 333.79L82.67 335.49C80.93 337.56 78.23 338.67 75.16 338.67C69.09 338.67 64.95 334.53 64.95 328.75C64.95 322.97 68.98 318.87 74.46 318.87C79.94 318.87 83.9 322.9 83.9 328.75C83.9 328.97 83.86 329.27 83.86 329.56L83.85 329.57ZM67.57 327.61H81.37C81.04 323.8 78.26 321.13 74.45 321.13C70.64 321.13 67.9 323.79 67.57 327.61Z" fill="#FF5252"/>
<path d="M103.39 326.42V338.48H100.87V335.45C99.6898 337.45 97.3898 338.67 94.1698 338.67C89.7698 338.67 87.0698 336.38 87.0698 333.01C87.0698 330.01 88.9898 327.5 94.5798 327.5H100.76V326.32C100.76 322.99 98.8698 321.18 95.2498 321.18C92.7298 321.18 90.3698 322.07 88.7698 323.47L87.5898 321.51C89.5498 319.84 92.4398 318.88 95.5098 318.88C100.54 318.88 103.39 321.4 103.39 326.43V326.42ZM100.76 332.64V329.46H94.6498C90.8698 329.46 89.6498 330.94 89.6498 332.94C89.6498 335.2 91.4598 336.6 94.5698 336.6C97.6798 336.6 99.7098 335.19 100.75 332.64H100.76Z" fill="#FF5252"/>
<path d="M142.64 327.199V338.489H140.01V327.459C140.01 323.349 137.94 321.239 134.42 321.239C130.42 321.239 127.91 323.829 127.91 328.269V338.479H125.28V327.449C125.28 323.339 123.21 321.229 119.66 321.229C115.7 321.229 113.15 323.819 113.15 328.259V338.469H110.52V319.009H113.04V322.559C114.41 320.229 116.93 318.859 120.18 318.859C123.43 318.859 125.92 320.229 127.1 322.969C128.51 320.449 131.28 318.859 134.8 318.859C139.54 318.859 142.64 321.599 142.64 327.189V327.199Z" fill="#FF5252"/>
<path d="M149.78 311.03H152.41V338.49H149.78V311.03Z" fill="#FF5252"/>
<path d="M176.68 329.57H160.4C160.7 333.64 163.8 336.34 168.06 336.34C170.43 336.34 172.54 335.49 174.02 333.79L175.5 335.49C173.76 337.56 171.06 338.67 167.99 338.67C161.92 338.67 157.78 334.53 157.78 328.75C157.78 322.97 161.81 318.87 167.29 318.87C172.77 318.87 176.73 322.9 176.73 328.75C176.73 328.97 176.69 329.27 176.69 329.56L176.68 329.57ZM160.4 327.61H174.2C173.87 323.8 171.09 321.13 167.28 321.13C163.47 321.13 160.73 323.79 160.4 327.61Z" fill="#FF5252"/>
<path d="M179.38 336.27L180.56 334.2C182.11 335.42 184.74 336.38 187.48 336.38C191.18 336.38 192.7 335.12 192.7 333.2C192.7 328.13 180.08 332.13 180.08 324.43C180.08 321.25 182.82 318.88 187.78 318.88C190.3 318.88 193.03 319.58 194.66 320.69L193.51 322.8C191.81 321.62 189.77 321.13 187.77 321.13C184.25 321.13 182.7 322.5 182.7 324.35C182.7 329.6 195.32 325.64 195.32 333.12C195.32 336.49 192.36 338.67 187.29 338.67C184.07 338.67 180.96 337.63 179.37 336.27H179.38Z" fill="#FF5252"/>
<path d="M197.47 336.27L198.65 334.2C200.2 335.42 202.83 336.38 205.57 336.38C209.27 336.38 210.79 335.12 210.79 333.2C210.79 328.13 198.17 332.13 198.17 324.43C198.17 321.25 200.91 318.88 205.87 318.88C208.39 318.88 211.12 319.58 212.75 320.69L211.6 322.8C209.9 321.62 207.86 321.13 205.87 321.13C202.35 321.13 200.8 322.5 200.8 324.35C200.8 329.6 213.42 325.64 213.42 333.12C213.42 336.49 210.46 338.67 205.39 338.67C202.17 338.67 199.06 337.63 197.47 336.27Z" fill="#FF5252"/>
<path d="M226 328.75C226 322.94 230.22 318.87 236.03 318.87C239.32 318.87 242.1 320.16 243.65 322.72L241.69 324.05C240.36 322.09 238.29 321.16 236.03 321.16C231.78 321.16 228.67 324.19 228.67 328.75C228.67 333.31 231.78 336.33 236.03 336.33C238.29 336.33 240.36 335.44 241.69 333.48L243.65 334.81C242.1 337.33 239.32 338.66 236.03 338.66C230.22 338.66 226 334.55 226 328.74V328.75Z" fill="#FF5252"/>
<path d="M266.33 319.02V338.479H263.81V334.93C262.44 337.3 259.93 338.669 256.82 338.669C251.86 338.669 248.61 335.9 248.61 330.31V319.02H251.24V330.049C251.24 334.189 253.39 336.299 257.09 336.299C261.16 336.299 263.71 333.669 263.71 329.229V319.02H266.34H266.33Z" fill="#FF5252"/>
<path d="M270.99 336.27L272.17 334.2C273.72 335.42 276.35 336.38 279.09 336.38C282.79 336.38 284.31 335.12 284.31 333.2C284.31 328.13 271.69 332.13 271.69 324.43C271.69 321.25 274.43 318.88 279.39 318.88C281.91 318.88 284.64 319.58 286.27 320.69L285.12 322.8C283.42 321.62 281.38 321.13 279.38 321.13C275.86 321.13 274.31 322.5 274.31 324.35C274.31 329.6 286.93 325.64 286.93 333.12C286.93 336.49 283.97 338.67 278.9 338.67C275.68 338.67 272.57 337.63 270.98 336.27H270.99Z" fill="#FF5252"/>
<path d="M302.04 337.3C301 338.22 299.45 338.67 297.93 338.67C294.27 338.67 292.23 336.6 292.23 333.01V321.24H288.75V319.02H292.23V314.76H294.86V319.02H300.78V321.24H294.86V332.86C294.86 335.15 296.04 336.41 298.23 336.41C299.3 336.41 300.38 336.08 301.12 335.41L302.05 337.3H302.04Z" fill="#FF5252"/>
<path d="M304.14 328.75C304.14 322.98 308.36 318.87 314.06 318.87C319.76 318.87 323.94 322.98 323.94 328.75C323.94 334.52 319.76 338.67 314.06 338.67C308.36 338.67 304.14 334.53 304.14 328.75ZM321.28 328.75C321.28 324.2 318.21 321.16 314.06 321.16C309.91 321.16 306.81 324.19 306.81 328.75C306.81 333.31 309.92 336.33 314.06 336.33C318.2 336.33 321.28 333.3 321.28 328.75Z" fill="#FF5252"/>
<path d="M361.42 327.199V338.489H358.79V327.459C358.79 323.349 356.72 321.239 353.2 321.239C349.2 321.239 346.69 323.829 346.69 328.269V338.479H344.06V327.449C344.06 323.339 341.99 321.229 338.44 321.229C334.48 321.229 331.93 323.819 331.93 328.259V338.469H329.3V319.009H331.82V322.559C333.19 320.229 335.71 318.859 338.96 318.859C342.21 318.859 344.69 320.229 345.88 322.969C347.29 320.449 350.06 318.859 353.58 318.859C358.32 318.859 361.42 321.599 361.42 327.189V327.199Z" fill="#FF5252"/>
<path d="M385.58 329.57H369.3C369.6 333.64 372.7 336.34 376.96 336.34C379.33 336.34 381.44 335.49 382.92 333.79L384.4 335.49C382.66 337.56 379.96 338.67 376.89 338.67C370.82 338.67 366.68 334.53 366.68 328.75C366.68 322.97 370.71 318.87 376.19 318.87C381.67 318.87 385.63 322.9 385.63 328.75C385.63 328.97 385.59 329.27 385.59 329.56L385.58 329.57ZM369.3 327.61H383.1C382.77 323.8 379.99 321.13 376.18 321.13C372.37 321.13 369.63 323.79 369.3 327.61Z" fill="#FF5252"/>
<path d="M400.79 318.87V321.42C400.57 321.42 400.35 321.38 400.16 321.38C396.09 321.38 393.61 323.97 393.61 328.56V338.48H390.98V319.02H393.5V322.83C394.72 320.24 397.2 318.87 400.79 318.87Z" fill="#FF5252"/>
<path d="M46.1099 380.659L47.2899 378.59C48.8399 379.81 51.4699 380.77 54.2099 380.77C57.9099 380.77 59.4299 379.51 59.4299 377.59C59.4299 372.52 46.8099 376.52 46.8099 368.82C46.8099 365.64 49.5499 363.27 54.5099 363.27C57.0299 363.27 59.7599 363.97 61.3899 365.08L60.2399 367.19C58.5399 366.01 56.4999 365.52 54.5099 365.52C50.9899 365.52 49.4399 366.89 49.4399 368.74C49.4399 373.99 62.0599 370.03 62.0599 377.51C62.0599 380.88 59.0999 383.06 54.0299 383.06C50.8099 383.06 47.6999 382.019 46.1099 380.659Z" fill="#FF5252"/>
<path d="M83.85 373.969H67.57C67.87 378.039 70.97 380.74 75.23 380.74C77.6 380.74 79.71 379.89 81.19 378.19L82.67 379.89C80.93 381.96 78.23 383.07 75.16 383.07C69.09 383.07 64.95 378.93 64.95 373.15C64.95 367.37 68.98 363.27 74.46 363.27C79.94 363.27 83.9 367.3 83.9 373.15C83.9 373.37 83.86 373.67 83.86 373.96L83.85 373.969ZM67.57 372.01H81.37C81.04 368.2 78.26 365.53 74.45 365.53C70.64 365.53 67.9 368.19 67.57 372.01Z" fill="#FF5252"/>
<path d="M99.06 363.27V365.82C98.84 365.82 98.62 365.78 98.43 365.78C94.36 365.78 91.88 368.37 91.88 372.96V382.88H89.25V363.419H91.77V367.229C92.99 364.639 95.47 363.27 99.06 363.27Z" fill="#FF5252"/>
<path d="M121 363.42L112.34 382.88H109.64L101.02 363.42H103.76L111.05 380L118.41 363.42H121Z" fill="#FF5252"/>
<path d="M124.1 357.28C124.1 356.28 124.95 355.43 126.02 355.43C127.09 355.43 127.94 356.24 127.94 357.24C127.94 358.31 127.13 359.16 126.02 359.16C124.91 359.16 124.1 358.31 124.1 357.27V357.28ZM124.7 363.42H127.33V382.88H124.7V363.42Z" fill="#FF5252"/>
<path d="M132.69 373.15C132.69 367.34 136.91 363.27 142.72 363.27C146.01 363.27 148.79 364.56 150.34 367.12L148.38 368.45C147.05 366.49 144.98 365.56 142.72 365.56C138.47 365.56 135.36 368.59 135.36 373.15C135.36 377.71 138.47 380.729 142.72 380.729C144.98 380.729 147.05 379.84 148.38 377.88L150.34 379.21C148.79 381.73 146.01 383.06 142.72 383.06C136.91 383.06 132.69 378.95 132.69 373.14V373.15Z" fill="#FF5252"/>
<path d="M172.09 373.969H155.81C156.11 378.039 159.21 380.74 163.47 380.74C165.84 380.74 167.95 379.89 169.43 378.19L170.91 379.89C169.17 381.96 166.47 383.07 163.4 383.07C157.33 383.07 153.19 378.93 153.19 373.15C153.19 367.37 157.22 363.27 162.7 363.27C168.18 363.27 172.14 367.3 172.14 373.15C172.14 373.37 172.1 373.67 172.1 373.96L172.09 373.969ZM155.81 372.01H169.61C169.28 368.2 166.5 365.53 162.69 365.53C158.88 365.53 156.14 368.19 155.81 372.01Z" fill="#FF5252"/>
<path d="M184.49 380.659L185.67 378.59C187.22 379.81 189.85 380.77 192.59 380.77C196.29 380.77 197.81 379.51 197.81 377.59C197.81 372.52 185.19 376.52 185.19 368.82C185.19 365.64 187.93 363.27 192.89 363.27C195.41 363.27 198.14 363.97 199.77 365.08L198.62 367.19C196.92 366.01 194.88 365.52 192.88 365.52C189.36 365.52 187.81 366.89 187.81 368.74C187.81 373.99 200.43 370.03 200.43 377.51C200.43 380.88 197.47 383.06 192.4 383.06C189.18 383.06 186.07 382.019 184.48 380.659H184.49Z" fill="#FF5252"/>
<path d="M215.53 381.7C214.49 382.63 212.94 383.07 211.42 383.07C207.76 383.07 205.72 381 205.72 377.41V365.64H202.24V363.42H205.72V359.16H208.35V363.42H214.27V365.64H208.35V377.26C208.35 379.55 209.53 380.81 211.72 380.81C212.79 380.81 213.87 380.48 214.61 379.81L215.54 381.7H215.53Z" fill="#FF5252"/>
<path d="M234.99 370.82V382.88H232.47V379.85C231.29 381.85 228.99 383.07 225.77 383.07C221.37 383.07 218.67 380.78 218.67 377.41C218.67 374.41 220.59 371.9 226.18 371.9H232.36V370.72C232.36 367.39 230.47 365.58 226.85 365.58C224.33 365.58 221.97 366.47 220.37 367.87L219.19 365.91C221.15 364.24 224.04 363.28 227.11 363.28C232.14 363.28 234.99 365.8 234.99 370.83V370.82ZM232.37 377.04V373.86H226.26C222.49 373.86 221.26 375.34 221.26 377.34C221.26 379.6 223.07 381 226.18 381C229.29 381 231.32 379.59 232.36 377.04H232.37Z" fill="#FF5252"/>
<path d="M251.94 363.27V365.82C251.72 365.82 251.5 365.78 251.31 365.78C247.24 365.78 244.76 368.37 244.76 372.96V382.88H242.13V363.419H244.65V367.229C245.87 364.639 248.35 363.27 251.94 363.27Z" fill="#FF5252"/>
<path d="M267.77 381.7C266.73 382.63 265.18 383.07 263.66 383.07C260 383.07 257.96 381 257.96 377.41V365.64H254.48V363.42H257.96V359.16H260.59V363.42H266.51V365.64H260.59V377.26C260.59 379.55 261.77 380.81 263.96 380.81C265.03 380.81 266.11 380.48 266.85 379.81L267.77 381.7Z" fill="#FF5252"/>
<path d="M269.85 380.659L271.03 378.59C272.58 379.81 275.21 380.77 277.95 380.77C281.65 380.77 283.17 379.51 283.17 377.59C283.17 372.52 270.55 376.52 270.55 368.82C270.55 365.64 273.29 363.27 278.25 363.27C280.77 363.27 283.5 363.97 285.13 365.08L283.98 367.19C282.28 366.01 280.24 365.52 278.24 365.52C274.72 365.52 273.17 366.89 273.17 368.74C273.17 373.99 285.79 370.03 285.79 377.51C285.79 380.88 282.83 383.06 277.76 383.06C274.54 383.06 271.43 382.019 269.84 380.659H269.85Z" fill="#FF5252"/>
<path d="M318.24 371.6V382.89H315.61V371.86C315.61 367.75 313.46 365.64 309.76 365.64C305.58 365.64 302.95 368.23 302.95 372.67V382.88H300.32V355.42H302.95V366.82C304.39 364.56 306.95 363.27 310.24 363.27C314.98 363.27 318.23 366.01 318.23 371.6H318.24Z" fill="#FF5252"/>
<path d="M342.4 373.969H326.12C326.42 378.039 329.52 380.74 333.78 380.74C336.15 380.74 338.26 379.89 339.74 378.19L341.22 379.89C339.48 381.96 336.78 383.07 333.71 383.07C327.64 383.07 323.5 378.93 323.5 373.15C323.5 367.37 327.53 363.27 333.01 363.27C338.49 363.27 342.45 367.3 342.45 373.15C342.45 373.37 342.41 373.67 342.41 373.96L342.4 373.969ZM326.12 372.01H339.92C339.59 368.2 336.81 365.53 333 365.53C329.19 365.53 326.45 368.19 326.12 372.01Z" fill="#FF5252"/>
<path d="M357.61 363.27V365.82C357.39 365.82 357.17 365.78 356.98 365.78C352.91 365.78 350.43 368.37 350.43 372.96V382.88H347.8V363.419H350.32V367.229C351.54 364.639 354.02 363.27 357.61 363.27Z" fill="#FF5252"/>
<path d="M379.11 373.969H362.83C363.13 378.039 366.23 380.74 370.49 380.74C372.86 380.74 374.97 379.89 376.45 378.19L377.93 379.89C376.19 381.96 373.49 383.07 370.42 383.07C364.35 383.07 360.21 378.93 360.21 373.15C360.21 367.37 364.24 363.27 369.72 363.27C375.2 363.27 379.16 367.3 379.16 373.15C379.16 373.37 379.12 373.67 379.12 373.96L379.11 373.969ZM362.82 372.01H376.62C376.29 368.2 373.51 365.53 369.7 365.53C365.89 365.53 363.15 368.19 362.82 372.01Z" fill="#FF5252"/>
<path d="M382.81 381.03C382.81 379.88 383.7 379.03 384.77 379.03C385.84 379.03 386.77 379.88 386.77 381.03C386.77 382.18 385.84 383.07 384.77 383.07C383.7 383.07 382.81 382.18 382.81 381.03Z" fill="#FF5252"/>
</svg>
