<?xml version="1.0" encoding="UTF-8"?>
<svg xmlns="http://www.w3.org/2000/svg" version="1.1" viewBox="0 0 450 900">
  <defs>
    <style>
      .cls-1 {
        fill: #292828;
      }

      .cls-2, .cls-3 {
        stroke: #ff5252;
      }

      .cls-2, .cls-3, .cls-4, .cls-5 {
        fill: none;
      }

      .cls-2, .cls-4, .cls-5 {
        stroke-width: 1.9px;
      }

      .cls-6 {
        fill: #42c684;
      }

      .cls-3 {
        stroke-width: 4px;
      }

      .cls-7 {
        fill: #fff;
      }

      .cls-8 {
        fill: #ff5252;
      }

      .cls-4 {
        stroke: #fff;
      }

      .cls-5 {
        stroke: #d7df22;
      }

      .cls-9 {
        fill: #51c387;
      }

      .cls-10 {
        fill: #f9f5f1;
      }

      .cls-11 {
        fill: #52c4d4;
      }

      .cls-12 {
        fill: #d7df22;
      }
    </style>
  </defs>
  <!-- Generator: Adobe Illustrator 28.7.1, SVG Export Plug-In . SVG Version: 1.2.0 Build 142)  -->
  <g>
    <g id="Layer_1">
      <g>
        <g>
          <rect class="cls-8" x="360.1" width="90.1" height="90.1"/>
          <rect class="cls-12" x="270" width="90.1" height="180.2"/>
          <rect class="cls-6" x="180" width="90.1" height="90.1"/>
          <rect class="cls-11" x="89.9" width="90.1" height="90.1"/>
          <rect class="cls-1" x="-.2" width="90.1" height="90.1"/>
          <rect class="cls-10" x="360.1" y="90.1" width="90.1" height="90.1"/>
          <rect class="cls-11" x="180" y="90.1" width="90.1" height="90.1"/>
          <rect class="cls-8" x="89.9" y="90.1" width="90.1" height="90.1"/>
          <rect class="cls-12" x="-.2" y="90.1" width="90.1" height="90.1"/>
          <rect class="cls-11" x="360.1" y="180.2" width="90.1" height="90.1"/>
          <rect class="cls-8" x="270" y="180.2" width="90.1" height="90.1"/>
          <rect class="cls-12" x="180" y="180.2" width="90.1" height="90.1"/>
          <rect class="cls-1" x="89.9" y="180.2" width="90.1" height="90.1"/>
          <rect class="cls-10" x="-.2" y="180.2" width="90.1" height="90.1"/>
          <rect class="cls-6" x="360.1" y="270" width="90.1" height="90.1"/>
          <rect class="cls-10" x="270" y="270" width="90.1" height="90.1"/>
          <rect class="cls-1" x="180" y="270" width="90.1" height="90.1"/>
          <rect class="cls-11" x="89.9" y="270" width="90.1" height="90.1"/>
          <rect class="cls-6" x="-.2" y="270" width="90.1" height="90.1"/>
          <rect class="cls-1" x="360.1" y="359.9" width="90.1" height="90.1"/>
          <rect class="cls-12" x="270" y="359.9" width="90.1" height="90.1"/>
          <rect class="cls-9" x="180" y="359.9" width="90.1" height="90.1"/>
          <rect class="cls-12" x="89.9" y="359.9" width="90.1" height="90.1"/>
          <rect class="cls-11" x="-.2" y="359.9" width="90.1" height="90.1"/>
          <polygon class="cls-4" points="225.4 157.1 194.3 157.1 225.4 114.9 256.5 157.1 225.4 157.1"/>
          <g>
            <path class="cls-4" d="M425.1,45.5h0c0,17.6-20.2,27.5-34.2,16.8h0c-11-8.5-11-25,0-33.5h0c13.9-10.8,34.2-.9,34.2,16.8h0Z"/>
            <rect class="cls-4" x="382.7" y="24.3" width="42.4" height="42.4" transform="translate(657.3 363.3) rotate(-135)"/>
          </g>
          <g>
            <rect class="cls-2" x="293.4" y="293.8" width="43.7" height="43.7" rx=".7" ry=".7" transform="translate(314.9 761.8) rotate(-135)"/>
            <path class="cls-2" d="M315.7,297.3l29.2,17.6c.6.3.6,1.2,0,1.5l-29.2,18.2c-.3.2-.7.2-.9,0l-29.2-18.2c-.6-.4-.6-1.2,0-1.5l29.2-17.6c.3-.2.6-.2.9,0Z"/>
            <path class="cls-2" d="M315.4,307.2l27.6,7.6c.9.2.9,1.5,0,1.7l-27.6,7.8c-.2,0-.3,0-.5,0l-27.6-7.8c-.9-.2-.9-1.5,0-1.7l27.6-7.6c.2,0,.3,0,.5,0Z"/>
          </g>
          <g>
            <polygon class="cls-4" points="56.5 136 56.5 167.1 17.5 136 56.5 104.9 56.5 136"/>
            <circle class="cls-4" cx="55.1" cy="136" r="14.9"/>
          </g>
          <g>
            <polygon class="cls-4" points="416.7 315.7 416.7 346.8 377.6 315.7 416.7 284.6 416.7 315.7"/>
            <circle class="cls-4" cx="415.2" cy="315.7" r="14.9"/>
          </g>
          <g>
            <g>
              <path class="cls-4" d="M252.1,377.5c-15.7,0-28.4,12.7-28.4,28.4s12.7,28.4,28.4,28.4v-56.8Z"/>
              <path class="cls-4" d="M223.7,377.5c15.7,0,28.4,12.7,28.4,28.4s-12.7,28.4-28.4,28.4v-56.8Z"/>
            </g>
            <circle class="cls-4" cx="237.9" cy="405.9" r="7.3"/>
            <g>
              <line class="cls-4" x1="215.1" y1="406.5" x2="198.7" y2="406.5"/>
              <line class="cls-4" x1="214.7" y1="397.8" x2="202.4" y2="385.5"/>
              <line class="cls-4" x1="214.7" y1="414" x2="202.4" y2="426.3"/>
            </g>
          </g>
          <g>
            <g>
              <path class="cls-4" d="M430.6,197.2c-15.7,0-28.4,12.7-28.4,28.4s12.7,28.4,28.4,28.4v-56.8Z"/>
              <path class="cls-4" d="M402.2,197.2c15.7,0,28.4,12.7,28.4,28.4s-12.7,28.4-28.4,28.4v-56.8Z"/>
            </g>
            <circle class="cls-4" cx="416.4" cy="225.6" r="7.3"/>
            <g>
              <line class="cls-4" x1="393.6" y1="226.1" x2="377.2" y2="226.1"/>
              <line class="cls-4" x1="393.2" y1="217.5" x2="380.9" y2="205.2"/>
              <line class="cls-4" x1="393.2" y1="233.6" x2="380.9" y2="246"/>
            </g>
          </g>
          <g>
            <polygon class="cls-5" points="248.1 45.5 248.1 76.8 202.4 45.5 248.1 14.2 248.1 45.5"/>
            <circle class="cls-5" cx="233.4" cy="45.5" r="15"/>
            <line class="cls-5" x1="248.1" y1="14.2" x2="239.1" y2="31.7"/>
            <line class="cls-5" x1="218.4" y1="45.5" x2="202.4" y2="45.5"/>
            <line class="cls-5" x1="238.6" y1="59.5" x2="248.1" y2="75.6"/>
          </g>
          <g>
            <polygon class="cls-2" points="338 405.9 338 437.2 292.3 405.9 338 374.6 338 405.9"/>
            <circle class="cls-2" cx="323.2" cy="405.9" r="15"/>
            <line class="cls-2" x1="338" y1="374.6" x2="328.9" y2="392.1"/>
            <line class="cls-2" x1="308.2" y1="405.9" x2="292.3" y2="405.9"/>
            <line class="cls-2" x1="328.4" y1="419.9" x2="338" y2="436"/>
          </g>
          <g>
            <rect class="cls-4" x="290.8" y="111.6" width="48.9" height="48.9" transform="translate(179.2 451.2) rotate(-90)"/>
            <rect class="cls-4" x="297.9" y="118.7" width="34.5" height="34.5" transform="translate(441.9 455) rotate(-135)"/>
            <rect class="cls-4" x="303" y="123.8" width="24.4" height="24.4" transform="translate(179.2 451.2) rotate(-90)"/>
          </g>
          <g>
            <rect class="cls-4" x="19.3" y="381.5" width="48.9" height="48.9" transform="translate(-362.2 449.6) rotate(-90)"/>
            <rect class="cls-4" x="26.5" y="388.6" width="34.5" height="34.5" transform="translate(-212.3 723.8) rotate(-135)"/>
            <rect class="cls-4" x="31.5" y="393.7" width="24.4" height="24.4" transform="translate(-362.2 449.6) rotate(-90)"/>
          </g>
          <g>
            <circle class="cls-4" cx="315.2" cy="45.5" r="22.9"/>
            <path class="cls-4" d="M303.9,25.9c-.2-7.1.9-11.8,3.3-12.4,4.4-1.1,11.6,12.3,16,30,4.4,17.7,4.4,32.9,0,34-2.3.6-5.3-2.8-8.3-8.5"/>
          </g>
          <g>
            <circle class="cls-5" cx="403.9" cy="405.9" r="22.9"/>
            <path class="cls-5" d="M392.6,386.3c-.2-7.1.9-11.8,3.3-12.4,4.4-1.1,11.6,12.3,16,30,4.4,17.7,4.4,32.9,0,34-2.3.6-5.3-2.8-8.3-8.5"/>
          </g>
          <g>
            <circle class="cls-2" cx="43.7" cy="225.6" r="22.9"/>
            <path class="cls-2" d="M32.4,206c-.2-7.1.9-11.8,3.3-12.4,4.4-1.1,11.6,12.3,16,30,4.4,17.7,4.4,32.9,0,34-2.3.6-5.3-2.8-8.3-8.5"/>
          </g>
          <g>
            <line class="cls-5" x1="385.4" y1="117.5" x2="396.7" y2="128.8"/>
            <line class="cls-5" x1="403.9" y1="109.9" x2="403.9" y2="125.9"/>
            <line class="cls-5" x1="422.3" y1="117.5" x2="411" y2="128.8"/>
            <line class="cls-5" x1="430" y1="136" x2="414" y2="136"/>
            <line class="cls-5" x1="411" y1="143.2" x2="422.3" y2="154.5"/>
            <line class="cls-5" x1="403.9" y1="146.1" x2="403.9" y2="162.1"/>
            <line class="cls-5" x1="396.7" y1="143.2" x2="385.4" y2="154.5"/>
            <line class="cls-5" x1="393.7" y1="136" x2="377.8" y2="136"/>
          </g>
          <g>
            <line class="cls-5" x1="115.7" y1="297.2" x2="126.9" y2="308.5"/>
            <line class="cls-5" x1="134.1" y1="289.6" x2="134.1" y2="305.5"/>
            <line class="cls-5" x1="152.6" y1="297.2" x2="141.3" y2="308.5"/>
            <line class="cls-5" x1="160.2" y1="315.7" x2="144.3" y2="315.7"/>
            <line class="cls-5" x1="141.3" y1="322.8" x2="152.6" y2="334.1"/>
            <line class="cls-5" x1="134.1" y1="325.8" x2="134.1" y2="341.8"/>
            <line class="cls-5" x1="126.9" y1="322.8" x2="115.7" y2="334.1"/>
            <line class="cls-5" x1="124" y1="315.7" x2="108" y2="315.7"/>
          </g>
          <g>
            <line class="cls-4" x1="206.9" y1="207.1" x2="218.2" y2="218.4"/>
            <line class="cls-4" x1="225.4" y1="199.5" x2="225.4" y2="215.4"/>
            <line class="cls-4" x1="243.8" y1="207.1" x2="232.6" y2="218.4"/>
            <line class="cls-4" x1="251.5" y1="225.6" x2="235.5" y2="225.6"/>
            <line class="cls-4" x1="232.6" y1="232.7" x2="243.8" y2="244"/>
            <line class="cls-4" x1="225.4" y1="235.7" x2="225.4" y2="251.7"/>
            <line class="cls-4" x1="218.2" y1="232.7" x2="206.9" y2="244"/>
            <line class="cls-4" x1="215.2" y1="225.6" x2="199.3" y2="225.6"/>
          </g>
          <g>
            <line class="cls-4" x1="25.3" y1="27" x2="43.7" y2="45.5"/>
            <line class="cls-4" x1="43.7" y1="19.4" x2="43.7" y2="45.5"/>
            <line class="cls-4" x1="62.2" y1="27" x2="43.7" y2="45.5"/>
            <line class="cls-4" x1="69.8" y1="45.5" x2="43.7" y2="45.5"/>
            <line class="cls-4" x1="62.2" y1="64" x2="43.7" y2="45.5"/>
            <line class="cls-4" x1="43.7" y1="71.6" x2="43.7" y2="45.5"/>
            <line class="cls-4" x1="25.3" y1="64" x2="43.7" y2="45.5"/>
            <line class="cls-4" x1="17.6" y1="45.5" x2="43.7" y2="45.5"/>
          </g>
          <path class="cls-4" d="M137.3,74.6c-25.8-11.6-25.8-46.5,0-58.1M150.3,45.5c0,5.4-4.3,9.7-9.7,9.7s-9.7-4.3-9.7-9.7,4.3-9.7,9.7-9.7,9.7,4.3,9.7,9.7Z"/>
          <path class="cls-2" d="M137.3,435c-25.8-11.6-25.8-46.5,0-58.1M150.3,405.9c0,5.4-4.3,9.7-9.7,9.7s-9.7-4.3-9.7-9.7,4.3-9.7,9.7-9.7,9.7,4.3,9.7,9.7Z"/>
          <path class="cls-4" d="M155.2,136h0c0,17.5-20.1,27.4-34,16.7h0c-10.9-8.4-10.9-24.9,0-33.3h0c13.9-10.7,34-.8,34,16.7h0Z"/>
          <g>
            <path class="cls-7" d="M204.5,329c-4.6,0-7.5-2.2-7.5-7.2v-7.8h-3.1v-4.9h3.1v-3.9h6v3.9h6.4v4.9h-6.4v7.1c0,2,.8,2.5,2.9,2.5h3.6v5.4h-4.9Z"/>
            <path class="cls-7" d="M219.1,323.6h13.3v5.4h-21.1v-5.4l12.7-9.1.7-.5h-12.8v-4.9h19.9v5.1c-4.2,3.1-8.5,6.3-12.7,9.4Z"/>
            <path class="cls-7" d="M234.3,329v-26.6h6v14.1h4.5l5.1-7.4h7.1l-7.3,9.6,7.1,10.3h-7l-5-7.2h-4.6v7.2h-6Z"/>
          </g>
          <g>
            <path class="cls-7" d="M73.7,311.3c-.7-.7-1.6-1.1-2.5-1.1h-3c0-.8,0-1.5,0-2.3-.2-2-.6-4.4-1.6-6.9,3.3-1.7,5.3-3.5,5.1-5.5-.3-2.7-4.3-4.1-13.6-5.1-6.6-4.4-13.9-4.3-15-4.2-.5,0-11.1.5-17.9,8.3-11.4,4.2-12.7,6.6-12.4,8.6.3,2.1,3.2,3.4,7.2,4.1v4.1s-2.9,0-2.9,0c-1,0-1.9.4-2.6,1s-1.1,1.6-1.1,2.5v10.5c-.1,1,.2,1.9.9,2.6.7.7,1.6,1.1,2.5,1.1h2.9s0,2,0,2c0,3.7,2.9,6.7,6.6,6.8h2.8s0,4.6,0,4.6c0,1,.5,1.9,1.4,2.4.4.2.9.4,1.4.4s.9-.1,1.4-.4l6.3-3.9c2.9-1.8,6.3-2.7,9.7-2.6,3.8.2,9,.3,12.4,0,.9,0,3-.3,4.6-1.9,1.3-1.3,2-2.9,2-4.7v-3.7s2.9,0,2.9,0h.1c1.9,0,3.5-1.6,3.5-3.5v-10.5c.1-1-.2-1.9-.9-2.6h0ZM68.9,295.8c0,.6-1.4,1.6-3.5,2.7-.5-.9-1-1.7-1.6-2.6-.6-.8-1.2-1.5-1.8-2.2,6.3,1,7,2.1,7,2.1ZM43.2,289c1.2,0,12-.2,18.4,8.5.5.7.9,1.4,1.3,2.1-4.8,2-12.1,4.1-20.3,5.1-7.5.9-14.5.8-19.5.2.4-2.1,1.1-4,2.1-5.8,5.5-9.6,17.4-10.2,17.9-10.2ZM15.5,302.8c0,0,.4-1.4,6.9-4.2-1,1.9-1.6,3.8-2,5.9-2.8-.5-4.6-1.2-4.9-1.8h0ZM17,326.2c-.2,0-.4,0-.6-.2-.2-.2-.2-.4-.2-.6v-10.5c.1-.2.2-.4.4-.6.2-.1.3-.2.5-.2h2.9s-.1,12.1-.1,12.1h-2.9ZM64.1,334.3c-.8.8-1.9,1-3,1.1-3.2.3-8.3.2-12,0-4-.2-7.9.9-11.3,3l-6.2,3.9v-7.3c0,0-5.4,0-5.4,0-2.2,0-3.9-1.8-3.9-4v-2h0l.2-17.6h0v-3.3h0c0-.2,0-.3,0-.5,3.4.4,7.4.5,11.1.4,3.3,0,6.5-.3,9-.6,5.8-.7,14.8-2.7,21.1-5.3,1,2.5,1.3,4.9,1.4,6.7l-.2,22.7c0,1-.4,2-1.2,2.8ZM71.9,324.3c0,.5-.3.8-.8.8h-2.9s.1-12.1.1-12.1h2.9c.2,0,.4.1.6.3.2.2.2.4.2.6v10.5c-.1,0-.1,0-.1,0Z"/>
            <g>
              <path class="cls-7" d="M42.4,327.8c-3.2-.2-6.4-1.2-9.2-2.8l-1.4,2.4c3.2,1.9,6.8,3,10.4,3.2.7,0,1.4,0,2,0,5.3-.1,9.4-2,11.5-3.3l-1.4-2.4c-2.1,1.2-6.4,3.2-11.9,2.9h0Z"/>
              <path class="cls-7" d="M50.8,314.7c1.7,0,3,1.4,3,3s-1.4,3-3,3-3-1.4-3-3,1.4-3,3-3M50.8,311.7c-3.3,0-6,2.7-6,6s2.7,6,6,6,6-2.7,6-6-2.7-6-6-6h0Z"/>
              <path class="cls-7" d="M36.7,314.7c1.7,0,3,1.4,3,3s-1.4,3-3,3-3-1.4-3-3,1.4-3,3-3M36.7,311.7c-3.3,0-6,2.7-6,6s2.7,6,6,6,6-2.7,6-6-2.7-6-6-6h0Z"/>
            </g>
          </g>
          <g>
            <path class="cls-7" d="M345.1,220.5c-.7-.7-1.6-1.1-2.5-1.1h-3c0-.8,0-1.5,0-2.3-.2-2-.6-4.4-1.6-6.9,3.3-1.7,5.3-3.5,5.1-5.5-.3-2.7-4.3-4.1-13.6-5.1-6.6-4.4-13.9-4.3-15-4.2-.5,0-11.1.5-17.9,8.3-11.4,4.2-12.7,6.6-12.4,8.6.3,2.1,3.2,3.4,7.2,4.1v4.1s-2.9,0-2.9,0c-1,0-1.9.4-2.6,1s-1.1,1.6-1.1,2.5v10.5c-.1,1,.2,1.9.9,2.6.7.7,1.6,1.1,2.5,1.1h2.9s0,2,0,2c0,3.7,2.9,6.7,6.6,6.8h2.8s0,4.6,0,4.6c0,1,.5,1.9,1.4,2.4.4.2.9.4,1.4.4s.9-.1,1.4-.4l6.3-3.9c2.9-1.8,6.3-2.7,9.7-2.6,3.8.2,9,.3,12.4,0,.9,0,3-.3,4.6-1.9,1.3-1.3,2-2.9,2-4.7v-3.7s2.9,0,2.9,0h.1c1.9,0,3.5-1.6,3.5-3.5v-10.5c.1-1-.2-1.9-.9-2.6h0ZM340.3,205.1c0,.6-1.4,1.6-3.5,2.7-.5-.9-1-1.7-1.6-2.6-.6-.8-1.2-1.5-1.8-2.2,6.3,1,7,2.1,7,2.1ZM314.5,198.2c1.2,0,12-.2,18.4,8.5.5.7.9,1.4,1.3,2.1-4.8,2-12.1,4.1-20.3,5.1-7.5.9-14.5.8-19.5.2.4-2.1,1.1-4,2.1-5.8,5.5-9.6,17.4-10.2,17.9-10.2ZM286.8,212c0,0,.4-1.4,6.9-4.2-1,1.9-1.6,3.8-2,5.9-2.8-.5-4.6-1.2-4.9-1.8h0ZM288.3,235.5c-.2,0-.4,0-.6-.2-.2-.2-.2-.4-.2-.6v-10.5c.1-.2.2-.4.4-.6.2-.1.3-.2.5-.2h2.9s-.1,12.1-.1,12.1h-2.9ZM335.5,243.5c-.8.8-1.9,1-3,1.1-3.2.3-8.3.2-12,0-4-.2-7.9.9-11.3,3l-6.2,3.9v-7.3c0,0-5.4,0-5.4,0-2.2,0-3.9-1.8-3.9-4v-2h0l.2-17.6h0v-3.3h0c0-.2,0-.3,0-.5,3.4.4,7.4.5,11.1.4,3.3,0,6.5-.3,9-.6,5.8-.7,14.8-2.7,21.1-5.3,1,2.5,1.3,4.9,1.4,6.7l-.2,22.7c0,1-.4,2-1.2,2.8ZM343.2,233.5c0,.5-.3.8-.8.8h-2.9s.1-12.1.1-12.1h2.9c.2,0,.4.1.6.3.2.2.2.4.2.6v10.5c-.1,0-.1,0-.1,0Z"/>
            <g>
              <path class="cls-7" d="M313.7,237c-3.2-.2-6.4-1.2-9.2-2.8l-1.4,2.4c3.2,1.9,6.8,3,10.4,3.2.7,0,1.4,0,2,0,5.3-.1,9.4-2,11.5-3.3l-1.4-2.4c-2.1,1.2-6.4,3.2-11.9,2.9h0Z"/>
              <path class="cls-7" d="M322.1,223.9c1.7,0,3,1.4,3,3s-1.4,3-3,3-3-1.4-3-3,1.4-3,3-3M322.1,220.9c-3.3,0-6,2.7-6,6s2.7,6,6,6,6-2.7,6-6-2.7-6-6-6h0Z"/>
              <path class="cls-7" d="M308,223.9c1.7,0,3,1.4,3,3s-1.4,3-3,3-3-1.4-3-3,1.4-3,3-3M308,220.9c-3.3,0-6,2.7-6,6s2.7,6,6,6,6-2.7,6-6-2.7-6-6-6h0Z"/>
            </g>
          </g>
          <g>
            <rect class="cls-4" x="115.5" y="203.4" width="43.7" height="43.7" rx=".7" ry=".7" transform="translate(75.2 481.6) rotate(-135)"/>
            <path class="cls-4" d="M137.8,206.8l29.2,17.6c.6.3.6,1.2,0,1.5l-29.2,18.2c-.3.2-.7.2-.9,0l-29.2-18.2c-.6-.4-.6-1.2,0-1.5l29.2-17.6c.3-.2.6-.2.9,0Z"/>
            <path class="cls-4" d="M137.6,216.8l27.6,7.6c.9.2.9,1.5,0,1.7l-27.6,7.8c-.2,0-.3,0-.5,0l-27.6-7.8c-.9-.2-.9-1.5,0-1.7l27.6-7.6c.2,0,.3,0,.5,0Z"/>
          </g>
        </g>
        <g>
          <rect class="cls-10" x="-.2" y="450" width="450.4" height="450"/>
          <g>
            <circle class="cls-3" cx="167.4" cy="598.6" r="86.6"/>
            <path class="cls-3" d="M93.2,641.4c-26.8.8-44.8-3.3-47.1-12.4-4.2-16.7,46.7-43.9,113.7-60.7,67-16.8,124.7-16.8,128.9-.1,2.2,8.6-12.1,20.6-34.1,32"/>
          </g>
          <g>
            <path class="cls-8" d="M58,735.1v9h-2.7v-9l-10.4-16.9h2.9l8.9,14.5,8.9-14.5h2.7l-10.4,16.9Z"/>
            <path class="cls-8" d="M67.9,734.4c0-5.8,4.2-9.9,9.9-9.9s9.9,4.1,9.9,9.9-4.2,9.9-9.9,9.9-9.9-4.1-9.9-9.9ZM85,734.4c0-4.6-3.1-7.6-7.2-7.6s-7.3,3-7.3,7.6,3.1,7.6,7.3,7.6,7.2-3,7.2-7.6Z"/>
            <path class="cls-8" d="M110.6,724.6v19.5h-2.5v-3.6c-1.4,2.4-3.9,3.7-7,3.7-5,0-8.2-2.8-8.2-8.4v-11.3h2.6v11c0,4.1,2.1,6.3,5.8,6.3s6.6-2.6,6.6-7.1v-10.2h2.6Z"/>
            <path class="cls-8" d="M127.8,724.5v2.6c-.2,0-.4,0-.6,0-4.1,0-6.5,2.6-6.5,7.2v9.9h-2.6v-19.5h2.5v3.8c1.2-2.6,3.7-4,7.3-4Z"/>
            <path class="cls-8" d="M135.5,750.2l.9-2c.8.7,1.8,1,3,1,2.1,0,3.2-1.3,3.2-3.7v-20.9h2.6v20.9c0,3.6-2,5.9-5.7,5.9s-3.1-.4-4.1-1.3ZM142.1,718.5c0-1,.9-1.9,1.9-1.9s1.9.8,1.9,1.8-.8,1.9-1.9,1.9-1.9-.9-1.9-1.9Z"/>
            <path class="cls-8" d="M150.7,734.4c0-5.8,4.2-9.9,9.9-9.9s9.9,4.1,9.9,9.9-4.2,9.9-9.9,9.9-9.9-4.1-9.9-9.9ZM167.8,734.4c0-4.6-3.1-7.6-7.2-7.6s-7.3,3-7.3,7.6,3.1,7.6,7.3,7.6,7.2-3,7.2-7.6Z"/>
            <path class="cls-8" d="M193.4,724.6v19.5h-2.5v-3.6c-1.4,2.4-3.9,3.7-7,3.7-5,0-8.2-2.8-8.2-8.4v-11.3h2.6v11c0,4.1,2.1,6.3,5.8,6.3s6.6-2.6,6.6-7.1v-10.2h2.6Z"/>
            <path class="cls-8" d="M210.5,724.5v2.6c-.2,0-.4,0-.6,0-4.1,0-6.5,2.6-6.5,7.2v9.9h-2.6v-19.5h2.5v3.8c1.2-2.6,3.7-4,7.3-4Z"/>
            <path class="cls-8" d="M233.2,732.8v11.3h-2.6v-11c0-4.1-2.1-6.2-5.8-6.2s-6.8,2.6-6.8,7v10.2h-2.6v-19.5h2.5v3.6c1.4-2.4,4-3.7,7.4-3.7s8,2.7,8,8.3Z"/>
            <path class="cls-8" d="M257.4,735.2h-16.3c.3,4.1,3.4,6.8,7.7,6.8s4.5-.9,6-2.6l1.5,1.7c-1.7,2.1-4.4,3.2-7.5,3.2-6.1,0-10.2-4.1-10.2-9.9s4-9.9,9.5-9.9,9.4,4,9.4,9.9,0,.5,0,.8ZM241.1,733.2h13.8c-.3-3.8-3.1-6.5-6.9-6.5s-6.5,2.7-6.9,6.5Z"/>
            <path class="cls-8" d="M278.7,724.6l-9.7,21.8c-1.6,3.8-3.7,5-6.5,5s-3.6-.6-4.7-1.8l1.2-2c1,1,2.1,1.5,3.6,1.5s2.9-.8,4-3.3l.9-1.9-8.7-19.4h2.7l7.3,16.5,7.3-16.5h2.6Z"/>
            <path class="cls-8" d="M302.4,742.9c-1,.9-2.6,1.4-4.1,1.4-3.7,0-5.7-2.1-5.7-5.7v-11.8h-3.5v-2.2h3.5v-4.3h2.6v4.3h5.9v2.2h-5.9v11.6c0,2.3,1.2,3.6,3.4,3.6s2.1-.3,2.9-1l.9,1.9Z"/>
            <path class="cls-8" d="M304.5,734.4c0-5.8,4.2-9.9,9.9-9.9s9.9,4.1,9.9,9.9-4.2,9.9-9.9,9.9-9.9-4.1-9.9-9.9ZM321.6,734.4c0-4.6-3.1-7.6-7.2-7.6s-7.3,3-7.3,7.6,3.1,7.6,7.3,7.6,7.2-3,7.2-7.6Z"/>
            <path class="cls-8" d="M45.9,786.3l1.2-2.1c1.6,1.2,4.2,2.2,6.9,2.2s5.2-1.3,5.2-3.2c0-5.1-12.6-1.1-12.6-8.8s2.7-5.6,7.7-5.6,5.3.7,6.9,1.8l-1.1,2.1c-1.7-1.2-3.7-1.7-5.7-1.7-3.5,0-5.1,1.4-5.1,3.2,0,5.3,12.6,1.3,12.6,8.8s-3,5.5-8,5.5-6.3-1-7.9-2.4Z"/>
            <path class="cls-8" d="M83.6,779.6h-16.3c.3,4.1,3.4,6.8,7.7,6.8s4.5-.9,6-2.6l1.5,1.7c-1.7,2.1-4.4,3.2-7.5,3.2-6.1,0-10.2-4.1-10.2-9.9s4-9.9,9.5-9.9,9.4,4,9.4,9.9,0,.5,0,.8ZM67.4,777.6h13.8c-.3-3.8-3.1-6.5-6.9-6.5s-6.5,2.7-6.9,6.5Z"/>
            <path class="cls-8" d="M103.2,776.4v12.1h-2.5v-3c-1.2,2-3.5,3.2-6.7,3.2s-7.1-2.3-7.1-5.7,1.9-5.5,7.5-5.5h6.2v-1.2c0-3.3-1.9-5.1-5.5-5.1s-4.9.9-6.5,2.3l-1.2-2c2-1.7,4.8-2.6,7.9-2.6,5,0,7.9,2.5,7.9,7.5ZM100.5,782.6v-3.2h-6.1c-3.8,0-5,1.5-5,3.5s1.8,3.7,4.9,3.7,5.1-1.4,6.2-4Z"/>
            <path class="cls-8" d="M142.4,777.2v11.3h-2.6v-11c0-4.1-2.1-6.2-5.6-6.2s-6.5,2.6-6.5,7v10.2h-2.6v-11c0-4.1-2.1-6.2-5.6-6.2s-6.5,2.6-6.5,7v10.2h-2.6v-19.5h2.5v3.6c1.4-2.3,3.9-3.7,7.1-3.7s5.7,1.4,6.9,4.1c1.4-2.5,4.2-4.1,7.7-4.1s7.8,2.7,7.8,8.3Z"/>
            <path class="cls-8" d="M149.6,761h2.6v27.5h-2.6v-27.5Z"/>
            <path class="cls-8" d="M176.5,779.6h-16.3c.3,4.1,3.4,6.8,7.7,6.8s4.5-.9,6-2.6l1.5,1.7c-1.7,2.1-4.4,3.2-7.5,3.2-6.1,0-10.2-4.1-10.2-9.9s4-9.9,9.5-9.9,9.4,4,9.4,9.9,0,.5,0,.8ZM160.2,777.6h13.8c-.3-3.8-3.1-6.5-6.9-6.5s-6.5,2.7-6.9,6.5Z"/>
            <path class="cls-8" d="M179.2,786.3l1.2-2.1c1.6,1.2,4.2,2.2,6.9,2.2s5.2-1.3,5.2-3.2c0-5.1-12.6-1.1-12.6-8.8s2.7-5.6,7.7-5.6,5.3.7,6.9,1.8l-1.1,2.1c-1.7-1.2-3.7-1.7-5.7-1.7-3.5,0-5.1,1.4-5.1,3.2,0,5.3,12.6,1.3,12.6,8.8s-3,5.5-8,5.5-6.3-1-7.9-2.4Z"/>
            <path class="cls-8" d="M197.3,786.3l1.2-2.1c1.6,1.2,4.2,2.2,6.9,2.2s5.2-1.3,5.2-3.2c0-5.1-12.6-1.1-12.6-8.8s2.7-5.6,7.7-5.6,5.3.7,6.9,1.8l-1.1,2.1c-1.7-1.2-3.7-1.7-5.7-1.7-3.5,0-5.1,1.4-5.1,3.2,0,5.3,12.6,1.3,12.6,8.8s-3,5.5-8,5.5-6.3-1-7.9-2.4Z"/>
            <path class="cls-8" d="M225.8,778.8c0-5.8,4.2-9.9,10-9.9s6.1,1.3,7.6,3.8l-2,1.3c-1.3-2-3.4-2.9-5.7-2.9-4.3,0-7.4,3-7.4,7.6s3.1,7.6,7.4,7.6,4.3-.9,5.7-2.8l2,1.3c-1.6,2.5-4.3,3.8-7.6,3.8-5.8,0-10-4.1-10-9.9Z"/>
            <path class="cls-8" d="M266.1,769v19.5h-2.5v-3.6c-1.4,2.4-3.9,3.7-7,3.7-5,0-8.2-2.8-8.2-8.4v-11.3h2.6v11c0,4.1,2.1,6.3,5.8,6.3s6.6-2.6,6.6-7.1v-10.2h2.6Z"/>
            <path class="cls-8" d="M270.8,786.3l1.2-2.1c1.6,1.2,4.2,2.2,6.9,2.2s5.2-1.3,5.2-3.2c0-5.1-12.6-1.1-12.6-8.8s2.7-5.6,7.7-5.6,5.3.7,6.9,1.8l-1.1,2.1c-1.7-1.2-3.7-1.7-5.7-1.7-3.5,0-5.1,1.4-5.1,3.2,0,5.3,12.6,1.3,12.6,8.8s-3,5.5-8,5.5-6.3-1-7.9-2.4Z"/>
            <path class="cls-8" d="M301.8,787.3c-1,.9-2.6,1.4-4.1,1.4-3.7,0-5.7-2.1-5.7-5.7v-11.8h-3.5v-2.2h3.5v-4.3h2.6v4.3h5.9v2.2h-5.9v11.6c0,2.3,1.2,3.6,3.4,3.6s2.1-.3,2.9-1l.9,1.9Z"/>
            <path class="cls-8" d="M303.9,778.8c0-5.8,4.2-9.9,9.9-9.9s9.9,4.1,9.9,9.9-4.2,9.9-9.9,9.9-9.9-4.1-9.9-9.9ZM321.1,778.8c0-4.6-3.1-7.6-7.2-7.6s-7.3,3-7.3,7.6,3.1,7.6,7.3,7.6,7.2-3,7.2-7.6Z"/>
            <path class="cls-8" d="M361.2,777.2v11.3h-2.6v-11c0-4.1-2.1-6.2-5.6-6.2s-6.5,2.6-6.5,7v10.2h-2.6v-11c0-4.1-2.1-6.2-5.6-6.2s-6.5,2.6-6.5,7v10.2h-2.6v-19.5h2.5v3.6c1.4-2.3,3.9-3.7,7.1-3.7s5.7,1.4,6.9,4.1c1.4-2.5,4.2-4.1,7.7-4.1s7.8,2.7,7.8,8.3Z"/>
            <path class="cls-8" d="M385.4,779.6h-16.3c.3,4.1,3.4,6.8,7.7,6.8s4.5-.9,6-2.6l1.5,1.7c-1.7,2.1-4.4,3.2-7.5,3.2-6.1,0-10.2-4.1-10.2-9.9s4-9.9,9.5-9.9,9.4,4,9.4,9.9,0,.5,0,.8ZM369.1,777.6h13.8c-.3-3.8-3.1-6.5-6.9-6.5s-6.5,2.7-6.9,6.5Z"/>
            <path class="cls-8" d="M400.6,768.9v2.6c-.2,0-.4,0-.6,0-4.1,0-6.5,2.6-6.5,7.2v9.9h-2.6v-19.5h2.5v3.8c1.2-2.6,3.7-4,7.3-4Z"/>
            <path class="cls-8" d="M45.9,830.7l1.2-2.1c1.6,1.2,4.2,2.2,6.9,2.2s5.2-1.3,5.2-3.2c0-5.1-12.6-1.1-12.6-8.8s2.7-5.6,7.7-5.6,5.3.7,6.9,1.8l-1.1,2.1c-1.7-1.2-3.7-1.7-5.7-1.7-3.5,0-5.1,1.4-5.1,3.2,0,5.3,12.6,1.3,12.6,8.8s-3,5.5-8,5.5-6.3-1-7.9-2.4Z"/>
            <path class="cls-8" d="M83.6,824h-16.3c.3,4.1,3.4,6.8,7.7,6.8s4.5-.9,6-2.6l1.5,1.7c-1.7,2.1-4.4,3.2-7.5,3.2-6.1,0-10.2-4.1-10.2-9.9s4-9.9,9.5-9.9,9.4,4,9.4,9.9,0,.5,0,.8ZM67.4,822h13.8c-.3-3.8-3.1-6.5-6.9-6.5s-6.5,2.7-6.9,6.5Z"/>
            <path class="cls-8" d="M98.8,813.3v2.6c-.2,0-.4,0-.6,0-4.1,0-6.5,2.6-6.5,7.2v9.9h-2.6v-19.5h2.5v3.8c1.2-2.6,3.7-4,7.3-4Z"/>
            <path class="cls-8" d="M120.8,813.4l-8.7,19.5h-2.7l-8.6-19.5h2.7l7.3,16.6,7.4-16.6h2.6Z"/>
            <path class="cls-8" d="M123.9,807.3c0-1,.9-1.9,1.9-1.9s1.9.8,1.9,1.8-.8,1.9-1.9,1.9-1.9-.9-1.9-1.9ZM124.5,813.4h2.6v19.5h-2.6v-19.5Z"/>
            <path class="cls-8" d="M132.5,823.2c0-5.8,4.2-9.9,10-9.9s6.1,1.3,7.6,3.8l-2,1.3c-1.3-2-3.4-2.9-5.7-2.9-4.3,0-7.4,3-7.4,7.6s3.1,7.6,7.4,7.6,4.3-.9,5.7-2.8l2,1.3c-1.6,2.5-4.3,3.8-7.6,3.8-5.8,0-10-4.1-10-9.9Z"/>
            <path class="cls-8" d="M171.9,824h-16.3c.3,4.1,3.4,6.8,7.7,6.8s4.5-.9,6-2.6l1.5,1.7c-1.7,2.1-4.4,3.2-7.5,3.2-6.1,0-10.2-4.1-10.2-9.9s4-9.9,9.5-9.9,9.4,4,9.4,9.9,0,.5,0,.8ZM155.6,822h13.8c-.3-3.8-3.1-6.5-6.9-6.5s-6.5,2.7-6.9,6.5Z"/>
            <path class="cls-8" d="M184.3,830.7l1.2-2.1c1.6,1.2,4.2,2.2,6.9,2.2s5.2-1.3,5.2-3.2c0-5.1-12.6-1.1-12.6-8.8s2.7-5.6,7.7-5.6,5.3.7,6.9,1.8l-1.1,2.1c-1.7-1.2-3.7-1.7-5.7-1.7-3.5,0-5.1,1.4-5.1,3.2,0,5.3,12.6,1.3,12.6,8.8s-3,5.5-8,5.5-6.3-1-7.9-2.4Z"/>
            <path class="cls-8" d="M215.3,831.7c-1,.9-2.6,1.4-4.1,1.4-3.7,0-5.7-2.1-5.7-5.7v-11.8h-3.5v-2.2h3.5v-4.3h2.6v4.3h5.9v2.2h-5.9v11.6c0,2.3,1.2,3.6,3.4,3.6s2.1-.3,2.9-1l.9,1.9Z"/>
            <path class="cls-8" d="M234.8,820.8v12.1h-2.5v-3c-1.2,2-3.5,3.2-6.7,3.2s-7.1-2.3-7.1-5.7,1.9-5.5,7.5-5.5h6.2v-1.2c0-3.3-1.9-5.1-5.5-5.1s-4.9.9-6.5,2.3l-1.2-2c2-1.7,4.8-2.6,7.9-2.6,5,0,7.9,2.5,7.9,7.5ZM232.2,827v-3.2h-6.1c-3.8,0-5,1.5-5,3.5s1.8,3.7,4.9,3.7,5.1-1.4,6.2-4Z"/>
            <path class="cls-8" d="M251.7,813.3v2.6c-.2,0-.4,0-.6,0-4.1,0-6.5,2.6-6.5,7.2v9.9h-2.6v-19.5h2.5v3.8c1.2-2.6,3.7-4,7.3-4Z"/>
            <path class="cls-8" d="M267.6,831.7c-1,.9-2.6,1.4-4.1,1.4-3.7,0-5.7-2.1-5.7-5.7v-11.8h-3.5v-2.2h3.5v-4.3h2.6v4.3h5.9v2.2h-5.9v11.6c0,2.3,1.2,3.6,3.4,3.6s2.1-.3,2.9-1l.9,1.9Z"/>
            <path class="cls-8" d="M269.6,830.7l1.2-2.1c1.6,1.2,4.2,2.2,6.9,2.2s5.2-1.3,5.2-3.2c0-5.1-12.6-1.1-12.6-8.8s2.7-5.6,7.7-5.6,5.3.7,6.9,1.8l-1.1,2.1c-1.7-1.2-3.7-1.7-5.7-1.7-3.5,0-5.1,1.4-5.1,3.2,0,5.3,12.6,1.3,12.6,8.8s-3,5.5-8,5.5-6.3-1-7.9-2.4Z"/>
            <path class="cls-8" d="M318,821.6v11.3h-2.6v-11c0-4.1-2.1-6.2-5.8-6.2s-6.8,2.6-6.8,7v10.2h-2.6v-27.5h2.6v11.4c1.4-2.3,4-3.6,7.3-3.6,4.7,0,8,2.7,8,8.3Z"/>
            <path class="cls-8" d="M342.2,824h-16.3c.3,4.1,3.4,6.8,7.7,6.8s4.5-.9,6-2.6l1.5,1.7c-1.7,2.1-4.4,3.2-7.5,3.2-6.1,0-10.2-4.1-10.2-9.9s4-9.9,9.5-9.9,9.4,4,9.4,9.9,0,.5,0,.8ZM325.9,822h13.8c-.3-3.8-3.1-6.5-6.9-6.5s-6.5,2.7-6.9,6.5Z"/>
            <path class="cls-8" d="M357.4,813.3v2.6c-.2,0-.4,0-.6,0-4.1,0-6.5,2.6-6.5,7.2v9.9h-2.6v-19.5h2.5v3.8c1.2-2.6,3.7-4,7.3-4Z"/>
            <path class="cls-8" d="M378.9,824h-16.3c.3,4.1,3.4,6.8,7.7,6.8s4.5-.9,6-2.6l1.5,1.7c-1.7,2.1-4.4,3.2-7.5,3.2-6.1,0-10.2-4.1-10.2-9.9s4-9.9,9.5-9.9,9.4,4,9.4,9.9,0,.5,0,.8ZM362.6,822h13.8c-.3-3.8-3.1-6.5-6.9-6.5s-6.5,2.7-6.9,6.5Z"/>
            <path class="cls-8" d="M382.6,831c0-1.1.9-2,2-2s2,.9,2,2-.9,2-2,2-2-.9-2-2Z"/>
          </g>
        </g>
      </g>
    </g>
  </g>
</svg>