<svg width="294" height="97" viewBox="0 0 294 97" fill="none" xmlns="http://www.w3.org/2000/svg">
<path d="M18.5096 79.6296V96.8196L34.5896 87.6796C39.0696 88.9696 43.8397 89.6696 48.7597 89.6696C75.2297 89.6696 96.6597 69.6696 96.6597 44.9896C96.6597 20.3096 75.2297 0.30957 48.7597 0.30957C22.2897 0.30957 0.889648 20.3096 0.889648 44.9896C0.889648 58.9596 7.73965 71.4296 18.5196 79.6296H18.5096Z" fill="white"/>
<path d="M43.6601 32.7598L17.8301 60.1097L41.3401 47.2297L53.6101 60.1097L79.2901 32.7598L56.0401 45.4398L43.6501 32.7598H43.6601Z" fill="#0080F9"/>
<path d="M208.34 26.3691C206.82 26.3691 205.73 26.8691 204.62 27.3691V38.8792C205.67 38.9692 206.32 38.9691 207.31 38.9691C210.97 38.9691 211.47 37.2992 211.47 34.9592V29.4592C211.47 27.7592 210.88 26.3892 208.34 26.3892V26.3691ZM184.06 25.7592C181.51 25.7592 180.96 27.1691 180.96 28.8591V29.8292H187.2V28.8591C187.17 27.1291 186.61 25.7292 184.07 25.7592H184.06ZM137.07 37.7291C137.07 39.1091 137.71 39.7792 139.12 39.7792C140.64 39.7792 141.55 39.2792 142.66 38.7792V36.0591H139.32C137.77 36.0291 137.07 36.3191 137.07 37.7291ZM231.97 26.3691C229.45 26.3691 228.54 27.7491 228.54 29.4691V35.7692C228.54 37.4992 229.42 38.8992 231.97 38.8992C234.52 38.8992 235.4 37.5192 235.4 35.7692V29.4691C235.37 27.7691 234.49 26.3691 231.97 26.3691ZM124.62 44.7891H117.15V26.7191H113.43V20.4791H117.15V16.7291C117.15 11.6391 119.26 8.61914 125.23 8.61914H130.21V14.8591H127.11C124.77 14.8591 124.62 15.7391 124.62 17.3491V20.4492H130.27L129.6 26.6891H124.62V44.7891ZM150.13 44.8192H143.92L143.66 43.2391C141.52 44.4391 139.09 45.0791 136.6 45.0591C132.03 45.0591 129.6 42.0091 129.6 37.7991C129.6 32.8191 132.44 31.0692 137.51 31.0692H142.66V29.9891C142.66 27.4391 142.37 26.7092 138.47 26.7092H132.09L132.7 20.4691H139.67C148.25 20.4691 150.12 23.1591 150.12 30.0391V44.8292L150.13 44.8192ZM171.3 27.1591C167.43 26.4891 166.32 26.3392 164.45 26.3392C161.11 26.3392 160.09 27.0691 160.09 29.9091V35.2991C160.09 38.1391 161.11 38.8691 164.45 38.8691C166.32 38.8691 167.44 38.7191 171.3 38.0491V44.1091C167.9 44.8691 165.71 45.0792 163.83 45.0792C155.81 45.0792 152.62 40.8592 152.62 34.7692V30.4091C152.62 24.3191 155.81 20.0991 163.83 20.0991C165.7 20.0991 167.9 20.2992 171.3 21.0692V27.1591ZM194.66 34.7991H180.96V35.2991C180.96 38.1391 181.98 38.8691 185.32 38.8691C188.31 38.8691 190.15 38.7191 194.05 38.0491V44.1091C190.33 44.8691 188.37 45.0792 184.71 45.0792C176.69 45.0792 173.5 40.8592 173.5 34.7692V29.7891C173.5 24.4591 175.87 20.0991 184.07 20.0991C192.27 20.0991 194.64 24.3991 194.64 29.7891L194.67 34.7991H194.66ZM218.91 34.9191C218.91 40.8091 217.24 45.1091 207.05 45.1091C203.36 45.1091 201.22 44.7891 197.15 44.1691V10.5292L204.62 9.26917V21.0391C206.23 20.4491 208.31 20.1292 210.21 20.1292C217.68 20.1292 218.94 23.4691 218.94 28.8591L218.91 34.9191ZM242.83 35.0692C242.83 40.1392 240.72 45.0792 231.97 45.0792C223.22 45.0792 221.05 40.1592 221.05 35.0692V30.1791C221.05 25.0891 223.19 20.1691 231.97 20.1691C240.75 20.1691 242.83 25.0891 242.83 30.1791V35.0692ZM266.75 35.0692C266.75 40.1392 264.64 45.0792 255.89 45.0792C247.14 45.0792 244.97 40.1592 244.97 35.0692V30.1791C244.97 25.0891 247.11 20.1691 255.89 20.1691C264.67 20.1691 266.75 25.0891 266.75 30.1791V35.0692ZM291.29 44.7891H283.21L276.36 33.3691V44.7891H268.89V10.5292L276.36 9.26917V31.3192L283.21 20.4891H291.29L283.82 32.3192L291.29 44.7891ZM255.86 26.3691C253.31 26.3691 252.43 27.7491 252.43 29.4691V35.7692C252.43 37.4992 253.31 38.8992 255.86 38.8992C258.41 38.8992 259.29 37.5192 259.29 35.7692V29.4691C259.29 27.7391 258.38 26.3691 255.86 26.3691ZM116.02 53.7491H118.25L128.97 79.0491H129.06L139.66 53.7491H142.27V80.9191H140.4V55.6191H140.34L129.89 80.9191H128.19L117.62 55.6191H117.91V80.9191H116.04V53.7491H116.02ZM146.97 71.5792V71.4891C146.97 72.6291 147.23 73.7391 147.56 74.7991C147.89 75.8591 148.38 76.7591 148.99 77.5491C149.6 78.3391 150.4 78.9791 151.3 79.4191C152.21 79.8591 153.29 80.1191 154.49 80.1191C156.45 80.1191 158.06 79.6492 159.2 78.6292C160.34 77.6092 161.16 76.2592 161.6 74.3792H163.06C162.62 76.2492 161.68 78.3891 160.25 79.6191C158.82 80.8491 156.88 81.4391 154.51 81.4391C153.05 81.4391 151.79 81.1492 150.67 80.6492C149.59 80.1192 148.68 79.3891 147.95 78.4791C147.22 77.5691 146.66 76.4892 146.31 75.2592C145.96 74.0292 145.78 72.6791 145.78 71.2491C145.78 69.8191 145.96 68.5292 146.34 67.2692C146.72 66.0092 147.28 64.8991 148.01 63.9291C148.77 62.9591 149.71 62.1691 150.79 61.6191C151.9 61.0291 153.22 60.7391 154.74 60.7391C156.12 60.7391 157.35 60.9991 158.4 61.4991C159.45 61.9991 160.36 62.6991 161.06 63.6091C161.76 64.5191 162.32 65.5091 162.7 66.6791C163.08 67.8491 163.26 69.0791 163.26 70.4291L163.23 71.0192L163.2 71.5792H146.95H146.97ZM161.72 69.7092C161.66 68.7092 161.49 67.7491 161.19 66.8091C160.9 65.8991 160.43 65.0791 159.81 64.3491C159.2 63.6191 158.46 63.0592 157.61 62.6492C156.76 62.2092 155.77 62.0092 154.65 62.0092C153.48 62.0092 152.42 62.2391 151.52 62.6791C150.61 63.1191 149.85 63.6991 149.24 64.4691C148.63 65.2291 148.16 65.8991 147.81 66.8691C147.49 67.8391 147.28 68.7692 147.2 69.7092H161.72ZM167.32 74.3892C167.38 75.3292 167.58 76.1192 167.93 76.8192C168.28 77.4892 168.75 78.1092 169.34 78.6392C169.93 79.1392 170.63 79.5192 171.36 79.7792C172.12 80.0392 172.97 80.1591 173.85 80.1591C174.49 80.1591 175.17 80.0991 175.9 79.9791C176.6 79.8591 177.31 79.6592 177.95 79.3392C178.56 79.0492 179.09 78.6091 179.5 78.0491C179.91 77.4891 180.11 76.7891 180.11 75.9391C180.11 74.8291 179.79 74.0092 179.11 73.4492C178.44 72.8892 177.62 72.4492 176.59 72.1292C175.56 71.8092 174.48 71.5691 173.31 71.3691C172.14 71.1691 171.06 70.8991 170.03 70.4891C169.01 70.1091 168.19 69.5491 167.51 68.8491C166.84 68.1491 166.51 67.1191 166.51 65.7491C166.51 64.7791 166.71 63.9592 167.15 63.3192C167.59 62.6792 168.15 62.1492 168.82 61.7692C169.49 61.3892 170.25 61.0992 171.1 60.9492C171.95 60.7692 172.8 60.6891 173.65 60.6891C174.62 60.6891 175.58 60.8091 176.52 61.0391C177.43 61.2691 178.19 61.6492 178.83 62.1492C179.47 62.6792 180 63.2292 180.38 64.0192C180.76 64.8092 180.94 65.8892 180.94 66.8292H179.48C179.48 65.8892 179.33 65.2491 179.04 64.5991C178.75 63.9591 178.34 63.4892 177.81 63.0792C177.28 62.6692 176.67 62.4092 175.94 62.1992C175.21 61.9892 174.45 61.9091 173.63 61.9091C172.96 61.9091 172.28 61.9691 171.61 62.1091C170.94 62.2291 170.32 62.4591 169.79 62.7491C169.26 63.0391 168.82 63.4492 168.47 63.9492C168.12 64.4492 167.94 65.0292 167.94 65.7092C167.94 66.4992 168.14 67.1392 168.53 67.6392C168.91 68.1392 169.41 68.5191 170.05 68.8091C170.69 69.0991 171.37 69.3392 172.16 69.5092L174.53 70.0391L177.28 70.6791C178.13 70.9091 178.89 71.2691 179.51 71.6791C180.13 72.0891 180.65 72.6492 181 73.3192C181.35 73.9592 181.53 74.8391 181.53 75.8691C181.53 76.9491 181.3 77.8292 180.8 78.5292C180.33 79.1992 179.69 79.7892 178.96 80.1992C178.23 80.6092 177.38 80.9292 176.47 81.0792C175.59 81.2592 174.68 81.3092 173.81 81.3392C172.67 81.3392 171.64 81.1892 170.68 80.8992C169.72 80.6092 168.89 80.1691 168.16 79.5491C167.43 78.9291 166.87 78.1991 166.46 77.3491C166.05 76.4691 165.85 75.2391 165.82 74.2991L167.31 74.3591L167.32 74.3892ZM185.79 74.3892C185.85 75.3292 186.05 76.1192 186.4 76.8192C186.75 77.4892 187.22 78.1092 187.81 78.6392C188.4 79.1392 189.1 79.5192 189.83 79.7792C190.59 80.0392 191.44 80.1591 192.32 80.1591C192.96 80.1591 193.64 80.0991 194.37 79.9791C195.07 79.8591 195.78 79.6592 196.42 79.3392C197.03 79.0492 197.56 78.6091 197.97 78.0491C198.38 77.4891 198.58 76.7891 198.58 75.9391C198.58 74.8291 198.26 74.0092 197.58 73.4492C196.9 72.8892 196.09 72.4492 195.06 72.1292C194.03 71.8092 192.95 71.5691 191.78 71.3691C190.61 71.1691 189.53 70.8991 188.5 70.4891C187.48 70.1091 186.66 69.5491 185.98 68.8491C185.31 68.1491 184.98 67.1191 184.98 65.7491C184.98 64.7791 185.18 63.9592 185.62 63.3192C186.06 62.6792 186.62 62.1492 187.29 61.7692C187.96 61.3892 188.72 61.0992 189.57 60.9492C190.42 60.7692 191.27 60.6891 192.12 60.6891C193.09 60.6891 194.05 60.8091 194.99 61.0391C195.9 61.2691 196.66 61.6492 197.3 62.1492C197.94 62.6792 198.47 63.2292 198.85 64.0192C199.23 64.8092 199.41 65.8892 199.41 66.8292H197.95C197.95 65.8892 197.8 65.2491 197.51 64.5991C197.22 63.9591 196.81 63.4892 196.28 63.0792C195.75 62.6692 195.14 62.4092 194.41 62.1992C193.68 61.9892 192.92 61.9091 192.1 61.9091C191.43 61.9091 190.75 61.9691 190.08 62.1091C189.41 62.2291 188.79 62.4591 188.26 62.7491C187.73 63.0391 187.29 63.4492 186.94 63.9492C186.59 64.4492 186.41 65.0292 186.41 65.7092C186.41 66.4992 186.61 67.1392 187 67.6392C187.39 68.1392 187.88 68.5191 188.52 68.8091C189.13 69.0991 189.84 69.3392 190.63 69.5092L193 70.0391L195.75 70.6791C196.6 70.9091 197.36 71.2691 197.98 71.6791C198.6 72.0891 199.12 72.6492 199.47 73.3192C199.82 73.9592 200 74.8391 200 75.8691C200 76.9491 199.77 77.8292 199.27 78.5292C198.8 79.1992 198.16 79.7892 197.43 80.1992C196.7 80.6092 195.85 80.9292 194.94 81.0792C194.06 81.2592 193.15 81.3092 192.28 81.3392C191.14 81.3392 190.11 81.1892 189.15 80.8992C188.19 80.6092 187.36 80.1691 186.63 79.5491C185.9 78.9291 185.34 78.1991 184.93 77.3491C184.52 76.4691 184.32 75.2391 184.29 74.2991L185.78 74.3591L185.79 74.3892ZM204.15 71.5792V71.4891C204.15 72.6291 204.3 73.7391 204.59 74.7991C204.88 75.8591 205.35 76.7591 205.97 77.5491C206.58 78.3391 207.35 78.9791 208.25 79.4191C209.15 79.8591 210.21 80.1191 211.44 80.1191C213.4 80.1191 214.98 79.6492 216.15 78.6292C217.29 77.6092 218.08 76.2592 218.52 74.3792H219.98C219.54 76.2492 218.6 78.3891 217.17 79.6191C215.74 80.8491 213.8 81.4391 211.43 81.4391C209.97 81.4391 208.71 81.1492 207.59 80.6492C206.51 80.1192 205.6 79.3891 204.87 78.4791C204.14 77.5691 203.58 76.4892 203.23 75.2592C202.88 74.0292 202.7 72.6791 202.7 71.2491C202.7 69.8191 202.88 68.5292 203.26 67.2692C203.64 66.0092 204.2 64.8991 204.93 63.9291C205.69 62.9591 206.63 62.1691 207.71 61.6191C208.82 61.0291 210.14 60.7391 211.66 60.7391C213.04 60.7391 214.27 60.9991 215.32 61.4991C216.37 61.9991 217.28 62.6991 217.98 63.6091C218.68 64.5191 219.24 65.5091 219.62 66.6791C220 67.8491 220.18 69.0791 220.18 70.4291L220.15 71.0192L220.12 71.5792H204.13H204.15ZM218.64 69.7092C218.58 68.7092 218.41 67.7491 218.11 66.8091C217.82 65.8991 217.35 65.0791 216.73 64.3491C216.12 63.6191 215.38 63.0592 214.53 62.6492C213.68 62.2092 212.69 62.0092 211.57 62.0092C210.4 62.0092 209.34 62.2391 208.44 62.6791C207.53 63.1191 206.77 63.6991 206.16 64.4691C205.55 65.2391 205.08 65.8991 204.73 66.8691C204.41 67.8391 204.2 68.7692 204.12 69.7092H218.64ZM223.83 61.2692H224.77V65.0192H225.06C225.32 65.0192 225.67 63.8191 226.14 63.2291C226.61 62.6391 227.16 62.2591 227.78 61.8491C228.4 61.4391 229.1 61.2091 229.83 60.9691C230.56 60.7291 231.32 60.6791 232.08 60.6791C233.22 60.6791 234.22 60.8291 235.01 61.1191C235.83 61.4091 236.47 61.7891 236.97 62.2291C237.47 62.6691 237.88 63.1992 238.17 63.7792C238.46 64.3392 238.67 64.9191 238.81 65.5391C238.93 66.1291 238.84 66.7091 238.87 67.2391C238.9 67.7991 238.72 68.2591 238.72 68.6691V80.8792H237.78V68.4091C237.78 67.9091 237.66 67.2992 237.58 66.5692C237.5 65.8392 237.23 65.1091 236.88 64.4291C236.5 63.7591 235.91 63.1691 235.18 62.6691C234.42 62.1691 233.36 61.9391 232.05 61.9391C230.91 61.9391 229.91 62.1391 229.03 62.5491C228.18 62.9591 227.42 63.5491 226.8 64.2491C226.19 64.9791 225.6 65.8591 225.28 66.8591C224.96 67.8791 224.69 68.9692 224.69 70.1992V80.8892H223.75V61.2692H223.81H223.83ZM259.46 61.2692V79.9191C259.46 81.0291 259.49 82.0892 259.23 83.1392C258.97 84.1592 258.62 85.0992 258 85.8892C257.39 86.6792 256.57 87.3191 255.45 87.7891C254.33 88.2591 252.99 88.4891 251.29 88.4891C250.24 88.4891 249.27 88.3691 248.33 88.1691C247.42 87.9691 246.6 87.6092 245.93 87.1492C245.23 86.6792 244.7 85.8291 244.26 85.0391C243.85 84.2491 243.62 83.7791 243.56 81.9091H245.02C245.11 82.8491 245.31 83.7491 245.66 84.3691C246.01 84.9791 246.48 85.5992 247.07 86.0092C247.66 86.4192 248.3 86.7691 249 86.9191C249.7 87.0991 250.49 87.2092 251.31 87.2092C252.66 87.2092 253.8 87.0091 254.71 86.6191C255.62 86.2091 256.35 85.6791 256.88 85.0391C257.41 84.3991 257.88 83.6291 258.08 82.8091C258.28 81.9891 258.49 81.1391 258.49 80.2891V75.3392H258.23C257.53 77.2092 256.59 78.1192 255.42 78.8792C254.22 79.6392 252.78 80.1392 251.12 80.1392C249.66 80.1392 248.4 79.9391 247.34 79.4391C246.29 78.9391 245.41 78.2692 244.7 77.3892C243.99 76.5092 243.47 75.4892 243.12 74.3192C242.77 73.1492 242.59 71.8591 242.59 70.4791C242.59 69.0991 242.77 67.9292 243.15 66.7592C243.53 65.5892 244.06 64.5591 244.79 63.6591C245.52 62.7591 246.4 62.0791 247.45 61.5491C248.5 61.0191 249.73 60.7592 251.11 60.7592C252.66 60.7592 254.13 61.0191 255.44 61.8091C256.76 62.5991 257.69 64.0892 258.25 65.0292H258.48V61.2792L259.45 61.2491L259.46 61.2692ZM251.12 62.0092C249.92 62.0092 248.87 62.2391 247.99 62.7391C247.11 63.2391 246.38 63.8791 245.79 64.6691C245.2 65.4891 244.77 66.3992 244.47 67.3892C244.18 68.4092 244.03 69.4391 244.03 70.4891C244.03 71.6291 244.18 72.7392 244.47 73.7692C244.76 74.7992 245.2 75.6991 245.82 76.4891C246.41 77.2491 247.17 77.8691 248.05 78.3091C248.93 78.7491 249.95 78.9791 251.1 78.9791C252.3 78.9791 253.35 78.7492 254.26 78.2792C255.17 77.8092 255.9 77.1991 256.51 76.4091C257.12 75.5891 257.56 74.6791 257.86 73.6891C258.15 72.6691 258.3 71.6091 258.3 70.4691C258.3 69.3291 258.15 68.3292 257.86 67.2792C257.57 66.2592 257.13 65.3491 256.51 64.5591C255.89 63.7691 255.13 63.1491 254.26 62.6891C253.38 62.2491 252.33 62.0492 251.13 62.0192L251.12 62.0092ZM265.08 71.5792V71.4891C265.08 72.6291 265.02 73.7391 265.34 74.7991C265.66 75.8591 266.01 76.7591 266.6 77.5491C267.21 78.3391 267.92 78.9791 268.83 79.4191C269.74 79.8591 270.76 80.1191 271.99 80.1191C273.95 80.1191 275.53 79.6492 276.67 78.6292C277.84 77.6092 278.6 76.2592 279.07 74.3792H280.53C280.09 76.2492 279.15 78.3891 277.72 79.6191C276.29 80.8491 274.35 81.4391 271.98 81.4391C270.52 81.4391 269.26 81.1492 268.14 80.6492C267.06 80.1192 266.15 79.3891 265.42 78.4791C264.69 77.5691 264.13 76.4892 263.78 75.2592C263.43 74.0292 263.25 72.6791 263.25 71.2491C263.25 69.8191 263.43 68.5292 263.81 67.2692C264.16 66.0692 264.72 64.9291 265.48 63.9291C266.21 62.9591 267.15 62.1991 268.26 61.6191C269.37 61.0391 270.69 60.7391 272.21 60.7391C273.59 60.7391 274.82 60.9991 275.87 61.4991C276.92 61.9991 277.83 62.6991 278.53 63.6091C279.26 64.4891 279.79 65.5091 280.17 66.6791C280.55 67.8491 280.73 69.0791 280.73 70.4291L280.7 71.0192C280.67 71.1992 280.67 71.5792 280.67 71.5792H265.06H265.08ZM279.2 69.7092C279.14 68.7092 278.97 67.7491 278.67 66.8091C278.35 65.8391 277.91 65.0791 277.29 64.3491C276.68 63.6191 275.94 63.0592 275.09 62.6492C274.24 62.2092 273.25 62.0092 272.13 62.0092C270.96 62.0092 269.9 62.2391 269 62.6791C268.09 63.1191 267.33 63.6991 266.72 64.4691C266.11 65.2391 265.64 65.8991 265.29 66.8691C264.94 67.8391 264.76 68.7692 264.68 69.7092H279.2ZM285.7 65.9592H285.64C285.82 65.0192 286.14 64.5291 286.61 63.9691C287.08 63.4091 287.66 62.8291 288.34 62.4191C289.02 62.0091 289.77 61.6591 290.59 61.4191C291.41 61.2191 292.23 61.0691 293.17 61.0991V62.5591C292.23 62.4691 291.53 62.5291 290.53 62.7891C289.53 63.0491 288.6 63.6091 287.72 64.4891C287.4 64.8391 287.08 65.2191 286.78 65.5991C286.52 65.9791 286.28 66.3591 286.11 66.7991C285.94 67.2391 285.88 67.7392 285.76 68.2592C285.64 68.7792 285.67 69.4591 285.67 70.1891V80.9891H283.8V61.3091H285.67V65.9391H285.7V65.9592Z" fill="white"/>
</svg>
