<svg width="234" height="92" viewBox="0 0 234 92" fill="none" xmlns="http://www.w3.org/2000/svg">
<path d="M0.359375 69.8599H9.16937C10.9294 69.8599 12.9494 70.3599 14.7094 71.3699C15.9694 72.3799 16.7194 73.8899 16.7194 75.3999C16.9694 77.6699 15.4594 79.4299 13.4494 80.1899C15.9694 80.6899 17.9794 83.4599 17.4794 86.4899C17.2294 87.7499 16.4694 88.7599 15.4694 89.7599C13.9594 90.7699 11.9394 91.2699 9.92937 91.2699H0.359375V69.8599ZM8.66937 78.9199C11.4394 78.9199 12.9494 77.9099 12.9494 75.8999C12.9494 75.1399 12.4494 74.1399 11.9394 73.6299C10.9294 73.1299 9.92937 72.8699 8.66937 72.8699H3.62938V78.9099H8.66937V78.9199ZM9.67937 88.2399C12.4494 88.2399 13.9594 87.2298 13.9594 84.9698C13.9594 84.2098 13.7094 83.2099 12.9494 82.6999C11.9394 82.1999 10.6794 81.9399 9.41937 81.9399H3.62938V87.9799L9.66937 88.2299L9.67937 88.2399Z" fill="white"/>
<path d="M33.8598 91.2599H30.5898V88.9899C29.5798 90.7499 27.5698 91.7599 25.5498 91.7599C24.0398 91.7599 22.5298 90.9999 21.2698 89.7499C20.2598 88.4899 19.7598 86.7299 19.7598 84.7099V75.3899H23.0298V84.4599C23.0298 85.4699 23.2798 86.7299 24.0398 87.7299C24.5398 88.4899 25.5498 88.7399 26.5598 88.7399C27.5698 88.7399 28.3198 88.4899 29.0798 87.9799C29.5798 87.4799 30.3398 86.7199 30.5898 85.7099V75.3799H33.8598V91.2499V91.2599Z" fill="white"/>
<path d="M48.2091 90.2598C46.6991 91.2698 45.1891 91.7698 43.4191 91.5198C41.9091 91.5198 40.3991 91.2698 39.1391 90.7598C37.8791 90.2498 37.1291 89.4998 36.3691 88.4898L38.6391 86.4798C39.1391 87.2398 39.6491 87.7398 40.6491 88.2398C41.6591 88.7398 42.6591 88.9998 43.6691 88.7398C45.6791 88.7398 46.6891 88.2398 46.6891 86.7298C46.6891 86.2298 46.4391 85.7198 46.1891 85.4698C45.6891 84.9698 45.1791 84.9698 44.4291 84.7098L41.1591 84.2098C39.8991 83.9598 38.8891 83.4498 37.8891 82.6998C37.1291 81.9398 36.6291 80.9398 36.8791 79.6798C36.8791 78.1698 37.3791 76.9098 38.6391 76.1498C40.1491 75.1398 41.6591 74.6398 43.4291 74.8898C44.6891 74.8898 46.1991 75.1398 47.2091 75.6498C48.2191 76.1598 49.2191 76.9098 49.7291 77.9198L47.4591 79.6798C46.9591 79.1798 46.4491 78.6698 45.6991 78.4198C44.9391 77.9198 43.9391 77.9198 42.9291 77.9198C42.1691 77.9198 41.4191 77.9198 40.6591 78.4198C40.1591 78.6698 39.8991 79.1798 39.8991 79.6798C39.8991 80.1798 40.1491 80.4398 40.3991 80.9398C40.8991 81.1898 41.4091 81.4398 41.9091 81.4398L45.6891 81.9398C46.9491 82.1898 47.9591 82.6998 48.7091 83.4498C49.4691 84.2098 49.7191 85.4598 49.7191 86.4698C49.9691 87.9798 49.4691 89.4898 48.2091 90.2498V90.2598Z" fill="white"/>
<path d="M52.999 72.6301C52.499 72.1301 52.499 71.62 52.499 71.12C52.499 70.62 52.749 70.11 52.999 69.61C54.009 68.85 55.269 68.85 56.019 69.61C56.519 70.11 56.519 70.62 56.519 71.12C56.519 71.62 56.269 72.1301 56.019 72.6301C55.519 73.1301 55.009 73.3901 54.509 73.1301C54.009 73.3801 53.499 73.1301 52.999 72.6301ZM52.999 75.4001H56.269V91.2701H52.999V75.4001Z" fill="white"/>
<path d="M59.7998 75.3999H63.0698V77.6699C64.0798 75.9099 66.0898 74.8999 68.1098 74.8999C69.6198 74.8999 71.3798 75.3999 72.3898 76.6599C73.3998 78.1699 73.8998 79.9299 73.8998 81.6999V91.0199H70.8798V82.2099C70.8798 80.9499 70.6298 79.9399 70.1198 78.9399C69.6198 78.1799 68.6098 77.9299 67.5998 77.9299C66.5898 77.9299 65.8398 78.1799 65.0798 78.6899C64.0698 79.1899 63.5698 79.9499 63.3198 80.9599V91.5399H60.0498V75.4199H59.7998V75.3999Z" fill="white"/>
<path d="M84.7289 91.5199C83.2189 91.5199 81.7089 91.2699 80.4489 90.5099C79.1889 89.7499 78.1789 88.7499 77.6789 87.4899C76.9189 86.2299 76.6689 84.7199 76.6689 83.2099C76.6689 81.6999 76.9189 80.1899 77.6789 78.9299C78.1789 77.6699 79.1889 76.6599 80.4489 75.9099C81.7089 75.1499 82.9689 74.8999 84.4789 74.8999C85.7389 74.8999 87.2489 75.1499 88.2589 75.9099C89.2689 76.6699 90.2689 77.6699 90.7789 78.9299C91.5389 80.4399 91.7889 81.9499 91.5389 83.4599V84.4698H79.9489C80.1989 85.7298 80.7089 86.7399 81.4589 87.4899C82.4689 88.2499 83.4689 88.4999 84.4789 88.4999C85.4889 88.4999 86.2389 88.2499 87.2489 87.9999C88.0089 87.7499 88.7589 87.2399 89.2589 86.4899L91.019 88.7599C89.509 90.7699 87.2389 91.7799 84.7189 91.5299L84.7289 91.5199ZM87.2489 78.9199C86.4889 78.1599 85.4889 77.6599 84.4789 77.9099C83.4689 77.9099 82.4689 78.4099 81.7089 78.9199C80.9489 79.6799 80.4489 80.6799 80.1989 81.9399H88.5089C88.5089 80.9299 88.0089 79.9299 87.2489 78.9199Z" fill="white"/>
<path d="M105.379 90.2598C103.869 91.2698 102.359 91.7698 100.589 91.5198C99.0791 91.5198 97.5691 91.2698 96.3091 90.7598C95.0491 90.2498 94.2991 89.4998 93.5391 88.4898L95.8091 86.4798C96.3091 87.2398 96.8191 87.7398 97.8191 88.2398C98.8291 88.7398 99.8291 88.9998 100.839 88.7398C102.599 88.7398 103.609 87.9798 103.609 86.7298C103.609 86.2298 103.359 85.7198 103.109 85.4698C102.609 84.9698 102.099 84.9698 101.349 84.7098L98.3291 84.2098C97.0691 84.2098 96.0591 83.7098 95.0591 82.6998C94.2991 81.9398 93.7991 80.9398 94.0491 79.6798C94.0491 78.1698 94.5491 76.9098 95.8091 76.1498C97.3191 75.1398 98.8291 74.6398 100.599 74.8898C101.859 74.8898 103.369 75.1398 104.379 75.6498C105.389 76.1598 106.389 76.9098 106.899 77.9198L104.629 79.6798C104.129 79.1798 103.619 78.6698 102.869 78.4198C102.109 77.9198 101.109 77.9198 100.099 77.9198C99.3391 77.9198 98.5891 77.9198 97.8291 78.4198C97.3291 78.6698 97.0691 79.1798 97.0691 79.6798C97.0691 80.1798 97.3191 80.4398 97.5691 80.9398C98.0691 81.1898 98.5791 81.4398 99.0791 81.4398L102.609 81.9398C103.869 82.1898 104.879 82.6998 105.629 83.4498C106.389 84.2098 106.639 85.4598 106.639 86.4698C107.139 87.9798 106.389 89.4898 105.379 90.2498V90.2598Z" fill="white"/>
<path d="M120.749 90.2598C119.489 91.2698 117.729 91.7698 116.219 91.5198C114.709 91.5198 113.199 91.2698 111.939 90.7598C110.679 90.2498 109.929 89.4998 109.169 88.4898L111.179 86.4798C111.679 87.2398 112.189 87.7398 113.189 88.2398C114.199 88.7398 115.199 88.9998 116.209 88.7398C118.219 88.7398 119.229 88.2398 119.229 86.7298C119.229 86.2298 118.979 85.7198 118.729 85.4698C118.229 84.9698 117.719 84.9698 116.969 84.7098L113.699 84.2098C112.439 83.9598 111.429 83.4498 110.429 82.6998C109.669 81.9398 109.169 80.9398 109.419 79.6798C109.419 78.1698 109.919 76.9098 111.179 76.1498C112.689 75.1398 114.199 74.6398 115.969 74.8898C117.229 74.8898 118.739 75.1398 119.749 75.6498C120.759 76.1598 121.759 76.9098 122.269 77.9198L119.999 79.6798C119.499 78.9198 118.989 78.4198 118.239 78.1698C117.479 77.6698 116.479 77.6698 115.469 77.6698C114.709 77.6698 113.959 77.6698 113.199 78.1698C112.699 78.4198 112.439 78.9298 112.439 79.4298C112.439 79.9298 112.689 80.1898 112.939 80.6898C113.439 80.9398 113.949 81.1898 114.449 81.1898L117.979 81.6898C119.239 81.9398 120.249 82.4498 120.999 83.1998C121.759 83.9598 122.009 85.2098 122.009 86.2198C122.509 87.9798 122.009 89.4898 120.749 90.2498V90.2598Z" fill="white"/>
<path d="M129.56 69.8601H137.62C139.89 69.8601 142.15 70.3601 143.92 71.6201C146.94 74.3901 146.94 79.1801 143.92 82.2001C142.16 83.4601 139.89 84.2101 137.62 84.2101H133.09V91.2601H129.56V69.8501V69.8601ZM137.37 80.9401C138.88 80.9401 140.14 80.6901 141.4 79.9301C142.41 79.1701 142.66 78.1701 142.66 76.9101C142.66 75.6501 142.41 74.6401 141.4 73.8901C140.14 73.1301 138.88 72.8801 137.37 72.8801H133.09V80.9401H137.37Z" fill="white"/>
<path d="M163.059 91.2602H159.789V88.9902C159.289 89.7502 158.529 90.5002 157.519 91.0002C156.509 91.5002 155.509 91.7602 154.499 91.7602C153.239 91.7602 151.979 91.5102 150.719 90.7502C149.709 89.9902 148.709 88.9902 148.199 87.7302C146.939 84.9602 146.939 81.9402 148.199 79.1702C148.699 77.9102 149.709 76.9002 150.719 76.1502C152.729 74.8902 155.249 74.6402 157.519 75.6502C158.279 76.1502 159.029 76.6602 159.529 77.4102V75.4002H162.799L163.049 91.2702L163.059 91.2602ZM159.789 80.9402C159.539 80.1802 158.779 79.4302 158.029 78.9302C157.279 78.4302 156.269 78.1702 155.259 78.1702C153.999 78.1702 152.739 78.6702 151.989 79.6802C150.979 80.6902 150.729 82.2002 150.729 83.4602C150.729 84.9702 150.979 86.2302 151.989 87.2402C152.749 88.2502 153.999 88.7502 155.259 88.7502C156.269 88.7502 157.269 88.5002 158.029 87.9902C158.789 87.4902 159.289 86.7302 159.789 85.9802V80.9402Z" fill="white"/>
<path d="M166.329 75.3999H169.599V77.6699C170.359 76.1599 171.869 75.1499 173.629 75.1499H174.639V78.1699H173.629C171.869 78.1699 170.359 79.1799 169.849 80.9399V91.0099H166.579L166.329 75.3999Z" fill="white"/>
<path d="M178.669 78.1699H176.399V75.3999H178.669V70.6099H181.939V75.1399H186.729V77.9099H181.939V84.9599C181.939 85.9699 182.189 86.7199 182.439 87.4799C182.939 87.9799 183.699 88.2399 184.449 88.2399H185.459C185.709 88.2399 186.219 88.2399 186.469 87.9899V90.7599C185.969 90.7599 185.709 91.0099 185.209 91.0099H183.699C180.169 91.0099 178.409 88.9998 178.409 85.2198L178.659 78.1699H178.669Z" fill="white"/>
<path d="M189.499 75.3999H192.769V77.6699C193.779 75.9099 195.789 74.8999 197.809 74.8999C199.319 74.8999 201.079 75.3999 202.089 76.6599C203.099 78.1699 203.599 79.9299 203.599 81.6999V91.0199H200.329V82.2099C200.329 80.9499 200.079 79.9399 199.569 78.9399C199.069 78.1799 198.059 77.9299 197.049 77.9299C196.039 77.9299 195.289 78.1799 194.529 78.6899C193.769 79.1999 193.269 79.9499 192.769 80.6999V91.2799H189.499V75.4099V75.3999Z" fill="white"/>
<path d="M214.189 91.5199C212.679 91.5199 211.169 91.2699 209.909 90.5099C208.649 89.7499 207.639 88.7499 207.139 87.4899C206.379 86.2299 206.129 84.7199 206.129 83.2099C206.129 81.6999 206.379 80.1899 207.139 78.9299C207.639 77.6699 208.649 76.6599 209.909 75.9099C211.169 75.1499 212.429 74.8999 213.939 74.8999C215.199 74.8999 216.709 75.1499 217.719 75.9099C218.729 76.6699 219.729 77.6699 220.239 78.9299C220.999 80.4399 221.249 81.9499 220.999 83.4599V84.4698H209.409C209.659 85.7298 210.169 86.7399 210.919 87.4899C211.929 88.2499 212.929 88.4999 213.939 88.4999C214.949 88.4999 215.699 88.2499 216.709 87.9999C217.469 87.7499 218.219 87.2399 218.719 86.4899L220.479 88.7599C218.969 90.7699 216.699 91.7799 214.179 91.5299L214.189 91.5199ZM216.699 78.9199C215.939 78.1599 214.939 77.6599 213.929 77.9099C212.919 77.9099 211.919 78.4099 211.159 78.9199C210.399 79.6799 209.899 80.6799 209.649 81.9399H217.959C217.959 80.9299 217.459 79.9299 216.699 78.9199Z" fill="white"/>
<path d="M224.01 75.3999H227.28V77.9199C228.04 76.4099 229.55 75.1499 231.56 75.1499C232.06 75.1499 232.57 75.1499 233.07 75.3999V78.4199H231.56C229.55 78.1699 228.03 79.1799 227.28 80.9399V91.2699H224.01V75.3999Z" fill="white"/>
<path d="M85.2493 0.569824H94.0592L108.919 27.5198L124.029 0.569824H132.589V45.1498H125.539V10.8998L112.439 34.5698H105.639L92.2892 10.8998V44.8998H85.2393V0.569824H85.2493Z" fill="white"/>
<path d="M155.77 45.9099C152.75 45.9099 149.73 45.1499 146.96 43.6399C144.44 42.1299 142.43 40.1099 141.17 37.5999C139.66 34.8299 138.9 31.8099 139.16 28.5299C139.16 25.5099 139.92 22.2299 141.17 19.4599C142.43 16.9399 144.44 14.6699 146.96 13.4199C149.48 11.9099 152.5 11.1499 155.27 11.1499C158.04 11.1499 161.06 11.9099 163.33 13.4199C165.6 14.9299 167.36 17.1998 168.62 19.7198C169.88 22.7398 170.63 26.0199 170.38 29.0399V31.0499H145.95C146.2 33.5699 147.46 35.8399 149.22 37.3499C150.98 38.8599 153.5 39.8699 155.77 39.6199C157.53 39.6199 159.55 39.3699 161.31 38.6099C162.82 37.8499 164.33 36.8499 165.59 35.5899L169.37 40.1199C165.84 44.1499 160.81 45.9099 155.77 45.9099ZM161.06 19.4599C159.55 17.9499 157.28 17.1899 155.27 17.1899C153 17.1899 150.99 17.9499 149.23 19.4599C147.47 21.2199 146.46 23.4899 146.21 25.7599H163.59C163.59 23.4899 162.58 21.2299 161.07 19.4599H161.06Z" fill="white"/>
<path d="M179.19 17.6998H172.64V11.9098H179.19V2.33984H186.24V11.9098H196.31V17.6998H186.24V32.5598C185.99 34.3198 186.49 36.3398 187.5 37.8498C188.51 39.1098 190.27 39.6098 191.78 39.3598H194.05C194.55 39.3598 195.31 39.1098 196.06 39.1098V44.8998C195.3 45.1498 194.3 45.3998 193.29 45.3998C192.28 45.6498 191.28 45.6498 190.27 45.6498C182.71 45.6498 179.19 41.6198 179.19 33.3098V17.6998Z" fill="white"/>
<path d="M232.329 45.1499H225.529V40.6199C224.269 42.3799 222.759 43.6399 220.999 44.6499C218.729 45.4099 216.719 45.9099 214.449 45.9099C211.679 45.9099 208.909 45.1499 206.639 43.6399C204.369 42.1299 202.609 39.8599 201.349 37.5999C200.089 34.8299 199.339 31.8099 199.339 28.5299C199.339 25.5099 199.839 22.2299 201.349 19.4599C202.609 16.9399 204.369 14.9299 206.889 13.4199C209.409 11.9099 212.179 11.1499 214.949 11.1499C216.959 11.1499 219.229 11.6499 220.989 12.4099C222.749 13.1699 224.259 14.4199 225.519 16.1899V11.9099H232.319V45.1499H232.329ZM225.279 23.4899C224.519 21.7299 223.269 19.9599 221.749 18.9599C220.239 17.9499 218.219 17.1999 216.209 17.1999C213.439 17.1999 210.919 18.2098 209.159 20.2198C207.399 22.4898 206.389 25.2599 206.639 28.2799C206.389 31.2999 207.399 34.0699 209.159 36.3399C210.919 38.3499 213.439 39.3599 215.959 39.3599C217.969 39.3599 219.989 38.8599 221.749 37.5999C223.509 36.5899 224.769 35.0799 225.279 33.0699V23.4999V23.4899Z" fill="white"/>
</svg>
