<svg width="450" height="450" viewBox="0 0 450 450" fill="none" xmlns="http://www.w3.org/2000/svg">
<path d="M450.43 0H0V450H450.43V0Z" fill="#0080F9"/>
<path d="M47.0703 322.13C47.0703 314.58 52.8403 308.96 60.6903 308.96C68.5403 308.96 74.2703 314.55 74.2703 322.13C74.2703 329.71 68.4603 335.3 60.6903 335.3C52.9203 335.3 47.0703 329.68 47.0703 322.13ZM71.5303 322.13C71.5303 315.95 66.9103 311.4 60.6903 311.4C54.4703 311.4 49.7703 315.95 49.7703 322.13C49.7703 328.31 54.4303 332.86 60.6903 332.86C66.9503 332.86 71.5303 328.31 71.5303 322.13Z" fill="white"/>
<path d="M82.8505 313.33V315.62H88.8405V317.84H82.9205V335.08H80.2906V317.84H76.8105V315.62H80.2906V313.21C80.2906 309.73 82.3605 307.44 86.1705 307.44C87.6105 307.44 89.0905 307.85 90.0605 308.66L89.1705 310.62C88.4305 309.99 87.3905 309.66 86.2805 309.66C84.0205 309.66 82.8405 310.92 82.8405 313.32L82.8505 313.33Z" fill="white"/>
<path d="M98.7198 307.44C100.16 307.44 101.64 307.85 102.6 308.66L101.71 310.62C100.97 309.99 99.9298 309.66 98.8198 309.66C96.5598 309.66 95.3798 310.92 95.3798 313.32V315.61H101.37V317.83H95.4498V335.07H92.8198V317.83H89.3398V315.61H92.8198V313.2C92.8198 309.72 94.8898 307.43 98.6998 307.43L98.7198 307.44ZM111.16 309.44C111.16 310.51 110.35 311.36 109.24 311.36C108.13 311.36 107.32 310.51 107.32 309.47C107.32 308.43 108.17 307.62 109.24 307.62C110.31 307.62 111.16 308.43 111.16 309.43V309.44ZM107.9 315.62H110.53V335.08H107.9V315.62Z" fill="white"/>
<path d="M115.891 325.35C115.891 319.54 120.111 315.47 125.921 315.47C129.211 315.47 131.991 316.76 133.541 319.32L131.581 320.65C130.251 318.69 128.181 317.76 125.921 317.76C121.661 317.76 118.561 320.79 118.561 325.35C118.561 329.91 121.671 332.93 125.921 332.93C128.181 332.93 130.251 332.04 131.581 330.08L133.541 331.41C131.991 333.93 129.211 335.26 125.921 335.26C120.111 335.26 115.891 331.15 115.891 325.34V325.35Z" fill="white"/>
<path d="M138.09 309.48C138.09 308.48 138.94 307.63 140.01 307.63C141.08 307.63 141.93 308.44 141.93 309.44C141.93 310.51 141.12 311.36 140.01 311.36C138.9 311.36 138.09 310.51 138.09 309.47V309.48ZM138.68 315.62H141.31V335.08H138.68V315.62Z" fill="white"/>
<path d="M163.331 323.02V335.08H160.811V332.05C159.631 334.05 157.331 335.27 154.111 335.27C149.711 335.27 147.011 332.98 147.011 329.61C147.011 326.61 148.931 324.1 154.521 324.1H160.701V322.92C160.701 319.59 158.811 317.78 155.191 317.78C152.671 317.78 150.311 318.67 148.711 320.07L147.531 318.11C149.491 316.44 152.381 315.48 155.451 315.48C160.481 315.48 163.331 318 163.331 323.03V323.02ZM160.701 329.24V326.06H154.591C150.821 326.06 149.591 327.54 149.591 329.54C149.591 331.8 151.401 333.2 154.511 333.2C157.621 333.2 159.651 331.79 160.691 329.24H160.701Z" fill="white"/>
<path d="M170.471 307.63H173.101V335.09H170.471V307.63Z" fill="white"/>
<path d="M217.57 309.18V335.08H214.94V314.36L204.76 331.79H203.47L193.29 314.47V335.08H190.66V309.18H192.92L204.17 328.38L215.31 309.18H217.57Z" fill="white"/>
<path d="M242.39 326.17H226.11C226.41 330.24 229.51 332.94 233.77 332.94C236.14 332.94 238.25 332.09 239.73 330.39L241.21 332.09C239.47 334.16 236.77 335.27 233.7 335.27C227.63 335.27 223.49 331.13 223.49 325.35C223.49 319.57 227.52 315.47 233 315.47C238.48 315.47 242.44 319.5 242.44 325.35C242.44 325.57 242.4 325.87 242.4 326.16L242.39 326.17ZM226.11 324.21H239.91C239.58 320.4 236.8 317.73 232.99 317.73C229.18 317.73 226.44 320.39 226.11 324.21Z" fill="white"/>
<path d="M258.04 333.9C257 334.82 255.45 335.27 253.93 335.27C250.27 335.27 248.23 333.2 248.23 329.61V317.84H244.75V315.62H248.23V311.36H250.86V315.62H256.78V317.84H250.86V329.46C250.86 331.75 252.04 333.01 254.23 333.01C255.3 333.01 256.38 332.68 257.12 332.01L258.05 333.9H258.04Z" fill="white"/>
<path d="M277.51 323.02V335.08H274.99V332.05C273.81 334.05 271.51 335.27 268.29 335.27C263.89 335.27 261.19 332.98 261.19 329.61C261.19 326.61 263.11 324.1 268.7 324.1H274.88V322.92C274.88 319.59 272.99 317.78 269.37 317.78C266.85 317.78 264.49 318.67 262.89 320.07L261.71 318.11C263.67 316.44 266.56 315.48 269.63 315.48C274.66 315.48 277.51 318 277.51 323.03V323.02ZM274.88 329.24V326.06H268.77C265 326.06 263.77 327.54 263.77 329.54C263.77 331.8 265.58 333.2 268.69 333.2C271.8 333.2 273.83 331.79 274.87 329.24H274.88Z" fill="white"/>
<path d="M71.0104 372.56C71.0104 376.96 67.7503 379.48 61.2803 379.48H49.3604V353.58H60.5303C66.3003 353.58 69.6303 356.02 69.6303 360.24C69.6303 363.2 68.0403 365.16 65.6703 366.12C69.0003 366.86 71.0004 369.04 71.0004 372.56H71.0104ZM52.1003 355.84V365.24H60.3503C64.4903 365.24 66.9004 363.65 66.9004 360.54C66.9004 357.43 64.4903 355.84 60.3503 355.84H52.1003ZM68.2703 372.34C68.2703 368.97 65.7904 367.49 61.2404 367.49H52.1003V377.22H61.2404C65.7904 377.22 68.2703 375.74 68.2703 372.34Z" fill="white"/>
<path d="M94.2503 360.02V379.48H91.7303V375.93C90.3603 378.3 87.8403 379.67 84.7403 379.67C79.7803 379.67 76.5303 376.9 76.5303 371.31V360.02H79.1603V371.05C79.1603 375.19 81.3103 377.3 85.0103 377.3C89.0803 377.3 91.6303 374.67 91.6303 370.23V360.02H94.2603H94.2503Z" fill="white"/>
<path d="M98.9104 377.27L100.09 375.2C101.64 376.42 104.27 377.38 107.01 377.38C110.71 377.38 112.23 376.12 112.23 374.2C112.23 369.13 99.6104 373.13 99.6104 365.43C99.6104 362.25 102.35 359.88 107.31 359.88C109.83 359.88 112.56 360.58 114.19 361.69L113.04 363.8C111.34 362.62 109.3 362.13 107.3 362.13C103.78 362.13 102.23 363.5 102.23 365.35C102.23 370.6 114.85 366.64 114.85 374.12C114.85 377.49 111.89 379.67 106.82 379.67C103.6 379.67 100.49 378.63 98.9004 377.27H98.9104Z" fill="white"/>
<path d="M119.11 353.88C119.11 352.88 119.96 352.03 121.03 352.03C122.1 352.03 122.95 352.84 122.95 353.84C122.95 354.91 122.14 355.76 121.03 355.76C119.92 355.76 119.11 354.91 119.11 353.87V353.88ZM119.7 360.02H122.33V379.48H119.7V360.02Z" fill="white"/>
<path d="M147.561 368.2V379.49H144.931V368.46C144.931 364.35 142.781 362.24 139.081 362.24C134.901 362.24 132.271 364.83 132.271 369.27V379.48H129.641V360.02H132.161V363.61C133.571 361.24 136.191 359.87 139.561 359.87C144.301 359.87 147.551 362.61 147.551 368.2H147.561Z" fill="white"/>
<path d="M171.72 370.57H155.44C155.74 374.64 158.84 377.34 163.1 377.34C165.47 377.34 167.58 376.49 169.06 374.79L170.54 376.49C168.8 378.56 166.1 379.67 163.03 379.67C156.96 379.67 152.82 375.53 152.82 369.75C152.82 363.97 156.85 359.87 162.33 359.87C167.81 359.87 171.77 363.9 171.77 369.75C171.77 369.97 171.73 370.27 171.73 370.56L171.72 370.57ZM155.44 368.61H169.24C168.91 364.8 166.13 362.13 162.32 362.13C158.51 362.13 155.77 364.79 155.44 368.61Z" fill="white"/>
<path d="M174.42 377.27L175.6 375.2C177.15 376.42 179.78 377.38 182.52 377.38C186.22 377.38 187.74 376.12 187.74 374.2C187.74 369.13 175.12 373.13 175.12 365.43C175.12 362.25 177.86 359.88 182.82 359.88C185.34 359.88 188.07 360.58 189.7 361.69L188.55 363.8C186.85 362.62 184.81 362.13 182.81 362.13C179.29 362.13 177.74 363.5 177.74 365.35C177.74 370.6 190.36 366.64 190.36 374.12C190.36 377.49 187.4 379.67 182.33 379.67C179.11 379.67 176 378.63 174.41 377.27H174.42Z" fill="white"/>
<path d="M192.521 377.27L193.701 375.2C195.251 376.42 197.881 377.38 200.621 377.38C204.321 377.38 205.841 376.12 205.841 374.2C205.841 369.13 193.221 373.13 193.221 365.43C193.221 362.25 195.961 359.88 200.921 359.88C203.441 359.88 206.171 360.58 207.801 361.69L206.651 363.8C204.951 362.62 202.911 362.13 200.911 362.13C197.391 362.13 195.841 363.5 195.841 365.35C195.841 370.6 208.461 366.64 208.461 374.12C208.461 377.49 205.501 379.67 200.431 379.67C197.211 379.67 194.101 378.63 192.511 377.27H192.521Z" fill="white"/>
<path d="M243.841 362.46C243.841 367.97 239.841 371.3 233.261 371.3H226.301V379.48H223.561V353.58H233.261C239.851 353.58 243.841 356.91 243.841 362.46ZM241.101 362.46C241.101 358.32 238.361 355.95 233.181 355.95H226.301V368.9H233.181C238.361 368.9 241.101 366.53 241.101 362.46Z" fill="white"/>
<path d="M263.711 367.42V379.48H261.191V376.45C260.011 378.45 257.711 379.67 254.491 379.67C250.091 379.67 247.391 377.38 247.391 374.01C247.391 371.01 249.311 368.5 254.901 368.5H261.081V367.32C261.081 363.99 259.191 362.18 255.571 362.18C253.051 362.18 250.691 363.07 249.091 364.47L247.911 362.51C249.871 360.84 252.761 359.88 255.831 359.88C260.861 359.88 263.711 362.4 263.711 367.43V367.42ZM261.081 373.64V370.46H254.971C251.201 370.46 249.971 371.94 249.971 373.94C249.971 376.2 251.781 377.6 254.891 377.6C258.001 377.6 260.031 376.19 261.071 373.64H261.081Z" fill="white"/>
<path d="M280.65 359.87V362.42C280.43 362.42 280.21 362.38 280.02 362.38C275.95 362.38 273.47 364.97 273.47 369.56V379.48H270.84V360.02H273.36V363.83C274.58 361.24 277.06 359.87 280.65 359.87Z" fill="white"/>
<path d="M296.49 378.3C295.45 379.22 293.9 379.67 292.38 379.67C288.72 379.67 286.68 377.6 286.68 374.01V362.24H283.2V360.02H286.68V355.76H289.31V360.02H295.23V362.24H289.31V373.86C289.31 376.15 290.49 377.41 292.68 377.41C293.75 377.41 294.83 377.08 295.57 376.41L296.49 378.3Z" fill="white"/>
<path d="M319.17 368.2V379.49H316.54V368.46C316.54 364.35 314.39 362.24 310.69 362.24C306.51 362.24 303.88 364.83 303.88 369.27V379.48H301.25V360.02H303.77V363.61C305.18 361.24 307.8 359.87 311.17 359.87C315.91 359.87 319.16 362.61 319.16 368.2H319.17Z" fill="white"/>
<path d="M343.331 370.57H327.051C327.351 374.64 330.451 377.34 334.711 377.34C337.081 377.34 339.191 376.49 340.671 374.79L342.151 376.49C340.411 378.56 337.711 379.67 334.641 379.67C328.571 379.67 324.431 375.53 324.431 369.75C324.431 363.97 328.461 359.87 333.941 359.87C339.421 359.87 343.381 363.9 343.381 369.75C343.381 369.97 343.341 370.27 343.341 370.56L343.331 370.57ZM327.051 368.61H340.851C340.521 364.8 337.741 362.13 333.931 362.13C330.121 362.13 327.381 364.79 327.051 368.61Z" fill="white"/>
<path d="M358.531 359.87V362.42C358.311 362.42 358.091 362.38 357.901 362.38C353.831 362.38 351.351 364.97 351.351 369.56V379.48H348.721V360.02H351.241V363.83C352.461 361.24 354.941 359.87 358.531 359.87Z" fill="white"/>
<path d="M64.21 152.84L63.96 160.65C69 160.65 73.03 164.68 81.59 179.04L82.09 179.8L86.88 172.75C85.87 170.99 84.61 169.22 83.61 167.71C82.35 165.95 81.34 164.44 80.08 162.92C74.54 155.62 69.75 152.85 64.21 152.85V152.84Z" fill="white"/>
<path d="M64.2096 152.84C58.4196 152.84 53.3796 156.62 49.8496 162.16L56.3996 165.94C57.9096 162.92 60.9296 160.9 63.9596 160.4L64.2096 152.84Z" fill="white"/>
<path d="M49.8496 162.16C47.3296 166.19 45.5696 170.72 44.8096 175.26L52.3696 177.02C52.8696 172.99 54.3796 169.21 56.3996 165.69L49.8496 162.16Z" fill="white"/>
<path d="M52.1198 177.27L44.5598 175.51C44.0598 178.28 43.7998 181.05 43.7998 183.57L51.3598 184.33V183.83C51.3598 181.56 51.6098 179.3 52.1198 177.28V177.27Z" fill="white"/>
<path d="M51.8696 186.84C51.6196 186.08 51.6196 185.33 51.6196 184.57L44.0596 183.81C44.0596 185.32 44.3096 187.08 44.5596 188.6L51.8596 186.84H51.8696Z" fill="white"/>
<path d="M53.3796 190.62C52.3696 189.61 51.8696 188.1 51.6196 186.59L44.0596 188.35C44.5596 191.12 45.5696 193.64 47.3296 195.65L53.3696 190.61L53.3796 190.62Z" fill="white"/>
<path d="M75.7996 169.47C71.2696 176.27 68.4996 180.8 68.4996 180.8C62.4596 190.12 60.4396 192.39 57.1696 192.39C55.9096 192.39 54.6496 191.89 53.6396 190.88L47.5996 195.92C49.8696 198.44 53.1396 199.95 56.6696 199.95C62.4596 199.95 66.7396 197.18 74.0496 184.34C74.0496 184.34 77.0696 178.8 79.3396 175.02C78.0796 173.01 76.8196 170.99 75.8096 169.48L75.7996 169.47Z" fill="white"/>
<path d="M83.5993 158.64C82.3393 159.9 81.0793 161.41 80.0693 162.92C81.0793 164.43 82.3393 165.94 83.5993 167.71C84.8593 165.95 86.1193 164.18 87.6293 162.42L83.5993 158.64Z" fill="white"/>
<path d="M105.51 157.88C102.74 154.86 98.7096 153.09 94.6796 152.84C90.3996 153.09 86.3696 155.11 83.5996 158.63L87.6296 162.16C89.3896 160.15 91.6596 159.14 94.1796 158.89C96.6996 158.89 99.2196 160.15 100.98 161.91L105.51 157.88Z" fill="white"/>
<path d="M114.58 182.56C114.83 173.49 111.56 164.68 105.51 157.88L100.72 162.16C104.75 166.19 107.52 174 107.77 182.56H114.57H114.58Z" fill="white"/>
<path d="M114.58 182.56H107.78V183.82C107.78 185.83 107.53 187.85 106.77 189.61L111.81 194.9C113.82 191.37 114.83 187.34 114.58 183.31V182.55V182.56Z" fill="white"/>
<path d="M106.77 189.61C106.27 190.87 105.26 191.62 104 191.88L106.27 199.18C106.52 199.18 106.77 198.93 107.03 198.93C107.03 198.93 107.28 198.93 107.28 198.68H107.53C109.04 197.92 110.3 196.67 111.31 195.41L111.56 195.16C111.56 195.16 111.56 194.91 111.81 194.91L106.77 189.62V189.61Z" fill="white"/>
<path d="M102.49 192.13C101.73 192.13 100.98 191.88 100.48 191.63L98.21 198.93C99.72 199.43 100.98 199.69 102.49 199.43C103.75 199.43 105.26 199.18 106.52 198.93L104.25 191.88C103.75 192.13 102.99 192.13 102.49 192.13Z" fill="white"/>
<path d="M97.9599 189.61L92.4199 195.15C93.9299 196.91 95.9499 198.17 98.2099 199.18L100.48 191.88C99.7199 191.38 98.7199 190.62 97.9599 189.61Z" fill="white"/>
<path d="M97.9598 189.61C95.4398 186.34 93.1699 183.06 91.1599 179.54L87.1298 172.74L82.3398 179.79L85.3598 184.58C87.3698 188.36 89.8899 191.88 92.6599 195.16L97.9498 189.62L97.9598 189.61Z" fill="white"/>
<path d="M44.3594 223.86H53.1694C54.9294 223.86 56.9494 224.36 58.7094 225.37C59.9694 226.38 60.7194 227.89 60.7194 229.4C60.9694 231.67 59.4594 233.43 57.4494 234.19C59.9694 234.69 61.9794 237.46 61.4794 240.49C61.2294 241.75 60.4694 242.76 59.4694 243.76C57.9594 244.77 55.9394 245.27 53.9294 245.27H44.3594V223.86ZM52.6694 232.92C55.4394 232.92 56.9494 231.91 56.9494 229.9C56.9494 229.14 56.4494 228.14 55.9394 227.63C54.9294 227.13 53.9294 226.87 52.6694 226.87H47.6294V232.91H52.6694V232.92ZM53.6794 242.24C56.4494 242.24 57.9594 241.23 57.9594 238.97C57.9594 238.21 57.7094 237.21 56.9494 236.7C55.9394 236.2 54.6794 235.94 53.4194 235.94H47.6294V241.98L53.6694 242.23L53.6794 242.24Z" fill="white"/>
<path d="M77.8598 245.26H74.5898V242.99C73.5798 244.75 71.5698 245.76 69.5498 245.76C68.0398 245.76 66.5298 245 65.2698 243.75C64.2598 242.49 63.7598 240.73 63.7598 238.71V229.39H67.0298V238.46C67.0298 239.47 67.2798 240.73 68.0398 241.73C68.5398 242.49 69.5498 242.74 70.5598 242.74C71.5698 242.74 72.3198 242.49 73.0798 241.98C73.5798 241.48 74.3398 240.72 74.5898 239.71V229.38H77.8598V245.25V245.26Z" fill="white"/>
<path d="M92.2091 244.26C90.6991 245.27 89.1891 245.77 87.4191 245.52C85.9091 245.52 84.3991 245.27 83.1391 244.76C81.8791 244.25 81.1291 243.5 80.3691 242.49L82.6391 240.48C83.1391 241.24 83.6491 241.74 84.6491 242.24C85.6591 242.74 86.6591 243 87.6691 242.74C89.6791 242.74 90.6891 242.24 90.6891 240.73C90.6891 240.23 90.4391 239.72 90.1891 239.47C89.6891 238.97 89.1791 238.97 88.4291 238.71L85.1591 238.21C83.8991 237.96 82.8891 237.45 81.8891 236.7C81.1291 235.94 80.6291 234.94 80.8791 233.68C80.8791 232.17 81.3791 230.91 82.6391 230.15C84.1491 229.14 85.6591 228.64 87.4291 228.89C88.6891 228.89 90.1991 229.14 91.2091 229.65C92.2191 230.16 93.2191 230.91 93.7291 231.92L91.4591 233.68C90.9591 233.18 90.4491 232.67 89.6991 232.42C88.9391 231.92 87.9391 231.92 86.9291 231.92C86.1691 231.92 85.4191 231.92 84.6591 232.42C84.1591 232.67 83.8991 233.18 83.8991 233.68C83.8991 234.18 84.1491 234.44 84.3991 234.94C84.8991 235.19 85.4091 235.44 85.9091 235.44L89.6891 235.94C90.9491 236.19 91.9591 236.7 92.7091 237.45C93.4691 238.21 93.7191 239.46 93.7191 240.47C93.9691 241.98 93.4691 243.49 92.2091 244.25V244.26Z" fill="white"/>
<path d="M96.999 226.63C96.499 226.13 96.499 225.62 96.499 225.12C96.499 224.62 96.749 224.11 96.999 223.61C98.009 222.85 99.269 222.85 100.019 223.61C100.519 224.11 100.519 224.62 100.519 225.12C100.519 225.62 100.269 226.13 100.019 226.63C99.519 227.13 99.009 227.39 98.509 227.13C98.009 227.38 97.499 227.13 96.999 226.63ZM96.999 229.4H100.269V245.27H96.999V229.4Z" fill="white"/>
<path d="M103.8 229.4H107.07V231.67C108.08 229.91 110.09 228.9 112.11 228.9C113.62 228.9 115.38 229.4 116.39 230.66C117.4 232.17 117.9 233.93 117.9 235.7V245.02H114.88V236.21C114.88 234.95 114.63 233.94 114.12 232.94C113.62 232.18 112.61 231.93 111.6 231.93C110.59 231.93 109.84 232.18 109.08 232.69C108.07 233.19 107.57 233.95 107.32 234.96V245.54H104.05V229.42H103.8V229.4Z" fill="white"/>
<path d="M128.729 245.52C127.219 245.52 125.709 245.27 124.449 244.51C123.189 243.75 122.179 242.75 121.679 241.49C120.919 240.23 120.669 238.72 120.669 237.21C120.669 235.7 120.919 234.19 121.679 232.93C122.179 231.67 123.189 230.66 124.449 229.91C125.709 229.15 126.969 228.9 128.479 228.9C129.739 228.9 131.249 229.15 132.259 229.91C133.269 230.67 134.269 231.67 134.779 232.93C135.539 234.44 135.789 235.95 135.539 237.46V238.47H123.949C124.199 239.73 124.709 240.74 125.459 241.49C126.469 242.25 127.469 242.5 128.479 242.5C129.489 242.5 130.239 242.25 131.249 242C132.009 241.75 132.759 241.24 133.259 240.49L135.019 242.76C133.509 244.77 131.239 245.78 128.719 245.53L128.729 245.52ZM131.249 232.92C130.489 232.16 129.489 231.66 128.479 231.91C127.469 231.91 126.469 232.41 125.709 232.92C124.949 233.68 124.449 234.68 124.199 235.94H132.509C132.509 234.93 132.009 233.93 131.249 232.92Z" fill="white"/>
<path d="M149.379 244.26C147.869 245.27 146.359 245.77 144.589 245.52C143.079 245.52 141.569 245.27 140.309 244.76C139.049 244.25 138.299 243.5 137.539 242.49L139.809 240.48C140.309 241.24 140.819 241.74 141.819 242.24C142.829 242.74 143.829 243 144.839 242.74C146.599 242.74 147.609 241.98 147.609 240.73C147.609 240.23 147.359 239.72 147.109 239.47C146.609 238.97 146.099 238.97 145.349 238.71L142.329 238.21C141.069 238.21 140.059 237.71 139.059 236.7C138.299 235.94 137.799 234.94 138.049 233.68C138.049 232.17 138.549 230.91 139.809 230.15C141.319 229.14 142.829 228.64 144.599 228.89C145.859 228.89 147.369 229.14 148.379 229.65C149.389 230.16 150.389 230.91 150.899 231.92L148.629 233.68C148.129 233.18 147.619 232.67 146.869 232.42C146.109 231.92 145.109 231.92 144.099 231.92C143.339 231.92 142.589 231.92 141.829 232.42C141.329 232.67 141.069 233.18 141.069 233.68C141.069 234.18 141.319 234.44 141.569 234.94C142.069 235.19 142.579 235.44 143.079 235.44L146.609 235.94C147.869 236.19 148.879 236.7 149.629 237.45C150.389 238.21 150.639 239.46 150.639 240.47C151.139 241.98 150.389 243.49 149.379 244.25V244.26Z" fill="white"/>
<path d="M164.749 244.26C163.489 245.27 161.729 245.77 160.219 245.52C158.709 245.52 157.199 245.27 155.939 244.76C154.679 244.25 153.929 243.5 153.169 242.49L155.179 240.48C155.679 241.24 156.189 241.74 157.189 242.24C158.199 242.74 159.199 243 160.209 242.74C162.219 242.74 163.229 242.24 163.229 240.73C163.229 240.23 162.979 239.72 162.729 239.47C162.229 238.97 161.719 238.97 160.969 238.71L157.699 238.21C156.439 237.96 155.429 237.45 154.429 236.7C153.669 235.94 153.169 234.94 153.419 233.68C153.419 232.17 153.919 230.91 155.179 230.15C156.689 229.14 158.199 228.64 159.969 228.89C161.229 228.89 162.739 229.14 163.749 229.65C164.759 230.16 165.759 230.91 166.269 231.92L163.999 233.68C163.499 232.92 162.989 232.42 162.239 232.17C161.479 231.67 160.479 231.67 159.469 231.67C158.709 231.67 157.959 231.67 157.199 232.17C156.699 232.42 156.439 232.93 156.439 233.43C156.439 233.93 156.689 234.19 156.939 234.69C157.439 234.94 157.949 235.19 158.449 235.19L161.979 235.69C163.239 235.94 164.249 236.45 164.999 237.2C165.759 237.96 166.009 239.21 166.009 240.22C166.509 241.98 166.009 243.49 164.749 244.25V244.26Z" fill="white"/>
<path d="M173.56 223.86H181.62C183.89 223.86 186.15 224.36 187.92 225.62C190.94 228.39 190.94 233.18 187.92 236.2C186.16 237.46 183.89 238.21 181.62 238.21H177.09V245.26H173.56V223.85V223.86ZM181.37 234.94C182.88 234.94 184.14 234.69 185.4 233.93C186.41 233.17 186.66 232.17 186.66 230.91C186.66 229.65 186.41 228.64 185.4 227.89C184.14 227.13 182.88 226.88 181.37 226.88H177.09V234.94H181.37Z" fill="white"/>
<path d="M207.059 245.26H203.789V242.99C203.289 243.75 202.529 244.5 201.519 245C200.509 245.5 199.509 245.76 198.499 245.76C197.239 245.76 195.979 245.51 194.719 244.75C193.709 243.99 192.709 242.99 192.199 241.73C190.939 238.96 190.939 235.94 192.199 233.17C192.699 231.91 193.709 230.9 194.719 230.15C196.729 228.89 199.249 228.64 201.519 229.65C202.279 230.15 203.029 230.66 203.529 231.41V229.4H206.799L207.049 245.27L207.059 245.26ZM203.789 234.94C203.539 234.18 202.779 233.43 202.029 232.93C201.279 232.43 200.269 232.17 199.259 232.17C197.999 232.17 196.739 232.67 195.989 233.68C194.979 234.69 194.729 236.2 194.729 237.46C194.729 238.97 194.979 240.23 195.989 241.24C196.749 242.25 197.999 242.75 199.259 242.75C200.269 242.75 201.269 242.5 202.029 241.99C202.789 241.49 203.289 240.73 203.789 239.98V234.94Z" fill="white"/>
<path d="M210.329 229.4H213.599V231.67C214.359 230.16 215.869 229.15 217.629 229.15H218.639V232.17H217.629C215.869 232.17 214.359 233.18 213.849 234.94V245.01H210.579L210.329 229.4Z" fill="white"/>
<path d="M222.669 232.17H220.399V229.4H222.669V224.61H225.939V229.14H230.729V231.91H225.939V238.96C225.939 239.97 226.189 240.72 226.439 241.48C226.939 241.98 227.699 242.24 228.449 242.24H229.459C229.709 242.24 230.219 242.24 230.469 241.99V244.76C229.969 244.76 229.709 245.01 229.209 245.01H227.699C224.169 245.01 222.409 243 222.409 239.22L222.659 232.17H222.669Z" fill="white"/>
<path d="M233.499 229.4H236.769V231.67C237.779 229.91 239.789 228.9 241.809 228.9C243.319 228.9 245.079 229.4 246.089 230.66C247.099 232.17 247.599 233.93 247.599 235.7V245.02H244.329V236.21C244.329 234.95 244.079 233.94 243.569 232.94C243.069 232.18 242.059 231.93 241.049 231.93C240.039 231.93 239.289 232.18 238.529 232.69C237.769 233.2 237.269 233.95 236.769 234.7V245.28H233.499V229.41V229.4Z" fill="white"/>
<path d="M258.189 245.52C256.679 245.52 255.169 245.27 253.909 244.51C252.649 243.75 251.639 242.75 251.139 241.49C250.379 240.23 250.129 238.72 250.129 237.21C250.129 235.7 250.379 234.19 251.139 232.93C251.639 231.67 252.649 230.66 253.909 229.91C255.169 229.15 256.429 228.9 257.939 228.9C259.199 228.9 260.709 229.15 261.719 229.91C262.729 230.67 263.729 231.67 264.239 232.93C264.999 234.44 265.249 235.95 264.999 237.46V238.47H253.409C253.659 239.73 254.169 240.74 254.919 241.49C255.929 242.25 256.929 242.5 257.939 242.5C258.949 242.5 259.699 242.25 260.709 242C261.469 241.75 262.219 241.24 262.719 240.49L264.479 242.76C262.969 244.77 260.699 245.78 258.179 245.53L258.189 245.52ZM260.699 232.92C259.939 232.16 258.939 231.66 257.929 231.91C256.919 231.91 255.919 232.41 255.159 232.92C254.399 233.68 253.899 234.68 253.649 235.94H261.959C261.959 234.93 261.459 233.93 260.699 232.92Z" fill="white"/>
<path d="M268.01 229.4H271.28V231.92C272.04 230.41 273.55 229.15 275.56 229.15C276.06 229.15 276.57 229.15 277.07 229.4V232.42H275.56C273.55 232.17 272.03 233.18 271.28 234.94V245.27H268.01V229.4Z" fill="white"/>
<path d="M129.249 154.57H138.059L152.919 181.52L168.029 154.57H176.589V199.15H169.539V164.9L156.439 188.57H149.639L136.289 164.9V198.9H129.239V154.57H129.249Z" fill="white"/>
<path d="M199.77 199.91C196.75 199.91 193.73 199.15 190.96 197.64C188.44 196.13 186.43 194.11 185.17 191.6C183.66 188.83 182.9 185.81 183.16 182.53C183.16 179.51 183.92 176.23 185.17 173.46C186.43 170.94 188.44 168.67 190.96 167.42C193.48 165.91 196.5 165.15 199.27 165.15C202.04 165.15 205.06 165.91 207.33 167.42C209.6 168.93 211.36 171.2 212.62 173.72C213.88 176.74 214.63 180.02 214.38 183.04V185.05H189.95C190.2 187.57 191.46 189.84 193.22 191.35C194.98 192.86 197.5 193.87 199.77 193.62C201.53 193.62 203.55 193.37 205.31 192.61C206.82 191.85 208.33 190.85 209.59 189.59L213.37 194.12C209.84 198.15 204.81 199.91 199.77 199.91ZM205.06 173.46C203.55 171.95 201.28 171.19 199.27 171.19C197 171.19 194.99 171.95 193.23 173.46C191.47 175.22 190.46 177.49 190.21 179.76H207.59C207.59 177.49 206.58 175.23 205.07 173.46H205.06Z" fill="white"/>
<path d="M223.19 171.7H216.64V165.91H223.19V156.34H230.24V165.91H240.31V171.7H230.24V186.56C229.99 188.32 230.49 190.34 231.5 191.85C232.51 193.11 234.27 193.61 235.78 193.36H238.05C238.55 193.36 239.31 193.11 240.06 193.11V198.9C239.3 199.15 238.3 199.4 237.29 199.4C236.28 199.65 235.28 199.65 234.27 199.65C226.71 199.65 223.19 195.62 223.19 187.31V171.7Z" fill="white"/>
<path d="M276.329 199.15H269.529V194.62C268.269 196.38 266.759 197.64 264.999 198.65C262.729 199.41 260.719 199.91 258.449 199.91C255.679 199.91 252.909 199.15 250.639 197.64C248.369 196.13 246.609 193.86 245.349 191.6C244.089 188.83 243.339 185.81 243.339 182.53C243.339 179.51 243.839 176.23 245.349 173.46C246.609 170.94 248.369 168.93 250.889 167.42C253.409 165.91 256.179 165.15 258.949 165.15C260.959 165.15 263.229 165.65 264.989 166.41C266.749 167.17 268.259 168.42 269.519 170.19V165.91H276.319V199.15H276.329ZM269.279 177.49C268.519 175.73 267.269 173.96 265.749 172.96C264.239 171.95 262.219 171.2 260.209 171.2C257.439 171.2 254.919 172.21 253.159 174.22C251.399 176.49 250.389 179.26 250.639 182.28C250.389 185.3 251.399 188.07 253.159 190.34C254.919 192.35 257.439 193.36 259.959 193.36C261.969 193.36 263.989 192.86 265.749 191.6C267.509 190.59 268.769 189.08 269.279 187.07V177.5V177.49Z" fill="white"/>
</svg>
