<?xml version="1.0" encoding="UTF-8"?>
<svg xmlns="http://www.w3.org/2000/svg" version="1.1" viewBox="0 0 450 900">
  <defs>
    <style>
      .cls-1 {
        fill: #292828;
      }

      .cls-2 {
        stroke: #ff5252;
      }

      .cls-2, .cls-3, .cls-4 {
        fill: none;
        stroke-width: 1.9px;
      }

      .cls-5 {
        fill: #42c684;
      }

      .cls-6 {
        fill: #fff;
      }

      .cls-7 {
        fill: #ff5252;
      }

      .cls-3 {
        stroke: #fff;
      }

      .cls-4 {
        stroke: #d7df22;
      }

      .cls-8 {
        fill: #51c387;
      }

      .cls-9 {
        fill: #f9f5f1;
      }

      .cls-10 {
        fill: #52c4d4;
      }

      .cls-11 {
        fill: #d7df22;
      }

      .cls-12 {
        fill: #016dff;
      }
    </style>
  </defs>
  <!-- Generator: Adobe Illustrator 28.7.1, SVG Export Plug-In . SVG Version: 1.2.0 Build 142)  -->
  <g>
    <g id="Layer_1">
      <g>
        <g>
          <g>
            <rect class="cls-7" x="270" y="180.2" width="90.1" height="90.1"/>
            <g>
              <path class="cls-6" d="M344.6,221.8c-.7-.7-1.6-1.1-2.5-1.1h-3c0-.8,0-1.5,0-2.3-.2-2-.6-4.4-1.6-6.9,3.3-1.7,5.3-3.5,5.1-5.5-.3-2.7-4.3-4.1-13.6-5.1-6.6-4.4-13.9-4.3-15-4.2-.5,0-11.1.5-17.9,8.3-11.4,4.2-12.7,6.6-12.4,8.6.3,2.1,3.2,3.4,7.2,4.1v4.1s-2.9,0-2.9,0c-1,0-1.9.4-2.6,1s-1.1,1.6-1.1,2.5v10.5c-.1,1,.2,1.9.9,2.6.7.7,1.6,1.1,2.5,1.1h2.9s0,2,0,2c0,3.7,2.9,6.7,6.6,6.8h2.8s0,4.6,0,4.6c0,1,.5,1.9,1.4,2.4.4.2.9.4,1.4.4s.9-.1,1.4-.4l6.3-3.9c2.9-1.8,6.3-2.7,9.7-2.6,3.8.2,9,.3,12.4,0,.9,0,3-.3,4.6-1.9,1.3-1.3,2-2.9,2-4.7v-3.7s2.9,0,2.9,0h.1c1.9,0,3.5-1.6,3.5-3.5v-10.5c.1-1-.2-1.9-.9-2.6h0ZM339.8,206.3c0,.6-1.4,1.6-3.5,2.7-.5-.9-1-1.7-1.6-2.6-.6-.8-1.2-1.5-1.8-2.2,6.3,1,7,2.1,7,2.1ZM314,199.5c1.2,0,12-.2,18.4,8.5.5.7.9,1.4,1.3,2.1-4.8,2-12.1,4.1-20.3,5.1-7.5.9-14.5.8-19.5.2.4-2.1,1.1-4,2.1-5.8,5.5-9.6,17.4-10.2,17.9-10.2ZM286.4,213.2c0,0,.4-1.4,6.9-4.2-1,1.9-1.6,3.8-2,5.9-2.8-.5-4.6-1.2-4.9-1.8h0ZM287.8,236.7c-.2,0-.4,0-.6-.2-.2-.2-.2-.4-.2-.6v-10.5c.1-.2.2-.4.4-.6.2-.1.3-.2.5-.2h2.9s-.1,12.1-.1,12.1h-2.9ZM335,244.7c-.8.8-1.9,1-3,1.1-3.2.3-8.3.2-12,0-4-.2-7.9.9-11.3,3l-6.2,3.9v-7.3c0,0-5.4,0-5.4,0-2.2,0-3.9-1.8-3.9-4v-2h0l.2-17.6h0v-3.3h0c0-.2,0-.3,0-.5,3.4.4,7.4.5,11.1.4,3.3,0,6.5-.3,9-.6,5.8-.7,14.8-2.7,21.1-5.3,1,2.5,1.3,4.9,1.4,6.7l-.2,22.7c0,1-.4,2-1.2,2.8ZM342.7,234.7c0,.5-.3.8-.8.8h-2.9s.1-12.1.1-12.1h2.9c.2,0,.4.1.6.3.2.2.2.4.2.6v10.5c-.1,0-.1,0-.1,0Z"/>
              <g>
                <path class="cls-6" d="M313.2,238.2c-3.2-.2-6.4-1.2-9.2-2.8l-1.4,2.4c3.2,1.9,6.8,3,10.4,3.2.7,0,1.4,0,2,0,5.3-.1,9.4-2,11.5-3.3l-1.4-2.4c-2.1,1.2-6.4,3.2-11.9,2.9h0Z"/>
                <path class="cls-6" d="M321.7,225.1c1.7,0,3,1.4,3,3s-1.4,3-3,3-3-1.4-3-3,1.4-3,3-3M321.7,222.1c-3.3,0-6,2.7-6,6s2.7,6,6,6,6-2.7,6-6-2.7-6-6-6h0Z"/>
                <path class="cls-6" d="M307.5,225.1c1.7,0,3,1.4,3,3s-1.4,3-3,3-3-1.4-3-3,1.4-3,3-3M307.5,222.1c-3.3,0-6,2.7-6,6s2.7,6,6,6,6-2.7,6-6-2.7-6-6-6h0Z"/>
              </g>
            </g>
            <rect class="cls-7" x="360.1" width="90.1" height="90.1"/>
            <rect class="cls-11" x="270" width="90.1" height="180.2"/>
            <rect class="cls-5" x="180" width="90.1" height="90.1"/>
            <rect class="cls-10" x="89.9" width="90.1" height="90.1"/>
            <rect class="cls-1" x="-.2" width="90.1" height="90.1"/>
            <rect class="cls-9" x="360.1" y="90.1" width="90.1" height="90.1"/>
            <rect class="cls-10" x="180" y="90.1" width="90.1" height="90.1"/>
            <rect class="cls-7" x="89.9" y="90.1" width="90.1" height="90.1"/>
            <rect class="cls-11" x="-.2" y="90.1" width="90.1" height="90.1"/>
            <rect class="cls-10" x="360.1" y="180.2" width="90.1" height="90.1"/>
            <rect class="cls-11" x="180" y="180.2" width="90.1" height="90.1"/>
            <rect class="cls-1" x="89.9" y="180.2" width="90.1" height="90.1"/>
            <rect class="cls-9" x="-.2" y="180.2" width="90.1" height="90.1"/>
            <rect class="cls-5" x="360.1" y="270" width="90.1" height="90.1"/>
            <rect class="cls-9" x="270" y="270" width="90.1" height="90.1"/>
            <rect class="cls-1" x="180" y="270" width="90.1" height="90.1"/>
            <rect class="cls-10" x="89.9" y="270" width="90.1" height="90.1"/>
            <rect class="cls-5" x="-.2" y="270" width="90.1" height="90.1"/>
            <rect class="cls-1" x="360.1" y="359.9" width="90.1" height="90.1"/>
            <rect class="cls-11" x="270" y="359.9" width="90.1" height="90.1"/>
            <rect class="cls-8" x="180" y="359.9" width="90.1" height="90.1"/>
            <rect class="cls-11" x="89.9" y="359.9" width="90.1" height="90.1"/>
            <rect class="cls-10" x="-.2" y="359.9" width="90.1" height="90.1"/>
            <polygon class="cls-3" points="225.4 157.1 194.3 157.1 225.4 114.9 256.5 157.1 225.4 157.1"/>
            <g>
              <path class="cls-3" d="M425.1,45.5h0c0,17.6-20.2,27.5-34.2,16.8h0c-11-8.5-11-25,0-33.5h0c13.9-10.8,34.2-.9,34.2,16.8h0Z"/>
              <rect class="cls-3" x="382.7" y="24.3" width="42.4" height="42.4" transform="translate(657.3 363.3) rotate(-135)"/>
            </g>
            <g>
              <rect class="cls-2" x="293.4" y="293.8" width="43.7" height="43.7" rx=".7" ry=".7" transform="translate(314.9 761.8) rotate(-135)"/>
              <path class="cls-2" d="M315.7,297.3l29.2,17.6c.6.3.6,1.2,0,1.5l-29.2,18.2c-.3.2-.7.2-.9,0l-29.2-18.2c-.6-.4-.6-1.2,0-1.5l29.2-17.6c.3-.2.6-.2.9,0Z"/>
              <path class="cls-2" d="M315.4,307.2l27.6,7.6c.9.2.9,1.5,0,1.7l-27.6,7.8c-.2,0-.3,0-.5,0l-27.6-7.8c-.9-.2-.9-1.5,0-1.7l27.6-7.6c.2,0,.3,0,.5,0Z"/>
            </g>
            <g>
              <polygon class="cls-3" points="56.5 136 56.5 167.1 17.5 136 56.5 104.9 56.5 136"/>
              <circle class="cls-3" cx="55.1" cy="136" r="14.9"/>
            </g>
            <g>
              <polygon class="cls-3" points="416.7 315.7 416.7 346.8 377.6 315.7 416.7 284.6 416.7 315.7"/>
              <circle class="cls-3" cx="415.2" cy="315.7" r="14.9"/>
            </g>
            <g>
              <g>
                <path class="cls-3" d="M252.1,377.5c-15.7,0-28.4,12.7-28.4,28.4s12.7,28.4,28.4,28.4v-56.8Z"/>
                <path class="cls-3" d="M223.7,377.5c15.7,0,28.4,12.7,28.4,28.4s-12.7,28.4-28.4,28.4v-56.8Z"/>
              </g>
              <circle class="cls-3" cx="237.9" cy="405.9" r="7.3"/>
              <g>
                <line class="cls-3" x1="215.1" y1="406.5" x2="198.7" y2="406.5"/>
                <line class="cls-3" x1="214.7" y1="397.8" x2="202.4" y2="385.5"/>
                <line class="cls-3" x1="214.7" y1="414" x2="202.4" y2="426.3"/>
              </g>
            </g>
            <g>
              <g>
                <path class="cls-3" d="M430.6,197.2c-15.7,0-28.4,12.7-28.4,28.4s12.7,28.4,28.4,28.4v-56.8Z"/>
                <path class="cls-3" d="M402.2,197.2c15.7,0,28.4,12.7,28.4,28.4s-12.7,28.4-28.4,28.4v-56.8Z"/>
              </g>
              <circle class="cls-3" cx="416.4" cy="225.6" r="7.3"/>
              <g>
                <line class="cls-3" x1="393.6" y1="226.1" x2="377.2" y2="226.1"/>
                <line class="cls-3" x1="393.2" y1="217.5" x2="380.9" y2="205.2"/>
                <line class="cls-3" x1="393.2" y1="233.6" x2="380.9" y2="246"/>
              </g>
            </g>
            <g>
              <polygon class="cls-4" points="248.1 45.5 248.1 76.8 202.4 45.5 248.1 14.2 248.1 45.5"/>
              <circle class="cls-4" cx="233.4" cy="45.5" r="15"/>
              <line class="cls-4" x1="248.1" y1="14.2" x2="239.1" y2="31.7"/>
              <line class="cls-4" x1="218.4" y1="45.5" x2="202.4" y2="45.5"/>
              <line class="cls-4" x1="238.6" y1="59.5" x2="248.1" y2="75.6"/>
            </g>
            <g>
              <polygon class="cls-2" points="338 405.9 338 437.2 292.3 405.9 338 374.6 338 405.9"/>
              <circle class="cls-2" cx="323.2" cy="405.9" r="15"/>
              <line class="cls-2" x1="338" y1="374.6" x2="328.9" y2="392.1"/>
              <line class="cls-2" x1="308.2" y1="405.9" x2="292.3" y2="405.9"/>
              <line class="cls-2" x1="328.4" y1="419.9" x2="338" y2="436"/>
            </g>
            <g>
              <rect class="cls-3" x="290.8" y="111.6" width="48.9" height="48.9" transform="translate(179.2 451.2) rotate(-90)"/>
              <rect class="cls-3" x="297.9" y="118.7" width="34.5" height="34.5" transform="translate(441.9 455) rotate(-135)"/>
              <rect class="cls-3" x="303" y="123.8" width="24.4" height="24.4" transform="translate(179.2 451.2) rotate(-90)"/>
            </g>
            <g>
              <rect class="cls-3" x="19.3" y="381.5" width="48.9" height="48.9" transform="translate(-362.2 449.6) rotate(-90)"/>
              <rect class="cls-3" x="26.5" y="388.6" width="34.5" height="34.5" transform="translate(-212.3 723.8) rotate(-135)"/>
              <rect class="cls-3" x="31.5" y="393.7" width="24.4" height="24.4" transform="translate(-362.2 449.6) rotate(-90)"/>
            </g>
            <g>
              <circle class="cls-3" cx="315.2" cy="45.5" r="22.9"/>
              <path class="cls-3" d="M303.9,25.9c-.2-7.1.9-11.8,3.3-12.4,4.4-1.1,11.6,12.3,16,30,4.4,17.7,4.4,32.9,0,34-2.3.6-5.3-2.8-8.3-8.5"/>
            </g>
            <g>
              <circle class="cls-4" cx="403.9" cy="405.9" r="22.9"/>
              <path class="cls-4" d="M392.6,386.3c-.2-7.1.9-11.8,3.3-12.4,4.4-1.1,11.6,12.3,16,30,4.4,17.7,4.4,32.9,0,34-2.3.6-5.3-2.8-8.3-8.5"/>
            </g>
            <g>
              <circle class="cls-2" cx="43.7" cy="225.6" r="22.9"/>
              <path class="cls-2" d="M32.4,206c-.2-7.1.9-11.8,3.3-12.4,4.4-1.1,11.6,12.3,16,30,4.4,17.7,4.4,32.9,0,34-2.3.6-5.3-2.8-8.3-8.5"/>
            </g>
            <g>
              <line class="cls-4" x1="385.4" y1="117.5" x2="396.7" y2="128.8"/>
              <line class="cls-4" x1="403.9" y1="109.9" x2="403.9" y2="125.9"/>
              <line class="cls-4" x1="422.3" y1="117.5" x2="411" y2="128.8"/>
              <line class="cls-4" x1="430" y1="136" x2="414" y2="136"/>
              <line class="cls-4" x1="411" y1="143.2" x2="422.3" y2="154.5"/>
              <line class="cls-4" x1="403.9" y1="146.1" x2="403.9" y2="162.1"/>
              <line class="cls-4" x1="396.7" y1="143.2" x2="385.4" y2="154.5"/>
              <line class="cls-4" x1="393.7" y1="136" x2="377.8" y2="136"/>
            </g>
            <g>
              <line class="cls-4" x1="115.7" y1="297.2" x2="126.9" y2="308.5"/>
              <line class="cls-4" x1="134.1" y1="289.6" x2="134.1" y2="305.5"/>
              <line class="cls-4" x1="152.6" y1="297.2" x2="141.3" y2="308.5"/>
              <line class="cls-4" x1="160.2" y1="315.7" x2="144.3" y2="315.7"/>
              <line class="cls-4" x1="141.3" y1="322.8" x2="152.6" y2="334.1"/>
              <line class="cls-4" x1="134.1" y1="325.8" x2="134.1" y2="341.8"/>
              <line class="cls-4" x1="126.9" y1="322.8" x2="115.7" y2="334.1"/>
              <line class="cls-4" x1="124" y1="315.7" x2="108" y2="315.7"/>
            </g>
            <g>
              <line class="cls-3" x1="206.9" y1="207.1" x2="218.2" y2="218.4"/>
              <line class="cls-3" x1="225.4" y1="199.5" x2="225.4" y2="215.4"/>
              <line class="cls-3" x1="243.8" y1="207.1" x2="232.6" y2="218.4"/>
              <line class="cls-3" x1="251.5" y1="225.6" x2="235.5" y2="225.6"/>
              <line class="cls-3" x1="232.6" y1="232.7" x2="243.8" y2="244"/>
              <line class="cls-3" x1="225.4" y1="235.7" x2="225.4" y2="251.7"/>
              <line class="cls-3" x1="218.2" y1="232.7" x2="206.9" y2="244"/>
              <line class="cls-3" x1="215.2" y1="225.6" x2="199.3" y2="225.6"/>
            </g>
            <g>
              <line class="cls-3" x1="25.3" y1="27" x2="43.7" y2="45.5"/>
              <line class="cls-3" x1="43.7" y1="19.4" x2="43.7" y2="45.5"/>
              <line class="cls-3" x1="62.2" y1="27" x2="43.7" y2="45.5"/>
              <line class="cls-3" x1="69.8" y1="45.5" x2="43.7" y2="45.5"/>
              <line class="cls-3" x1="62.2" y1="64" x2="43.7" y2="45.5"/>
              <line class="cls-3" x1="43.7" y1="71.6" x2="43.7" y2="45.5"/>
              <line class="cls-3" x1="25.3" y1="64" x2="43.7" y2="45.5"/>
              <line class="cls-3" x1="17.6" y1="45.5" x2="43.7" y2="45.5"/>
            </g>
            <path class="cls-3" d="M137.3,74.6c-25.8-11.6-25.8-46.5,0-58.1M150.3,45.5c0,5.4-4.3,9.7-9.7,9.7s-9.7-4.3-9.7-9.7,4.3-9.7,9.7-9.7,9.7,4.3,9.7,9.7Z"/>
            <path class="cls-2" d="M137.3,435c-25.8-11.6-25.8-46.5,0-58.1M150.3,405.9c0,5.4-4.3,9.7-9.7,9.7s-9.7-4.3-9.7-9.7,4.3-9.7,9.7-9.7,9.7,4.3,9.7,9.7Z"/>
            <path class="cls-3" d="M155.2,136h0c0,17.5-20.1,27.4-34,16.7h0c-10.9-8.4-10.9-24.9,0-33.3h0c13.9-10.7,34-.8,34,16.7h0Z"/>
            <g>
              <path class="cls-6" d="M204.5,329c-4.6,0-7.5-2.2-7.5-7.2v-7.8h-3.1v-4.9h3.1v-3.9h6v3.9h6.4v4.9h-6.4v7.1c0,2,.8,2.5,2.9,2.5h3.6v5.4h-4.9Z"/>
              <path class="cls-6" d="M219.1,323.6h13.3v5.4h-21.1v-5.4l12.7-9.1.7-.5h-12.8v-4.9h19.9v5.1c-4.2,3.1-8.5,6.3-12.7,9.4Z"/>
              <path class="cls-6" d="M234.3,329v-26.6h6v14.1h4.5l5.1-7.4h7.1l-7.3,9.6,7.1,10.3h-7l-5-7.2h-4.6v7.2h-6Z"/>
            </g>
            <g>
              <path class="cls-6" d="M73.7,311.3c-.7-.7-1.6-1.1-2.5-1.1h-3c0-.8,0-1.5,0-2.3-.2-2-.6-4.4-1.6-6.9,3.3-1.7,5.3-3.5,5.1-5.5-.3-2.7-4.3-4.1-13.6-5.1-6.6-4.4-13.9-4.3-15-4.2-.5,0-11.1.5-17.9,8.3-11.4,4.2-12.7,6.6-12.4,8.6.3,2.1,3.2,3.4,7.2,4.1v4.1s-2.9,0-2.9,0c-1,0-1.9.4-2.6,1s-1.1,1.6-1.1,2.5v10.5c-.1,1,.2,1.9.9,2.6.7.7,1.6,1.1,2.5,1.1h2.9s0,2,0,2c0,3.7,2.9,6.7,6.6,6.8h2.8s0,4.6,0,4.6c0,1,.5,1.9,1.4,2.4.4.2.9.4,1.4.4s.9-.1,1.4-.4l6.3-3.9c2.9-1.8,6.3-2.7,9.7-2.6,3.8.2,9,.3,12.4,0,.9,0,3-.3,4.6-1.9,1.3-1.3,2-2.9,2-4.7v-3.7s2.9,0,2.9,0h.1c1.9,0,3.5-1.6,3.5-3.5v-10.5c.1-1-.2-1.9-.9-2.6h0ZM68.9,295.8c0,.6-1.4,1.6-3.5,2.7-.5-.9-1-1.7-1.6-2.6-.6-.8-1.2-1.5-1.8-2.2,6.3,1,7,2.1,7,2.1ZM43.2,289c1.2,0,12-.2,18.4,8.5.5.7.9,1.4,1.3,2.1-4.8,2-12.1,4.1-20.3,5.1-7.5.9-14.5.8-19.5.2.4-2.1,1.1-4,2.1-5.8,5.5-9.6,17.4-10.2,17.9-10.2ZM15.5,302.8c0,0,.4-1.4,6.9-4.2-1,1.9-1.6,3.8-2,5.9-2.8-.5-4.6-1.2-4.9-1.8h0ZM17,326.2c-.2,0-.4,0-.6-.2-.2-.2-.2-.4-.2-.6v-10.5c.1-.2.2-.4.4-.6.2-.1.3-.2.5-.2h2.9s-.1,12.1-.1,12.1h-2.9ZM64.1,334.3c-.8.8-1.9,1-3,1.1-3.2.3-8.3.2-12,0-4-.2-7.9.9-11.3,3l-6.2,3.9v-7.3c0,0-5.4,0-5.4,0-2.2,0-3.9-1.8-3.9-4v-2h0l.2-17.6h0v-3.3h0c0-.2,0-.3,0-.5,3.4.4,7.4.5,11.1.4,3.3,0,6.5-.3,9-.6,5.8-.7,14.8-2.7,21.1-5.3,1,2.5,1.3,4.9,1.4,6.7l-.2,22.7c0,1-.4,2-1.2,2.8ZM71.9,324.3c0,.5-.3.8-.8.8h-2.9s.1-12.1.1-12.1h2.9c.2,0,.4.1.6.3.2.2.2.4.2.6v10.5c-.1,0-.1,0-.1,0Z"/>
              <g>
                <path class="cls-6" d="M42.4,327.8c-3.2-.2-6.4-1.2-9.2-2.8l-1.4,2.4c3.2,1.9,6.8,3,10.4,3.2.7,0,1.4,0,2,0,5.3-.1,9.4-2,11.5-3.3l-1.4-2.4c-2.1,1.2-6.4,3.2-11.9,2.9h0Z"/>
                <path class="cls-6" d="M50.8,314.7c1.7,0,3,1.4,3,3s-1.4,3-3,3-3-1.4-3-3,1.4-3,3-3M50.8,311.7c-3.3,0-6,2.7-6,6s2.7,6,6,6,6-2.7,6-6-2.7-6-6-6h0Z"/>
                <path class="cls-6" d="M36.7,314.7c1.7,0,3,1.4,3,3s-1.4,3-3,3-3-1.4-3-3,1.4-3,3-3M36.7,311.7c-3.3,0-6,2.7-6,6s2.7,6,6,6,6-2.7,6-6-2.7-6-6-6h0Z"/>
              </g>
            </g>
            <g>
              <rect class="cls-3" x="115.5" y="203.4" width="43.7" height="43.7" rx=".7" ry=".7" transform="translate(75.2 481.6) rotate(-135)"/>
              <path class="cls-3" d="M137.8,206.8l29.2,17.6c.6.3.6,1.2,0,1.5l-29.2,18.2c-.3.2-.7.2-.9,0l-29.2-18.2c-.6-.4-.6-1.2,0-1.5l29.2-17.6c.3-.2.6-.2.9,0Z"/>
              <path class="cls-3" d="M137.6,216.8l27.6,7.6c.9.2.9,1.5,0,1.7l-27.6,7.8c-.2,0-.3,0-.5,0l-27.6-7.8c-.9-.2-.9-1.5,0-1.7l27.6-7.6c.2,0,.3,0,.5,0Z"/>
            </g>
          </g>
          <rect class="cls-12" x="-.2" y="450" width="450.4" height="450"/>
        </g>
        <g>
          <path class="cls-6" d="M46.9,772.1c0-7.5,5.8-13.2,13.6-13.2s13.6,5.6,13.6,13.2-5.8,13.2-13.6,13.2-13.6-5.6-13.6-13.2ZM71.3,772.1c0-6.2-4.6-10.7-10.8-10.7s-10.9,4.6-10.9,10.7,4.7,10.7,10.9,10.7,10.8-4.6,10.8-10.7Z"/>
          <path class="cls-6" d="M82.6,763.3v2.3h6v2.2h-5.9v17.2h-2.6v-17.2h-3.5v-2.2h3.5v-2.4c0-3.5,2.1-5.8,5.9-5.8s2.9.4,3.9,1.2l-.9,2c-.7-.6-1.8-1-2.9-1-2.3,0-3.4,1.3-3.4,3.7Z"/>
          <path class="cls-6" d="M98.5,757.4c1.4,0,2.9.4,3.9,1.2l-.9,2c-.7-.6-1.8-1-2.9-1-2.3,0-3.4,1.3-3.4,3.7v2.3h6v2.2h-5.9v17.2h-2.6v-17.2h-3.5v-2.2h3.5v-2.4c0-3.5,2.1-5.8,5.9-5.8ZM110.9,759.4c0,1.1-.8,1.9-1.9,1.9s-1.9-.9-1.9-1.9.9-1.9,1.9-1.9,1.9.8,1.9,1.8ZM107.7,765.6h2.6v19.5h-2.6v-19.5Z"/>
          <path class="cls-6" d="M115.7,775.4c0-5.8,4.2-9.9,10-9.9s6.1,1.3,7.6,3.8l-2,1.3c-1.3-2-3.4-2.9-5.7-2.9-4.3,0-7.4,3-7.4,7.6s3.1,7.6,7.4,7.6,4.3-.9,5.7-2.8l2,1.3c-1.6,2.5-4.3,3.8-7.6,3.8-5.8,0-10-4.1-10-9.9Z"/>
          <path class="cls-6" d="M137.9,759.5c0-1,.9-1.9,1.9-1.9s1.9.8,1.9,1.8-.8,1.9-1.9,1.9-1.9-.9-1.9-1.9ZM138.5,765.6h2.6v19.5h-2.6v-19.5Z"/>
          <path class="cls-6" d="M163.1,773v12.1h-2.5v-3c-1.2,2-3.5,3.2-6.7,3.2s-7.1-2.3-7.1-5.7,1.9-5.5,7.5-5.5h6.2v-1.2c0-3.3-1.9-5.1-5.5-5.1s-4.9.9-6.5,2.3l-1.2-2c2-1.7,4.8-2.6,7.9-2.6,5,0,7.9,2.5,7.9,7.5ZM160.5,779.2v-3.2h-6.1c-3.8,0-5,1.5-5,3.5s1.8,3.7,4.9,3.7,5.1-1.4,6.2-4Z"/>
          <path class="cls-6" d="M170.3,757.6h2.6v27.5h-2.6v-27.5Z"/>
          <path class="cls-6" d="M217.4,759.2v25.9h-2.6v-20.7l-10.2,17.4h-1.3l-10.2-17.3v20.6h-2.6v-25.9h2.3l11.2,19.2,11.1-19.2h2.3Z"/>
          <path class="cls-6" d="M242.2,776.2h-16.3c.3,4.1,3.4,6.8,7.7,6.8s4.5-.9,6-2.6l1.5,1.7c-1.7,2.1-4.4,3.2-7.5,3.2-6.1,0-10.2-4.1-10.2-9.9s4-9.9,9.5-9.9,9.4,4,9.4,9.9,0,.5,0,.8ZM225.9,774.2h13.8c-.3-3.8-3.1-6.5-6.9-6.5s-6.5,2.7-6.9,6.5Z"/>
          <path class="cls-6" d="M257.8,783.9c-1,.9-2.6,1.4-4.1,1.4-3.7,0-5.7-2.1-5.7-5.7v-11.8h-3.5v-2.2h3.5v-4.3h2.6v4.3h5.9v2.2h-5.9v11.6c0,2.3,1.2,3.6,3.4,3.6s2.1-.3,2.9-1l.9,1.9Z"/>
          <path class="cls-6" d="M277.3,773v12.1h-2.5v-3c-1.2,2-3.5,3.2-6.7,3.2s-7.1-2.3-7.1-5.7,1.9-5.5,7.5-5.5h6.2v-1.2c0-3.3-1.9-5.1-5.5-5.1s-4.9.9-6.5,2.3l-1.2-2c2-1.7,4.8-2.6,7.9-2.6,5,0,7.9,2.5,7.9,7.5ZM274.7,779.2v-3.2h-6.1c-3.8,0-5,1.5-5,3.5s1.8,3.7,4.9,3.7,5.1-1.4,6.2-4Z"/>
          <path class="cls-6" d="M70.8,822.6c0,4.4-3.3,6.9-9.7,6.9h-11.9v-25.9h11.2c5.8,0,9.1,2.4,9.1,6.7s-1.6,4.9-4,5.9c3.3.7,5.3,2.9,5.3,6.4ZM51.9,805.8v9.4h8.3c4.1,0,6.5-1.6,6.5-4.7s-2.4-4.7-6.5-4.7h-8.3ZM68.1,822.3c0-3.4-2.5-4.8-7-4.8h-9.1v9.7h9.1c4.6,0,7-1.5,7-4.9Z"/>
          <path class="cls-6" d="M94,810v19.5h-2.5v-3.6c-1.4,2.4-3.9,3.7-7,3.7-5,0-8.2-2.8-8.2-8.4v-11.3h2.6v11c0,4.1,2.1,6.3,5.8,6.3s6.6-2.6,6.6-7.1v-10.2h2.6Z"/>
          <path class="cls-6" d="M98.7,827.3l1.2-2.1c1.6,1.2,4.2,2.2,6.9,2.2s5.2-1.3,5.2-3.2c0-5.1-12.6-1.1-12.6-8.8s2.7-5.6,7.7-5.6,5.3.7,6.9,1.8l-1.1,2.1c-1.7-1.2-3.7-1.7-5.7-1.7-3.5,0-5.1,1.4-5.1,3.2,0,5.3,12.6,1.3,12.6,8.8s-3,5.5-8,5.5-6.3-1-7.9-2.4Z"/>
          <path class="cls-6" d="M118.9,803.9c0-1,.9-1.9,1.9-1.9s1.9.8,1.9,1.8-.8,1.9-1.9,1.9-1.9-.9-1.9-1.9ZM119.5,810h2.6v19.5h-2.6v-19.5Z"/>
          <path class="cls-6" d="M147.4,818.2v11.3h-2.6v-11c0-4.1-2.1-6.2-5.8-6.2s-6.8,2.6-6.8,7v10.2h-2.6v-19.5h2.5v3.6c1.4-2.4,4-3.7,7.4-3.7s8,2.7,8,8.3Z"/>
          <path class="cls-6" d="M171.5,820.6h-16.3c.3,4.1,3.4,6.8,7.7,6.8s4.5-.9,6-2.6l1.5,1.7c-1.7,2.1-4.4,3.2-7.5,3.2-6.1,0-10.2-4.1-10.2-9.9s4-9.9,9.5-9.9,9.4,4,9.4,9.9,0,.5,0,.8ZM155.2,818.6h13.8c-.3-3.8-3.1-6.5-6.9-6.5s-6.5,2.7-6.9,6.5Z"/>
          <path class="cls-6" d="M174.2,827.3l1.2-2.1c1.6,1.2,4.2,2.2,6.9,2.2s5.2-1.3,5.2-3.2c0-5.1-12.6-1.1-12.6-8.8s2.7-5.6,7.7-5.6,5.3.7,6.9,1.8l-1.1,2.1c-1.7-1.2-3.7-1.7-5.7-1.7-3.5,0-5.1,1.4-5.1,3.2,0,5.3,12.6,1.3,12.6,8.8s-3,5.5-8,5.5-6.3-1-7.9-2.4Z"/>
          <path class="cls-6" d="M192.3,827.3l1.2-2.1c1.6,1.2,4.2,2.2,6.9,2.2s5.2-1.3,5.2-3.2c0-5.1-12.6-1.1-12.6-8.8s2.7-5.6,7.7-5.6,5.3.7,6.9,1.8l-1.1,2.1c-1.7-1.2-3.7-1.7-5.7-1.7-3.5,0-5.1,1.4-5.1,3.2,0,5.3,12.6,1.3,12.6,8.8s-3,5.5-8,5.5-6.3-1-7.9-2.4Z"/>
          <path class="cls-6" d="M243.6,812.5c0,5.5-4,8.8-10.6,8.8h-7v8.2h-2.7v-25.9h9.7c6.6,0,10.6,3.3,10.6,8.9ZM240.9,812.5c0-4.1-2.7-6.5-7.9-6.5h-6.9v13h6.9c5.2,0,7.9-2.4,7.9-6.4Z"/>
          <path class="cls-6" d="M263.5,817.4v12.1h-2.5v-3c-1.2,2-3.5,3.2-6.7,3.2s-7.1-2.3-7.1-5.7,1.9-5.5,7.5-5.5h6.2v-1.2c0-3.3-1.9-5.1-5.5-5.1s-4.9.9-6.5,2.3l-1.2-2c2-1.7,4.8-2.6,7.9-2.6,5,0,7.9,2.5,7.9,7.5ZM260.9,823.6v-3.2h-6.1c-3.8,0-5,1.5-5,3.5s1.8,3.7,4.9,3.7,5.1-1.4,6.2-4Z"/>
          <path class="cls-6" d="M280.4,809.9v2.6c-.2,0-.4,0-.6,0-4.1,0-6.5,2.6-6.5,7.2v9.9h-2.6v-19.5h2.5v3.8c1.2-2.6,3.7-4,7.3-4Z"/>
          <path class="cls-6" d="M296.3,828.3c-1,.9-2.6,1.4-4.1,1.4-3.7,0-5.7-2.1-5.7-5.7v-11.8h-3.5v-2.2h3.5v-4.3h2.6v4.3h5.9v2.2h-5.9v11.6c0,2.3,1.2,3.6,3.4,3.6s2.1-.3,2.9-1l.9,1.9Z"/>
          <path class="cls-6" d="M319,818.2v11.3h-2.6v-11c0-4.1-2.1-6.2-5.8-6.2s-6.8,2.6-6.8,7v10.2h-2.6v-19.5h2.5v3.6c1.4-2.4,4-3.7,7.4-3.7s8,2.7,8,8.3Z"/>
          <path class="cls-6" d="M343.1,820.6h-16.3c.3,4.1,3.4,6.8,7.7,6.8s4.5-.9,6-2.6l1.5,1.7c-1.7,2.1-4.4,3.2-7.5,3.2-6.1,0-10.2-4.1-10.2-9.9s4-9.9,9.5-9.9,9.4,4,9.4,9.9,0,.5,0,.8ZM326.8,818.6h13.8c-.3-3.8-3.1-6.5-6.9-6.5s-6.5,2.7-6.9,6.5Z"/>
          <path class="cls-6" d="M358.3,809.9v2.6c-.2,0-.4,0-.6,0-4.1,0-6.5,2.6-6.5,7.2v9.9h-2.6v-19.5h2.5v3.8c1.2-2.6,3.7-4,7.3-4Z"/>
        </g>
        <g id="meta-white">
          <g id="Groupe_2">
            <path id="Tracé_8" class="cls-6" d="M64,602.8h0l-.3,7.8h0c5,0,9.1,4,17.6,18.4l.5.8h0l4.8-7.1h0c-1-1.8-2.3-3.5-3.3-5-1.3-1.8-2.3-3.3-3.5-4.8-5.5-7.3-10.3-10.1-15.9-10.1Z"/>
            <path id="Tracé_9" class="cls-6" d="M64,602.8c-5.8,0-10.8,3.8-14.4,9.3h0l6.5,3.8h0c1.5-3,4.5-5,7.6-5.5h0l.3-7.6h0Z"/>
            <path id="Tracé_10" class="cls-6" d="M49.6,612.2h0c-2.5,4-4.3,8.6-5,13.1h0l7.6,1.8h0c.5-4,2-7.8,4-11.3h0l-6.5-3.5Z"/>
            <path id="Tracé_11" class="cls-6" d="M51.9,627.3l-7.6-1.8h0c-.5,2.8-.8,5.5-.8,8.1h0l7.6.8v-.5c0-2.3.3-4.5.8-6.5h0Z"/>
            <path id="Tracé_12" class="cls-6" d="M51.7,636.8c-.3-.8-.3-1.5-.3-2.3h0l-7.6-.8h0c0,1.5.3,3.3.5,4.8h0l7.3-1.8Z"/>
            <path id="Tracé_13" class="cls-6" d="M53.2,640.6c-1-1-1.5-2.5-1.8-4h0l-7.6,1.8h0c.5,2.8,1.5,5.3,3.3,7.3h0l6-5h0Z"/>
            <path id="Tracé_14" class="cls-6" d="M75.6,619.5c-4.5,6.8-7.3,11.3-7.3,11.3-6,9.3-8.1,11.6-11.3,11.6s-2.5-.5-3.5-1.5h0l-6,5h0c2.3,2.5,5.5,4,9.1,4,5.8,0,10.1-2.8,17.4-15.6,0,0,3-5.5,5.3-9.3-1.3-2-2.5-4-3.5-5.5Z"/>
            <path id="Tracé_15" class="cls-6" d="M83.4,608.6h0c-1.3,1.3-2.5,2.8-3.5,4.3,1,1.5,2.3,3,3.5,4.8,1.3-1.8,2.5-3.5,4-5.3h0l-4-3.8Z"/>
            <path id="Tracé_16" class="cls-6" d="M105.3,607.9c-2.8-3-6.8-4.8-10.8-5-4.3.3-8.3,2.3-11.1,5.8h0l4,3.5h0c1.8-2,4-3,6.5-3.3h0c2.5,0,5,1.3,6.8,3h0l4.5-4h0Z"/>
            <path id="Tracé_17" class="cls-6" d="M114.4,632.6c.3-9.1-3-17.9-9.1-24.7h0l-4.8,4.3h0c4,4,6.8,11.8,7.1,20.4h6.8Z"/>
            <path id="Tracé_18" class="cls-6" d="M114.4,632.6h-6.8v1.3c0,2-.3,4-1,5.8h0l5,5.3h0c2-3.5,3-7.6,2.8-11.6v-.8Z"/>
            <path id="Tracé_19" class="cls-6" d="M106.6,639.6h0c-.5,1.3-1.5,2-2.8,2.3l2.3,7.3c.3,0,.5-.3.8-.3,0,0,.3,0,.3-.3h.3c1.5-.8,2.8-2,3.8-3.3l.3-.3s0-.3.3-.3h0l-5-5.3Z"/>
            <path id="Tracé_20" class="cls-6" d="M102.3,642.1c-.8,0-1.5-.3-2-.5l-2.3,7.3c1.5.5,2.8.8,4.3.5,1.3,0,2.8-.3,4-.5l-2.3-7.1c-.5.3-1.3.3-1.8.3Z"/>
            <path id="Tracé_21" class="cls-6" d="M97.7,639.6h0l-5.5,5.5h0c1.5,1.8,3.5,3,5.8,4l2.3-7.3c-.8-.5-1.8-1.3-2.5-2.3Z"/>
            <path id="Tracé_22" class="cls-6" d="M97.7,639.6c-2.5-3.3-4.8-6.5-6.8-10.1l-4-6.8h0l-4.8,7.1h0l3,4.8c2,3.8,4.5,7.3,7.3,10.6h0l5.3-5.5h0Z"/>
          </g>
          <g id="Groupe_5">
            <g id="Groupe_3">
              <path id="Tracé_23" class="cls-6" d="M44.1,673.9h8.8c1.8,0,3.8.5,5.5,1.5,1.3,1,2,2.5,2,4,.3,2.3-1.3,4-3.3,4.8,2.5.5,4.5,3.3,4,6.3-.3,1.3-1,2.3-2,3.3-1.5,1-3.5,1.5-5.5,1.5h-9.6v-21.4h0ZM52.5,682.9c2.8,0,4.3-1,4.3-3s-.5-1.8-1-2.3c-1-.5-2-.8-3.3-.8h-5v6h5ZM53.5,692.2c2.8,0,4.3-1,4.3-3.3s-.3-1.8-1-2.3c-1-.5-2.3-.8-3.5-.8h-5.8v6l6,.3Z"/>
              <path id="Tracé_24" class="cls-6" d="M77.6,695.3h-3.3v-2.3c-1,1.8-3,2.8-5,2.8s-3-.8-4.3-2c-1-1.3-1.5-3-1.5-5v-9.3h3.3v9.1c0,1,.3,2.3,1,3.3.5.8,1.5,1,2.5,1s1.8-.3,2.5-.8c.5-.5,1.3-1.3,1.5-2.3v-10.3h3.3v15.9h0Z"/>
              <path id="Tracé_25" class="cls-6" d="M92,694.3c-1.5,1-3,1.5-4.8,1.3-1.5,0-3-.3-4.3-.8s-2-1.3-2.8-2.3l2.3-2c.5.8,1,1.3,2,1.8,1,.5,2,.8,3,.5,2,0,3-.5,3-2s-.3-1-.5-1.3c-.5-.5-1-.5-1.8-.8l-3.3-.5c-1.3-.3-2.3-.8-3.3-1.5-.8-.8-1.3-1.8-1-3,0-1.5.5-2.8,1.8-3.5,1.5-1,3-1.5,4.8-1.3,1.3,0,2.8.3,3.8.8s2,1.3,2.5,2.3l-2.3,1.8c-.5-.5-1-1-1.8-1.3-.8-.5-1.8-.5-2.8-.5s-1.5,0-2.3.5c-.5.3-.8.8-.8,1.3s.3.8.5,1.3c.5.3,1,.5,1.5.5l3.8.5c1.3.3,2.3.8,3,1.5.8.8,1,2,1,3,.3,1.5-.3,3-1.5,3.8Z"/>
              <path id="Tracé_26" class="cls-6" d="M96.8,676.6c-.5-.5-.5-1-.5-1.5s.3-1,.5-1.5c1-.8,2.3-.8,3,0,.5.5.5,1,.5,1.5s-.3,1-.5,1.5c-.5.5-1,.8-1.5.5-.5.3-1,0-1.5-.5ZM96.8,679.4h3.3v15.9h-3.3v-15.9Z"/>
              <path id="Tracé_27" class="cls-6" d="M103.6,679.4h3.3v2.3c1-1.8,3-2.8,5-2.8s3.3.5,4.3,1.8c1,1.5,1.5,3.3,1.5,5v9.3h-3v-8.8c0-1.3-.3-2.3-.8-3.3-.5-.8-1.5-1-2.5-1s-1.8.3-2.5.8c-1,.5-1.5,1.3-1.8,2.3v10.6h-3.3v-16.1h-.3Z"/>
              <path id="Tracé_28" class="cls-6" d="M128.5,695.5c-1.5,0-3-.3-4.3-1-1.3-.8-2.3-1.8-2.8-3-.8-1.3-1-2.8-1-4.3s.3-3,1-4.3c.5-1.3,1.5-2.3,2.8-3,1.3-.8,2.5-1,4-1s2.8.3,3.8,1c1,.8,2,1.8,2.5,3,.8,1.5,1,3,.8,4.5v1h-11.6c.3,1.3.8,2.3,1.5,3,1,.8,2,1,3,1s1.8-.3,2.8-.5c.8-.3,1.5-.8,2-1.5l1.8,2.3c-1.5,2-3.8,3-6.3,2.8ZM131,682.9c-.8-.8-1.8-1.3-2.8-1-1,0-2,.5-2.8,1-.8.8-1.3,1.8-1.5,3h8.3c0-1-.5-2-1.3-3h0Z"/>
              <path id="Tracé_29" class="cls-6" d="M149.2,694.3c-1.5,1-3,1.5-4.8,1.3-1.5,0-3-.3-4.3-.8s-2-1.3-2.8-2.3l2.3-2c.5.8,1,1.3,2,1.8,1,.5,2,.8,3,.5,1.8,0,2.8-.8,2.8-2s-.3-1-.5-1.3c-.5-.5-1-.5-1.8-.8l-3-.5c-1.3,0-2.3-.5-3.3-1.5-.8-.8-1.3-1.8-1-3,0-1.5.5-2.8,1.8-3.5,1.5-1,3-1.5,4.8-1.3,1.3,0,2.8.3,3.8.8s2,1.3,2.5,2.3l-2.3,1.8c-.5-.5-1-1-1.8-1.3-.8-.5-1.8-.5-2.8-.5s-1.5,0-2.3.5c-.5.3-.8.8-.8,1.3s.3.8.5,1.3c.5.3,1,.5,1.5.5l3.5.5c1.3.3,2.3.8,3,1.5.8.8,1,2,1,3,.5,1.5-.3,3-1.3,3.8Z"/>
              <path id="Tracé_30" class="cls-6" d="M164.5,694.3c-1.3,1-3,1.5-4.5,1.3-1.5,0-3-.3-4.3-.8s-2-1.3-2.8-2.3l2-2c.5.8,1,1.3,2,1.8,1,.5,2,.8,3,.5,2,0,3-.5,3-2s-.3-1-.5-1.3c-.5-.5-1-.5-1.8-.8l-3.3-.5c-1.3-.3-2.3-.8-3.3-1.5-.8-.8-1.3-1.8-1-3,0-1.5.5-2.8,1.8-3.5,1.5-1,3-1.5,4.8-1.3,1.3,0,2.8.3,3.8.8s2,1.3,2.5,2.3l-2.3,1.8c-.5-.8-1-1.3-1.8-1.5-.8-.5-1.8-.5-2.8-.5s-1.5,0-2.3.5c-.5.3-.8.8-.8,1.3s.3.8.5,1.3c.5.3,1,.5,1.5.5l3.5.5c1.3.3,2.3.8,3,1.5.8.8,1,2,1,3,.5,1.8,0,3.3-1.3,4Z"/>
              <path id="Tracé_31" class="cls-6" d="M173.4,673.9h8.1c2.3,0,4.5.5,6.3,1.8,3,2.8,3,7.6,0,10.6h0c-1.8,1.3-4,2-6.3,2h-4.5v7.1h-3.5v-21.4ZM181.2,684.9c1.5,0,2.8-.3,4-1,1-.8,1.3-1.8,1.3-3s-.3-2.3-1.3-3c-1.3-.8-2.5-1-4-1h-4.3v8.1h4.3Z"/>
              <path id="Tracé_32" class="cls-6" d="M206.8,695.3h-3.3v-2.3c-.5.8-1.3,1.5-2.3,2s-2,.8-3,.8-2.5-.3-3.8-1c-1-.8-2-1.8-2.5-3-1.3-2.8-1.3-5.8,0-8.6.5-1.3,1.5-2.3,2.5-3,2-1.3,4.5-1.5,6.8-.5.8.5,1.5,1,2,1.8v-2h3.3l.3,15.9h0ZM203.6,684.9c-.3-.8-1-1.5-1.8-2s-1.8-.8-2.8-.8-2.5.5-3.3,1.5c-1,1-1.3,2.5-1.3,3.8s.3,2.8,1.3,3.8c.8,1,2,1.5,3.3,1.5s2-.3,2.8-.8c.8-.5,1.3-1.3,1.8-2v-5h0Z"/>
              <path id="Tracé_33" class="cls-6" d="M210.1,679.4h3.3v2.3c.8-1.5,2.3-2.5,4-2.5h1v3h-1c-1.8,0-3.3,1-3.8,2.8v10.1h-3.3l-.3-15.6h0Z"/>
              <path id="Tracé_34" class="cls-6" d="M222.5,682.2h-2.3v-2.8h2.3v-4.8h3.3v4.5h4.8v2.8h-4.8v7.1c0,1,.3,1.8.5,2.5.5.5,1.3.8,2,.8h1c.3,0,.8,0,1-.3v2.8c-.5,0-.8.3-1.3.3h-1.5c-3.5,0-5.3-2-5.3-5.8l.3-7.1h0Z"/>
              <path id="Tracé_35" class="cls-6" d="M233.3,679.4h3.3v2.3c1-1.8,3-2.8,5-2.8s3.3.5,4.3,1.8c1,1.5,1.5,3.3,1.5,5v9.3h-3.3v-8.8c0-1.3-.3-2.3-.8-3.3-.5-.8-1.5-1-2.5-1s-1.8.3-2.5.8-1.3,1.3-1.8,2v10.6h-3.3v-15.9h0Z"/>
              <path id="Tracé_36" class="cls-6" d="M258,695.5c-1.5,0-3-.3-4.3-1-1.3-.8-2.3-1.8-2.8-3-.8-1.3-1-2.8-1-4.3s.3-3,1-4.3c.5-1.3,1.5-2.3,2.8-3,1.3-.8,2.5-1,4-1s2.8.3,3.8,1c1,.8,2,1.8,2.5,3,.8,1.5,1,3,.8,4.5v1h-11.6c.3,1.3.8,2.3,1.5,3,1,.8,2,1,3,1s1.8-.3,2.8-.5c.8-.3,1.5-.8,2-1.5l1.8,2.3c-1.5,2-3.8,3-6.3,2.8ZM260.5,682.9c-.8-.8-1.8-1.3-2.8-1-1,0-2,.5-2.8,1-.8.8-1.3,1.8-1.5,3h8.3c0-1-.5-2-1.3-3h0Z"/>
              <path id="Tracé_37" class="cls-6" d="M267.8,679.4h3.3v2.5c.8-1.5,2.3-2.8,4.3-2.8s1,0,1.5.3v3h-1.5c-2-.3-3.5.8-4.3,2.5v10.3h-3.3v-15.9h0Z"/>
            </g>
            <g id="Groupe_4">
              <path id="Tracé_38" class="cls-6" d="M129,604.6h8.8l14.9,26.9,15.1-26.9h8.6v44.6h-7.1v-34.3l-13.1,23.7h-6.8l-13.3-23.7v34h-7.1v-44.3h0Z"/>
              <path id="Tracé_39" class="cls-6" d="M199.6,649.9c-3,0-6-.8-8.8-2.3-2.5-1.5-4.5-3.5-5.8-6-1.5-2.8-2.3-5.8-2-9.1,0-3,.8-6.3,2-9.1,1.3-2.5,3.3-4.8,5.8-6,2.5-1.5,5.5-2.3,8.3-2.3s5.8.8,8.1,2.3c2.3,1.5,4,3.8,5.3,6.3,1.3,3,2,6.3,1.8,9.3v2h-24.4c.3,2.5,1.5,4.8,3.3,6.3,1.8,1.5,4.3,2.5,6.5,2.3,1.8,0,3.8-.3,5.5-1,1.5-.8,3-1.8,4.3-3l3.8,4.5c-3.5,4-8.6,5.8-13.6,5.8ZM204.8,623.5c-1.5-1.5-3.8-2.3-5.8-2.3s-4.3.8-6,2.3c-1.8,1.8-2.8,4-3,6.3h17.4c0-2.3-1-4.5-2.5-6.3h0Z"/>
              <path id="Tracé_40" class="cls-6" d="M223,621.7h-6.5v-5.8h6.5v-9.6h7.1v9.6h10.1v5.8h-10.1v14.9c-.3,1.8.3,3.8,1.3,5.3,1,1.3,2.8,1.8,4.3,1.5h2.3c.5,0,1.3-.3,2-.3v5.8c-.8.3-1.8.5-2.8.5-1,.3-2,.3-3,.3-7.6,0-11.1-4-11.1-12.3v-15.6h0Z"/>
              <path id="Tracé_41" class="cls-6" d="M276.1,649.2h-6.8v-4.5c-1.3,1.8-2.8,3-4.5,4-2.3.8-4.3,1.3-6.5,1.3s-5.5-.8-7.8-2.3c-2.3-1.5-4-3.8-5.3-6-1.3-2.8-2-5.8-2-9.1s.5-6.3,2-9.1c1.3-2.5,3-4.5,5.5-6,2.5-1.5,5.3-2.3,8.1-2.3s4.3.5,6,1.3,3.3,2,4.5,3.8v-4.3h6.8v33.2h0ZM269.1,627.5c-.8-1.8-2-3.5-3.5-4.5-1.5-1-3.5-1.8-5.5-1.8s-5.3,1-7.1,3c-1.8,2.3-2.8,5-2.5,8.1-.3,3,.8,5.8,2.5,8.1,1.8,2,4.3,3,6.8,3s4-.5,5.8-1.8c1.8-1,3-2.5,3.5-4.5v-9.6h0Z"/>
            </g>
          </g>
        </g>
      </g>
    </g>
  </g>
</svg>