<svg width="451" height="450" viewBox="0 0 451 450" fill="none" xmlns="http://www.w3.org/2000/svg">
<path d="M450.43 0H0V450H450.43V0Z" fill="#34ACE0"/>
<path d="M67.2704 278.58C67.2704 287.53 61.9004 292.53 54.0604 292.53C51.3204 292.53 48.6904 291.9 46.8804 290.75L49.1004 286.35C50.5104 287.31 52.1704 287.64 53.9504 287.64C58.2404 287.64 61.0504 285.09 61.2404 280.09C59.7204 281.61 57.5004 282.42 54.8004 282.42C49.8004 282.42 45.8804 279.24 45.8804 274.35C45.8804 269.06 50.2104 265.73 55.6904 265.73C62.8704 265.73 67.2704 270.21 67.2704 278.57V278.58ZM60.5804 274.06C60.5804 271.84 58.9204 270.21 56.0704 270.21C53.5204 270.21 51.7404 271.69 51.7404 274.06C51.7404 276.43 53.4804 277.95 56.1404 277.95C58.8004 277.95 60.5804 276.32 60.5804 274.06Z" fill="white"/>
<path d="M89.7301 283.94C89.7301 288.53 86.3601 292.52 78.9601 292.52C75.3701 292.52 71.6001 291.52 69.0801 289.74L71.4501 285.15C73.4101 286.63 76.1101 287.48 78.8101 287.48C81.8101 287.48 83.6601 286.22 83.6601 284.11C83.6601 282 82.3301 280.74 77.6301 280.74H71.0101L72.3401 266.16H88.1401V270.97H77.3401L76.9301 275.89H79.0401C86.7001 275.89 89.7301 279.33 89.7301 283.92V283.94Z" fill="white"/>
<path d="M92.1702 279.13C92.1702 270.58 96.9102 265.74 103.27 265.74C109.63 265.74 114.37 270.59 114.37 279.13C114.37 287.67 109.67 292.53 103.27 292.53C96.8702 292.53 92.1702 287.68 92.1702 279.13ZM108.34 279.13C108.34 273.25 106.27 270.8 103.27 270.8C100.27 270.8 98.2402 273.24 98.2402 279.13C98.2402 285.02 100.31 287.46 103.27 287.46C106.23 287.46 108.34 285.02 108.34 279.13Z" fill="white"/>
<path d="M142.5 292.08L142.46 276.54L134.84 289.34H132.14L124.56 276.87V292.08H118.94V266.18H123.9L133.59 282.28L143.14 266.18H148.06L148.13 292.08H142.51H142.5Z" fill="white"/>
<path d="M184.27 282.35C184.27 288.27 180.13 292.27 174.58 292.27C171.47 292.27 168.81 290.94 167.18 288.42V299.26H164.55V272.62H167.07V276.47C168.66 273.88 171.36 272.47 174.58 272.47C180.13 272.47 184.27 276.47 184.27 282.35ZM181.64 282.35C181.64 277.84 178.5 274.76 174.39 274.76C170.28 274.76 167.14 277.83 167.14 282.35C167.14 286.87 170.25 289.93 174.39 289.93C178.53 289.93 181.64 286.9 181.64 282.35Z" fill="white"/>
<path d="M206.58 283.17H190.3C190.6 287.24 193.7 289.94 197.96 289.94C200.33 289.94 202.44 289.09 203.92 287.39L205.4 289.09C203.66 291.16 200.96 292.27 197.89 292.27C191.82 292.27 187.68 288.13 187.68 282.35C187.68 276.57 191.71 272.47 197.19 272.47C202.67 272.47 206.63 276.5 206.63 282.35C206.63 282.57 206.59 282.87 206.59 283.16L206.58 283.17ZM190.3 281.21H204.1C203.77 277.4 200.99 274.73 197.18 274.73C193.37 274.73 190.63 277.39 190.3 281.21Z" fill="white"/>
<path d="M210.02 282.35C210.02 276.58 214.24 272.47 219.94 272.47C225.64 272.47 229.82 276.58 229.82 282.35C229.82 288.12 225.64 292.27 219.94 292.27C214.24 292.27 210.02 288.13 210.02 282.35ZM227.15 282.35C227.15 277.8 224.08 274.76 219.93 274.76C215.78 274.76 212.68 277.79 212.68 282.35C212.68 286.91 215.79 289.93 219.93 289.93C224.07 289.93 227.15 286.9 227.15 282.35Z" fill="white"/>
<path d="M254.9 282.35C254.9 288.27 250.76 292.27 245.2 292.27C242.09 292.27 239.43 290.94 237.8 288.42V299.26H235.17V272.62H237.69V276.47C239.28 273.88 241.98 272.47 245.2 272.47C250.75 272.47 254.9 276.47 254.9 282.35ZM252.27 282.35C252.27 277.84 249.12 274.76 245.02 274.76C240.92 274.76 237.77 277.83 237.77 282.35C237.77 286.87 240.88 289.93 245.02 289.93C249.16 289.93 252.27 286.9 252.27 282.35Z" fill="white"/>
<path d="M260.26 264.63H262.89V292.09H260.26V264.63Z" fill="white"/>
<path d="M287.16 283.17H270.88C271.18 287.24 274.28 289.94 278.54 289.94C280.91 289.94 283.02 289.09 284.5 287.39L285.98 289.09C284.24 291.16 281.54 292.27 278.47 292.27C272.4 292.27 268.26 288.13 268.26 282.35C268.26 276.57 272.29 272.47 277.77 272.47C283.25 272.47 287.21 276.5 287.21 282.35C287.21 282.57 287.17 282.87 287.17 283.16L287.16 283.17ZM270.88 281.21H284.68C284.35 277.4 281.57 274.73 277.76 274.73C273.95 274.73 271.21 277.39 270.88 281.21Z" fill="white"/>
<path d="M66.3504 317.02V336.48H63.8304V332.93C62.4604 335.3 59.9404 336.67 56.8404 336.67C51.8804 336.67 48.6304 333.9 48.6304 328.31V317.02H51.2604V328.05C51.2604 332.19 53.4104 334.3 57.1104 334.3C61.1804 334.3 63.7304 331.67 63.7304 327.23V317.02H66.3604H66.3504Z" fill="white"/>
<path d="M71.0102 334.27L72.1902 332.2C73.7402 333.42 76.3702 334.38 79.1102 334.38C82.8102 334.38 84.3302 333.12 84.3302 331.2C84.3302 326.13 71.7102 330.13 71.7102 322.43C71.7102 319.25 74.4502 316.88 79.4102 316.88C81.9302 316.88 84.6602 317.58 86.2902 318.69L85.1402 320.8C83.4402 319.62 81.4002 319.13 79.4002 319.13C75.8802 319.13 74.3302 320.5 74.3302 322.35C74.3302 327.6 86.9502 323.64 86.9502 331.12C86.9502 334.49 83.9902 336.67 78.9202 336.67C75.7002 336.67 72.5902 335.63 71.0002 334.27H71.0102Z" fill="white"/>
<path d="M108.75 327.57H92.4701C92.7701 331.64 95.8701 334.34 100.13 334.34C102.5 334.34 104.61 333.49 106.09 331.79L107.57 333.49C105.83 335.56 103.13 336.67 100.06 336.67C93.9901 336.67 89.8501 332.53 89.8501 326.75C89.8501 320.97 93.8801 316.87 99.3601 316.87C104.84 316.87 108.8 320.9 108.8 326.75C108.8 326.97 108.76 327.27 108.76 327.56L108.75 327.57ZM92.4701 325.61H106.27C105.94 321.8 103.16 319.13 99.3501 319.13C95.5401 319.13 92.8001 321.79 92.4701 325.61Z" fill="white"/>
<path d="M129.43 312.95H120.33V310.58H141.27V312.95H132.17V336.48H129.43V312.95Z" fill="white"/>
<path d="M160 327.57H143.72C144.02 331.64 147.12 334.34 151.38 334.34C153.75 334.34 155.86 333.49 157.34 331.79L158.82 333.49C157.08 335.56 154.38 336.67 151.31 336.67C145.24 336.67 141.1 332.53 141.1 326.75C141.1 320.97 145.13 316.87 150.61 316.87C156.09 316.87 160.05 320.9 160.05 326.75C160.05 326.97 160.01 327.27 160.01 327.56L160 327.57ZM143.71 325.61H157.51C157.18 321.8 154.4 319.13 150.59 319.13C146.78 319.13 144.04 321.79 143.71 325.61Z" fill="white"/>
<path d="M165.4 309.03H168.03V336.49H165.4V309.03Z" fill="white"/>
<path d="M192.3 327.57H176.02C176.32 331.64 179.42 334.34 183.68 334.34C186.05 334.34 188.16 333.49 189.64 331.79L191.12 333.49C189.38 335.56 186.68 336.67 183.61 336.67C177.54 336.67 173.4 332.53 173.4 326.75C173.4 320.97 177.43 316.87 182.91 316.87C188.39 316.87 192.35 320.9 192.35 326.75C192.35 326.97 192.31 327.27 192.31 327.56L192.3 327.57ZM176.02 325.61H189.82C189.49 321.8 186.71 319.13 182.9 319.13C179.09 319.13 176.35 321.79 176.02 325.61Z" fill="white"/>
<path d="M215.72 317.02V334.11C215.72 340.81 212.43 343.84 205.99 343.84C202.44 343.84 198.96 342.77 196.92 340.84L198.25 338.84C200.1 340.51 202.91 341.5 205.91 341.5C210.83 341.5 213.09 339.24 213.09 334.43V331.95C211.46 334.43 208.69 335.72 205.51 335.72C199.96 335.72 195.74 331.84 195.74 326.25C195.74 320.66 199.96 316.85 205.51 316.85C208.77 316.85 211.58 318.18 213.21 320.73V316.99H215.73L215.72 317.02ZM213.16 326.27C213.16 322.05 210.05 319.17 205.76 319.17C201.47 319.17 198.4 322.06 198.4 326.27C198.4 330.48 201.47 333.41 205.76 333.41C210.05 333.41 213.16 330.49 213.16 326.27Z" fill="white"/>
<path d="M232.88 316.87V319.42C232.66 319.42 232.44 319.38 232.25 319.38C228.18 319.38 225.7 321.97 225.7 326.56V336.48H223.07V317.02H225.59V320.83C226.81 318.24 229.29 316.87 232.88 316.87Z" fill="white"/>
<path d="M252.27 324.42V336.48H249.75V333.45C248.57 335.45 246.27 336.67 243.05 336.67C238.65 336.67 235.95 334.38 235.95 331.01C235.95 328.01 237.87 325.5 243.46 325.5H249.64V324.32C249.64 320.99 247.75 319.18 244.13 319.18C241.61 319.18 239.25 320.07 237.65 321.47L236.47 319.51C238.43 317.84 241.32 316.88 244.39 316.88C249.42 316.88 252.27 319.4 252.27 324.43V324.42ZM249.65 330.64V327.46H243.54C239.76 327.46 238.54 328.94 238.54 330.94C238.54 333.2 240.35 334.6 243.46 334.6C246.57 334.6 248.6 333.19 249.64 330.64H249.65Z" fill="white"/>
<path d="M291.53 325.2V336.49H288.9V325.46C288.9 321.35 286.83 319.24 283.31 319.24C279.31 319.24 276.8 321.83 276.8 326.27V336.48H274.17V325.45C274.17 321.34 272.1 319.23 268.55 319.23C264.59 319.23 262.04 321.82 262.04 326.26V336.47H259.41V317.01H261.93V320.56C263.3 318.23 265.82 316.86 269.07 316.86C272.32 316.86 274.81 318.23 275.99 320.97C277.4 318.45 280.17 316.86 283.69 316.86C288.43 316.86 291.53 319.6 291.53 325.19V325.2Z" fill="white"/>
<path d="M77.3802 361.42L70.0202 380.88H67.5402L61.4002 364.93L55.2602 380.88H52.7802L45.4502 361.42H47.9702L54.0802 377.96L60.3302 361.42H62.5902L68.8102 377.96L74.9902 361.42H77.3902H77.3802Z" fill="white"/>
<path d="M78.8203 371.15C78.8203 365.38 83.0403 361.27 88.7403 361.27C94.4403 361.27 98.6203 365.38 98.6203 371.15C98.6203 376.92 94.4403 381.07 88.7403 381.07C83.0403 381.07 78.8203 376.93 78.8203 371.15ZM95.9503 371.15C95.9503 366.6 92.8803 363.56 88.7303 363.56C84.5803 363.56 81.4803 366.59 81.4803 371.15C81.4803 375.71 84.5903 378.73 88.7303 378.73C92.8703 378.73 95.9503 375.7 95.9503 371.15Z" fill="white"/>
<path d="M113.78 361.27V363.82C113.56 363.82 113.34 363.78 113.15 363.78C109.08 363.78 106.6 366.37 106.6 370.96V380.88H103.97V361.42H106.49V365.23C107.71 362.64 110.19 361.27 113.78 361.27Z" fill="white"/>
<path d="M118.52 353.43H121.15V380.89H118.52V353.43Z" fill="white"/>
<path d="M146.23 353.43V380.89H143.71V377.04C142.12 379.67 139.42 381.07 136.2 381.07C130.65 381.07 126.51 377.04 126.51 371.15C126.51 365.26 130.65 361.27 136.2 361.27C139.31 361.27 141.97 362.6 143.6 365.12V353.43H146.23ZM143.64 371.15C143.64 366.6 140.53 363.56 136.42 363.56C132.31 363.56 129.17 366.59 129.17 371.15C129.17 375.71 132.28 378.73 136.42 378.73C140.56 378.73 143.64 375.7 143.64 371.15Z" fill="white"/>
<path d="M182.12 361.42L174.76 380.88H172.28L166.14 364.93L160 380.88H157.52L150.19 361.42H152.71L158.82 377.96L165.07 361.42H167.33L173.55 377.96L179.73 361.42H182.13H182.12Z" fill="white"/>
<path d="M185.49 355.28C185.49 354.28 186.34 353.43 187.41 353.43C188.48 353.43 189.33 354.24 189.33 355.24C189.33 356.31 188.52 357.16 187.41 357.16C186.3 357.16 185.49 356.31 185.49 355.27V355.28ZM186.08 361.42H188.71V380.88H186.08V361.42Z" fill="white"/>
<path d="M213.79 353.43V380.89H211.27V377.04C209.68 379.67 206.98 381.07 203.76 381.07C198.21 381.07 194.06 377.04 194.06 371.15C194.06 365.26 198.2 361.27 203.76 361.27C206.87 361.27 209.53 362.6 211.16 365.12V353.43H213.79ZM211.2 371.15C211.2 366.6 208.09 363.56 203.98 363.56C199.87 363.56 196.73 366.59 196.73 371.15C196.73 375.71 199.84 378.73 203.98 378.73C208.12 378.73 211.2 375.7 211.2 371.15Z" fill="white"/>
<path d="M238.07 371.97H221.79C222.09 376.04 225.19 378.74 229.45 378.74C231.82 378.74 233.93 377.89 235.41 376.19L236.89 377.89C235.15 379.96 232.45 381.07 229.38 381.07C223.31 381.07 219.17 376.93 219.17 371.15C219.17 365.37 223.2 361.27 228.68 361.27C234.16 361.27 238.12 365.3 238.12 371.15C238.12 371.37 238.08 371.67 238.08 371.96L238.07 371.97ZM221.78 370.01H235.58C235.25 366.2 232.47 363.53 228.66 363.53C224.85 363.53 222.11 366.19 221.78 370.01Z" fill="white"/>
<path d="M241.76 379.03C241.76 377.88 242.65 377.03 243.72 377.03C244.79 377.03 245.72 377.88 245.72 379.03C245.72 380.18 244.79 381.07 243.72 381.07C242.65 381.07 241.76 380.18 241.76 379.03Z" fill="white"/>
<path fill-rule="evenodd" clip-rule="evenodd" d="M137.15 188.25C138.74 189.37 140.78 189.65 142.6 188.96C144.42 188.27 145.76 186.71 146.16 184.82C150.44 164.71 160.82 113.82 164.71 95.5301C165.01 94.1501 164.51 92.7201 163.43 91.8001C162.35 90.8801 160.85 90.6101 159.51 91.1101C138.87 98.7501 75.2901 122.61 49.3001 132.22C47.6501 132.83 46.5801 134.42 46.6301 136.15C46.6901 137.89 47.8601 139.4 49.5501 139.91C61.2001 143.4 76.5001 148.25 76.5001 148.25C76.5001 148.25 83.6501 169.84 87.3801 180.82C87.8501 182.2 88.9301 183.28 90.3501 183.66C91.7701 184.03 93.2801 183.64 94.3401 182.64C100.33 176.99 109.58 168.25 109.58 168.25C109.58 168.25 127.17 181.14 137.14 188.25H137.15ZM82.9401 145.53L91.2101 172.8L93.0501 155.53C93.0501 155.53 124.99 126.72 143.2 110.3C143.73 109.82 143.81 109.01 143.36 108.44C142.92 107.87 142.11 107.74 141.51 108.12C120.41 121.6 82.9501 145.52 82.9501 145.52L82.9401 145.53Z" fill="white"/>
<path d="M57.2 210.04H48.77V205.08H71.71V210.04H63.28V231.4H57.19V210.04H57.2Z" fill="white"/>
<path d="M92.22 222.94H76.91C77.47 225.46 79.62 227 82.7 227C84.84 227 86.39 226.36 87.78 225.04L90.9 228.42C89.02 230.56 86.2 231.69 82.55 231.69C75.55 231.69 71 227.29 71 221.27C71 215.25 75.63 210.85 81.79 210.85C87.95 210.85 92.32 214.84 92.32 221.34C92.32 221.79 92.24 222.43 92.21 222.92L92.22 222.94ZM76.83 219.52H86.8C86.39 216.96 84.47 215.31 81.84 215.31C79.21 215.31 77.25 216.93 76.84 219.52H76.83Z" fill="white"/>
<path d="M96.24 203.49H102.11V231.4H96.24V203.49Z" fill="white"/>
<path d="M127.27 222.94H111.96C112.52 225.46 114.67 227 117.75 227C119.89 227 121.44 226.36 122.83 225.04L125.95 228.42C124.07 230.56 121.25 231.69 117.6 231.69C110.6 231.69 106.05 227.29 106.05 221.27C106.05 215.25 110.68 210.85 116.84 210.85C123 210.85 127.37 214.84 127.37 221.34C127.37 221.79 127.29 222.43 127.26 222.92L127.27 222.94ZM111.88 219.52H121.85C121.44 216.96 119.52 215.31 116.89 215.31C114.26 215.31 112.3 216.93 111.89 219.52H111.88Z" fill="white"/>
<path d="M152.16 211.17V228.02C152.16 235.54 148.1 239 140.8 239C136.96 239 133.24 238.06 130.87 236.22L133.2 232.01C134.93 233.4 137.75 234.3 140.35 234.3C144.49 234.3 146.29 232.42 146.29 228.77V227.9C144.75 229.59 142.53 230.42 139.9 230.42C134.3 230.42 129.78 226.54 129.78 220.64C129.78 214.74 134.29 210.86 139.9 210.86C142.72 210.86 145.05 211.8 146.6 213.76V211.17H152.17H152.16ZM146.37 220.64C146.37 217.67 144.15 215.67 141.07 215.67C137.99 215.67 135.73 217.66 135.73 220.64C135.73 223.62 137.99 225.6 141.07 225.6C144.15 225.6 146.37 223.61 146.37 220.64Z" fill="white"/>
<path d="M170.18 210.86V216.28C169.69 216.24 169.31 216.2 168.86 216.2C165.63 216.2 163.48 217.97 163.48 221.84V231.39H157.61V211.15H163.21V213.82C164.64 211.86 167.05 210.85 170.17 210.85L170.18 210.86Z" fill="white"/>
<path d="M191.46 219.85V231.4H185.97V228.88C184.88 230.72 182.77 231.7 179.8 231.7C175.06 231.7 172.24 229.07 172.24 225.57C172.24 222.07 174.76 219.51 180.93 219.51H185.59C185.59 216.99 184.09 215.52 180.93 215.52C178.79 215.52 176.57 216.23 175.1 217.4L172.99 213.3C175.21 211.72 178.48 210.85 181.72 210.85C187.89 210.85 191.46 213.71 191.46 219.84V219.85ZM185.6 225.01V222.94H181.58C178.83 222.94 177.97 223.96 177.97 225.31C177.97 226.78 179.21 227.76 181.28 227.76C183.24 227.76 184.93 226.86 185.61 225.01H185.6Z" fill="white"/>
<path d="M230.96 219.82V231.4H225.09V220.72C225.09 217.45 223.62 215.94 221.25 215.94C218.62 215.94 216.77 217.63 216.77 221.24V231.4H210.9V220.72C210.9 217.45 209.51 215.94 207.06 215.94C204.47 215.94 202.62 217.63 202.62 221.24V231.4H196.75V211.16H202.35V213.49C203.85 211.76 206.11 210.86 208.71 210.86C211.53 210.86 213.94 211.95 215.37 214.17C216.99 212.1 219.62 210.86 222.67 210.86C227.48 210.86 230.95 213.64 230.95 219.81L230.96 219.82Z" fill="white"/>
</svg>
