<?xml version="1.0" encoding="UTF-8"?>
<svg xmlns="http://www.w3.org/2000/svg" version="1.1" viewBox="0 0 450 900">
  <defs>
    <style>
      .cls-1 {
        fill: #292828;
      }

      .cls-2 {
        stroke: #ff5252;
      }

      .cls-2, .cls-3, .cls-4 {
        fill: none;
        stroke-width: 1.9px;
      }

      .cls-5 {
        fill: #42c684;
      }

      .cls-6, .cls-7 {
        fill: #fff;
      }

      .cls-7 {
        fill-rule: evenodd;
      }

      .cls-8 {
        fill: #08c;
      }

      .cls-9 {
        fill: #ff5252;
      }

      .cls-3 {
        stroke: #fff;
      }

      .cls-4 {
        stroke: #d7df22;
      }

      .cls-10 {
        fill: #51c387;
      }

      .cls-11 {
        fill: #f9f5f1;
      }

      .cls-12 {
        fill: #52c4d4;
      }

      .cls-13 {
        fill: #d7df22;
      }
    </style>
  </defs>
  <!-- Generator: Adobe Illustrator 28.7.1, SVG Export Plug-In . SVG Version: 1.2.0 Build 142)  -->
  <g>
    <g id="Layer_1">
      <g>
        <g>
          <rect class="cls-9" x="360.1" width="90.1" height="90.1"/>
          <rect class="cls-13" x="270" width="90.1" height="180.2"/>
          <rect class="cls-5" x="180" width="90.1" height="90.1"/>
          <rect class="cls-12" x="89.9" width="90.1" height="90.1"/>
          <rect class="cls-1" x="-.2" width="90.1" height="90.1"/>
          <rect class="cls-11" x="360.1" y="90.1" width="90.1" height="90.1"/>
          <rect class="cls-12" x="180" y="90.1" width="90.1" height="90.1"/>
          <rect class="cls-9" x="89.9" y="90.1" width="90.1" height="90.1"/>
          <rect class="cls-13" x="-.2" y="90.1" width="90.1" height="90.1"/>
          <rect class="cls-12" x="360.1" y="180.2" width="90.1" height="90.1"/>
          <rect class="cls-9" x="270" y="180.2" width="90.1" height="90.1"/>
          <rect class="cls-13" x="180" y="180.2" width="90.1" height="90.1"/>
          <rect class="cls-1" x="89.9" y="180.2" width="90.1" height="90.1"/>
          <rect class="cls-11" x="-.2" y="180.2" width="90.1" height="90.1"/>
          <rect class="cls-5" x="360.1" y="270" width="90.1" height="90.1"/>
          <rect class="cls-11" x="270" y="270" width="90.1" height="90.1"/>
          <rect class="cls-1" x="180" y="270" width="90.1" height="90.1"/>
          <rect class="cls-12" x="89.9" y="270" width="90.1" height="90.1"/>
          <rect class="cls-5" x="-.2" y="270" width="90.1" height="90.1"/>
          <rect class="cls-1" x="360.1" y="359.9" width="90.1" height="90.1"/>
          <rect class="cls-13" x="270" y="359.9" width="90.1" height="90.1"/>
          <rect class="cls-10" x="180" y="359.9" width="90.1" height="90.1"/>
          <rect class="cls-13" x="89.9" y="359.9" width="90.1" height="90.1"/>
          <rect class="cls-12" x="-.2" y="359.9" width="90.1" height="90.1"/>
          <polygon class="cls-3" points="225.4 157.1 194.3 157.1 225.4 114.9 256.5 157.1 225.4 157.1"/>
          <g>
            <path class="cls-3" d="M425.1,45.5h0c0,17.6-20.2,27.5-34.2,16.8h0c-11-8.5-11-25,0-33.5h0c13.9-10.8,34.2-.9,34.2,16.8h0Z"/>
            <rect class="cls-3" x="382.7" y="24.3" width="42.4" height="42.4" transform="translate(657.3 363.3) rotate(-135)"/>
          </g>
          <g>
            <rect class="cls-2" x="293.4" y="293.8" width="43.7" height="43.7" rx=".7" ry=".7" transform="translate(314.9 761.8) rotate(-135)"/>
            <path class="cls-2" d="M315.7,297.3l29.2,17.6c.6.3.6,1.2,0,1.5l-29.2,18.2c-.3.2-.7.2-.9,0l-29.2-18.2c-.6-.4-.6-1.2,0-1.5l29.2-17.6c.3-.2.6-.2.9,0Z"/>
            <path class="cls-2" d="M315.4,307.2l27.6,7.6c.9.2.9,1.5,0,1.7l-27.6,7.8c-.2,0-.3,0-.5,0l-27.6-7.8c-.9-.2-.9-1.5,0-1.7l27.6-7.6c.2,0,.3,0,.5,0Z"/>
          </g>
          <g>
            <polygon class="cls-3" points="56.5 136 56.5 167.1 17.5 136 56.5 104.9 56.5 136"/>
            <circle class="cls-3" cx="55.1" cy="136" r="14.9"/>
          </g>
          <g>
            <polygon class="cls-3" points="416.7 315.7 416.7 346.8 377.6 315.7 416.7 284.6 416.7 315.7"/>
            <circle class="cls-3" cx="415.2" cy="315.7" r="14.9"/>
          </g>
          <g>
            <g>
              <path class="cls-3" d="M252.1,377.5c-15.7,0-28.4,12.7-28.4,28.4s12.7,28.4,28.4,28.4v-56.8Z"/>
              <path class="cls-3" d="M223.7,377.5c15.7,0,28.4,12.7,28.4,28.4s-12.7,28.4-28.4,28.4v-56.8Z"/>
            </g>
            <circle class="cls-3" cx="237.9" cy="405.9" r="7.3"/>
            <g>
              <line class="cls-3" x1="215.1" y1="406.5" x2="198.7" y2="406.5"/>
              <line class="cls-3" x1="214.7" y1="397.8" x2="202.4" y2="385.5"/>
              <line class="cls-3" x1="214.7" y1="414" x2="202.4" y2="426.3"/>
            </g>
          </g>
          <g>
            <g>
              <path class="cls-3" d="M430.6,197.2c-15.7,0-28.4,12.7-28.4,28.4s12.7,28.4,28.4,28.4v-56.8Z"/>
              <path class="cls-3" d="M402.2,197.2c15.7,0,28.4,12.7,28.4,28.4s-12.7,28.4-28.4,28.4v-56.8Z"/>
            </g>
            <circle class="cls-3" cx="416.4" cy="225.6" r="7.3"/>
            <g>
              <line class="cls-3" x1="393.6" y1="226.1" x2="377.2" y2="226.1"/>
              <line class="cls-3" x1="393.2" y1="217.5" x2="380.9" y2="205.2"/>
              <line class="cls-3" x1="393.2" y1="233.6" x2="380.9" y2="246"/>
            </g>
          </g>
          <g>
            <polygon class="cls-4" points="248.1 45.5 248.1 76.8 202.4 45.5 248.1 14.2 248.1 45.5"/>
            <circle class="cls-4" cx="233.4" cy="45.5" r="15"/>
            <line class="cls-4" x1="248.1" y1="14.2" x2="239.1" y2="31.7"/>
            <line class="cls-4" x1="218.4" y1="45.5" x2="202.4" y2="45.5"/>
            <line class="cls-4" x1="238.6" y1="59.5" x2="248.1" y2="75.6"/>
          </g>
          <g>
            <polygon class="cls-2" points="338 405.9 338 437.2 292.3 405.9 338 374.6 338 405.9"/>
            <circle class="cls-2" cx="323.2" cy="405.9" r="15"/>
            <line class="cls-2" x1="338" y1="374.6" x2="328.9" y2="392.1"/>
            <line class="cls-2" x1="308.2" y1="405.9" x2="292.3" y2="405.9"/>
            <line class="cls-2" x1="328.4" y1="419.9" x2="338" y2="436"/>
          </g>
          <g>
            <rect class="cls-3" x="290.8" y="111.6" width="48.9" height="48.9" transform="translate(179.2 451.2) rotate(-90)"/>
            <rect class="cls-3" x="297.9" y="118.7" width="34.5" height="34.5" transform="translate(441.9 455) rotate(-135)"/>
            <rect class="cls-3" x="303" y="123.8" width="24.4" height="24.4" transform="translate(179.2 451.2) rotate(-90)"/>
          </g>
          <g>
            <rect class="cls-3" x="19.3" y="381.5" width="48.9" height="48.9" transform="translate(-362.2 449.6) rotate(-90)"/>
            <rect class="cls-3" x="26.5" y="388.6" width="34.5" height="34.5" transform="translate(-212.3 723.8) rotate(-135)"/>
            <rect class="cls-3" x="31.5" y="393.7" width="24.4" height="24.4" transform="translate(-362.2 449.6) rotate(-90)"/>
          </g>
          <g>
            <circle class="cls-3" cx="315.2" cy="45.5" r="22.9"/>
            <path class="cls-3" d="M303.9,25.9c-.2-7.1.9-11.8,3.3-12.4,4.4-1.1,11.6,12.3,16,30,4.4,17.7,4.4,32.9,0,34-2.3.6-5.3-2.8-8.3-8.5"/>
          </g>
          <g>
            <circle class="cls-4" cx="403.9" cy="405.9" r="22.9"/>
            <path class="cls-4" d="M392.6,386.3c-.2-7.1.9-11.8,3.3-12.4,4.4-1.1,11.6,12.3,16,30,4.4,17.7,4.4,32.9,0,34-2.3.6-5.3-2.8-8.3-8.5"/>
          </g>
          <g>
            <circle class="cls-2" cx="43.7" cy="225.6" r="22.9"/>
            <path class="cls-2" d="M32.4,206c-.2-7.1.9-11.8,3.3-12.4,4.4-1.1,11.6,12.3,16,30,4.4,17.7,4.4,32.9,0,34-2.3.6-5.3-2.8-8.3-8.5"/>
          </g>
          <g>
            <line class="cls-4" x1="385.4" y1="117.5" x2="396.7" y2="128.8"/>
            <line class="cls-4" x1="403.9" y1="109.9" x2="403.9" y2="125.9"/>
            <line class="cls-4" x1="422.3" y1="117.5" x2="411" y2="128.8"/>
            <line class="cls-4" x1="430" y1="136" x2="414" y2="136"/>
            <line class="cls-4" x1="411" y1="143.2" x2="422.3" y2="154.5"/>
            <line class="cls-4" x1="403.9" y1="146.1" x2="403.9" y2="162.1"/>
            <line class="cls-4" x1="396.7" y1="143.2" x2="385.4" y2="154.5"/>
            <line class="cls-4" x1="393.7" y1="136" x2="377.8" y2="136"/>
          </g>
          <g>
            <line class="cls-4" x1="115.7" y1="297.2" x2="126.9" y2="308.5"/>
            <line class="cls-4" x1="134.1" y1="289.6" x2="134.1" y2="305.5"/>
            <line class="cls-4" x1="152.6" y1="297.2" x2="141.3" y2="308.5"/>
            <line class="cls-4" x1="160.2" y1="315.7" x2="144.3" y2="315.7"/>
            <line class="cls-4" x1="141.3" y1="322.8" x2="152.6" y2="334.1"/>
            <line class="cls-4" x1="134.1" y1="325.8" x2="134.1" y2="341.8"/>
            <line class="cls-4" x1="126.9" y1="322.8" x2="115.7" y2="334.1"/>
            <line class="cls-4" x1="124" y1="315.7" x2="108" y2="315.7"/>
          </g>
          <g>
            <line class="cls-3" x1="206.9" y1="207.1" x2="218.2" y2="218.4"/>
            <line class="cls-3" x1="225.4" y1="199.5" x2="225.4" y2="215.4"/>
            <line class="cls-3" x1="243.8" y1="207.1" x2="232.6" y2="218.4"/>
            <line class="cls-3" x1="251.5" y1="225.6" x2="235.5" y2="225.6"/>
            <line class="cls-3" x1="232.6" y1="232.7" x2="243.8" y2="244"/>
            <line class="cls-3" x1="225.4" y1="235.7" x2="225.4" y2="251.7"/>
            <line class="cls-3" x1="218.2" y1="232.7" x2="206.9" y2="244"/>
            <line class="cls-3" x1="215.2" y1="225.6" x2="199.3" y2="225.6"/>
          </g>
          <g>
            <line class="cls-3" x1="25.3" y1="27" x2="43.7" y2="45.5"/>
            <line class="cls-3" x1="43.7" y1="19.4" x2="43.7" y2="45.5"/>
            <line class="cls-3" x1="62.2" y1="27" x2="43.7" y2="45.5"/>
            <line class="cls-3" x1="69.8" y1="45.5" x2="43.7" y2="45.5"/>
            <line class="cls-3" x1="62.2" y1="64" x2="43.7" y2="45.5"/>
            <line class="cls-3" x1="43.7" y1="71.6" x2="43.7" y2="45.5"/>
            <line class="cls-3" x1="25.3" y1="64" x2="43.7" y2="45.5"/>
            <line class="cls-3" x1="17.6" y1="45.5" x2="43.7" y2="45.5"/>
          </g>
          <path class="cls-3" d="M137.3,74.6c-25.8-11.6-25.8-46.5,0-58.1M150.3,45.5c0,5.4-4.3,9.7-9.7,9.7s-9.7-4.3-9.7-9.7,4.3-9.7,9.7-9.7,9.7,4.3,9.7,9.7Z"/>
          <path class="cls-2" d="M137.3,435c-25.8-11.6-25.8-46.5,0-58.1M150.3,405.9c0,5.4-4.3,9.7-9.7,9.7s-9.7-4.3-9.7-9.7,4.3-9.7,9.7-9.7,9.7,4.3,9.7,9.7Z"/>
          <path class="cls-3" d="M155.2,136h0c0,17.5-20.1,27.4-34,16.7h0c-10.9-8.4-10.9-24.9,0-33.3h0c13.9-10.7,34-.8,34,16.7h0Z"/>
          <g>
            <path class="cls-6" d="M204.5,329c-4.6,0-7.5-2.2-7.5-7.2v-7.8h-3.1v-4.9h3.1v-3.9h6v3.9h6.4v4.9h-6.4v7.1c0,2,.8,2.5,2.9,2.5h3.6v5.4h-4.9Z"/>
            <path class="cls-6" d="M219.1,323.6h13.3v5.4h-21.1v-5.4l12.7-9.1.7-.5h-12.8v-4.9h19.9v5.1c-4.2,3.1-8.5,6.3-12.7,9.4Z"/>
            <path class="cls-6" d="M234.3,329v-26.6h6v14.1h4.5l5.1-7.4h7.1l-7.3,9.6,7.1,10.3h-7l-5-7.2h-4.6v7.2h-6Z"/>
          </g>
          <g>
            <path class="cls-6" d="M73.7,311.3c-.7-.7-1.6-1.1-2.5-1.1h-3c0-.8,0-1.5,0-2.3-.2-2-.6-4.4-1.6-6.9,3.3-1.7,5.3-3.5,5.1-5.5-.3-2.7-4.3-4.1-13.6-5.1-6.6-4.4-13.9-4.3-15-4.2-.5,0-11.1.5-17.9,8.3-11.4,4.2-12.7,6.6-12.4,8.6.3,2.1,3.2,3.4,7.2,4.1v4.1s-2.9,0-2.9,0c-1,0-1.9.4-2.6,1s-1.1,1.6-1.1,2.5v10.5c-.1,1,.2,1.9.9,2.6.7.7,1.6,1.1,2.5,1.1h2.9s0,2,0,2c0,3.7,2.9,6.7,6.6,6.8h2.8s0,4.6,0,4.6c0,1,.5,1.9,1.4,2.4.4.2.9.4,1.4.4s.9-.1,1.4-.4l6.3-3.9c2.9-1.8,6.3-2.7,9.7-2.6,3.8.2,9,.3,12.4,0,.9,0,3-.3,4.6-1.9,1.3-1.3,2-2.9,2-4.7v-3.7s2.9,0,2.9,0h.1c1.9,0,3.5-1.6,3.5-3.5v-10.5c.1-1-.2-1.9-.9-2.6h0ZM68.9,295.8c0,.6-1.4,1.6-3.5,2.7-.5-.9-1-1.7-1.6-2.6-.6-.8-1.2-1.5-1.8-2.2,6.3,1,7,2.1,7,2.1ZM43.2,289c1.2,0,12-.2,18.4,8.5.5.7.9,1.4,1.3,2.1-4.8,2-12.1,4.1-20.3,5.1-7.5.9-14.5.8-19.5.2.4-2.1,1.1-4,2.1-5.8,5.5-9.6,17.4-10.2,17.9-10.2ZM15.5,302.8c0,0,.4-1.4,6.9-4.2-1,1.9-1.6,3.8-2,5.9-2.8-.5-4.6-1.2-4.9-1.8h0ZM17,326.2c-.2,0-.4,0-.6-.2-.2-.2-.2-.4-.2-.6v-10.5c.1-.2.2-.4.4-.6.2-.1.3-.2.5-.2h2.9s-.1,12.1-.1,12.1h-2.9ZM64.1,334.3c-.8.8-1.9,1-3,1.1-3.2.3-8.3.2-12,0-4-.2-7.9.9-11.3,3l-6.2,3.9v-7.3c0,0-5.4,0-5.4,0-2.2,0-3.9-1.8-3.9-4v-2h0l.2-17.6h0v-3.3h0c0-.2,0-.3,0-.5,3.4.4,7.4.5,11.1.4,3.3,0,6.5-.3,9-.6,5.8-.7,14.8-2.7,21.1-5.3,1,2.5,1.3,4.9,1.4,6.7l-.2,22.7c0,1-.4,2-1.2,2.8ZM71.9,324.3c0,.5-.3.8-.8.8h-2.9s.1-12.1.1-12.1h2.9c.2,0,.4.1.6.3.2.2.2.4.2.6v10.5c-.1,0-.1,0-.1,0Z"/>
            <g>
              <path class="cls-6" d="M42.4,327.8c-3.2-.2-6.4-1.2-9.2-2.8l-1.4,2.4c3.2,1.9,6.8,3,10.4,3.2.7,0,1.4,0,2,0,5.3-.1,9.4-2,11.5-3.3l-1.4-2.4c-2.1,1.2-6.4,3.2-11.9,2.9h0Z"/>
              <path class="cls-6" d="M50.8,314.7c1.7,0,3,1.4,3,3s-1.4,3-3,3-3-1.4-3-3,1.4-3,3-3M50.8,311.7c-3.3,0-6,2.7-6,6s2.7,6,6,6,6-2.7,6-6-2.7-6-6-6h0Z"/>
              <path class="cls-6" d="M36.7,314.7c1.7,0,3,1.4,3,3s-1.4,3-3,3-3-1.4-3-3,1.4-3,3-3M36.7,311.7c-3.3,0-6,2.7-6,6s2.7,6,6,6,6-2.7,6-6-2.7-6-6-6h0Z"/>
            </g>
          </g>
          <g>
            <path class="cls-6" d="M345.1,220.5c-.7-.7-1.6-1.1-2.5-1.1h-3c0-.8,0-1.5,0-2.3-.2-2-.6-4.4-1.6-6.9,3.3-1.7,5.3-3.5,5.1-5.5-.3-2.7-4.3-4.1-13.6-5.1-6.6-4.4-13.9-4.3-15-4.2-.5,0-11.1.5-17.9,8.3-11.4,4.2-12.7,6.6-12.4,8.6.3,2.1,3.2,3.4,7.2,4.1v4.1s-2.9,0-2.9,0c-1,0-1.9.4-2.6,1s-1.1,1.6-1.1,2.5v10.5c-.1,1,.2,1.9.9,2.6.7.7,1.6,1.1,2.5,1.1h2.9s0,2,0,2c0,3.7,2.9,6.7,6.6,6.8h2.8s0,4.6,0,4.6c0,1,.5,1.9,1.4,2.4.4.2.9.4,1.4.4s.9-.1,1.4-.4l6.3-3.9c2.9-1.8,6.3-2.7,9.7-2.6,3.8.2,9,.3,12.4,0,.9,0,3-.3,4.6-1.9,1.3-1.3,2-2.9,2-4.7v-3.7s2.9,0,2.9,0h.1c1.9,0,3.5-1.6,3.5-3.5v-10.5c.1-1-.2-1.9-.9-2.6h0ZM340.3,205.1c0,.6-1.4,1.6-3.5,2.7-.5-.9-1-1.7-1.6-2.6-.6-.8-1.2-1.5-1.8-2.2,6.3,1,7,2.1,7,2.1ZM314.5,198.2c1.2,0,12-.2,18.4,8.5.5.7.9,1.4,1.3,2.1-4.8,2-12.1,4.1-20.3,5.1-7.5.9-14.5.8-19.5.2.4-2.1,1.1-4,2.1-5.8,5.5-9.6,17.4-10.2,17.9-10.2ZM286.8,212c0,0,.4-1.4,6.9-4.2-1,1.9-1.6,3.8-2,5.9-2.8-.5-4.6-1.2-4.9-1.8h0ZM288.3,235.5c-.2,0-.4,0-.6-.2-.2-.2-.2-.4-.2-.6v-10.5c.1-.2.2-.4.4-.6.2-.1.3-.2.5-.2h2.9s-.1,12.1-.1,12.1h-2.9ZM335.5,243.5c-.8.8-1.9,1-3,1.1-3.2.3-8.3.2-12,0-4-.2-7.9.9-11.3,3l-6.2,3.9v-7.3c0,0-5.4,0-5.4,0-2.2,0-3.9-1.8-3.9-4v-2h0l.2-17.6h0v-3.3h0c0-.2,0-.3,0-.5,3.4.4,7.4.5,11.1.4,3.3,0,6.5-.3,9-.6,5.8-.7,14.8-2.7,21.1-5.3,1,2.5,1.3,4.9,1.4,6.7l-.2,22.7c0,1-.4,2-1.2,2.8ZM343.2,233.5c0,.5-.3.8-.8.8h-2.9s.1-12.1.1-12.1h2.9c.2,0,.4.1.6.3.2.2.2.4.2.6v10.5c-.1,0-.1,0-.1,0Z"/>
            <g>
              <path class="cls-6" d="M313.7,237c-3.2-.2-6.4-1.2-9.2-2.8l-1.4,2.4c3.2,1.9,6.8,3,10.4,3.2.7,0,1.4,0,2,0,5.3-.1,9.4-2,11.5-3.3l-1.4-2.4c-2.1,1.2-6.4,3.2-11.9,2.9h0Z"/>
              <path class="cls-6" d="M322.1,223.9c1.7,0,3,1.4,3,3s-1.4,3-3,3-3-1.4-3-3,1.4-3,3-3M322.1,220.9c-3.3,0-6,2.7-6,6s2.7,6,6,6,6-2.7,6-6-2.7-6-6-6h0Z"/>
              <path class="cls-6" d="M308,223.9c1.7,0,3,1.4,3,3s-1.4,3-3,3-3-1.4-3-3,1.4-3,3-3M308,220.9c-3.3,0-6,2.7-6,6s2.7,6,6,6,6-2.7,6-6-2.7-6-6-6h0Z"/>
            </g>
          </g>
          <g>
            <rect class="cls-3" x="115.5" y="203.4" width="43.7" height="43.7" rx=".7" ry=".7" transform="translate(75.2 481.6) rotate(-135)"/>
            <path class="cls-3" d="M137.8,206.8l29.2,17.6c.6.3.6,1.2,0,1.5l-29.2,18.2c-.3.2-.7.2-.9,0l-29.2-18.2c-.6-.4-.6-1.2,0-1.5l29.2-17.6c.3-.2.6-.2.9,0Z"/>
            <path class="cls-3" d="M137.6,216.8l27.6,7.6c.9.2.9,1.5,0,1.7l-27.6,7.8c-.2,0-.3,0-.5,0l-27.6-7.8c-.9-.2-.9-1.5,0-1.7l27.6-7.6c.2,0,.3,0,.5,0Z"/>
          </g>
        </g>
        <g>
          <rect class="cls-8" x="-.2" y="450" width="450.4" height="450"/>
          <path id="telegram-1" class="cls-7" d="M133.7,616.4c1.6,1.1,3.6,1.4,5.5.7,1.8-.7,3.2-2.3,3.6-4.1,4.3-20.1,14.7-71,18.6-89.3.3-1.4-.2-2.8-1.3-3.7-1.1-.9-2.6-1.2-3.9-.7-20.6,7.6-84.2,31.5-110.2,41.1-1.6.6-2.7,2.2-2.7,3.9,0,1.7,1.2,3.3,2.9,3.8,11.7,3.5,27,8.3,27,8.3,0,0,7.1,21.6,10.9,32.6.5,1.4,1.5,2.5,3,2.8,1.4.4,2.9,0,4-1,6-5.7,15.2-14.4,15.2-14.4,0,0,17.6,12.9,27.6,20ZM79.4,573.7l8.3,27.3,1.8-17.3s31.9-28.8,50.1-45.2c.5-.5.6-1.3.2-1.9-.4-.6-1.2-.7-1.9-.3-21.1,13.5-58.6,37.4-58.6,37.4Z"/>
          <g>
            <path class="cls-6" d="M53.7,638.2h-8.4v-5h22.9v5h-8.4v21.4h-6.1v-21.4Z"/>
            <path class="cls-6" d="M88.7,651.1h-15.3c.6,2.5,2.7,4.1,5.8,4.1s3.7-.6,5.1-2l3.1,3.4c-1.9,2.1-4.7,3.3-8.3,3.3-7,0-11.5-4.4-11.5-10.4s4.6-10.4,10.8-10.4,10.5,4,10.5,10.5,0,1.1-.1,1.6ZM73.3,647.7h10c-.4-2.6-2.3-4.2-5-4.2s-4.6,1.6-5,4.2Z"/>
            <path class="cls-6" d="M92.7,631.7h5.9v27.9h-5.9v-27.9Z"/>
            <path class="cls-6" d="M123.8,651.1h-15.3c.6,2.5,2.7,4.1,5.8,4.1s3.7-.6,5.1-2l3.1,3.4c-1.9,2.1-4.7,3.3-8.3,3.3-7,0-11.5-4.4-11.5-10.4s4.6-10.4,10.8-10.4,10.5,4,10.5,10.5,0,1.1-.1,1.6ZM108.4,647.7h10c-.4-2.6-2.3-4.2-5-4.2s-4.6,1.6-5,4.2Z"/>
            <path class="cls-6" d="M148.7,639.3v16.9c0,7.5-4.1,11-11.4,11s-7.6-.9-9.9-2.8l2.3-4.2c1.7,1.4,4.6,2.3,7.1,2.3,4.1,0,5.9-1.9,5.9-5.5v-.9c-1.5,1.7-3.8,2.5-6.4,2.5-5.6,0-10.1-3.9-10.1-9.8s4.5-9.8,10.1-9.8,5.2.9,6.7,2.9v-2.6h5.6ZM142.9,648.8c0-3-2.2-5-5.3-5s-5.3,2-5.3,5,2.3,5,5.3,5,5.3-2,5.3-5Z"/>
            <path class="cls-6" d="M166.7,639v5.4c-.5,0-.9,0-1.3,0-3.2,0-5.4,1.8-5.4,5.6v9.6h-5.9v-20.2h5.6v2.7c1.4-2,3.8-3,7-3Z"/>
            <path class="cls-6" d="M188,648v11.5h-5.5v-2.5c-1.1,1.8-3.2,2.8-6.2,2.8-4.7,0-7.6-2.6-7.6-6.1s2.5-6.1,8.7-6.1h4.7c0-2.5-1.5-4-4.7-4s-4.4.7-5.8,1.9l-2.1-4.1c2.2-1.6,5.5-2.4,8.7-2.4,6.2,0,9.7,2.9,9.7,9ZM182.1,653.2v-2.1h-4c-2.7,0-3.6,1-3.6,2.4s1.2,2.4,3.3,2.4,3.6-.9,4.3-2.7Z"/>
            <path class="cls-6" d="M227.5,648v11.6h-5.9v-10.7c0-3.3-1.5-4.8-3.8-4.8s-4.5,1.7-4.5,5.3v10.2h-5.9v-10.7c0-3.3-1.4-4.8-3.8-4.8s-4.4,1.7-4.4,5.3v10.2h-5.9v-20.2h5.6v2.3c1.5-1.7,3.8-2.6,6.4-2.6s5.2,1.1,6.7,3.3c1.6-2.1,4.3-3.3,7.3-3.3,4.8,0,8.3,2.8,8.3,9Z"/>
          </g>
          <g>
            <path class="cls-6" d="M70.2,693.6v21h-2.1v-16.8l-8.2,14.1h-1.1l-8.2-14v16.7h-2.1v-21h1.8l9.1,15.6,9-15.6h1.8Z"/>
            <path class="cls-6" d="M88.5,704.8v9.8h-2v-2.5c-1,1.6-2.8,2.6-5.4,2.6s-5.8-1.9-5.8-4.6,1.6-4.5,6.1-4.5h5v-1c0-2.7-1.5-4.2-4.5-4.2s-4,.7-5.2,1.9l-1-1.6c1.6-1.3,3.9-2.1,6.4-2.1,4.1,0,6.4,2,6.4,6.1ZM86.3,709.8v-2.6h-4.9c-3.1,0-4,1.2-4,2.8s1.5,3,4,3,4.2-1.1,5-3.2Z"/>
            <path class="cls-6" d="M108.8,705.4v9.1h-2.1v-8.9c0-3.3-1.7-5-4.7-5s-5.5,2.1-5.5,5.7v8.3h-2.1v-15.8h2v2.9c1.1-1.9,3.3-3,6-3s6.5,2.2,6.5,6.8Z"/>
            <path class="cls-6" d="M126.5,704.8v9.8h-2v-2.5c-1,1.6-2.8,2.6-5.4,2.6s-5.8-1.9-5.8-4.6,1.6-4.5,6.1-4.5h5v-1c0-2.7-1.5-4.2-4.5-4.2s-4,.7-5.2,1.9l-1-1.6c1.6-1.3,3.9-2.1,6.4-2.1,4.1,0,6.4,2,6.4,6.1ZM124.3,709.8v-2.6h-4.9c-3.1,0-4,1.2-4,2.8s1.5,3,4,3,4.2-1.1,5-3.2Z"/>
            <path class="cls-6" d="M146.9,698.8v13.9c0,5.4-2.7,7.9-7.9,7.9s-5.7-.9-7.3-2.4l1.1-1.6c1.5,1.3,3.8,2.2,6.2,2.2,4,0,5.8-1.8,5.8-5.7v-2c-1.3,2-3.6,3.1-6.1,3.1-4.5,0-7.9-3.2-7.9-7.7s3.4-7.6,7.9-7.6,4.9,1.1,6.2,3.2v-3h2ZM144.9,706.3c0-3.4-2.5-5.8-6-5.8s-6,2.3-6,5.8,2.5,5.8,6,5.8,6-2.4,6-5.8Z"/>
            <path class="cls-6" d="M166.6,707.3h-13.2c.2,3.3,2.8,5.5,6.2,5.5s3.6-.7,4.8-2.1l1.2,1.4c-1.4,1.7-3.6,2.6-6.1,2.6-4.9,0-8.3-3.4-8.3-8s3.3-8,7.7-8,7.7,3.3,7.7,8,0,.4,0,.7ZM153.4,705.8h11.2c-.3-3.1-2.5-5.2-5.6-5.2s-5.3,2.2-5.6,5.2Z"/>
            <path class="cls-6" d="M192.1,698.8l-7.9,17.7c-1.3,3.1-3,4.1-5.2,4.1s-2.9-.5-3.8-1.4l1-1.6c.8.8,1.7,1.2,2.9,1.2s2.4-.7,3.3-2.6l.7-1.5-7-15.7h2.2l5.9,13.4,5.9-13.4h2.1Z"/>
            <path class="cls-6" d="M193.1,706.7c0-4.7,3.4-8,8-8s8,3.3,8,8-3.4,8-8,8-8-3.4-8-8ZM207,706.7c0-3.7-2.5-6.1-5.9-6.1s-5.9,2.5-5.9,6.1,2.5,6.1,5.9,6.1,5.9-2.5,5.9-6.1Z"/>
            <path class="cls-6" d="M227.7,698.8v15.8h-2v-2.9c-1.1,1.9-3.1,3-5.7,3-4,0-6.7-2.2-6.7-6.8v-9.1h2.1v8.9c0,3.4,1.7,5.1,4.7,5.1s5.4-2.1,5.4-5.7v-8.3h2.1Z"/>
            <path class="cls-6" d="M241.6,698.7v2.1c-.2,0-.4,0-.5,0-3.3,0-5.3,2.1-5.3,5.8v8h-2.1v-15.8h2v3.1c1-2.1,3-3.2,5.9-3.2Z"/>
            <path class="cls-6" d="M52.4,731.5h-7.4v-1.9h17v1.9h-7.4v19.1h-2.2v-19.1Z"/>
            <path class="cls-6" d="M77.2,743.3h-13.2c.2,3.3,2.8,5.5,6.2,5.5s3.6-.7,4.8-2.1l1.2,1.4c-1.4,1.7-3.6,2.6-6.1,2.6-4.9,0-8.3-3.4-8.3-8s3.3-8,7.7-8,7.6,3.3,7.6,8,0,.4,0,.7ZM64,741.8h11.2c-.3-3.1-2.5-5.2-5.6-5.2s-5.3,2.2-5.6,5.2Z"/>
            <path class="cls-6" d="M81.6,728.3h2.1v22.3h-2.1v-22.3Z"/>
            <path class="cls-6" d="M103.4,743.3h-13.2c.2,3.3,2.8,5.5,6.2,5.5s3.6-.7,4.8-2.1l1.2,1.4c-1.4,1.7-3.6,2.6-6.1,2.6-4.9,0-8.3-3.4-8.3-8s3.3-8,7.7-8,7.6,3.3,7.6,8,0,.4,0,.7ZM90.2,741.8h11.2c-.3-3.1-2.5-5.2-5.6-5.2s-5.3,2.2-5.6,5.2Z"/>
            <path class="cls-6" d="M122.4,734.8v13.9c0,5.4-2.7,7.9-7.9,7.9s-5.7-.9-7.3-2.4l1.1-1.6c1.5,1.3,3.8,2.2,6.2,2.2,4,0,5.8-1.8,5.8-5.7v-2c-1.3,2-3.6,3.1-6.1,3.1-4.5,0-7.9-3.2-7.9-7.7s3.4-7.6,7.9-7.6,4.9,1.1,6.2,3.2v-3h2ZM120.3,742.3c0-3.4-2.5-5.8-6-5.8s-6,2.3-6,5.8,2.5,5.8,6,5.8,6-2.4,6-5.8Z"/>
            <path class="cls-6" d="M136.3,734.7v2.1c-.2,0-.4,0-.5,0-3.3,0-5.3,2.1-5.3,5.8v8h-2.1v-15.8h2v3.1c1-2.1,3-3.2,5.9-3.2Z"/>
            <path class="cls-6" d="M152,740.8v9.8h-2v-2.5c-1,1.6-2.8,2.6-5.4,2.6s-5.8-1.9-5.8-4.6,1.6-4.5,6.1-4.5h5v-1c0-2.7-1.5-4.2-4.5-4.2s-4,.7-5.2,1.9l-1-1.6c1.6-1.3,3.9-2.1,6.4-2.1,4.1,0,6.4,2,6.4,6.1ZM149.9,745.8v-2.6h-5c-3.1,0-4,1.2-4,2.8s1.5,3,4,3,4.2-1.1,5-3.2Z"/>
            <path class="cls-6" d="M183.9,741.4v9.1h-2.1v-8.9c0-3.3-1.7-5-4.5-5s-5.3,2.1-5.3,5.7v8.3h-2.1v-8.9c0-3.3-1.7-5-4.6-5s-5.3,2.1-5.3,5.7v8.3h-2.1v-15.8h2v2.9c1.1-1.9,3.2-3,5.8-3s4.6,1.1,5.6,3.3c1.1-2,3.4-3.3,6.2-3.3s6.4,2.2,6.4,6.8Z"/>
            <path class="cls-6" d="M215.5,745c0,3.6-2.6,5.6-7.9,5.6h-9.7v-21h9.1c4.7,0,7.4,2,7.4,5.4s-1.3,4-3.2,4.8c2.7.6,4.3,2.4,4.3,5.2ZM200.2,731.4v7.6h6.7c3.4,0,5.3-1.3,5.3-3.8s-2-3.8-5.3-3.8h-6.7ZM213.3,744.8c0-2.7-2-3.9-5.7-3.9h-7.4v7.9h7.4c3.7,0,5.7-1.2,5.7-4Z"/>
            <path class="cls-6" d="M218.5,742.7c0-4.7,3.4-8,8-8s8,3.3,8,8-3.4,8-8,8-8-3.4-8-8ZM232.4,742.7c0-3.7-2.5-6.1-5.9-6.1s-5.9,2.5-5.9,6.1,2.5,6.1,5.9,6.1,5.9-2.5,5.9-6.1Z"/>
            <path class="cls-6" d="M247.3,749.6c-.8.8-2.1,1.1-3.3,1.1-3,0-4.6-1.7-4.6-4.6v-9.5h-2.8v-1.8h2.8v-3.5h2.1v3.5h4.8v1.8h-4.8v9.4c0,1.9,1,2.9,2.7,2.9s1.7-.3,2.3-.8l.7,1.5Z"/>
            <path class="cls-6" d="M248.9,748.8l1-1.7c1.3,1,3.4,1.8,5.6,1.8s4.2-1,4.2-2.6c0-4.1-10.2-.9-10.2-7.1s2.2-4.5,6.2-4.5,4.3.6,5.6,1.5l-.9,1.7c-1.4-1-3-1.3-4.6-1.3-2.9,0-4.1,1.1-4.1,2.6,0,4.3,10.2,1.1,10.2,7.1s-2.4,4.5-6.5,4.5-5.1-.8-6.4-2Z"/>
          </g>
          <g>
            <path class="cls-6" d="M47.6,772.1c0,.5-.4.9-.9.9s-.9-.4-.9-.9,0-.5.2-1l.7-2.3h.8l-.6,2.4c.4.1.6.4.6.9ZM50.5,772.1c0,.5-.4.9-.9.9s-.9-.4-.9-.9,0-.5.2-1l.7-2.3h.8l-.6,2.4c.4.1.6.4.6.9Z"/>
            <path class="cls-6" d="M60.7,777.3h-7.5c.1,1.9,1.6,3.1,3.5,3.1s2.1-.4,2.7-1.2l.7.8c-.8,1-2,1.5-3.5,1.5-2.8,0-4.7-1.9-4.7-4.6s1.9-4.5,4.4-4.5,4.3,1.9,4.3,4.5,0,.2,0,.4ZM53.2,776.4h6.3c-.2-1.8-1.4-3-3.2-3s-3,1.2-3.2,3Z"/>
            <path class="cls-6" d="M69.7,775.8v5.5h-1.2v-1.4c-.5.9-1.6,1.5-3.1,1.5s-3.3-1.1-3.3-2.6.9-2.5,3.5-2.5h2.8v-.5c0-1.5-.9-2.4-2.5-2.4s-2.2.4-3,1.1l-.5-.9c.9-.8,2.2-1.2,3.6-1.2,2.3,0,3.6,1.2,3.6,3.5ZM68.4,778.7v-1.5h-2.8c-1.7,0-2.3.7-2.3,1.6s.8,1.7,2.3,1.7,2.4-.6,2.8-1.8Z"/>
            <path class="cls-6" d="M71.7,780.3l.5-1c.7.6,1.9,1,3.2,1s2.4-.6,2.4-1.5c0-2.3-5.8-.5-5.8-4s1.3-2.5,3.5-2.5,2.4.3,3.2.8l-.5,1c-.8-.5-1.7-.8-2.6-.8-1.6,0-2.3.6-2.3,1.5,0,2.4,5.8.6,5.8,4s-1.4,2.5-3.7,2.5-2.9-.5-3.6-1.1Z"/>
            <path class="cls-6" d="M81,769.6c0-.5.4-.8.9-.8s.9.4.9.8-.4.9-.9.9-.9-.4-.9-.9ZM81.2,772.4h1.2v8.9h-1.2v-8.9Z"/>
            <path class="cls-6" d="M85.8,768.8h1.2v12.6h-1.2v-12.6Z"/>
            <path class="cls-6" d="M97.9,772.4l-4.5,10c-.7,1.8-1.7,2.3-3,2.3s-1.6-.3-2.2-.8l.6-.9c.4.4,1,.7,1.6.7s1.3-.4,1.9-1.5l.4-.9-4-8.9h1.3l3.4,7.6,3.4-7.6h1.2Z"/>
            <path class="cls-6" d="M103.8,769.6c0-.5.4-.8.9-.8s.9.4.9.8-.4.9-.9.9-.9-.4-.9-.9ZM104.1,772.4h1.2v8.9h-1.2v-8.9Z"/>
            <path class="cls-6" d="M116.9,776.2v5.2h-1.2v-5.1c0-1.9-1-2.9-2.7-2.9s-3.1,1.2-3.1,3.2v4.7h-1.2v-8.9h1.2v1.6c.6-1.1,1.9-1.7,3.4-1.7s3.7,1.3,3.7,3.8Z"/>
            <path class="cls-6" d="M124.9,780.8c-.5.4-1.2.6-1.9.6-1.7,0-2.6-1-2.6-2.6v-5.4h-1.6v-1h1.6v-2h1.2v2h2.7v1h-2.7v5.3c0,1.1.5,1.6,1.5,1.6s1-.2,1.3-.5l.4.9Z"/>
            <path class="cls-6" d="M134.5,777.3h-7.5c.1,1.9,1.6,3.1,3.5,3.1s2.1-.4,2.7-1.2l.7.8c-.8,1-2,1.5-3.5,1.5-2.8,0-4.7-1.9-4.7-4.6s1.9-4.5,4.4-4.5,4.3,1.9,4.3,4.5,0,.2,0,.4ZM127,776.4h6.3c-.2-1.8-1.4-3-3.2-3s-3,1.2-3.2,3Z"/>
            <path class="cls-6" d="M141.5,772.4v1.2c-.1,0-.2,0-.3,0-1.9,0-3,1.2-3,3.3v4.6h-1.2v-8.9h1.2v1.8c.6-1.2,1.7-1.8,3.3-1.8Z"/>
            <path class="cls-6" d="M150.4,775.8v5.5h-1.2v-1.4c-.5.9-1.6,1.5-3.1,1.5s-3.3-1.1-3.3-2.6.9-2.5,3.5-2.5h2.8v-.5c0-1.5-.9-2.4-2.5-2.4s-2.2.4-3,1.1l-.5-.9c.9-.8,2.2-1.2,3.6-1.2,2.3,0,3.6,1.2,3.6,3.5ZM149.2,778.7v-1.5h-2.8c-1.7,0-2.3.7-2.3,1.6s.8,1.7,2.3,1.7,2.4-.6,2.8-1.8Z"/>
            <path class="cls-6" d="M152.8,776.9c0-2.7,1.9-4.5,4.6-4.5s2.8.6,3.5,1.8l-.9.6c-.6-.9-1.6-1.3-2.6-1.3-2,0-3.4,1.4-3.4,3.5s1.4,3.5,3.4,3.5,2-.4,2.6-1.3l.9.6c-.7,1.2-2,1.8-3.5,1.8-2.7,0-4.6-1.9-4.6-4.6Z"/>
            <path class="cls-6" d="M168.1,780.8c-.5.4-1.2.6-1.9.6-1.7,0-2.6-1-2.6-2.6v-5.4h-1.6v-1h1.6v-2h1.2v2h2.7v1h-2.7v5.3c0,1.1.5,1.6,1.5,1.6s1-.2,1.3-.5l.4.9Z"/>
            <path class="cls-6" d="M187.9,772.4l-3.4,8.9h-1.1l-2.8-7.3-2.8,7.3h-1.1l-3.4-8.9h1.2l2.8,7.6,2.9-7.6h1l2.9,7.6,2.8-7.6h1.1Z"/>
            <path class="cls-6" d="M189.4,769.6c0-.5.4-.8.9-.8s.9.4.9.8-.4.9-.9.9-.9-.4-.9-.9ZM189.7,772.4h1.2v8.9h-1.2v-8.9Z"/>
            <path class="cls-6" d="M199,780.8c-.5.4-1.2.6-1.9.6-1.7,0-2.6-1-2.6-2.6v-5.4h-1.6v-1h1.6v-2h1.2v2h2.7v1h-2.7v5.3c0,1.1.5,1.6,1.5,1.6s1-.2,1.3-.5l.4.9Z"/>
            <path class="cls-6" d="M209.4,776.2v5.2h-1.2v-5.1c0-1.9-1-2.9-2.7-2.9s-3.1,1.2-3.1,3.2v4.7h-1.2v-12.6h1.2v5.2c.7-1,1.8-1.6,3.3-1.6,2.2,0,3.7,1.3,3.7,3.8Z"/>
            <path class="cls-6" d="M224.9,777.3h-7.5c.1,1.9,1.6,3.1,3.5,3.1s2.1-.4,2.7-1.2l.7.8c-.8,1-2,1.5-3.5,1.5-2.8,0-4.7-1.9-4.7-4.6s1.9-4.5,4.4-4.5,4.3,1.9,4.3,4.5,0,.2,0,.4ZM217.4,776.4h6.3c-.2-1.8-1.4-3-3.2-3s-3,1.2-3.2,3Z"/>
            <path class="cls-6" d="M234.7,772.4l-4,8.9h-1.2l-4-8.9h1.3l3.3,7.6,3.4-7.6h1.2Z"/>
            <path class="cls-6" d="M244,777.3h-7.5c.1,1.9,1.6,3.1,3.5,3.1s2.1-.4,2.7-1.2l.7.8c-.8,1-2,1.5-3.5,1.5-2.8,0-4.7-1.9-4.7-4.6s1.9-4.5,4.4-4.5,4.3,1.9,4.3,4.5,0,.2,0,.4ZM236.5,776.4h6.3c-.2-1.8-1.4-3-3.2-3s-3,1.2-3.2,3Z"/>
            <path class="cls-6" d="M251,772.4v1.2c-.1,0-.2,0-.3,0-1.9,0-3,1.2-3,3.3v4.6h-1.2v-8.9h1.2v1.8c.6-1.2,1.7-1.8,3.3-1.8Z"/>
            <path class="cls-6" d="M261,772.4l-4.5,10c-.7,1.8-1.7,2.3-3,2.3s-1.6-.3-2.2-.8l.6-.9c.4.4,1,.7,1.6.7s1.3-.4,1.9-1.5l.4-.9-4-8.9h1.3l3.4,7.6,3.4-7.6h1.2Z"/>
            <path class="cls-6" d="M281.9,776.2v5.2h-1.2v-5.1c0-1.9-1-2.9-2.6-2.9s-3,1.2-3,3.2v4.7h-1.2v-5.1c0-1.9-1-2.9-2.6-2.9s-3,1.2-3,3.2v4.7h-1.2v-8.9h1.2v1.6c.6-1.1,1.8-1.7,3.3-1.7s2.6.6,3.2,1.9c.6-1.2,1.9-1.9,3.5-1.9s3.6,1.3,3.6,3.8Z"/>
            <path class="cls-6" d="M293,777.3h-7.5c.1,1.9,1.6,3.1,3.5,3.1s2.1-.4,2.7-1.2l.7.8c-.8,1-2,1.5-3.5,1.5-2.8,0-4.7-1.9-4.7-4.6s1.9-4.5,4.4-4.5,4.3,1.9,4.3,4.5,0,.2,0,.4ZM285.6,776.4h6.3c-.2-1.8-1.4-3-3.2-3s-3,1.2-3.2,3Z"/>
            <path class="cls-6" d="M294.3,780.3l.5-1c.7.6,1.9,1,3.2,1s2.4-.6,2.4-1.5c0-2.3-5.8-.5-5.8-4s1.3-2.5,3.5-2.5,2.4.3,3.2.8l-.5,1c-.8-.5-1.7-.8-2.6-.8-1.6,0-2.3.6-2.3,1.5,0,2.4,5.8.6,5.8,4s-1.4,2.5-3.7,2.5-2.9-.5-3.6-1.1Z"/>
            <path class="cls-6" d="M302.6,780.3l.5-1c.7.6,1.9,1,3.2,1s2.4-.6,2.4-1.5c0-2.3-5.8-.5-5.8-4s1.3-2.5,3.5-2.5,2.4.3,3.2.8l-.5,1c-.8-.5-1.7-.8-2.6-.8-1.6,0-2.3.6-2.3,1.5,0,2.4,5.8.6,5.8,4s-1.4,2.5-3.7,2.5-2.9-.5-3.6-1.1Z"/>
            <path class="cls-6" d="M318.9,775.8v5.5h-1.2v-1.4c-.5.9-1.6,1.5-3.1,1.5s-3.3-1.1-3.3-2.6.9-2.5,3.5-2.5h2.8v-.5c0-1.5-.9-2.4-2.5-2.4s-2.2.4-3,1.1l-.5-.9c.9-.8,2.2-1.2,3.6-1.2,2.3,0,3.6,1.2,3.6,3.5ZM317.7,778.7v-1.5h-2.8c-1.7,0-2.3.7-2.3,1.6s.8,1.7,2.3,1.7,2.4-.6,2.8-1.8Z"/>
            <path class="cls-6" d="M330.5,772.4v7.9c0,3.1-1.5,4.5-4.5,4.5s-3.2-.5-4.2-1.4l.6-.9c.8.8,2.1,1.2,3.5,1.2,2.3,0,3.3-1,3.3-3.2v-1.1c-.7,1.1-2,1.7-3.5,1.7-2.5,0-4.5-1.8-4.5-4.4s1.9-4.3,4.5-4.3,2.8.6,3.5,1.8v-1.7h1.2ZM329.3,776.7c0-1.9-1.4-3.3-3.4-3.3s-3.4,1.3-3.4,3.3,1.4,3.3,3.4,3.3,3.4-1.3,3.4-3.3Z"/>
            <path class="cls-6" d="M341.7,777.3h-7.5c.1,1.9,1.6,3.1,3.5,3.1s2.1-.4,2.7-1.2l.7.8c-.8,1-2,1.5-3.5,1.5-2.8,0-4.7-1.9-4.7-4.6s1.9-4.5,4.4-4.5,4.3,1.9,4.3,4.5,0,.2,0,.4ZM334.2,776.4h6.3c-.2-1.8-1.4-3-3.2-3s-3,1.2-3.2,3Z"/>
            <path class="cls-6" d="M350,771.4v1.1h2.8v1h-2.7v7.9h-1.2v-7.9h-1.6v-1h1.6v-1.1c0-1.6,1-2.7,2.7-2.7s1.3.2,1.8.6l-.4.9c-.3-.3-.8-.4-1.3-.4-1,0-1.6.6-1.6,1.7Z"/>
            <path class="cls-6" d="M353.3,776.9c0-2.7,1.9-4.5,4.6-4.5s4.5,1.9,4.5,4.5-1.9,4.6-4.5,4.6-4.6-1.9-4.6-4.6ZM361.2,776.9c0-2.1-1.4-3.5-3.3-3.5s-3.3,1.4-3.3,3.5,1.4,3.5,3.3,3.5,3.3-1.4,3.3-3.5Z"/>
            <path class="cls-6" d="M369.4,772.4v1.2c-.1,0-.2,0-.3,0-1.9,0-3,1.2-3,3.3v4.6h-1.2v-8.9h1.2v1.8c.6-1.2,1.7-1.8,3.3-1.8Z"/>
            <path class="cls-6" d="M53.4,796.2v5.5h-1.2v-1.4c-.5.9-1.6,1.5-3.1,1.5s-3.3-1.1-3.3-2.6.9-2.5,3.5-2.5h2.8v-.5c0-1.5-.9-2.4-2.5-2.4s-2.2.4-3,1.1l-.5-.9c.9-.8,2.2-1.2,3.6-1.2,2.3,0,3.6,1.2,3.6,3.5ZM52.2,799.1v-1.5h-2.8c-1.7,0-2.3.7-2.3,1.6s.8,1.7,2.3,1.7,2.4-.6,2.8-1.8Z"/>
            <path class="cls-6" d="M75.9,796.6v5.2h-1.2v-5.1c0-1.9-1-2.9-2.6-2.9s-3,1.2-3,3.2v4.7h-1.2v-5.1c0-1.9-1-2.9-2.6-2.9s-3,1.2-3,3.2v4.7h-1.2v-8.9h1.2v1.6c.6-1.1,1.8-1.7,3.3-1.7s2.6.6,3.2,1.9c.6-1.2,1.9-1.9,3.5-1.9s3.6,1.3,3.6,3.8Z"/>
            <path class="cls-6" d="M78.3,797.3c0-2.7,1.9-4.5,4.6-4.5s4.5,1.9,4.5,4.5-1.9,4.6-4.5,4.6-4.6-1.9-4.6-4.6ZM86.1,797.3c0-2.1-1.4-3.5-3.3-3.5s-3.3,1.4-3.3,3.5,1.4,3.5,3.3,3.5,3.3-1.4,3.3-3.5Z"/>
            <path class="cls-6" d="M94.3,792.8v1.2c-.1,0-.2,0-.3,0-1.9,0-3,1.2-3,3.3v4.6h-1.2v-8.9h1.2v1.8c.6-1.2,1.7-1.8,3.3-1.8Z"/>
            <path class="cls-6" d="M104.2,797.7h-7.5c.1,1.9,1.6,3.1,3.5,3.1s2.1-.4,2.7-1.2l.7.8c-.8,1-2,1.5-3.5,1.5-2.8,0-4.7-1.9-4.7-4.6s1.9-4.5,4.4-4.5,4.3,1.9,4.3,4.5,0,.2,0,.4ZM96.7,796.8h6.3c-.2-1.8-1.4-3-3.2-3s-3,1.2-3.2,3Z"/>
            <path class="cls-6" d="M110.2,797.3c0-2.7,1.9-4.5,4.6-4.5s4.5,1.9,4.5,4.5-1.9,4.6-4.5,4.6-4.6-1.9-4.6-4.6ZM118.1,797.3c0-2.1-1.4-3.5-3.3-3.5s-3.3,1.4-3.3,3.5,1.4,3.5,3.3,3.5,3.3-1.4,3.3-3.5Z"/>
            <path class="cls-6" d="M126.3,792.8v1.2c-.1,0-.2,0-.3,0-1.9,0-3,1.2-3,3.3v4.6h-1.2v-8.9h1.2v1.8c.6-1.2,1.7-1.8,3.3-1.8Z"/>
            <path class="cls-6" d="M136.7,792.8v7.9c0,3.1-1.5,4.5-4.5,4.5s-3.2-.5-4.2-1.4l.6-.9c.8.8,2.1,1.2,3.5,1.2,2.3,0,3.3-1,3.3-3.2v-1.1c-.7,1.1-2,1.7-3.5,1.7-2.5,0-4.5-1.8-4.5-4.4s1.9-4.3,4.5-4.3,2.8.6,3.5,1.8v-1.7h1.2ZM135.5,797.1c0-1.9-1.4-3.3-3.4-3.3s-3.4,1.3-3.4,3.3,1.4,3.3,3.4,3.3,3.4-1.3,3.4-3.3Z"/>
            <path class="cls-6" d="M146.8,796.2v5.5h-1.2v-1.4c-.5.9-1.6,1.5-3.1,1.5s-3.3-1.1-3.3-2.6.9-2.5,3.5-2.5h2.8v-.5c0-1.5-.9-2.4-2.5-2.4s-2.2.4-3,1.1l-.5-.9c.9-.8,2.2-1.2,3.6-1.2,2.3,0,3.6,1.2,3.6,3.5ZM145.6,799.1v-1.5h-2.8c-1.7,0-2.3.7-2.3,1.6s.8,1.7,2.3,1.7,2.4-.6,2.8-1.8Z"/>
            <path class="cls-6" d="M158.3,796.6v5.2h-1.2v-5.1c0-1.9-1-2.9-2.7-2.9s-3.1,1.2-3.1,3.2v4.7h-1.2v-8.9h1.2v1.6c.6-1.1,1.9-1.7,3.4-1.7s3.7,1.3,3.7,3.8Z"/>
            <path class="cls-6" d="M161.3,790c0-.5.4-.8.9-.8s.9.4.9.8-.4.9-.9.9-.9-.4-.9-.9ZM161.6,792.8h1.2v8.9h-1.2v-8.9Z"/>
            <path class="cls-6" d="M172.5,800.8v1h-7.3v-.8l5.6-7.1h-5.5v-1h7.1v.8l-5.6,7.1h5.7Z"/>
            <path class="cls-6" d="M182.5,797.7h-7.5c.1,1.9,1.6,3.1,3.5,3.1s2.1-.4,2.7-1.2l.7.8c-.8,1-2,1.5-3.5,1.5-2.8,0-4.7-1.9-4.7-4.6s1.9-4.5,4.4-4.5,4.3,1.9,4.3,4.5,0,.2,0,.4ZM175,796.8h6.3c-.2-1.8-1.4-3-3.2-3s-3,1.2-3.2,3Z"/>
            <path class="cls-6" d="M193.1,789.2v12.6h-1.2v-1.8c-.7,1.2-2,1.9-3.5,1.9-2.5,0-4.5-1.9-4.5-4.6s1.9-4.5,4.5-4.5,2.7.6,3.4,1.8v-5.4h1.2ZM191.9,797.3c0-2.1-1.4-3.5-3.3-3.5s-3.3,1.4-3.3,3.5,1.4,3.5,3.3,3.5,3.3-1.4,3.3-3.5Z"/>
            <path class="cls-6" d="M200.1,797.3c0-2.7,1.9-4.5,4.6-4.5s2.8.6,3.5,1.8l-.9.6c-.6-.9-1.6-1.3-2.6-1.3-2,0-3.4,1.4-3.4,3.5s1.4,3.5,3.4,3.5,2-.4,2.6-1.3l.9.6c-.7,1.2-2,1.8-3.5,1.8-2.7,0-4.6-1.9-4.6-4.6Z"/>
            <path class="cls-6" d="M209.5,797.3c0-2.7,1.9-4.5,4.6-4.5s4.5,1.9,4.5,4.5-1.9,4.6-4.5,4.6-4.6-1.9-4.6-4.6ZM217.3,797.3c0-2.1-1.4-3.5-3.3-3.5s-3.3,1.4-3.3,3.5,1.4,3.5,3.3,3.5,3.3-1.4,3.3-3.5Z"/>
            <path class="cls-6" d="M235.8,796.6v5.2h-1.2v-5.1c0-1.9-1-2.9-2.6-2.9s-3,1.2-3,3.2v4.7h-1.2v-5.1c0-1.9-1-2.9-2.6-2.9s-3,1.2-3,3.2v4.7h-1.2v-8.9h1.2v1.6c.6-1.1,1.8-1.7,3.3-1.7s2.6.6,3.2,1.9c.6-1.2,1.9-1.9,3.5-1.9s3.6,1.3,3.6,3.8Z"/>
            <path class="cls-6" d="M253.8,796.6v5.2h-1.2v-5.1c0-1.9-1-2.9-2.6-2.9s-3,1.2-3,3.2v4.7h-1.2v-5.1c0-1.9-1-2.9-2.6-2.9s-3,1.2-3,3.2v4.7h-1.2v-8.9h1.2v1.6c.6-1.1,1.8-1.7,3.3-1.7s2.6.6,3.2,1.9c.6-1.2,1.9-1.9,3.5-1.9s3.6,1.3,3.6,3.8Z"/>
            <path class="cls-6" d="M265.2,792.8v8.9h-1.2v-1.6c-.6,1.1-1.8,1.7-3.2,1.7-2.3,0-3.8-1.3-3.8-3.8v-5.2h1.2v5.1c0,1.9,1,2.9,2.7,2.9s3-1.2,3-3.2v-4.7h1.2Z"/>
            <path class="cls-6" d="M276.8,796.6v5.2h-1.2v-5.1c0-1.9-1-2.9-2.7-2.9s-3.1,1.2-3.1,3.2v4.7h-1.2v-8.9h1.2v1.6c.6-1.1,1.9-1.7,3.4-1.7s3.7,1.3,3.7,3.8Z"/>
            <path class="cls-6" d="M279.8,790c0-.5.4-.8.9-.8s.9.4.9.8-.4.9-.9.9-.9-.4-.9-.9ZM280.1,792.8h1.2v8.9h-1.2v-8.9Z"/>
            <path class="cls-6" d="M283.7,797.3c0-2.7,1.9-4.5,4.6-4.5s2.8.6,3.5,1.8l-.9.6c-.6-.9-1.6-1.3-2.6-1.3-2,0-3.4,1.4-3.4,3.5s1.4,3.5,3.4,3.5,2-.4,2.6-1.3l.9.6c-.7,1.2-2,1.8-3.5,1.8-2.7,0-4.6-1.9-4.6-4.6Z"/>
            <path class="cls-6" d="M301,796.2v5.5h-1.2v-1.4c-.5.9-1.6,1.5-3.1,1.5s-3.3-1.1-3.3-2.6.9-2.5,3.5-2.5h2.8v-.5c0-1.5-.9-2.4-2.5-2.4s-2.2.4-3,1.1l-.5-.9c.9-.8,2.2-1.2,3.6-1.2,2.3,0,3.6,1.2,3.6,3.5ZM299.7,799.1v-1.5h-2.8c-1.7,0-2.3.7-2.3,1.6s.8,1.7,2.3,1.7,2.4-.6,2.8-1.8Z"/>
            <path class="cls-6" d="M308.9,801.2c-.5.4-1.2.6-1.9.6-1.7,0-2.6-1-2.6-2.6v-5.4h-1.6v-1h1.6v-2h1.2v2h2.7v1h-2.7v5.3c0,1.1.5,1.6,1.5,1.6s1-.2,1.3-.5l.4.9Z"/>
            <path class="cls-6" d="M310.9,790c0-.5.4-.8.9-.8s.9.4.9.8-.4.9-.9.9-.9-.4-.9-.9ZM311.1,792.8h1.2v8.9h-1.2v-8.9Z"/>
            <path class="cls-6" d="M314.8,797.3c0-2.7,1.9-4.5,4.6-4.5s4.5,1.9,4.5,4.5-1.9,4.6-4.5,4.6-4.6-1.9-4.6-4.6ZM322.7,797.3c0-2.1-1.4-3.5-3.3-3.5s-3.3,1.4-3.3,3.5,1.4,3.5,3.3,3.5,3.3-1.4,3.3-3.5Z"/>
            <path class="cls-6" d="M334.6,796.6v5.2h-1.2v-5.1c0-1.9-1-2.9-2.7-2.9s-3.1,1.2-3.1,3.2v4.7h-1.2v-8.9h1.2v1.6c.6-1.1,1.9-1.7,3.4-1.7s3.7,1.3,3.7,3.8Z"/>
            <path class="cls-6" d="M345.2,789.1c.7,0,1.3.2,1.8.6l-.4.9c-.3-.3-.8-.4-1.3-.4-1,0-1.6.6-1.6,1.7v1.1h2.8v1h-2.7v7.9h-1.2v-7.9h-1.6v-1h1.6v-1.1c0-1.6,1-2.7,2.7-2.7ZM349.3,789.2v12.6h-1.2v-12.6h1.2Z"/>
            <path class="cls-6" d="M351.8,797.3c0-2.7,1.9-4.5,4.6-4.5s4.5,1.9,4.5,4.5-1.9,4.6-4.5,4.6-4.6-1.9-4.6-4.6ZM359.6,797.3c0-2.1-1.4-3.5-3.3-3.5s-3.3,1.4-3.3,3.5,1.4,3.5,3.3,3.5,3.3-1.4,3.3-3.5Z"/>
            <path class="cls-6" d="M376.2,792.8l-3.4,8.9h-1.1l-2.8-7.3-2.8,7.3h-1.1l-3.4-8.9h1.2l2.8,7.6,2.9-7.6h1l2.9,7.6,2.8-7.6h1.1Z"/>
            <path class="cls-6" d="M376.7,800.9c0-.5.4-.9.9-.9s.9.4.9.9-.4.9-.9.9-.9-.4-.9-.9Z"/>
            <path class="cls-6" d="M381.8,790c0,.3,0,.5-.2,1l-.7,2.3h-.8l.6-2.4c-.4-.1-.6-.4-.6-.9s.4-.9.9-.9.9.4.9.9ZM384.7,790c0,.3,0,.5-.2,1l-.7,2.3h-.8l.6-2.4c-.4-.1-.6-.4-.6-.9s.4-.9.9-.9.9.4.9.9Z"/>
          </g>
        </g>
      </g>
    </g>
  </g>
</svg>