<?xml version="1.0" encoding="UTF-8"?>
<svg xmlns="http://www.w3.org/2000/svg" version="1.1" viewBox="0 0 450 900">
  <defs>
    <style>
      .cls-1 {
        fill: #292828;
      }

      .cls-2 {
        stroke: #ff5252;
      }

      .cls-2, .cls-3, .cls-4 {
        fill: none;
        stroke-width: 1.9px;
      }

      .cls-5 {
        fill: #42c684;
      }

      .cls-6 {
        fill: #fff;
      }

      .cls-7 {
        fill: #25d366;
      }

      .cls-8 {
        fill: #23cc64;
      }

      .cls-9 {
        fill: #ff5252;
      }

      .cls-3 {
        stroke: #fff;
      }

      .cls-4 {
        stroke: #d7df22;
      }

      .cls-10 {
        fill: #51c387;
      }

      .cls-11 {
        fill: #f9f5f1;
      }

      .cls-12 {
        fill: #52c4d4;
      }

      .cls-13 {
        fill: #fefefe;
      }

      .cls-14 {
        fill: #d7df22;
      }
    </style>
  </defs>
  <!-- Generator: Adobe Illustrator 28.7.1, SVG Export Plug-In . SVG Version: 1.2.0 Build 142)  -->
  <g>
    <g id="Layer_1">
      <g>
        <g>
          <rect class="cls-9" x="360.1" width="90.1" height="90.1"/>
          <rect class="cls-14" x="270" width="90.1" height="180.2"/>
          <rect class="cls-5" x="180" width="90.1" height="90.1"/>
          <rect class="cls-12" x="89.9" width="90.1" height="90.1"/>
          <rect class="cls-1" x="-.2" width="90.1" height="90.1"/>
          <rect class="cls-11" x="360.1" y="90.1" width="90.1" height="90.1"/>
          <rect class="cls-12" x="180" y="90.1" width="90.1" height="90.1"/>
          <rect class="cls-9" x="89.9" y="90.1" width="90.1" height="90.1"/>
          <rect class="cls-14" x="-.2" y="90.1" width="90.1" height="90.1"/>
          <rect class="cls-12" x="360.1" y="180.2" width="90.1" height="90.1"/>
          <rect class="cls-9" x="270" y="180.2" width="90.1" height="90.1"/>
          <rect class="cls-14" x="180" y="180.2" width="90.1" height="90.1"/>
          <rect class="cls-1" x="89.9" y="180.2" width="90.1" height="90.1"/>
          <rect class="cls-11" x="-.2" y="180.2" width="90.1" height="90.1"/>
          <rect class="cls-5" x="360.1" y="270" width="90.1" height="90.1"/>
          <rect class="cls-11" x="270" y="270" width="90.1" height="90.1"/>
          <rect class="cls-1" x="180" y="270" width="90.1" height="90.1"/>
          <rect class="cls-12" x="89.9" y="270" width="90.1" height="90.1"/>
          <rect class="cls-5" x="-.2" y="270" width="90.1" height="90.1"/>
          <rect class="cls-1" x="360.1" y="359.9" width="90.1" height="90.1"/>
          <rect class="cls-14" x="270" y="359.9" width="90.1" height="90.1"/>
          <rect class="cls-10" x="180" y="359.9" width="90.1" height="90.1"/>
          <rect class="cls-14" x="89.9" y="359.9" width="90.1" height="90.1"/>
          <rect class="cls-12" x="-.2" y="359.9" width="90.1" height="90.1"/>
          <polygon class="cls-3" points="225.4 157.1 194.3 157.1 225.4 114.9 256.5 157.1 225.4 157.1"/>
          <g>
            <path class="cls-3" d="M425.1,45.5h0c0,17.6-20.2,27.5-34.2,16.8h0c-11-8.5-11-25,0-33.5h0c13.9-10.8,34.2-.9,34.2,16.8h0Z"/>
            <rect class="cls-3" x="382.7" y="24.3" width="42.4" height="42.4" transform="translate(657.3 363.3) rotate(-135)"/>
          </g>
          <g>
            <rect class="cls-2" x="293.4" y="293.8" width="43.7" height="43.7" rx=".7" ry=".7" transform="translate(314.9 761.8) rotate(-135)"/>
            <path class="cls-2" d="M315.7,297.3l29.2,17.6c.6.3.6,1.2,0,1.5l-29.2,18.2c-.3.2-.7.2-.9,0l-29.2-18.2c-.6-.4-.6-1.2,0-1.5l29.2-17.6c.3-.2.6-.2.9,0Z"/>
            <path class="cls-2" d="M315.4,307.2l27.6,7.6c.9.2.9,1.5,0,1.7l-27.6,7.8c-.2,0-.3,0-.5,0l-27.6-7.8c-.9-.2-.9-1.5,0-1.7l27.6-7.6c.2,0,.3,0,.5,0Z"/>
          </g>
          <g>
            <polygon class="cls-3" points="56.5 136 56.5 167.1 17.5 136 56.5 104.9 56.5 136"/>
            <circle class="cls-3" cx="55.1" cy="136" r="14.9"/>
          </g>
          <g>
            <polygon class="cls-3" points="416.7 315.7 416.7 346.8 377.6 315.7 416.7 284.6 416.7 315.7"/>
            <circle class="cls-3" cx="415.2" cy="315.7" r="14.9"/>
          </g>
          <g>
            <g>
              <path class="cls-3" d="M252.1,377.5c-15.7,0-28.4,12.7-28.4,28.4s12.7,28.4,28.4,28.4v-56.8Z"/>
              <path class="cls-3" d="M223.7,377.5c15.7,0,28.4,12.7,28.4,28.4s-12.7,28.4-28.4,28.4v-56.8Z"/>
            </g>
            <circle class="cls-3" cx="237.9" cy="405.9" r="7.3"/>
            <g>
              <line class="cls-3" x1="215.1" y1="406.5" x2="198.7" y2="406.5"/>
              <line class="cls-3" x1="214.7" y1="397.8" x2="202.4" y2="385.5"/>
              <line class="cls-3" x1="214.7" y1="414" x2="202.4" y2="426.3"/>
            </g>
          </g>
          <g>
            <g>
              <path class="cls-3" d="M430.6,197.2c-15.7,0-28.4,12.7-28.4,28.4s12.7,28.4,28.4,28.4v-56.8Z"/>
              <path class="cls-3" d="M402.2,197.2c15.7,0,28.4,12.7,28.4,28.4s-12.7,28.4-28.4,28.4v-56.8Z"/>
            </g>
            <circle class="cls-3" cx="416.4" cy="225.6" r="7.3"/>
            <g>
              <line class="cls-3" x1="393.6" y1="226.1" x2="377.2" y2="226.1"/>
              <line class="cls-3" x1="393.2" y1="217.5" x2="380.9" y2="205.2"/>
              <line class="cls-3" x1="393.2" y1="233.6" x2="380.9" y2="246"/>
            </g>
          </g>
          <g>
            <polygon class="cls-4" points="248.1 45.5 248.1 76.8 202.4 45.5 248.1 14.2 248.1 45.5"/>
            <circle class="cls-4" cx="233.4" cy="45.5" r="15"/>
            <line class="cls-4" x1="248.1" y1="14.2" x2="239.1" y2="31.7"/>
            <line class="cls-4" x1="218.4" y1="45.5" x2="202.4" y2="45.5"/>
            <line class="cls-4" x1="238.6" y1="59.5" x2="248.1" y2="75.6"/>
          </g>
          <g>
            <polygon class="cls-2" points="338 405.9 338 437.2 292.3 405.9 338 374.6 338 405.9"/>
            <circle class="cls-2" cx="323.2" cy="405.9" r="15"/>
            <line class="cls-2" x1="338" y1="374.6" x2="328.9" y2="392.1"/>
            <line class="cls-2" x1="308.2" y1="405.9" x2="292.3" y2="405.9"/>
            <line class="cls-2" x1="328.4" y1="419.9" x2="338" y2="436"/>
          </g>
          <g>
            <rect class="cls-3" x="290.8" y="111.6" width="48.9" height="48.9" transform="translate(179.2 451.2) rotate(-90)"/>
            <rect class="cls-3" x="297.9" y="118.7" width="34.5" height="34.5" transform="translate(441.9 455) rotate(-135)"/>
            <rect class="cls-3" x="303" y="123.8" width="24.4" height="24.4" transform="translate(179.2 451.2) rotate(-90)"/>
          </g>
          <g>
            <rect class="cls-3" x="19.3" y="381.5" width="48.9" height="48.9" transform="translate(-362.2 449.6) rotate(-90)"/>
            <rect class="cls-3" x="26.5" y="388.6" width="34.5" height="34.5" transform="translate(-212.3 723.8) rotate(-135)"/>
            <rect class="cls-3" x="31.5" y="393.7" width="24.4" height="24.4" transform="translate(-362.2 449.6) rotate(-90)"/>
          </g>
          <g>
            <circle class="cls-3" cx="315.2" cy="45.5" r="22.9"/>
            <path class="cls-3" d="M303.9,25.9c-.2-7.1.9-11.8,3.3-12.4,4.4-1.1,11.6,12.3,16,30,4.4,17.7,4.4,32.9,0,34-2.3.6-5.3-2.8-8.3-8.5"/>
          </g>
          <g>
            <circle class="cls-4" cx="403.9" cy="405.9" r="22.9"/>
            <path class="cls-4" d="M392.6,386.3c-.2-7.1.9-11.8,3.3-12.4,4.4-1.1,11.6,12.3,16,30,4.4,17.7,4.4,32.9,0,34-2.3.6-5.3-2.8-8.3-8.5"/>
          </g>
          <g>
            <circle class="cls-2" cx="43.7" cy="225.6" r="22.9"/>
            <path class="cls-2" d="M32.4,206c-.2-7.1.9-11.8,3.3-12.4,4.4-1.1,11.6,12.3,16,30,4.4,17.7,4.4,32.9,0,34-2.3.6-5.3-2.8-8.3-8.5"/>
          </g>
          <g>
            <line class="cls-4" x1="385.4" y1="117.5" x2="396.7" y2="128.8"/>
            <line class="cls-4" x1="403.9" y1="109.9" x2="403.9" y2="125.9"/>
            <line class="cls-4" x1="422.3" y1="117.5" x2="411" y2="128.8"/>
            <line class="cls-4" x1="430" y1="136" x2="414" y2="136"/>
            <line class="cls-4" x1="411" y1="143.2" x2="422.3" y2="154.5"/>
            <line class="cls-4" x1="403.9" y1="146.1" x2="403.9" y2="162.1"/>
            <line class="cls-4" x1="396.7" y1="143.2" x2="385.4" y2="154.5"/>
            <line class="cls-4" x1="393.7" y1="136" x2="377.8" y2="136"/>
          </g>
          <g>
            <line class="cls-4" x1="115.7" y1="297.2" x2="126.9" y2="308.5"/>
            <line class="cls-4" x1="134.1" y1="289.6" x2="134.1" y2="305.5"/>
            <line class="cls-4" x1="152.6" y1="297.2" x2="141.3" y2="308.5"/>
            <line class="cls-4" x1="160.2" y1="315.7" x2="144.3" y2="315.7"/>
            <line class="cls-4" x1="141.3" y1="322.8" x2="152.6" y2="334.1"/>
            <line class="cls-4" x1="134.1" y1="325.8" x2="134.1" y2="341.8"/>
            <line class="cls-4" x1="126.9" y1="322.8" x2="115.7" y2="334.1"/>
            <line class="cls-4" x1="124" y1="315.7" x2="108" y2="315.7"/>
          </g>
          <g>
            <line class="cls-3" x1="206.9" y1="207.1" x2="218.2" y2="218.4"/>
            <line class="cls-3" x1="225.4" y1="199.5" x2="225.4" y2="215.4"/>
            <line class="cls-3" x1="243.8" y1="207.1" x2="232.6" y2="218.4"/>
            <line class="cls-3" x1="251.5" y1="225.6" x2="235.5" y2="225.6"/>
            <line class="cls-3" x1="232.6" y1="232.7" x2="243.8" y2="244"/>
            <line class="cls-3" x1="225.4" y1="235.7" x2="225.4" y2="251.7"/>
            <line class="cls-3" x1="218.2" y1="232.7" x2="206.9" y2="244"/>
            <line class="cls-3" x1="215.2" y1="225.6" x2="199.3" y2="225.6"/>
          </g>
          <g>
            <line class="cls-3" x1="25.3" y1="27" x2="43.7" y2="45.5"/>
            <line class="cls-3" x1="43.7" y1="19.4" x2="43.7" y2="45.5"/>
            <line class="cls-3" x1="62.2" y1="27" x2="43.7" y2="45.5"/>
            <line class="cls-3" x1="69.8" y1="45.5" x2="43.7" y2="45.5"/>
            <line class="cls-3" x1="62.2" y1="64" x2="43.7" y2="45.5"/>
            <line class="cls-3" x1="43.7" y1="71.6" x2="43.7" y2="45.5"/>
            <line class="cls-3" x1="25.3" y1="64" x2="43.7" y2="45.5"/>
            <line class="cls-3" x1="17.6" y1="45.5" x2="43.7" y2="45.5"/>
          </g>
          <path class="cls-3" d="M137.3,74.6c-25.8-11.6-25.8-46.5,0-58.1M150.3,45.5c0,5.4-4.3,9.7-9.7,9.7s-9.7-4.3-9.7-9.7,4.3-9.7,9.7-9.7,9.7,4.3,9.7,9.7Z"/>
          <path class="cls-2" d="M137.3,435c-25.8-11.6-25.8-46.5,0-58.1M150.3,405.9c0,5.4-4.3,9.7-9.7,9.7s-9.7-4.3-9.7-9.7,4.3-9.7,9.7-9.7,9.7,4.3,9.7,9.7Z"/>
          <path class="cls-3" d="M155.2,136h0c0,17.5-20.1,27.4-34,16.7h0c-10.9-8.4-10.9-24.9,0-33.3h0c13.9-10.7,34-.8,34,16.7h0Z"/>
          <g>
            <path class="cls-6" d="M204.5,329c-4.6,0-7.5-2.2-7.5-7.2v-7.8h-3.1v-4.9h3.1v-3.9h6v3.9h6.4v4.9h-6.4v7.1c0,2,.8,2.5,2.9,2.5h3.6v5.4h-4.9Z"/>
            <path class="cls-6" d="M219.1,323.6h13.3v5.4h-21.1v-5.4l12.7-9.1.7-.5h-12.8v-4.9h19.9v5.1c-4.2,3.1-8.5,6.3-12.7,9.4Z"/>
            <path class="cls-6" d="M234.3,329v-26.6h6v14.1h4.5l5.1-7.4h7.1l-7.3,9.6,7.1,10.3h-7l-5-7.2h-4.6v7.2h-6Z"/>
          </g>
          <g>
            <path class="cls-6" d="M73.7,311.3c-.7-.7-1.6-1.1-2.5-1.1h-3c0-.8,0-1.5,0-2.3-.2-2-.6-4.4-1.6-6.9,3.3-1.7,5.3-3.5,5.1-5.5-.3-2.7-4.3-4.1-13.6-5.1-6.6-4.4-13.9-4.3-15-4.2-.5,0-11.1.5-17.9,8.3-11.4,4.2-12.7,6.6-12.4,8.6.3,2.1,3.2,3.4,7.2,4.1v4.1s-2.9,0-2.9,0c-1,0-1.9.4-2.6,1s-1.1,1.6-1.1,2.5v10.5c-.1,1,.2,1.9.9,2.6.7.7,1.6,1.1,2.5,1.1h2.9s0,2,0,2c0,3.7,2.9,6.7,6.6,6.8h2.8s0,4.6,0,4.6c0,1,.5,1.9,1.4,2.4.4.2.9.4,1.4.4s.9-.1,1.4-.4l6.3-3.9c2.9-1.8,6.3-2.7,9.7-2.6,3.8.2,9,.3,12.4,0,.9,0,3-.3,4.6-1.9,1.3-1.3,2-2.9,2-4.7v-3.7s2.9,0,2.9,0h.1c1.9,0,3.5-1.6,3.5-3.5v-10.5c.1-1-.2-1.9-.9-2.6h0ZM68.9,295.8c0,.6-1.4,1.6-3.5,2.7-.5-.9-1-1.7-1.6-2.6-.6-.8-1.2-1.5-1.8-2.2,6.3,1,7,2.1,7,2.1ZM43.2,289c1.2,0,12-.2,18.4,8.5.5.7.9,1.4,1.3,2.1-4.8,2-12.1,4.1-20.3,5.1-7.5.9-14.5.8-19.5.2.4-2.1,1.1-4,2.1-5.8,5.5-9.6,17.4-10.2,17.9-10.2ZM15.5,302.8c0,0,.4-1.4,6.9-4.2-1,1.9-1.6,3.8-2,5.9-2.8-.5-4.6-1.2-4.9-1.8h0ZM17,326.2c-.2,0-.4,0-.6-.2-.2-.2-.2-.4-.2-.6v-10.5c.1-.2.2-.4.4-.6.2-.1.3-.2.5-.2h2.9s-.1,12.1-.1,12.1h-2.9ZM64.1,334.3c-.8.8-1.9,1-3,1.1-3.2.3-8.3.2-12,0-4-.2-7.9.9-11.3,3l-6.2,3.9v-7.3c0,0-5.4,0-5.4,0-2.2,0-3.9-1.8-3.9-4v-2h0l.2-17.6h0v-3.3h0c0-.2,0-.3,0-.5,3.4.4,7.4.5,11.1.4,3.3,0,6.5-.3,9-.6,5.8-.7,14.8-2.7,21.1-5.3,1,2.5,1.3,4.9,1.4,6.7l-.2,22.7c0,1-.4,2-1.2,2.8ZM71.9,324.3c0,.5-.3.8-.8.8h-2.9s.1-12.1.1-12.1h2.9c.2,0,.4.1.6.3.2.2.2.4.2.6v10.5c-.1,0-.1,0-.1,0Z"/>
            <g>
              <path class="cls-6" d="M42.4,327.8c-3.2-.2-6.4-1.2-9.2-2.8l-1.4,2.4c3.2,1.9,6.8,3,10.4,3.2.7,0,1.4,0,2,0,5.3-.1,9.4-2,11.5-3.3l-1.4-2.4c-2.1,1.2-6.4,3.2-11.9,2.9h0Z"/>
              <path class="cls-6" d="M50.8,314.7c1.7,0,3,1.4,3,3s-1.4,3-3,3-3-1.4-3-3,1.4-3,3-3M50.8,311.7c-3.3,0-6,2.7-6,6s2.7,6,6,6,6-2.7,6-6-2.7-6-6-6h0Z"/>
              <path class="cls-6" d="M36.7,314.7c1.7,0,3,1.4,3,3s-1.4,3-3,3-3-1.4-3-3,1.4-3,3-3M36.7,311.7c-3.3,0-6,2.7-6,6s2.7,6,6,6,6-2.7,6-6-2.7-6-6-6h0Z"/>
            </g>
          </g>
          <g>
            <path class="cls-6" d="M345.1,220.5c-.7-.7-1.6-1.1-2.5-1.1h-3c0-.8,0-1.5,0-2.3-.2-2-.6-4.4-1.6-6.9,3.3-1.7,5.3-3.5,5.1-5.5-.3-2.7-4.3-4.1-13.6-5.1-6.6-4.4-13.9-4.3-15-4.2-.5,0-11.1.5-17.9,8.3-11.4,4.2-12.7,6.6-12.4,8.6.3,2.1,3.2,3.4,7.2,4.1v4.1s-2.9,0-2.9,0c-1,0-1.9.4-2.6,1s-1.1,1.6-1.1,2.5v10.5c-.1,1,.2,1.9.9,2.6.7.7,1.6,1.1,2.5,1.1h2.9s0,2,0,2c0,3.7,2.9,6.7,6.6,6.8h2.8s0,4.6,0,4.6c0,1,.5,1.9,1.4,2.4.4.2.9.4,1.4.4s.9-.1,1.4-.4l6.3-3.9c2.9-1.8,6.3-2.7,9.7-2.6,3.8.2,9,.3,12.4,0,.9,0,3-.3,4.6-1.9,1.3-1.3,2-2.9,2-4.7v-3.7s2.9,0,2.9,0h.1c1.9,0,3.5-1.6,3.5-3.5v-10.5c.1-1-.2-1.9-.9-2.6h0ZM340.3,205.1c0,.6-1.4,1.6-3.5,2.7-.5-.9-1-1.7-1.6-2.6-.6-.8-1.2-1.5-1.8-2.2,6.3,1,7,2.1,7,2.1ZM314.5,198.2c1.2,0,12-.2,18.4,8.5.5.7.9,1.4,1.3,2.1-4.8,2-12.1,4.1-20.3,5.1-7.5.9-14.5.8-19.5.2.4-2.1,1.1-4,2.1-5.8,5.5-9.6,17.4-10.2,17.9-10.2ZM286.8,212c0,0,.4-1.4,6.9-4.2-1,1.9-1.6,3.8-2,5.9-2.8-.5-4.6-1.2-4.9-1.8h0ZM288.3,235.5c-.2,0-.4,0-.6-.2-.2-.2-.2-.4-.2-.6v-10.5c.1-.2.2-.4.4-.6.2-.1.3-.2.5-.2h2.9s-.1,12.1-.1,12.1h-2.9ZM335.5,243.5c-.8.8-1.9,1-3,1.1-3.2.3-8.3.2-12,0-4-.2-7.9.9-11.3,3l-6.2,3.9v-7.3c0,0-5.4,0-5.4,0-2.2,0-3.9-1.8-3.9-4v-2h0l.2-17.6h0v-3.3h0c0-.2,0-.3,0-.5,3.4.4,7.4.5,11.1.4,3.3,0,6.5-.3,9-.6,5.8-.7,14.8-2.7,21.1-5.3,1,2.5,1.3,4.9,1.4,6.7l-.2,22.7c0,1-.4,2-1.2,2.8ZM343.2,233.5c0,.5-.3.8-.8.8h-2.9s.1-12.1.1-12.1h2.9c.2,0,.4.1.6.3.2.2.2.4.2.6v10.5c-.1,0-.1,0-.1,0Z"/>
            <g>
              <path class="cls-6" d="M313.7,237c-3.2-.2-6.4-1.2-9.2-2.8l-1.4,2.4c3.2,1.9,6.8,3,10.4,3.2.7,0,1.4,0,2,0,5.3-.1,9.4-2,11.5-3.3l-1.4-2.4c-2.1,1.2-6.4,3.2-11.9,2.9h0Z"/>
              <path class="cls-6" d="M322.1,223.9c1.7,0,3,1.4,3,3s-1.4,3-3,3-3-1.4-3-3,1.4-3,3-3M322.1,220.9c-3.3,0-6,2.7-6,6s2.7,6,6,6,6-2.7,6-6-2.7-6-6-6h0Z"/>
              <path class="cls-6" d="M308,223.9c1.7,0,3,1.4,3,3s-1.4,3-3,3-3-1.4-3-3,1.4-3,3-3M308,220.9c-3.3,0-6,2.7-6,6s2.7,6,6,6,6-2.7,6-6-2.7-6-6-6h0Z"/>
            </g>
          </g>
          <g>
            <rect class="cls-3" x="115.5" y="203.4" width="43.7" height="43.7" rx=".7" ry=".7" transform="translate(75.2 481.6) rotate(-135)"/>
            <path class="cls-3" d="M137.8,206.8l29.2,17.6c.6.3.6,1.2,0,1.5l-29.2,18.2c-.3.2-.7.2-.9,0l-29.2-18.2c-.6-.4-.6-1.2,0-1.5l29.2-17.6c.3-.2.6-.2.9,0Z"/>
            <path class="cls-3" d="M137.6,216.8l27.6,7.6c.9.2.9,1.5,0,1.7l-27.6,7.8c-.2,0-.3,0-.5,0l-27.6-7.8c-.9-.2-.9-1.5,0-1.7l27.6-7.6c.2,0,.3,0,.5,0Z"/>
          </g>
        </g>
        <g>
          <rect class="cls-8" x="-.2" y="450" width="450.4" height="450"/>
          <g>
            <path class="cls-6" d="M63.2,712.7v1.9h-14.8v-21h14.4v1.9h-12.2v7.5h10.9v1.9h-10.9v7.8h12.6Z"/>
            <path class="cls-6" d="M68,692.3h2.1v22.3h-2.1v-22.3Z"/>
            <path class="cls-6" d="M89.8,707.3h-13.2c.2,3.3,2.8,5.5,6.2,5.5s3.6-.7,4.8-2.1l1.2,1.4c-1.4,1.7-3.6,2.6-6.1,2.6-4.9,0-8.3-3.4-8.3-8s3.3-8,7.7-8,7.6,3.3,7.6,8,0,.4,0,.7ZM76.6,705.8h11.2c-.3-3.1-2.5-5.2-5.6-5.2s-5.3,2.2-5.6,5.2Z"/>
            <path class="cls-6" d="M107.1,698.8l-7,15.8h-2.2l-7-15.8h2.2l5.9,13.4,6-13.4h2.1Z"/>
            <path class="cls-6" d="M121.6,704.8v9.8h-2v-2.5c-1,1.6-2.8,2.6-5.4,2.6s-5.8-1.9-5.8-4.6,1.6-4.5,6.1-4.5h5v-1c0-2.7-1.5-4.2-4.5-4.2s-4,.7-5.2,1.9l-1-1.6c1.6-1.3,3.9-2.1,6.4-2.1,4.1,0,6.4,2,6.4,6.1ZM119.4,709.8v-2.6h-4.9c-3.1,0-4,1.2-4,2.8s1.5,3,4,3,4.2-1.1,5-3.2Z"/>
            <path class="cls-6" d="M135.7,713.6c-.8.8-2.1,1.1-3.3,1.1-3,0-4.6-1.7-4.6-4.6v-9.5h-2.8v-1.8h2.8v-3.5h2.1v3.5h4.8v1.8h-4.8v9.4c0,1.9,1,2.9,2.7,2.9s1.7-.3,2.3-.8l.8,1.5Z"/>
            <path class="cls-6" d="M152.7,707.3h-13.2c.2,3.3,2.8,5.5,6.2,5.5s3.6-.7,4.8-2.1l1.2,1.4c-1.4,1.7-3.6,2.6-6.1,2.6-4.9,0-8.3-3.4-8.3-8s3.3-8,7.7-8,7.7,3.3,7.7,8,0,.4,0,.7ZM139.5,705.8h11.2c-.3-3.1-2.5-5.2-5.6-5.2s-5.3,2.2-5.6,5.2Z"/>
            <path class="cls-6" d="M178.2,698.8l-7.9,17.7c-1.3,3.1-3,4.1-5.2,4.1s-2.9-.5-3.8-1.4l1-1.6c.8.8,1.7,1.2,2.9,1.2s2.4-.7,3.3-2.6l.7-1.5-7-15.7h2.2l5.9,13.4,5.9-13.4h2.1Z"/>
            <path class="cls-6" d="M179.2,706.7c0-4.7,3.4-8,8-8s8,3.3,8,8-3.4,8-8,8-8-3.4-8-8ZM193,706.7c0-3.7-2.5-6.1-5.8-6.1s-5.9,2.5-5.9,6.1,2.5,6.1,5.9,6.1,5.8-2.5,5.8-6.1Z"/>
            <path class="cls-6" d="M213.8,698.8v15.8h-2v-2.9c-1.1,1.9-3.1,3-5.7,3-4,0-6.7-2.2-6.7-6.8v-9.1h2.1v8.9c0,3.4,1.7,5.1,4.7,5.1s5.4-2.1,5.4-5.7v-8.3h2.1Z"/>
            <path class="cls-6" d="M227.7,698.7v2.1c-.2,0-.4,0-.5,0-3.3,0-5.3,2.1-5.3,5.8v8h-2.1v-15.8h2v3.1c1-2.1,3-3.2,5.9-3.2Z"/>
            <path class="cls-6" d="M77.2,729.6l-7.1,21h-2.3l-6.1-17.9-6.2,17.9h-2.3l-7.1-21h2.3l6.1,18.1,6.3-18.1h2.1l6.2,18.1,6.2-18.1h2.1Z"/>
            <path class="cls-6" d="M95.8,741.4v9.1h-2.1v-8.9c0-3.3-1.7-5-4.7-5s-5.5,2.1-5.5,5.7v8.3h-2.1v-22.3h2.1v9.2c1.2-1.8,3.2-2.9,5.9-2.9,3.8,0,6.5,2.2,6.5,6.8Z"/>
            <path class="cls-6" d="M113.5,740.8v9.8h-2v-2.5c-1,1.6-2.8,2.6-5.4,2.6s-5.8-1.9-5.8-4.6,1.6-4.5,6.1-4.5h5v-1c0-2.7-1.5-4.2-4.5-4.2s-4,.7-5.2,1.9l-1-1.6c1.6-1.3,3.9-2.1,6.4-2.1,4.1,0,6.4,2,6.4,6.1ZM111.3,745.8v-2.6h-4.9c-3.1,0-4.1,1.2-4.1,2.8s1.5,3,4,3,4.2-1.1,5-3.2Z"/>
            <path class="cls-6" d="M127.6,749.6c-.8.8-2.1,1.1-3.3,1.1-3,0-4.6-1.7-4.6-4.6v-9.5h-2.8v-1.8h2.8v-3.5h2.1v3.5h4.8v1.8h-4.8v9.4c0,1.9,1,2.9,2.7,2.9s1.7-.3,2.3-.8l.8,1.5Z"/>
            <path class="cls-6" d="M129.2,748.8l1-1.7c1.3,1,3.4,1.8,5.6,1.8s4.2-1,4.2-2.6c0-4.1-10.2-.9-10.2-7.1s2.2-4.5,6.2-4.5,4.3.6,5.6,1.5l-.9,1.7c-1.4-1-3-1.3-4.6-1.3-2.9,0-4.1,1.1-4.1,2.6,0,4.3,10.2,1.1,10.2,7.1s-2.4,4.5-6.5,4.5-5.1-.8-6.4-2Z"/>
            <path class="cls-6" d="M159.7,745h-11.7l-2.5,5.6h-2.3l9.6-21h2.2l9.6,21h-2.3l-2.5-5.6ZM158.9,743.2l-5-11.3-5,11.3h10.1Z"/>
            <path class="cls-6" d="M183.6,742.7c0,4.8-3.4,8-7.9,8s-4.7-1.1-6-3.1v8.8h-2.1v-21.6h2v3.1c1.3-2.1,3.5-3.2,6.1-3.2,4.5,0,7.9,3.2,7.9,8ZM181.5,742.7c0-3.7-2.5-6.1-5.9-6.1s-5.9,2.5-5.9,6.1,2.5,6.1,5.9,6.1,5.9-2.5,5.9-6.1Z"/>
            <path class="cls-6" d="M203.9,742.7c0,4.8-3.4,8-7.9,8s-4.7-1.1-6-3.1v8.8h-2.1v-21.6h2v3.1c1.3-2.1,3.5-3.2,6.1-3.2,4.5,0,7.9,3.2,7.9,8ZM201.8,742.7c0-3.7-2.5-6.1-5.9-6.1s-5.9,2.5-5.9,6.1,2.5,6.1,5.9,6.1,5.9-2.5,5.9-6.1Z"/>
            <path class="cls-6" d="M229.9,743.3h-13.2c.2,3.3,2.8,5.5,6.2,5.5s3.6-.7,4.8-2.1l1.2,1.4c-1.4,1.7-3.6,2.6-6.1,2.6-4.9,0-8.3-3.4-8.3-8s3.3-8,7.7-8,7.6,3.3,7.6,8,0,.4,0,.7ZM216.7,741.8h11.2c-.3-3.1-2.5-5.2-5.6-5.2s-5.3,2.2-5.6,5.2Z"/>
            <path class="cls-6" d="M243.9,750.6l-5-6.6-5,6.6h-2.4l6.2-8.1-5.9-7.7h2.4l4.7,6.2,4.7-6.2h2.3l-5.9,7.7,6.3,8.1h-2.4Z"/>
            <path class="cls-6" d="M265.8,742.7c0,4.8-3.4,8-7.9,8s-4.7-1.1-6-3.1v8.8h-2.1v-21.6h2v3.1c1.3-2.1,3.5-3.2,6.1-3.2,4.5,0,7.9,3.2,7.9,8ZM263.7,742.7c0-3.7-2.5-6.1-5.9-6.1s-5.9,2.5-5.9,6.1,2.5,6.1,5.9,6.1,5.9-2.5,5.9-6.1Z"/>
            <path class="cls-6" d="M283.9,743.3h-13.2c.2,3.3,2.8,5.5,6.2,5.5s3.6-.7,4.8-2.1l1.2,1.4c-1.4,1.7-3.6,2.6-6.1,2.6-4.9,0-8.3-3.4-8.3-8s3.3-8,7.7-8,7.6,3.3,7.6,8,0,.4,0,.7ZM270.7,741.8h11.2c-.3-3.1-2.5-5.2-5.6-5.2s-5.3,2.2-5.6,5.2Z"/>
            <path class="cls-6" d="M296.2,734.7v2.1c-.2,0-.4,0-.5,0-3.3,0-5.3,2.1-5.3,5.8v8h-2.1v-15.8h2v3.1c1-2.1,3-3.2,5.9-3.2Z"/>
            <path class="cls-6" d="M299.6,729.8c0-.8.7-1.5,1.6-1.5s1.6.7,1.6,1.5-.7,1.6-1.6,1.6-1.6-.7-1.6-1.5ZM300.1,734.8h2.1v15.8h-2.1v-15.8Z"/>
            <path class="cls-6" d="M321.9,743.3h-13.2c.2,3.3,2.8,5.5,6.2,5.5s3.6-.7,4.8-2.1l1.2,1.4c-1.4,1.7-3.6,2.6-6.1,2.6-4.9,0-8.3-3.4-8.3-8s3.3-8,7.7-8,7.6,3.3,7.6,8,0,.4,0,.7ZM308.7,741.8h11.2c-.3-3.1-2.5-5.2-5.6-5.2s-5.3,2.2-5.6,5.2Z"/>
            <path class="cls-6" d="M340.8,741.4v9.1h-2.1v-8.9c0-3.3-1.7-5-4.7-5s-5.5,2.1-5.5,5.7v8.3h-2.1v-15.8h2v2.9c1.1-1.9,3.3-3,6-3s6.5,2.2,6.5,6.8Z"/>
            <path class="cls-6" d="M345.1,742.7c0-4.7,3.4-8,8.1-8s4.9,1,6.2,3.1l-1.6,1.1c-1.1-1.6-2.8-2.3-4.6-2.3-3.5,0-6,2.5-6,6.1s2.5,6.1,6,6.1,3.5-.7,4.6-2.3l1.6,1.1c-1.3,2-3.5,3.1-6.2,3.1-4.7,0-8.1-3.3-8.1-8Z"/>
            <path class="cls-6" d="M377,743.3h-13.2c.2,3.3,2.8,5.5,6.2,5.5s3.6-.7,4.8-2.1l1.2,1.4c-1.4,1.7-3.6,2.6-6.1,2.6-4.9,0-8.3-3.4-8.3-8s3.3-8,7.7-8,7.7,3.3,7.7,8,0,.4,0,.7ZM363.8,741.8h11.2c-.3-3.1-2.5-5.2-5.6-5.2s-5.3,2.2-5.6,5.2Z"/>
          </g>
          <g>
            <path class="cls-6" d="M47.6,772.1c0,.5-.4.9-.9.9s-.9-.4-.9-.9,0-.5.2-1l.7-2.3h.8l-.6,2.4c.4.1.6.4.6.9ZM50.5,772.1c0,.5-.4.9-.9.9s-.9-.4-.9-.9,0-.5.2-1l.7-2.3h.8l-.6,2.4c.4.1.6.4.6.9Z"/>
            <path class="cls-6" d="M61.1,768.8v12.6h-1.2v-1.8c-.7,1.2-2,1.9-3.5,1.9-2.5,0-4.5-1.9-4.5-4.6s1.9-4.5,4.5-4.5,2.7.6,3.4,1.8v-5.4h1.2ZM59.9,776.9c0-2.1-1.4-3.5-3.3-3.5s-3.3,1.4-3.3,3.5,1.4,3.5,3.3,3.5,3.3-1.4,3.3-3.5Z"/>
            <path class="cls-6" d="M72.2,777.3h-7.5c.1,1.9,1.6,3.1,3.5,3.1s2.1-.4,2.7-1.2l.7.8c-.8,1-2,1.5-3.5,1.5-2.8,0-4.7-1.9-4.7-4.6s1.9-4.5,4.4-4.5,4.3,1.9,4.3,4.5,0,.2,0,.4ZM64.7,776.4h6.3c-.2-1.8-1.4-3-3.2-3s-3,1.2-3.2,3Z"/>
            <path class="cls-6" d="M74.7,768.8h1.2v12.6h-1.2v-12.6Z"/>
            <path class="cls-6" d="M79,769.6c0-.5.4-.8.9-.8s.9.4.9.8-.4.9-.9.9-.9-.4-.9-.9ZM79.3,772.4h1.2v8.9h-1.2v-8.9Z"/>
            <path class="cls-6" d="M91.3,772.4l-4,8.9h-1.2l-4-8.9h1.3l3.3,7.6,3.4-7.6h1.2Z"/>
            <path class="cls-6" d="M100.6,777.3h-7.5c.1,1.9,1.6,3.1,3.5,3.1s2.1-.4,2.7-1.2l.7.8c-.8,1-2,1.5-3.5,1.5-2.8,0-4.7-1.9-4.7-4.6s1.9-4.5,4.4-4.5,4.3,1.9,4.3,4.5,0,.2,0,.4ZM93.1,776.4h6.3c-.2-1.8-1.4-3-3.2-3s-3,1.2-3.2,3Z"/>
            <path class="cls-6" d="M107.6,772.4v1.2c-.1,0-.2,0-.3,0-1.9,0-3,1.2-3,3.3v4.6h-1.2v-8.9h1.2v1.8c.6-1.2,1.7-1.8,3.3-1.8Z"/>
            <path class="cls-6" d="M122.1,777.3h-7.5c.1,1.9,1.6,3.1,3.5,3.1s2.1-.4,2.7-1.2l.7.8c-.8,1-2,1.5-3.5,1.5-2.8,0-4.7-1.9-4.7-4.6s1.9-4.5,4.4-4.5,4.3,1.9,4.3,4.5,0,.2,0,.4ZM114.6,776.4h6.3c-.2-1.8-1.4-3-3.2-3s-3,1.2-3.2,3Z"/>
            <path class="cls-6" d="M130,781.4l-2.8-3.7-2.9,3.7h-1.4l3.5-4.6-3.4-4.4h1.4l2.7,3.5,2.7-3.5h1.3l-3.4,4.4,3.6,4.6h-1.4Z"/>
            <path class="cls-6" d="M132.2,776.9c0-2.7,1.9-4.5,4.6-4.5s2.8.6,3.5,1.8l-.9.6c-.6-.9-1.6-1.3-2.6-1.3-2,0-3.4,1.4-3.4,3.5s1.4,3.5,3.4,3.5,2-.4,2.6-1.3l.9.6c-.7,1.2-2,1.8-3.5,1.8-2.7,0-4.6-1.9-4.6-4.6Z"/>
            <path class="cls-6" d="M150.3,777.3h-7.5c.1,1.9,1.6,3.1,3.5,3.1s2.1-.4,2.7-1.2l.7.8c-.8,1-2,1.5-3.5,1.5-2.8,0-4.7-1.9-4.7-4.6s1.9-4.5,4.4-4.5,4.3,1.9,4.3,4.5,0,.2,0,.4ZM142.8,776.4h6.3c-.2-1.8-1.4-3-3.2-3s-3,1.2-3.2,3Z"/>
            <path class="cls-6" d="M161.8,776.9c0,2.7-1.9,4.6-4.5,4.6s-2.7-.6-3.4-1.8v5h-1.2v-12.2h1.2v1.8c.7-1.2,2-1.8,3.5-1.8,2.5,0,4.5,1.8,4.5,4.5ZM160.6,776.9c0-2.1-1.4-3.5-3.3-3.5s-3.3,1.4-3.3,3.5,1.4,3.5,3.3,3.5,3.3-1.4,3.3-3.5Z"/>
            <path class="cls-6" d="M169,780.8c-.5.4-1.2.6-1.9.6-1.7,0-2.6-1-2.6-2.6v-5.4h-1.6v-1h1.6v-2h1.2v2h2.7v1h-2.7v5.3c0,1.1.5,1.6,1.5,1.6s1-.2,1.3-.5l.4.9Z"/>
            <path class="cls-6" d="M170.9,769.6c0-.5.4-.8.9-.8s.9.4.9.8-.4.9-.9.9-.9-.4-.9-.9ZM171.2,772.4h1.2v8.9h-1.2v-8.9Z"/>
            <path class="cls-6" d="M174.9,776.9c0-2.7,1.9-4.5,4.6-4.5s4.5,1.9,4.5,4.5-1.9,4.6-4.5,4.6-4.6-1.9-4.6-4.6ZM182.8,776.9c0-2.1-1.4-3.5-3.3-3.5s-3.3,1.4-3.3,3.5,1.4,3.5,3.3,3.5,3.3-1.4,3.3-3.5Z"/>
            <path class="cls-6" d="M194.7,776.2v5.2h-1.2v-5.1c0-1.9-1-2.9-2.7-2.9s-3.1,1.2-3.1,3.2v4.7h-1.2v-8.9h1.2v1.6c.6-1.1,1.9-1.7,3.4-1.7s3.7,1.3,3.7,3.8Z"/>
            <path class="cls-6" d="M204.7,775.8v5.5h-1.2v-1.4c-.5.9-1.6,1.5-3.1,1.5s-3.3-1.1-3.3-2.6.9-2.5,3.5-2.5h2.8v-.5c0-1.5-.9-2.4-2.5-2.4s-2.2.4-3,1.1l-.5-.9c.9-.8,2.2-1.2,3.6-1.2,2.3,0,3.6,1.2,3.6,3.5ZM203.5,778.7v-1.5h-2.8c-1.7,0-2.3.7-2.3,1.6s.8,1.7,2.3,1.7,2.4-.6,2.8-1.8Z"/>
            <path class="cls-6" d="M208,768.8h1.2v12.6h-1.2v-12.6Z"/>
            <path class="cls-6" d="M215.8,780.3l.5-1c.7.6,1.9,1,3.2,1s2.4-.6,2.4-1.5c0-2.3-5.8-.5-5.8-4s1.3-2.5,3.5-2.5,2.4.3,3.2.8l-.5,1c-.8-.5-1.7-.8-2.6-.8-1.6,0-2.3.6-2.3,1.5,0,2.4,5.8.6,5.8,4s-1.4,2.5-3.7,2.5-2.9-.5-3.6-1.1Z"/>
            <path class="cls-6" d="M233.1,777.3h-7.5c.1,1.9,1.6,3.1,3.5,3.1s2.1-.4,2.7-1.2l.7.8c-.8,1-2,1.5-3.5,1.5-2.8,0-4.7-1.9-4.7-4.6s1.9-4.5,4.4-4.5,4.3,1.9,4.3,4.5,0,.2,0,.4ZM225.6,776.4h6.3c-.2-1.8-1.4-3-3.2-3s-3,1.2-3.2,3Z"/>
            <path class="cls-6" d="M240.1,772.4v1.2c-.1,0-.2,0-.3,0-1.9,0-3,1.2-3,3.3v4.6h-1.2v-8.9h1.2v1.8c.6-1.2,1.7-1.8,3.3-1.8Z"/>
            <path class="cls-6" d="M250.2,772.4l-4,8.9h-1.2l-4-8.9h1.3l3.3,7.6,3.4-7.6h1.2Z"/>
            <path class="cls-6" d="M251.6,769.6c0-.5.4-.8.9-.8s.9.4.9.8-.4.9-.9.9-.9-.4-.9-.9ZM251.9,772.4h1.2v8.9h-1.2v-8.9Z"/>
            <path class="cls-6" d="M255.5,776.9c0-2.7,1.9-4.5,4.6-4.5s2.8.6,3.5,1.8l-.9.6c-.6-.9-1.6-1.3-2.6-1.3-2,0-3.4,1.4-3.4,3.5s1.4,3.5,3.4,3.5,2-.4,2.6-1.3l.9.6c-.7,1.2-2,1.8-3.5,1.8-2.7,0-4.6-1.9-4.6-4.6Z"/>
            <path class="cls-6" d="M273.7,777.3h-7.5c.1,1.9,1.6,3.1,3.5,3.1s2.1-.4,2.7-1.2l.7.8c-.8,1-2,1.5-3.5,1.5-2.8,0-4.7-1.9-4.7-4.6s1.9-4.5,4.4-4.5,4.3,1.9,4.3,4.5,0,.2,0,.4ZM266.2,776.4h6.3c-.2-1.8-1.4-3-3.2-3s-3,1.2-3.2,3Z"/>
            <path class="cls-6" d="M282,771.4v1.1h2.8v1h-2.7v7.9h-1.2v-7.9h-1.6v-1h1.6v-1.1c0-1.6,1-2.7,2.7-2.7s1.3.2,1.8.6l-.4.9c-.3-.3-.8-.4-1.3-.4-1,0-1.6.6-1.6,1.7Z"/>
            <path class="cls-6" d="M292.9,775.8v5.5h-1.2v-1.4c-.5.9-1.6,1.5-3.1,1.5s-3.3-1.1-3.3-2.6.9-2.5,3.5-2.5h2.8v-.5c0-1.5-.9-2.4-2.5-2.4s-2.2.4-3,1.1l-.5-.9c.9-.8,2.2-1.2,3.6-1.2,2.3,0,3.6,1.2,3.6,3.5ZM291.7,778.7v-1.5h-2.8c-1.7,0-2.3.7-2.3,1.6s.8,1.7,2.3,1.7,2.4-.6,2.8-1.8Z"/>
            <path class="cls-6" d="M295,780.3l.5-1c.7.6,1.9,1,3.2,1s2.4-.6,2.4-1.5c0-2.3-5.8-.5-5.8-4s1.3-2.5,3.5-2.5,2.4.3,3.2.8l-.5,1c-.8-.5-1.7-.8-2.6-.8-1.6,0-2.3.6-2.3,1.5,0,2.4,5.8.6,5.8,4s-1.4,2.5-3.7,2.5-2.9-.5-3.6-1.1Z"/>
            <path class="cls-6" d="M309.2,780.8c-.5.4-1.2.6-1.9.6-1.7,0-2.6-1-2.6-2.6v-5.4h-1.6v-1h1.6v-2h1.2v2h2.7v1h-2.7v5.3c0,1.1.5,1.6,1.5,1.6s1-.2,1.3-.5l.4.9Z"/>
            <path class="cls-6" d="M318.9,777.3h-7.5c.1,1.9,1.6,3.1,3.5,3.1s2.1-.4,2.7-1.2l.7.8c-.8,1-2,1.5-3.5,1.5-2.8,0-4.7-1.9-4.7-4.6s1.9-4.5,4.4-4.5,4.3,1.9,4.3,4.5,0,.2,0,.4ZM311.4,776.4h6.3c-.2-1.8-1.4-3-3.2-3s-3,1.2-3.2,3Z"/>
            <path class="cls-6" d="M325.9,772.4v1.2c-.1,0-.2,0-.3,0-1.9,0-3,1.2-3,3.3v4.6h-1.2v-8.9h1.2v1.8c.6-1.2,1.7-1.8,3.3-1.8Z"/>
            <path class="cls-6" d="M345.8,772.4l-3.4,8.9h-1.1l-2.8-7.3-2.8,7.3h-1.1l-3.4-8.9h1.2l2.8,7.6,2.9-7.6h1l2.9,7.6,2.8-7.6h1.1Z"/>
            <path class="cls-6" d="M347.3,769.6c0-.5.4-.8.9-.8s.9.4.9.8-.4.9-.9.9-.9-.4-.9-.9ZM347.6,772.4h1.2v8.9h-1.2v-8.9Z"/>
            <path class="cls-6" d="M356.9,780.8c-.5.4-1.2.6-1.9.6-1.7,0-2.6-1-2.6-2.6v-5.4h-1.6v-1h1.6v-2h1.2v2h2.7v1h-2.7v5.3c0,1.1.5,1.6,1.5,1.6s1-.2,1.3-.5l.4.9Z"/>
            <path class="cls-6" d="M367.3,776.2v5.2h-1.2v-5.1c0-1.9-1-2.9-2.7-2.9s-3.1,1.2-3.1,3.2v4.7h-1.2v-12.6h1.2v5.2c.7-1,1.8-1.6,3.3-1.6,2.2,0,3.7,1.3,3.7,3.8Z"/>
            <path class="cls-6" d="M45.4,800.7l.5-1c.7.6,1.9,1,3.2,1s2.4-.6,2.4-1.5c0-2.3-5.8-.5-5.8-4s1.3-2.5,3.5-2.5,2.4.3,3.2.8l-.5,1c-.8-.5-1.7-.8-2.6-.8-1.6,0-2.3.6-2.3,1.5,0,2.4,5.8.6,5.8,4s-1.4,2.5-3.7,2.5-2.9-.5-3.6-1.1Z"/>
            <path class="cls-6" d="M62.7,797.7h-7.5c.1,1.9,1.6,3.1,3.5,3.1s2.1-.4,2.7-1.2l.7.8c-.8,1-2,1.5-3.5,1.5-2.8,0-4.7-1.9-4.7-4.6s1.9-4.5,4.4-4.5,4.3,1.9,4.3,4.5,0,.2,0,.4ZM55.2,796.8h6.3c-.2-1.8-1.4-3-3.2-3s-3,1.2-3.2,3Z"/>
            <path class="cls-6" d="M71.7,796.2v5.5h-1.2v-1.4c-.5.9-1.6,1.5-3.1,1.5s-3.3-1.1-3.3-2.6.9-2.5,3.5-2.5h2.8v-.5c0-1.5-.9-2.4-2.5-2.4s-2.2.4-3,1.1l-.5-.9c.9-.8,2.2-1.2,3.6-1.2,2.3,0,3.6,1.2,3.6,3.5ZM70.5,799.1v-1.5h-2.8c-1.7,0-2.3.7-2.3,1.6s.8,1.7,2.3,1.7,2.4-.6,2.8-1.8Z"/>
            <path class="cls-6" d="M89.7,796.6v5.2h-1.2v-5.1c0-1.9-1-2.9-2.6-2.9s-3,1.2-3,3.2v4.7h-1.2v-5.1c0-1.9-1-2.9-2.6-2.9s-3,1.2-3,3.2v4.7h-1.2v-8.9h1.2v1.6c.6-1.1,1.8-1.7,3.3-1.7s2.6.6,3.2,1.9c.6-1.2,1.9-1.9,3.5-1.9s3.6,1.3,3.6,3.8Z"/>
            <path class="cls-6" d="M93,789.2h1.2v12.6h-1.2v-12.6Z"/>
            <path class="cls-6" d="M105.4,797.7h-7.5c.1,1.9,1.6,3.1,3.5,3.1s2.1-.4,2.7-1.2l.7.8c-.8,1-2,1.5-3.5,1.5-2.8,0-4.7-1.9-4.7-4.6s1.9-4.5,4.4-4.5,4.3,1.9,4.3,4.5,0,.2,0,.4ZM97.9,796.8h6.3c-.2-1.8-1.4-3-3.2-3s-3,1.2-3.2,3Z"/>
            <path class="cls-6" d="M106.6,800.7l.5-1c.7.6,1.9,1,3.2,1s2.4-.6,2.4-1.5c0-2.3-5.8-.5-5.8-4s1.3-2.5,3.5-2.5,2.4.3,3.2.8l-.5,1c-.8-.5-1.7-.8-2.6-.8-1.6,0-2.3.6-2.3,1.5,0,2.4,5.8.6,5.8,4s-1.4,2.5-3.7,2.5-2.9-.5-3.6-1.1Z"/>
            <path class="cls-6" d="M114.9,800.7l.5-1c.7.6,1.9,1,3.2,1s2.4-.6,2.4-1.5c0-2.3-5.8-.5-5.8-4s1.3-2.5,3.5-2.5,2.4.3,3.2.8l-.5,1c-.8-.5-1.7-.8-2.6-.8-1.6,0-2.3.6-2.3,1.5,0,2.4,5.8.6,5.8,4s-1.4,2.5-3.7,2.5-2.9-.5-3.6-1.1Z"/>
            <path class="cls-6" d="M128,797.3c0-2.7,1.9-4.5,4.6-4.5s2.8.6,3.5,1.8l-.9.6c-.6-.9-1.6-1.3-2.6-1.3-2,0-3.4,1.4-3.4,3.5s1.4,3.5,3.4,3.5,2-.4,2.6-1.3l.9.6c-.7,1.2-2,1.8-3.5,1.8-2.7,0-4.6-1.9-4.6-4.6Z"/>
            <path class="cls-6" d="M146.6,796.6v5.2h-1.2v-5.1c0-1.9-1-2.9-2.7-2.9s-3.1,1.2-3.1,3.2v4.7h-1.2v-12.6h1.2v5.2c.7-1,1.8-1.6,3.3-1.6,2.2,0,3.7,1.3,3.7,3.8Z"/>
            <path class="cls-6" d="M156.6,796.2v5.5h-1.2v-1.4c-.5.9-1.6,1.5-3.1,1.5s-3.3-1.1-3.3-2.6.9-2.5,3.5-2.5h2.8v-.5c0-1.5-.9-2.4-2.5-2.4s-2.2.4-3,1.1l-.5-.9c.9-.8,2.2-1.2,3.6-1.2,2.3,0,3.6,1.2,3.6,3.5ZM155.4,799.1v-1.5h-2.8c-1.7,0-2.3.7-2.3,1.6s.8,1.7,2.3,1.7,2.4-.6,2.8-1.8Z"/>
            <path class="cls-6" d="M164.6,801.2c-.5.4-1.2.6-1.9.6-1.7,0-2.6-1-2.6-2.6v-5.4h-1.6v-1h1.6v-2h1.2v2h2.7v1h-2.7v5.3c0,1.1.5,1.6,1.5,1.6s1-.2,1.3-.5l.4.9Z"/>
            <path class="cls-6" d="M186,796.6v5.2h-1.2v-5.1c0-1.9-1-2.9-2.6-2.9s-3,1.2-3,3.2v4.7h-1.2v-5.1c0-1.9-1-2.9-2.6-2.9s-3,1.2-3,3.2v4.7h-1.2v-8.9h1.2v1.6c.6-1.1,1.8-1.7,3.3-1.7s2.6.6,3.2,1.9c.6-1.2,1.9-1.9,3.5-1.9s3.6,1.3,3.6,3.8Z"/>
            <path class="cls-6" d="M196,796.2v5.5h-1.2v-1.4c-.5.9-1.6,1.5-3.1,1.5s-3.3-1.1-3.3-2.6.9-2.5,3.5-2.5h2.8v-.5c0-1.5-.9-2.4-2.5-2.4s-2.2.4-3,1.1l-.5-.9c.9-.8,2.2-1.2,3.6-1.2,2.3,0,3.6,1.2,3.6,3.5ZM194.8,799.1v-1.5h-2.8c-1.7,0-2.3.7-2.3,1.6s.8,1.7,2.3,1.7,2.4-.6,2.8-1.8Z"/>
            <path class="cls-6" d="M207.6,796.6v5.2h-1.2v-5.1c0-1.9-1-2.9-2.7-2.9s-3.1,1.2-3.1,3.2v4.7h-1.2v-8.9h1.2v1.6c.6-1.1,1.9-1.7,3.4-1.7s3.7,1.3,3.7,3.8Z"/>
            <path class="cls-6" d="M217.6,796.2v5.5h-1.2v-1.4c-.5.9-1.6,1.5-3.1,1.5s-3.3-1.1-3.3-2.6.9-2.5,3.5-2.5h2.8v-.5c0-1.5-.9-2.4-2.5-2.4s-2.2.4-3,1.1l-.5-.9c.9-.8,2.2-1.2,3.6-1.2,2.3,0,3.6,1.2,3.6,3.5ZM216.4,799.1v-1.5h-2.8c-1.7,0-2.3.7-2.3,1.6s.8,1.7,2.3,1.7,2.4-.6,2.8-1.8Z"/>
            <path class="cls-6" d="M229.2,792.8v7.9c0,3.1-1.5,4.5-4.5,4.5s-3.2-.5-4.2-1.4l.6-.9c.8.8,2.1,1.2,3.5,1.2,2.3,0,3.3-1,3.3-3.2v-1.1c-.7,1.1-2,1.7-3.5,1.7-2.5,0-4.5-1.8-4.5-4.4s1.9-4.3,4.5-4.3,2.8.6,3.5,1.8v-1.7h1.2ZM228,797.1c0-1.9-1.4-3.3-3.4-3.3s-3.4,1.3-3.4,3.3,1.4,3.3,3.4,3.3,3.4-1.3,3.4-3.3Z"/>
            <path class="cls-6" d="M240.3,797.7h-7.5c.1,1.9,1.6,3.1,3.5,3.1s2.1-.4,2.7-1.2l.7.8c-.8,1-2,1.5-3.5,1.5-2.8,0-4.7-1.9-4.7-4.6s1.9-4.5,4.4-4.5,4.3,1.9,4.3,4.5,0,.2,0,.4ZM232.9,796.8h6.3c-.2-1.8-1.4-3-3.2-3s-3,1.2-3.2,3Z"/>
            <path class="cls-6" d="M257.6,796.6v5.2h-1.2v-5.1c0-1.9-1-2.9-2.6-2.9s-3,1.2-3,3.2v4.7h-1.2v-5.1c0-1.9-1-2.9-2.6-2.9s-3,1.2-3,3.2v4.7h-1.2v-8.9h1.2v1.6c.6-1.1,1.8-1.7,3.3-1.7s2.6.6,3.2,1.9c.6-1.2,1.9-1.9,3.5-1.9s3.6,1.3,3.6,3.8Z"/>
            <path class="cls-6" d="M268.7,797.7h-7.5c.1,1.9,1.6,3.1,3.5,3.1s2.1-.4,2.7-1.2l.7.8c-.8,1-2,1.5-3.5,1.5-2.8,0-4.7-1.9-4.7-4.6s1.9-4.5,4.4-4.5,4.3,1.9,4.3,4.5,0,.2,0,.4ZM261.2,796.8h6.3c-.2-1.8-1.4-3-3.2-3s-3,1.2-3.2,3Z"/>
            <path class="cls-6" d="M279.4,796.6v5.2h-1.2v-5.1c0-1.9-1-2.9-2.7-2.9s-3.1,1.2-3.1,3.2v4.7h-1.2v-8.9h1.2v1.6c.6-1.1,1.9-1.7,3.4-1.7s3.7,1.3,3.7,3.8Z"/>
            <path class="cls-6" d="M287.4,801.2c-.5.4-1.2.6-1.9.6-1.7,0-2.6-1-2.6-2.6v-5.4h-1.6v-1h1.6v-2h1.2v2h2.7v1h-2.7v5.3c0,1.1.5,1.6,1.5,1.6s1-.2,1.3-.5l.4.9Z"/>
            <path class="cls-6" d="M289,800.9c0-.5.4-.9.9-.9s.9.4.9.9-.4.9-.9.9-.9-.4-.9-.9Z"/>
            <path class="cls-6" d="M294.1,790c0,.3,0,.5-.2,1l-.7,2.3h-.8l.6-2.4c-.4-.1-.6-.4-.6-.9s.4-.9.9-.9.9.4.9.9ZM297,790c0,.3,0,.5-.2,1l-.7,2.3h-.8l.6-2.4c-.4-.1-.6-.4-.6-.9s.4-.9.9-.9.9.4.9.9Z"/>
          </g>
          <g>
            <path class="cls-13" d="M367.8,592.7c-.2.9-.5,1.7-.9,2.4-.4.7-1,1.2-1.8,1.7-.7.4-1.6.6-2.7.6s-1.9-.2-2.7-.6c-.7-.4-1.3-1-1.8-1.7-.4-.7-.8-1.5-1-2.4-.2-.9-.3-1.9-.3-2.8,0-1,0-1.9.3-2.8.2-.9.5-1.7.9-2.4.4-.7,1-1.3,1.8-1.7.7-.4,1.6-.7,2.7-.7s1.9.2,2.6.7c.7.4,1.3,1,1.8,1.8.5.7.8,1.5,1,2.4.2.9.3,1.8.3,2.8s0,1.9-.3,2.8ZM373.9,585.3c-.4-1.5-1.1-2.9-2-4.1-.9-1.2-2-2.1-3.3-2.8-1.3-.7-3-1.1-4.8-1.1s-2.8.3-4,.9c-1.2.6-2.2,1.5-3,2.8h0v-3h-6.2v32h6.5v-11.2h0c.8,1.1,1.8,2,3,2.6,1.2.6,2.6.9,4.1.9s3.3-.3,4.6-1c1.3-.7,2.4-1.6,3.3-2.7.9-1.1,1.5-2.4,1.9-3.9.4-1.5.6-3,.6-4.6s-.2-3.3-.6-4.8h0ZM341.8,592.7c-.2.9-.5,1.7-.9,2.4s-1,1.2-1.8,1.7c-.7.4-1.6.6-2.7.6s-1.9-.2-2.7-.6c-.7-.4-1.3-1-1.8-1.7-.4-.7-.8-1.5-1-2.4-.2-.9-.3-1.9-.3-2.8,0-1,0-1.9.3-2.8.2-.9.5-1.7.9-2.4.4-.7,1-1.3,1.8-1.7.7-.4,1.6-.7,2.7-.7s1.9.2,2.6.7c.7.4,1.3,1,1.8,1.8.5.7.8,1.5,1,2.4.2.9.3,1.8.3,2.8s0,1.9-.3,2.8ZM346,581.2c-.9-1.2-2-2.1-3.3-2.8-1.3-.7-3-1.1-4.8-1.1s-2.8.3-4,.9c-1.2.6-2.2,1.5-3,2.8h0v-3h-6.2v32h6.5v-11.2h0c.8,1.1,1.8,2,3,2.6,1.2.6,2.6.9,4.1.9s3.3-.3,4.6-1c1.3-.7,2.4-1.6,3.3-2.7.9-1.1,1.5-2.4,2-3.9.4-1.5.6-3,.6-4.6,0-1.7-.2-3.3-.6-4.8-.4-1.5-1.1-2.9-2-4.1h0ZM303.2,589.1l4.3-12h0l4.1,12h-8.5ZM303.9,569l-12.4,32.7h7.2l2.6-7.3h12.3l2.5,7.3h7.5l-12.3-32.7h-7.4,0ZM290.9,591.3c-.4-.7-1-1.4-1.7-1.9-.7-.5-1.5-.9-2.4-1.2-.9-.3-1.8-.6-2.8-.8-.9-.2-1.8-.4-2.7-.6s-1.7-.4-2.4-.6c-.7-.2-1.2-.5-1.7-.9-.4-.4-.6-.8-.6-1.4s.1-.9.4-1.2c.3-.3.6-.5.9-.7.3-.2.7-.3,1.2-.3.4,0,.8,0,1.2,0,1.2,0,2.2.2,3,.7.9.4,1.3,1.3,1.4,2.5h6.2c-.1-1.5-.5-2.7-1.1-3.6s-1.4-1.7-2.4-2.3-2-1-3.2-1.2c-1.2-.3-2.4-.4-3.7-.4s-2.5.1-3.8.3c-1.2.2-2.3.6-3.3,1.2-1,.6-1.8,1.3-2.4,2.3-.6,1-.9,2.2-.9,3.8s.2,1.9.6,2.6c.4.7,1,1.3,1.7,1.8.7.5,1.5.9,2.4,1.2s1.8.6,2.8.8c2.3.5,4.1,1,5.4,1.5,1.3.5,1.9,1.2,1.9,2.2s-.1,1.1-.4,1.5c-.3.4-.6.7-1,.9-.4.2-.9.4-1.4.5-.5.1-1,.2-1.5.2-.6,0-1.3,0-1.8-.2-.6-.2-1.1-.4-1.6-.7-.5-.3-.8-.7-1.1-1.2-.3-.5-.4-1.1-.4-1.8h-6.2c0,1.6.4,2.9,1.1,4,.6,1.1,1.5,1.9,2.5,2.5s2.2,1.1,3.5,1.4c1.3.3,2.7.4,4,.4s2.7-.1,4-.4c1.3-.3,2.4-.7,3.5-1.4s1.8-1.5,2.4-2.5c.6-1.1.9-2.4.9-3.9s-.2-2-.6-2.8h0ZM264,570.9h-6.5v7.1h-3.9v4.4h3.9v14c0,1.2.2,2.1.6,2.9.4.7.9,1.3,1.6,1.7.7.4,1.5.7,2.4.8.9.1,1.9.2,2.9.2.6,0,1.3,0,2,0,.6,0,1.2,0,1.8-.2v-5.1c-.3,0-.6.1-1,.1-.4,0-.7,0-1.1,0-1.1,0-1.8-.2-2.2-.6-.4-.4-.6-1.1-.6-2.2v-11.7h4.8v-4.4h-4.8v-7.1h0ZM245.3,592.6c0,.4,0,.9-.1,1.5,0,.6-.3,1.3-.6,1.8-.3.6-.9,1.1-1.6,1.5-.7.4-1.7.6-3,.6s-1,0-1.5-.1c-.5,0-.9-.3-1.3-.5-.4-.2-.6-.5-.9-.9-.2-.4-.3-.9-.3-1.5s.1-1.1.3-1.5c.2-.4.5-.7.9-1,.3-.3.8-.5,1.2-.6s.9-.3,1.5-.4c.5,0,1-.2,1.6-.2.5,0,1-.1,1.5-.2s.9-.2,1.3-.3.8-.3,1-.6v2.4h0ZM251.8,596.5v-12.3c0-1.4-.3-2.6-1-3.5-.6-.9-1.5-1.5-2.5-2-1-.5-2.1-.8-3.3-1-1.2-.2-2.4-.2-3.6-.3-1.3,0-2.6.1-3.9.4-1.3.3-2.5.7-3.5,1.3-1,.6-1.9,1.4-2.6,2.4-.7,1-1.1,2.3-1.2,3.8h6.5c.1-1.3.6-2.2,1.3-2.7.7-.6,1.7-.8,3-.8s1.1,0,1.6.1c.5,0,.9.2,1.3.5.4.2.7.6.9,1,.2.4.3,1,.3,1.7,0,.7-.2,1.2-.6,1.5-.4.3-1,.6-1.8.8s-1.6.3-2.5.4-1.9.2-2.9.4-1.9.4-2.9.6-1.8.6-2.6,1.2c-.8.5-1.4,1.2-1.8,2.1-.5.9-.7,2-.7,3.3s.2,2.3.6,3.2c.4.9,1,1.6,1.7,2.2.8.6,1.6,1,2.6,1.3,1,.3,2,.4,3.2.4s2.9-.2,4.3-.6c1.4-.4,2.7-1.2,3.7-2.2,0,.4,0,.8.2,1.2,0,.4.2.8.3,1.1h6.6c-.3-.5-.5-1.2-.6-2.2-.1-1-.2-2-.2-3.1h0c0,0,0,0,0,0ZM225,580.1c-.6-.8-1.5-1.5-2.6-2-1.1-.5-2.5-.7-4.3-.7s-2.5.3-3.8.9-2.3,1.6-3.2,3h-.1v-12.3h-6.5v32.7h6.5v-12.4c0-2.4.4-4.2,1.2-5.2.8-1.1,2.1-1.6,3.9-1.6s2.7.5,3.3,1.5c.6,1,.9,2.4.9,4.4v13.4h6.5v-14.6c0-1.5-.1-2.8-.4-4-.3-1.2-.7-2.2-1.4-3.1h0ZM190.6,591.6h0l-5.6-22.6h-6.7l-5.7,22.3h0l-5.2-22.3h-7.2l8.7,32.7h7.3l5.4-22.3h0l5.5,22.3h7.2l3.9-14.5,4.9-18.2h-7.1l-5.4,22.6Z"/>
            <path class="cls-13" d="M99,621.5c-8,0-15.4-2.4-21.6-6.5l-15.1,4.8,4.9-14.6c-4.7-6.5-7.5-14.4-7.5-23,0-21.6,17.6-39.3,39.3-39.3s39.3,17.6,39.3,39.3-17.6,39.3-39.3,39.3h0ZM99,535.5c-25.8,0-46.7,20.9-46.7,46.7s2.4,17.1,6.7,24.1l-8.4,25,25.8-8.3c6.9,3.8,14.7,5.8,22.6,5.8,25.8,0,46.7-20.9,46.7-46.7,0-25.8-20.9-46.7-46.7-46.7Z"/>
            <path class="cls-7" d="M99,542.9c-21.6,0-39.3,17.6-39.3,39.3s2.8,16.5,7.5,23l-4.9,14.6,15.1-4.8c6.2,4.1,13.6,6.5,21.6,6.5,21.6,0,39.3-17.6,39.3-39.3s-17.6-39.3-39.3-39.3h0Z"/>
            <path class="cls-13" d="M88,562.9c-.8-1.8-1.3-1.9-2.5-1.9-.4,0-.9,0-1.3,0-1.5,0-3.1.4-4,1.4-1.2,1.2-4,3.9-4,9.6s4.1,11.1,4.7,11.8c.6.8,8,12.5,19.5,17.3,9,3.7,11.7,3.4,13.8,3,3-.6,6.8-2.9,7.7-5.5.9-2.7.9-5,.7-5.4-.3-.5-1-.8-2.2-1.3-1.2-.6-6.8-3.3-7.8-3.7-1-.4-2-.3-2.8.9-1.1,1.5-2.2,3.1-3.1,4.1-.7.7-1.8.8-2.8.4-1.3-.5-4.8-1.8-9.2-5.7-3.4-3-5.7-6.8-6.4-7.9-.7-1.2,0-1.8.5-2.4.6-.7,1.1-1.2,1.7-1.9.6-.7.9-1,1.3-1.8.4-.8.1-1.5-.2-2.1s-2.6-6.2-3.5-8.5h0Z"/>
          </g>
        </g>
      </g>
    </g>
  </g>
</svg>