<svg width="451" height="450" viewBox="0 0 451 450" fill="none" xmlns="http://www.w3.org/2000/svg">
<path d="M450.43 0H0V450H450.43V0Z" fill="#25D366"/>
<path d="M63.4198 262.65V264.57H48.5698V243.57H62.9698V245.49H50.7898V252.96H61.6498V254.85H50.7898V262.65H63.4198Z" fill="white"/>
<path d="M68.1899 242.32H70.3199V264.58H68.1899V242.32Z" fill="white"/>
<path d="M89.9999 257.351H76.7999C77.0399 260.651 79.5599 262.841 83.0099 262.841C84.9299 262.841 86.6399 262.151 87.8399 260.771L89.0399 262.151C87.6299 263.831 85.4399 264.731 82.9499 264.731C78.0299 264.731 74.6699 261.371 74.6699 256.691C74.6699 252.011 77.9399 248.681 82.3799 248.681C86.8199 248.681 90.0299 251.951 90.0299 256.691C90.0299 256.871 89.9999 257.111 89.9999 257.351ZM76.7999 255.761H87.9899C87.7199 252.671 85.4699 250.511 82.3799 250.511C79.2899 250.511 77.0699 252.671 76.7999 255.761Z" fill="white"/>
<path d="M107.34 248.801L100.32 264.581H98.1296L91.1396 248.801H93.3596L99.2696 262.241L105.24 248.801H107.34Z" fill="white"/>
<path d="M121.77 254.801V264.581H119.73V262.121C118.77 263.741 116.91 264.731 114.3 264.731C110.73 264.731 108.54 262.871 108.54 260.141C108.54 257.711 110.1 255.671 114.63 255.671H119.64V254.711C119.64 252.011 118.11 250.541 115.17 250.541C113.13 250.541 111.21 251.261 109.92 252.401L108.96 250.811C110.55 249.461 112.89 248.681 115.38 248.681C119.46 248.681 121.77 250.721 121.77 254.801ZM119.64 259.831V257.251H114.69C111.63 257.251 110.64 258.451 110.64 260.071C110.64 261.901 112.11 263.041 114.63 263.041C117.15 263.041 118.8 261.901 119.64 259.831Z" fill="white"/>
<path d="M135.87 263.61C135.03 264.36 133.77 264.72 132.54 264.72C129.57 264.72 127.92 263.04 127.92 260.13V250.59H125.1V248.79H127.92V245.34H130.05V248.79H134.85V250.59H130.05V260.01C130.05 261.87 131.01 262.89 132.78 262.89C133.65 262.89 134.52 262.62 135.12 262.08L135.87 263.61Z" fill="white"/>
<path d="M152.91 257.351H139.71C139.95 260.651 142.47 262.841 145.92 262.841C147.84 262.841 149.55 262.151 150.75 260.771L151.95 262.151C150.54 263.831 148.35 264.731 145.86 264.731C140.94 264.731 137.58 261.371 137.58 256.691C137.58 252.011 140.85 248.681 145.29 248.681C149.73 248.681 152.94 251.951 152.94 256.691C152.94 256.871 152.91 257.111 152.91 257.351ZM139.71 255.761H150.9C150.63 252.671 148.38 250.511 145.29 250.511C142.2 250.511 139.98 252.671 139.71 255.761Z" fill="white"/>
<path d="M178.41 248.801L170.52 266.471C169.2 269.561 167.52 270.551 165.27 270.551C163.8 270.551 162.39 270.071 161.43 269.111L162.42 267.521C163.2 268.301 164.16 268.721 165.3 268.721C166.71 268.721 167.67 268.061 168.57 266.081L169.26 264.551L162.21 248.801H164.43L170.37 262.211L176.31 248.801H178.41Z" fill="white"/>
<path d="M179.37 256.691C179.37 252.011 182.79 248.681 187.41 248.681C192.03 248.681 195.42 252.011 195.42 256.691C195.42 261.371 192.03 264.731 187.41 264.731C182.79 264.731 179.37 261.371 179.37 256.691ZM193.26 256.691C193.26 253.001 190.77 250.541 187.41 250.541C184.05 250.541 181.53 253.001 181.53 256.691C181.53 260.381 184.05 262.841 187.41 262.841C190.77 262.841 193.26 260.381 193.26 256.691Z" fill="white"/>
<path d="M213.99 248.801V264.581H211.95V261.701C210.84 263.621 208.8 264.731 206.28 264.731C202.26 264.731 199.62 262.481 199.62 257.951V248.801H201.75V257.741C201.75 261.101 203.49 262.811 206.49 262.811C209.79 262.811 211.86 260.681 211.86 257.081V248.801H213.99Z" fill="white"/>
<path d="M227.91 248.681V250.751C227.73 250.751 227.55 250.721 227.4 250.721C224.1 250.721 222.09 252.821 222.09 256.541V264.581H219.96V248.801H222V251.891C222.99 249.791 225 248.681 227.91 248.681Z" fill="white"/>
<path d="M77.3998 279.58L70.3198 300.58H67.9798L61.8298 282.67L55.6498 300.58H53.3398L46.2598 279.58H48.5398L54.5998 297.64L60.8698 279.58H62.9398L69.1198 297.73L75.2698 279.58H77.3998Z" fill="white"/>
<path d="M95.9697 291.43V300.58H93.8397V291.64C93.8397 288.31 92.0997 286.6 89.0997 286.6C85.7097 286.6 83.5797 288.7 83.5797 292.3V300.58H81.4497V278.32H83.5797V287.56C84.7497 285.73 86.8197 284.68 89.4897 284.68C93.3297 284.68 95.9697 286.9 95.9697 291.43Z" fill="white"/>
<path d="M113.67 290.801V300.581H111.63V298.121C110.67 299.741 108.81 300.731 106.2 300.731C102.63 300.731 100.44 298.871 100.44 296.141C100.44 293.711 102 291.671 106.53 291.671H111.54V290.711C111.54 288.011 110.01 286.541 107.07 286.541C105.03 286.541 103.11 287.261 101.82 288.401L100.86 286.811C102.45 285.461 104.79 284.681 107.28 284.681C111.36 284.681 113.67 286.721 113.67 290.801ZM111.54 295.831V293.251H106.59C103.53 293.251 102.54 294.451 102.54 296.071C102.54 297.901 104.01 299.041 106.53 299.041C109.05 299.041 110.7 297.901 111.54 295.831Z" fill="white"/>
<path d="M127.77 299.61C126.93 300.36 125.67 300.72 124.44 300.72C121.47 300.72 119.82 299.04 119.82 296.13V286.59H117V284.79H119.82V281.34H121.95V284.79H126.75V286.59H121.95V296.01C121.95 297.87 122.91 298.89 124.68 298.89C125.55 298.89 126.42 298.62 127.02 298.08L127.77 299.61Z" fill="white"/>
<path d="M129.45 298.77L130.41 297.09C131.67 298.08 133.8 298.86 136.02 298.86C139.02 298.86 140.25 297.84 140.25 296.28C140.25 292.17 130.02 295.41 130.02 289.17C130.02 286.59 132.24 284.67 136.26 284.67C138.3 284.67 140.52 285.24 141.84 286.14L140.91 287.85C139.53 286.89 137.88 286.5 136.26 286.5C133.41 286.5 132.15 287.61 132.15 289.11C132.15 293.37 142.38 290.16 142.38 296.22C142.38 298.95 139.98 300.72 135.87 300.72C133.26 300.72 130.74 299.88 129.45 298.77Z" fill="white"/>
<path d="M159.93 294.97H148.23L145.71 300.58H143.4L153 279.58H155.19L164.79 300.58H162.45L159.93 294.97ZM159.12 293.16L154.08 281.88L149.04 293.16H159.12Z" fill="white"/>
<path d="M183.81 292.691C183.81 297.491 180.45 300.731 175.95 300.731C173.43 300.731 171.27 299.651 169.95 297.611V306.401H167.82V284.801H169.86V287.921C171.15 285.821 173.34 284.681 175.95 284.681C180.45 284.681 183.81 287.921 183.81 292.691ZM181.68 292.691C181.68 289.031 179.13 286.541 175.8 286.541C172.47 286.541 169.92 289.031 169.92 292.691C169.92 296.351 172.44 298.841 175.8 298.841C179.16 298.841 181.68 296.381 181.68 292.691Z" fill="white"/>
<path d="M204.15 292.691C204.15 297.491 200.79 300.731 196.29 300.731C193.77 300.731 191.61 299.651 190.29 297.611V306.401H188.16V284.801H190.2V287.921C191.49 285.821 193.68 284.681 196.29 284.681C200.79 284.681 204.15 287.921 204.15 292.691ZM202.02 292.691C202.02 289.031 199.47 286.541 196.14 286.541C192.81 286.541 190.26 289.031 190.26 292.691C190.26 296.351 192.78 298.841 196.14 298.841C199.5 298.841 202.02 296.381 202.02 292.691Z" fill="white"/>
<path d="M230.1 293.351H216.9C217.14 296.651 219.66 298.841 223.11 298.841C225.03 298.841 226.74 298.151 227.94 296.771L229.14 298.151C227.73 299.831 225.54 300.731 223.05 300.731C218.13 300.731 214.77 297.371 214.77 292.691C214.77 288.011 218.04 284.681 222.48 284.681C226.92 284.681 230.13 287.951 230.13 292.691C230.13 292.871 230.1 293.111 230.1 293.351ZM216.9 291.761H228.09C227.82 288.671 225.57 286.511 222.48 286.511C219.39 286.511 217.17 288.671 216.9 291.761Z" fill="white"/>
<path d="M244.08 300.57L239.07 293.97L234.03 300.57H231.63L237.87 292.47L231.93 284.79H234.33L239.07 290.97L243.81 284.79H246.15L240.21 292.47L246.51 300.57H244.08Z" fill="white"/>
<path d="M266.04 292.691C266.04 297.491 262.68 300.731 258.18 300.731C255.66 300.731 253.5 299.651 252.18 297.611V306.401H250.05V284.801H252.09V287.921C253.38 285.821 255.57 284.681 258.18 284.681C262.68 284.681 266.04 287.921 266.04 292.691ZM263.91 292.691C263.91 289.031 261.36 286.541 258.03 286.541C254.7 286.541 252.15 289.031 252.15 292.691C252.15 296.351 254.67 298.841 258.03 298.841C261.39 298.841 263.91 296.381 263.91 292.691Z" fill="white"/>
<path d="M284.13 293.351H270.93C271.17 296.651 273.69 298.841 277.14 298.841C279.06 298.841 280.77 298.151 281.97 296.771L283.17 298.151C281.76 299.831 279.57 300.731 277.08 300.731C272.16 300.731 268.8 297.371 268.8 292.691C268.8 288.011 272.07 284.681 276.51 284.681C280.95 284.681 284.16 287.951 284.16 292.691C284.16 292.871 284.13 293.111 284.13 293.351ZM270.93 291.761H282.12C281.85 288.671 279.6 286.511 276.51 286.511C273.42 286.511 271.2 288.671 270.93 291.761Z" fill="white"/>
<path d="M296.46 284.681V286.751C296.28 286.751 296.1 286.721 295.95 286.721C292.65 286.721 290.64 288.821 290.64 292.541V300.581H288.51V284.801H290.55V287.891C291.54 285.791 293.55 284.681 296.46 284.681Z" fill="white"/>
<path d="M299.81 279.82C299.81 279.01 300.5 278.32 301.37 278.32C302.24 278.32 302.93 278.98 302.93 279.79C302.93 280.66 302.27 281.35 301.37 281.35C300.47 281.35 299.81 280.66 299.81 279.82ZM300.3 284.8H302.43V300.58H300.3V284.8Z" fill="white"/>
<path d="M322.11 293.351H308.91C309.15 296.651 311.67 298.841 315.12 298.841C317.04 298.841 318.75 298.151 319.95 296.771L321.15 298.151C319.74 299.831 317.55 300.731 315.06 300.731C310.14 300.731 306.78 297.371 306.78 292.691C306.78 288.011 310.05 284.681 314.49 284.681C318.93 284.681 322.14 287.951 322.14 292.691C322.14 292.871 322.11 293.111 322.11 293.351ZM308.91 291.761H320.1C319.83 288.671 317.58 286.511 314.49 286.511C311.4 286.511 309.18 288.671 308.91 291.761Z" fill="white"/>
<path d="M341 291.431V300.581H338.87V291.641C338.87 288.311 337.13 286.601 334.13 286.601C330.74 286.601 328.61 288.701 328.61 292.301V300.581H326.48V284.801H328.52V287.711C329.66 285.791 331.79 284.681 334.52 284.681C338.36 284.681 341 286.901 341 291.431Z" fill="white"/>
<path d="M345.26 292.691C345.26 287.981 348.68 284.681 353.39 284.681C356.06 284.681 358.31 285.731 359.57 287.801L357.98 288.881C356.9 287.291 355.22 286.541 353.39 286.541C349.94 286.541 347.42 289.001 347.42 292.691C347.42 296.381 349.94 298.841 353.39 298.841C355.22 298.841 356.9 298.121 357.98 296.531L359.57 297.611C358.31 299.651 356.06 300.731 353.39 300.731C348.68 300.731 345.26 297.401 345.26 292.691Z" fill="white"/>
<path d="M377.21 293.351H364.01C364.25 296.651 366.77 298.841 370.22 298.841C372.14 298.841 373.85 298.151 375.05 296.771L376.25 298.151C374.84 299.831 372.65 300.731 370.16 300.731C365.24 300.731 361.88 297.371 361.88 292.691C361.88 288.011 365.15 284.681 369.59 284.681C374.03 284.681 377.24 287.951 377.24 292.691C377.24 292.871 377.21 293.111 377.21 293.351ZM364.01 291.761H375.2C374.93 288.671 372.68 286.511 369.59 286.511C366.5 286.511 364.28 288.671 364.01 291.761Z" fill="white"/>
<path d="M47.8298 322.07C47.8298 322.61 47.4398 322.99 46.9498 322.99C46.4098 322.99 46.0498 322.58 46.0498 322.07C46.0498 321.8 46.0998 321.59 46.2698 321.1L46.9798 318.75H47.7998L47.2198 321.2C47.5898 321.32 47.8298 321.64 47.8298 322.07ZM50.7198 322.07C50.7198 322.61 50.3298 322.99 49.8398 322.99C49.2998 322.99 48.9398 322.58 48.9398 322.07C48.9398 321.8 48.9898 321.59 49.1598 321.1L49.8698 318.75H50.6898L50.1098 321.2C50.4898 321.32 50.7198 321.64 50.7198 322.07Z" fill="white"/>
<path d="M61.2597 318.75V331.36H60.0997V329.59C59.3697 330.8 58.1297 331.44 56.6497 331.44C54.0997 331.44 52.1997 329.59 52.1997 326.88C52.1997 324.17 54.0997 322.34 56.6497 322.34C58.0797 322.34 59.2997 322.95 60.0497 324.11V318.74H61.2597V318.75ZM60.0697 326.89C60.0697 324.8 58.6397 323.41 56.7497 323.41C54.8597 323.41 53.4197 324.8 53.4197 326.89C53.4197 328.98 54.8497 330.37 56.7497 330.37C58.6497 330.37 60.0697 328.98 60.0697 326.89Z" fill="white"/>
<path d="M72.4197 327.27H64.9397C65.0797 329.14 66.4997 330.38 68.4597 330.38C69.5497 330.38 70.5197 329.99 71.1997 329.21L71.8797 329.99C71.0797 330.94 69.8397 331.45 68.4297 331.45C65.6397 331.45 63.7397 329.55 63.7397 326.89C63.7397 324.23 65.5897 322.35 68.1097 322.35C70.6297 322.35 72.4397 324.2 72.4397 326.89C72.4397 326.99 72.4197 327.13 72.4197 327.26V327.27ZM64.9397 326.37H71.2797C71.1297 324.62 69.8497 323.39 68.0997 323.39C66.3497 323.39 65.0897 324.61 64.9397 326.37Z" fill="white"/>
<path d="M74.8999 318.75H76.1099V331.36H74.8999V318.75Z" fill="white"/>
<path d="M79.1997 319.6C79.1997 319.14 79.5897 318.75 80.0797 318.75C80.5697 318.75 80.9597 319.12 80.9597 319.58C80.9597 320.07 80.5897 320.46 80.0797 320.46C79.5697 320.46 79.1997 320.07 79.1997 319.59V319.6ZM79.4697 322.42H80.6797V331.36H79.4697V322.42Z" fill="white"/>
<path d="M91.5599 322.42L87.5799 331.36H86.3399L82.3799 322.42H83.6399L86.9899 330.04L90.3699 322.42H91.5599Z" fill="white"/>
<path d="M100.79 327.27H93.3099C93.4499 329.14 94.8699 330.38 96.8299 330.38C97.9199 330.38 98.8899 329.99 99.5699 329.21L100.25 329.99C99.4499 330.94 98.2099 331.45 96.7999 331.45C94.0099 331.45 92.1099 329.55 92.1099 326.89C92.1099 324.23 93.9599 322.35 96.4799 322.35C98.9999 322.35 100.81 324.2 100.81 326.89C100.81 326.99 100.79 327.13 100.79 327.26V327.27ZM93.3099 326.37H99.6499C99.4999 324.62 98.2199 323.39 96.4699 323.39C94.7199 323.39 93.4599 324.61 93.3099 326.37Z" fill="white"/>
<path d="M107.78 322.35V323.52C107.68 323.52 107.58 323.5 107.49 323.5C105.62 323.5 104.48 324.69 104.48 326.8V331.36H103.27V322.42H104.43V324.17C104.99 322.98 106.13 322.35 107.78 322.35Z" fill="white"/>
<path d="M122.33 327.27H114.85C114.99 329.14 116.41 330.38 118.37 330.38C119.46 330.38 120.43 329.99 121.11 329.21L121.79 329.99C120.99 330.94 119.75 331.45 118.34 331.45C115.55 331.45 113.65 329.55 113.65 326.89C113.65 324.23 115.5 322.35 118.02 322.35C120.54 322.35 122.35 324.2 122.35 326.89C122.35 326.99 122.33 327.13 122.33 327.26V327.27ZM114.85 326.37H121.19C121.04 324.62 119.76 323.39 118.01 323.39C116.26 323.39 115 324.61 114.85 326.37Z" fill="white"/>
<path d="M130.25 331.36L127.41 327.62L124.55 331.36H123.19L126.73 326.77L123.36 322.42H124.72L127.41 325.92L130.1 322.42H131.43L128.06 326.77L131.63 331.36H130.25Z" fill="white"/>
<path d="M132.41 326.89C132.41 324.22 134.35 322.35 137.02 322.35C138.53 322.35 139.81 322.94 140.52 324.12L139.62 324.73C139.01 323.83 138.06 323.4 137.02 323.4C135.06 323.4 133.64 324.79 133.64 326.88C133.64 328.97 135.07 330.36 137.02 330.36C138.06 330.36 139.01 329.95 139.62 329.05L140.52 329.66C139.81 330.82 138.53 331.43 137.02 331.43C134.35 331.43 132.41 329.54 132.41 326.87V326.89Z" fill="white"/>
<path d="M150.51 327.27H143.03C143.17 329.14 144.59 330.38 146.55 330.38C147.64 330.38 148.61 329.99 149.29 329.21L149.97 329.99C149.17 330.94 147.93 331.45 146.52 331.45C143.73 331.45 141.83 329.55 141.83 326.89C141.83 324.23 143.68 322.35 146.2 322.35C148.72 322.35 150.53 324.2 150.53 326.89C150.53 326.99 150.51 327.13 150.51 327.26V327.27ZM143.03 326.37H149.37C149.22 324.62 147.94 323.39 146.19 323.39C144.44 323.39 143.18 324.61 143.03 326.37Z" fill="white"/>
<path d="M162.05 326.89C162.05 329.61 160.15 331.45 157.6 331.45C156.17 331.45 154.95 330.84 154.2 329.68V334.66H152.99V322.42H154.15V324.19C154.88 323 156.12 322.35 157.6 322.35C160.15 322.35 162.05 324.19 162.05 326.89ZM160.85 326.89C160.85 324.82 159.41 323.41 157.52 323.41C155.63 323.41 154.19 324.82 154.19 326.89C154.19 328.96 155.62 330.37 157.52 330.37C159.42 330.37 160.85 328.98 160.85 326.89Z" fill="white"/>
<path d="M169.23 330.82C168.75 331.24 168.04 331.45 167.34 331.45C165.66 331.45 164.72 330.5 164.72 328.85V323.44H163.12V322.42H164.72V320.47H165.93V322.42H168.65V323.44H165.93V328.78C165.93 329.83 166.47 330.41 167.48 330.41C167.97 330.41 168.47 330.26 168.81 329.95L169.23 330.82Z" fill="white"/>
<path d="M171.15 319.6C171.15 319.14 171.54 318.75 172.03 318.75C172.52 318.75 172.91 319.12 172.91 319.58C172.91 320.07 172.54 320.46 172.03 320.46C171.52 320.46 171.15 320.07 171.15 319.59V319.6ZM171.42 322.42H172.63V331.36H171.42V322.42Z" fill="white"/>
<path d="M175.09 326.89C175.09 324.24 177.03 322.35 179.65 322.35C182.27 322.35 184.19 324.24 184.19 326.89C184.19 329.54 182.27 331.45 179.65 331.45C177.03 331.45 175.09 329.55 175.09 326.89ZM182.97 326.89C182.97 324.8 181.56 323.41 179.66 323.41C177.76 323.41 176.33 324.8 176.33 326.89C176.33 328.98 177.76 330.37 179.66 330.37C181.56 330.37 182.97 328.98 182.97 326.89Z" fill="white"/>
<path d="M194.88 326.18V331.36H193.67V326.29C193.67 324.4 192.68 323.43 190.98 323.43C189.06 323.43 187.85 324.62 187.85 326.66V331.35H186.64V322.41H187.8V324.06C188.45 322.97 189.65 322.34 191.2 322.34C193.38 322.34 194.87 323.6 194.87 326.16L194.88 326.18Z" fill="white"/>
<path d="M204.91 325.82V331.36H203.75V329.97C203.21 330.89 202.15 331.45 200.67 331.45C198.65 331.45 197.41 330.4 197.41 328.85C197.41 327.47 198.29 326.32 200.86 326.32H203.7V325.78C203.7 324.25 202.83 323.42 201.17 323.42C200.01 323.42 198.93 323.83 198.2 324.47L197.66 323.57C198.56 322.8 199.89 322.36 201.3 322.36C203.61 322.36 204.92 323.52 204.92 325.83L204.91 325.82ZM203.71 328.68V327.22H200.91C199.18 327.22 198.62 327.9 198.62 328.82C198.62 329.86 199.45 330.5 200.88 330.5C202.31 330.5 203.24 329.85 203.72 328.68H203.71Z" fill="white"/>
<path d="M208.19 318.75H209.4V331.36H208.19V318.75Z" fill="white"/>
<path d="M215.98 330.34L216.52 329.39C217.23 329.95 218.44 330.39 219.7 330.39C221.4 330.39 222.1 329.81 222.1 328.93C222.1 326.6 216.3 328.44 216.3 324.9C216.3 323.44 217.56 322.35 219.84 322.35C221 322.35 222.25 322.67 223 323.18L222.47 324.15C221.69 323.61 220.75 323.38 219.84 323.38C218.22 323.38 217.51 324.01 217.51 324.86C217.51 327.27 223.31 325.45 223.31 328.89C223.31 330.44 221.95 331.44 219.62 331.44C218.14 331.44 216.71 330.96 215.98 330.34Z" fill="white"/>
<path d="M233.32 327.27H225.84C225.98 329.14 227.4 330.38 229.36 330.38C230.45 330.38 231.42 329.99 232.1 329.21L232.78 329.99C231.98 330.94 230.74 331.45 229.33 331.45C226.54 331.45 224.64 329.55 224.64 326.89C224.64 324.23 226.49 322.35 229.01 322.35C231.53 322.35 233.34 324.2 233.34 326.89C233.34 326.99 233.32 327.13 233.32 327.26V327.27ZM225.84 326.37H232.18C232.03 324.62 230.75 323.39 229 323.39C227.25 323.39 225.99 324.61 225.84 326.37Z" fill="white"/>
<path d="M240.31 322.35V323.52C240.21 323.52 240.11 323.5 240.02 323.5C238.15 323.5 237.01 324.69 237.01 326.8V331.36H235.8V322.42H236.96V324.17C237.52 322.98 238.66 322.35 240.31 322.35Z" fill="white"/>
<path d="M250.39 322.42L246.41 331.36H245.17L241.21 322.42H242.47L245.82 330.04L249.2 322.42H250.39Z" fill="white"/>
<path d="M251.81 319.6C251.81 319.14 252.2 318.75 252.69 318.75C253.18 318.75 253.57 319.12 253.57 319.58C253.57 320.07 253.2 320.46 252.69 320.46C252.18 320.46 251.81 320.07 251.81 319.59V319.6ZM252.09 322.42H253.3V331.36H252.09V322.42Z" fill="white"/>
<path d="M255.76 326.89C255.76 324.22 257.7 322.35 260.37 322.35C261.88 322.35 263.16 322.94 263.87 324.12L262.97 324.73C262.36 323.83 261.41 323.4 260.37 323.4C258.41 323.4 256.99 324.79 256.99 326.88C256.99 328.97 258.42 330.36 260.37 330.36C261.41 330.36 262.36 329.95 262.97 329.05L263.87 329.66C263.16 330.82 261.88 331.43 260.37 331.43C257.7 331.43 255.76 329.54 255.76 326.87V326.89Z" fill="white"/>
<path d="M273.86 327.27H266.38C266.52 329.14 267.94 330.38 269.9 330.38C270.99 330.38 271.96 329.99 272.64 329.21L273.32 329.99C272.52 330.94 271.28 331.45 269.87 331.45C267.08 331.45 265.18 329.55 265.18 326.89C265.18 324.23 267.03 322.35 269.55 322.35C272.07 322.35 273.88 324.2 273.88 326.89C273.88 326.99 273.86 327.13 273.86 327.26V327.27ZM266.38 326.37H272.72C272.57 324.62 271.29 323.39 269.54 323.39C267.79 323.39 266.53 324.61 266.38 326.37Z" fill="white"/>
<path d="M282.18 321.37V322.42H284.93V323.44H282.21V331.36H281V323.44H279.4V322.42H281V321.32C281 319.72 281.95 318.67 283.7 318.67C284.36 318.67 285.04 318.86 285.49 319.23L285.08 320.13C284.74 319.84 284.26 319.69 283.75 319.69C282.71 319.69 282.17 320.27 282.17 321.37H282.18Z" fill="white"/>
<path d="M293.14 325.82V331.36H291.98V329.97C291.44 330.89 290.38 331.45 288.9 331.45C286.88 331.45 285.64 330.4 285.64 328.85C285.64 327.47 286.52 326.32 289.09 326.32H291.93V325.78C291.93 324.25 291.06 323.42 289.4 323.42C288.24 323.42 287.16 323.83 286.43 324.47L285.89 323.57C286.79 322.8 288.12 322.36 289.53 322.36C291.84 322.36 293.15 323.52 293.15 325.83L293.14 325.82ZM291.93 328.68V327.22H289.13C287.4 327.22 286.84 327.9 286.84 328.82C286.84 329.86 287.67 330.5 289.1 330.5C290.53 330.5 291.46 329.85 291.94 328.68H291.93Z" fill="white"/>
<path d="M295.18 330.34L295.72 329.39C296.43 329.95 297.64 330.39 298.9 330.39C300.6 330.39 301.3 329.81 301.3 328.93C301.3 326.6 295.5 328.44 295.5 324.9C295.5 323.44 296.76 322.35 299.04 322.35C300.2 322.35 301.45 322.67 302.2 323.18L301.67 324.15C300.89 323.61 299.95 323.38 299.04 323.38C297.42 323.38 296.71 324.01 296.71 324.86C296.71 327.27 302.51 325.45 302.51 328.89C302.51 330.44 301.15 331.44 298.82 331.44C297.34 331.44 295.91 330.96 295.18 330.34Z" fill="white"/>
<path d="M309.44 330.82C308.96 331.24 308.25 331.45 307.55 331.45C305.87 331.45 304.93 330.5 304.93 328.85V323.44H303.33V322.42H304.93V320.47H306.14V322.42H308.86V323.44H306.14V328.78C306.14 329.83 306.68 330.41 307.69 330.41C308.18 330.41 308.68 330.26 309.02 329.95L309.44 330.82Z" fill="white"/>
<path d="M319.1 327.27H311.62C311.76 329.14 313.18 330.38 315.14 330.38C316.23 330.38 317.2 329.99 317.88 329.21L318.56 329.99C317.76 330.94 316.52 331.45 315.11 331.45C312.32 331.45 310.42 329.55 310.42 326.89C310.42 324.23 312.27 322.35 314.79 322.35C317.31 322.35 319.12 324.2 319.12 326.89C319.12 326.99 319.1 327.13 319.1 327.26V327.27ZM311.62 326.37H317.96C317.81 324.62 316.53 323.39 314.78 323.39C313.03 323.39 311.77 324.61 311.62 326.37Z" fill="white"/>
<path d="M326.09 322.35V323.52C325.99 323.52 325.89 323.5 325.8 323.5C323.93 323.5 322.79 324.69 322.79 326.8V331.36H321.58V322.42H322.74V324.17C323.3 322.98 324.44 322.35 326.09 322.35Z" fill="white"/>
<path d="M345.97 322.42L342.59 331.36H341.45L338.63 324.03L335.81 331.36H334.67L331.3 322.42H332.46L335.26 330.02L338.13 322.42H339.17L342.03 330.02L344.87 322.42H345.97Z" fill="white"/>
<path d="M347.52 319.6C347.52 319.14 347.91 318.75 348.4 318.75C348.89 318.75 349.28 319.12 349.28 319.58C349.28 320.07 348.91 320.46 348.4 320.46C347.89 320.46 347.52 320.07 347.52 319.59V319.6ZM347.8 322.42H349.01V331.36H347.8V322.42Z" fill="white"/>
<path d="M357.08 330.82C356.6 331.24 355.89 331.45 355.19 331.45C353.51 331.45 352.57 330.5 352.57 328.85V323.44H350.97V322.42H352.57V320.47H353.78V322.42H356.5V323.44H353.78V328.78C353.78 329.83 354.32 330.41 355.33 330.41C355.82 330.41 356.32 330.26 356.66 329.95L357.08 330.82Z" fill="white"/>
<path d="M367.5 326.18V331.36H366.29V326.29C366.29 324.4 365.3 323.43 363.6 323.43C361.68 323.43 360.47 324.62 360.47 326.66V331.35H359.26V318.74H360.47V323.98C361.13 322.94 362.31 322.35 363.82 322.35C366 322.35 367.49 323.61 367.49 326.17L367.5 326.18Z" fill="white"/>
<path d="M45.5898 350.74L46.1298 349.79C46.8398 350.35 48.0498 350.79 49.3098 350.79C51.0098 350.79 51.7098 350.21 51.7098 349.33C51.7098 347 45.9098 348.84 45.9098 345.3C45.9098 343.84 47.1698 342.75 49.4498 342.75C50.6098 342.75 51.8598 343.07 52.6098 343.58L52.0798 344.55C51.2998 344.01 50.3598 343.78 49.4498 343.78C47.8298 343.78 47.1198 344.41 47.1198 345.26C47.1198 347.67 52.9198 345.85 52.9198 349.29C52.9198 350.84 51.5598 351.84 49.2298 351.84C47.7498 351.84 46.3198 351.36 45.5898 350.74Z" fill="white"/>
<path d="M62.93 347.67H55.45C55.59 349.54 57.01 350.78 58.97 350.78C60.06 350.78 61.03 350.39 61.71 349.61L62.39 350.39C61.59 351.34 60.35 351.85 58.94 351.85C56.15 351.85 54.25 349.95 54.25 347.29C54.25 344.63 56.1 342.75 58.62 342.75C61.14 342.75 62.95 344.6 62.95 347.29C62.95 347.39 62.93 347.53 62.93 347.66V347.67ZM55.45 346.77H61.79C61.64 345.02 60.36 343.79 58.61 343.79C56.86 343.79 55.6 345.01 55.45 346.77Z" fill="white"/>
<path d="M71.9097 346.22V351.76H70.7497V350.37C70.2097 351.29 69.1497 351.85 67.6697 351.85C65.6497 351.85 64.4097 350.8 64.4097 349.25C64.4097 347.87 65.2897 346.72 67.8597 346.72H70.6997V346.18C70.6997 344.65 69.8297 343.82 68.1697 343.82C67.0097 343.82 65.9297 344.23 65.1997 344.87L64.6597 343.97C65.5597 343.2 66.8897 342.76 68.2997 342.76C70.6097 342.76 71.9197 343.92 71.9197 346.23L71.9097 346.22ZM70.6997 349.08V347.62H67.8997C66.1697 347.62 65.6097 348.3 65.6097 349.22C65.6097 350.26 66.4397 350.9 67.8697 350.9C69.2997 350.9 70.2297 350.25 70.7097 349.08H70.6997Z" fill="white"/>
<path d="M89.9397 346.58V351.76H88.7297V346.69C88.7297 344.8 87.7797 343.83 86.1597 343.83C84.3197 343.83 83.1697 345.02 83.1697 347.06V351.75H81.9597V346.68C81.9597 344.79 81.0097 343.82 79.3797 343.82C77.5597 343.82 76.3897 345.009 76.3897 347.049V351.74H75.1797V342.799H76.3397V344.43C76.9697 343.36 78.1197 342.729 79.6197 342.729C81.1197 342.729 82.2497 343.36 82.7997 344.62C83.4497 343.46 84.7197 342.729 86.3397 342.729C88.5197 342.729 89.9397 343.989 89.9397 346.549V346.58Z" fill="white"/>
<path d="M93.2197 339.15H94.4297V351.76H93.2197V339.15Z" fill="white"/>
<path d="M105.58 347.67H98.0999C98.2399 349.54 99.6599 350.78 101.62 350.78C102.71 350.78 103.68 350.39 104.36 349.61L105.04 350.39C104.24 351.34 103 351.85 101.59 351.85C98.7999 351.85 96.8999 349.95 96.8999 347.29C96.8999 344.63 98.7499 342.75 101.27 342.75C103.79 342.75 105.6 344.6 105.6 347.29C105.6 347.39 105.58 347.53 105.58 347.66V347.67ZM98.0999 346.77H104.44C104.29 345.02 103.01 343.79 101.26 343.79C99.5099 343.79 98.2499 345.01 98.0999 346.77Z" fill="white"/>
<path d="M106.82 350.74L107.36 349.79C108.07 350.35 109.28 350.79 110.54 350.79C112.24 350.79 112.94 350.21 112.94 349.33C112.94 347 107.14 348.84 107.14 345.3C107.14 343.84 108.4 342.75 110.68 342.75C111.84 342.75 113.09 343.07 113.84 343.58L113.31 344.55C112.53 344.01 111.59 343.78 110.68 343.78C109.06 343.78 108.35 344.41 108.35 345.26C108.35 347.67 114.15 345.85 114.15 349.29C114.15 350.84 112.79 351.84 110.46 351.84C108.98 351.84 107.55 351.36 106.82 350.74Z" fill="white"/>
<path d="M115.14 350.74L115.68 349.79C116.39 350.35 117.6 350.79 118.86 350.79C120.56 350.79 121.26 350.21 121.26 349.33C121.26 347 115.46 348.84 115.46 345.3C115.46 343.84 116.72 342.75 119 342.75C120.16 342.75 121.41 343.07 122.16 343.58L121.63 344.55C120.85 344.01 119.91 343.78 119 343.78C117.38 343.78 116.67 344.41 116.67 345.26C116.67 347.67 122.47 345.85 122.47 349.29C122.47 350.84 121.11 351.84 118.78 351.84C117.3 351.84 115.87 351.36 115.14 350.74Z" fill="white"/>
<path d="M128.24 347.29C128.24 344.62 130.18 342.75 132.85 342.75C134.36 342.75 135.64 343.34 136.35 344.52L135.45 345.13C134.84 344.23 133.89 343.8 132.85 343.8C130.89 343.8 129.47 345.19 129.47 347.28C129.47 349.37 130.9 350.76 132.85 350.76C133.89 350.76 134.84 350.35 135.45 349.45L136.35 350.06C135.64 351.22 134.36 351.83 132.85 351.83C130.18 351.83 128.24 349.94 128.24 347.27V347.29Z" fill="white"/>
<path d="M146.81 346.58V351.76H145.6V346.69C145.6 344.8 144.61 343.83 142.91 343.83C140.99 343.83 139.78 345.02 139.78 347.06V351.75H138.57V339.14H139.78V344.38C140.44 343.34 141.62 342.75 143.13 342.75C145.31 342.75 146.8 344.01 146.8 346.57L146.81 346.58Z" fill="white"/>
<path d="M156.84 346.22V351.76H155.68V350.37C155.14 351.29 154.08 351.85 152.6 351.85C150.58 351.85 149.34 350.8 149.34 349.25C149.34 347.87 150.22 346.72 152.79 346.72H155.63V346.18C155.63 344.65 154.76 343.82 153.1 343.82C151.94 343.82 150.86 344.23 150.13 344.87L149.59 343.97C150.49 343.2 151.82 342.76 153.23 342.76C155.54 342.76 156.85 343.92 156.85 346.23L156.84 346.22ZM155.63 349.08V347.62H152.83C151.1 347.62 150.54 348.3 150.54 349.22C150.54 350.26 151.37 350.9 152.8 350.9C154.23 350.9 155.16 350.25 155.64 349.08H155.63Z" fill="white"/>
<path d="M164.83 351.22C164.35 351.64 163.64 351.85 162.94 351.85C161.26 351.85 160.32 350.9 160.32 349.25V343.84H158.72V342.82H160.32V340.87H161.53V342.82H164.25V343.84H161.53V349.18C161.53 350.23 162.07 350.81 163.08 350.81C163.57 350.81 164.07 350.66 164.41 350.35L164.83 351.22Z" fill="white"/>
<path d="M186.23 346.58V351.76H185.02V346.69C185.02 344.8 184.07 343.83 182.45 343.83C180.61 343.83 179.46 345.02 179.46 347.06V351.75H178.25V346.68C178.25 344.79 177.3 343.82 175.67 343.82C173.85 343.82 172.68 345.009 172.68 347.049V351.74H171.47V342.799H172.63V344.43C173.26 343.36 174.41 342.729 175.91 342.729C177.41 342.729 178.54 343.36 179.09 344.62C179.74 343.46 181.01 342.729 182.63 342.729C184.81 342.729 186.23 343.989 186.23 346.549V346.58Z" fill="white"/>
<path d="M196.26 346.22V351.76H195.1V350.37C194.56 351.29 193.5 351.85 192.02 351.85C190 351.85 188.76 350.8 188.76 349.25C188.76 347.87 189.64 346.72 192.21 346.72H195.05V346.18C195.05 344.65 194.18 343.82 192.52 343.82C191.36 343.82 190.28 344.23 189.55 344.87L189.01 343.97C189.91 343.2 191.24 342.76 192.65 342.76C194.96 342.76 196.27 343.92 196.27 346.23L196.26 346.22ZM195.05 349.08V347.62H192.25C190.52 347.62 189.96 348.3 189.96 349.22C189.96 350.26 190.79 350.9 192.22 350.9C193.65 350.9 194.58 350.25 195.06 349.08H195.05Z" fill="white"/>
<path d="M207.77 346.58V351.76H206.56V346.69C206.56 344.8 205.57 343.83 203.87 343.83C201.95 343.83 200.74 345.02 200.74 347.06V351.75H199.53V342.81H200.69V344.46C201.34 343.37 202.54 342.74 204.09 342.74C206.27 342.74 207.76 344 207.76 346.56L207.77 346.58Z" fill="white"/>
<path d="M217.8 346.22V351.76H216.64V350.37C216.1 351.29 215.04 351.85 213.56 351.85C211.54 351.85 210.3 350.8 210.3 349.25C210.3 347.87 211.18 346.72 213.75 346.72H216.59V346.18C216.59 344.65 215.72 343.82 214.06 343.82C212.9 343.82 211.82 344.23 211.09 344.87L210.55 343.97C211.45 343.2 212.78 342.76 214.19 342.76C216.5 342.76 217.81 343.92 217.81 346.23L217.8 346.22ZM216.59 349.08V347.62H213.79C212.06 347.62 211.5 348.3 211.5 349.22C211.5 350.26 212.33 350.9 213.76 350.9C215.19 350.9 216.12 350.25 216.6 349.08H216.59Z" fill="white"/>
<path d="M229.39 342.82V350.669C229.39 353.749 227.88 355.14 224.92 355.14C223.29 355.14 221.69 354.65 220.76 353.76L221.37 352.84C222.22 353.6 223.51 354.06 224.89 354.06C227.15 354.06 228.19 353.02 228.19 350.81V349.669C227.44 350.809 226.17 351.4 224.71 351.4C222.16 351.4 220.22 349.609 220.22 347.049C220.22 344.489 222.16 342.729 224.71 342.729C226.21 342.729 227.5 343.34 228.25 344.51V342.789H229.41L229.39 342.82ZM228.22 347.07C228.22 345.13 226.79 343.81 224.82 343.81C222.85 343.81 221.44 345.14 221.44 347.07C221.44 349 222.85 350.349 224.82 350.349C226.79 350.349 228.22 349.01 228.22 347.07Z" fill="white"/>
<path d="M240.56 347.67H233.08C233.22 349.54 234.64 350.78 236.6 350.78C237.69 350.78 238.66 350.39 239.34 349.61L240.02 350.39C239.22 351.34 237.98 351.85 236.57 351.85C233.78 351.85 231.88 349.95 231.88 347.29C231.88 344.63 233.73 342.75 236.25 342.75C238.77 342.75 240.58 344.6 240.58 347.29C240.58 347.39 240.56 347.53 240.56 347.66V347.67ZM233.08 346.77H239.42C239.27 345.02 237.99 343.79 236.24 343.79C234.49 343.79 233.23 345.01 233.08 346.77Z" fill="white"/>
<path d="M257.8 346.58V351.76H256.59V346.69C256.59 344.8 255.64 343.83 254.02 343.83C252.18 343.83 251.03 345.02 251.03 347.06V351.75H249.82V346.68C249.82 344.79 248.87 343.82 247.24 343.82C245.42 343.82 244.25 345.009 244.25 347.049V351.74H243.04V342.799H244.2V344.43C244.83 343.36 245.98 342.729 247.48 342.729C248.98 342.729 250.11 343.36 250.66 344.62C251.31 343.46 252.58 342.729 254.2 342.729C256.38 342.729 257.8 343.989 257.8 346.549V346.58Z" fill="white"/>
<path d="M268.9 347.67H261.42C261.56 349.54 262.98 350.78 264.94 350.78C266.03 350.78 267 350.39 267.68 349.61L268.36 350.39C267.56 351.34 266.32 351.85 264.91 351.85C262.12 351.85 260.22 349.95 260.22 347.29C260.22 344.63 262.07 342.75 264.59 342.75C267.11 342.75 268.92 344.6 268.92 347.29C268.92 347.39 268.9 347.53 268.9 347.66V347.67ZM261.42 346.77H267.76C267.61 345.02 266.33 343.79 264.58 343.79C262.83 343.79 261.57 345.01 261.42 346.77Z" fill="white"/>
<path d="M279.61 346.58V351.76H278.4V346.69C278.4 344.8 277.41 343.83 275.71 343.83C273.79 343.83 272.58 345.02 272.58 347.06V351.75H271.37V342.81H272.53V344.46C273.18 343.37 274.38 342.74 275.93 342.74C278.11 342.74 279.6 344 279.6 346.56L279.61 346.58Z" fill="white"/>
<path d="M287.6 351.22C287.12 351.64 286.41 351.85 285.71 351.85C284.03 351.85 283.09 350.9 283.09 349.25V343.84H281.49V342.82H283.09V340.87H284.3V342.82H287.02V343.84H284.3V349.18C284.3 350.23 284.84 350.81 285.85 350.81C286.34 350.81 286.84 350.66 287.18 350.35L287.6 351.22Z" fill="white"/>
<path d="M289.18 350.91C289.18 350.38 289.59 349.99 290.08 349.99C290.57 349.99 291 350.38 291 350.91C291 351.44 290.58 351.84 290.08 351.84C289.58 351.84 289.18 351.43 289.18 350.91Z" fill="white"/>
<path d="M294.31 339.98C294.31 340.27 294.24 340.47 294.09 340.95L293.36 343.3H292.54L293.13 340.85C292.76 340.73 292.5 340.43 292.5 339.98C292.5 339.44 292.89 339.06 293.4 339.06C293.91 339.06 294.3 339.47 294.3 339.98H294.31ZM297.2 339.98C297.2 340.27 297.13 340.47 296.98 340.95L296.25 343.3H295.43L296.02 340.85C295.65 340.73 295.39 340.43 295.39 339.98C295.39 339.44 295.78 339.06 296.29 339.06C296.8 339.06 297.19 339.47 297.19 339.98H297.2Z" fill="white"/>
<path d="M367.99 142.74C367.81 143.66 367.48 144.45 367.04 145.14C366.6 145.83 366.02 146.39 365.29 146.82C364.57 147.24 363.67 147.47 362.61 147.47C361.55 147.47 360.67 147.26 359.96 146.82C359.25 146.4 358.64 145.83 358.18 145.14C357.74 144.45 357.42 143.66 357.21 142.74C357.01 141.82 356.91 140.89 356.91 139.95C356.91 138.98 357 138.01 357.19 137.11C357.37 136.19 357.7 135.38 358.14 134.69C358.58 133.97 359.16 133.42 359.89 132.96C360.61 132.52 361.51 132.29 362.57 132.29C363.63 132.29 364.49 132.52 365.2 132.96C365.92 133.4 366.52 134 366.98 134.71C367.44 135.43 367.76 136.26 367.97 137.16C368.18 138.08 368.27 139.01 368.27 139.95C368.27 140.89 368.18 141.82 367.99 142.74ZM374.13 135.29C373.69 133.74 373.05 132.41 372.17 131.23C371.27 130.08 370.16 129.13 368.82 128.44C367.48 127.75 365.87 127.38 364 127.38C362.52 127.38 361.18 127.68 359.96 128.26C358.74 128.84 357.72 129.78 356.94 131.05H356.85V128.03H350.66V160.04H357.17V148.8H357.26C358.03 149.93 359.08 150.84 360.31 151.43C361.56 152.03 362.9 152.33 364.37 152.33C366.1 152.33 367.62 151.98 368.94 151.31C370.21 150.66 371.32 149.74 372.19 148.61C373.07 147.48 373.71 146.19 374.13 144.71C374.57 143.23 374.78 141.71 374.78 140.12C374.78 138.44 374.57 136.82 374.13 135.27V135.29ZM342.03 142.74C341.85 143.66 341.52 144.45 341.08 145.14C340.64 145.83 340.06 146.39 339.33 146.82C338.61 147.24 337.71 147.47 336.65 147.47C335.59 147.47 334.73 147.26 334 146.82C333.29 146.4 332.68 145.83 332.22 145.14C331.78 144.45 331.46 143.66 331.25 142.74C331.05 141.82 330.95 140.89 330.95 139.95C330.95 138.98 331.04 138.01 331.23 137.11C331.42 136.19 331.74 135.38 332.18 134.69C332.62 133.97 333.2 133.42 333.93 132.96C334.65 132.52 335.55 132.29 336.61 132.29C337.67 132.29 338.53 132.52 339.24 132.96C339.96 133.4 340.56 134 341.02 134.71C341.48 135.43 341.8 136.26 342.01 137.16C342.22 138.08 342.31 139.01 342.31 139.95C342.31 140.89 342.22 141.82 342.03 142.74ZM346.21 131.23C345.33 130.08 344.2 129.13 342.86 128.44C341.52 127.75 339.91 127.38 338.04 127.38C336.56 127.38 335.22 127.68 334 128.26C332.78 128.84 331.76 129.78 330.98 131.05H330.89V128.03H324.7V160.04H331.21V148.8H331.3C332.07 149.93 333.12 150.84 334.35 151.43C335.6 152.03 336.93 152.33 338.41 152.33C340.16 152.33 341.66 151.98 342.98 151.31C344.25 150.66 345.36 149.74 346.23 148.61C347.11 147.48 347.75 146.19 348.19 144.71C348.62 143.22 348.83 141.67 348.84 140.12C348.84 138.44 348.63 136.82 348.19 135.27C347.75 133.72 347.1 132.39 346.2 131.21V131.23H346.21ZM303.37 139.07L307.64 127.05H307.73L311.86 139.07H303.37ZM304.07 118.97L291.68 151.72H298.93L301.49 144.43H313.74L316.21 151.72H323.69L311.44 118.97H304.05H304.07ZM291.14 141.33C290.7 140.59 290.15 139.95 289.43 139.44C288.74 138.93 287.93 138.54 287.03 138.22C286.12 137.92 285.19 137.66 284.26 137.44C283.34 137.23 282.44 137.02 281.56 136.84C280.68 136.66 279.88 136.45 279.21 136.22C278.52 135.99 277.96 135.69 277.55 135.32C277.11 134.95 276.9 134.49 276.9 133.89C276.9 133.41 277.02 133.01 277.27 132.71C277.52 132.41 277.82 132.2 278.17 132.04C278.52 131.88 278.91 131.79 279.35 131.74C279.75 131.7 280.15 131.67 280.55 131.67C281.7 131.67 282.72 131.9 283.57 132.34C284.42 132.78 284.91 133.63 284.98 134.88H291.17C291.05 133.4 290.66 132.2 290.04 131.23C289.42 130.26 288.63 129.5 287.69 128.92C286.75 128.34 285.66 127.93 284.46 127.67C283.26 127.42 282.01 127.3 280.72 127.3C279.43 127.3 278.18 127.42 276.96 127.65C275.74 127.88 274.63 128.27 273.66 128.85C272.67 129.43 271.88 130.19 271.31 131.16C270.71 132.13 270.41 133.4 270.41 134.92C270.41 135.96 270.62 136.84 271.06 137.55C271.48 138.27 272.05 138.87 272.74 139.35C273.46 139.81 274.24 140.2 275.14 140.5C276.04 140.8 276.96 141.05 277.91 141.26C280.24 141.74 282.04 142.23 283.36 142.71C284.65 143.19 285.3 143.93 285.3 144.9C285.3 145.48 285.16 145.96 284.88 146.35C284.61 146.73 284.25 147.05 283.84 147.27C283.42 147.5 282.96 147.66 282.46 147.78C281.98 147.89 281.5 147.94 281.01 147.94C280.36 147.94 279.74 147.87 279.16 147.71C278.56 147.55 278.03 147.32 277.57 146.99C277.11 146.67 276.74 146.25 276.44 145.74C276.14 145.23 276 144.63 276 143.94H269.81C269.88 145.53 270.23 146.85 270.9 147.91C271.55 148.97 272.4 149.8 273.42 150.45C274.44 151.1 275.61 151.56 276.93 151.83C278.25 152.11 279.58 152.25 280.97 152.25C282.36 152.25 283.65 152.11 284.94 151.86C286.23 151.61 287.39 151.14 288.4 150.5C289.41 149.86 290.22 149 290.85 147.96C291.47 146.9 291.8 145.61 291.8 144.04C291.8 142.93 291.59 142.01 291.15 141.27L291.17 141.32L291.14 141.33ZM264.21 120.91H257.7V128.02H253.75V132.38H257.7V146.37C257.7 147.57 257.91 148.52 258.3 149.25C258.69 149.99 259.25 150.54 259.94 150.96C260.63 151.35 261.42 151.63 262.32 151.77C263.27 151.91 264.22 151.98 265.18 151.98C265.83 151.98 266.47 151.96 267.16 151.93C267.77 151.91 268.38 151.85 268.98 151.75V146.7C268.66 146.77 268.34 146.82 268.01 146.84C267.66 146.87 267.3 146.88 266.95 146.89C265.84 146.89 265.13 146.71 264.76 146.34C264.39 145.97 264.21 145.23 264.21 144.15V132.4H268.99V128.04H264.21V120.93V120.91ZM245.54 142.56C245.54 142.93 245.49 143.41 245.42 144.04C245.34 144.68 245.13 145.29 244.8 145.84C244.45 146.44 243.95 146.95 243.23 147.39C242.54 147.83 241.52 148.04 240.25 148.04C239.74 148.04 239.23 147.99 238.73 147.9C238.25 147.81 237.81 147.65 237.44 147.42C237.07 147.19 236.79 146.89 236.56 146.47C236.35 146.08 236.24 145.59 236.24 144.99C236.24 144.39 236.36 143.88 236.56 143.47C236.77 143.08 237.07 142.75 237.41 142.48C237.76 142.23 238.17 142.02 238.66 141.86C239.15 141.7 239.61 141.58 240.11 141.49C240.63 141.4 241.15 141.32 241.68 141.26C242.21 141.19 242.7 141.12 243.18 141.03C243.66 140.94 244.1 140.82 244.52 140.68C244.94 140.54 245.28 140.36 245.56 140.1V142.52L245.54 142.56ZM252.05 146.46V134.11C252.05 132.68 251.73 131.53 251.08 130.65C250.43 129.77 249.6 129.1 248.61 128.62C247.59 128.14 246.49 127.81 245.26 127.63C244.06 127.47 242.85 127.38 241.64 127.38C240.32 127.38 239.01 127.52 237.72 127.77C236.43 128.02 235.25 128.46 234.21 129.09C233.19 129.7 232.31 130.53 231.65 131.51C230.98 132.53 230.59 133.79 230.5 135.32H237.01C237.13 134.03 237.56 133.13 238.3 132.57C239.04 132.02 240.03 131.74 241.32 131.74C241.9 131.74 242.45 131.79 242.96 131.86C243.43 131.92 243.89 132.08 244.3 132.32C244.69 132.55 244.99 132.87 245.22 133.29C245.45 133.71 245.57 134.26 245.57 134.97C245.59 135.64 245.41 136.15 244.97 136.52C244.53 136.87 243.95 137.14 243.22 137.33C242.49 137.52 241.65 137.65 240.7 137.75C239.75 137.85 238.78 137.96 237.82 138.12C236.86 138.28 235.88 138.49 234.91 138.74C233.94 138.99 233.09 139.39 232.35 139.92C231.59 140.45 230.99 141.14 230.5 142C230.02 142.88 229.78 143.99 229.78 145.32C229.78 146.54 229.99 147.6 230.4 148.48C230.79 149.33 231.37 150.09 232.11 150.67C232.87 151.26 233.74 151.7 234.67 151.96C235.64 152.24 236.7 152.37 237.83 152.37C239.31 152.37 240.74 152.16 242.15 151.72C243.54 151.3 244.8 150.53 245.82 149.48C245.84 149.87 245.91 150.26 245.98 150.66C246.05 151.03 246.16 151.42 246.28 151.79H252.88C252.58 151.31 252.35 150.57 252.23 149.6C252.11 148.58 252.05 147.56 252.05 146.53V146.46ZM225.23 130.07C224.58 129.24 223.71 128.57 222.6 128.11C221.49 127.63 220.06 127.39 218.31 127.39C217.09 127.39 215.84 127.71 214.55 128.34C213.26 128.97 212.22 129.98 211.39 131.34H211.25V118.99H204.74V151.74H211.25V139.3C211.25 136.88 211.64 135.15 212.45 134.08C213.23 133.02 214.53 132.51 216.3 132.51C217.85 132.51 218.95 132.99 219.55 133.96C220.15 134.93 220.47 136.38 220.47 138.34V151.73H226.98V137.14C226.98 135.66 226.84 134.32 226.59 133.12C226.34 131.92 225.87 130.88 225.23 130.05V130.07ZM190.82 141.56H190.73L185.15 118.99H178.41L172.73 141.28H172.64L167.45 118.99H160.25L168.93 151.74H176.22L181.67 129.45H181.76L187.3 151.74H194.45L198.37 137.2L203.26 118.99H196.2L190.82 141.56Z" fill="#FEFEFE"/>
<path d="M99.1998 171.45C91.2398 171.45 83.8098 169.05 77.5998 164.97L62.5098 169.79L67.3998 155.2C62.6898 148.74 59.9198 140.78 59.9198 132.19C59.9198 110.54 77.5298 92.9297 99.1798 92.9297C120.83 92.9297 138.44 110.54 138.44 132.19C138.44 153.84 120.83 171.45 99.1798 171.45H99.1998ZM99.1998 85.5098C73.4198 85.5098 52.5098 106.42 52.5098 132.2C52.5098 141.02 54.9598 149.28 59.1998 156.32L50.7798 181.36L76.6298 173.08C83.5398 176.9 91.3098 178.9 99.1998 178.9C124.98 178.9 145.89 157.99 145.89 132.21C145.89 106.43 124.98 85.5198 99.1998 85.5198V85.5098Z" fill="#FEFEFE"/>
<path d="M99.1999 92.9395C77.5499 92.9395 59.9399 110.549 59.9399 132.199C59.9399 140.789 62.7099 148.749 67.4199 155.209L62.5299 169.799L77.6199 164.979C83.8299 169.089 91.2399 171.459 99.2199 171.459C120.87 171.459 138.48 153.849 138.48 132.199C138.48 110.549 120.87 92.9395 99.2199 92.9395H99.1999Z" fill="#25D366"/>
<path d="M88.2396 112.88C87.4796 111.06 86.8996 110.99 85.7496 110.94C85.3096 110.91 84.8696 110.9 84.4296 110.89C82.9296 110.89 81.3597 111.33 80.4097 112.3C79.2597 113.48 76.3896 116.22 76.3896 121.85C76.3896 127.48 80.4997 132.93 81.0497 133.69C81.6297 134.45 89.0596 146.17 100.6 150.95C109.62 154.69 112.3 154.34 114.35 153.9C117.35 153.25 121.11 151.04 122.06 148.36C123.01 145.68 123.01 143.4 122.73 142.91C122.45 142.43 121.69 142.15 120.54 141.57C119.39 140.99 113.78 138.22 112.72 137.85C111.68 137.46 110.69 137.6 109.9 138.7C108.79 140.25 107.71 141.82 106.83 142.76C106.14 143.5 105.01 143.59 104.06 143.2C102.79 142.67 99.2396 141.42 94.8496 137.52C91.4596 134.5 89.1497 130.74 88.4797 129.61C87.8097 128.46 88.4097 127.79 88.9397 127.16C89.5197 126.44 90.0697 125.94 90.6497 125.27C91.2297 124.6 91.5496 124.25 91.9196 123.47C92.3096 122.71 92.0397 121.92 91.7597 121.35C91.4797 120.78 89.1797 115.14 88.2297 112.86L88.2396 112.88Z" fill="#FEFEFE"/>
</svg>
