<svg width="24" height="24" viewBox="0 0 24 24" fill="none" xmlns="http://www.w3.org/2000/svg">
<path d="M12.2672 5.19231C13.2656 5.19231 14.5172 4.50572 15.2625 3.59027C15.9375 2.76065 16.4297 1.60203 16.4297 0.443421C16.4297 0.286078 16.4156 0.128735 16.3875 0C15.2766 0.0429116 13.9406 0.758106 13.1391 1.71647C12.5063 2.44596 11.9297 3.59027 11.9297 4.76319C11.9297 4.93484 11.9578 5.10648 11.9719 5.1637C12.0422 5.178 12.1547 5.19231 12.2672 5.19231ZM8.75156 22.5C10.1156 22.5 10.7203 21.5702 12.4219 21.5702C14.1516 21.5702 14.5312 22.4714 16.05 22.4714C17.5406 22.4714 18.5391 21.0696 19.4813 19.6964C20.5359 18.123 20.9719 16.5782 21 16.5067C20.9016 16.4781 18.0469 15.2908 18.0469 11.958C18.0469 9.06866 20.2969 7.76701 20.4234 7.66688C18.9328 5.49269 16.6687 5.43547 16.05 5.43547C14.3766 5.43547 13.0125 6.46535 12.1547 6.46535C11.2266 6.46535 10.0031 5.49269 8.55469 5.49269C5.79844 5.49269 3 7.80992 3 12.1869C3 14.9046 4.04062 17.7797 5.32031 19.6392C6.41719 21.2127 7.37344 22.5 8.75156 22.5Z" fill="white"/>
</svg>
