<svg width="21" height="20" viewBox="0 0 21 20" fill="none" xmlns="http://www.w3.org/2000/svg">
<path fill-rule="evenodd" clip-rule="evenodd" d="M14.8588 3.38292C14.8588 4.16288 14.3938 4.78686 13.696 5.02085V5.87882H16.8743V17.5003H15.7116V7.04877H4.70381V17.5003H3.54102V5.87882H12.6108V5.02085C11.9131 4.78686 11.448 4.16288 11.448 3.38292C11.448 2.44696 12.2232 1.66699 13.1534 1.66699C14.0837 1.66699 14.8588 2.44696 14.8588 3.38292ZM12.6108 3.46092C12.6108 3.7729 12.8433 4.00689 13.1534 4.00689C13.4635 4.00689 13.696 3.69491 13.696 3.46092C13.696 3.14893 13.4635 2.91494 13.1534 2.91494C12.8433 2.91494 12.6108 3.14893 12.6108 3.46092Z" fill="#3399FF"/>
<path d="M7.17916 13.9121C7.64428 14.692 8.57449 15.394 10.2799 15.394C11.9853 15.394 12.9156 14.692 13.3807 13.9121H14.6986C13.9233 15.628 12.373 16.5639 10.2799 16.5639C8.18691 16.5639 6.63652 15.628 5.86133 13.9121H7.17916Z" fill="#3399FF"/>
<path d="M9.27527 10.9482C9.27527 9.7783 8.96519 9.1543 8.26752 9.1543C7.56984 9.1543 7.25977 9.7783 7.25977 10.9482C7.25977 12.0402 7.56984 12.6641 8.26752 12.6641C8.96519 12.6641 9.27527 12.0402 9.27527 10.9482Z" fill="#3399FF"/>
<path d="M12.1425 9.1543C12.8402 9.1543 13.1503 9.7783 13.1503 10.9482C13.1503 12.0402 12.8402 12.6641 12.1425 12.6641C11.4448 12.6641 11.1348 12.0402 11.1348 10.9482C11.1348 9.7783 11.4448 9.1543 12.1425 9.1543Z" fill="#3399FF"/>
</svg>
