<svg width="177" height="180" viewBox="0 0 177 180" fill="none" xmlns="http://www.w3.org/2000/svg">
<g clip-path="url(#clip0_1_1105)">
<g clip-path="url(#clip1_1_1105)">
<path d="M111.555 50.2611C111.555 50.2611 110.07 76.5027 114.426 74.8193C118.782 73.1365 161.74 22.8857 161.74 22.8857L116.471 41.0139" fill="#FF00FF"/>
<mask id="mask0_1_1105" style="mask-type:alpha" maskUnits="userSpaceOnUse" x="88" y="21" width="79" height="44">
<path d="M88.3991 39.2581C90.2477 40.5521 114.256 52.0721 117.435 51.0356C120.614 49.9998 158.883 25.2751 159.263 25.2751C159.643 25.2751 122.318 54.5312 124.166 54.9188C126.014 55.3063 154.124 66.1774 156.501 64.4978C158.877 62.8189 168.907 22.9505 166.134 21.6553C166.134 21.6553 86.5512 37.9642 88.3991 39.2581Z" fill="#3B42C2"/>
</mask>
<g mask="url(#mask0_1_1105)">
<path d="M149.59 61.0186H123.99V86.6823H149.59V61.0186Z" fill="#3B42C2"/>
<path d="M175.187 35.3571H149.587V61.0203H175.187V35.3571ZM149.589 9.69336H123.989V35.3571H149.589V9.69336ZM123.989 35.3571H98.388V61.0203H123.988L123.989 35.3571ZM98.3886 9.69336H72.7888V35.3571H98.3886V9.69336Z" fill="#3B42C2"/>
<path d="M98.3886 61.0183H72.7888V86.6821H98.3886V61.0183Z" fill="#3B42C2"/>
<path d="M175.189 61.0183H149.589V86.6821H175.189V61.0183ZM123.99 61.0183H98.3896V86.6821H123.99V61.0183ZM175.189 9.69336H149.589V35.3571H175.189V9.69336Z" fill="#94D8E0"/>
<path d="M149.589 35.3571H123.989V61.0203H149.589V35.3571ZM123.988 9.69336H98.388V35.3571H123.989L123.988 9.69336ZM98.3886 35.3571H72.7888V61.0203H98.3886V35.3571Z" fill="#94D8E0"/>
</g>
<path d="M41.4872 122.761C41.4872 122.761 38.9491 167.648 46.3978 164.768C53.8472 161.888 127.327 75.9375 127.327 75.9375L49.8963 106.93" fill="#FF00FF"/>
<mask id="mask1_1_1105" style="mask-type:alpha" maskUnits="userSpaceOnUse" x="1" y="73" width="135" height="75">
<path d="M1.88587 103.942C5.04567 106.156 46.1301 125.858 51.5487 124.09C56.9674 122.32 122.434 80.0332 123.11 80.0332C123.787 80.0332 59.9029 130.066 63.0627 130.73C66.2231 131.394 114.308 149.992 118.378 147.114C122.449 144.236 139.598 76.0469 134.856 73.8389C134.856 73.8389 -1.27393 101.735 1.89354 103.948" fill="#3B42C2"/>
</mask>
<g mask="url(#mask1_1_1105)">
<path d="M123.753 137.948H98.1531V163.611H123.753V137.948ZM72.5539 137.948H46.9541V163.611H72.5539V137.948ZM123.753 86.623H98.1531V112.286H123.753V86.623Z" fill="#3B42C2"/>
<path d="M98.1544 112.284H72.5546V137.948H98.1544V112.284ZM72.5539 86.623H46.9541V112.286H72.5539V86.623Z" fill="#3B42C2"/>
<path d="M46.954 112.284H21.3535V137.948H46.954V112.284ZM46.954 60.96H21.3535V86.6231H46.954V60.96ZM98.1523 60.96H72.5525V86.6231H98.1523V60.96ZM149.35 112.284H123.75V137.948H149.35V112.284ZM149.35 60.96H123.75V86.6231H149.35V60.96Z" fill="#3B42C2"/>
<path d="M21.3525 86.623H-4.24731V112.286H21.3525V86.623ZM21.3525 137.948H-4.24731V163.611H21.3525V137.948Z" fill="#3B42C2"/>
<path d="M98.1523 137.948H72.5525V163.611H98.1523V137.948ZM123.751 112.284H98.1511V137.948H123.751V112.284ZM46.954 137.948H21.3535V163.611H46.954V137.948ZM123.751 60.96H98.1511V86.6231H123.751V60.96ZM72.5519 60.96H46.9521V86.6231H72.5519V60.96Z" fill="#94D8E0"/>
<path d="M98.1544 86.623H72.5546V112.286H98.1544V86.623ZM72.5539 112.284H46.9541V137.948H72.5539V112.284Z" fill="#94D8E0"/>
<path d="M46.9523 86.6231H21.3519V112.286H46.9523V86.6231ZM149.348 137.948H123.749V163.611H149.348V137.948ZM149.348 86.6231H123.749V112.286H149.348V86.6231ZM21.3525 60.96H-4.24731V86.6231H21.3519L21.3525 60.96Z" fill="#94D8E0"/>
<path d="M21.3525 112.284H-4.24731V137.948H21.3525V112.284Z" fill="#94D8E0"/>
</g>
<path d="M149.457 16.7468C149.457 16.7468 152.913 16.0575 153.858 19.0656C154.836 22.1814 154.102 24.4195 153.369 24.4195C150.679 24.4195 153.051 25.8294 153.051 25.8294C153.051 25.8294 156.06 27.8216 159.727 24.9441C163.395 22.0667 166.331 17.9908 167.806 18.2348C169.282 18.4795 165.312 24.1851 161.401 27.0619C157.49 29.9399 156.315 30.02 156.315 30.02C156.315 30.02 156.315 37.4199 158.148 37.4199C159.98 37.4199 164.739 37.4199 165.54 37.899C166.34 38.3782 173.418 54.4449 170.742 54.4449C168.064 54.4449 164.618 42.2101 162.673 42.2101H156.794C158.138 42.2101 162.663 43.6488 163.395 48.6843C164.127 53.7198 167.666 61.1523 165.53 61.3932C163.395 61.6334 160.462 50.8424 158.138 48.6843C155.815 46.5256 150.193 47.7298 150.193 44.8473C150.193 41.9634 147.257 33.5771 147.257 33.5771C147.257 33.5771 148.385 47.3903 148.628 48.5888C148.872 49.7867 143.59 54.199 144.569 51.3215C145.548 48.4434 145.85 49.1628 145.605 46.2854C145.36 43.4079 143.695 30.4473 144.953 29.0431C146.4 27.4212 149.082 27.3655 149.082 25.6866C149.082 24.007 146.073 26.0184 146.073 24.8205C146.073 23.622 146.073 17.3169 149.457 16.7468Z" fill="#FF00FF"/>
<path d="M151.78 46.5154L156.331 47.5287L157.869 54.625C157.869 54.625 161.705 54.625 165.633 50.5702C169.561 46.5154 169.976 42.661 169.976 42.661L167.662 36.9837H155.493M164.614 58.5203L163.63 61.4887C163.208 62.7634 163.772 62.7294 163.772 62.7294L170.265 65.6524C170.265 65.6524 170.244 63.7275 168.491 61.6744C166.738 59.6208 165.99 58.9584 165.99 58.9584M169.992 51.9653L169.007 54.9318C168.586 56.2065 169.15 56.1745 169.15 56.1745L175.645 59.0955C175.645 59.0955 175.624 57.1706 173.869 55.1188C172.114 53.0677 171.367 52.4022 171.367 52.4022M166.264 19.6646C166.264 19.6646 165.527 16.007 166.131 16.039C166.736 16.0717 166.584 16.6706 166.892 16.6924C167.2 16.7129 167.082 14.843 168.81 14.4478C171.163 13.9117 167.776 19.762 167.776 19.762M65.8401 58.4376C65.8401 58.4376 61.6209 50.2556 66.9405 49.0591C72.2607 47.8625 73.9751 53.324 73.2415 58.2186C72.5073 63.1125 71.0722 59.6169 71.0722 61.8288C71.0722 64.0401 71.5265 63.2252 76.1125 63.2252C80.6985 63.2252 85.8335 70.4099 87.8507 70.4099C89.868 70.4099 93.5071 65.2213 95.1876 65.2213C96.8688 65.2213 91.1492 74.4801 89.1306 74.4801C87.1114 74.4801 76.9317 69.4003 76.9317 70.4003C76.9317 71.4002 78.6717 90.6275 78.6717 90.6275L75.0039 90.4571C75.0039 90.4571 79.4033 115.283 81.0653 115.682C82.7267 116.081 86.0181 114.783 86.0181 116.38C86.0181 117.977 82.4187 120.866 79.9075 120.866H74.485L74.2703 117.577H70.4255L67.1251 93.2282L59.0598 111.259C59.0598 111.259 63.1647 110.86 60.1608 113.254C57.1569 115.649 52.5313 116.17 51.1677 115.573C49.8047 114.976 51.0935 113.653 51.0935 113.653L52.2725 110.263L49.3389 109.864L60.6113 88.9172L59.2368 88.8602L61.0944 71.4495C61.0944 71.4495 52.9191 90.4821 50.5274 87.9102C48.7459 86.002 58.9077 63.2272 60.6324 63.2272C62.357 63.2272 67.3098 64.1374 65.842 58.4376" fill="#FF00FF"/>
</g>
</g>
<defs>
<clipPath id="clip0_1_1105">
<rect width="177" height="180" fill="white"/>
</clipPath>
<clipPath id="clip1_1_1105">
<rect width="177" height="180" fill="white"/>
</clipPath>
</defs>
</svg>
