<svg width="136" height="180" viewBox="0 0 136 180" fill="none" xmlns="http://www.w3.org/2000/svg">
<g clip-path="url(#clip0_1_513)">
<g clip-path="url(#clip1_1_513)">
<mask id="mask0_1_513" style="mask-type:luminance" maskUnits="userSpaceOnUse" x="0" y="0" width="136" height="180">
<path d="M0.558594 0.320312H135.92V179.68H0.558594V0.320312Z" fill="white"/>
</mask>
<g mask="url(#mask0_1_513)">
<path d="M65.8827 96.621L68.5708 46.0736L77.3521 62.8341L114.898 8.96802L100.466 66.0139L133.572 51.113L106.259 81.6291L125.933 83.4669L92.957 106.474L65.8827 96.621ZM71.4134 128.084C82.0674 120.43 100.489 116.191 111.186 125.769C115.698 129.809 117.502 135.008 117.102 140.208C116.989 141.735 116.697 143.244 116.233 144.703C120.293 147.045 125.426 148.118 130.142 148.613C128.035 151.104 125.428 153.121 122.492 154.534C118.14 156.523 113.235 156.936 108.613 155.702C97.0203 165.362 74.5216 168.078 64.1543 156.115C55.9477 146.654 62.4546 134.522 71.4134 128.084Z" fill="#FC28FC"/>
<mask id="mask1_1_513" style="mask-type:alpha" maskUnits="userSpaceOnUse" x="65" y="8" width="69" height="99">
<path d="M65.8828 96.621L68.5709 46.0736L77.3521 62.8341L114.898 8.96802L100.466 66.0139L133.573 51.113L106.259 81.6291L125.934 83.4669L92.957 106.474L65.8828 96.621Z" fill="#3D38D4"/>
</mask>
<g mask="url(#mask1_1_513)">
<path d="M72.6243 52.3293H93.2056V72.9775H72.6243V52.3293ZM72.6243 93.6256H93.2056V114.274H72.6243V93.6256ZM52.043 72.9775H72.6243V93.6256H52.043V72.9775ZM93.2063 72.9775H113.788V93.6256H93.2063V72.9775Z" fill="#3C47C1"/>
<path d="M52.043 52.3293H72.6243V72.9775H52.043V52.3293ZM52.043 93.6256H72.6243V114.274H52.043V93.6256ZM93.2063 52.3293H113.788V72.9775H93.2063V52.3293ZM93.2063 93.6256H113.788V114.274H93.2063V93.6256ZM72.6243 72.9775H93.2056V93.6256H72.6243V72.9775Z" fill="#C9861E"/>
</g>
<path d="M60.3911 67.5699L30.7942 74.5617C14.0515 78.5172 3.67467 95.3399 7.61675 112.137L14.5866 141.83C18.5287 158.627 35.2975 169.037 52.0402 165.082L81.6371 158.09C98.3792 154.135 108.756 137.312 104.814 120.516L97.8448 90.8226C93.9021 74.0256 77.1338 63.615 60.3911 67.5699Z" fill="#98DAE1"/>
<mask id="mask2_1_513" style="mask-type:alpha" maskUnits="userSpaceOnUse" x="27" y="72" width="70" height="70">
<path d="M62.111 72.5188C42.8488 72.5188 27.2344 87.8662 27.2344 106.818C27.2344 125.769 42.8705 141.117 62.111 141.117C81.3515 141.117 96.9826 125.769 96.9826 106.818C96.9826 87.8662 81.3688 72.5188 62.111 72.5188ZM61.7152 126.16C55.7439 126.16 50.0543 123.368 46.9486 118.184C41.0853 108.385 45.498 95.4166 55.7829 90.3977C67.0754 84.8754 79.9749 94.1489 81.0738 105.862C82.0813 116.539 72.1042 126.16 61.7152 126.16Z" fill="#007528"/>
</mask>
<g mask="url(#mask2_1_513)">
<path d="M31.4607 52.3293H52.0421V72.9775H31.4607V52.3293ZM31.4607 93.6256H52.0421V114.274H31.4607V93.6256ZM31.4607 134.922H52.0421V155.571H31.4607V134.922ZM72.624 52.3293H93.2054V72.9775H72.624V52.3293ZM72.624 93.6256H93.2054V114.274H72.624V93.6256ZM72.624 134.922H93.2054V155.571H72.624V134.922ZM10.8794 72.9775H31.4607V93.6256H10.8794V72.9775ZM10.8794 114.274H31.4607V134.922H10.8794V114.274ZM52.0421 72.9775H72.624V93.6256H52.0421V72.9775ZM52.0427 114.274H72.624V134.922H52.0421L52.0427 114.274ZM93.206 72.9775H113.787V93.6256H93.206V72.9775ZM93.206 114.274H113.787V134.922H93.206V114.274Z" fill="#3C47C1"/>
<path d="M10.8794 52.3293H31.4607V72.9775H10.8794V52.3293ZM10.8794 93.6256H31.4607V114.274H10.8794V93.6256ZM10.8794 134.922H31.4607V155.571H10.8794V134.922ZM52.0427 52.3293H72.624V72.9775H52.0427V52.3293ZM52.0427 93.6256H72.624V114.274H52.0427V93.6256ZM52.0427 134.922H72.624V155.571H52.0427V134.922ZM93.206 52.3293H113.787V72.9775H93.206V52.3293ZM93.206 93.6256H113.787V114.274H93.206V93.6256ZM93.206 134.922H113.787V155.571H93.206V134.922ZM31.4607 72.9775H52.0427V93.6256H31.4607V72.9775ZM31.4607 114.274H52.0421L52.0427 134.922H31.4607V114.274ZM72.624 72.9775H93.2054V93.6256H72.624V72.9775ZM72.624 114.274H93.2054V134.922H72.624V114.274Z" fill="#C9861E"/>
</g>
<path d="M104.057 66.9525C103.963 68.2534 103.39 69.4728 102.45 70.3731C101.524 71.3226 100.292 71.9119 98.9741 72.0362C97.656 72.1605 96.3366 71.8118 95.2506 71.0521C94.1657 70.295 93.3852 69.175 93.049 67.8928C92.7132 66.612 92.8441 65.253 93.4181 64.0603C94.9728 60.484 99.4302 59.7518 102.298 62.4364C102.909 63.0099 103.383 63.7131 103.688 64.4945C103.992 65.276 104.118 66.1158 104.057 66.9525Z" fill="#98DAE1"/>
</g>
</g>
</g>
<defs>
<clipPath id="clip0_1_513">
<rect width="136" height="180" fill="white"/>
</clipPath>
<clipPath id="clip1_1_513">
<rect width="136" height="180" fill="white"/>
</clipPath>
</defs>
</svg>
