<svg width="159" height="181" viewBox="0 0 159 181" fill="none" xmlns="http://www.w3.org/2000/svg">
<path d="M154.068 90.0582C152.104 87.9113 149.434 86.542 146.545 86.2002C146.936 85.7152 147.327 85.2302 147.713 84.7397C151.924 79.4047 155.931 72.2509 152.866 66.1939C149.312 59.1779 139.275 59.2385 131.714 61.399C128.84 62.2248 126.013 63.2091 123.248 64.3476C125.921 56.1687 125.96 46.9206 119.87 41.2769C112.705 34.6302 101.076 36.7631 92.3624 41.2108L91.5136 41.6517C94.1756 34.4869 95.1952 26.0435 90.0531 20.7085C83.941 14.3208 73.2709 16.5804 65.3842 20.5596C54.8717 25.931 45.5922 33.4315 38.1361 42.5841C30.68 51.7368 25.2106 62.3411 22.0757 73.7225C20.7915 78.5119 20.031 83.9902 22.7701 88.1292C26.077 93.1501 33.5339 94.0044 39.0287 91.5408C44.5236 89.0772 48.4752 84.1445 51.9584 79.2228C55.4416 74.3012 58.7925 69.0929 63.7142 65.6152L64.8165 67.0096C61.7214 72.0991 59.3122 77.5752 57.6517 83.2957C61.9884 80.3986 66.0672 77.133 69.8429 73.5351L76.0487 81.5872C69.435 88.504 65.2629 97.686 65.0259 107.215C64.7283 120.591 72.797 134.034 85.1425 139.181C88.4088 140.539 91.8964 141.286 95.4322 141.386C99.9901 152.243 109.481 161.001 120.785 164.429C112.518 158.366 109.299 146.627 112.479 137.01H112.407L112.49 136.955V136.999C128.93 134.508 144.373 124.785 152.899 110.439C156.603 104.173 158.841 95.5586 154.068 90.0582Z" fill="#FFF100"/>
<mask id="mask0_1_704" style="mask-type:luminance" maskUnits="userSpaceOnUse" x="20" y="16" width="137" height="149">
<path d="M154.068 90.0582C152.104 87.9113 149.434 86.542 146.545 86.2002C146.936 85.7152 147.327 85.2302 147.713 84.7397C151.924 79.4047 155.931 72.2509 152.866 66.1939C149.312 59.1779 139.275 59.2385 131.714 61.399C128.84 62.2248 126.013 63.2091 123.248 64.3476C125.921 56.1687 125.96 46.9206 119.87 41.2769C112.705 34.6302 101.076 36.7631 92.3624 41.2108L91.5136 41.6517C94.1756 34.4869 95.1952 26.0435 90.0531 20.7085C83.941 14.3208 73.2709 16.5804 65.3841 20.5596C54.8716 25.931 45.5922 33.4315 38.1361 42.5841C30.68 51.7368 25.2106 62.3411 22.0757 73.7225C20.7915 78.5119 20.0309 83.9902 22.7701 88.1292C26.0769 93.1501 33.5338 94.0044 39.0287 91.5408C44.5235 89.0772 48.4752 84.1445 51.9584 79.2228C55.4416 74.3012 58.7925 69.0929 63.7142 65.6152L64.8165 67.0096C61.7213 72.0991 59.3122 77.5752 57.6517 83.2957C61.9884 80.3986 66.0672 77.133 69.8428 73.5351L76.0487 81.5872C69.435 88.504 65.2629 97.686 65.0259 107.215C64.7283 120.591 72.7969 134.034 85.1424 139.181C88.4088 140.539 91.8964 141.286 95.4322 141.386C99.9901 152.243 109.481 161.001 120.785 164.429C112.517 158.366 109.299 146.627 112.479 137.01H112.407L112.49 136.955V136.999C128.93 134.508 144.373 124.785 152.899 110.439C156.603 104.173 158.841 95.5586 154.068 90.0582Z" fill="#FFF100"/>
</mask>
<g mask="url(#mask0_1_704)">
<path d="M51.2287 35.5498H29.5469V57.2316H51.2287V35.5498Z" fill="#96DAE2"/>
<path d="M94.5959 35.5498H72.9141V57.2316H94.5959V35.5498Z" fill="#96DAE2"/>
<path d="M137.947 35.5498H116.266V57.2316H137.947V35.5498Z" fill="#96DAE2"/>
<path d="M116.276 57.2314H94.5938V78.9132H116.276V57.2314Z" fill="#96DAE2"/>
<path d="M72.9083 57.2314H51.2266V78.9132H72.9083V57.2314Z" fill="#96DAE2"/>
<path d="M51.2287 78.9141H29.5469V100.596H51.2287V78.9141Z" fill="#96DAE2"/>
<path d="M94.5959 78.9141H72.9141V100.596H94.5959V78.9141Z" fill="#96DAE2"/>
<path d="M137.947 78.9141H116.266V100.596H137.947V78.9141Z" fill="#96DAE2"/>
<path d="M116.276 100.596H94.5938V122.277H116.276V100.596Z" fill="#96DAE2"/>
<path d="M72.9083 100.596H51.2266V122.277H72.9083V100.596Z" fill="#96DAE2"/>
<path d="M51.2287 122.271H29.5469V143.953H51.2287V122.271Z" fill="#96DAE2"/>
<path d="M94.5959 122.271H72.9141V143.953H94.5959V122.271Z" fill="#96DAE2"/>
<path d="M137.947 122.271H116.266V143.953H137.947V122.271Z" fill="#96DAE2"/>
<path d="M72.9083 35.5498H51.2266V57.2316H72.9083V35.5498Z" fill="#C98F01"/>
<path d="M116.276 35.5498H94.5938V57.2316H116.276V35.5498Z" fill="#C98F01"/>
<path d="M137.947 57.2314H116.266V78.9132H137.947V57.2314Z" fill="#C98F01"/>
<path d="M94.5959 57.2314H72.9141V78.9132H94.5959V57.2314Z" fill="#C98F01"/>
<path d="M51.2287 57.2314H29.5469V78.9132H51.2287V57.2314Z" fill="#C98F01"/>
<path d="M72.9083 78.9141H51.2266V100.596H72.9083V78.9141Z" fill="#C98F01"/>
<path d="M116.276 78.9141H94.5938V100.596H116.276V78.9141Z" fill="#C98F01"/>
<path d="M72.9083 122.271H51.2266V143.953H72.9083V122.271Z" fill="#C98F01"/>
<path d="M116.276 122.271H94.5938V143.953H116.276V122.271Z" fill="#C98F01"/>
<path d="M137.947 100.596H116.266V122.277H137.947V100.596Z" fill="#C98F01"/>
<path d="M94.5959 100.596H72.9141V122.277H94.5959V100.596Z" fill="#C98F01"/>
<path d="M51.2287 100.595H29.5469V122.276H51.2287V100.595Z" fill="#C98F01"/>
</g>
<path d="M108.675 84.9599C99.6751 72.1019 81.482 59.4036 72.7795 55.6283C66.9334 53.01 60.791 51.1112 54.4872 49.9736C50.3831 49.2201 46.2419 48.6848 42.0811 48.3698C36.0099 47.9836 29.9175 48.6435 24.0699 50.3209C19.5891 51.605 15.3343 53.3797 11.6031 56.207C4.11317 61.8452 0.348898 69.3737 0.580376 78.6935C0.789809 86.2661 3.65021 93.0672 7.67904 99.3722C10.4296 103.655 13.6926 107.586 17.3956 111.078C17.9467 111.602 17.9963 111.679 18.4262 112.054C15.3894 115.091 14.5682 120.106 15.4611 124.3C16.6846 129.999 21.6724 135.323 27.3161 136.552C27.983 136.695 29.9946 136.905 29.9395 136.321C29.9395 136.1 29.1348 135.659 28.9695 135.56C26.2689 133.984 25.0674 131.531 25.0123 128.511C24.9793 126.444 25.5635 124.62 27.294 123.209C29.1348 121.693 31.152 122.107 33.1251 123.209C34.2274 123.837 35.3296 124.477 36.4319 125.077C44.1925 129.286 52.5032 132.39 61.1229 134.298C66.1685 135.403 71.3084 136.023 76.4721 136.15C81.4769 136.321 86.482 135.819 91.3529 134.656C98.5177 132.892 104.966 129.839 110.092 124.289C114.501 119.511 116.452 113.818 116.678 107.513C116.953 100.144 112.831 90.8957 108.675 84.9599Z" fill="#007232"/>
<path d="M76.7191 130.693C100.053 130.693 118.969 111.777 118.969 88.4437C118.969 65.1095 100.053 46.1934 76.7191 46.1934C53.3849 46.1934 34.4688 65.1095 34.4688 88.4437C34.4688 111.777 53.3849 130.693 76.7191 130.693Z" fill="#00F613"/>
<path d="M96.055 101.538C96.055 101.643 96.022 101.775 96.0054 101.924C95.9312 103.136 95.5825 104.314 94.9858 105.371C94.389 106.428 93.5598 107.336 92.5608 108.025C89.254 110.351 83.2521 110.472 80.7113 109.128L80.4137 108.973C77.5643 107.485 69.5563 103.297 65.0535 96.8482C63.5875 94.7484 62.2372 92.6485 61.0467 90.6093C58.4288 86.1396 56.5605 81.9675 55.855 78.7819C54.8244 74.1468 55.4692 71.6612 55.8274 70.5148C56.1857 69.3684 57.9824 64.0224 62.1435 62.4461C62.1435 62.4461 63.5324 61.9336 64.1717 62.0714L67.7375 62.8319C68.0288 62.9691 68.2837 63.1727 68.4819 63.4263C68.68 63.68 68.8159 63.9767 68.8784 64.2925C68.9996 64.8436 69.4626 67.23 69.8925 69.4511C70.2893 71.4848 70.6586 73.3973 70.7082 73.6783V73.7169C70.8239 74.3342 71.0774 75.7672 69.909 76.7537C68.7406 77.7402 66.277 79.5976 66.277 79.5976C65.9955 79.7876 65.7912 80.0721 65.7012 80.3996C65.6113 80.7272 65.6415 81.0761 65.7865 81.3833C66.8869 84.5219 68.4032 87.4989 70.2948 90.2345C72.7915 93.6626 76.1369 96.5065 77.8895 97.5316C79.4988 98.4686 80.1271 97.9284 80.9318 97.2285L81.1523 97.0411C82.0782 96.264 84.9331 93.9051 84.9331 93.9051C85.2703 93.6227 85.6985 93.4722 86.1383 93.4813C86.5781 93.4904 86.9997 93.6586 87.325 93.9547C88.6973 94.9799 95.3441 100.161 95.3441 100.161C95.6028 100.274 95.8148 100.472 95.9442 100.723C96.0737 100.974 96.1128 101.262 96.055 101.538Z" fill="white"/>
</svg>
