<svg width="24" height="25" viewBox="0 0 24 25" fill="none" xmlns="http://www.w3.org/2000/svg">
<g clip-path="url(#clip0_317_1746)">
<path d="M23.2709 9.91885C22.3681 8.44057 21.2294 7.1201 19.8999 6.00985L22.6999 3.20985C22.882 3.02125 22.9828 2.76864 22.9806 2.50645C22.9783 2.24425 22.8731 1.99344 22.6877 1.80803C22.5023 1.62262 22.2515 1.51745 21.9893 1.51517C21.7271 1.5129 21.4745 1.61369 21.2859 1.79585L18.2409 4.84485C16.3533 3.72367 14.1953 3.13931 11.9999 3.15485C5.80888 3.15485 2.28088 7.39285 0.728883 9.91885C0.249411 10.6944 -0.00456238 11.5881 -0.00456238 12.4998C-0.00456238 13.4116 0.249411 14.3053 0.728883 15.0808C1.63164 16.5591 2.77037 17.8796 4.09988 18.9898L1.29988 21.7899C1.20437 21.8821 1.12819 21.9924 1.07578 22.1144C1.02337 22.2364 0.995787 22.3677 0.994633 22.5004C0.993479 22.6332 1.01878 22.7649 1.06906 22.8878C1.11934 23.0107 1.1936 23.1224 1.28749 23.2162C1.38138 23.3101 1.49303 23.3844 1.61593 23.4347C1.73883 23.485 1.87051 23.5103 2.00328 23.5091C2.13606 23.5079 2.26728 23.4804 2.38929 23.4279C2.51129 23.3755 2.62164 23.2994 2.71388 23.2038L5.76588 20.1518C7.65115 21.2728 9.80655 21.8582 11.9999 21.8448C18.1909 21.8448 21.7189 17.6068 23.2709 15.0808C23.7504 14.3053 24.0043 13.4116 24.0043 12.4998C24.0043 11.5881 23.7504 10.6944 23.2709 9.91885V9.91885ZM2.43288 14.0338C2.14802 13.5729 1.99713 13.0417 1.99713 12.4998C1.99713 11.958 2.14802 11.4268 2.43288 10.9658C3.76688 8.79985 6.78188 5.15485 11.9999 5.15485C13.6602 5.14555 15.2971 5.54569 16.7659 6.31985L14.7529 8.33285C13.7928 7.69545 12.6418 7.40985 11.4951 7.52449C10.3484 7.63914 9.27675 8.14699 8.46189 8.96185C7.64702 9.77671 7.13918 10.8484 7.02453 11.9951C6.90988 13.1418 7.19549 14.2928 7.83288 15.2528L5.52288 17.5628C4.29799 16.5726 3.25272 15.3788 2.43288 14.0338V14.0338ZM14.9999 12.4998C14.9999 13.2955 14.6838 14.0586 14.1212 14.6212C13.5586 15.1838 12.7955 15.4998 11.9999 15.4998C11.5544 15.4981 11.1151 15.3956 10.7149 15.1998L14.6999 11.2148C14.8956 11.615 14.9982 12.0544 14.9999 12.4998V12.4998ZM8.99988 12.4998C8.99988 11.7042 9.31595 10.9411 9.87856 10.3785C10.4412 9.81592 11.2042 9.49985 11.9999 9.49985C12.4454 9.50157 12.8847 9.60414 13.2849 9.79985L9.29988 13.7848C9.10417 13.3847 9.00161 12.9453 8.99988 12.4998ZM21.5669 14.0338C20.2329 16.1998 17.2179 19.8448 11.9999 19.8448C10.3396 19.8542 8.70265 19.454 7.23388 18.6798L9.24688 16.6668C10.207 17.3042 11.358 17.5899 12.5047 17.4752C13.6513 17.3606 14.723 16.8527 15.5379 16.0378C16.3527 15.223 16.8606 14.1513 16.9752 13.0046C17.0899 11.8579 16.8043 10.7069 16.1669 9.74685L18.4769 7.43685C19.7018 8.42713 20.747 9.6209 21.5669 10.9658C21.8517 11.4268 22.0026 11.958 22.0026 12.4998C22.0026 13.0417 21.8517 13.5729 21.5669 14.0338V14.0338Z" fill="#374957"/>
</g>
<defs>
<clipPath id="clip0_317_1746">
<rect width="24" height="24" fill="white" transform="translate(0 0.5)"/>
</clipPath>
</defs>
</svg>
