<svg width="24" height="25" viewBox="0 0 24 25" fill="none" xmlns="http://www.w3.org/2000/svg">
<g clip-path="url(#clip0_317_1746)">
<path d="M23.2709 9.91879C21.7199 7.39279 18.1919 3.15479 11.9999 3.15479C5.80788 3.15479 2.27988 7.39279 0.728883 9.91879C0.249411 10.6943 -0.00456238 11.588 -0.00456238 12.4998C-0.00456238 13.4115 0.249411 14.3053 0.728883 15.0808C2.27988 17.6068 5.80788 21.8448 11.9999 21.8448C18.1919 21.8448 21.7199 17.6068 23.2709 15.0808C23.7504 14.3053 24.0043 13.4115 24.0043 12.4998C24.0043 11.588 23.7504 10.6943 23.2709 9.91879ZM21.5659 14.0338C20.2339 16.1998 17.2189 19.8448 11.9999 19.8448C6.78088 19.8448 3.76588 16.1998 2.43388 14.0338C2.14902 13.5728 1.99813 13.0417 1.99813 12.4998C1.99813 11.9579 2.14902 11.4267 2.43388 10.9658C3.76588 8.79979 6.78088 5.15479 11.9999 5.15479C17.2189 5.15479 20.2339 8.79578 21.5659 10.9658C21.8507 11.4267 22.0016 11.9579 22.0016 12.4998C22.0016 13.0417 21.8507 13.5728 21.5659 14.0338Z" fill="#374957"/>
<path d="M11.9998 7.49976C11.0109 7.49976 10.0442 7.793 9.22194 8.34241C8.39969 8.89181 7.75883 9.67271 7.38039 10.5863C7.00195 11.5 6.90294 12.5053 7.09586 13.4752C7.28879 14.4451 7.76499 15.336 8.46425 16.0353C9.16352 16.7346 10.0544 17.2108 11.0243 17.4037C11.9942 17.5966 12.9996 17.4976 13.9132 17.1192C14.8268 16.7407 15.6077 16.0999 16.1571 15.2776C16.7065 14.4554 16.9998 13.4887 16.9998 12.4998C16.9982 11.1742 16.4709 9.90331 15.5336 8.96598C14.5962 8.02864 13.3254 7.50134 11.9998 7.49976ZM11.9998 15.4998C11.4064 15.4998 10.8264 15.3238 10.3331 14.9942C9.83973 14.6645 9.45521 14.196 9.22815 13.6478C9.00109 13.0996 8.94168 12.4964 9.05743 11.9145C9.17319 11.3325 9.45891 10.798 9.87847 10.3784C10.298 9.95888 10.8326 9.67316 11.4145 9.5574C11.9965 9.44164 12.5997 9.50105 13.1478 9.72812C13.696 9.95518 14.1646 10.3397 14.4942 10.833C14.8238 11.3264 14.9998 11.9064 14.9998 12.4998C14.9998 13.2954 14.6837 14.0585 14.1211 14.6211C13.5585 15.1837 12.7954 15.4998 11.9998 15.4998Z" fill="#374957"/>
</g>
<defs>
<clipPath id="clip0_317_1746">
<rect width="24" height="24" fill="white" transform="translate(0 0.5)"/>
</clipPath>
</defs>
</svg>
