<svg width="66" height="66" viewBox="0 0 66 66" fill="none" xmlns="http://www.w3.org/2000/svg">
<path d="M33 66C51.2254 66 66 51.2254 66 33C66 14.7746 51.2254 0 33 0C14.7746 0 0 14.7746 0 33C0 51.2254 14.7746 66 33 66Z" fill="url(#paint0_linear_6304_148991)"/>
<path fill-rule="evenodd" clip-rule="evenodd" d="M51.8569 33.1147C51.8569 22.6377 43.4134 14.1429 32.9997 14.1429C22.586 14.1429 14.1426 22.6377 14.1426 33.1147C14.1426 42.5832 21.0374 50.4324 30.0537 51.8572V38.6H25.2643V33.1147H30.0537V28.934C30.0537 24.1796 32.8698 21.5517 37.1764 21.5517C39.2394 21.5517 41.3981 21.9225 41.3981 21.9225V26.5915H39.0193C36.6778 26.5915 35.9458 28.0536 35.9458 29.5556V33.1145H41.1752L40.3399 38.5998H35.9458V51.857C44.9619 50.4348 51.8569 42.586 51.8569 33.1147Z" fill="white"/>
<defs>
<linearGradient id="paint0_linear_6304_148991" x1="37.125" y1="75.625" x2="9.625" y2="-5.97598e-08" gradientUnits="userSpaceOnUse">
<stop offset="0.1137" stop-color="#006DFF"/>
<stop offset="1" stop-color="#00C6FF"/>
</linearGradient>
</defs>
</svg>
