<svg width="42" height="42" viewBox="0 0 42 42" fill="none" xmlns="http://www.w3.org/2000/svg">
<path d="M21 42C32.598 42 42 32.598 42 21C42 9.40202 32.598 0 21 0C9.40202 0 0 9.40202 0 21C0 32.598 9.40202 42 21 42Z" fill="url(#paint0_linear_1_331)"/>
<path fill-rule="evenodd" clip-rule="evenodd" d="M8.75 20.5234C8.75 14.2343 14.2016 9.13696 20.9265 9.13696C27.6514 9.13696 33.103 14.2343 33.103 20.5234C33.103 26.8125 27.6514 31.9099 20.9265 31.9099C19.7111 31.9099 18.537 31.7433 17.4295 31.4329L13.2739 33.7381V29.3799C10.5143 27.2931 8.75 24.1011 8.75 20.5234ZM13.6099 23.8793L16.8889 18.6328C17.481 17.6854 18.7581 17.4492 19.6499 18.1222L22.2145 20.0573C22.4452 20.2313 22.7643 20.226 22.989 20.0447L26.5529 17.1676C27.1045 16.7224 27.8568 17.3867 27.4834 17.989L24.0168 23.5806C23.4006 24.5744 22.0425 24.783 21.1565 24.0199L18.8031 21.9927C18.5749 21.7961 18.2394 21.7888 18.0028 21.975L14.5331 24.7074C13.9787 25.1441 13.2359 24.4777 13.6099 23.8793Z" fill="white"/>
<defs>
<linearGradient id="paint0_linear_1_331" x1="23.625" y1="48.125" x2="6.125" y2="-3.8029e-08" gradientUnits="userSpaceOnUse">
<stop offset="0.1137" stop-color="#006DFF"/>
<stop offset="1" stop-color="#00C6FF"/>
</linearGradient>
</defs>
</svg>
