<svg width="24" height="24" viewBox="0 0 24 24" fill="none" xmlns="http://www.w3.org/2000/svg">
<path fill-rule="evenodd" clip-rule="evenodd" d="M21.6 12.2266C21.6 11.5175 21.5364 10.8357 21.4182 10.1812H12V14.0493H17.3818C17.15 15.2993 16.4455 16.3584 15.3864 17.0675V19.5766H18.6182C20.5091 17.8357 21.6 15.2721 21.6 12.2266Z" fill="#4285F4"/>
<path fill-rule="evenodd" clip-rule="evenodd" d="M11.9992 22.0001C14.6992 22.0001 16.9629 21.1047 18.6174 19.5774L15.3856 17.0683C14.4901 17.6683 13.3447 18.0229 11.9992 18.0229C9.39469 18.0229 7.19014 16.2638 6.40378 13.9001H3.06287V16.4911C4.70832 19.7592 8.09014 22.0001 11.9992 22.0001Z" fill="#34A853"/>
<path fill-rule="evenodd" clip-rule="evenodd" d="M6.40455 13.8993C6.20455 13.2993 6.09091 12.6583 6.09091 11.9993C6.09091 11.3402 6.20455 10.6993 6.40455 10.0993V7.5083H3.06364C2.38636 8.8583 2 10.3856 2 11.9993C2 13.6129 2.38636 15.1402 3.06364 16.4902L6.40455 13.8993Z" fill="#FBBC05"/>
<path fill-rule="evenodd" clip-rule="evenodd" d="M11.9992 5.97727C13.4674 5.97727 14.7856 6.48182 15.822 7.47273L18.6901 4.60455C16.9583 2.99091 14.6947 2 11.9992 2C8.09014 2 4.70832 4.24091 3.06287 7.50909L6.40378 10.1C7.19014 7.73636 9.39469 5.97727 11.9992 5.97727Z" fill="#EA4335"/>
</svg>
