<svg width="129" height="200" viewBox="0 0 129 200" fill="none" xmlns="http://www.w3.org/2000/svg">
<mask id="mask0_1_286" style="mask-type:alpha" maskUnits="userSpaceOnUse" x="8" y="131" width="102" height="61">
<path d="M36.2538 142.442C29.6273 145.357 8.2627 160.041 8.2627 167.333C8.2627 174.045 31.7182 191.103 40.7957 191.103C52.3942 191.103 101.826 172.931 107.372 167.614C109.968 165.127 110.599 146.912 109.166 143.675C107.732 140.438 95.1984 132.417 91.8066 131.801C88.4141 131.184 44.0111 138.834 36.2538 142.442Z" fill="#012355"/>
</mask>
<g mask="url(#mask0_1_286)">
<path d="M8.2627 123.385H25.2066V142.176H8.2627V123.385ZM8.2627 160.967H25.2066V179.758H8.2627V160.967ZM42.1512 123.385H59.0951V142.176H42.1512V123.385ZM42.1512 160.967H59.0951V179.758H42.1512V160.967ZM76.039 123.385H92.983V142.176H76.039V123.385ZM76.039 160.967H92.983V179.758H76.039V160.967ZM25.2073 142.176L42.1512 142.176V160.967H25.2066L25.2073 142.176ZM25.2066 179.758H42.1512V198.549H25.2073L25.2066 179.758Z" fill="#98E891"/>
<path d="M59.0957 142.177H76.0396V160.967H59.0957V142.177ZM59.0957 179.758H76.0396V198.549H59.0957V179.758ZM92.9829 142.177H109.927V160.967H92.9829V142.177ZM92.9829 179.758H109.927V198.549H92.9829V179.758Z" fill="#98E891"/>
<path d="M25.2073 123.385H42.1512V142.176H25.2073V123.385ZM25.2073 160.967H42.1512V179.758H25.2073V160.967ZM59.0958 123.385H76.0397V142.176H59.0958V123.385ZM59.0958 160.967H76.0397V179.758H59.0958V160.967ZM92.983 123.385H109.927V142.176H92.983V123.385ZM92.983 160.967H109.927V179.758H92.983V160.967ZM42.1512 142.176L59.0951 142.176L59.0958 160.967H42.1512V142.176ZM42.1512 179.758H59.0958L59.0951 198.549H42.1512V179.758ZM8.2627 142.176H25.2066L25.2073 160.967H8.2627V142.176ZM8.2627 179.758H25.2073L25.2066 198.549H8.2627V179.758Z" fill="#BC1E5D"/>
<path d="M76.0391 142.177H92.983V160.967H76.0391V142.177ZM76.0391 179.758H92.983V198.549H76.0391V179.758Z" fill="#BC1E5D"/>
</g>
<path d="M37.5803 107.68C34.0171 111.982 33.1584 144.039 34.3014 147.535C35.4451 151.031 52.2042 163.066 56.904 163.207C61.6039 163.347 106.077 149.083 107.846 146.568C109.614 144.053 108.351 106.993 106.203 103.778C104.055 100.562 89.4371 93.0101 85.9059 92.5688C82.3748 92.1275 41.8694 102.517 37.5803 107.68Z" fill="#7B34CE"/>
<path d="M105.903 140.627C106.187 137.84 104.408 135.328 101.929 135.017C99.4504 134.707 97.2105 136.714 96.9262 139.502C96.6425 142.289 98.4216 144.801 100.9 145.111C103.379 145.422 105.619 143.414 105.903 140.627Z" fill="#BC1E5D"/>
<path d="M105.259 140.658C105.456 138.723 104.435 137.008 102.98 136.825C101.523 136.643 100.183 138.063 99.9864 139.996C99.7887 141.93 100.809 143.646 102.265 143.829C103.722 144.011 105.062 142.591 105.259 140.658ZM45.6472 116.143L47.2581 117.166C47.3436 117.218 47.4142 117.295 47.4622 117.389C47.5101 117.483 47.5335 117.59 47.5296 117.698L46.5631 143.024C46.5583 143.169 46.5044 143.308 46.4121 143.412C46.3198 143.516 46.1958 143.578 46.0644 143.585C45.9771 143.59 45.8901 143.57 45.8115 143.527L44.2006 142.708C44.1073 142.658 44.029 142.579 43.9752 142.481C43.9214 142.383 43.8945 142.269 43.8977 142.154L44.8578 116.654C44.8585 116.499 44.914 116.351 45.0123 116.241C45.1107 116.132 45.244 116.069 45.3835 116.068C45.4758 116.067 45.5668 116.093 45.6472 116.143Z" fill="#98E891"/>
<path d="M41.1931 139.289L39.9294 139.73C39.5898 139.847 39.2887 140.071 39.064 140.377C38.8392 140.682 38.7009 141.055 38.6664 141.447L38.6028 145.91C38.5693 146.297 38.6402 146.687 38.8067 147.03C38.9731 147.373 39.2276 147.654 39.5379 147.836L45.8551 151.619C46.0763 151.751 46.3199 151.829 46.5702 151.85C46.8205 151.87 47.0719 151.832 47.3081 151.738L48.4454 151.297C48.7753 151.168 49.064 150.934 49.2761 150.626C49.4881 150.317 49.6143 149.946 49.6391 149.559L49.9234 145.118C49.9524 144.715 49.8685 144.311 49.6831 143.963C49.4977 143.614 49.2199 143.337 48.8876 143.17L42.4632 139.38C42.0641 139.177 41.6124 139.145 41.1931 139.289Z" fill="#BC1E5D"/>
<path d="M39.3359 142.008L39.3988 146.169C39.3928 146.255 39.4093 146.341 39.4463 146.417C39.4833 146.492 39.5392 146.555 39.6074 146.596L45.293 150.176C45.386 150.239 45.4976 150.259 45.6036 150.232C45.7097 150.204 45.8017 150.131 45.8597 150.029C45.8984 149.962 45.9208 149.885 45.9246 149.805L46.1646 145.51C46.1713 145.418 46.1518 145.326 46.1087 145.247C46.0656 145.168 46.0012 145.105 45.9246 145.069L39.9367 141.601C39.8415 141.552 39.7329 141.544 39.6325 141.578C39.5321 141.613 39.4471 141.688 39.3943 141.789C39.3589 141.856 39.3389 141.931 39.3359 142.008Z" fill="#98E891"/>
<path d="M30.7891 74.5502C32.2519 77.4158 33.3169 80.5097 33.948 83.7274C33.981 83.9085 34.0471 84.0802 34.1421 84.232C34.2371 84.3837 34.3591 84.5124 34.5005 84.61C34.714 84.7565 34.963 84.8264 35.2136 84.8102C35.4643 84.7939 35.7042 84.6922 35.9008 84.5191C36.0974 84.3459 36.241 84.1097 36.312 83.8427C36.383 83.5756 36.378 83.2908 36.2976 83.0271C35.6057 79.5871 34.4538 76.2812 32.88 73.2192C32.7173 72.9093 32.4505 72.6834 32.1381 72.5908C31.8254 72.4991 31.4926 72.5488 31.2128 72.729C30.9331 72.9091 30.7292 73.205 30.646 73.5516C30.6049 73.7234 30.5947 73.9024 30.6161 74.0785C30.6375 74.2546 30.6899 74.4243 30.7705 74.5779L30.7891 74.5502ZM56.5127 71.2505C55.7069 75.5101 55.271 79.8454 55.2111 84.1972C55.2111 85.9345 57.6243 85.9345 57.65 84.1972C57.6976 80.0809 58.106 75.9795 58.8694 71.9509C58.9475 71.6064 58.9004 71.2416 58.7381 70.9353C58.5758 70.6289 58.3114 70.4057 58.002 70.3137C57.6926 70.2218 57.3629 70.2685 57.0843 70.4438C56.8056 70.619 56.6003 70.9088 56.5127 71.2505ZM45.9443 82.1025L46.1972 87.4199C46.2045 87.7731 46.3361 88.1091 46.564 88.3561C46.7918 88.603 47.0977 88.7412 47.4163 88.7412C47.7348 88.7412 48.0407 88.603 48.2686 88.3561C48.4964 88.1091 48.628 87.7731 48.6354 87.4199L48.3825 82.1025C48.3825 81.7438 48.254 81.3999 48.0253 81.1463C47.7967 80.8927 47.4865 80.7502 47.1631 80.7502C46.8397 80.7502 46.5295 80.8927 46.3008 81.1463C46.0722 81.3999 45.9443 81.7438 45.9443 82.1025ZM78.1334 78.3787L80.5022 85.0477C80.598 85.3874 80.8066 85.6741 81.0857 85.8497C81.3649 86.0254 81.6938 86.0768 82.0059 85.9936C82.3113 85.8863 82.5685 85.6544 82.7256 85.3449C82.8827 85.0353 82.9281 84.6712 82.8524 84.326L80.4836 77.657C80.4335 77.3842 80.309 77.135 80.1269 76.9434C79.9448 76.7518 79.714 76.6269 79.4657 76.5858C79.3008 76.5584 79.1326 76.569 78.9716 76.617C78.8106 76.665 78.6603 76.7494 78.53 76.8648C78.3323 77.0371 78.1879 77.2733 78.1168 77.5408C78.0457 77.8083 78.0515 78.0937 78.1334 78.3573V78.3787ZM101.189 86.1844L97.9487 90.2548C97.8353 90.3807 97.7455 90.5303 97.6844 90.6948C97.6232 90.8593 97.592 91.0356 97.5925 91.2135C97.5927 91.4816 97.6647 91.7435 97.7993 91.9661C97.9339 92.1888 98.125 92.3621 98.3485 92.4642C98.572 92.5664 98.8177 92.5927 99.0547 92.5398C99.2916 92.4869 99.5091 92.3573 99.6796 92.1673L102.92 88.0968C103.09 87.9068 103.206 87.6652 103.252 87.4025C103.298 87.1397 103.274 86.8676 103.181 86.6205C103.088 86.3733 102.931 86.1621 102.731 86.0136C102.53 85.8651 102.294 85.7858 102.052 85.7858C101.892 85.786 101.733 85.8214 101.585 85.8898C101.437 85.9582 101.302 86.0583 101.189 86.1844ZM36.6011 70.2207C36.0132 70.2207 40.5867 72.3224 42.7983 72.3224C45.0092 72.3224 47.3524 68.4904 47.921 62.2691C53.7453 60.7424 71.5916 49.6313 71.5916 31.0662C71.5916 12.5011 53.7453 6.09823 41.0487 9.98649C29.0453 13.657 16.361 26.4491 19.5699 45.8548C21.8887 59.8662 36.1211 63.7893 41.3266 64.4128C40.5745 67.7481 39.848 70.0456 36.6011 70.2207Z" fill="#BC1E5D"/>
<path d="M40.4807 71.2508C39.8928 71.2508 41.9902 72.4415 44.2012 72.4415C46.4121 72.4415 51.232 69.5411 51.782 63.3347C57.6185 61.7931 73.4745 51.6209 73.4745 33.0565C73.4745 14.4913 57.4105 7.57602 44.7383 11.4508C32.7227 15.1219 20.5184 27.5148 23.3609 47.6351C25.3511 61.6871 40.0064 64.833 45.0227 64.6237C45.7736 68.7148 43.6961 71.097 40.4807 71.2508Z" fill="#98E891"/>
<path d="M89.3512 19.4725C91.2907 19.1786 94.6704 19.3814 98.5172 20.439C106.098 22.5408 111.449 27.9771 114.74 35.8519C115.982 38.8161 116.672 42.0281 116.768 45.2953C116.939 49.0041 116.385 52.7102 115.143 56.1591C113.901 59.608 112.001 62.7179 109.573 65.2753C105.668 69.5448 100.595 72.2553 95.1504 72.9814C93.9631 73.1565 93.6152 73.6405 93.7166 75.0832C93.7644 76.0123 94.0939 76.8962 94.6517 77.5914C94.9649 77.9533 95.3499 78.2292 95.7761 78.3971C96.4834 78.6981 97.2227 78.8875 97.9493 79.0974C98.0629 79.1394 98.17 79.2099 98.2836 79.2654L98.4736 79.5316C98.2727 79.6305 98.0763 79.7401 97.8857 79.8611C96.4962 80.8561 98.7008 82.2711 97.0963 82.0262C91.55 81.185 89.6105 78.7615 89.1112 78.1451C88.078 76.8696 87.4173 75.2771 87.2159 73.5771C87.1781 73.2761 87.1023 72.9188 86.938 72.8768C78.2399 70.7045 70.9119 63.0689 68.4038 56.7074C65.2455 48.7629 65.3084 40.7067 69.3639 33.2874C71.1205 30.1138 76.0982 21.5109 89.3512 19.4725Z" fill="#BC1E5D"/>
<path d="M93.374 21.14C96.5485 20.8233 99.7483 21.0764 102.85 21.8895C110.43 23.9913 115.781 29.4205 119.073 37.3016C120.313 40.2642 121 43.4741 121.094 46.7386C121.274 50.4562 120.725 54.1729 119.484 57.632C118.242 61.0912 116.339 64.2104 113.905 66.7742C110 71.044 104.928 73.7549 99.4832 74.481C98.2953 74.6561 97.9417 75.1322 98.0488 76.5828C98.0959 77.5139 98.4255 78.4001 98.9839 79.0973C99.299 79.4568 99.6835 79.7329 100.108 79.903C100.81 80.2041 101.555 80.3863 102.281 80.6034C102.396 80.6511 102.509 80.7073 102.616 80.7721C102.679 80.8561 102.401 81.2269 102.219 81.36C101.56 81.839 100.821 82.1653 100.046 82.3195C99.2708 82.4736 98.4755 82.4523 97.708 82.2568C96.126 81.9514 94.6748 81.0886 93.5698 79.7964C92.4648 78.5041 91.7649 76.8513 91.5738 75.0831C91.5295 74.7892 91.4223 74.313 91.258 74.2568C89.995 73.8646 88.6999 73.2411 87.4676 72.9116C79.401 68.6098 75.2884 64.5607 72.7745 58.1998C69.6156 50.2625 70.0135 42.4162 73.7346 34.787C73.9746 34.2618 78.9145 22.94 93.374 21.14Z" fill="#98E891"/>
<mask id="mask1_1_286" style="mask-type:alpha" maskUnits="userSpaceOnUse" x="43" y="94" width="57" height="22">
<path fill-rule="evenodd" clip-rule="evenodd" d="M48.0616 110.048L44.3277 107.764C44.1886 107.681 44.0756 107.554 44.0038 107.398C43.932 107.242 43.9048 107.066 43.9259 106.893C43.9464 106.719 44.014 106.557 44.1197 106.427C44.2254 106.298 44.3642 106.207 44.5176 106.167L85.1109 94.7474C85.2797 94.7005 85.4575 94.7183 85.6166 94.7965L89.8743 96.8983C89.9833 96.9533 90.0795 97.0354 90.1553 97.1382C90.231 97.2411 90.2844 97.362 90.3111 97.4915C90.3379 97.6209 90.3374 97.7555 90.3096 97.8847C90.2818 98.0139 90.2275 98.1343 90.1509 98.2364C90.0476 98.3731 89.909 98.4713 89.7543 98.5168L48.6296 110.125C48.4384 110.181 48.235 110.153 48.0616 110.048ZM56.7284 115.078L53.0329 112.802C52.8937 112.72 52.7801 112.594 52.7073 112.439C52.6345 112.284 52.6059 112.109 52.6254 111.935C52.6453 111.762 52.7126 111.6 52.8181 111.47C52.9237 111.341 53.0625 111.25 53.2158 111.211L93.8098 99.7916C93.9779 99.7425 94.1557 99.7567 94.3155 99.8336L98.5796 101.935C98.726 102.009 98.8482 102.131 98.9294 102.285C99.0107 102.439 99.0468 102.617 99.0329 102.794C99.0191 102.972 98.9558 103.14 98.852 103.276C98.7481 103.412 98.6088 103.509 98.4531 103.554L57.297 115.162C57.1046 115.216 56.9012 115.185 56.7284 115.078Z" fill="#FF00FF"/>
</mask>
<g mask="url(#mask1_1_286)">
<path d="M42.1523 85.8037H59.0963V104.594H42.1523V85.8037ZM76.0402 85.8037H92.9841V104.594H76.0402V85.8037ZM59.0963 104.594H76.0402L76.0408 123.385H59.0969L59.0963 104.594ZM92.9841 104.594H109.928V123.385H92.9841V104.594Z" fill="#98E891"/>
<path d="M59.0969 85.803H76.0408V104.594H59.0969V85.803ZM92.9841 85.803H109.928V104.594H92.9841V85.803ZM42.1523 104.594H59.0963V123.385H42.1523V104.594ZM76.0402 104.594H92.9841V123.385H76.0402V104.594Z" fill="#BC1E5D"/>
</g>
</svg>
