<svg width="42" height="42" viewBox="0 0 42 42" fill="none" xmlns="http://www.w3.org/2000/svg">
<path d="M0 21C0 32.5979 9.40202 42 21 42C32.5979 42 42 32.5979 42 21C42 9.40202 32.5979 0 21 0C9.40202 0 0 9.40202 0 21Z" fill="#FB2690"/>
<path d="M0 21C0 32.5979 9.40202 42 21 42C32.5979 42 42 32.5979 42 21C42 9.40202 32.5979 0 21 0C9.40202 0 0 9.40202 0 21Z" fill="url(#paint0_linear_1_324)"/>
<path d="M0 21C0 32.5979 9.40202 42 21 42C32.5979 42 42 32.5979 42 21C42 9.40202 32.5979 0 21 0C9.40202 0 0 9.40202 0 21Z" fill="url(#paint1_radial_1_324)"/>
<path d="M0 21C0 32.5979 9.40202 42 21 42C32.5979 42 42 32.5979 42 21C42 9.40202 32.5979 0 21 0C9.40202 0 0 9.40202 0 21Z" fill="url(#paint2_radial_1_324)"/>
<path d="M15.5556 8.75C13.7506 8.75 12.0196 9.46701 10.7433 10.7433C9.46701 12.0196 8.75 13.7506 8.75 15.5556V26.4444C8.75 28.2494 9.46701 29.9805 10.7433 31.2568C12.0196 32.533 13.7506 33.25 15.5556 33.25H26.4444C28.2494 33.25 29.9805 32.533 31.2568 31.2568C32.533 29.9805 33.25 28.2494 33.25 26.4444V15.5556C33.25 13.7506 32.533 12.0196 31.2568 10.7433C29.9805 9.46701 28.2494 8.75 26.4444 8.75H15.5556ZM29.1667 11.4722C29.9152 11.4722 30.5277 12.0847 30.5277 12.8333C30.5277 13.5819 29.9152 14.1944 29.1667 14.1944C28.4181 14.1944 27.8056 13.5819 27.8056 12.8333C27.8056 12.0847 28.4181 11.4722 29.1667 11.4722ZM21 14.1944C22.8049 14.1944 24.536 14.9115 25.8123 16.1877C27.0886 17.464 27.8056 19.1951 27.8056 21C27.8056 22.8049 27.0886 24.536 25.8123 25.8123C24.536 27.0886 22.8049 27.8056 21 27.8056C19.1951 27.8056 17.464 27.0886 16.1877 25.8123C14.9115 24.536 14.1944 22.8049 14.1944 21C14.1944 19.1951 14.9115 17.464 16.1877 16.1877C17.464 14.9115 19.1951 14.1944 21 14.1944ZM21 16.9167C20.4636 16.9168 19.9325 17.0227 19.4369 17.2281C18.9415 17.4336 18.4912 17.7345 18.1122 18.1141C17.7329 18.4935 17.4322 18.9438 17.2271 19.4395C17.022 19.9351 16.9165 20.4663 16.9167 21.0028C16.9168 21.5392 17.0227 22.0703 17.2281 22.5657C17.4336 23.0613 17.7345 23.5114 18.1141 23.8907C18.4935 24.2699 18.9438 24.5705 19.4395 24.7756C19.9351 24.9807 20.4663 25.0862 21.0028 25.0861C22.0861 25.0857 23.1249 24.655 23.8907 23.8887C24.6565 23.1224 25.0864 22.0833 25.0861 21C25.0857 19.9167 24.655 18.8778 23.8887 18.1122C23.1224 17.3463 22.0833 16.9163 21 16.9167Z" fill="white"/>
<defs>
<linearGradient id="paint0_linear_1_324" x1="13.125" y1="-17.5" x2="22.75" y2="27.125" gradientUnits="userSpaceOnUse">
<stop offset="0.122265" stop-color="#4263DF"/>
<stop offset="1" stop-color="#D53585" stop-opacity="0"/>
</linearGradient>
<radialGradient id="paint1_radial_1_324" cx="0" cy="0" r="1" gradientUnits="userSpaceOnUse" gradientTransform="translate(1.49181e-06 51.625) rotate(-38.6798) scale(51.9887)">
<stop stop-color="#FFAD05"/>
<stop offset="1" stop-color="#FF3F00" stop-opacity="0"/>
</radialGradient>
<radialGradient id="paint2_radial_1_324" cx="0" cy="0" r="1" gradientUnits="userSpaceOnUse" gradientTransform="translate(4.375 45.5) rotate(-37.9987) scale(35.5318)">
<stop offset="0.01" stop-color="#FDDB86"/>
<stop offset="1" stop-color="#F06942" stop-opacity="0"/>
</radialGradient>
</defs>
</svg>
