<svg width="24" height="24" viewBox="0 0 24 24" fill="none" xmlns="http://www.w3.org/2000/svg">
<path d="M12 2C6.46602 2 2 6.46602 2 12C2 17.534 6.46602 22 12 22C17.534 22 22 17.534 22 12C22 6.46602 17.534 2 12 2ZM20.5437 11.3204H17.0485C16.9515 8.11651 15.9806 5.39806 14.6214 3.94175C17.8252 4.91262 20.2524 7.82524 20.5437 11.3204ZM12 20.0583C10.4466 20.0583 8.60194 17.1456 8.50485 12.7767H15.5922C15.3981 17.0485 13.5534 20.0583 12 20.0583ZM8.50485 11.3204C8.69903 6.95146 10.4466 4.03883 12 4.03883C13.5534 4.03883 15.3981 6.95146 15.4951 11.3204H8.50485ZM9.37864 3.84466C8.01942 5.39806 7.14563 8.11651 7.04854 11.3204H3.45631C3.74757 7.82524 6.17476 4.91262 9.37864 3.84466ZM3.45631 12.7767H6.95146C7.04854 15.9806 8.01942 18.699 9.37864 20.1553C6.17476 19.0874 3.74757 16.2718 3.45631 12.7767ZM14.6214 20.1553C15.9806 18.6019 16.9515 15.9806 17.0485 12.7767H20.5437C20.2524 16.2718 17.8252 19.0874 14.6214 20.1553Z" fill="#232323"/>
</svg>
