<svg width="107" height="95" viewBox="0 0 107 95" fill="none" xmlns="http://www.w3.org/2000/svg">
<g clip-path="url(#clip0_1_1013)">
<path d="M36.1777 89.0554V93.8332L54.2138 93.6085V88.2226L36.1777 89.0554ZM90.308 64.0426V54.3973C88.8466 54.3973 87.5201 54.3973 86.3944 54.4193C81.5369 54.4634 76.8143 54.622 72.2265 54.8482V64.0191H90.2626V82.092H72.2265V93.3368L90.2846 93.1121V82.092H101.89C102.003 81.506 102.093 81.011 102.16 80.6057C103.465 73.8215 104.274 70.8238 105.556 64.1322C105.556 64.0881 105.578 64.0426 105.578 64.0191H90.308V64.0426ZM85.4725 57.89C85.3157 58.7683 83.1126 59.1972 82.8634 57.912C82.6172 56.6283 83.5157 56.0423 84.0331 56.0423C85.7422 56.0423 85.5399 57.5522 85.4725 57.89Z" fill="#C28903"/>
<path d="M72.2471 64.0411H64.6692C64.1275 67.4116 63.6028 70.7849 63.095 74.1608C62.645 77.2701 62.2859 79.6583 61.9487 82.1361H72.2251V64.0411H72.2471Z" fill="#C28903"/>
<path d="M23.0884 89.6869C22.0316 89.6634 20.6597 90.4522 20.6597 91.5346C20.6597 93.0445 21.2899 94.0124 22.6384 94.0124L36.1761 93.8332V89.0554L23.0884 89.6869ZM105.599 64.0426C106.252 60.663 106.701 57.9575 106.971 56.3801C107.014 56.1545 107.007 55.9219 106.948 55.6996C106.89 55.4774 106.782 55.2712 106.633 55.0964C106.183 54.5559 105.509 54.5559 105.442 54.5559C100.397 54.4473 95.3519 54.4018 90.3064 54.4193V64.0646H105.6L105.599 64.0426ZM90.3079 93.1341L97.729 93.0445C98.3734 93.002 98.9855 92.7467 99.4698 92.3186C99.954 91.8905 100.283 91.3137 100.405 90.6783C100.877 87.8157 101.484 84.3451 101.89 82.1155H90.2859V93.1341H90.3079ZM90.2859 82.1155L90.2844 64.0426H72.2483V54.8702L67.4363 55.1405C67.0552 55.1405 66.7166 55.2991 66.4469 55.5238C66.0423 55.8837 65.9514 56.3346 65.9514 56.4491C65.5249 58.9489 65.0969 61.4957 64.6704 64.0426H72.2483V82.1155H61.9719C61.7227 83.8957 61.4985 85.7213 61.2288 87.8848L54.2122 88.2226V93.6085L72.2483 93.3823V82.1376H90.2844L90.2859 82.1155Z" fill="#BC1D5C"/>
<path d="M27.4783 20.5323V20.4647C27.4783 19.3147 26.8261 18.9548 25.8367 18.9548H25.3867V22.1773H25.8367C26.8261 22.1993 27.4783 21.7043 27.4783 20.5323ZM40.3198 20.24C40.3198 19.2706 39.6676 18.9108 38.5873 18.9108H37.6653V21.7043H38.5888C39.6221 21.7043 40.3183 21.3445 40.3183 20.262L40.3198 20.24Z" fill="#FA0CF6"/>
<path d="M42.2986 40.5675C43.9182 41.625 46.2341 41.4678 48.1689 40.8363C50.7325 40.0035 52.9136 38.5156 55.0287 36.9837C55.7249 36.4653 56.4211 35.9468 57.0954 35.4063L78.3928 50.2333L67.8906 25.6479C69.5749 23.8893 71.1951 22.0703 72.7482 20.1944C75.2223 17.1982 77.8094 13.6585 78.6405 9.80597C78.8897 8.65741 78.9776 7.44129 78.6639 6.31329C78.3942 5.32188 77.8988 4.57722 77.2685 4.06022C75.6503 2.72954 73.1087 2.77507 70.9497 3.15841C68.3641 3.60932 66.0467 4.893 63.9331 6.29125C63.1785 6.77584 62.4361 7.27929 61.7066 7.80113C62.246 5.29838 61.8869 3.31557 60.3581 2.07594C56.7597 -0.898277 49.6288 1.53544 41.7138 7.80113C41.9615 5.18675 41.4206 3.11288 40.0281 1.82919C35.4403 -2.34059 23.2731 3.63135 12.8604 15.1243C2.4257 26.6393 -2.29696 39.3499 2.26886 43.5182C5.30297 46.2897 11.7142 44.5772 18.7293 39.7318C18.3702 42.775 19.1118 44.8929 20.4618 46.1105C23.408 48.769 31.6162 44.7123 40.4327 36.7355C40.4767 38.2674 40.9721 39.6877 42.2986 40.566V40.5675ZM45.7402 22.8764V22.4034C45.7402 17.7828 48.8432 15.8455 52.8242 15.8455C56.8037 15.8455 59.9082 17.7387 59.9082 22.4034V22.8764C59.9082 27.4515 56.9165 29.4784 52.8242 29.4784C48.7303 29.5019 45.7402 27.4515 45.7402 22.8764ZM20.7315 29.1626V16.1378H26.489C29.7942 16.1378 32.0882 17.2202 32.0882 20.4412V20.4647C32.0882 23.8458 29.8162 25.0178 26.6018 25.0178H25.3867V29.1861H20.7315V29.1641V29.1626ZM38.5433 24.3642H37.6653V29.1641H33.0101V16.1378H39.5107C43.1986 16.1378 44.8842 17.2658 44.8842 19.6319C44.8842 21.7043 43.6485 22.6517 42.1872 23.057C44.0077 23.3948 44.9076 24.0029 44.9076 25.8741V29.1641H40.2289V25.739C40.2524 24.8137 39.6676 24.3642 38.5433 24.3642Z" fill="#FA0CF6"/>
<path d="M50.8 22.2889V23.0335C50.8 24.9268 51.228 26.5042 52.8462 26.5042C54.4659 26.5042 54.8939 24.9033 54.8939 23.0335V22.2889C54.8939 20.4192 54.4659 18.8417 52.8462 18.8417C51.228 18.8197 50.8 20.3971 50.8 22.2889Z" fill="#FA0CF6"/>
<path d="M25.3867 25.0164H26.6003C29.8162 25.0164 32.0881 23.8443 32.0881 20.4633V20.4427C32.0881 17.2408 29.7942 16.1378 26.4889 16.1378H20.7314V29.1627H25.3867V25.0164ZM25.3867 18.9549H25.8352C26.8246 18.9549 27.4768 19.3367 27.4768 20.4647V20.5323C27.4768 21.7044 26.826 22.1773 25.8352 22.1773H25.3867V18.9549ZM44.9516 29.1627V25.8727C44.9516 24.003 44.0516 23.3934 42.2311 23.0556C43.6925 22.6737 44.9281 21.7044 44.9281 19.6305C44.9281 17.2423 43.2425 16.1378 39.5546 16.1378H33.0555V29.1627H37.7107V24.3628H38.5873C39.7115 24.3628 40.2963 24.7917 40.2963 25.7376V29.1627H44.9516ZM38.5873 21.7264H37.6653V18.9328H38.5887C39.6675 18.9328 40.3183 19.2927 40.3183 20.2621V20.2841C40.3183 21.3666 39.6206 21.7264 38.5873 21.7264ZM52.8226 29.5005C56.9165 29.5005 59.9066 27.4501 59.9066 22.8985V22.4255C59.9066 17.7608 56.8036 15.8676 52.8226 15.8676C48.8417 15.8676 45.7387 17.8283 45.7387 22.4255V22.8985C45.7387 27.4516 48.7288 29.5005 52.8226 29.5005ZM54.8688 22.2889V23.0336C54.8688 24.9268 54.4423 26.5042 52.8226 26.5042C51.225 26.5042 50.7765 24.9033 50.7765 23.0336V22.2904C50.7765 20.4192 51.203 18.8418 52.8226 18.8418C54.4423 18.8197 54.8688 20.3972 54.8688 22.2904V22.2889Z" fill="white"/>
</g>
<defs>
<clipPath id="clip0_1_1013">
<rect width="107" height="94" fill="white" transform="translate(0 0.5)"/>
</clipPath>
</defs>
</svg>
