<svg width="158" height="180" viewBox="0 0 158 180" fill="none" xmlns="http://www.w3.org/2000/svg">
<g clip-path="url(#clip0_1_1383)">
<g clip-path="url(#clip1_1_1383)">
<g clip-path="url(#clip2_1_1383)">
<path d="M116.494 42.8548C113.852 55.5918 110.194 76.4812 109.855 79.3808C109.517 82.2811 106.975 82.8994 106.975 79.6703C106.975 76.4413 109.686 27.7161 109.357 15.408C109.018 2.80015 96.7773 4.08597 95.7511 11.5106C94.7241 18.936 90.1984 73.1919 89.8598 76.1024C89.5211 79.0121 86.8695 78.793 86.8695 76.212C86.8695 73.6301 88.8633 22.1752 88.5739 9.57754C88.2852 -3.01933 74.3304 -2.69064 73.9909 7.64449C73.7821 14.1323 70.0839 70.6304 69.5755 74.4871C69.2361 77.0689 66.5853 76.9594 66.744 73.8399C66.8841 69.9527 66.5149 30.2478 64.7909 17.9389C63.0662 5.63084 51.2147 6.34849 50.8361 17.3316C50.5365 27.0587 49.4501 84.9921 49.8388 87.8627C50.2276 90.7325 47.9851 91.6294 47.8451 88.0716C47.7058 84.1453 46.1008 70.8902 37.3693 62.9468C28.6371 55.0033 20.7027 60.3657 21.4207 63.2653C22.1388 66.1656 28.1091 80.6267 28.458 90.9516C28.8068 101.277 26.4642 122.027 41.9247 141.003C44.3384 144.026 47.2227 146.64 50.4669 148.746L48.8423 177.499C70.3681 181.14 92.3787 180.802 113.783 176.502C113.783 176.502 110.354 161.811 107.912 148.836C108.477 148.379 109.02 147.893 109.536 147.381C115.308 141.57 120.581 127.448 122.963 107.077C125.346 86.706 127.139 61.6312 128.744 47.0105C130.429 31.5328 119.076 30.3973 116.494 42.8548Z" fill="#3B42C4"/>
<path d="M135.981 136.268C145.47 131.106 158 114.801 158 95.1769C158 63.3349 122.634 40.9312 79.0047 40.9312C35.3756 40.9304 0 63.3349 0 95.1769C0 127.019 35.3662 152.832 79.0047 152.832C93.5462 152.934 107.938 149.895 121.199 143.922C127.618 152.892 138.224 154.884 148.112 152.114C141.852 148.118 136.23 142.626 135.981 136.268Z" fill="#00F6FF"/>
<mask id="mask0_1_1383" style="mask-type:alpha" maskUnits="userSpaceOnUse" x="21" y="40" width="108" height="113">
<path d="M128.206 52.153C124.183 50.0316 120.001 48.2287 115.697 46.7608C113.165 59.468 110.164 76.7394 109.855 79.3604C109.516 82.2709 106.975 82.879 106.975 79.6499C106.975 77.7959 107.872 60.9534 108.569 44.6086C103.418 43.2713 98.1785 42.3021 92.8899 41.7083C91.4648 57.8339 90.049 74.527 89.8996 76.1016C89.561 79.0121 86.9094 78.793 86.9094 76.2112C86.9094 74.7563 87.557 57.9631 88.0553 41.2598C85.0853 41.0407 82.0685 40.9312 79.0047 40.9312C76.6222 40.9312 74.2803 41.0008 71.9573 41.1307C70.9608 56.8666 69.8344 72.5243 69.5755 74.4871C69.2361 77.0689 66.5845 76.9585 66.744 73.8391C66.8238 71.4975 66.744 56.1192 66.256 41.5885C60.879 42.135 55.5488 43.0711 50.3074 44.3895C49.9585 63.7238 49.6394 86.108 49.8592 87.8618C50.2276 90.7418 48.0054 91.6293 47.8646 88.0716C47.7254 84.1445 46.1204 70.8894 37.3889 62.9467C28.6574 55.0032 20.723 60.3649 21.4403 63.2652C22.1583 66.1656 28.1287 80.6266 28.4775 90.9516C28.8264 101.277 26.4846 122.026 41.9443 141.002C44.3577 144.025 47.2421 146.64 50.4865 148.746V148.945C59.7863 151.544 69.399 152.852 79.0547 152.832C88.8288 152.858 98.5585 151.516 107.961 148.845C108.508 148.399 109.034 147.927 109.536 147.43C115.308 141.62 120.581 127.498 122.963 107.127C125.076 88.9583 126.731 67.0523 128.206 52.153Z" fill="#FF00FF"/>
</mask>
<g mask="url(#mask0_1_1383)">
<path d="M36.5692 27.3911H7.63797V56.3382H36.5692V27.3911Z" fill="#C18900"/>
<path d="M65.5012 27.3911H36.5699V56.3382H65.5012V27.3911Z" fill="#7B34CE"/>
<path d="M94.4472 27.3911H65.516V56.3382H94.4472V27.3911Z" fill="#C18900"/>
<path d="M123.378 27.3911H94.4465V56.3382H123.378V27.3911ZM36.5692 56.3539H7.63797V85.301H36.5692V56.3539Z" fill="#7B34CE"/>
<path d="M65.5012 56.354H36.5699V85.3011H65.5012V56.354Z" fill="#C18900"/>
<path d="M94.4472 56.354H65.516V85.3011H94.4472V56.354Z" fill="#7B34CE"/>
<path d="M123.378 56.354H94.4465V85.3011H123.378V56.354ZM36.5692 85.3011H7.63797V114.248H36.5692V85.3011Z" fill="#C18900"/>
<path d="M65.5012 85.3013H36.5699V114.248H65.5012V85.3013Z" fill="#7B34CE"/>
<path d="M94.4472 85.3013H65.516V114.248H94.4472V85.3013Z" fill="#C18900"/>
<path d="M123.378 85.3013H94.4465V114.248H123.378V85.3013ZM36.5692 114.264H7.63797V143.211H36.5692V114.264Z" fill="#7B34CE"/>
<path d="M65.5012 114.264H36.5699V143.211H65.5012V114.264Z" fill="#C18900"/>
<path d="M94.4472 114.264H65.516V143.211H94.4472V114.264Z" fill="#7B34CE"/>
<path d="M123.378 114.264H94.4465V143.211H123.378V114.264Z" fill="#C18900"/>
<path d="M123.396 143.213H152.327V114.266H123.396V143.213Z" fill="#7B34CE"/>
<path d="M123.396 114.267H152.327V85.3198H123.396V114.267Z" fill="#C18900"/>
<path d="M123.396 85.3041H152.327V56.3569H123.396V85.3041Z" fill="#7B34CE"/>
<path d="M123.396 56.361H152.327V27.4131H123.396V56.361ZM123.396 172.173H152.327V143.226H123.396V172.173Z" fill="#C18900"/>
<path d="M94.4637 172.173H123.395V143.226H94.4637V172.173Z" fill="#7B34CE"/>
<path d="M65.5199 172.173H94.4511V143.226H65.5199V172.173Z" fill="#C18900"/>
<path d="M36.5887 172.173H65.5207V143.226H36.5887V172.173Z" fill="#7B34CE"/>
<path d="M36.5692 143.207H7.63797V172.155H36.5692V143.207Z" fill="#C18900"/>
</g>
</g>
</g>
</g>
<defs>
<clipPath id="clip0_1_1383">
<rect width="158" height="180" fill="white"/>
</clipPath>
<clipPath id="clip1_1_1383">
<rect width="158" height="180" fill="white"/>
</clipPath>
<clipPath id="clip2_1_1383">
<rect width="158" height="180" fill="white"/>
</clipPath>
</defs>
</svg>
