<svg width="171" height="45" viewBox="0 0 171 45" fill="none" xmlns="http://www.w3.org/2000/svg">
<g clip-path="url(#clip0_6304_144941)">
<path d="M124.56 39.5611C122.106 39.3991 119.668 38.6496 117.515 37.3937L116.436 39.2168C118.874 40.6449 121.633 41.4906 124.417 41.6729C124.947 41.7083 125.466 41.7185 125.97 41.7033C130.022 41.6121 133.178 40.1435 134.787 39.2066L133.713 37.3835C132.109 38.3153 128.795 39.8397 124.555 39.5662L124.56 39.5611Z" fill="#FF5252"/>
<path d="M131.03 29.3822C132.389 29.3822 133.493 30.4812 133.493 31.8333C133.493 33.1854 132.389 34.2843 131.03 34.2843C129.67 34.2843 128.566 33.1854 128.566 31.8333C128.566 30.4812 129.67 29.3822 131.03 29.3822ZM131.03 27.23C128.474 27.23 126.402 29.2911 126.402 31.8333C126.402 34.3755 128.474 36.4366 131.03 36.4366C133.585 36.4366 135.657 34.3755 135.657 31.8333C135.657 29.2911 133.585 27.23 131.03 27.23Z" fill="#FF5252"/>
<path d="M120.187 29.3822C121.546 29.3822 122.651 30.4812 122.651 31.8333C122.651 33.1854 121.546 34.2843 120.187 34.2843C118.828 34.2843 117.723 33.1854 117.723 31.8333C117.723 30.4812 118.828 29.3822 120.187 29.3822ZM120.187 27.23C117.631 27.23 115.56 29.2911 115.56 31.8333C115.56 34.3755 117.631 36.4366 120.187 36.4366C122.742 36.4366 124.814 34.3755 124.814 31.8333C124.814 29.2911 122.742 27.23 120.187 27.23Z" fill="#FF5252"/>
<path d="M67.347 19.0919C64.5727 19.0919 62.8928 17.7955 62.8928 14.8229V10.1993H61.0195V7.27727H62.8928V4.98828H66.446V7.27727H70.2842V10.1993H66.446V14.4228C66.446 15.6027 66.894 15.9066 68.1513 15.9066H70.2842V19.0919H67.347Z" fill="#292828"/>
<path d="M76.0572 15.9117H84.0086V19.092H71.3994V15.9066L78.9843 10.4829L79.3915 10.1994H71.7558V7.27734H83.6573V10.3209C81.1223 12.1845 78.5923 14.0481 76.0572 15.9117Z" fill="#292828"/>
<path d="M85.1279 19.0919V3.29175H88.6811V11.6628H91.3842L94.4181 7.27723H98.6381L94.301 12.9845L98.5668 19.0919H94.3723L91.4096 14.8228H88.6862V19.0919H85.1279Z" fill="#292828"/>
<path d="M61.2385 30.4507C61.2385 26.9615 63.9314 24.4648 67.5558 24.4648C69.5665 24.4648 71.2464 25.1941 72.3409 26.5158L70.6101 28.1009C69.8262 27.2096 68.8488 26.7437 67.6831 26.7437C65.5043 26.7437 63.9619 28.263 63.9619 30.4456C63.9619 32.6282 65.5094 34.1475 67.6831 34.1475C68.8488 34.1475 69.8262 33.6867 70.6101 32.7751L72.3409 34.3602C71.2413 35.6971 69.5665 36.4264 67.5354 36.4264C63.9263 36.4264 61.2334 33.9297 61.2334 30.4405L61.2385 30.4507Z" fill="#292828"/>
<path d="M83.1121 31.342V36.4365H80.521V31.742C80.521 30.3038 79.8541 29.6404 78.7088 29.6404C77.4616 29.6404 76.5657 30.4 76.5657 32.0408V36.4416H73.9746V24.1711H76.5657V28.4706C77.2631 27.7768 78.2608 27.4122 79.4062 27.4122C81.5187 27.4122 83.1121 28.6377 83.1121 31.347V31.342Z" fill="#292828"/>
<path d="M93.3642 31.2256V36.2999H90.936V35.1908C90.4524 36.0011 89.5209 36.4316 88.2075 36.4316C86.1153 36.4316 84.8682 35.2719 84.8682 33.7374C84.8682 32.203 85.983 31.0737 88.7064 31.0737H90.768C90.768 29.9646 90.1012 29.3215 88.7064 29.3215C87.7596 29.3215 86.7771 29.6355 86.1306 30.1469L85.199 28.3441C86.1815 27.6503 87.6272 27.2705 89.0576 27.2705C91.7811 27.2705 93.3642 28.5264 93.3642 31.2205V31.2256ZM90.7731 33.4893V32.5777H88.9966C87.785 32.5777 87.4032 33.0234 87.4032 33.6209C87.4032 34.2641 87.953 34.6945 88.8642 34.6945C89.7296 34.6945 90.4779 34.2995 90.7782 33.4893H90.7731Z" fill="#292828"/>
<path d="M101.479 35.8745C100.95 36.2543 100.166 36.4366 99.3664 36.4366C97.2538 36.4366 96.027 35.363 96.027 33.2462V29.5899H94.6475V27.6047H96.027V25.4373H98.6181V27.6047H100.848V29.5899H98.6181V33.2107C98.6181 33.9703 99.0355 34.3856 99.7329 34.3856C100.115 34.3856 100.496 34.2691 100.782 34.0564L101.479 35.8745Z" fill="#292828"/>
<path d="M113.793 33.2765C113.793 35.2768 112.199 36.4365 109.14 36.4365H103.123V24.8599H108.809C111.716 24.8599 113.212 26.0651 113.212 27.868C113.212 29.0277 112.612 29.9189 111.665 30.4152C112.963 30.8305 113.793 31.8231 113.793 33.2765ZM105.796 26.8754V29.605H108.473C109.787 29.605 110.499 29.1441 110.499 28.2326C110.499 27.321 109.787 26.8754 108.473 26.8754H105.796ZM111.085 32.9979C111.085 32.0206 110.336 31.5597 108.941 31.5597H105.801V34.421H108.941C110.336 34.421 111.085 33.9905 111.085 32.9979Z" fill="#292828"/>
<path d="M152.536 31.342V36.4365H149.945V31.7421C149.945 30.3039 149.299 29.6405 148.25 29.6405C147.084 29.6405 146.27 30.3849 146.27 31.97V36.4365H143.679V31.7421C143.679 30.3039 143.063 29.6405 141.984 29.6405C140.838 29.6405 140.024 30.3849 140.024 31.97V36.4365H137.433V27.5388H139.912V28.5618C140.579 27.8022 141.576 27.4021 142.722 27.4021C143.969 27.4021 145.033 27.8832 145.664 28.8555C146.377 27.944 147.542 27.4021 148.886 27.4021C151.014 27.4021 152.541 28.6276 152.541 31.3369L152.536 31.342Z" fill="#292828"/>
<path d="M163.669 32.5829H156.904C157.154 33.6919 158.1 34.3705 159.465 34.3705C160.412 34.3705 161.094 34.0869 161.71 33.5096L163.089 34.9985C162.259 35.9404 161.012 36.4367 159.399 36.4367C156.309 36.4367 154.298 34.5022 154.298 31.8536C154.298 29.2051 156.344 27.2756 159.068 27.2756C161.791 27.2756 163.72 29.0278 163.72 31.8891C163.72 32.0866 163.685 32.3702 163.669 32.5829ZM156.874 31.0788H161.277C161.094 29.9546 160.249 29.2253 159.083 29.2253C157.917 29.2253 157.057 29.9343 156.874 31.0788Z" fill="#292828"/>
<path d="M171 27.4072V29.7873C170.786 29.7721 170.618 29.7519 170.42 29.7519C168.989 29.7519 168.042 30.5317 168.042 32.2333V36.4315H165.451V27.5338H167.93V28.7086C168.561 27.8477 169.625 27.4021 171.005 27.4021L171 27.4072Z" fill="#292828"/>
<path d="M46.8734 19.1627C46.3593 18.6411 45.6721 18.3474 44.9339 18.3373L42.6534 18.312C42.6381 17.7448 42.6229 17.1776 42.6127 16.6104C42.4854 15.1013 42.1545 13.2579 41.3808 11.3032C43.8802 10.0371 45.4888 8.60905 45.3055 7.11006C45.0561 5.0844 42.0069 3.9551 34.8191 3.23093C29.7337 -0.0962168 24.1036 -0.0253187 23.2993 0.0101303C22.9124 0.0253227 14.7575 0.410198 9.57025 6.36563C0.845141 9.5763 -0.183139 11.4095 0.0204808 12.9136C0.239372 14.5037 2.4741 15.5064 5.5793 16.0837L5.58949 19.2336L3.37512 19.2083C2.64209 19.1982 1.94469 19.4767 1.41528 19.9882C0.885865 20.4997 0.595707 21.1833 0.585526 21.9176L0.488807 29.9139C0.478626 30.6482 0.758603 31.3369 1.27274 31.8636C1.78688 32.3852 2.4741 32.6789 3.21222 32.6891L5.4215 32.7144L5.35532 34.2083C5.32478 37.029 7.60532 39.3535 10.4407 39.3839L12.5584 39.4092L12.5177 42.9034C12.5075 43.658 12.9147 44.3619 13.5765 44.7316C13.9074 44.919 14.279 45.0051 14.6506 45C15.0222 44.9949 15.3785 44.8886 15.6992 44.6911L20.5097 41.7235C22.7546 40.341 25.3203 39.6624 27.947 39.7738C30.8333 39.8903 34.8242 39.9764 37.4407 39.6978C38.1229 39.6269 39.7264 39.4548 40.9735 38.2495C41.956 37.2924 42.5058 36.0162 42.521 34.6438L42.5414 31.7927L44.766 31.818H44.8627C46.3389 31.7826 47.5352 30.5874 47.5505 29.1087L47.6472 21.1124C47.6574 20.3781 47.3774 19.6894 46.8632 19.1627H46.8734ZM43.193 7.34301C43.1217 7.81398 42.1393 8.55334 40.4696 9.3788C40.1081 8.72046 39.7162 8.05706 39.2326 7.40378C38.7897 6.80115 38.3214 6.24916 37.8327 5.73768C42.7043 6.48717 43.1777 7.34301 43.193 7.34301ZM23.3757 2.12188C24.3327 2.09149 32.62 1.98008 37.5171 8.64956C37.904 9.1813 38.2298 9.71303 38.5301 10.2498C34.8293 11.764 29.245 13.3744 22.943 14.1594C17.1805 14.8734 11.8304 14.762 7.9922 14.3113C8.30272 12.7414 8.8474 11.2677 9.63134 9.90547C13.8666 2.56246 22.9888 2.13707 23.3757 2.12188ZM2.12795 12.6553C2.13813 12.6047 2.39774 11.5817 7.46279 9.45983C6.71958 10.8778 6.19525 12.397 5.88982 13.9973C3.706 13.6074 2.33157 13.1111 2.13304 12.6553H2.12795ZM3.24277 30.5773C3.07478 30.5773 2.91697 30.5064 2.79989 30.3899C2.68281 30.2684 2.61663 30.1114 2.62173 29.9443L2.71844 21.9429C2.71844 21.7758 2.78971 21.6188 2.90679 21.5024C3.02387 21.391 3.1715 21.3302 3.3293 21.3251H3.35476L5.56912 21.3504L5.45713 30.6026L3.24277 30.5773ZM39.4922 36.7353C38.861 37.3481 38.0312 37.5101 37.2218 37.5962C34.7326 37.8596 30.8536 37.7785 28.0386 37.6621C24.9996 37.5405 22.0012 38.3204 19.3949 39.9308L14.6506 42.9338L14.7167 37.3278L10.4713 37.2772C8.80668 37.2569 7.46788 35.8947 7.48824 34.2387L7.55442 32.7448L7.71731 19.264L7.69695 16.7725C7.69695 16.6509 7.71222 16.5294 7.7224 16.4078C10.3695 16.7218 13.3932 16.8028 16.2592 16.737C18.8197 16.6762 21.258 16.499 23.2026 16.261C27.6772 15.709 34.5493 14.2049 39.4464 12.1843C40.1896 14.1036 40.4594 15.9115 40.5357 17.3093L40.4034 34.6236C40.3932 35.4237 40.0725 36.1783 39.4922 36.7353ZM45.4379 29.0834C45.4379 29.4278 45.1783 29.7164 44.8016 29.7063L42.5872 29.681L42.6941 20.4288L44.9085 20.4541C45.0765 20.4541 45.2343 20.525 45.3514 20.6415C45.4684 20.763 45.5295 20.92 45.5295 21.0871L45.4328 29.0834H45.4379Z" fill="#FF5252"/>
<path d="M22.7758 31.7674C20.3222 31.6054 17.8838 30.8559 15.7306 29.6L14.6514 31.4231C17.0897 32.8512 19.8488 33.6969 22.6333 33.8792C23.1627 33.9146 23.6819 33.9248 24.1859 33.9096C28.2379 33.8184 31.394 32.3498 33.0026 31.4129L31.9285 29.5898C30.325 30.5216 27.0111 32.046 22.7707 31.7725L22.7758 31.7674Z" fill="#FF5252"/>
<path d="M29.2454 21.5885C30.6046 21.5885 31.7092 22.6875 31.7092 24.0396C31.7092 25.3917 30.6046 26.4906 29.2454 26.4906C27.8863 26.4906 26.7816 25.3917 26.7816 24.0396C26.7816 22.6875 27.8863 21.5885 29.2454 21.5885ZM29.2454 19.4363C26.69 19.4363 24.6182 21.4974 24.6182 24.0396C24.6182 26.5818 26.69 28.6429 29.2454 28.6429C31.8009 28.6429 33.8727 26.5818 33.8727 24.0396C33.8727 21.4974 31.8009 19.4363 29.2454 19.4363Z" fill="#FF5252"/>
<path d="M18.4027 21.5885C19.7618 21.5885 20.8665 22.6875 20.8665 24.0396C20.8665 25.3917 19.7618 26.4906 18.4027 26.4906C17.0435 26.4906 15.9389 25.3917 15.9389 24.0396C15.9389 22.6875 17.0435 21.5885 18.4027 21.5885ZM18.4027 19.4363C15.8472 19.4363 13.7754 21.4974 13.7754 24.0396C13.7754 26.5818 15.8472 28.6429 18.4027 28.6429C20.9581 28.6429 23.0299 26.5818 23.0299 24.0396C23.0299 21.4974 20.9581 19.4363 18.4027 19.4363Z" fill="#FF5252"/>
</g>
<defs>
<clipPath id="clip0_6304_144941">
<rect width="171" height="45" fill="white"/>
</clipPath>
</defs>
</svg>
