<svg width="171" height="180" viewBox="0 0 171 180" fill="none" xmlns="http://www.w3.org/2000/svg">
<g clip-path="url(#clip0_1_411)">
<g clip-path="url(#clip1_1_411)">
<path d="M56.5952 70.3876H35.625V91.3618H56.5952V70.3876ZM77.5668 70.387H56.5959V91.3618H77.5668V70.387Z" stroke="#232323" stroke-width="0.640562" stroke-miterlimit="10"/>
<path d="M98.5363 70.387H77.5655V91.3618H98.5363M98.5363 70.387V91.3618M98.5363 70.387H119.507V91.3618H98.5363M56.5952 91.3611H35.625V112.336H56.5952V91.3611Z" stroke="#232323" stroke-width="0.640562" stroke-miterlimit="10"/>
<path d="M77.5666 91.3613H56.5957V112.336H77.5666V91.3613Z" stroke="#232323" stroke-width="0.640562" stroke-miterlimit="10"/>
<path d="M98.5363 91.3613H77.5655V112.336H98.5363M98.5363 91.3613V112.336M98.5363 91.3613H119.507V112.336H98.5363M56.5952 112.336H35.625V133.31H56.5952V112.336ZM77.5668 112.336H56.5959V133.31H77.5668V112.336Z" stroke="#232323" stroke-width="0.640562" stroke-miterlimit="10"/>
<path d="M98.5363 112.336H77.5655V133.31H98.5363M98.5363 112.336V133.31M98.5363 112.336H119.507V133.31H98.5363M56.5952 133.31H35.625V154.284H56.5952V133.31ZM77.5668 133.31H56.5959V154.284H77.5668V133.31Z" stroke="#232323" stroke-width="0.640562" stroke-miterlimit="10"/>
<path d="M98.5363 133.31H77.5654V154.284H98.5363M98.5363 133.31V154.284M98.5363 133.31H119.507V154.284H98.5363" stroke="#232323" stroke-width="0.640562" stroke-miterlimit="10"/>
<path d="M116.103 8.00708C86.5473 8.00708 62.5791 28.3522 62.5791 53.46C62.5791 59.4435 63.9362 65.1561 66.4154 70.3877H119.508V98.8142C147.485 97.321 169.64 77.5806 169.64 53.46C169.64 28.3522 145.672 8.00708 116.103 8.00708Z" fill="#3D38D4"/>
<path d="M77.5665 70.387H66.415C67.7107 73.126 69.3137 75.7293 71.1768 78.1724C72.6571 80.1063 73.3333 82.5373 73.0642 84.958L72.3238 91.3611H77.5665V70.387Z" fill="#D8B4E1"/>
<path d="M98.5378 70.387H77.5669V91.3611H98.5378V70.387Z" fill="#CB8700"/>
<path d="M119.507 70.387H98.5361V91.3611H119.507V70.387Z" fill="#D8B4E1"/>
<path d="M72.3118 91.3618L72.0408 93.7434C71.9502 94.5371 72.0835 95.3402 72.4259 96.062C72.7683 96.7837 73.3059 97.3951 73.9779 97.827C74.5049 98.1645 75.0994 98.3825 75.7197 98.4656C76.34 98.5487 76.971 98.4949 77.5682 98.3081V91.3618H72.3118Z" fill="#CB8700"/>
<path d="M77.5669 91.3618V98.3081L88.3854 94.8907C90.3867 94.262 92.541 94.3229 94.5036 95.0637C95.8325 95.558 97.178 96.0065 98.5378 96.4082V91.3618H77.5669Z" fill="#D8B4E1"/>
<path d="M98.5361 91.3618V96.4082C104.038 98.0372 109.947 98.9128 116.102 98.9128C117.249 98.9128 118.384 98.8885 119.507 98.8264V91.3746H98.5361V91.3618Z" fill="#CB8700"/>
<path d="M35.6259 112.336V70.3877H35.6874C22.2418 64.9095 7.56204 69.5978 2.73882 80.998C-2.12091 92.4969 4.92275 106.463 18.4548 112.188C24.215 114.631 30.2352 115.174 35.6131 114.113V112.336H35.6259Z" fill="#3D38D4"/>
<path d="M35.625 91.3618H53.1413C52.0192 82.8236 45.6788 74.607 36.0688 70.5477C35.9459 70.4984 35.8223 70.4491 35.6865 70.387H35.625V91.3618Z" fill="#CB8700"/>
<path d="M35.625 112.337H41.2008C42.187 111.88 43.1496 111.374 44.0508 110.794C44.7272 110.359 45.4839 110.064 46.2762 109.926C47.0685 109.789 47.8804 109.811 48.6639 109.992L56.5952 111.868V104.564L54.0296 100.418C53.302 99.2459 53.0177 97.8642 53.1784 96.4947C53.3885 94.7921 53.3642 93.0644 53.1413 91.3618H35.625V112.337Z" fill="#D8B4E1"/>
<path d="M57.8544 112.151C58.2177 112.235 58.5985 112.2 58.9405 112.051C59.2826 111.903 59.5677 111.648 59.7539 111.325C60.0742 110.769 60.062 110.091 59.7168 109.561L56.5959 104.551V111.855L57.8544 112.151ZM35.625 114.101C37.5739 113.718 39.4485 113.126 41.2008 112.324H35.625V114.101Z" fill="#CB8700"/>
<path d="M98.537 154.273H55.3374C60.5558 164.045 72.1511 171.299 84.474 171.299C97.2292 171.299 108.134 164.242 112.55 154.273H98.537Z" fill="#3D38D4"/>
<path d="M97.8819 107.229C97.8214 106.744 97.6264 106.286 97.3189 105.907C97.0115 105.528 96.604 105.242 96.1425 105.082C95.701 104.929 95.2264 104.897 94.7684 104.991C94.3105 105.084 93.8861 105.299 93.5397 105.613L86.0894 112.337H98.5115L97.8819 107.229Z" fill="#D8B4E1"/>
<path d="M56.5969 129.449C55.813 130.676 55.128 131.964 54.5483 133.299H56.5962L56.5969 129.449Z" fill="#CB8700"/>
<path d="M77.5656 133.311V115.594C68.6839 117.161 61.0484 122.466 56.5947 129.462V133.311H77.5656Z" fill="#D8B4E1"/>
<path d="M98.5363 133.311V112.472L98.5235 112.337H86.102L84.1896 114.064C83.45 114.726 82.5049 115.114 81.5132 115.162C80.181 115.224 78.8611 115.384 77.5654 115.606V133.323H98.5363V133.311Z" fill="#CB8700"/>
<path d="M112.611 133.311C110.317 127.475 106.222 122.959 101.09 119.875C99.9677 119.209 99.2273 118.049 99.0672 116.753L98.5363 112.472V133.311H112.611ZM56.5952 133.312H54.5477C53.1906 136.433 52.4502 139.777 52.4502 143.206C52.4502 147.068 53.4992 150.831 55.3367 154.274H56.5952V133.312Z" fill="#D8B4E1"/>
<path d="M77.5656 133.312H56.5947V154.286H77.5656V133.312Z" fill="#CB8700"/>
<path d="M98.5363 133.312H77.5654V154.286H98.5363V133.312Z" fill="#D8B4E1"/>
<path d="M98.5361 154.273H112.537C113.911 151.177 114.621 147.827 114.622 144.44C114.622 140.319 113.906 136.605 112.611 133.299H98.5361V154.273Z" fill="#CB8700"/>
<path fill-rule="evenodd" clip-rule="evenodd" d="M91.2583 61.5164L107.417 52.5965C107.799 52.3858 108.232 52.2878 108.666 52.3138C109.101 52.3399 109.519 52.4891 109.872 52.7438L124.897 63.5771C125.343 63.8995 125.89 64.0507 126.438 64.003C126.986 63.9554 127.499 63.7122 127.882 63.3177L148.298 42.3679C150.148 40.468 147.841 37.4579 145.534 38.7532L129.955 47.4515C129.577 47.6627 129.148 47.7632 128.716 47.7413C128.284 47.7195 127.867 47.5761 127.512 47.3278L112.081 36.483C111.633 36.1683 111.089 36.0228 110.544 36.0726C110 36.1223 109.49 36.364 109.108 36.7546L88.5069 57.9011C86.6567 59.7888 88.9514 62.7995 91.2583 61.5164Z" fill="white"/>
</g>
</g>
<defs>
<clipPath id="clip0_1_411">
<rect width="171" height="180" fill="white"/>
</clipPath>
<clipPath id="clip1_1_411">
<rect width="171" height="180" fill="white"/>
</clipPath>
</defs>
</svg>
