<svg width="42" height="42" viewBox="0 0 42 42" fill="none" xmlns="http://www.w3.org/2000/svg">
<path d="M21 42C32.5979 42 42 32.5979 42 21C42 9.40202 32.5979 0 21 0C9.40202 0 0 9.40202 0 21C0 32.5979 9.40202 42 21 42Z" fill="url(#paint0_linear_1_345)"/>
<path fill-rule="evenodd" clip-rule="evenodd" d="M9.50626 20.7786C15.6282 18.1114 19.7105 16.353 21.7529 15.5035C27.585 13.0778 28.7967 12.6564 29.5866 12.6425C29.7604 12.6394 30.1487 12.6825 30.4004 12.8866C30.6128 13.059 30.6713 13.2919 30.6993 13.4553C30.7273 13.6188 30.7621 13.9911 30.7343 14.282C30.4182 17.6027 29.0508 25.6609 28.3551 29.38C28.0608 30.9536 27.4812 31.4812 26.92 31.5328C25.7004 31.6452 24.7745 30.727 23.5932 29.9528C21.745 28.7412 20.7008 27.987 18.9067 26.8047C16.8334 25.4385 18.1775 24.6874 19.3591 23.4601C19.6683 23.139 25.0415 18.2517 25.1455 17.8083C25.1586 17.7528 25.1707 17.5461 25.0478 17.437C24.925 17.3279 24.7438 17.3652 24.6129 17.3949C24.4276 17.437 21.475 19.3885 15.7551 23.2497C14.917 23.8251 14.1579 24.1055 13.4777 24.0908C12.7279 24.0747 11.2856 23.6669 10.2133 23.3183C8.89822 22.8908 7.85298 22.6649 7.944 21.9388C7.99141 21.5606 8.51216 21.1739 9.50626 20.7786Z" fill="white"/>
<defs>
<linearGradient id="paint0_linear_1_345" x1="7" y1="3.5" x2="31.5" y2="40.25" gradientUnits="userSpaceOnUse">
<stop stop-color="#24B4FF"/>
<stop offset="1" stop-color="#008ED1"/>
</linearGradient>
</defs>
</svg>
