<svg width="25" height="24" viewBox="0 0 25 24" fill="none" xmlns="http://www.w3.org/2000/svg">
<path fill-rule="evenodd" clip-rule="evenodd" d="M3.36855 11.8311C8.50844 9.59178 11.9359 8.11545 13.6508 7.40216C18.5472 5.36558 19.5646 5.01181 20.2278 5.00012C20.3736 4.99756 20.6998 5.0337 20.911 5.20511C21.0894 5.34985 21.1385 5.54536 21.1619 5.68259C21.1854 5.81981 21.2147 6.13242 21.1914 6.37668C20.9261 9.1646 19.778 15.9302 19.1939 19.0527C18.9467 20.3739 18.4601 20.8169 17.9889 20.8603C16.9651 20.9545 16.1876 20.1837 15.1959 19.5336C13.6441 18.5164 12.7674 17.8832 11.2612 16.8905C9.52033 15.7434 10.6489 15.1129 11.6409 14.0825C11.9005 13.8129 16.4118 9.70955 16.4991 9.33731C16.51 9.29076 16.5202 9.11722 16.4171 9.02559C16.314 8.93396 16.1618 8.9653 16.052 8.99022C15.8964 9.02554 13.4174 10.6641 8.61497 13.9058C7.91131 14.389 7.27396 14.6244 6.70292 14.6121C6.07339 14.5985 4.86243 14.2561 3.9622 13.9635C2.85804 13.6046 1.98047 13.4148 2.05688 12.8052C2.09669 12.4878 2.53391 12.163 3.36855 11.8311Z" fill="white"/>
</svg>
