<svg width="33" height="33" viewBox="0 0 33 33" fill="none" xmlns="http://www.w3.org/2000/svg">
<rect x="0.101318" y="0.5" width="32" height="32" rx="16" fill="#EAEAEA"/>
<path d="M13.9194 11.6621C13.6069 12.0788 13.4572 12.6354 13.4702 13.332H10.8726C10.8986 12.6289 11.019 11.9616 11.2339 11.3301C11.4618 10.7767 11.8198 10.2656 12.3081 9.79688C12.6727 9.46484 13.1056 9.21094 13.6069 9.03516C14.1082 8.85938 14.7235 8.77148 15.4526 8.77148C16.8068 8.77148 17.8973 9.12305 18.7241 9.82617C19.5575 10.5228 19.9741 11.4603 19.9741 12.6387C19.9741 13.472 19.7267 14.1751 19.2319 14.748C18.9194 15.1061 18.5939 15.3503 18.2554 15.4805C18.5093 15.4805 18.8739 15.6986 19.3491 16.1348C20.0588 16.7923 20.4136 17.6908 20.4136 18.8301C20.4136 20.028 19.9969 21.0827 19.1636 21.9941C18.3368 22.8991 17.1095 23.3516 15.4819 23.3516C13.4767 23.3516 12.0835 22.6973 11.3022 21.3887C10.8921 20.6921 10.6642 19.7806 10.6187 18.6543H13.353C13.353 19.2207 13.4442 19.6895 13.6265 20.0605C13.965 20.7441 14.5802 21.0859 15.4722 21.0859C16.019 21.0859 16.4943 20.9004 16.8979 20.5293C17.3081 20.1517 17.5132 19.6113 17.5132 18.9082C17.5132 17.9772 17.1356 17.3555 16.3804 17.043C15.9507 16.8672 15.2736 16.7793 14.3491 16.7793V14.7871C15.2541 14.7741 15.8856 14.6862 16.2437 14.5234C16.8621 14.25 17.1714 13.6966 17.1714 12.8633C17.1714 12.3229 17.0119 11.8835 16.6929 11.5449C16.3804 11.2064 15.9377 11.0371 15.3647 11.0371C14.7072 11.0371 14.2254 11.2454 13.9194 11.6621Z" fill="#232323"/>
</svg>
