<svg width="33" height="33" viewBox="0 0 33 33" fill="none" xmlns="http://www.w3.org/2000/svg">
<rect x="0.101318" y="0.5" width="32" height="32" rx="16" fill="#EAEAEA"/>
<path d="M17.0444 11.7207C16.7124 11.3236 16.2371 11.125 15.6187 11.125C14.7723 11.125 14.1961 11.4408 13.8901 12.0723C13.7144 12.4368 13.6102 13.0163 13.5776 13.8105H10.8726C10.9181 12.6061 11.1362 11.6328 11.5269 10.8906C12.269 9.47786 13.5874 8.77148 15.4819 8.77148C16.9793 8.77148 18.1707 9.18815 19.0562 10.0215C19.9416 10.8483 20.3843 11.9453 20.3843 13.3125C20.3843 14.3607 20.0718 15.2917 19.4468 16.1055C19.0366 16.6458 18.3628 17.248 17.4253 17.9121L16.312 18.7031C15.6154 19.1979 15.1369 19.556 14.8765 19.7773C14.6226 19.9987 14.4077 20.2559 14.2319 20.5488H20.4136V23H10.7163C10.7424 21.9844 10.9604 21.0566 11.3706 20.2168C11.7677 19.2728 12.7052 18.2734 14.1831 17.2188C15.4657 16.3008 16.2957 15.6432 16.6733 15.2461C17.2528 14.6276 17.5425 13.9505 17.5425 13.2148C17.5425 12.6159 17.3765 12.1178 17.0444 11.7207Z" fill="#232323"/>
</svg>
