<svg width="193" height="180" viewBox="0 0 193 180" fill="none" xmlns="http://www.w3.org/2000/svg">
<path d="M163.496 29.0994C163.496 29.0994 166.559 19.7515 167.845 15.6182C165.031 16.8672 159.424 21.3509 158.495 23.2789C157.567 25.2069 163.496 29.0994 163.496 29.0994Z" fill="#E1E184"/>
<path d="M191.686 9.71729C191.686 9.71729 189.697 10.696 186.729 12.2C185.545 12.7989 183.725 13.0839 182.752 14.2305C180.888 15.1797 178.644 15.4859 176.838 17.2903C175.047 18.2319 173.256 18.3786 171.516 20.131C169.952 20.4891 168.526 20.7959 167.481 22.3588C166.706 22.2855 165.929 22.4576 165.258 22.8509C164.588 23.2441 164.058 23.8385 163.745 24.5494C161.712 24.951 161.018 26.3237 160.513 26.8355C157.414 30.0414 160.813 33.5905 163.825 32.9769C165.351 32.5546 166.709 31.6722 167.715 30.45C169.55 29.91 170.331 28.7635 171.114 27.7335C172.802 27.1199 173.804 25.8785 174.886 24.5642C176.743 23.9288 177.905 21.979 179.404 20.664C181.429 19.8761 182.584 17.8745 184.039 16.5819C185.545 15.7421 186.517 14.3912 187.555 13.442C190.048 11.2065 191.686 9.71729 191.686 9.71729Z" fill="#F13AEC"/>
<path d="M184.425 59.7792C183.636 57.1274 182.02 54.8055 180.412 52.5489C174.966 44.9099 169.271 36.3582 163.598 28.8799C162.088 26.945 160.74 24.8882 159.57 22.7308C159.57 22.7308 161.346 15.8003 162.027 13.3105C157.421 15.3699 154.716 17.4951 151.792 21.5042C135.957 23.0453 122.549 33.3348 110.122 43.2234L65.7106 78.4673C64.2632 79.5461 62.4739 80.0648 60.6733 79.9278C74.3627 88.8747 88.6189 96.9247 103.352 104.027C118.609 111.33 126.431 108.833 129.29 97.8857C133.537 81.6072 128.654 74.5165 137.332 65.8918C140.579 62.6505 143.293 58.9164 145.373 54.8279C150.425 59.9393 160.111 57.2376 165.214 62.3131C166.924 64.0221 167.845 66.4029 169.527 68.1554C171.208 69.9079 174.337 70.7701 175.938 68.9516C178.095 70.6894 181.589 69.8938 183.307 67.7173C185.025 65.5408 185.208 62.4374 184.425 59.7792Z" fill="#E1E184"/>
<path d="M161.624 36.3728C163.013 36.2268 164.716 36.4606 164.672 37.8332C164.629 39.2065 162.764 40.2147 161.302 39.8125C159.84 39.4109 158.824 38.206 157.874 37.0595C157.895 37.0595 160.227 36.5189 161.624 36.3728ZM179.06 58.2297C179.543 59.2673 179.06 60.4209 178.841 61.5752C178.621 62.7288 178.76 64.1527 179.835 64.5472C180.91 64.9418 182.028 63.817 182.131 62.714C182.233 61.6117 179.754 58.0619 179.06 58.2297Z" fill="#F13AEC"/>
<mask id="mask0_1_357" style="mask-type:alpha" maskUnits="userSpaceOnUse" x="20" y="8" width="75" height="160">
<path d="M20.9326 167.315H94.2495V8.53467H20.9326V167.315Z" fill="#3D38D4"/>
</mask>
<g mask="url(#mask0_1_357)">
<path d="M13.9209 22.9985H30.1765V39.1848H13.9209V22.9985ZM13.9209 55.3716H30.1765V71.5579H13.9209V55.3716ZM13.9209 87.7441H30.1765V103.93H13.9209V87.7441ZM46.4315 22.9985H62.6871V39.1848H46.4315V22.9985ZM46.4315 55.3716H62.6871V71.5579H46.4315V55.3716ZM46.4315 87.7441H62.6871V103.93H46.4315V87.7441ZM78.942 22.9985H95.1976V39.1848H78.942V22.9985ZM78.942 55.3716H95.1976V71.5579H78.942V55.3716ZM78.942 87.7441H95.1976V103.93H78.942V87.7441ZM30.1765 39.1848L46.4321 39.1854L46.4315 55.3716H30.1765V39.1848Z" fill="#3B42C4"/>
<path d="M30.1768 6.85986H46.4324V23.0461H30.1768V6.85986ZM62.6873 39.1856H78.9429V55.3718H62.6873V39.1856ZM30.1768 71.558H46.4324V87.7443H30.1768V71.558ZM62.6873 6.85986H78.9429V23.0461H62.6873V6.85986ZM62.6873 71.558H78.9429V87.7443H62.6873V71.558Z" fill="#3B42C4"/>
<path d="M30.1768 22.9985H46.4324V39.1848H30.1768V22.9985ZM30.1768 55.3716H46.4324V71.5579H30.1768V55.3716ZM30.1768 87.7441H46.4324V103.93H30.1768V87.7441ZM62.6873 22.9985H78.9429V39.1848H62.6873V22.9985ZM62.6873 55.3716H78.9429V71.5579H62.6873V55.3716ZM62.6873 87.7441H78.9429V103.93H62.6873V87.7441ZM46.4317 39.1854L62.6873 39.1848V55.3716H46.4324L46.4317 39.1854Z" fill="#96DAE2"/>
<path d="M46.4315 6.85986H62.6871V23.0461H46.4315V6.85986ZM13.9209 39.1856H30.1765V55.3718H13.9209V39.1856ZM46.4315 71.558H62.6871V87.7443H46.4315V71.558ZM78.942 39.1856H95.1976V55.3718H78.942V39.1856ZM13.9209 6.85986H30.1765V23.0461H13.9209V6.85986ZM13.9209 71.558H30.1765V87.7443H13.9209V71.558ZM78.942 6.85986H95.1976V23.0461H78.942V6.85986ZM78.942 71.558H95.1976V87.7443H78.942V71.558Z" fill="#96DAE2"/>
<path d="M13.9209 87.5977H30.1765V103.784H13.9209V87.5977ZM13.9209 119.971H30.1765V136.157H13.9209V119.971ZM13.9209 152.343H30.1765V168.529H13.9209V152.343ZM46.4315 87.5977H62.6871V103.784H46.4315V87.5977ZM46.4315 119.971H62.6871V136.157H46.4315V119.971ZM46.4315 152.343H62.6871V168.529H46.4315V152.343ZM78.942 87.5977H95.1976V103.784H78.942V87.5977ZM78.942 119.971H95.1976V136.157H78.942V119.971ZM78.942 152.343H95.1976V168.529H78.942V152.343ZM30.1765 103.784H46.4315L46.4321 119.97L30.1765 119.971V103.784Z" fill="#3B42C4"/>
<path d="M30.1768 71.459H46.4324V87.6452H30.1768V71.459ZM62.6873 103.784H78.9429V119.97H62.6873V103.784ZM30.1768 136.157H46.4324V152.343H30.1768V136.157ZM62.6873 71.459H78.9429V87.6452H62.6873V71.459ZM62.6873 136.157H78.9429V152.343H62.6873V136.157Z" fill="#3B42C4"/>
<path d="M30.1768 87.5977H46.4324V103.784H30.1768V87.5977ZM30.1768 119.971H46.4324V136.157H30.1768V119.971ZM30.1768 152.343H46.4324V168.529H30.1768V152.343ZM62.6873 87.5977H78.9429V103.784H62.6873V87.5977ZM62.6873 119.971H78.9429V136.157H62.6873V119.971ZM62.6873 152.343H78.9429V168.529H62.6873V152.343ZM46.4324 103.784H62.6873V119.971L46.4317 119.97L46.4324 103.784Z" fill="#96DAE2"/>
<path d="M46.4315 71.459H62.6871V87.6452H46.4315V71.459ZM13.9209 103.784H30.1765V119.97H13.9209V103.784ZM46.4315 136.157H62.6871V152.343H46.4315V136.157ZM78.942 103.784H95.1976V119.97H78.942V103.784ZM13.9209 71.459H30.1765V87.6452H13.9209V71.459ZM13.9209 136.157H30.1765V152.343H13.9209V136.157ZM78.942 71.459H95.1976V87.6452H78.942V71.459ZM78.942 136.157H95.1976V152.343H78.942V136.157Z" fill="#96DAE2"/>
</g>
<path d="M77.8608 144.982C77.1292 149.831 76.3252 155.206 75.9449 160.099C75.8212 161.728 75.7333 163.444 76.413 164.934C77.0927 166.424 78.504 167.622 78.5187 169.243C78.5187 171.864 74.9729 173.274 74.6145 175.873C74.417 177.29 74.8562 177.685 75.6455 178.875C75.4333 179.029 75.5359 179.401 75.7699 179.525C76.0039 179.649 76.2816 179.525 76.5445 179.525C81.1846 180.011 85.872 179.307 90.1641 177.48C90.5661 175.837 89.4331 174.194 88.0443 173.193C87.4693 172.873 86.9704 172.432 86.5817 171.901C86.3112 171.327 86.1906 170.694 86.231 170.061C86.1066 163.101 85.9822 156.105 86.962 149.218C83.8154 148.062 80.7711 146.645 77.8608 144.982Z" fill="#E1E184"/>
<path d="M87.0717 144.982C86.3407 149.831 85.536 155.206 85.1564 160.099C85.032 161.728 84.9371 163.444 85.6238 164.934C86.3112 166.424 87.7148 167.622 87.7295 169.243C87.7295 171.864 84.1837 173.274 83.8259 175.873C83.6284 177.29 84.067 177.685 84.8563 178.875C84.637 179.029 90.2443 181.146 99.3749 177.509C99.777 175.866 95.4861 170.718 95.4784 170.089C95.3546 163.13 95.2302 156.134 96.2093 149.247C93.0494 148.083 89.9928 146.656 87.0717 144.982Z" fill="#E1E184"/>
<path d="M113.82 117.377C111.627 120.093 108.842 122.27 106.51 124.863C98.9214 133.297 97.5544 143.076 94.9376 158.179L85.4922 156.718C86.8009 141.608 90.9821 125.001 96.4579 110.841C96.7614 109.806 97.3252 108.866 98.0955 108.11C99.0676 107.314 100.398 107.153 101.648 107.029C105.874 106.512 110.126 106.242 114.383 106.218C120.151 106.32 115.524 115.259 113.82 117.377Z" fill="#E1E184"/>
<path d="M105.808 112.623C103.615 115.377 99.1553 125.367 97.5472 128.485C91.8303 139.593 89.506 160.538 88.3435 171.945C85.1926 171.456 85.419 173.406 82.3047 172.901C83.6211 157.616 84.3078 124.322 89.7471 110.001C90.0467 108.956 90.6107 108.005 91.3847 107.241C92.3497 106.43 93.6801 106.27 94.9298 106.138C99.173 105.626 103.442 105.358 107.716 105.335C113.484 105.43 107.511 110.484 105.808 112.623Z" fill="#F13AEC"/>
<path d="M134.634 31.5308L116.745 41.8139L105.1 42.2814C104.109 42.2024 103.115 42.3767 102.211 42.788C101.306 43.1993 100.522 43.834 99.9311 44.6322L96.0422 48.6201C95.3307 49.4671 94.4218 50.1265 93.3954 50.5405C92.5283 50.7352 91.631 50.755 90.7562 50.5987C84.9079 49.9275 66.9024 50.1683 61.0316 49.4964C55.4103 61.181 64.3146 84.8934 61.4266 97.4985C60.7688 100.369 59.9647 103.195 59.0946 106.021L58.1738 109.139C65.1622 114.252 68.7741 113.623 77.3853 112.623C77.5245 117.282 78.5773 119.524 78.5773 125.951C78.5773 136.525 78.6652 137.037 77.225 147.523C77.0859 146.99 80.5362 174.698 80.4047 174.165C82.5393 174.939 84.1698 173.704 86.4358 173.537C86.1146 137.372 96.9264 128.755 99.1341 111.673C99.3899 113.076 101.883 113.726 103.301 113.864C109.267 114.507 112.747 114.193 118.193 111.673C120.719 110.479 122.957 108.756 124.756 106.62C126.555 104.484 127.872 101.985 128.618 99.2951C129.502 95.9721 128.939 92.4158 129.649 89.071C133.574 70.2733 132.331 41.6819 134.634 31.5308Z" fill="#E1E184"/>
<path d="M89.3807 47.6264C91.2671 45.6407 93.2336 43.5955 95.7632 42.5508C98.2927 41.5067 101.612 41.7553 103.329 43.8581C104.439 41.0477 106.433 38.6735 109.011 37.0931C111.589 35.5126 114.61 34.8114 117.622 35.095C118.901 35.2411 120.29 35.5549 121.401 34.9048C122.086 34.4102 122.648 33.7658 123.046 33.021C124.361 30.8575 126.329 29.167 128.667 28.1933C131.022 27.3318 133.931 27.6745 135.671 29.4788C131.073 32.8525 126.898 37.4022 122.307 40.7765C121.226 41.5727 120.114 42.456 119.668 43.7339C119.164 45.3044 119.932 47.0204 119.668 48.6487C119.091 52.5559 113.169 54.6665 113.915 58.5449C114.177 59.3785 114.489 60.1954 114.851 60.9911C115.852 64.0656 113.615 67.1619 111.576 69.6671C109.536 72.1715 109.85 80.2051 109.85 81.2203C109.85 82.7461 94.8783 91.1377 94.0595 97.8344C92.0494 94.3801 91.9179 90.093 92.8316 86.2005C93.7453 82.308 95.624 78.7223 97.4809 75.1808C91.7858 77.9997 79.4313 89.3115 77.8449 95.4606C77.2307 80.5849 89.2935 72.9677 88.3426 59.9611C83.8908 68.2425 78.4958 66.629 69.9204 82.1696C69.9204 73.9247 78.1739 63.1381 79.7679 56.4779C79.1318 50.7669 70.6078 52.9357 69.6062 49.4961C75.3231 46.9621 83.5471 46.1 89.3807 47.6264ZM1.20215 166.248L64.6427 179.226V0.325684L1.20215 7.43879V166.248Z" fill="#F13AEC"/>
<path d="M48.5666 93.8252C51.3282 93.8252 53.5667 90.4701 53.5667 86.3323C53.5667 82.1938 51.3282 78.8394 48.5666 78.8394C45.805 78.8394 43.5659 82.1938 43.5659 86.3323C43.5659 90.4701 45.805 93.8252 48.5666 93.8252Z" fill="#3D38D4"/>
<path d="M133.573 28.8726C134.027 31.582 136.191 37.6799 129.999 42.6754C123.807 47.6702 129.267 59.333 121.189 71.9381C121.372 67.9796 121.92 56.9522 118.894 46.1733C118.544 44.8177 118.493 43.4022 118.745 42.0251C118.998 40.648 119.547 39.3423 120.356 38.1987C121.175 36.912 122.183 35.755 123.346 34.7661C127.242 31.6403 129.318 31.5308 133.573 28.8726Z" fill="#F13AEC"/>
<path d="M136.045 24.1189C138.515 22.5484 141.754 21.986 144.43 23.1915C145 21.9785 145.93 20.9707 147.095 20.3054C148.259 19.6401 149.6 19.3497 150.936 19.4738C151.535 19.4923 152.105 19.7378 152.53 20.1605C152.768 20.5063 152.891 20.9195 152.879 21.3397C152.867 21.7597 152.722 22.165 152.464 22.4971C151.93 23.1532 151.259 23.6843 150.497 24.053C147.959 25.6591 145.231 26.9444 142.375 27.8795C141.934 27.9918 141.522 28.1988 141.169 28.4861C140.686 28.9024 140.131 29.4719 140.189 30.1002C141.103 39.7614 137.389 41.3608 136.337 46.02C136.337 46.049 136.326 46.0769 136.305 46.0974C136.284 46.118 136.257 46.1295 136.227 46.1295C136.198 46.1295 136.17 46.118 136.15 46.0974C136.129 46.0769 136.118 46.049 136.118 46.02C135.927 42.1063 134.18 37.2569 132.579 34.1164C131.504 31.9988 130.532 31.1955 131.534 28.8653C132.331 27.0109 134.378 25.156 136.045 24.1189Z" fill="#F13AEC"/>
</svg>
