<svg width="193" height="180" viewBox="0 0 193 180" fill="none" xmlns="http://www.w3.org/2000/svg">
<g clip-path="url(#clip0_1_2045)">
<g clip-path="url(#clip1_1_2045)">
<path d="M116.136 43.1337C116.136 43.1337 114.432 30.1776 113.602 24.4814C110.954 27.5899 106.812 36.1833 106.812 39.0266C106.812 41.8705 116.136 43.1337 116.136 43.1337Z" fill="#E1E184"/>
<mask id="mask0_1_2045" style="mask-type:alpha" maskUnits="userSpaceOnUse" x="3" y="145" width="188" height="35">
<path d="M96.6426 179.674C148.291 179.674 190.16 171.991 190.16 162.514C190.16 153.037 148.291 145.353 96.6426 145.353C44.994 145.353 3.125 153.037 3.125 162.514C3.125 171.991 44.994 179.674 96.6426 179.674Z" fill="#00FFFF"/>
</mask>
<g mask="url(#mask0_1_2045)">
<path d="M159.182 162.533V193.855H127.97V162.533H159.182ZM96.7598 162.533V193.855H65.5486V162.533H96.7598ZM34.3362 162.533V193.855H3.125V162.533H34.3362ZM127.969 131.211V162.533H96.7579V131.211H127.969ZM190.301 131.211V162.533H159.09V131.211H190.301ZM65.5474 131.211V162.533H34.3362V131.211H65.5474Z" fill="#3B42C4"/>
<path d="M159.182 131.211V162.533H127.971V131.211H159.182ZM96.7592 131.211V162.533H65.548V131.211H96.7592ZM34.3362 131.212V162.533H3.125V131.212H34.3362ZM127.97 162.533V193.855H96.7585V162.533H127.97ZM190.302 162.533V193.855H159.091V162.533H190.302ZM65.548 162.533V193.855H34.3368V162.533L65.548 162.533Z" fill="#96DAE2"/>
</g>
<path d="M134.676 0.325623C134.676 0.325623 133.034 2.89544 130.588 6.79051C129.608 8.35341 127.657 9.97011 127.322 12.0281C125.803 14.4743 123.357 16.444 122.51 19.8529C121.062 22.2465 119.04 23.6858 118.228 26.998C116.639 28.5436 115.155 29.9214 115.041 32.5091C112.921 33.5596 112.083 35.3704 112.18 37.7551C110.052 39.6805 110.202 41.7911 109.981 42.7628C108.587 48.7684 115.137 50.5523 118.263 47.682C119.767 46.0969 120.745 44.0857 121.062 41.9237C122.828 39.9809 122.969 38.0645 123.154 36.2889C124.717 34.3635 125.018 32.1825 125.362 29.8503C127.128 27.775 127.128 24.6396 127.931 22.0256C129.776 19.6492 129.697 16.4613 130.518 13.8908C131.701 11.8155 131.878 9.51981 132.443 7.70967C133.794 3.25734 134.676 0.325623 134.676 0.325623Z" fill="#FA0CF7"/>
<path d="M158.765 67.9248C156.302 65.1955 153.044 63.3405 149.83 61.5566C138.926 55.5164 127.21 48.5301 116.138 42.8243C113.226 41.3647 110.435 39.6725 107.795 37.7641C107.795 37.7641 105.95 28.4462 105.332 25.0546C101.005 30.168 98.9483 34.2751 97.7826 40.74C79.7183 51.6476 69.53 71.6514 60.3384 90.6399L27.4247 158.31C26.3012 160.422 25.2232 161.529 22.9922 162.39C44.4993 165.265 65.4024 167.27 87.1004 167.336C109.535 167.336 122.17 162.92 122.17 162.92C122.17 158.178 120.404 152.552 118.859 148.701C112.678 133.607 100.485 117.533 105.924 102.184C107.955 96.4383 109.066 90.4085 109.217 84.3166C118.196 87.5577 128.235 78.7613 137.25 81.9229C140.286 82.992 142.741 85.3146 145.752 86.4361C148.762 87.5577 153.009 86.8249 153.884 83.7248C157.459 84.6081 161.185 81.6142 161.997 78.0285C162.809 74.4422 161.238 70.6534 158.766 67.9248H158.765Z" fill="#E1E090"/>
<path d="M88.7666 53.5377C87.0013 56.0633 87.1774 59.4991 87.7866 62.5282C88.3957 65.5573 89.3585 68.6574 88.8287 71.7134C85.8033 68.733 83.4861 65.1111 82.0481 61.1152L85.3058 85.6943C83.0201 82.2808 79.652 79.736 75.744 78.4697C77.3863 81.8434 76.5209 85.8269 76.168 89.5714C75.8144 93.316 76.3883 97.7497 79.6288 99.6399C78.2234 100.051 76.7277 100.037 75.3305 99.5983C73.9334 99.1596 72.6977 98.3166 71.7797 97.1758C70.8952 96.0068 70.3513 94.6159 70.2079 93.157C70.0646 91.6981 70.3275 90.2279 70.9675 88.9091C69.2506 91.2365 68.1449 93.9573 67.7516 96.8226C67.3582 99.6878 67.6898 102.606 68.716 105.31C69.7492 107.959 71.4793 110.742 70.482 113.409C66.9196 111.268 63.606 108.738 60.6024 105.866C63.8357 113.719 64.0434 122.492 61.1853 130.489C57.2655 129.627 53.7723 127.418 51.3141 124.245C50.9873 127.089 51.2721 129.97 52.1492 132.695C53.0263 135.42 54.4756 137.926 56.3999 140.045C54.0242 140.884 51.2872 139.966 49.4335 138.279C47.6477 136.486 46.3422 134.272 45.6371 131.841L50.0516 159.281C49.3534 156.455 46.6696 154.557 43.9595 153.479C41.2488 152.401 38.3087 151.88 35.7748 150.432C33.2408 148.983 31.113 146.228 31.6338 143.366C32.0578 140.991 34.1504 139.233 34.839 136.919C35.4833 134.764 34.839 132.433 35.1387 130.198C35.4833 127.698 36.9751 125.535 38.4324 123.477L49.2573 108.171C50.8017 99.0833 55.4987 90.8608 61.9271 82.7446C64.3457 74.4248 70.4468 66.7147 74.7108 58.7042C77.132 53.9618 80.0948 49.5161 83.5399 45.4561C88.6609 39.6535 98.1433 38.0727 98.1433 38.0727C98.1433 38.0727 101.304 43.4512 96.5452 52.9721C94.6204 50.4817 90.5325 51.0909 88.7666 53.5377ZM118.061 52.9279C119.642 51.9569 121.814 51.2676 122.573 52.9279C123.332 54.5888 121.628 56.8492 119.668 57.2201C117.708 57.5916 115.783 56.7173 113.991 55.8872C114 55.8872 116.48 53.9079 118.061 52.9279ZM151.452 69.1346C152.617 70.1057 152.758 71.7839 153.112 73.2769C153.465 74.7694 154.489 76.4034 155.999 76.2708C157.508 76.1382 158.232 74.1596 157.694 72.7376C157.156 71.3156 152.193 68.5338 151.452 69.1346Z" fill="#FA0CF7"/>
</g>
</g>
<defs>
<clipPath id="clip0_1_2045">
<rect width="192.8" height="180" fill="white"/>
</clipPath>
<clipPath id="clip1_1_2045">
<rect width="192.8" height="179.989" fill="white" transform="translate(0 0.00531006)"/>
</clipPath>
</defs>
</svg>
