<svg width="112" height="180" viewBox="0 0 112 180" fill="none" xmlns="http://www.w3.org/2000/svg">
<g clip-path="url(#clip0_1_1800)">
<g clip-path="url(#clip1_1_1800)">
<path d="M93.6795 79.7067C77.5055 67.2118 109.854 54.7168 93.6795 42.2116H15.4651C31.6386 54.7059 -0.708937 67.2009 15.4651 79.7067C31.6386 92.2126 -0.708937 104.697 15.4651 117.202C31.6386 129.708 -0.708937 142.192 15.4651 154.698H93.6795C77.5055 142.203 109.854 129.708 93.6795 117.202C77.5055 104.697 109.864 92.2017 93.6795 79.7067Z" fill="#7CEC87"/>
<path d="M1.84229 110.885L54.593 80.7867L107.355 110.885V168.488H1.84229V110.885Z" fill="#FF00FF"/>
<mask id="mask0_1_1800" style="mask-type:alpha" maskUnits="userSpaceOnUse" x="1" y="80" width="107" height="89">
<path d="M1.84229 110.885L54.593 80.7867L107.355 110.885V168.488H1.84229V110.885Z" fill="#FF00FF"/>
</mask>
<g mask="url(#mask0_1_1800)">
<mask id="mask1_1_1800" style="mask-type:alpha" maskUnits="userSpaceOnUse" x="10" y="42" width="89" height="114">
<path d="M93.6717 80.0419C77.4983 67.5469 109.846 55.052 93.6717 42.5461H15.4573C31.6308 55.0411 -0.716749 67.536 15.4573 80.0419C31.6308 92.5471 -0.716749 105.031 15.4573 117.537C31.6308 130.043 -0.716749 142.527 15.4573 155.032H93.6717C77.4983 142.537 109.846 130.043 93.6717 117.537C77.4983 105.031 109.857 92.5362 93.6717 80.0419Z" fill="#D8B4E1"/>
</mask>
<g mask="url(#mask1_1_1800)">
<path d="M23.4013 67.7197H1.84229V89.2966H23.4V67.7197H23.4013Z" fill="#EDBBBD"/>
<path d="M44.9608 67.7197H23.4031V89.2966H44.9608V67.7197Z" fill="#007819"/>
<path d="M66.5294 67.7197H44.9717V89.2966H66.5294V67.7197Z" fill="#EDBBBD"/>
<path d="M88.0861 67.7197H66.5277V89.2966H88.0861V67.7197ZM23.4013 89.3075H1.84229V110.884H23.4V89.3075H23.4013Z" fill="#007819"/>
<path d="M44.9608 89.3075H23.4031V110.884H44.9608V89.3075Z" fill="#EDBBBD"/>
<path d="M66.5294 89.3075H44.9717V110.884H66.5294V89.3075Z" fill="#007819"/>
<path d="M88.0861 89.3075H66.5277V110.884H88.0861V89.3075ZM23.4013 110.885H1.84229V132.462H23.4V110.885H23.4013Z" fill="#EDBBBD"/>
<path d="M44.9608 110.885H23.4031V132.462H44.9608V110.885Z" fill="#007819"/>
<path d="M66.5294 110.885H44.9717V132.462H66.5294V110.885Z" fill="#EDBBBD"/>
<path d="M88.0861 110.885H66.5277V132.462H88.0861V110.885ZM23.4013 132.473H1.84229V154.05H23.4V132.473H23.4013Z" fill="#007819"/>
<path d="M44.9608 132.473H23.4031V154.05H44.9608V132.473Z" fill="#EDBBBD"/>
<path d="M66.5294 132.473H44.9717V154.05H66.5294V132.473Z" fill="#007819"/>
<path d="M88.0831 132.473H66.5247V154.05H88.0831V132.473Z" fill="#EDBBBD"/>
<path d="M88.1011 154.052H109.659V132.475H88.1011V154.052Z" fill="#007819"/>
<path d="M88.1011 132.476H109.659V110.899H88.1011V132.476Z" fill="#EDBBBD"/>
<path d="M88.1011 110.889H109.659V89.3119H88.1011V110.889Z" fill="#007819"/>
<path d="M88.1011 89.3128H109.659V67.7358H88.1011V89.3128ZM88.1011 175.64H109.659V154.063H88.1011V175.64Z" fill="#EDBBBD"/>
<path d="M66.5403 175.639H88.098V154.063H66.5403V175.639Z" fill="#007819"/>
<path d="M44.9717 175.639H66.5294V154.063H44.9717V175.639Z" fill="#EDBBBD"/>
<path d="M23.4187 175.639H44.9771V154.063H23.4187V175.639Z" fill="#007819"/>
<path d="M23.4013 154.05H1.84229V175.627H23.4V154.05H23.4013Z" fill="#EDBBBD"/>
</g>
</g>
<path d="M107.355 110.885L54.5937 141.727L1.84229 110.885V168.488H107.355V110.885Z" fill="#8626D6"/>
<path d="M37.9929 114.167C49.0841 98.7782 61.4924 85.6139 76.8032 76.0675C62.2585 73.7454 41.3478 66.5749 47.7894 48.8529C51.2313 41.0988 68.56 23.1507 68.56 23.1507C68.56 23.1507 51.6198 31.3148 45.7612 33.5933L42.8364 16.4875C54.5651 14.6728 66.6284 12.1784 75.152 10.5693L80.6547 14.3704C82.2304 23.3557 83.223 30.8183 85.8553 48.4743H68.5056L71.9366 25.6342C69.1206 29.9542 55.7523 50.8291 56.3136 55.5161C59.1724 69.1666 100.066 67.0604 111.276 66.2399V79.5445C88.1971 80.8622 69.8329 105.139 59.0105 126.478L37.9929 114.167Z" fill="#FF00FF"/>
<mask id="mask2_1_1800" style="mask-type:alpha" maskUnits="userSpaceOnUse" x="37" y="10" width="75" height="117">
<path d="M37.9929 114.167C49.0841 98.7782 61.4924 85.6139 76.8032 76.0675C62.2585 73.7454 41.3478 66.5749 47.7894 48.8529C51.2313 41.0988 68.56 23.1507 68.56 23.1507C68.56 23.1507 51.6198 31.3148 45.7612 33.5933L42.8364 16.4875C54.5651 14.6728 66.6284 12.1784 75.152 10.5693L80.6547 14.3704C82.2304 23.3557 83.223 30.8183 85.8553 48.4743H68.5056L71.9366 25.6342C69.1206 29.9542 55.7523 50.8291 56.3136 55.5161C59.1724 69.1666 100.066 67.0604 111.276 66.2399V79.5445C88.1971 80.8622 69.8329 105.139 59.0105 126.478L37.9929 114.167Z" fill="#FF00FF"/>
</mask>
<g mask="url(#mask2_1_1800)">
<path d="M61.2325 84.5449L90.9042 101.499L57.564 132.764L32.8018 112.569L61.2325 84.5449Z" fill="#8626D6"/>
</g>
</g>
</g>
<defs>
<clipPath id="clip0_1_1800">
<rect width="112" height="180" fill="white"/>
</clipPath>
<clipPath id="clip1_1_1800">
<rect width="112" height="180" fill="white"/>
</clipPath>
</defs>
</svg>
