<svg width="42" height="42" viewBox="0 0 42 42" fill="none" xmlns="http://www.w3.org/2000/svg">
<path d="M42 21C42 32.5979 32.5979 42 21 42C9.40202 42 0 32.5979 0 21C0 9.40202 9.40202 0 21 0C32.5979 0 42 9.40202 42 21Z" fill="url(#paint0_linear_1_338)"/>
<path fill-rule="evenodd" clip-rule="evenodd" d="M8.75 20.1364C8.75 13.8474 14.2016 8.75 20.9265 8.75C27.6514 8.75 33.103 13.8474 33.103 20.1364C33.103 26.4255 27.6514 31.5229 20.9265 31.5229C19.7111 31.5229 18.537 31.3563 17.4295 31.0459L13.2739 33.3512V28.9931C10.5143 26.9061 8.75 23.7141 8.75 20.1364ZM27.5746 22.6744C27.5709 22.6338 27.5676 22.5988 27.5662 22.5698C27.5522 22.2931 27.3037 22.2507 27.3037 22.2507C27.3037 22.2507 25.2675 21.2644 24.8489 21.0726C24.4309 20.881 24.2179 21.1937 24.2179 21.1937C24.2179 21.1937 23.6005 21.9741 23.4017 22.2292C23.3853 22.2504 23.3695 22.2712 23.3541 22.2917C23.1819 22.5195 23.047 22.6979 22.5719 22.5414C22.0539 22.371 21.0152 21.8118 20.1665 21.0514C19.3184 20.2912 18.6697 19.2852 18.4856 18.9802C18.3011 18.6746 18.514 18.4835 18.514 18.4835C18.514 18.4835 19.0512 17.8643 19.3083 17.5327C19.5599 17.2083 19.4119 16.8469 19.3478 16.691C19.3464 16.6876 19.3438 16.681 19.3438 16.681C19.2826 16.532 18.4569 14.5925 18.3363 14.3191C18.2161 14.0454 17.9536 14 17.9536 14H16.9745C16.7994 14 16.4638 14.2129 16.4638 14.2129C15.4576 14.8568 15.2872 16.3596 15.2577 16.684C15.2282 17.0084 15.1987 17.6969 15.7295 18.8568C16.2603 20.0163 17.5579 21.5894 19.1604 23.0839C20.7051 24.5247 23.0449 25.1737 23.8763 25.4044C23.9071 25.413 23.9358 25.421 23.9624 25.4284C24.7056 25.6359 26.275 25.2674 27.0128 24.4704C27.6733 23.7578 27.6061 23.0197 27.5746 22.6744Z" fill="white"/>
<defs>
<linearGradient id="paint0_linear_1_338" x1="21" y1="56" x2="-7.875" y2="-3.46825e-06" gradientUnits="userSpaceOnUse">
<stop stop-color="#1EBF5A"/>
<stop offset="0.922652" stop-color="#2CE979"/>
</linearGradient>
</defs>
</svg>
